<svg width="503" height="45" viewBox="0 0 503 45" fill="none" xmlns="http://www.w3.org/2000/svg">
<path d="M13.94 0.799999V14H9.28V0.799999H13.94ZM5.66 0.799999V14H1V0.799999H5.66ZM11.86 5.66V9.08H3.24V5.66H11.86ZM28.9214 14H24.1614L23.5614 11.48H20.0014L19.3814 14H14.7414L19.0214 0.799999H24.6214L28.9214 14ZM20.7014 8.58H22.8814L21.8014 4L20.7014 8.58ZM34.3905 10.58H40.3705V14H29.7305V0.799999H34.3905V10.58ZM46.4998 10.58H52.4798V14H41.8398V0.799999H46.4998V10.58ZM59.8391 0.6C61.2391 0.6 62.4391 0.866666 63.4391 1.4C64.4391 1.93333 65.2057 2.70667 65.7391 3.72C66.2724 4.73333 66.5391 5.96 66.5391 7.4C66.5391 8.84 66.2724 10.0667 65.7391 11.08C65.2057 12.0933 64.4391 12.8667 63.4391 13.4C62.4391 13.9333 61.2391 14.2 59.8391 14.2C58.4524 14.2 57.2524 13.9333 56.2391 13.4C55.2391 12.8667 54.4657 12.0933 53.9191 11.08C53.3857 10.0667 53.1191 8.84 53.1191 7.4C53.1191 5.96 53.3857 4.73333 53.9191 3.72C54.4657 2.70667 55.2391 1.93333 56.2391 1.4C57.2524 0.866666 58.4524 0.6 59.8391 0.6ZM59.8391 4.1C59.3857 4.1 59.0124 4.22 58.7191 4.46C58.4391 4.68667 58.2257 5.04 58.0791 5.52C57.9457 6 57.8791 6.62667 57.8791 7.4C57.8791 8.16 57.9457 8.78667 58.0791 9.28C58.2257 9.76 58.4391 10.12 58.7191 10.36C59.0124 10.5867 59.3857 10.7 59.8391 10.7C60.2924 10.7 60.6591 10.5867 60.9391 10.36C61.2324 10.12 61.4457 9.76 61.5791 9.28C61.7124 8.78667 61.7791 8.16 61.7791 7.4C61.7791 6.62667 61.7124 6 61.5791 5.52C61.4457 5.04 61.2324 4.68667 60.9391 4.46C60.6591 4.22 60.2924 4.1 59.8391 4.1ZM70.2988 14L66.5587 0.799999H71.5788L73.1188 10.34L74.9788 0.799999H78.9788L80.9388 10.28L82.4388 0.799999H87.2787L83.5188 14H78.5788L77.5388 9.04L77.0188 5.66H76.9588L76.4388 9.04L75.4188 14H70.2988ZM88.1484 14V0.799999H99.1084V4.22H92.8084V5.86H97.8884V9.02H92.8084V10.58H99.3484V14H88.1484ZM100.668 14V0.799999H111.628V4.22H105.328V5.86H110.408V9.02H105.328V10.58H111.868V14H100.668ZM126.108 0.799999V14H121.068L117.908 8L117.188 6.38H117.148L117.228 9.1V14H113.188V0.799999H118.228L121.388 6.82L122.108 8.42H122.148L122.068 5.7V0.799999H126.108ZM130.069 9.88C130.683 9.88 131.176 10.0133 131.549 10.28C131.936 10.5467 132.216 10.8933 132.389 11.32C132.576 11.7333 132.669 12.18 132.669 12.66C132.669 13.38 132.503 14.0533 132.169 14.68C131.849 15.32 131.443 15.8667 130.949 16.32C130.456 16.7867 129.969 17.12 129.489 17.32L127.749 16.14C128.123 15.9667 128.476 15.7667 128.809 15.54C129.156 15.3133 129.469 15.0667 129.749 14.8C130.029 14.5333 130.249 14.26 130.409 13.98L130.309 13.9C130.216 13.9533 130.109 13.9933 129.989 14.02C129.869 14.06 129.716 14.08 129.529 14.08C129.236 14.08 128.943 14.0133 128.649 13.88C128.356 13.7333 128.109 13.52 127.909 13.24C127.709 12.96 127.609 12.6067 127.609 12.18C127.609 11.6333 127.723 11.1933 127.949 10.86C128.189 10.5267 128.496 10.28 128.869 10.12C129.256 9.96 129.656 9.88 130.069 9.88ZM141.823 14V7.8C141.823 7.36 141.823 6.92 141.823 6.48C141.823 6.04 141.823 5.6 141.823 5.16C141.396 5.53333 140.936 5.86 140.443 6.14C139.949 6.40667 139.429 6.58 138.883 6.66L138.623 2.92C139.036 2.88 139.449 2.79333 139.863 2.66C140.276 2.51333 140.663 2.34 141.023 2.14C141.396 1.94 141.723 1.72667 142.003 1.5C142.296 1.27333 142.516 1.04 142.663 0.799999H146.283V14H141.823ZM153.202 0.6C154.482 0.6 155.549 0.84 156.402 1.32C157.269 1.78667 157.916 2.51333 158.342 3.5C158.782 4.48667 159.002 5.76 159.002 7.32C159.002 9 158.736 10.3467 158.202 11.36C157.682 12.36 156.982 13.0867 156.102 13.54C155.222 13.98 154.256 14.2 153.202 14.2C152.016 14.2 150.976 13.9867 150.082 13.56C149.202 13.12 148.542 12.3933 148.102 11.38L152.182 9.92C152.236 10.2267 152.349 10.46 152.522 10.62C152.696 10.78 152.936 10.86 153.242 10.86C153.482 10.86 153.702 10.8133 153.902 10.72C154.102 10.6267 154.276 10.4867 154.422 10.3C154.569 10.1133 154.682 9.87333 154.762 9.58C154.842 9.28667 154.882 8.93333 154.882 8.52C154.882 8.45333 154.882 8.39333 154.882 8.34C154.882 8.27333 154.882 8.19333 154.882 8.1H154.822C154.689 8.36667 154.476 8.59333 154.182 8.78C153.902 8.96667 153.576 9.11333 153.202 9.22C152.829 9.31333 152.422 9.36 151.982 9.36C151.182 9.36 150.469 9.19333 149.842 8.86C149.216 8.51333 148.722 8.03333 148.362 7.42C148.002 6.79333 147.822 6.06667 147.822 5.24C147.822 4.26667 148.049 3.44 148.502 2.76C148.969 2.06667 149.602 1.53333 150.402 1.16C151.216 0.786666 152.149 0.6 153.202 0.6ZM153.202 3.98C152.856 3.98 152.562 4.08 152.322 4.28C152.096 4.46667 151.982 4.74 151.982 5.1C151.982 5.46 152.096 5.74 152.322 5.94C152.562 6.12667 152.856 6.22 153.202 6.22C153.416 6.22 153.616 6.18 153.802 6.1C153.989 6.00667 154.136 5.88 154.242 5.72C154.362 5.54667 154.422 5.34 154.422 5.1C154.422 4.86 154.362 4.66 154.242 4.5C154.136 4.32667 153.989 4.2 153.802 4.12C153.616 4.02667 153.416 3.98 153.202 3.98ZM159.701 0.799999H171.341V3.88C170.247 4.88 169.407 5.92 168.821 7C168.234 8.08 167.827 9.2 167.601 10.36C167.374 11.52 167.261 12.7333 167.261 14H162.701C162.701 12.56 162.881 11.22 163.241 9.98C163.614 8.74 164.201 7.56 165.001 6.44C165.814 5.30667 166.881 4.18667 168.201 3.08L169.241 4.3H159.701V0.799999ZM177.883 0.659999C178.976 0.659999 179.923 0.813332 180.723 1.12C181.536 1.41333 182.163 1.84 182.603 2.4C183.056 2.94667 183.283 3.60667 183.283 4.38C183.283 5.1 183.103 5.71333 182.743 6.22C182.383 6.72667 181.83 7.11333 181.083 7.38V7.4C181.91 7.65333 182.536 8.02 182.963 8.5C183.403 8.96667 183.623 9.59333 183.623 10.38C183.623 11.1533 183.396 11.8267 182.943 12.4C182.49 12.96 181.836 13.4 180.983 13.72C180.13 14.04 179.096 14.2 177.883 14.2C176.67 14.2 175.636 14.04 174.783 13.72C173.93 13.4 173.276 12.96 172.823 12.4C172.37 11.8267 172.143 11.1533 172.143 10.38C172.143 9.59333 172.363 8.96667 172.803 8.5C173.243 8.02 173.87 7.65333 174.683 7.4V7.38C173.95 7.11333 173.396 6.72667 173.023 6.22C172.663 5.71333 172.483 5.1 172.483 4.38C172.483 3.60667 172.703 2.94667 173.143 2.4C173.596 1.84 174.23 1.41333 175.043 1.12C175.856 0.813332 176.803 0.659999 177.883 0.659999ZM177.883 3.82C177.51 3.82 177.21 3.92 176.983 4.12C176.77 4.32 176.663 4.59333 176.663 4.94C176.663 5.28667 176.77 5.56 176.983 5.76C177.21 5.96 177.516 6.06 177.903 6.06C178.276 6.06 178.57 5.96 178.783 5.76C178.996 5.56 179.103 5.28667 179.103 4.94C179.103 4.59333 178.996 4.32 178.783 4.12C178.57 3.92 178.27 3.82 177.883 3.82ZM177.883 11.04C178.163 11.04 178.396 11 178.583 10.92C178.783 10.8267 178.93 10.6933 179.023 10.52C179.13 10.3467 179.183 10.1467 179.183 9.92C179.183 9.68 179.13 9.48 179.023 9.32C178.93 9.14667 178.783 9.02 178.583 8.94C178.396 8.84667 178.163 8.8 177.883 8.8C177.616 8.8 177.383 8.84667 177.183 8.94C176.983 9.02 176.83 9.14667 176.723 9.32C176.63 9.48 176.583 9.68 176.583 9.92C176.583 10.1467 176.63 10.3467 176.723 10.52C176.83 10.6933 176.983 10.8267 177.183 10.92C177.383 11 177.616 11.04 177.883 11.04ZM11.44 26.8V28.3H6.84V40H5.24V28.3H0.64V26.8H11.44ZM13.5397 40V25.4H15.1397V31.5C15.4864 30.9 15.9464 30.4667 16.5197 30.2C17.093 29.9333 17.7197 29.8 18.3997 29.8C19.1197 29.8 19.773 29.94 20.3597 30.22C20.9464 30.4867 21.413 30.9 21.7597 31.46C22.1197 32.02 22.2997 32.7333 22.2997 33.6V40H20.6997V34.16C20.6997 33.0533 20.4597 32.2867 19.9797 31.86C19.513 31.42 18.933 31.2 18.2397 31.2C17.7597 31.2 17.2797 31.3133 16.7997 31.54C16.3197 31.7667 15.9197 32.14 15.5997 32.66C15.293 33.1667 15.1397 33.8467 15.1397 34.7V40H13.5397ZM30.1025 40.2C29.1558 40.2 28.3092 39.9933 27.5625 39.58C26.8292 39.1667 26.2558 38.5733 25.8425 37.8C25.4292 37.0133 25.2225 36.08 25.2225 35C25.2225 33.92 25.4292 32.9933 25.8425 32.22C26.2558 31.4333 26.8225 30.8333 27.5425 30.42C28.2625 30.0067 29.0825 29.8 30.0025 29.8C30.9358 29.8 31.7292 30 32.3825 30.4C33.0492 30.8 33.5558 31.3467 33.9025 32.04C34.2492 32.72 34.4225 33.4867 34.4225 34.34C34.4225 34.5667 34.4158 34.7733 34.4025 34.96C34.3892 35.1467 34.3692 35.3133 34.3425 35.46H26.2625V34.04H33.6425L32.8225 34.2C32.8225 33.24 32.5558 32.5 32.0225 31.98C31.5025 31.46 30.8158 31.2 29.9625 31.2C29.3092 31.2 28.7425 31.3533 28.2625 31.66C27.7958 31.9533 27.4292 32.3867 27.1625 32.96C26.9092 33.52 26.7825 34.2 26.7825 35C26.7825 35.7867 26.9158 36.4667 27.1825 37.04C27.4492 37.6133 27.8225 38.0533 28.3025 38.36C28.7958 38.6533 29.3825 38.8 30.0625 38.8C30.7958 38.8 31.3892 38.66 31.8425 38.38C32.3092 38.1 32.6825 37.72 32.9625 37.24L34.2225 37.98C33.9692 38.4333 33.6425 38.8267 33.2425 39.16C32.8558 39.4933 32.3958 39.7533 31.8625 39.94C31.3425 40.1133 30.7558 40.2 30.1025 40.2ZM44.2819 40V25.4H45.8819V31.5C46.2285 30.9 46.6885 30.4667 47.2619 30.2C47.8352 29.9333 48.4619 29.8 49.1419 29.8C49.8619 29.8 50.5152 29.94 51.1019 30.22C51.6885 30.4867 52.1552 30.9 52.5019 31.46C52.8619 32.02 53.0419 32.7333 53.0419 33.6V40H51.4419V34.16C51.4419 33.0533 51.2019 32.2867 50.7219 31.86C50.2552 31.42 49.6752 31.2 48.9819 31.2C48.5019 31.2 48.0219 31.3133 47.5419 31.54C47.0619 31.7667 46.6619 32.14 46.3419 32.66C46.0352 33.1667 45.8819 33.8467 45.8819 34.7V40H44.2819ZM62.5047 33.54C62.5047 32.7933 62.3047 32.22 61.9047 31.82C61.5047 31.4067 60.938 31.2 60.2047 31.2C59.5114 31.2 58.9247 31.3533 58.4447 31.66C57.9647 31.9533 57.6114 32.4333 57.3847 33.1L56.0847 32.3C56.3514 31.5533 56.8447 30.9533 57.5647 30.5C58.2847 30.0333 59.178 29.8 60.2447 29.8C60.9647 29.8 61.618 29.9267 62.2047 30.18C62.7914 30.42 63.2514 30.7933 63.5847 31.3C63.9314 31.7933 64.1047 32.4333 64.1047 33.22V38.06C64.1047 38.54 64.358 38.78 64.8647 38.78C65.118 38.78 65.3647 38.7467 65.6047 38.68L65.5247 39.94C65.258 40.0733 64.9114 40.14 64.4847 40.14C64.098 40.14 63.7514 40.0667 63.4447 39.92C63.138 39.7733 62.898 39.5533 62.7247 39.26C62.5514 38.9533 62.4647 38.5733 62.4647 38.12V37.92L62.8647 37.98C62.7047 38.5 62.4314 38.9267 62.0447 39.26C61.658 39.58 61.2247 39.82 60.7447 39.98C60.2647 40.1267 59.7914 40.2 59.3247 40.2C58.738 40.2 58.1914 40.1 57.6847 39.9C57.178 39.7 56.7714 39.4 56.4647 39C56.1714 38.5867 56.0247 38.08 56.0247 37.48C56.0247 36.7333 56.2714 36.12 56.7647 35.64C57.2714 35.1467 57.9714 34.8133 58.8647 34.64L62.8247 33.86V35.18L59.6047 35.84C58.9514 35.9733 58.4647 36.16 58.1447 36.4C57.8247 36.64 57.6647 36.9733 57.6647 37.4C57.6647 37.8133 57.8247 38.1533 58.1447 38.42C58.478 38.6733 58.9447 38.8 59.5447 38.8C59.9314 38.8 60.298 38.7533 60.6447 38.66C61.0047 38.5533 61.3247 38.4 61.6047 38.2C61.8847 37.9867 62.1047 37.7267 62.2647 37.42C62.4247 37.1 62.5047 36.7267 62.5047 36.3V33.54ZM67.9928 40V30H69.3928L69.5328 32.24L69.2728 32.02C69.4861 31.4867 69.7728 31.06 70.1328 30.74C70.4928 30.4067 70.9061 30.1667 71.3728 30.02C71.8528 29.8733 72.3461 29.8 72.8528 29.8C73.5728 29.8 74.2261 29.94 74.8128 30.22C75.3995 30.4867 75.8661 30.9 76.2128 31.46C76.5728 32.02 76.7528 32.7333 76.7528 33.6V40H75.1528V34.16C75.1528 33.0533 74.9128 32.2867 74.4328 31.86C73.9661 31.42 73.3861 31.2 72.6928 31.2C72.2128 31.2 71.7328 31.3133 71.2528 31.54C70.7728 31.7667 70.3728 32.1333 70.0528 32.64C69.7461 33.1467 69.5928 33.8267 69.5928 34.68V40H67.9928ZM84.2756 40.2C83.449 40.2 82.689 39.9933 81.9956 39.58C81.3023 39.1667 80.749 38.5733 80.3356 37.8C79.9223 37.0133 79.7156 36.08 79.7156 35C79.7156 33.8933 79.9356 32.9533 80.3756 32.18C80.8156 31.4067 81.3956 30.82 82.1156 30.42C82.8356 30.0067 83.609 29.8 84.4356 29.8C85.2623 29.8 85.9756 30.0133 86.5756 30.44C87.189 30.8667 87.5956 31.4333 87.7956 32.14L87.5956 32.28V25.4H89.1956V40H87.7956L87.6556 37.58L87.8756 37.46C87.7823 38.0467 87.5556 38.5467 87.1956 38.96C86.849 39.36 86.4156 39.6667 85.8956 39.88C85.389 40.0933 84.849 40.2 84.2756 40.2ZM84.4356 38.8C85.0756 38.8 85.629 38.64 86.0956 38.32C86.5756 38 86.9423 37.5467 87.1956 36.96C87.4623 36.36 87.5956 35.66 87.5956 34.86C87.5956 34.1 87.4623 33.4467 87.1956 32.9C86.9423 32.3533 86.5823 31.9333 86.1156 31.64C85.6623 31.3467 85.129 31.2 84.5156 31.2C83.5023 31.2 82.7156 31.5467 82.1556 32.24C81.5956 32.9333 81.3156 33.8533 81.3156 35C81.3156 36.1467 81.589 37.0667 82.1356 37.76C82.6823 38.4533 83.449 38.8 84.4356 38.8ZM99.7311 40V25.4H101.331V31.5C101.678 30.9 102.138 30.4667 102.711 30.2C103.284 29.9333 103.911 29.8 104.591 29.8C105.311 29.8 105.964 29.94 106.551 30.22C107.138 30.4867 107.604 30.9 107.951 31.46C108.311 32.02 108.491 32.7333 108.491 33.6V40H106.891V34.16C106.891 33.0533 106.651 32.2867 106.171 31.86C105.704 31.42 105.124 31.2 104.431 31.2C103.951 31.2 103.471 31.3133 102.991 31.54C102.511 31.7667 102.111 32.14 101.791 32.66C101.484 33.1667 101.331 33.8467 101.331 34.7V40H99.7311ZM116.254 29.8C117.201 29.8 118.034 30.0067 118.754 30.42C119.487 30.8333 120.061 31.4333 120.474 32.22C120.887 32.9933 121.094 33.92 121.094 35C121.094 36.08 120.887 37.0133 120.474 37.8C120.061 38.5733 119.487 39.1667 118.754 39.58C118.034 39.9933 117.201 40.2 116.254 40.2C115.321 40.2 114.487 39.9933 113.754 39.58C113.021 39.1667 112.447 38.5733 112.034 37.8C111.621 37.0133 111.414 36.08 111.414 35C111.414 33.92 111.621 32.9933 112.034 32.22C112.447 31.4333 113.021 30.8333 113.754 30.42C114.487 30.0067 115.321 29.8 116.254 29.8ZM116.254 31.18C115.574 31.18 114.994 31.3333 114.514 31.64C114.034 31.9467 113.661 32.3867 113.394 32.96C113.141 33.52 113.014 34.2 113.014 35C113.014 35.7867 113.141 36.4667 113.394 37.04C113.661 37.6133 114.034 38.0533 114.514 38.36C114.994 38.6667 115.574 38.82 116.254 38.82C116.934 38.82 117.514 38.6667 117.994 38.36C118.474 38.0533 118.841 37.6133 119.094 37.04C119.361 36.4667 119.494 35.7867 119.494 35C119.494 34.2 119.361 33.52 119.094 32.96C118.841 32.3867 118.474 31.9467 117.994 31.64C117.514 31.3333 116.934 31.18 116.254 31.18ZM125.626 25.4V37.46C125.626 37.9667 125.719 38.32 125.906 38.52C126.093 38.7067 126.393 38.8 126.806 38.8C127.073 38.8 127.293 38.78 127.466 38.74C127.639 38.7 127.873 38.6267 128.166 38.52L127.906 39.92C127.693 40.0133 127.459 40.08 127.206 40.12C126.953 40.1733 126.693 40.2 126.426 40.2C125.613 40.2 125.006 39.98 124.606 39.54C124.219 39.1 124.026 38.4267 124.026 37.52V25.4H125.626ZM134.119 40.2C133.293 40.2 132.533 39.9933 131.839 39.58C131.146 39.1667 130.593 38.5733 130.179 37.8C129.766 37.0133 129.559 36.08 129.559 35C129.559 33.8933 129.779 32.9533 130.219 32.18C130.659 31.4067 131.239 30.82 131.959 30.42C132.679 30.0067 133.453 29.8 134.279 29.8C135.106 29.8 135.819 30.0133 136.419 30.44C137.033 30.8667 137.439 31.4333 137.639 32.14L137.439 32.28V25.4H139.039V40H137.639L137.499 37.58L137.719 37.46C137.626 38.0467 137.399 38.5467 137.039 38.96C136.693 39.36 136.259 39.6667 135.739 39.88C135.233 40.0933 134.693 40.2 134.119 40.2ZM134.279 38.8C134.919 38.8 135.473 38.64 135.939 38.32C136.419 38 136.786 37.5467 137.039 36.96C137.306 36.36 137.439 35.66 137.439 34.86C137.439 34.1 137.306 33.4467 137.039 32.9C136.786 32.3533 136.426 31.9333 135.959 31.64C135.506 31.3467 134.973 31.2 134.359 31.2C133.346 31.2 132.559 31.5467 131.999 32.24C131.439 32.9333 131.159 33.8533 131.159 35C131.159 36.1467 131.433 37.0667 131.979 37.76C132.526 38.4533 133.293 38.8 134.279 38.8ZM143.558 28.08C143.198 28.08 142.905 27.9733 142.678 27.76C142.465 27.5333 142.358 27.24 142.358 26.88C142.358 26.52 142.465 26.2333 142.678 26.02C142.905 25.7933 143.198 25.68 143.558 25.68C143.918 25.68 144.205 25.7933 144.418 26.02C144.645 26.2333 144.758 26.52 144.758 26.88C144.758 27.24 144.645 27.5333 144.418 27.76C144.205 27.9733 143.918 28.08 143.558 28.08ZM144.358 30V40H142.758V30H144.358ZM148.071 40V30H149.471L149.611 32.24L149.351 32.02C149.564 31.4867 149.851 31.06 150.211 30.74C150.571 30.4067 150.984 30.1667 151.451 30.02C151.931 29.8733 152.424 29.8 152.931 29.8C153.651 29.8 154.304 29.94 154.891 30.22C155.478 30.4867 155.944 30.9 156.291 31.46C156.651 32.02 156.831 32.7333 156.831 33.6V40H155.231V34.16C155.231 33.0533 154.991 32.2867 154.511 31.86C154.044 31.42 153.464 31.2 152.771 31.2C152.291 31.2 151.811 31.3133 151.331 31.54C150.851 31.7667 150.451 32.1333 150.131 32.64C149.824 33.1467 149.671 33.8267 149.671 34.68V40H148.071ZM168.874 28.16L169.234 29.58C169.22 29.58 169.2 29.58 169.174 29.58C169.147 29.58 169.12 29.58 169.094 29.58C168.44 29.58 167.934 29.7133 167.574 29.98C167.227 30.2333 167.054 30.6467 167.054 31.22L166.074 30.72C166.074 30.2 166.194 29.7467 166.434 29.36C166.674 28.9733 167 28.68 167.414 28.48C167.827 28.2667 168.28 28.16 168.774 28.16C168.787 28.16 168.8 28.16 168.814 28.16C168.84 28.16 168.86 28.16 168.874 28.16ZM165.834 38.72C166.78 38.72 167.52 38.94 168.054 39.38C168.587 39.8067 168.854 40.38 168.854 41.1C168.854 41.7533 168.634 42.32 168.194 42.8C167.767 43.28 167.187 43.6467 166.454 43.9C165.734 44.1667 164.92 44.3 164.014 44.3C162.44 44.3 161.26 44.0333 160.474 43.5C159.7 42.9667 159.314 42.3267 159.314 41.58C159.314 41.0467 159.487 40.5667 159.834 40.14C160.194 39.7267 160.794 39.4933 161.634 39.44L161.494 39.74C161.04 39.62 160.654 39.42 160.334 39.14C160.027 38.8467 159.874 38.4267 159.874 37.88C159.874 37.3333 160.074 36.8667 160.474 36.48C160.887 36.08 161.494 35.8333 162.294 35.74L163.354 36.28H163.154C162.5 36.3467 162.034 36.5133 161.754 36.78C161.487 37.0333 161.354 37.3133 161.354 37.62C161.354 37.9933 161.487 38.2733 161.754 38.46C162.034 38.6333 162.42 38.72 162.914 38.72H165.834ZM163.994 42.96C164.767 42.96 165.4 42.88 165.894 42.72C166.4 42.56 166.774 42.3533 167.014 42.1C167.254 41.8467 167.374 41.5733 167.374 41.28C167.374 40.92 167.227 40.6333 166.934 40.42C166.654 40.2067 166.14 40.1 165.394 40.1H162.314C161.887 40.1 161.527 40.2067 161.234 40.42C160.94 40.6467 160.794 40.9533 160.794 41.34C160.794 41.8333 161.074 42.2267 161.634 42.52C162.207 42.8133 162.994 42.96 163.994 42.96ZM163.854 29.8C164.654 29.8 165.36 29.9467 165.974 30.24C166.6 30.52 167.087 30.9133 167.434 31.42C167.78 31.9267 167.954 32.5133 167.954 33.18C167.954 33.8333 167.78 34.42 167.434 34.94C167.087 35.4467 166.6 35.8467 165.974 36.14C165.36 36.42 164.654 36.56 163.854 36.56C162.534 36.56 161.52 36.2467 160.814 35.62C160.107 34.98 159.754 34.1667 159.754 33.18C159.754 32.5133 159.927 31.9267 160.274 31.42C160.634 30.9133 161.12 30.52 161.734 30.24C162.347 29.9467 163.054 29.8 163.854 29.8ZM163.854 31.1C163.16 31.1 162.58 31.2933 162.114 31.68C161.647 32.0533 161.414 32.5533 161.414 33.18C161.414 33.7933 161.647 34.2933 162.114 34.68C162.58 35.0667 163.16 35.26 163.854 35.26C164.547 35.26 165.127 35.0667 165.594 34.68C166.06 34.2933 166.294 33.7933 166.294 33.18C166.294 32.5533 166.06 32.0533 165.594 31.68C165.127 31.2933 164.547 31.1 163.854 31.1ZM179.884 27.16V37.24C179.884 37.7333 180.024 38.1 180.304 38.34C180.584 38.58 180.944 38.7 181.384 38.7C181.771 38.7 182.104 38.6333 182.384 38.5C182.664 38.3667 182.917 38.1867 183.144 37.96L183.704 39.3C183.397 39.58 183.031 39.8 182.604 39.96C182.191 40.12 181.711 40.2 181.164 40.2C180.657 40.2 180.184 40.1133 179.744 39.94C179.304 39.7533 178.951 39.4667 178.684 39.08C178.431 38.68 178.297 38.16 178.284 37.52V27.6L179.884 27.16ZM183.524 30V31.38H176.284V30H183.524ZM185.903 40V25.4H187.503V31.5C187.85 30.9 188.31 30.4667 188.883 30.2C189.456 29.9333 190.083 29.8 190.763 29.8C191.483 29.8 192.136 29.94 192.723 30.22C193.31 30.4867 193.776 30.9 194.123 31.46C194.483 32.02 194.663 32.7333 194.663 33.6V40H193.063V34.16C193.063 33.0533 192.823 32.2867 192.343 31.86C191.876 31.42 191.296 31.2 190.603 31.2C190.123 31.2 189.643 31.3133 189.163 31.54C188.683 31.7667 188.283 32.14 187.963 32.66C187.656 33.1667 187.503 33.8467 187.503 34.7V40H185.903ZM202.466 40.2C201.519 40.2 200.672 39.9933 199.926 39.58C199.192 39.1667 198.619 38.5733 198.206 37.8C197.792 37.0133 197.586 36.08 197.586 35C197.586 33.92 197.792 32.9933 198.206 32.22C198.619 31.4333 199.186 30.8333 199.906 30.42C200.626 30.0067 201.446 29.8 202.366 29.8C203.299 29.8 204.092 30 204.746 30.4C205.412 30.8 205.919 31.3467 206.266 32.04C206.612 32.72 206.786 33.4867 206.786 34.34C206.786 34.5667 206.779 34.7733 206.766 34.96C206.752 35.1467 206.732 35.3133 206.706 35.46H198.626V34.04H206.006L205.186 34.2C205.186 33.24 204.919 32.5 204.386 31.98C203.866 31.46 203.179 31.2 202.326 31.2C201.672 31.2 201.106 31.3533 200.626 31.66C200.159 31.9533 199.792 32.3867 199.526 32.96C199.272 33.52 199.146 34.2 199.146 35C199.146 35.7867 199.279 36.4667 199.546 37.04C199.812 37.6133 200.186 38.0533 200.666 38.36C201.159 38.6533 201.746 38.8 202.426 38.8C203.159 38.8 203.752 38.66 204.206 38.38C204.672 38.1 205.046 37.72 205.326 37.24L206.586 37.98C206.332 38.4333 206.006 38.8267 205.606 39.16C205.219 39.4933 204.759 39.7533 204.226 39.94C203.706 40.1133 203.119 40.2 202.466 40.2ZM225.425 30L221.105 34.32L220.725 34.7L217.445 37.98V35.98L223.405 30H225.425ZM218.245 25.4V40H216.645V25.4H218.245ZM221.245 33.5L225.665 40H223.725L219.905 34.4L221.245 33.5ZM227.993 40V30H229.393L229.533 32.24L229.273 32.02C229.486 31.4867 229.773 31.06 230.133 30.74C230.493 30.4067 230.906 30.1667 231.373 30.02C231.853 29.8733 232.346 29.8 232.853 29.8C233.573 29.8 234.226 29.94 234.813 30.22C235.399 30.4867 235.866 30.9 236.213 31.46C236.573 32.02 236.753 32.7333 236.753 33.6V40H235.153V34.16C235.153 33.0533 234.913 32.2867 234.433 31.86C233.966 31.42 233.386 31.2 232.693 31.2C232.213 31.2 231.733 31.3133 231.253 31.54C230.773 31.7667 230.373 32.1333 230.053 32.64C229.746 33.1467 229.593 33.8267 229.593 34.68V40H227.993ZM241.176 28.08C240.816 28.08 240.522 27.9733 240.296 27.76C240.082 27.5333 239.976 27.24 239.976 26.88C239.976 26.52 240.082 26.2333 240.296 26.02C240.522 25.7933 240.816 25.68 241.176 25.68C241.536 25.68 241.822 25.7933 242.036 26.02C242.262 26.2333 242.376 26.52 242.376 26.88C242.376 27.24 242.262 27.5333 242.036 27.76C241.822 27.9733 241.536 28.08 241.176 28.08ZM241.976 30V40H240.376V30H241.976ZM249.748 25.3C250.095 25.3 250.421 25.34 250.728 25.42C251.035 25.5 251.275 25.6133 251.448 25.76L251.028 27.06C250.868 26.9533 250.695 26.88 250.508 26.84C250.321 26.7867 250.115 26.76 249.888 26.76C249.315 26.76 248.868 26.9 248.548 27.18C248.228 27.4467 248.068 27.88 248.068 28.48V30V30.52V40H246.468V28.32C246.468 27.88 246.535 27.4733 246.668 27.1C246.801 26.7267 247.001 26.4067 247.268 26.14C247.548 25.8733 247.895 25.6667 248.308 25.52C248.721 25.3733 249.201 25.3 249.748 25.3ZM251.408 30V31.38H244.468V30H251.408ZM257.446 40.2C256.5 40.2 255.653 39.9933 254.906 39.58C254.173 39.1667 253.6 38.5733 253.186 37.8C252.773 37.0133 252.566 36.08 252.566 35C252.566 33.92 252.773 32.9933 253.186 32.22C253.6 31.4333 254.166 30.8333 254.886 30.42C255.606 30.0067 256.426 29.8 257.346 29.8C258.28 29.8 259.073 30 259.726 30.4C260.393 30.8 260.9 31.3467 261.246 32.04C261.593 32.72 261.766 33.4867 261.766 34.34C261.766 34.5667 261.76 34.7733 261.746 34.96C261.733 35.1467 261.713 35.3133 261.686 35.46H253.606V34.04H260.986L260.166 34.2C260.166 33.24 259.9 32.5 259.366 31.98C258.846 31.46 258.16 31.2 257.306 31.2C256.653 31.2 256.086 31.3533 255.606 31.66C255.14 31.9533 254.773 32.3867 254.506 32.96C254.253 33.52 254.126 34.2 254.126 35C254.126 35.7867 254.26 36.4667 254.526 37.04C254.793 37.6133 255.166 38.0533 255.646 38.36C256.14 38.6533 256.726 38.8 257.406 38.8C258.14 38.8 258.733 38.66 259.186 38.38C259.653 38.1 260.026 37.72 260.306 37.24L261.566 37.98C261.313 38.4333 260.986 38.8267 260.586 39.16C260.2 39.4933 259.74 39.7533 259.206 39.94C258.686 40.1133 258.1 40.2 257.446 40.2ZM275.315 25.3C275.661 25.3 275.988 25.34 276.295 25.42C276.601 25.5 276.841 25.6133 277.015 25.76L276.595 27.06C276.435 26.9533 276.261 26.88 276.075 26.84C275.888 26.7867 275.681 26.76 275.455 26.76C274.881 26.76 274.435 26.9 274.115 27.18C273.795 27.4467 273.635 27.88 273.635 28.48V30V30.52V40H272.035V28.32C272.035 27.88 272.101 27.4733 272.235 27.1C272.368 26.7267 272.568 26.4067 272.835 26.14C273.115 25.8733 273.461 25.6667 273.875 25.52C274.288 25.3733 274.768 25.3 275.315 25.3ZM276.975 30V31.38H270.035V30H276.975ZM282.973 29.8C283.919 29.8 284.753 30.0067 285.473 30.42C286.206 30.8333 286.779 31.4333 287.193 32.22C287.606 32.9933 287.813 33.92 287.813 35C287.813 36.08 287.606 37.0133 287.193 37.8C286.779 38.5733 286.206 39.1667 285.473 39.58C284.753 39.9933 283.919 40.2 282.973 40.2C282.039 40.2 281.206 39.9933 280.473 39.58C279.739 39.1667 279.166 38.5733 278.753 37.8C278.339 37.0133 278.133 36.08 278.133 35C278.133 33.92 278.339 32.9933 278.753 32.22C279.166 31.4333 279.739 30.8333 280.473 30.42C281.206 30.0067 282.039 29.8 282.973 29.8ZM282.973 31.18C282.293 31.18 281.713 31.3333 281.233 31.64C280.753 31.9467 280.379 32.3867 280.113 32.96C279.859 33.52 279.733 34.2 279.733 35C279.733 35.7867 279.859 36.4667 280.113 37.04C280.379 37.6133 280.753 38.0533 281.233 38.36C281.713 38.6667 282.293 38.82 282.973 38.82C283.653 38.82 284.233 38.6667 284.713 38.36C285.193 38.0533 285.559 37.6133 285.813 37.04C286.079 36.4667 286.213 35.7867 286.213 35C286.213 34.2 286.079 33.52 285.813 32.96C285.559 32.3867 285.193 31.9467 284.713 31.64C284.233 31.3333 283.653 31.18 282.973 31.18ZM290.825 40V30H292.125L292.345 31.64C292.625 31.0267 293.032 30.5667 293.565 30.26C294.112 29.9533 294.772 29.8 295.545 29.8C295.718 29.8 295.905 29.8133 296.105 29.84C296.318 29.8667 296.498 29.92 296.645 30L296.365 31.46C296.218 31.4067 296.058 31.3667 295.885 31.34C295.712 31.3133 295.465 31.3 295.145 31.3C294.732 31.3 294.312 31.42 293.885 31.66C293.472 31.9 293.125 32.2667 292.845 32.76C292.565 33.24 292.425 33.8533 292.425 34.6V40H290.825ZM298.989 40V30H300.389L300.489 31.56C300.849 30.9467 301.316 30.5 301.889 30.22C302.476 29.94 303.076 29.8 303.689 29.8C304.396 29.8 305.062 29.96 305.689 30.28C306.316 30.6 306.796 31.0933 307.129 31.76C307.342 31.3067 307.642 30.94 308.029 30.66C308.416 30.3667 308.836 30.1533 309.289 30.02C309.756 29.8733 310.196 29.8 310.609 29.8C311.249 29.8 311.856 29.9333 312.429 30.2C313.016 30.4667 313.496 30.88 313.869 31.44C314.242 32 314.429 32.72 314.429 33.6V40H312.829V33.76C312.829 32.8533 312.602 32.2 312.149 31.8C311.696 31.4 311.136 31.2 310.469 31.2C309.949 31.2 309.462 31.3267 309.009 31.58C308.556 31.8333 308.189 32.2067 307.909 32.7C307.642 33.1933 307.509 33.8 307.509 34.52V40H305.909V33.76C305.909 32.8533 305.682 32.2 305.229 31.8C304.776 31.4 304.216 31.2 303.549 31.2C303.109 31.2 302.656 31.32 302.189 31.56C301.736 31.7867 301.356 32.1533 301.049 32.66C300.742 33.1667 300.589 33.8333 300.589 34.66V40H298.989ZM321.651 40.2C320.678 40.2 319.778 39.9933 318.951 39.58C318.138 39.1667 317.511 38.58 317.071 37.82L318.431 36.84C318.725 37.4533 319.151 37.9333 319.711 38.28C320.285 38.6267 320.971 38.8 321.771 38.8C322.478 38.8 323.031 38.6667 323.431 38.4C323.831 38.12 324.031 37.76 324.031 37.32C324.031 37.04 323.938 36.7867 323.751 36.56C323.578 36.32 323.238 36.1467 322.731 36.04L320.331 35.54C319.358 35.34 318.658 35.0067 318.231 34.54C317.818 34.0733 317.611 33.4933 317.611 32.8C317.611 32.2533 317.765 31.7533 318.071 31.3C318.391 30.8467 318.838 30.4867 319.411 30.22C319.998 29.94 320.685 29.8 321.471 29.8C322.458 29.8 323.291 29.9933 323.971 30.38C324.651 30.7667 325.158 31.3133 325.491 32.02L324.151 32.9C323.925 32.3133 323.558 31.8867 323.051 31.62C322.545 31.34 322.018 31.2 321.471 31.2C320.991 31.2 320.578 31.2667 320.231 31.4C319.898 31.5333 319.638 31.72 319.451 31.96C319.278 32.1867 319.191 32.4467 319.191 32.74C319.191 33.0333 319.291 33.3067 319.491 33.56C319.691 33.8 320.065 33.9733 320.611 34.08L323.111 34.6C324.045 34.7867 324.698 35.0933 325.071 35.52C325.445 35.9467 325.631 36.4667 325.631 37.08C325.631 37.7067 325.465 38.26 325.131 38.74C324.798 39.2067 324.331 39.5667 323.731 39.82C323.131 40.0733 322.438 40.2 321.651 40.2ZM341.255 33.54C341.255 32.7933 341.055 32.22 340.655 31.82C340.255 31.4067 339.688 31.2 338.955 31.2C338.261 31.2 337.675 31.3533 337.195 31.66C336.715 31.9533 336.361 32.4333 336.135 33.1L334.835 32.3C335.101 31.5533 335.595 30.9533 336.315 30.5C337.035 30.0333 337.928 29.8 338.995 29.8C339.715 29.8 340.368 29.9267 340.955 30.18C341.541 30.42 342.001 30.7933 342.335 31.3C342.681 31.7933 342.855 32.4333 342.855 33.22V38.06C342.855 38.54 343.108 38.78 343.615 38.78C343.868 38.78 344.115 38.7467 344.355 38.68L344.275 39.94C344.008 40.0733 343.661 40.14 343.235 40.14C342.848 40.14 342.501 40.0667 342.195 39.92C341.888 39.7733 341.648 39.5533 341.475 39.26C341.301 38.9533 341.215 38.5733 341.215 38.12V37.92L341.615 37.98C341.455 38.5 341.181 38.9267 340.795 39.26C340.408 39.58 339.975 39.82 339.495 39.98C339.015 40.1267 338.541 40.2 338.075 40.2C337.488 40.2 336.941 40.1 336.435 39.9C335.928 39.7 335.521 39.4 335.215 39C334.921 38.5867 334.775 38.08 334.775 37.48C334.775 36.7333 335.021 36.12 335.515 35.64C336.021 35.1467 336.721 34.8133 337.615 34.64L341.575 33.86V35.18L338.355 35.84C337.701 35.9733 337.215 36.16 336.895 36.4C336.575 36.64 336.415 36.9733 336.415 37.4C336.415 37.8133 336.575 38.1533 336.895 38.42C337.228 38.6733 337.695 38.8 338.295 38.8C338.681 38.8 339.048 38.7533 339.395 38.66C339.755 38.5533 340.075 38.4 340.355 38.2C340.635 37.9867 340.855 37.7267 341.015 37.42C341.175 37.1 341.255 36.7267 341.255 36.3V33.54ZM356.69 40.2C355.717 40.2 354.817 39.9933 353.99 39.58C353.177 39.1667 352.55 38.58 352.11 37.82L353.47 36.84C353.764 37.4533 354.19 37.9333 354.75 38.28C355.324 38.6267 356.01 38.8 356.81 38.8C357.517 38.8 358.07 38.6667 358.47 38.4C358.87 38.12 359.07 37.76 359.07 37.32C359.07 37.04 358.977 36.7867 358.79 36.56C358.617 36.32 358.277 36.1467 357.77 36.04L355.37 35.54C354.397 35.34 353.697 35.0067 353.27 34.54C352.857 34.0733 352.65 33.4933 352.65 32.8C352.65 32.2533 352.804 31.7533 353.11 31.3C353.43 30.8467 353.877 30.4867 354.45 30.22C355.037 29.94 355.724 29.8 356.51 29.8C357.497 29.8 358.33 29.9933 359.01 30.38C359.69 30.7667 360.197 31.3133 360.53 32.02L359.19 32.9C358.964 32.3133 358.597 31.8867 358.09 31.62C357.584 31.34 357.057 31.2 356.51 31.2C356.03 31.2 355.617 31.2667 355.27 31.4C354.937 31.5333 354.677 31.72 354.49 31.96C354.317 32.1867 354.23 32.4467 354.23 32.74C354.23 33.0333 354.33 33.3067 354.53 33.56C354.73 33.8 355.104 33.9733 355.65 34.08L358.15 34.6C359.084 34.7867 359.737 35.0933 360.11 35.52C360.484 35.9467 360.67 36.4667 360.67 37.08C360.67 37.7067 360.504 38.26 360.17 38.74C359.837 39.2067 359.37 39.5667 358.77 39.82C358.17 40.0733 357.477 40.2 356.69 40.2ZM367.777 29.8C368.471 29.8 369.077 29.9067 369.597 30.12C370.131 30.3333 370.591 30.64 370.977 31.04C371.364 31.44 371.677 31.9133 371.917 32.46L370.397 33.18C370.184 32.54 369.857 32.0533 369.417 31.72C368.991 31.3733 368.431 31.2 367.737 31.2C367.071 31.2 366.497 31.3533 366.017 31.66C365.537 31.9533 365.171 32.3867 364.917 32.96C364.664 33.52 364.537 34.2 364.537 35C364.537 35.7867 364.664 36.4667 364.917 37.04C365.171 37.6133 365.537 38.0533 366.017 38.36C366.497 38.6533 367.071 38.8 367.737 38.8C368.257 38.8 368.704 38.72 369.077 38.56C369.464 38.4 369.777 38.1667 370.017 37.86C370.271 37.5533 370.444 37.18 370.537 36.74L372.017 37.26C371.791 37.8733 371.477 38.4 371.077 38.84C370.691 39.28 370.217 39.62 369.657 39.86C369.111 40.0867 368.484 40.2 367.777 40.2C366.844 40.2 366.011 39.9933 365.277 39.58C364.544 39.1667 363.971 38.5733 363.557 37.8C363.144 37.0133 362.937 36.08 362.937 35C362.937 33.92 363.144 32.9933 363.557 32.22C363.971 31.4333 364.544 30.8333 365.277 30.42C366.011 30.0067 366.844 29.8 367.777 29.8ZM374.829 40V30H376.129L376.349 31.64C376.629 31.0267 377.035 30.5667 377.569 30.26C378.115 29.9533 378.775 29.8 379.549 29.8C379.722 29.8 379.909 29.8133 380.109 29.84C380.322 29.8667 380.502 29.92 380.649 30L380.369 31.46C380.222 31.4067 380.062 31.3667 379.889 31.34C379.715 31.3133 379.469 31.3 379.149 31.3C378.735 31.3 378.315 31.42 377.889 31.66C377.475 31.9 377.129 32.2667 376.849 32.76C376.569 33.24 376.429 33.8533 376.429 34.6V40H374.829ZM386.86 40.2C385.914 40.2 385.067 39.9933 384.32 39.58C383.587 39.1667 383.014 38.5733 382.6 37.8C382.187 37.0133 381.98 36.08 381.98 35C381.98 33.92 382.187 32.9933 382.6 32.22C383.014 31.4333 383.58 30.8333 384.3 30.42C385.02 30.0067 385.84 29.8 386.76 29.8C387.694 29.8 388.487 30 389.14 30.4C389.807 30.8 390.314 31.3467 390.66 32.04C391.007 32.72 391.18 33.4867 391.18 34.34C391.18 34.5667 391.174 34.7733 391.16 34.96C391.147 35.1467 391.127 35.3133 391.1 35.46H383.02V34.04H390.4L389.58 34.2C389.58 33.24 389.314 32.5 388.78 31.98C388.26 31.46 387.574 31.2 386.72 31.2C386.067 31.2 385.5 31.3533 385.02 31.66C384.554 31.9533 384.187 32.3867 383.92 32.96C383.667 33.52 383.54 34.2 383.54 35C383.54 35.7867 383.674 36.4667 383.94 37.04C384.207 37.6133 384.58 38.0533 385.06 38.36C385.554 38.6533 386.14 38.8 386.82 38.8C387.554 38.8 388.147 38.66 388.6 38.38C389.067 38.1 389.44 37.72 389.72 37.24L390.98 37.98C390.727 38.4333 390.4 38.8267 390 39.16C389.614 39.4933 389.154 39.7533 388.62 39.94C388.1 40.1133 387.514 40.2 386.86 40.2ZM400.063 33.54C400.063 32.7933 399.863 32.22 399.463 31.82C399.063 31.4067 398.497 31.2 397.763 31.2C397.07 31.2 396.483 31.3533 396.003 31.66C395.523 31.9533 395.17 32.4333 394.943 33.1L393.643 32.3C393.91 31.5533 394.403 30.9533 395.123 30.5C395.843 30.0333 396.737 29.8 397.803 29.8C398.523 29.8 399.177 29.9267 399.763 30.18C400.35 30.42 400.81 30.7933 401.143 31.3C401.49 31.7933 401.663 32.4333 401.663 33.22V38.06C401.663 38.54 401.917 38.78 402.423 38.78C402.677 38.78 402.923 38.7467 403.163 38.68L403.083 39.94C402.817 40.0733 402.47 40.14 402.043 40.14C401.657 40.14 401.31 40.0667 401.003 39.92C400.697 39.7733 400.457 39.5533 400.283 39.26C400.11 38.9533 400.023 38.5733 400.023 38.12V37.92L400.423 37.98C400.263 38.5 399.99 38.9267 399.603 39.26C399.217 39.58 398.783 39.82 398.303 39.98C397.823 40.1267 397.35 40.2 396.883 40.2C396.297 40.2 395.75 40.1 395.243 39.9C394.737 39.7 394.33 39.4 394.023 39C393.73 38.5867 393.583 38.08 393.583 37.48C393.583 36.7333 393.83 36.12 394.323 35.64C394.83 35.1467 395.53 34.8133 396.423 34.64L400.383 33.86V35.18L397.163 35.84C396.51 35.9733 396.023 36.16 395.703 36.4C395.383 36.64 395.223 36.9733 395.223 37.4C395.223 37.8133 395.383 38.1533 395.703 38.42C396.037 38.6733 396.503 38.8 397.103 38.8C397.49 38.8 397.857 38.7533 398.203 38.66C398.563 38.5533 398.883 38.4 399.163 38.2C399.443 37.9867 399.663 37.7267 399.823 37.42C399.983 37.1 400.063 36.7267 400.063 36.3V33.54ZM405.551 40V30H406.951L407.051 31.56C407.411 30.9467 407.878 30.5 408.451 30.22C409.038 29.94 409.638 29.8 410.251 29.8C410.958 29.8 411.625 29.96 412.251 30.28C412.878 30.6 413.358 31.0933 413.691 31.76C413.905 31.3067 414.205 30.94 414.591 30.66C414.978 30.3667 415.398 30.1533 415.851 30.02C416.318 29.8733 416.758 29.8 417.171 29.8C417.811 29.8 418.418 29.9333 418.991 30.2C419.578 30.4667 420.058 30.88 420.431 31.44C420.805 32 420.991 32.72 420.991 33.6V40H419.391V33.76C419.391 32.8533 419.165 32.2 418.711 31.8C418.258 31.4 417.698 31.2 417.031 31.2C416.511 31.2 416.025 31.3267 415.571 31.58C415.118 31.8333 414.751 32.2067 414.471 32.7C414.205 33.1933 414.071 33.8 414.071 34.52V40H412.471V33.76C412.471 32.8533 412.245 32.2 411.791 31.8C411.338 31.4 410.778 31.2 410.111 31.2C409.671 31.2 409.218 31.32 408.751 31.56C408.298 31.7867 407.918 32.1533 407.611 32.66C407.305 33.1667 407.151 33.8333 407.151 34.66V40H405.551ZM425.414 28.08C425.054 28.08 424.761 27.9733 424.534 27.76C424.321 27.5333 424.214 27.24 424.214 26.88C424.214 26.52 424.321 26.2333 424.534 26.02C424.761 25.7933 425.054 25.68 425.414 25.68C425.774 25.68 426.061 25.7933 426.274 26.02C426.501 26.2333 426.614 26.52 426.614 26.88C426.614 27.24 426.501 27.5333 426.274 27.76C426.061 27.9733 425.774 28.08 425.414 28.08ZM426.214 30V40H424.614V30H426.214ZM429.926 40V30H431.326L431.466 32.24L431.206 32.02C431.42 31.4867 431.706 31.06 432.066 30.74C432.426 30.4067 432.84 30.1667 433.306 30.02C433.786 29.8733 434.28 29.8 434.786 29.8C435.506 29.8 436.16 29.94 436.746 30.22C437.333 30.4867 437.8 30.9 438.146 31.46C438.506 32.02 438.686 32.7333 438.686 33.6V40H437.086V34.16C437.086 33.0533 436.846 32.2867 436.366 31.86C435.9 31.42 435.32 31.2 434.626 31.2C434.146 31.2 433.666 31.3133 433.186 31.54C432.706 31.7667 432.306 32.1333 431.986 32.64C431.68 33.1467 431.526 33.8267 431.526 34.68V40H429.926ZM450.729 28.16L451.089 29.58C451.076 29.58 451.056 29.58 451.029 29.58C451.003 29.58 450.976 29.58 450.949 29.58C450.296 29.58 449.789 29.7133 449.429 29.98C449.083 30.2333 448.909 30.6467 448.909 31.22L447.929 30.72C447.929 30.2 448.049 29.7467 448.289 29.36C448.529 28.9733 448.856 28.68 449.269 28.48C449.683 28.2667 450.136 28.16 450.629 28.16C450.643 28.16 450.656 28.16 450.669 28.16C450.696 28.16 450.716 28.16 450.729 28.16ZM447.689 38.72C448.636 38.72 449.376 38.94 449.909 39.38C450.443 39.8067 450.709 40.38 450.709 41.1C450.709 41.7533 450.489 42.32 450.049 42.8C449.623 43.28 449.043 43.6467 448.309 43.9C447.589 44.1667 446.776 44.3 445.869 44.3C444.296 44.3 443.116 44.0333 442.329 43.5C441.556 42.9667 441.169 42.3267 441.169 41.58C441.169 41.0467 441.343 40.5667 441.689 40.14C442.049 39.7267 442.649 39.4933 443.489 39.44L443.349 39.74C442.896 39.62 442.509 39.42 442.189 39.14C441.883 38.8467 441.729 38.4267 441.729 37.88C441.729 37.3333 441.929 36.8667 442.329 36.48C442.743 36.08 443.349 35.8333 444.149 35.74L445.209 36.28H445.009C444.356 36.3467 443.889 36.5133 443.609 36.78C443.343 37.0333 443.209 37.3133 443.209 37.62C443.209 37.9933 443.343 38.2733 443.609 38.46C443.889 38.6333 444.276 38.72 444.769 38.72H447.689ZM445.849 42.96C446.623 42.96 447.256 42.88 447.749 42.72C448.256 42.56 448.629 42.3533 448.869 42.1C449.109 41.8467 449.229 41.5733 449.229 41.28C449.229 40.92 449.083 40.6333 448.789 40.42C448.509 40.2067 447.996 40.1 447.249 40.1H444.169C443.743 40.1 443.383 40.2067 443.089 40.42C442.796 40.6467 442.649 40.9533 442.649 41.34C442.649 41.8333 442.929 42.2267 443.489 42.52C444.063 42.8133 444.849 42.96 445.849 42.96ZM445.709 29.8C446.509 29.8 447.216 29.9467 447.829 30.24C448.456 30.52 448.943 30.9133 449.289 31.42C449.636 31.9267 449.809 32.5133 449.809 33.18C449.809 33.8333 449.636 34.42 449.289 34.94C448.943 35.4467 448.456 35.8467 447.829 36.14C447.216 36.42 446.509 36.56 445.709 36.56C444.389 36.56 443.376 36.2467 442.669 35.62C441.963 34.98 441.609 34.1667 441.609 33.18C441.609 32.5133 441.783 31.9267 442.129 31.42C442.489 30.9133 442.976 30.52 443.589 30.24C444.203 29.9467 444.909 29.8 445.709 29.8ZM445.709 31.1C445.016 31.1 444.436 31.2933 443.969 31.68C443.503 32.0533 443.269 32.5533 443.269 33.18C443.269 33.7933 443.503 34.2933 443.969 34.68C444.436 35.0667 445.016 35.26 445.709 35.26C446.403 35.26 446.983 35.0667 447.449 34.68C447.916 34.2933 448.149 33.7933 448.149 33.18C448.149 32.5533 447.916 32.0533 447.449 31.68C446.983 31.2933 446.403 31.1 445.709 31.1ZM463.459 25.3C463.806 25.3 464.132 25.34 464.439 25.42C464.746 25.5 464.986 25.6133 465.159 25.76L464.739 27.06C464.579 26.9533 464.406 26.88 464.219 26.84C464.032 26.7867 463.826 26.76 463.599 26.76C463.026 26.76 462.579 26.9 462.259 27.18C461.939 27.4467 461.779 27.88 461.779 28.48V30V30.52V40H460.179V28.32C460.179 27.88 460.246 27.4733 460.379 27.1C460.512 26.7267 460.712 26.4067 460.979 26.14C461.259 25.8733 461.606 25.6667 462.019 25.52C462.432 25.3733 462.912 25.3 463.459 25.3ZM465.119 30V31.38H458.179V30H465.119ZM472.485 33.54C472.485 32.7933 472.285 32.22 471.885 31.82C471.485 31.4067 470.918 31.2 470.185 31.2C469.492 31.2 468.905 31.3533 468.425 31.66C467.945 31.9533 467.592 32.4333 467.365 33.1L466.065 32.3C466.332 31.5533 466.825 30.9533 467.545 30.5C468.265 30.0333 469.158 29.8 470.225 29.8C470.945 29.8 471.598 29.9267 472.185 30.18C472.772 30.42 473.232 30.7933 473.565 31.3C473.912 31.7933 474.085 32.4333 474.085 33.22V38.06C474.085 38.54 474.338 38.78 474.845 38.78C475.098 38.78 475.345 38.7467 475.585 38.68L475.505 39.94C475.238 40.0733 474.892 40.14 474.465 40.14C474.078 40.14 473.732 40.0667 473.425 39.92C473.118 39.7733 472.878 39.5533 472.705 39.26C472.532 38.9533 472.445 38.5733 472.445 38.12V37.92L472.845 37.98C472.685 38.5 472.412 38.9267 472.025 39.26C471.638 39.58 471.205 39.82 470.725 39.98C470.245 40.1267 469.772 40.2 469.305 40.2C468.718 40.2 468.172 40.1 467.665 39.9C467.158 39.7 466.752 39.4 466.445 39C466.152 38.5867 466.005 38.08 466.005 37.48C466.005 36.7333 466.252 36.12 466.745 35.64C467.252 35.1467 467.952 34.8133 468.845 34.64L472.805 33.86V35.18L469.585 35.84C468.932 35.9733 468.445 36.16 468.125 36.4C467.805 36.64 467.645 36.9733 467.645 37.4C467.645 37.8133 467.805 38.1533 468.125 38.42C468.458 38.6733 468.925 38.8 469.525 38.8C469.912 38.8 470.278 38.7533 470.625 38.66C470.985 38.5533 471.305 38.4 471.585 38.2C471.865 37.9867 472.085 37.7267 472.245 37.42C472.405 37.1 472.485 36.7267 472.485 36.3V33.54ZM482.113 29.8C482.807 29.8 483.413 29.9067 483.933 30.12C484.467 30.3333 484.927 30.64 485.313 31.04C485.7 31.44 486.013 31.9133 486.253 32.46L484.733 33.18C484.52 32.54 484.193 32.0533 483.753 31.72C483.327 31.3733 482.767 31.2 482.073 31.2C481.407 31.2 480.833 31.3533 480.353 31.66C479.873 31.9533 479.507 32.3867 479.253 32.96C479 33.52 478.873 34.2 478.873 35C478.873 35.7867 479 36.4667 479.253 37.04C479.507 37.6133 479.873 38.0533 480.353 38.36C480.833 38.6533 481.407 38.8 482.073 38.8C482.593 38.8 483.04 38.72 483.413 38.56C483.8 38.4 484.113 38.1667 484.353 37.86C484.607 37.5533 484.78 37.18 484.873 36.74L486.353 37.26C486.127 37.8733 485.813 38.4 485.413 38.84C485.027 39.28 484.553 39.62 483.993 39.86C483.447 40.0867 482.82 40.2 482.113 40.2C481.18 40.2 480.347 39.9933 479.613 39.58C478.88 39.1667 478.307 38.5733 477.893 37.8C477.48 37.0133 477.273 36.08 477.273 35C477.273 33.92 477.48 32.9933 477.893 32.22C478.307 31.4333 478.88 30.8333 479.613 30.42C480.347 30.0067 481.18 29.8 482.113 29.8ZM493.345 40.2C492.398 40.2 491.551 39.9933 490.805 39.58C490.071 39.1667 489.498 38.5733 489.085 37.8C488.671 37.0133 488.465 36.08 488.465 35C488.465 33.92 488.671 32.9933 489.085 32.22C489.498 31.4333 490.065 30.8333 490.785 30.42C491.505 30.0067 492.325 29.8 493.245 29.8C494.178 29.8 494.971 30 495.625 30.4C496.291 30.8 496.798 31.3467 497.145 32.04C497.491 32.72 497.665 33.4867 497.665 34.34C497.665 34.5667 497.658 34.7733 497.645 34.96C497.631 35.1467 497.611 35.3133 497.585 35.46H489.505V34.04H496.885L496.065 34.2C496.065 33.24 495.798 32.5 495.265 31.98C494.745 31.46 494.058 31.2 493.205 31.2C492.551 31.2 491.985 31.3533 491.505 31.66C491.038 31.9533 490.671 32.3867 490.405 32.96C490.151 33.52 490.025 34.2 490.025 35C490.025 35.7867 490.158 36.4667 490.425 37.04C490.691 37.6133 491.065 38.0533 491.545 38.36C492.038 38.6533 492.625 38.8 493.305 38.8C494.038 38.8 494.631 38.66 495.085 38.38C495.551 38.1 495.925 37.72 496.205 37.24L497.465 37.98C497.211 38.4333 496.885 38.8267 496.485 39.16C496.098 39.4933 495.638 39.7533 495.105 39.94C494.585 40.1133 493.998 40.2 493.345 40.2ZM501.508 37.6C501.894 37.6 502.208 37.72 502.448 37.96C502.688 38.2 502.808 38.5133 502.808 38.9C502.808 39.2867 502.688 39.6 502.448 39.84C502.208 40.08 501.894 40.2 501.508 40.2C501.121 40.2 500.808 40.08 500.568 39.84C500.328 39.6 500.208 39.2867 500.208 38.9C500.208 38.5133 500.328 38.2 500.568 37.96C500.808 37.72 501.121 37.6 501.508 37.6Z" fill="white"/>
</svg>
