<svg width="360" height="71" viewBox="0 0 360 71" fill="none" xmlns="http://www.w3.org/2000/svg">
<path d="M1 14V0.799999H8.56C10.2267 0.813333 11.4667 1.11333 12.28 1.7C13.0933 2.27333 13.5 3.14667 13.5 4.32C13.5 5.10667 13.26 5.77333 12.78 6.32C12.3 6.86667 11.5467 7.21333 10.52 7.36V7.38C11.6667 7.5 12.5067 7.84 13.04 8.4C13.5733 8.96 13.84 9.66667 13.84 10.52C13.84 11.68 13.4467 12.5533 12.66 13.14C11.8867 13.7133 10.6933 14 9.08 14H1ZM5.46 10.96H7.84C8.25333 10.96 8.56 10.88 8.76 10.72C8.97333 10.5467 9.08 10.3 9.08 9.98C9.08 9.67333 8.97333 9.44 8.76 9.28C8.56 9.12 8.25333 9.04 7.84 9.04H5.46V10.96ZM5.46 5.92H7.54C8.34 5.92 8.74 5.6 8.74 4.96C8.74 4.32 8.34 4 7.54 4H5.46V5.92ZM22.242 0.799999C23.962 0.799999 25.282 1.18667 26.202 1.96C27.122 2.72 27.582 3.73333 27.582 5C27.582 6.45333 27.1287 7.54667 26.222 8.28C25.3287 9.01333 24.022 9.38 22.302 9.38L21.842 9.62H19.642V14H15.082V0.799999H22.242ZM21.442 6.56C21.9354 6.56 22.302 6.47333 22.542 6.3C22.7954 6.11333 22.922 5.79333 22.922 5.34C22.922 4.9 22.7954 4.58667 22.542 4.4C22.302 4.21333 21.9354 4.12 21.442 4.12H19.642V6.56H21.442ZM24.202 7.54L28.322 14H23.262L20.182 8.22L24.202 7.54ZM42.1636 14H37.4036L36.8036 11.48H33.2436L32.6236 14H27.9836L32.2636 0.799999H37.8636L42.1636 14ZM33.9436 8.58H36.1236L35.0436 4L33.9436 8.58ZM54.6906 0.799999L50.2306 14H44.6906L40.2306 0.799999H45.0906L46.9106 8.02L47.5506 10.6L48.1506 8.06L50.0106 0.799999H54.6906ZM55.5313 14V0.799999H66.4913V4.22H60.1913V5.86H65.2713V9.02H60.1913V10.58H66.7313V14H55.5313ZM70.3428 9.88C70.9561 9.88 71.4495 10.0133 71.8228 10.28C72.2095 10.5467 72.4895 10.8933 72.6628 11.32C72.8495 11.7333 72.9428 12.18 72.9428 12.66C72.9428 13.38 72.7761 14.0533 72.4428 14.68C72.1228 15.32 71.7161 15.8667 71.2228 16.32C70.7295 16.7867 70.2428 17.12 69.7628 17.32L68.0228 16.14C68.3961 15.9667 68.7495 15.7667 69.0828 15.54C69.4295 15.3133 69.7428 15.0667 70.0228 14.8C70.3028 14.5333 70.5228 14.26 70.6828 13.98L70.5828 13.9C70.4895 13.9533 70.3828 13.9933 70.2628 14.02C70.1428 14.06 69.9895 14.08 69.8028 14.08C69.5095 14.08 69.2161 14.0133 68.9228 13.88C68.6295 13.7333 68.3828 13.52 68.1828 13.24C67.9828 12.96 67.8828 12.6067 67.8828 12.18C67.8828 11.6333 67.9961 11.1933 68.2228 10.86C68.4628 10.5267 68.7695 10.28 69.1428 10.12C69.5295 9.96 69.9295 9.88 70.3428 9.88ZM79.5161 14V11.2C80.5161 10.6667 81.3828 10.1333 82.1161 9.6C82.8628 9.06667 83.4761 8.54667 83.9561 8.04C84.4494 7.52 84.8161 7.03333 85.0561 6.58C85.2961 6.11333 85.4161 5.68667 85.4161 5.3C85.4161 4.98 85.3361 4.7 85.1761 4.46C85.0161 4.22 84.7361 4.1 84.3361 4.1C83.8828 4.1 83.5494 4.28667 83.3361 4.66C83.1228 5.03333 83.0294 5.62667 83.0561 6.44L79.0761 5.48C79.0494 4.36 79.2828 3.44 79.7761 2.72C80.2694 2 80.9428 1.46667 81.7961 1.12C82.6628 0.773333 83.6161 0.6 84.6561 0.6C85.6561 0.6 86.4961 0.739999 87.1761 1.02C87.8694 1.28667 88.4228 1.64 88.8361 2.08C89.2494 2.50667 89.5428 2.97333 89.7161 3.48C89.9028 3.97333 89.9961 4.44667 89.9961 4.9C89.9961 5.78 89.7628 6.57333 89.2961 7.28C88.8428 7.98667 88.2294 8.62 87.4561 9.18C86.6828 9.74 85.8228 10.2467 84.8761 10.7V10.74C85.1561 10.7133 85.4628 10.6933 85.7961 10.68C86.1428 10.6533 86.5028 10.64 86.8761 10.64C87.2628 10.6267 87.6428 10.62 88.0161 10.62H90.0761V14H79.5161ZM97.1855 14.2C95.1855 14.2 93.7055 13.6333 92.7455 12.5C91.7988 11.3667 91.3255 9.66667 91.3255 7.4C91.3255 5.13333 91.7988 3.43333 92.7455 2.3C93.7055 1.16667 95.1855 0.6 97.1855 0.6C99.1855 0.6 100.659 1.16667 101.605 2.3C102.565 3.43333 103.045 5.13333 103.045 7.4C103.045 9.66667 102.565 11.3667 101.605 12.5C100.659 13.6333 99.1855 14.2 97.1855 14.2ZM97.1855 10.7C97.5321 10.7 97.7988 10.6067 97.9855 10.42C98.1721 10.2333 98.2988 9.9 98.3655 9.42C98.4455 8.94 98.4855 8.26667 98.4855 7.4C98.4855 6.53333 98.4455 5.86 98.3655 5.38C98.2988 4.9 98.1721 4.56667 97.9855 4.38C97.7988 4.19333 97.5321 4.1 97.1855 4.1C96.8521 4.1 96.5855 4.19333 96.3855 4.38C96.1988 4.56667 96.0655 4.9 95.9855 5.38C95.9188 5.86 95.8855 6.53333 95.8855 7.4C95.8855 8.26667 95.9188 8.94 95.9855 9.42C96.0655 9.9 96.1988 10.2333 96.3855 10.42C96.5855 10.6067 96.8521 10.7 97.1855 10.7ZM107.37 14V7.8C107.37 7.36 107.37 6.92 107.37 6.48C107.37 6.04 107.37 5.6 107.37 5.16C106.943 5.53333 106.483 5.86 105.99 6.14C105.496 6.40667 104.976 6.58 104.43 6.66L104.17 2.92C104.583 2.88 104.996 2.79333 105.41 2.66C105.823 2.51333 106.21 2.34 106.57 2.14C106.943 1.94 107.27 1.72667 107.55 1.5C107.843 1.27333 108.063 1.04 108.21 0.799999H111.83V14H107.37ZM113.969 14V11.2C114.969 10.6667 115.836 10.1333 116.569 9.6C117.316 9.06667 117.929 8.54667 118.409 8.04C118.903 7.52 119.269 7.03333 119.509 6.58C119.749 6.11333 119.869 5.68667 119.869 5.3C119.869 4.98 119.789 4.7 119.629 4.46C119.469 4.22 119.189 4.1 118.789 4.1C118.336 4.1 118.003 4.28667 117.789 4.66C117.576 5.03333 117.483 5.62667 117.509 6.44L113.529 5.48C113.503 4.36 113.736 3.44 114.229 2.72C114.723 2 115.396 1.46667 116.249 1.12C117.116 0.773333 118.069 0.6 119.109 0.6C120.109 0.6 120.949 0.739999 121.629 1.02C122.323 1.28667 122.876 1.64 123.289 2.08C123.703 2.50667 123.996 2.97333 124.169 3.48C124.356 3.97333 124.449 4.44667 124.449 4.9C124.449 5.78 124.216 6.57333 123.749 7.28C123.296 7.98667 122.683 8.62 121.909 9.18C121.136 9.74 120.276 10.2467 119.329 10.7V10.74C119.609 10.7133 119.916 10.6933 120.249 10.68C120.596 10.6533 120.956 10.64 121.329 10.64C121.716 10.6267 122.096 10.62 122.469 10.62H124.529V14H113.969ZM12.68 40H10.98L9.58 36.34H3.6L2.2 40H0.52L5.66 26.8H7.56L12.68 40ZM4.18 34.84H9L6.58 28.34L4.18 34.84ZM25.9788 40.2C25.4188 40.2 24.8988 40.1 24.4188 39.9C23.9388 39.7 23.5254 39.42 23.1788 39.06C22.8321 38.7 22.5721 38.2933 22.3988 37.84L22.6188 37.56L22.4788 40H21.0788V25.4H22.6788V32.26L22.4788 31.96C22.7454 31.3333 23.1921 30.82 23.8188 30.42C24.4588 30.0067 25.1854 29.8 25.9988 29.8C26.8254 29.8 27.5854 30.0067 28.2788 30.42C28.9721 30.8333 29.5254 31.4267 29.9388 32.2C30.3521 32.9733 30.5588 33.9067 30.5588 35C30.5588 36.08 30.3454 37.0133 29.9188 37.8C29.5054 38.5733 28.9521 39.1667 28.2588 39.58C27.5654 39.9933 26.8054 40.2 25.9788 40.2ZM25.8188 38.8C26.8054 38.8 27.5721 38.4533 28.1188 37.76C28.6788 37.0667 28.9588 36.1467 28.9588 35C28.9588 33.8533 28.6854 32.9333 28.1388 32.24C27.5921 31.5467 26.8254 31.2 25.8388 31.2C25.2121 31.2 24.6588 31.36 24.1788 31.68C23.7121 32 23.3454 32.4467 23.0788 33.02C22.8121 33.5933 22.6788 34.2667 22.6788 35.04C22.6788 35.8 22.8054 36.4667 23.0588 37.04C23.3254 37.6 23.6921 38.0333 24.1588 38.34C24.6388 38.6467 25.1921 38.8 25.8188 38.8ZM37.7978 40.2C36.8511 40.2 36.0045 39.9933 35.2578 39.58C34.5245 39.1667 33.9511 38.5733 33.5378 37.8C33.1245 37.0133 32.9178 36.08 32.9178 35C32.9178 33.92 33.1245 32.9933 33.5378 32.22C33.9511 31.4333 34.5178 30.8333 35.2378 30.42C35.9578 30.0067 36.7778 29.8 37.6978 29.8C38.6311 29.8 39.4245 30 40.0778 30.4C40.7445 30.8 41.2511 31.3467 41.5978 32.04C41.9445 32.72 42.1178 33.4867 42.1178 34.34C42.1178 34.5667 42.1111 34.7733 42.0978 34.96C42.0845 35.1467 42.0645 35.3133 42.0378 35.46H33.9578V34.04H41.3378L40.5178 34.2C40.5178 33.24 40.2511 32.5 39.7178 31.98C39.1978 31.46 38.5111 31.2 37.6578 31.2C37.0045 31.2 36.4378 31.3533 35.9578 31.66C35.4911 31.9533 35.1245 32.3867 34.8578 32.96C34.6045 33.52 34.4778 34.2 34.4778 35C34.4778 35.7867 34.6111 36.4667 34.8778 37.04C35.1445 37.6133 35.5178 38.0533 35.9978 38.36C36.4911 38.6533 37.0778 38.8 37.7578 38.8C38.4911 38.8 39.0845 38.66 39.5378 38.38C40.0045 38.1 40.3778 37.72 40.6578 37.24L41.9178 37.98C41.6645 38.4333 41.3378 38.8267 40.9378 39.16C40.5511 39.4933 40.0911 39.7533 39.5578 39.94C39.0378 40.1133 38.4511 40.2 37.7978 40.2ZM51.0008 33.54C51.0008 32.7933 50.8008 32.22 50.4008 31.82C50.0008 31.4067 49.4341 31.2 48.7008 31.2C48.0074 31.2 47.4208 31.3533 46.9408 31.66C46.4608 31.9533 46.1074 32.4333 45.8808 33.1L44.5808 32.3C44.8474 31.5533 45.3408 30.9533 46.0608 30.5C46.7808 30.0333 47.6741 29.8 48.7408 29.8C49.4608 29.8 50.1141 29.9267 50.7008 30.18C51.2874 30.42 51.7474 30.7933 52.0808 31.3C52.4274 31.7933 52.6008 32.4333 52.6008 33.22V38.06C52.6008 38.54 52.8541 38.78 53.3608 38.78C53.6141 38.78 53.8608 38.7467 54.1008 38.68L54.0208 39.94C53.7541 40.0733 53.4074 40.14 52.9808 40.14C52.5941 40.14 52.2474 40.0667 51.9408 39.92C51.6341 39.7733 51.3941 39.5533 51.2208 39.26C51.0474 38.9533 50.9608 38.5733 50.9608 38.12V37.92L51.3608 37.98C51.2008 38.5 50.9274 38.9267 50.5408 39.26C50.1541 39.58 49.7208 39.82 49.2408 39.98C48.7608 40.1267 48.2874 40.2 47.8208 40.2C47.2341 40.2 46.6874 40.1 46.1808 39.9C45.6741 39.7 45.2674 39.4 44.9608 39C44.6674 38.5867 44.5208 38.08 44.5208 37.48C44.5208 36.7333 44.7674 36.12 45.2608 35.64C45.7674 35.1467 46.4674 34.8133 47.3608 34.64L51.3208 33.86V35.18L48.1008 35.84C47.4474 35.9733 46.9608 36.16 46.6408 36.4C46.3208 36.64 46.1608 36.9733 46.1608 37.4C46.1608 37.8133 46.3208 38.1533 46.6408 38.42C46.9741 38.6733 47.4408 38.8 48.0408 38.8C48.4274 38.8 48.7941 38.7533 49.1408 38.66C49.5008 38.5533 49.8208 38.4 50.1008 38.2C50.3808 37.9867 50.6008 37.7267 50.7608 37.42C50.9208 37.1 51.0008 36.7267 51.0008 36.3V33.54ZM56.4889 40V30H57.7889L58.0089 31.64C58.2889 31.0267 58.6956 30.5667 59.2289 30.26C59.7756 29.9533 60.4356 29.8 61.2089 29.8C61.3822 29.8 61.5689 29.8133 61.7689 29.84C61.9822 29.8667 62.1622 29.92 62.3089 30L62.0289 31.46C61.8822 31.4067 61.7222 31.3667 61.5489 31.34C61.3756 31.3133 61.1289 31.3 60.8089 31.3C60.3956 31.3 59.9756 31.42 59.5489 31.66C59.1356 31.9 58.7889 32.2667 58.5089 32.76C58.2289 33.24 58.0889 33.8533 58.0889 34.6V40H56.4889ZM71.0006 40V25.4H72.6006V31.5C72.9473 30.9 73.4073 30.4667 73.9806 30.2C74.554 29.9333 75.1806 29.8 75.8606 29.8C76.5806 29.8 77.234 29.94 77.8206 30.22C78.4073 30.4867 78.874 30.9 79.2206 31.46C79.5806 32.02 79.7606 32.7333 79.7606 33.6V40H78.1606V34.16C78.1606 33.0533 77.9206 32.2867 77.4406 31.86C76.974 31.42 76.394 31.2 75.7006 31.2C75.2206 31.2 74.7406 31.3133 74.2606 31.54C73.7806 31.7667 73.3806 32.14 73.0606 32.66C72.754 33.1667 72.6006 33.8467 72.6006 34.7V40H71.0006ZM84.1834 28.08C83.8234 28.08 83.5301 27.9733 83.3034 27.76C83.0901 27.5333 82.9834 27.24 82.9834 26.88C82.9834 26.52 83.0901 26.2333 83.3034 26.02C83.5301 25.7933 83.8234 25.68 84.1834 25.68C84.5434 25.68 84.8301 25.7933 85.0434 26.02C85.2701 26.2333 85.3834 26.52 85.3834 26.88C85.3834 27.24 85.2701 27.5333 85.0434 27.76C84.8301 27.9733 84.5434 28.08 84.1834 28.08ZM84.9834 30V40H83.3834V30H84.9834ZM92.5959 40.2C91.7693 40.2 91.0093 39.9933 90.3159 39.58C89.6226 39.1667 89.0693 38.5733 88.6559 37.8C88.2426 37.0133 88.0359 36.08 88.0359 35C88.0359 33.8933 88.2559 32.9533 88.6959 32.18C89.1359 31.4067 89.7159 30.82 90.4359 30.42C91.1559 30.0067 91.9293 29.8 92.7559 29.8C93.5826 29.8 94.2959 30.0133 94.8959 30.44C95.5093 30.8667 95.9159 31.4333 96.1159 32.14L95.9159 32.28V25.4H97.5159V40H96.1159L95.9759 37.58L96.1959 37.46C96.1026 38.0467 95.8759 38.5467 95.5159 38.96C95.1693 39.36 94.7359 39.6667 94.2159 39.88C93.7093 40.0933 93.1693 40.2 92.5959 40.2ZM92.7559 38.8C93.3959 38.8 93.9493 38.64 94.4159 38.32C94.8959 38 95.2626 37.5467 95.5159 36.96C95.7826 36.36 95.9159 35.66 95.9159 34.86C95.9159 34.1 95.7826 33.4467 95.5159 32.9C95.2626 32.3533 94.9026 31.9333 94.4359 31.64C93.9826 31.3467 93.4493 31.2 92.8359 31.2C91.8226 31.2 91.0359 31.5467 90.4759 32.24C89.9159 32.9333 89.6359 33.8533 89.6359 35C89.6359 36.1467 89.9093 37.0667 90.4559 37.76C91.0026 38.4533 91.7693 38.8 92.7559 38.8ZM105.415 40.2C104.468 40.2 103.622 39.9933 102.875 39.58C102.142 39.1667 101.568 38.5733 101.155 37.8C100.742 37.0133 100.535 36.08 100.535 35C100.535 33.92 100.742 32.9933 101.155 32.22C101.568 31.4333 102.135 30.8333 102.855 30.42C103.575 30.0067 104.395 29.8 105.315 29.8C106.248 29.8 107.042 30 107.695 30.4C108.362 30.8 108.868 31.3467 109.215 32.04C109.562 32.72 109.735 33.4867 109.735 34.34C109.735 34.5667 109.728 34.7733 109.715 34.96C109.702 35.1467 109.682 35.3133 109.655 35.46H101.575V34.04H108.955L108.135 34.2C108.135 33.24 107.868 32.5 107.335 31.98C106.815 31.46 106.128 31.2 105.275 31.2C104.622 31.2 104.055 31.3533 103.575 31.66C103.108 31.9533 102.742 32.3867 102.475 32.96C102.222 33.52 102.095 34.2 102.095 35C102.095 35.7867 102.228 36.4667 102.495 37.04C102.762 37.6133 103.135 38.0533 103.615 38.36C104.108 38.6533 104.695 38.8 105.375 38.8C106.108 38.8 106.702 38.66 107.155 38.38C107.622 38.1 107.995 37.72 108.275 37.24L109.535 37.98C109.282 38.4333 108.955 38.8267 108.555 39.16C108.168 39.4933 107.708 39.7533 107.175 39.94C106.655 40.1133 106.068 40.2 105.415 40.2ZM116.378 40.2C115.405 40.2 114.505 39.9933 113.678 39.58C112.865 39.1667 112.238 38.58 111.798 37.82L113.158 36.84C113.451 37.4533 113.878 37.9333 114.438 38.28C115.011 38.6267 115.698 38.8 116.498 38.8C117.205 38.8 117.758 38.6667 118.158 38.4C118.558 38.12 118.758 37.76 118.758 37.32C118.758 37.04 118.665 36.7867 118.478 36.56C118.305 36.32 117.965 36.1467 117.458 36.04L115.058 35.54C114.085 35.34 113.385 35.0067 112.958 34.54C112.545 34.0733 112.338 33.4933 112.338 32.8C112.338 32.2533 112.491 31.7533 112.798 31.3C113.118 30.8467 113.565 30.4867 114.138 30.22C114.725 29.94 115.411 29.8 116.198 29.8C117.185 29.8 118.018 29.9933 118.698 30.38C119.378 30.7667 119.885 31.3133 120.218 32.02L118.878 32.9C118.651 32.3133 118.285 31.8867 117.778 31.62C117.271 31.34 116.745 31.2 116.198 31.2C115.718 31.2 115.305 31.2667 114.958 31.4C114.625 31.5333 114.365 31.72 114.178 31.96C114.005 32.1867 113.918 32.4467 113.918 32.74C113.918 33.0333 114.018 33.3067 114.218 33.56C114.418 33.8 114.791 33.9733 115.338 34.08L117.838 34.6C118.771 34.7867 119.425 35.0933 119.798 35.52C120.171 35.9467 120.358 36.4667 120.358 37.08C120.358 37.7067 120.191 38.26 119.858 38.74C119.525 39.2067 119.058 39.5667 118.458 39.82C117.858 40.0733 117.165 40.2 116.378 40.2ZM135.981 33.54C135.981 32.7933 135.781 32.22 135.381 31.82C134.981 31.4067 134.415 31.2 133.681 31.2C132.988 31.2 132.401 31.3533 131.921 31.66C131.441 31.9533 131.088 32.4333 130.861 33.1L129.561 32.3C129.828 31.5533 130.321 30.9533 131.041 30.5C131.761 30.0333 132.655 29.8 133.721 29.8C134.441 29.8 135.095 29.9267 135.681 30.18C136.268 30.42 136.728 30.7933 137.061 31.3C137.408 31.7933 137.581 32.4333 137.581 33.22V38.06C137.581 38.54 137.835 38.78 138.341 38.78C138.595 38.78 138.841 38.7467 139.081 38.68L139.001 39.94C138.735 40.0733 138.388 40.14 137.961 40.14C137.575 40.14 137.228 40.0667 136.921 39.92C136.615 39.7733 136.375 39.5533 136.201 39.26C136.028 38.9533 135.941 38.5733 135.941 38.12V37.92L136.341 37.98C136.181 38.5 135.908 38.9267 135.521 39.26C135.135 39.58 134.701 39.82 134.221 39.98C133.741 40.1267 133.268 40.2 132.801 40.2C132.215 40.2 131.668 40.1 131.161 39.9C130.655 39.7 130.248 39.4 129.941 39C129.648 38.5867 129.501 38.08 129.501 37.48C129.501 36.7333 129.748 36.12 130.241 35.64C130.748 35.1467 131.448 34.8133 132.341 34.64L136.301 33.86V35.18L133.081 35.84C132.428 35.9733 131.941 36.16 131.621 36.4C131.301 36.64 131.141 36.9733 131.141 37.4C131.141 37.8133 131.301 38.1533 131.621 38.42C131.955 38.6733 132.421 38.8 133.021 38.8C133.408 38.8 133.775 38.7533 134.121 38.66C134.481 38.5533 134.801 38.4 135.081 38.2C135.361 37.9867 135.581 37.7267 135.741 37.42C135.901 37.1 135.981 36.7267 135.981 36.3V33.54ZM141.469 40V30H142.869L142.969 31.56C143.329 30.9467 143.796 30.5 144.369 30.22C144.956 29.94 145.556 29.8 146.169 29.8C146.876 29.8 147.543 29.96 148.169 30.28C148.796 30.6 149.276 31.0933 149.609 31.76C149.823 31.3067 150.123 30.94 150.509 30.66C150.896 30.3667 151.316 30.1533 151.769 30.02C152.236 29.8733 152.676 29.8 153.089 29.8C153.729 29.8 154.336 29.9333 154.909 30.2C155.496 30.4667 155.976 30.88 156.349 31.44C156.723 32 156.909 32.72 156.909 33.6V40H155.309V33.76C155.309 32.8533 155.083 32.2 154.629 31.8C154.176 31.4 153.616 31.2 152.949 31.2C152.429 31.2 151.943 31.3267 151.489 31.58C151.036 31.8333 150.669 32.2067 150.389 32.7C150.123 33.1933 149.989 33.8 149.989 34.52V40H148.389V33.76C148.389 32.8533 148.163 32.2 147.709 31.8C147.256 31.4 146.696 31.2 146.029 31.2C145.589 31.2 145.136 31.32 144.669 31.56C144.216 31.7867 143.836 32.1533 143.529 32.66C143.223 33.1667 143.069 33.8333 143.069 34.66V40H141.469ZM164.672 29.8C165.619 29.8 166.452 30.0067 167.172 30.42C167.905 30.8333 168.479 31.4333 168.892 32.22C169.305 32.9933 169.512 33.92 169.512 35C169.512 36.08 169.305 37.0133 168.892 37.8C168.479 38.5733 167.905 39.1667 167.172 39.58C166.452 39.9933 165.619 40.2 164.672 40.2C163.739 40.2 162.905 39.9933 162.172 39.58C161.439 39.1667 160.865 38.5733 160.452 37.8C160.039 37.0133 159.832 36.08 159.832 35C159.832 33.92 160.039 32.9933 160.452 32.22C160.865 31.4333 161.439 30.8333 162.172 30.42C162.905 30.0067 163.739 29.8 164.672 29.8ZM164.672 31.18C163.992 31.18 163.412 31.3333 162.932 31.64C162.452 31.9467 162.079 32.3867 161.812 32.96C161.559 33.52 161.432 34.2 161.432 35C161.432 35.7867 161.559 36.4667 161.812 37.04C162.079 37.6133 162.452 38.0533 162.932 38.36C163.412 38.6667 163.992 38.82 164.672 38.82C165.352 38.82 165.932 38.6667 166.412 38.36C166.892 38.0533 167.259 37.6133 167.512 37.04C167.779 36.4667 167.912 35.7867 167.912 35C167.912 34.2 167.779 33.52 167.512 32.96C167.259 32.3867 166.892 31.9467 166.412 31.64C165.932 31.3333 165.352 31.18 164.672 31.18ZM172.524 40V30H173.924L174.064 32.24L173.804 32.02C174.017 31.4867 174.304 31.06 174.664 30.74C175.024 30.4067 175.437 30.1667 175.904 30.02C176.384 29.8733 176.877 29.8 177.384 29.8C178.104 29.8 178.757 29.94 179.344 30.22C179.931 30.4867 180.397 30.9 180.744 31.46C181.104 32.02 181.284 32.7333 181.284 33.6V40H179.684V34.16C179.684 33.0533 179.444 32.2867 178.964 31.86C178.497 31.42 177.917 31.2 177.224 31.2C176.744 31.2 176.264 31.3133 175.784 31.54C175.304 31.7667 174.904 32.1333 174.584 32.64C174.277 33.1467 174.124 33.8267 174.124 34.68V40H172.524ZM193.327 28.16L193.687 29.58C193.674 29.58 193.654 29.58 193.627 29.58C193.6 29.58 193.574 29.58 193.547 29.58C192.894 29.58 192.387 29.7133 192.027 29.98C191.68 30.2333 191.507 30.6467 191.507 31.22L190.527 30.72C190.527 30.2 190.647 29.7467 190.887 29.36C191.127 28.9733 191.454 28.68 191.867 28.48C192.28 28.2667 192.734 28.16 193.227 28.16C193.24 28.16 193.254 28.16 193.267 28.16C193.294 28.16 193.314 28.16 193.327 28.16ZM190.287 38.72C191.234 38.72 191.974 38.94 192.507 39.38C193.04 39.8067 193.307 40.38 193.307 41.1C193.307 41.7533 193.087 42.32 192.647 42.8C192.22 43.28 191.64 43.6467 190.907 43.9C190.187 44.1667 189.374 44.3 188.467 44.3C186.894 44.3 185.714 44.0333 184.927 43.5C184.154 42.9667 183.767 42.3267 183.767 41.58C183.767 41.0467 183.94 40.5667 184.287 40.14C184.647 39.7267 185.247 39.4933 186.087 39.44L185.947 39.74C185.494 39.62 185.107 39.42 184.787 39.14C184.48 38.8467 184.327 38.4267 184.327 37.88C184.327 37.3333 184.527 36.8667 184.927 36.48C185.34 36.08 185.947 35.8333 186.747 35.74L187.807 36.28H187.607C186.954 36.3467 186.487 36.5133 186.207 36.78C185.94 37.0333 185.807 37.3133 185.807 37.62C185.807 37.9933 185.94 38.2733 186.207 38.46C186.487 38.6333 186.874 38.72 187.367 38.72H190.287ZM188.447 42.96C189.22 42.96 189.854 42.88 190.347 42.72C190.854 42.56 191.227 42.3533 191.467 42.1C191.707 41.8467 191.827 41.5733 191.827 41.28C191.827 40.92 191.68 40.6333 191.387 40.42C191.107 40.2067 190.594 40.1 189.847 40.1H186.767C186.34 40.1 185.98 40.2067 185.687 40.42C185.394 40.6467 185.247 40.9533 185.247 41.34C185.247 41.8333 185.527 42.2267 186.087 42.52C186.66 42.8133 187.447 42.96 188.447 42.96ZM188.307 29.8C189.107 29.8 189.814 29.9467 190.427 30.24C191.054 30.52 191.54 30.9133 191.887 31.42C192.234 31.9267 192.407 32.5133 192.407 33.18C192.407 33.8333 192.234 34.42 191.887 34.94C191.54 35.4467 191.054 35.8467 190.427 36.14C189.814 36.42 189.107 36.56 188.307 36.56C186.987 36.56 185.974 36.2467 185.267 35.62C184.56 34.98 184.207 34.1667 184.207 33.18C184.207 32.5133 184.38 31.9267 184.727 31.42C185.087 30.9133 185.574 30.52 186.187 30.24C186.8 29.9467 187.507 29.8 188.307 29.8ZM188.307 31.1C187.614 31.1 187.034 31.2933 186.567 31.68C186.1 32.0533 185.867 32.5533 185.867 33.18C185.867 33.7933 186.1 34.2933 186.567 34.68C187.034 35.0667 187.614 35.26 188.307 35.26C189 35.26 189.58 35.0667 190.047 34.68C190.514 34.2933 190.747 33.7933 190.747 33.18C190.747 32.5533 190.514 32.0533 190.047 31.68C189.58 31.2933 189 31.1 188.307 31.1ZM204.337 27.16V37.24C204.337 37.7333 204.477 38.1 204.757 38.34C205.037 38.58 205.397 38.7 205.837 38.7C206.224 38.7 206.557 38.6333 206.837 38.5C207.117 38.3667 207.371 38.1867 207.597 37.96L208.157 39.3C207.851 39.58 207.484 39.8 207.057 39.96C206.644 40.12 206.164 40.2 205.617 40.2C205.111 40.2 204.637 40.1133 204.197 39.94C203.757 39.7533 203.404 39.4667 203.137 39.08C202.884 38.68 202.751 38.16 202.737 37.52V27.6L204.337 27.16ZM207.977 30V31.38H200.737V30H207.977ZM210.356 40V25.4H211.956V31.5C212.303 30.9 212.763 30.4667 213.336 30.2C213.909 29.9333 214.536 29.8 215.216 29.8C215.936 29.8 216.589 29.94 217.176 30.22C217.763 30.4867 218.229 30.9 218.576 31.46C218.936 32.02 219.116 32.7333 219.116 33.6V40H217.516V34.16C217.516 33.0533 217.276 32.2867 216.796 31.86C216.329 31.42 215.749 31.2 215.056 31.2C214.576 31.2 214.096 31.3133 213.616 31.54C213.136 31.7667 212.736 32.14 212.416 32.66C212.109 33.1667 211.956 33.8467 211.956 34.7V40H210.356ZM226.919 40.2C225.972 40.2 225.126 39.9933 224.379 39.58C223.646 39.1667 223.072 38.5733 222.659 37.8C222.246 37.0133 222.039 36.08 222.039 35C222.039 33.92 222.246 32.9933 222.659 32.22C223.072 31.4333 223.639 30.8333 224.359 30.42C225.079 30.0067 225.899 29.8 226.819 29.8C227.752 29.8 228.546 30 229.199 30.4C229.866 30.8 230.372 31.3467 230.719 32.04C231.066 32.72 231.239 33.4867 231.239 34.34C231.239 34.5667 231.232 34.7733 231.219 34.96C231.206 35.1467 231.186 35.3133 231.159 35.46H223.079V34.04H230.459L229.639 34.2C229.639 33.24 229.372 32.5 228.839 31.98C228.319 31.46 227.632 31.2 226.779 31.2C226.126 31.2 225.559 31.3533 225.079 31.66C224.612 31.9533 224.246 32.3867 223.979 32.96C223.726 33.52 223.599 34.2 223.599 35C223.599 35.7867 223.732 36.4667 223.999 37.04C224.266 37.6133 224.639 38.0533 225.119 38.36C225.612 38.6533 226.199 38.8 226.879 38.8C227.612 38.8 228.206 38.66 228.659 38.38C229.126 38.1 229.499 37.72 229.779 37.24L231.039 37.98C230.786 38.4333 230.459 38.8267 230.059 39.16C229.672 39.4933 229.212 39.7533 228.679 39.94C228.159 40.1133 227.572 40.2 226.919 40.2ZM241.098 40V30H242.398L242.618 31.64C242.898 31.0267 243.305 30.5667 243.838 30.26C244.385 29.9533 245.045 29.8 245.818 29.8C245.992 29.8 246.178 29.8133 246.378 29.84C246.592 29.8667 246.772 29.92 246.918 30L246.638 31.46C246.492 31.4067 246.332 31.3667 246.158 31.34C245.985 31.3133 245.738 31.3 245.418 31.3C245.005 31.3 244.585 31.42 244.158 31.66C243.745 31.9 243.398 32.2667 243.118 32.76C242.838 33.24 242.698 33.8533 242.698 34.6V40H241.098ZM253.09 29.8C254.037 29.8 254.87 30.0067 255.59 30.42C256.323 30.8333 256.897 31.4333 257.31 32.22C257.723 32.9933 257.93 33.92 257.93 35C257.93 36.08 257.723 37.0133 257.31 37.8C256.897 38.5733 256.323 39.1667 255.59 39.58C254.87 39.9933 254.037 40.2 253.09 40.2C252.157 40.2 251.323 39.9933 250.59 39.58C249.857 39.1667 249.283 38.5733 248.87 37.8C248.457 37.0133 248.25 36.08 248.25 35C248.25 33.92 248.457 32.9933 248.87 32.22C249.283 31.4333 249.857 30.8333 250.59 30.42C251.323 30.0067 252.157 29.8 253.09 29.8ZM253.09 31.18C252.41 31.18 251.83 31.3333 251.35 31.64C250.87 31.9467 250.497 32.3867 250.23 32.96C249.977 33.52 249.85 34.2 249.85 35C249.85 35.7867 249.977 36.4667 250.23 37.04C250.497 37.6133 250.87 38.0533 251.35 38.36C251.83 38.6667 252.41 38.82 253.09 38.82C253.77 38.82 254.35 38.6667 254.83 38.36C255.31 38.0533 255.677 37.6133 255.93 37.04C256.197 36.4667 256.33 35.7867 256.33 35C256.33 34.2 256.197 33.52 255.93 32.96C255.677 32.3867 255.31 31.9467 254.83 31.64C254.35 31.3333 253.77 31.18 253.09 31.18ZM265.082 29.8C265.775 29.8 266.382 29.9067 266.902 30.12C267.435 30.3333 267.895 30.64 268.282 31.04C268.669 31.44 268.982 31.9133 269.222 32.46L267.702 33.18C267.489 32.54 267.162 32.0533 266.722 31.72C266.295 31.3733 265.735 31.2 265.042 31.2C264.375 31.2 263.802 31.3533 263.322 31.66C262.842 31.9533 262.475 32.3867 262.222 32.96C261.969 33.52 261.842 34.2 261.842 35C261.842 35.7867 261.969 36.4667 262.222 37.04C262.475 37.6133 262.842 38.0533 263.322 38.36C263.802 38.6533 264.375 38.8 265.042 38.8C265.562 38.8 266.009 38.72 266.382 38.56C266.769 38.4 267.082 38.1667 267.322 37.86C267.575 37.5533 267.749 37.18 267.842 36.74L269.322 37.26C269.095 37.8733 268.782 38.4 268.382 38.84C267.995 39.28 267.522 39.62 266.962 39.86C266.415 40.0867 265.789 40.2 265.082 40.2C264.149 40.2 263.315 39.9933 262.582 39.58C261.849 39.1667 261.275 38.5733 260.862 37.8C260.449 37.0133 260.242 36.08 260.242 35C260.242 33.92 260.449 32.9933 260.862 32.22C261.275 31.4333 261.849 30.8333 262.582 30.42C263.315 30.0067 264.149 29.8 265.082 29.8ZM280.913 30L276.593 34.32L276.213 34.7L272.933 37.98V35.98L278.893 30H280.913ZM273.733 25.4V40H272.133V25.4H273.733ZM276.733 33.5L281.153 40H279.213L275.393 34.4L276.733 33.5ZM286.866 40.2C285.893 40.2 284.993 39.9933 284.166 39.58C283.353 39.1667 282.726 38.58 282.286 37.82L283.646 36.84C283.94 37.4533 284.366 37.9333 284.926 38.28C285.5 38.6267 286.186 38.8 286.986 38.8C287.693 38.8 288.246 38.6667 288.646 38.4C289.046 38.12 289.246 37.76 289.246 37.32C289.246 37.04 289.153 36.7867 288.966 36.56C288.793 36.32 288.453 36.1467 287.946 36.04L285.546 35.54C284.573 35.34 283.873 35.0067 283.446 34.54C283.033 34.0733 282.826 33.4933 282.826 32.8C282.826 32.2533 282.98 31.7533 283.286 31.3C283.606 30.8467 284.053 30.4867 284.626 30.22C285.213 29.94 285.9 29.8 286.686 29.8C287.673 29.8 288.506 29.9933 289.186 30.38C289.866 30.7667 290.373 31.3133 290.706 32.02L289.366 32.9C289.14 32.3133 288.773 31.8867 288.266 31.62C287.76 31.34 287.233 31.2 286.686 31.2C286.206 31.2 285.793 31.2667 285.446 31.4C285.113 31.5333 284.853 31.72 284.666 31.96C284.493 32.1867 284.406 32.4467 284.406 32.74C284.406 33.0333 284.506 33.3067 284.706 33.56C284.906 33.8 285.28 33.9733 285.826 34.08L288.326 34.6C289.26 34.7867 289.913 35.0933 290.286 35.52C290.66 35.9467 290.846 36.4667 290.846 37.08C290.846 37.7067 290.68 38.26 290.346 38.74C290.013 39.2067 289.546 39.5667 288.946 39.82C288.346 40.0733 287.653 40.2 286.866 40.2ZM294.613 37.6C294.933 37.6 295.2 37.6867 295.413 37.86C295.64 38.02 295.813 38.2467 295.933 38.54C296.053 38.82 296.113 39.1533 296.113 39.54C296.113 39.98 296.033 40.4133 295.873 40.84C295.726 41.2667 295.493 41.66 295.173 42.02C294.853 42.38 294.44 42.68 293.933 42.92L293.093 42.14C293.453 42.02 293.766 41.8533 294.033 41.64C294.313 41.4267 294.54 41.1867 294.713 40.92C294.886 40.6533 295 40.38 295.053 40.1L294.973 40.06C294.92 40.1 294.853 40.1333 294.773 40.16C294.693 40.1867 294.573 40.2 294.413 40.2C294.253 40.2 294.086 40.1533 293.913 40.06C293.753 39.9667 293.613 39.8333 293.493 39.66C293.373 39.4733 293.313 39.2333 293.313 38.94C293.313 38.7 293.373 38.48 293.493 38.28C293.613 38.0667 293.766 37.9 293.953 37.78C294.153 37.66 294.373 37.6 294.613 37.6ZM311.782 33.54C311.782 32.7933 311.582 32.22 311.182 31.82C310.782 31.4067 310.215 31.2 309.482 31.2C308.789 31.2 308.202 31.3533 307.722 31.66C307.242 31.9533 306.889 32.4333 306.662 33.1L305.362 32.3C305.629 31.5533 306.122 30.9533 306.842 30.5C307.562 30.0333 308.455 29.8 309.522 29.8C310.242 29.8 310.895 29.9267 311.482 30.18C312.069 30.42 312.529 30.7933 312.862 31.3C313.209 31.7933 313.382 32.4333 313.382 33.22V38.06C313.382 38.54 313.635 38.78 314.142 38.78C314.395 38.78 314.642 38.7467 314.882 38.68L314.802 39.94C314.535 40.0733 314.189 40.14 313.762 40.14C313.375 40.14 313.029 40.0667 312.722 39.92C312.415 39.7733 312.175 39.5533 312.002 39.26C311.829 38.9533 311.742 38.5733 311.742 38.12V37.92L312.142 37.98C311.982 38.5 311.709 38.9267 311.322 39.26C310.935 39.58 310.502 39.82 310.022 39.98C309.542 40.1267 309.069 40.2 308.602 40.2C308.015 40.2 307.469 40.1 306.962 39.9C306.455 39.7 306.049 39.4 305.742 39C305.449 38.5867 305.302 38.08 305.302 37.48C305.302 36.7333 305.549 36.12 306.042 35.64C306.549 35.1467 307.249 34.8133 308.142 34.64L312.102 33.86V35.18L308.882 35.84C308.229 35.9733 307.742 36.16 307.422 36.4C307.102 36.64 306.942 36.9733 306.942 37.4C306.942 37.8133 307.102 38.1533 307.422 38.42C307.755 38.6733 308.222 38.8 308.822 38.8C309.209 38.8 309.575 38.7533 309.922 38.66C310.282 38.5533 310.602 38.4 310.882 38.2C311.162 37.9867 311.382 37.7267 311.542 37.42C311.702 37.1 311.782 36.7267 311.782 36.3V33.54ZM323.618 40V25.4H325.218V31.5C325.564 30.9 326.024 30.4667 326.598 30.2C327.171 29.9333 327.798 29.8 328.478 29.8C329.198 29.8 329.851 29.94 330.438 30.22C331.024 30.4867 331.491 30.9 331.838 31.46C332.198 32.02 332.378 32.7333 332.378 33.6V40H330.778V34.16C330.778 33.0533 330.538 32.2867 330.058 31.86C329.591 31.42 329.011 31.2 328.318 31.2C327.838 31.2 327.358 31.3133 326.878 31.54C326.398 31.7667 325.998 32.14 325.678 32.66C325.371 33.1667 325.218 33.8467 325.218 34.7V40H323.618ZM336.801 28.08C336.441 28.08 336.147 27.9733 335.921 27.76C335.707 27.5333 335.601 27.24 335.601 26.88C335.601 26.52 335.707 26.2333 335.921 26.02C336.147 25.7933 336.441 25.68 336.801 25.68C337.161 25.68 337.447 25.7933 337.661 26.02C337.887 26.2333 338.001 26.52 338.001 26.88C338.001 27.24 337.887 27.5333 337.661 27.76C337.447 27.9733 337.161 28.08 336.801 28.08ZM337.601 30V40H336.001V30H337.601ZM341.313 40V30H342.713L342.853 32.24L342.593 32.02C342.806 31.4867 343.093 31.06 343.453 30.74C343.813 30.4067 344.226 30.1667 344.693 30.02C345.173 29.8733 345.666 29.8 346.173 29.8C346.893 29.8 347.546 29.94 348.133 30.22C348.72 30.4867 349.186 30.9 349.533 31.46C349.893 32.02 350.073 32.7333 350.073 33.6V40H348.473V34.16C348.473 33.0533 348.233 32.2867 347.753 31.86C347.286 31.42 346.706 31.2 346.013 31.2C345.533 31.2 345.053 31.3133 344.573 31.54C344.093 31.7667 343.693 32.1333 343.373 32.64C343.066 33.1467 342.913 33.8267 342.913 34.68V40H341.313ZM355.919 27.16V37.24C355.919 37.7333 356.059 38.1 356.339 38.34C356.619 38.58 356.979 38.7 357.419 38.7C357.806 38.7 358.139 38.6333 358.419 38.5C358.699 38.3667 358.953 38.1867 359.179 37.96L359.739 39.3C359.433 39.58 359.066 39.8 358.639 39.96C358.226 40.12 357.746 40.2 357.199 40.2C356.693 40.2 356.219 40.1133 355.779 39.94C355.339 39.7533 354.986 39.4667 354.719 39.08C354.466 38.68 354.333 38.16 354.319 37.52V27.6L355.919 27.16ZM359.559 30V31.38H352.319V30H359.559ZM7.7 59.54C7.7 58.7933 7.5 58.22 7.1 57.82C6.7 57.4067 6.13333 57.2 5.4 57.2C4.70667 57.2 4.12 57.3533 3.64 57.66C3.16 57.9533 2.80667 58.4333 2.58 59.1L1.28 58.3C1.54667 57.5533 2.04 56.9533 2.76 56.5C3.48 56.0333 4.37333 55.8 5.44 55.8C6.16 55.8 6.81333 55.9267 7.4 56.18C7.98667 56.42 8.44667 56.7933 8.78 57.3C9.12667 57.7933 9.3 58.4333 9.3 59.22V64.06C9.3 64.54 9.55333 64.78 10.06 64.78C10.3133 64.78 10.56 64.7467 10.8 64.68L10.72 65.94C10.4533 66.0733 10.1067 66.14 9.68 66.14C9.29333 66.14 8.94667 66.0667 8.64 65.92C8.33333 65.7733 8.09333 65.5533 7.92 65.26C7.74667 64.9533 7.66 64.5733 7.66 64.12V63.92L8.06 63.98C7.9 64.5 7.62667 64.9267 7.24 65.26C6.85333 65.58 6.42 65.82 5.94 65.98C5.46 66.1267 4.98667 66.2 4.52 66.2C3.93333 66.2 3.38667 66.1 2.88 65.9C2.37333 65.7 1.96667 65.4 1.66 65C1.36667 64.5867 1.22 64.08 1.22 63.48C1.22 62.7333 1.46667 62.12 1.96 61.64C2.46667 61.1467 3.16667 60.8133 4.06 60.64L8.02 59.86V61.18L4.8 61.84C4.14667 61.9733 3.66 62.16 3.34 62.4C3.02 62.64 2.86 62.9733 2.86 63.4C2.86 63.8133 3.02 64.1533 3.34 64.42C3.67333 64.6733 4.14 64.8 4.74 64.8C5.12667 64.8 5.49333 64.7533 5.84 64.66C6.2 64.5533 6.52 64.4 6.8 64.2C7.08 63.9867 7.3 63.7267 7.46 63.42C7.62 63.1 7.7 62.7267 7.7 62.3V59.54ZM15.1575 53.16V63.24C15.1575 63.7333 15.2975 64.1 15.5775 64.34C15.8575 64.58 16.2175 64.7 16.6575 64.7C17.0442 64.7 17.3775 64.6333 17.6575 64.5C17.9375 64.3667 18.1908 64.1867 18.4175 63.96L18.9775 65.3C18.6708 65.58 18.3042 65.8 17.8775 65.96C17.4642 66.12 16.9842 66.2 16.4375 66.2C15.9308 66.2 15.4575 66.1133 15.0175 65.94C14.5775 65.7533 14.2242 65.4667 13.9575 65.08C13.7042 64.68 13.5708 64.16 13.5575 63.52V53.6L15.1575 53.16ZM18.7975 56V57.38H11.5575V56H18.7975ZM29.9622 53.16V63.24C29.9622 63.7333 30.1022 64.1 30.3822 64.34C30.6622 64.58 31.0222 64.7 31.4622 64.7C31.8489 64.7 32.1822 64.6333 32.4622 64.5C32.7422 64.3667 32.9955 64.1867 33.2222 63.96L33.7822 65.3C33.4755 65.58 33.1089 65.8 32.6822 65.96C32.2689 66.12 31.7889 66.2 31.2422 66.2C30.7355 66.2 30.2622 66.1133 29.8222 65.94C29.3822 65.7533 29.0289 65.4667 28.7622 65.08C28.5089 64.68 28.3755 64.16 28.3622 63.52V53.6L29.9622 53.16ZM33.6022 56V57.38H26.3622V56H33.6022ZM35.9811 66V51.4H37.5811V57.5C37.9278 56.9 38.3878 56.4667 38.9611 56.2C39.5344 55.9333 40.1611 55.8 40.8411 55.8C41.5611 55.8 42.2144 55.94 42.8011 56.22C43.3878 56.4867 43.8544 56.9 44.2011 57.46C44.5611 58.02 44.7411 58.7333 44.7411 59.6V66H43.1411V60.16C43.1411 59.0533 42.9011 58.2867 42.4211 57.86C41.9544 57.42 41.3744 57.2 40.6811 57.2C40.2011 57.2 39.7211 57.3133 39.2411 57.54C38.7611 57.7667 38.3611 58.14 38.0411 58.66C37.7344 59.1667 37.5811 59.8467 37.5811 60.7V66H35.9811ZM52.5439 66.2C51.5972 66.2 50.7506 65.9933 50.0039 65.58C49.2706 65.1667 48.6972 64.5733 48.2839 63.8C47.8706 63.0133 47.6639 62.08 47.6639 61C47.6639 59.92 47.8706 58.9933 48.2839 58.22C48.6972 57.4333 49.2639 56.8333 49.9839 56.42C50.7039 56.0067 51.5239 55.8 52.4439 55.8C53.3772 55.8 54.1706 56 54.8239 56.4C55.4906 56.8 55.9972 57.3467 56.3439 58.04C56.6906 58.72 56.8639 59.4867 56.8639 60.34C56.8639 60.5667 56.8572 60.7733 56.8439 60.96C56.8306 61.1467 56.8106 61.3133 56.7839 61.46H48.7039V60.04H56.0839L55.2639 60.2C55.2639 59.24 54.9972 58.5 54.4639 57.98C53.9439 57.46 53.2572 57.2 52.4039 57.2C51.7506 57.2 51.1839 57.3533 50.7039 57.66C50.2372 57.9533 49.8706 58.3867 49.6039 58.96C49.3506 59.52 49.2239 60.2 49.2239 61C49.2239 61.7867 49.3572 62.4667 49.6239 63.04C49.8906 63.6133 50.2639 64.0533 50.7439 64.36C51.2372 64.6533 51.8239 64.8 52.5039 64.8C53.2372 64.8 53.8306 64.66 54.2839 64.38C54.7506 64.1 55.1239 63.72 55.4039 63.24L56.6639 63.98C56.4106 64.4333 56.0839 64.8267 55.6839 65.16C55.2972 65.4933 54.8372 65.7533 54.3039 65.94C53.7839 66.1133 53.1972 66.2 52.5439 66.2ZM70.3233 66.2C69.3499 66.2 68.4499 65.9933 67.6233 65.58C66.8099 65.1667 66.1833 64.58 65.7433 63.82L67.1033 62.84C67.3966 63.4533 67.8233 63.9333 68.3833 64.28C68.9566 64.6267 69.6433 64.8 70.4433 64.8C71.1499 64.8 71.7033 64.6667 72.1033 64.4C72.5033 64.12 72.7033 63.76 72.7033 63.32C72.7033 63.04 72.6099 62.7867 72.4233 62.56C72.2499 62.32 71.9099 62.1467 71.4033 62.04L69.0033 61.54C68.0299 61.34 67.3299 61.0067 66.9033 60.54C66.4899 60.0733 66.2833 59.4933 66.2833 58.8C66.2833 58.2533 66.4366 57.7533 66.7433 57.3C67.0633 56.8467 67.5099 56.4867 68.0833 56.22C68.6699 55.94 69.3566 55.8 70.1433 55.8C71.1299 55.8 71.9633 55.9933 72.6433 56.38C73.3233 56.7667 73.8299 57.3133 74.1633 58.02L72.8233 58.9C72.5966 58.3133 72.2299 57.8867 71.7233 57.62C71.2166 57.34 70.6899 57.2 70.1433 57.2C69.6633 57.2 69.2499 57.2667 68.9033 57.4C68.5699 57.5333 68.3099 57.72 68.1233 57.96C67.9499 58.1867 67.8633 58.4467 67.8633 58.74C67.8633 59.0333 67.9633 59.3067 68.1633 59.56C68.3633 59.8 68.7366 59.9733 69.2833 60.08L71.7833 60.6C72.7166 60.7867 73.3699 61.0933 73.7433 61.52C74.1166 61.9467 74.3033 62.4667 74.3033 63.08C74.3033 63.7067 74.1366 64.26 73.8033 64.74C73.4699 65.2067 73.0033 65.5667 72.4033 65.82C71.8033 66.0733 71.1099 66.2 70.3233 66.2ZM79.6302 53.16V63.24C79.6302 63.7333 79.7702 64.1 80.0502 64.34C80.3302 64.58 80.6902 64.7 81.1302 64.7C81.5168 64.7 81.8502 64.6333 82.1302 64.5C82.4102 64.3667 82.6635 64.1867 82.8902 63.96L83.4502 65.3C83.1435 65.58 82.7768 65.8 82.3502 65.96C81.9368 66.12 81.4568 66.2 80.9102 66.2C80.4035 66.2 79.9302 66.1133 79.4902 65.94C79.0502 65.7533 78.6968 65.4667 78.4302 65.08C78.1768 64.68 78.0435 64.16 78.0302 63.52V53.6L79.6302 53.16ZM83.2702 56V57.38H76.0302V56H83.2702ZM89.7891 55.8C90.7357 55.8 91.5691 56.0067 92.2891 56.42C93.0224 56.8333 93.5957 57.4333 94.0091 58.22C94.4224 58.9933 94.6291 59.92 94.6291 61C94.6291 62.08 94.4224 63.0133 94.0091 63.8C93.5957 64.5733 93.0224 65.1667 92.2891 65.58C91.5691 65.9933 90.7357 66.2 89.7891 66.2C88.8557 66.2 88.0224 65.9933 87.2891 65.58C86.5557 65.1667 85.9824 64.5733 85.5691 63.8C85.1557 63.0133 84.9491 62.08 84.9491 61C84.9491 59.92 85.1557 58.9933 85.5691 58.22C85.9824 57.4333 86.5557 56.8333 87.2891 56.42C88.0224 56.0067 88.8557 55.8 89.7891 55.8ZM89.7891 57.18C89.1091 57.18 88.5291 57.3333 88.0491 57.64C87.5691 57.9467 87.1957 58.3867 86.9291 58.96C86.6757 59.52 86.5491 60.2 86.5491 61C86.5491 61.7867 86.6757 62.4667 86.9291 63.04C87.1957 63.6133 87.5691 64.0533 88.0491 64.36C88.5291 64.6667 89.1091 64.82 89.7891 64.82C90.4691 64.82 91.0491 64.6667 91.5291 64.36C92.0091 64.0533 92.3757 63.6133 92.6291 63.04C92.8957 62.4667 93.0291 61.7867 93.0291 61C93.0291 60.2 92.8957 59.52 92.6291 58.96C92.3757 58.3867 92.0091 57.9467 91.5291 57.64C91.0491 57.3333 90.4691 57.18 89.7891 57.18ZM97.6413 66V56H98.9413L99.1613 57.64C99.4413 57.0267 99.8479 56.5667 100.381 56.26C100.928 55.9533 101.588 55.8 102.361 55.8C102.535 55.8 102.721 55.8133 102.921 55.84C103.135 55.8667 103.315 55.92 103.461 56L103.181 57.46C103.035 57.4067 102.875 57.3667 102.701 57.34C102.528 57.3133 102.281 57.3 101.961 57.3C101.548 57.3 101.128 57.42 100.701 57.66C100.288 57.9 99.9413 58.2667 99.6613 58.76C99.3813 59.24 99.2413 59.8533 99.2413 60.6V66H97.6413ZM114.025 56L109.325 67.68C109.072 68.3333 108.792 68.8467 108.485 69.22C108.192 69.6067 107.859 69.88 107.485 70.04C107.125 70.2133 106.705 70.3 106.225 70.3C105.772 70.3 105.352 70.2333 104.965 70.1C104.592 69.98 104.259 69.8133 103.965 69.6L104.405 68.2C104.672 68.44 104.952 68.6133 105.245 68.72C105.552 68.84 105.852 68.9 106.145 68.9C106.492 68.9 106.819 68.7933 107.125 68.58C107.432 68.3667 107.712 67.9333 107.965 67.28L108.485 65.98L107.485 63.6L104.305 56H106.125L108.625 62.52L109.245 64.3L109.965 62.32L112.305 56H114.025ZM117.483 52C117.803 52 118.07 52.0867 118.283 52.26C118.51 52.42 118.683 52.6467 118.803 52.94C118.923 53.22 118.983 53.5533 118.983 53.94C118.983 54.38 118.903 54.8133 118.743 55.24C118.597 55.6667 118.363 56.06 118.043 56.42C117.723 56.78 117.31 57.08 116.803 57.32L115.963 56.54C116.323 56.42 116.637 56.2533 116.903 56.04C117.183 55.8267 117.41 55.5867 117.583 55.32C117.757 55.0533 117.87 54.78 117.923 54.5L117.843 54.46C117.79 54.5 117.723 54.5333 117.643 54.56C117.563 54.5867 117.443 54.6 117.283 54.6C117.123 54.6 116.957 54.5533 116.783 54.46C116.623 54.3667 116.483 54.2333 116.363 54.06C116.243 53.8733 116.183 53.6333 116.183 53.34C116.183 53.1 116.243 52.88 116.363 52.68C116.483 52.4667 116.637 52.3 116.823 52.18C117.023 52.06 117.243 52 117.483 52ZM124.483 66.2C123.51 66.2 122.61 65.9933 121.783 65.58C120.97 65.1667 120.343 64.58 119.903 63.82L121.263 62.84C121.557 63.4533 121.983 63.9333 122.543 64.28C123.117 64.6267 123.803 64.8 124.603 64.8C125.31 64.8 125.863 64.6667 126.263 64.4C126.663 64.12 126.863 63.76 126.863 63.32C126.863 63.04 126.77 62.7867 126.583 62.56C126.41 62.32 126.07 62.1467 125.563 62.04L123.163 61.54C122.19 61.34 121.49 61.0067 121.063 60.54C120.65 60.0733 120.443 59.4933 120.443 58.8C120.443 58.2533 120.597 57.7533 120.903 57.3C121.223 56.8467 121.67 56.4867 122.243 56.22C122.83 55.94 123.517 55.8 124.303 55.8C125.29 55.8 126.123 55.9933 126.803 56.38C127.483 56.7667 127.99 57.3133 128.323 58.02L126.983 58.9C126.757 58.3133 126.39 57.8867 125.883 57.62C125.377 57.34 124.85 57.2 124.303 57.2C123.823 57.2 123.41 57.2667 123.063 57.4C122.73 57.5333 122.47 57.72 122.283 57.96C122.11 58.1867 122.023 58.4467 122.023 58.74C122.023 59.0333 122.123 59.3067 122.323 59.56C122.523 59.8 122.897 59.9733 123.443 60.08L125.943 60.6C126.877 60.7867 127.53 61.0933 127.903 61.52C128.277 61.9467 128.463 62.4667 128.463 63.08C128.463 63.7067 128.297 64.26 127.963 64.74C127.63 65.2067 127.163 65.5667 126.563 65.82C125.963 66.0733 125.27 66.2 124.483 66.2ZM142.387 55.8C143.08 55.8 143.687 55.9067 144.207 56.12C144.74 56.3333 145.2 56.64 145.587 57.04C145.973 57.44 146.287 57.9133 146.527 58.46L145.007 59.18C144.793 58.54 144.467 58.0533 144.027 57.72C143.6 57.3733 143.04 57.2 142.347 57.2C141.68 57.2 141.107 57.3533 140.627 57.66C140.147 57.9533 139.78 58.3867 139.527 58.96C139.273 59.52 139.147 60.2 139.147 61C139.147 61.7867 139.273 62.4667 139.527 63.04C139.78 63.6133 140.147 64.0533 140.627 64.36C141.107 64.6533 141.68 64.8 142.347 64.8C142.867 64.8 143.313 64.72 143.687 64.56C144.073 64.4 144.387 64.1667 144.627 63.86C144.88 63.5533 145.053 63.18 145.147 62.74L146.627 63.26C146.4 63.8733 146.087 64.4 145.687 64.84C145.3 65.28 144.827 65.62 144.267 65.86C143.72 66.0867 143.093 66.2 142.387 66.2C141.453 66.2 140.62 65.9933 139.887 65.58C139.153 65.1667 138.58 64.5733 138.167 63.8C137.753 63.0133 137.547 62.08 137.547 61C137.547 59.92 137.753 58.9933 138.167 58.22C138.58 57.4333 139.153 56.8333 139.887 56.42C140.62 56.0067 141.453 55.8 142.387 55.8ZM153.618 66.2C152.671 66.2 151.825 65.9933 151.078 65.58C150.345 65.1667 149.771 64.5733 149.358 63.8C148.945 63.0133 148.738 62.08 148.738 61C148.738 59.92 148.945 58.9933 149.358 58.22C149.771 57.4333 150.338 56.8333 151.058 56.42C151.778 56.0067 152.598 55.8 153.518 55.8C154.451 55.8 155.245 56 155.898 56.4C156.565 56.8 157.071 57.3467 157.418 58.04C157.765 58.72 157.938 59.4867 157.938 60.34C157.938 60.5667 157.931 60.7733 157.918 60.96C157.905 61.1467 157.885 61.3133 157.858 61.46H149.778V60.04H157.158L156.338 60.2C156.338 59.24 156.071 58.5 155.538 57.98C155.018 57.46 154.331 57.2 153.478 57.2C152.825 57.2 152.258 57.3533 151.778 57.66C151.311 57.9533 150.945 58.3867 150.678 58.96C150.425 59.52 150.298 60.2 150.298 61C150.298 61.7867 150.431 62.4667 150.698 63.04C150.965 63.6133 151.338 64.0533 151.818 64.36C152.311 64.6533 152.898 64.8 153.578 64.8C154.311 64.8 154.905 64.66 155.358 64.38C155.825 64.1 156.198 63.72 156.478 63.24L157.738 63.98C157.485 64.4333 157.158 64.8267 156.758 65.16C156.371 65.4933 155.911 65.7533 155.378 65.94C154.858 66.1133 154.271 66.2 153.618 66.2ZM160.981 66V56H162.381L162.521 58.24L162.261 58.02C162.474 57.4867 162.761 57.06 163.121 56.74C163.481 56.4067 163.894 56.1667 164.361 56.02C164.841 55.8733 165.334 55.8 165.841 55.8C166.561 55.8 167.214 55.94 167.801 56.22C168.388 56.4867 168.854 56.9 169.201 57.46C169.561 58.02 169.741 58.7333 169.741 59.6V66H168.141V60.16C168.141 59.0533 167.901 58.2867 167.421 57.86C166.954 57.42 166.374 57.2 165.681 57.2C165.201 57.2 164.721 57.3133 164.241 57.54C163.761 57.7667 163.361 58.1333 163.041 58.64C162.734 59.1467 162.581 59.8267 162.581 60.68V66H160.981ZM175.587 53.16V63.24C175.587 63.7333 175.727 64.1 176.007 64.34C176.287 64.58 176.647 64.7 177.087 64.7C177.474 64.7 177.807 64.6333 178.087 64.5C178.367 64.3667 178.621 64.1867 178.847 63.96L179.407 65.3C179.101 65.58 178.734 65.8 178.307 65.96C177.894 66.12 177.414 66.2 176.867 66.2C176.361 66.2 175.887 66.1133 175.447 65.94C175.007 65.7533 174.654 65.4667 174.387 65.08C174.134 64.68 174.001 64.16 173.987 63.52V53.6L175.587 53.16ZM179.227 56V57.38H171.987V56H179.227ZM181.606 66V56H182.906L183.126 57.64C183.406 57.0267 183.813 56.5667 184.346 56.26C184.893 55.9533 185.553 55.8 186.326 55.8C186.499 55.8 186.686 55.8133 186.886 55.84C187.099 55.8667 187.279 55.92 187.426 56L187.146 57.46C186.999 57.4067 186.839 57.3667 186.666 57.34C186.493 57.3133 186.246 57.3 185.926 57.3C185.513 57.3 185.093 57.42 184.666 57.66C184.253 57.9 183.906 58.2667 183.626 58.76C183.346 59.24 183.206 59.8533 183.206 60.6V66H181.606ZM195.337 59.54C195.337 58.7933 195.137 58.22 194.737 57.82C194.337 57.4067 193.77 57.2 193.037 57.2C192.343 57.2 191.757 57.3533 191.277 57.66C190.797 57.9533 190.443 58.4333 190.217 59.1L188.917 58.3C189.183 57.5533 189.677 56.9533 190.397 56.5C191.117 56.0333 192.01 55.8 193.077 55.8C193.797 55.8 194.45 55.9267 195.037 56.18C195.623 56.42 196.083 56.7933 196.417 57.3C196.763 57.7933 196.937 58.4333 196.937 59.22V64.06C196.937 64.54 197.19 64.78 197.697 64.78C197.95 64.78 198.197 64.7467 198.437 64.68L198.357 65.94C198.09 66.0733 197.743 66.14 197.317 66.14C196.93 66.14 196.583 66.0667 196.277 65.92C195.97 65.7733 195.73 65.5533 195.557 65.26C195.383 64.9533 195.297 64.5733 195.297 64.12V63.92L195.697 63.98C195.537 64.5 195.263 64.9267 194.877 65.26C194.49 65.58 194.057 65.82 193.577 65.98C193.097 66.1267 192.623 66.2 192.157 66.2C191.57 66.2 191.023 66.1 190.517 65.9C190.01 65.7 189.603 65.4 189.297 65C189.003 64.5867 188.857 64.08 188.857 63.48C188.857 62.7333 189.103 62.12 189.597 61.64C190.103 61.1467 190.803 60.8133 191.697 60.64L195.657 59.86V61.18L192.437 61.84C191.783 61.9733 191.297 62.16 190.977 62.4C190.657 62.64 190.497 62.9733 190.497 63.4C190.497 63.8133 190.657 64.1533 190.977 64.42C191.31 64.6733 191.777 64.8 192.377 64.8C192.763 64.8 193.13 64.7533 193.477 64.66C193.837 64.5533 194.157 64.4 194.437 64.2C194.717 63.9867 194.937 63.7267 195.097 63.42C195.257 63.1 195.337 62.7267 195.337 62.3V59.54ZM202.345 51.4V63.46C202.345 63.9667 202.438 64.32 202.625 64.52C202.812 64.7067 203.112 64.8 203.525 64.8C203.792 64.8 204.012 64.78 204.185 64.74C204.358 64.7 204.592 64.6267 204.885 64.52L204.625 65.92C204.412 66.0133 204.178 66.08 203.925 66.12C203.672 66.1733 203.412 66.2 203.145 66.2C202.332 66.2 201.725 65.98 201.325 65.54C200.938 65.1 200.745 64.4267 200.745 63.52V51.4H202.345ZM215.021 53.16V63.24C215.021 63.7333 215.161 64.1 215.441 64.34C215.721 64.58 216.081 64.7 216.521 64.7C216.907 64.7 217.241 64.6333 217.521 64.5C217.801 64.3667 218.054 64.1867 218.281 63.96L218.841 65.3C218.534 65.58 218.167 65.8 217.741 65.96C217.327 66.12 216.847 66.2 216.301 66.2C215.794 66.2 215.321 66.1133 214.881 65.94C214.441 65.7533 214.087 65.4667 213.821 65.08C213.567 64.68 213.434 64.16 213.421 63.52V53.6L215.021 53.16ZM218.661 56V57.38H211.421V56H218.661ZM221.04 66V51.4H222.64V57.5C222.986 56.9 223.446 56.4667 224.02 56.2C224.593 55.9333 225.22 55.8 225.9 55.8C226.62 55.8 227.273 55.94 227.86 56.22C228.446 56.4867 228.913 56.9 229.26 57.46C229.62 58.02 229.8 58.7333 229.8 59.6V66H228.2V60.16C228.2 59.0533 227.96 58.2867 227.48 57.86C227.013 57.42 226.433 57.2 225.74 57.2C225.26 57.2 224.78 57.3133 224.3 57.54C223.82 57.7667 223.42 58.14 223.1 58.66C222.793 59.1667 222.64 59.8467 222.64 60.7V66H221.04ZM233.423 66V56H234.723L234.943 57.64C235.223 57.0267 235.629 56.5667 236.163 56.26C236.709 55.9533 237.369 55.8 238.143 55.8C238.316 55.8 238.503 55.8133 238.703 55.84C238.916 55.8667 239.096 55.92 239.243 56L238.963 57.46C238.816 57.4067 238.656 57.3667 238.483 57.34C238.309 57.3133 238.063 57.3 237.743 57.3C237.329 57.3 236.909 57.42 236.483 57.66C236.069 57.9 235.723 58.2667 235.443 58.76C235.163 59.24 235.023 59.8533 235.023 60.6V66H233.423ZM245.454 66.2C244.507 66.2 243.661 65.9933 242.914 65.58C242.181 65.1667 241.607 64.5733 241.194 63.8C240.781 63.0133 240.574 62.08 240.574 61C240.574 59.92 240.781 58.9933 241.194 58.22C241.607 57.4333 242.174 56.8333 242.894 56.42C243.614 56.0067 244.434 55.8 245.354 55.8C246.287 55.8 247.081 56 247.734 56.4C248.401 56.8 248.907 57.3467 249.254 58.04C249.601 58.72 249.774 59.4867 249.774 60.34C249.774 60.5667 249.767 60.7733 249.754 60.96C249.741 61.1467 249.721 61.3133 249.694 61.46H241.614V60.04H248.994L248.174 60.2C248.174 59.24 247.907 58.5 247.374 57.98C246.854 57.46 246.167 57.2 245.314 57.2C244.661 57.2 244.094 57.3533 243.614 57.66C243.147 57.9533 242.781 58.3867 242.514 58.96C242.261 59.52 242.134 60.2 242.134 61C242.134 61.7867 242.267 62.4667 242.534 63.04C242.801 63.6133 243.174 64.0533 243.654 64.36C244.147 64.6533 244.734 64.8 245.414 64.8C246.147 64.8 246.741 64.66 247.194 64.38C247.661 64.1 248.034 63.72 248.314 63.24L249.574 63.98C249.321 64.4333 248.994 64.8267 248.594 65.16C248.207 65.4933 247.747 65.7533 247.214 65.94C246.694 66.1133 246.107 66.2 245.454 66.2ZM258.657 59.54C258.657 58.7933 258.457 58.22 258.057 57.82C257.657 57.4067 257.09 57.2 256.357 57.2C255.664 57.2 255.077 57.3533 254.597 57.66C254.117 57.9533 253.764 58.4333 253.537 59.1L252.237 58.3C252.504 57.5533 252.997 56.9533 253.717 56.5C254.437 56.0333 255.33 55.8 256.397 55.8C257.117 55.8 257.77 55.9267 258.357 56.18C258.944 56.42 259.404 56.7933 259.737 57.3C260.084 57.7933 260.257 58.4333 260.257 59.22V64.06C260.257 64.54 260.51 64.78 261.017 64.78C261.27 64.78 261.517 64.7467 261.757 64.68L261.677 65.94C261.41 66.0733 261.064 66.14 260.637 66.14C260.25 66.14 259.904 66.0667 259.597 65.92C259.29 65.7733 259.05 65.5533 258.877 65.26C258.704 64.9533 258.617 64.5733 258.617 64.12V63.92L259.017 63.98C258.857 64.5 258.584 64.9267 258.197 65.26C257.81 65.58 257.377 65.82 256.897 65.98C256.417 66.1267 255.944 66.2 255.477 66.2C254.89 66.2 254.344 66.1 253.837 65.9C253.33 65.7 252.924 65.4 252.617 65C252.324 64.5867 252.177 64.08 252.177 63.48C252.177 62.7333 252.424 62.12 252.917 61.64C253.424 61.1467 254.124 60.8133 255.017 60.64L258.977 59.86V61.18L255.757 61.84C255.104 61.9733 254.617 62.16 254.297 62.4C253.977 62.64 253.817 62.9733 253.817 63.4C253.817 63.8133 253.977 64.1533 254.297 64.42C254.63 64.6733 255.097 64.8 255.697 64.8C256.084 64.8 256.45 64.7533 256.797 64.66C257.157 64.5533 257.477 64.4 257.757 64.2C258.037 63.9867 258.257 63.7267 258.417 63.42C258.577 63.1 258.657 62.7267 258.657 62.3V59.54ZM266.115 53.16V63.24C266.115 63.7333 266.255 64.1 266.535 64.34C266.815 64.58 267.175 64.7 267.615 64.7C268.001 64.7 268.335 64.6333 268.615 64.5C268.895 64.3667 269.148 64.1867 269.375 63.96L269.935 65.3C269.628 65.58 269.261 65.8 268.835 65.96C268.421 66.12 267.941 66.2 267.395 66.2C266.888 66.2 266.415 66.1133 265.975 65.94C265.535 65.7533 265.181 65.4667 264.915 65.08C264.661 64.68 264.528 64.16 264.515 63.52V53.6L266.115 53.16ZM269.755 56V57.38H262.515V56H269.755ZM272.933 63.6C273.32 63.6 273.633 63.72 273.873 63.96C274.113 64.2 274.233 64.5133 274.233 64.9C274.233 65.2867 274.113 65.6 273.873 65.84C273.633 66.08 273.32 66.2 272.933 66.2C272.547 66.2 272.233 66.08 271.993 65.84C271.753 65.6 271.633 65.2867 271.633 64.9C271.633 64.5133 271.753 64.2 271.993 63.96C272.233 63.72 272.547 63.6 272.933 63.6Z" fill="white"/>
</svg>
