<svg width="526" height="71" viewBox="0 0 526 71" fill="none" xmlns="http://www.w3.org/2000/svg">
<path d="M17.96 0.799999V14H13.9V9.42L13.96 4.98H13.9L11.34 14H7.62L5.1 4.98H5.02L5.08 9.42V14H1V0.799999H7.52L9.04 6.66L9.62 9.12H9.66L10.24 6.66L11.76 0.799999H17.96ZM26.2648 0.6C27.6648 0.6 28.8648 0.866666 29.8648 1.4C30.8648 1.93333 31.6315 2.70667 32.1648 3.72C32.6982 4.73333 32.9648 5.96 32.9648 7.4C32.9648 8.84 32.6982 10.0667 32.1648 11.08C31.6315 12.0933 30.8648 12.8667 29.8648 13.4C28.8648 13.9333 27.6648 14.2 26.2648 14.2C24.8782 14.2 23.6782 13.9333 22.6648 13.4C21.6648 12.8667 20.8915 12.0933 20.3448 11.08C19.8115 10.0667 19.5448 8.84 19.5448 7.4C19.5448 5.96 19.8115 4.73333 20.3448 3.72C20.8915 2.70667 21.6648 1.93333 22.6648 1.4C23.6782 0.866666 24.8782 0.6 26.2648 0.6ZM26.2648 4.1C25.8115 4.1 25.4382 4.22 25.1448 4.46C24.8648 4.68667 24.6515 5.04 24.5048 5.52C24.3715 6 24.3048 6.62667 24.3048 7.4C24.3048 8.16 24.3715 8.78667 24.5048 9.28C24.6515 9.76 24.8648 10.12 25.1448 10.36C25.4382 10.5867 25.8115 10.7 26.2648 10.7C26.7182 10.7 27.0848 10.5867 27.3648 10.36C27.6582 10.12 27.8715 9.76 28.0048 9.28C28.1382 8.78667 28.2048 8.16 28.2048 7.4C28.2048 6.62667 28.1382 6 28.0048 5.52C27.8715 5.04 27.6582 4.68667 27.3648 4.46C27.0848 4.22 26.7182 4.1 26.2648 4.1ZM46.2497 0.799999V4.22H42.1297V14H37.4697V4.22H33.3297V0.799999H46.2497ZM60.5806 0.799999V14H55.9206V0.799999H60.5806ZM52.3006 0.799999V14H47.6406V0.799999H52.3006ZM58.5006 5.66V9.08H49.8806V5.66H58.5006ZM62.582 14V0.799999H73.542V4.22H67.242V5.86H72.322V9.02H67.242V10.58H73.782V14H62.582ZM82.2616 0.799999C83.9816 0.799999 85.3016 1.18667 86.2216 1.96C87.1416 2.72 87.6016 3.73333 87.6016 5C87.6016 6.45333 87.1482 7.54667 86.2416 8.28C85.3482 9.01333 84.0416 9.38 82.3216 9.38L81.8616 9.62H79.6616V14H75.1016V0.799999H82.2616ZM81.4616 6.56C81.9549 6.56 82.3216 6.47333 82.5616 6.3C82.8149 6.11333 82.9416 5.79333 82.9416 5.34C82.9416 4.9 82.8149 4.58667 82.5616 4.4C82.3216 4.21333 81.9549 4.12 81.4616 4.12H79.6616V6.56H81.4616ZM84.2216 7.54L88.3416 14H83.2816L80.2016 8.22L84.2216 7.54ZM93.8031 0.799999V4.08L93.3231 9.6H89.4831L89.0031 4.08V0.799999H93.8031ZM91.4031 10.3C92.1498 10.3 92.7231 10.4667 93.1231 10.8C93.5365 11.1333 93.7431 11.6067 93.7431 12.22C93.7431 12.8333 93.5365 13.3067 93.1231 13.64C92.7231 13.9733 92.1498 14.14 91.4031 14.14C90.6698 14.14 90.0965 13.9733 89.6831 13.64C89.2698 13.3067 89.0631 12.8333 89.0631 12.22C89.0631 11.6067 89.2698 11.1333 89.6831 10.8C90.0965 10.4667 90.6698 10.3 91.4031 10.3ZM97.5889 9.88C98.2022 9.88 98.6956 10.0133 99.0689 10.28C99.4556 10.5467 99.7356 10.8933 99.9089 11.32C100.096 11.7333 100.189 12.18 100.189 12.66C100.189 13.38 100.022 14.0533 99.6889 14.68C99.3689 15.32 98.9622 15.8667 98.4689 16.32C97.9756 16.7867 97.4889 17.12 97.0089 17.32L95.2689 16.14C95.6422 15.9667 95.9956 15.7667 96.3289 15.54C96.6756 15.3133 96.9889 15.0667 97.2689 14.8C97.5489 14.5333 97.7689 14.26 97.9289 13.98L97.8289 13.9C97.7356 13.9533 97.6289 13.9933 97.5089 14.02C97.3889 14.06 97.2356 14.08 97.0489 14.08C96.7556 14.08 96.4622 14.0133 96.1689 13.88C95.8756 13.7333 95.6289 13.52 95.4289 13.24C95.2289 12.96 95.1289 12.6067 95.1289 12.18C95.1289 11.6333 95.2422 11.1933 95.4689 10.86C95.7089 10.5267 96.0156 10.28 96.3889 10.12C96.7756 9.96 97.1756 9.88 97.5889 9.88ZM106.762 14V11.2C107.762 10.6667 108.629 10.1333 109.362 9.6C110.109 9.06667 110.722 8.54667 111.202 8.04C111.696 7.52 112.062 7.03333 112.302 6.58C112.542 6.11333 112.662 5.68667 112.662 5.3C112.662 4.98 112.582 4.7 112.422 4.46C112.262 4.22 111.982 4.1 111.582 4.1C111.129 4.1 110.796 4.28667 110.582 4.66C110.369 5.03333 110.276 5.62667 110.302 6.44L106.322 5.48C106.296 4.36 106.529 3.44 107.022 2.72C107.516 2 108.189 1.46667 109.042 1.12C109.909 0.773333 110.862 0.6 111.902 0.6C112.902 0.6 113.742 0.739999 114.422 1.02C115.116 1.28667 115.669 1.64 116.082 2.08C116.496 2.50667 116.789 2.97333 116.962 3.48C117.149 3.97333 117.242 4.44667 117.242 4.9C117.242 5.78 117.009 6.57333 116.542 7.28C116.089 7.98667 115.476 8.62 114.702 9.18C113.929 9.74 113.069 10.2467 112.122 10.7V10.74C112.402 10.7133 112.709 10.6933 113.042 10.68C113.389 10.6533 113.749 10.64 114.122 10.64C114.509 10.6267 114.889 10.62 115.262 10.62H117.322V14H106.762ZM124.432 14.2C122.432 14.2 120.952 13.6333 119.992 12.5C119.045 11.3667 118.572 9.66667 118.572 7.4C118.572 5.13333 119.045 3.43333 119.992 2.3C120.952 1.16667 122.432 0.6 124.432 0.6C126.432 0.6 127.905 1.16667 128.852 2.3C129.812 3.43333 130.292 5.13333 130.292 7.4C130.292 9.66667 129.812 11.3667 128.852 12.5C127.905 13.6333 126.432 14.2 124.432 14.2ZM124.432 10.7C124.778 10.7 125.045 10.6067 125.232 10.42C125.418 10.2333 125.545 9.9 125.612 9.42C125.692 8.94 125.732 8.26667 125.732 7.4C125.732 6.53333 125.692 5.86 125.612 5.38C125.545 4.9 125.418 4.56667 125.232 4.38C125.045 4.19333 124.778 4.1 124.432 4.1C124.098 4.1 123.832 4.19333 123.632 4.38C123.445 4.56667 123.312 4.9 123.232 5.38C123.165 5.86 123.132 6.53333 123.132 7.4C123.132 8.26667 123.165 8.94 123.232 9.42C123.312 9.9 123.445 10.2333 123.632 10.42C123.832 10.6067 124.098 10.7 124.432 10.7ZM134.616 14V7.8C134.616 7.36 134.616 6.92 134.616 6.48C134.616 6.04 134.616 5.6 134.616 5.16C134.189 5.53333 133.729 5.86 133.236 6.14C132.742 6.40667 132.222 6.58 131.676 6.66L131.416 2.92C131.829 2.88 132.242 2.79333 132.656 2.66C133.069 2.51333 133.456 2.34 133.816 2.14C134.189 1.94 134.516 1.72667 134.796 1.5C135.089 1.27333 135.309 1.04 135.456 0.799999H139.076V14H134.616ZM140.755 0.799999H152.395V3.88C151.302 4.88 150.462 5.92 149.875 7C149.289 8.08 148.882 9.2 148.655 10.36C148.429 11.52 148.315 12.7333 148.315 14H143.755C143.755 12.56 143.935 11.22 144.295 9.98C144.669 8.74 145.255 7.56 146.055 6.44C146.869 5.30667 147.935 4.18667 149.255 3.08L150.295 4.3H140.755V0.799999ZM12.68 40H10.98L9.58 36.34H3.6L2.2 40H0.52L5.66 26.8H7.56L12.68 40ZM4.18 34.84H9L6.58 28.34L4.18 34.84ZM24.7677 25.3C25.1143 25.3 25.441 25.34 25.7477 25.42C26.0543 25.5 26.2943 25.6133 26.4677 25.76L26.0477 27.06C25.8877 26.9533 25.7143 26.88 25.5277 26.84C25.341 26.7867 25.1343 26.76 24.9077 26.76C24.3343 26.76 23.8877 26.9 23.5677 27.18C23.2477 27.4467 23.0877 27.88 23.0877 28.48V30V30.52V40H21.4877V28.32C21.4877 27.88 21.5543 27.4733 21.6877 27.1C21.821 26.7267 22.021 26.4067 22.2877 26.14C22.5677 25.8733 22.9143 25.6667 23.3277 25.52C23.741 25.3733 24.221 25.3 24.7677 25.3ZM26.4277 30V31.38H19.4877V30H26.4277ZM28.5592 40V30H29.8592L30.0792 31.64C30.3592 31.0267 30.7659 30.5667 31.2992 30.26C31.8459 29.9533 32.5059 29.8 33.2792 29.8C33.4526 29.8 33.6392 29.8133 33.8392 29.84C34.0526 29.8667 34.2326 29.92 34.3792 30L34.0992 31.46C33.9526 31.4067 33.7926 31.3667 33.6192 31.34C33.4459 31.3133 33.1992 31.3 32.8792 31.3C32.4659 31.3 32.0459 31.42 31.6192 31.66C31.2059 31.9 30.8592 32.2667 30.5792 32.76C30.2992 33.24 30.1592 33.8533 30.1592 34.6V40H28.5592ZM42.2898 33.54C42.2898 32.7933 42.0898 32.22 41.6898 31.82C41.2898 31.4067 40.7232 31.2 39.9898 31.2C39.2965 31.2 38.7098 31.3533 38.2298 31.66C37.7498 31.9533 37.3965 32.4333 37.1698 33.1L35.8698 32.3C36.1365 31.5533 36.6298 30.9533 37.3498 30.5C38.0698 30.0333 38.9632 29.8 40.0298 29.8C40.7498 29.8 41.4032 29.9267 41.9898 30.18C42.5765 30.42 43.0365 30.7933 43.3698 31.3C43.7165 31.7933 43.8898 32.4333 43.8898 33.22V38.06C43.8898 38.54 44.1432 38.78 44.6498 38.78C44.9032 38.78 45.1498 38.7467 45.3898 38.68L45.3098 39.94C45.0432 40.0733 44.6965 40.14 44.2698 40.14C43.8832 40.14 43.5365 40.0667 43.2298 39.92C42.9232 39.7733 42.6832 39.5533 42.5098 39.26C42.3365 38.9533 42.2498 38.5733 42.2498 38.12V37.92L42.6498 37.98C42.4898 38.5 42.2165 38.9267 41.8298 39.26C41.4432 39.58 41.0098 39.82 40.5298 39.98C40.0498 40.1267 39.5765 40.2 39.1098 40.2C38.5232 40.2 37.9765 40.1 37.4698 39.9C36.9632 39.7 36.5565 39.4 36.2498 39C35.9565 38.5867 35.8098 38.08 35.8098 37.48C35.8098 36.7333 36.0565 36.12 36.5498 35.64C37.0565 35.1467 37.7565 34.8133 38.6498 34.64L42.6098 33.86V35.18L39.3898 35.84C38.7365 35.9733 38.2498 36.16 37.9298 36.4C37.6098 36.64 37.4498 36.9733 37.4498 37.4C37.4498 37.8133 37.6098 38.1533 37.9298 38.42C38.2632 38.6733 38.7298 38.8 39.3298 38.8C39.7165 38.8 40.0832 38.7533 40.4298 38.66C40.7898 38.5533 41.1098 38.4 41.3898 38.2C41.6698 37.9867 41.8898 37.7267 42.0498 37.42C42.2098 37.1 42.2898 36.7267 42.2898 36.3V33.54ZM47.778 40V30H49.178L49.278 31.56C49.638 30.9467 50.1046 30.5 50.678 30.22C51.2646 29.94 51.8646 29.8 52.478 29.8C53.1846 29.8 53.8513 29.96 54.478 30.28C55.1046 30.6 55.5846 31.0933 55.918 31.76C56.1313 31.3067 56.4313 30.94 56.818 30.66C57.2046 30.3667 57.6246 30.1533 58.078 30.02C58.5446 29.8733 58.9846 29.8 59.398 29.8C60.038 29.8 60.6446 29.9333 61.218 30.2C61.8046 30.4667 62.2846 30.88 62.658 31.44C63.0313 32 63.218 32.72 63.218 33.6V40H61.618V33.76C61.618 32.8533 61.3913 32.2 60.938 31.8C60.4846 31.4 59.9246 31.2 59.258 31.2C58.738 31.2 58.2513 31.3267 57.798 31.58C57.3446 31.8333 56.978 32.2067 56.698 32.7C56.4313 33.1933 56.298 33.8 56.298 34.52V40H54.698V33.76C54.698 32.8533 54.4713 32.2 54.018 31.8C53.5646 31.4 53.0046 31.2 52.338 31.2C51.898 31.2 51.4446 31.32 50.978 31.56C50.5246 31.7867 50.1446 32.1533 49.838 32.66C49.5313 33.1667 49.378 33.8333 49.378 34.66V40H47.778ZM71.0205 40.2C70.0738 40.2 69.2271 39.9933 68.4805 39.58C67.7471 39.1667 67.1738 38.5733 66.7605 37.8C66.3471 37.0133 66.1405 36.08 66.1405 35C66.1405 33.92 66.3471 32.9933 66.7605 32.22C67.1738 31.4333 67.7405 30.8333 68.4605 30.42C69.1805 30.0067 70.0005 29.8 70.9205 29.8C71.8538 29.8 72.6471 30 73.3005 30.4C73.9671 30.8 74.4738 31.3467 74.8205 32.04C75.1671 32.72 75.3405 33.4867 75.3405 34.34C75.3405 34.5667 75.3338 34.7733 75.3205 34.96C75.3071 35.1467 75.2871 35.3133 75.2605 35.46H67.1805V34.04H74.5605L73.7405 34.2C73.7405 33.24 73.4738 32.5 72.9405 31.98C72.4205 31.46 71.7338 31.2 70.8805 31.2C70.2271 31.2 69.6605 31.3533 69.1805 31.66C68.7138 31.9533 68.3471 32.3867 68.0805 32.96C67.8271 33.52 67.7005 34.2 67.7005 35C67.7005 35.7867 67.8338 36.4667 68.1005 37.04C68.3671 37.6133 68.7405 38.0533 69.2205 38.36C69.7138 38.6533 70.3005 38.8 70.9805 38.8C71.7138 38.8 72.3071 38.66 72.7605 38.38C73.2271 38.1 73.6005 37.72 73.8805 37.24L75.1405 37.98C74.8871 38.4333 74.5605 38.8267 74.1605 39.16C73.7738 39.4933 73.3138 39.7533 72.7805 39.94C72.2605 40.1133 71.6738 40.2 71.0205 40.2ZM82.2834 40.2C81.4568 40.2 80.6968 39.9933 80.0034 39.58C79.3101 39.1667 78.7568 38.5733 78.3434 37.8C77.9301 37.0133 77.7234 36.08 77.7234 35C77.7234 33.8933 77.9434 32.9533 78.3834 32.18C78.8234 31.4067 79.4034 30.82 80.1234 30.42C80.8434 30.0067 81.6168 29.8 82.4434 29.8C83.2701 29.8 83.9834 30.0133 84.5834 30.44C85.1968 30.8667 85.6034 31.4333 85.8034 32.14L85.6034 32.28V25.4H87.2034V40H85.8034L85.6634 37.58L85.8834 37.46C85.7901 38.0467 85.5634 38.5467 85.2034 38.96C84.8568 39.36 84.4234 39.6667 83.9034 39.88C83.3968 40.0933 82.8568 40.2 82.2834 40.2ZM82.4434 38.8C83.0834 38.8 83.6368 38.64 84.1034 38.32C84.5834 38 84.9501 37.5467 85.2034 36.96C85.4701 36.36 85.6034 35.66 85.6034 34.86C85.6034 34.1 85.4701 33.4467 85.2034 32.9C84.9501 32.3533 84.5901 31.9333 84.1234 31.64C83.6701 31.3467 83.1368 31.2 82.5234 31.2C81.5101 31.2 80.7234 31.5467 80.1634 32.24C79.6034 32.9333 79.3234 33.8533 79.3234 35C79.3234 36.1467 79.5968 37.0667 80.1434 37.76C80.6901 38.4533 81.4568 38.8 82.4434 38.8ZM97.7389 44.2V30H99.1389L99.2789 32.44L99.0589 32.16C99.2322 31.6933 99.4922 31.2867 99.8389 30.94C100.186 30.58 100.606 30.3 101.099 30.1C101.592 29.9 102.126 29.8 102.699 29.8C103.512 29.8 104.259 30.0067 104.939 30.42C105.632 30.8333 106.186 31.4267 106.599 32.2C107.012 32.9733 107.219 33.9067 107.219 35C107.219 36.08 107.006 37.0133 106.579 37.8C106.166 38.5733 105.612 39.1667 104.919 39.58C104.226 39.9933 103.466 40.2 102.639 40.2C101.812 40.2 101.086 40 100.459 39.6C99.8456 39.1867 99.4056 38.6667 99.1389 38.04L99.3389 37.74V44.2H97.7389ZM102.479 38.8C103.466 38.8 104.232 38.4533 104.779 37.76C105.339 37.0667 105.619 36.1467 105.619 35C105.619 33.8533 105.346 32.9333 104.799 32.24C104.266 31.5467 103.512 31.2 102.539 31.2C101.899 31.2 101.339 31.36 100.859 31.68C100.379 31.9867 100.006 32.4267 99.7389 33C99.4722 33.56 99.3389 34.2267 99.3389 35C99.3389 35.76 99.4656 36.4267 99.7189 37C99.9856 37.5733 100.352 38.02 100.819 38.34C101.299 38.6467 101.852 38.8 102.479 38.8ZM114.418 29.8C115.365 29.8 116.198 30.0067 116.918 30.42C117.651 30.8333 118.225 31.4333 118.638 32.22C119.051 32.9933 119.258 33.92 119.258 35C119.258 36.08 119.051 37.0133 118.638 37.8C118.225 38.5733 117.651 39.1667 116.918 39.58C116.198 39.9933 115.365 40.2 114.418 40.2C113.485 40.2 112.651 39.9933 111.918 39.58C111.185 39.1667 110.611 38.5733 110.198 37.8C109.785 37.0133 109.578 36.08 109.578 35C109.578 33.92 109.785 32.9933 110.198 32.22C110.611 31.4333 111.185 30.8333 111.918 30.42C112.651 30.0067 113.485 29.8 114.418 29.8ZM114.418 31.18C113.738 31.18 113.158 31.3333 112.678 31.64C112.198 31.9467 111.825 32.3867 111.558 32.96C111.305 33.52 111.178 34.2 111.178 35C111.178 35.7867 111.305 36.4667 111.558 37.04C111.825 37.6133 112.198 38.0533 112.678 38.36C113.158 38.6667 113.738 38.82 114.418 38.82C115.098 38.82 115.678 38.6667 116.158 38.36C116.638 38.0533 117.005 37.6133 117.258 37.04C117.525 36.4667 117.658 35.7867 117.658 35C117.658 34.2 117.525 33.52 117.258 32.96C117.005 32.3867 116.638 31.9467 116.158 31.64C115.678 31.3333 115.098 31.18 114.418 31.18ZM122.27 40V30H123.57L123.79 31.64C124.07 31.0267 124.477 30.5667 125.01 30.26C125.557 29.9533 126.217 29.8 126.99 29.8C127.163 29.8 127.35 29.8133 127.55 29.84C127.763 29.8667 127.943 29.92 128.09 30L127.81 31.46C127.663 31.4067 127.503 31.3667 127.33 31.34C127.157 31.3133 126.91 31.3 126.59 31.3C126.177 31.3 125.757 31.42 125.33 31.66C124.917 31.9 124.57 32.2667 124.29 32.76C124.01 33.24 123.87 33.8533 123.87 34.6V40H122.27ZM132.189 27.16V37.24C132.189 37.7333 132.329 38.1 132.609 38.34C132.889 38.58 133.249 38.7 133.689 38.7C134.075 38.7 134.409 38.6333 134.689 38.5C134.969 38.3667 135.222 38.1867 135.449 37.96L136.009 39.3C135.702 39.58 135.335 39.8 134.909 39.96C134.495 40.12 134.015 40.2 133.469 40.2C132.962 40.2 132.489 40.1133 132.049 39.94C131.609 39.7533 131.255 39.4667 130.989 39.08C130.735 38.68 130.602 38.16 130.589 37.52V27.6L132.189 27.16ZM135.829 30V31.38H128.589V30H135.829ZM138.208 40V30H139.508L139.728 31.64C140.008 31.0267 140.414 30.5667 140.948 30.26C141.494 29.9533 142.154 29.8 142.928 29.8C143.101 29.8 143.288 29.8133 143.488 29.84C143.701 29.8667 143.881 29.92 144.028 30L143.748 31.46C143.601 31.4067 143.441 31.3667 143.268 31.34C143.094 31.3133 142.848 31.3 142.528 31.3C142.114 31.3 141.694 31.42 141.268 31.66C140.854 31.9 140.508 32.2667 140.228 32.76C139.948 33.24 139.808 33.8533 139.808 34.6V40H138.208ZM151.938 33.54C151.938 32.7933 151.738 32.22 151.338 31.82C150.938 31.4067 150.372 31.2 149.638 31.2C148.945 31.2 148.358 31.3533 147.878 31.66C147.398 31.9533 147.045 32.4333 146.818 33.1L145.518 32.3C145.785 31.5533 146.278 30.9533 146.998 30.5C147.718 30.0333 148.612 29.8 149.678 29.8C150.398 29.8 151.052 29.9267 151.638 30.18C152.225 30.42 152.685 30.7933 153.018 31.3C153.365 31.7933 153.538 32.4333 153.538 33.22V38.06C153.538 38.54 153.792 38.78 154.298 38.78C154.552 38.78 154.798 38.7467 155.038 38.68L154.958 39.94C154.692 40.0733 154.345 40.14 153.918 40.14C153.532 40.14 153.185 40.0667 152.878 39.92C152.572 39.7733 152.332 39.5533 152.158 39.26C151.985 38.9533 151.898 38.5733 151.898 38.12V37.92L152.298 37.98C152.138 38.5 151.865 38.9267 151.478 39.26C151.092 39.58 150.658 39.82 150.178 39.98C149.698 40.1267 149.225 40.2 148.758 40.2C148.172 40.2 147.625 40.1 147.118 39.9C146.612 39.7 146.205 39.4 145.898 39C145.605 38.5867 145.458 38.08 145.458 37.48C145.458 36.7333 145.705 36.12 146.198 35.64C146.705 35.1467 147.405 34.8133 148.298 34.64L152.258 33.86V35.18L149.038 35.84C148.385 35.9733 147.898 36.16 147.578 36.4C147.258 36.64 147.098 36.9733 147.098 37.4C147.098 37.8133 147.258 38.1533 147.578 38.42C147.912 38.6733 148.378 38.8 148.978 38.8C149.365 38.8 149.732 38.7533 150.078 38.66C150.438 38.5533 150.758 38.4 151.038 38.2C151.318 37.9867 151.538 37.7267 151.698 37.42C151.858 37.1 151.938 36.7267 151.938 36.3V33.54ZM158.226 28.08C157.866 28.08 157.573 27.9733 157.346 27.76C157.133 27.5333 157.026 27.24 157.026 26.88C157.026 26.52 157.133 26.2333 157.346 26.02C157.573 25.7933 157.866 25.68 158.226 25.68C158.586 25.68 158.873 25.7933 159.086 26.02C159.313 26.2333 159.426 26.52 159.426 26.88C159.426 27.24 159.313 27.5333 159.086 27.76C158.873 27.9733 158.586 28.08 158.226 28.08ZM159.026 30V40H157.426V30H159.026ZM165.099 27.16V37.24C165.099 37.7333 165.239 38.1 165.519 38.34C165.799 38.58 166.159 38.7 166.599 38.7C166.986 38.7 167.319 38.6333 167.599 38.5C167.879 38.3667 168.132 38.1867 168.359 37.96L168.919 39.3C168.612 39.58 168.246 39.8 167.819 39.96C167.406 40.12 166.926 40.2 166.379 40.2C165.872 40.2 165.399 40.1133 164.959 39.94C164.519 39.7533 164.166 39.4667 163.899 39.08C163.646 38.68 163.512 38.16 163.499 37.52V27.6L165.099 27.16ZM168.739 30V31.38H161.499V30H168.739ZM182.074 29.8C183.021 29.8 183.854 30.0067 184.574 30.42C185.308 30.8333 185.881 31.4333 186.294 32.22C186.708 32.9933 186.914 33.92 186.914 35C186.914 36.08 186.708 37.0133 186.294 37.8C185.881 38.5733 185.308 39.1667 184.574 39.58C183.854 39.9933 183.021 40.2 182.074 40.2C181.141 40.2 180.308 39.9933 179.574 39.58C178.841 39.1667 178.268 38.5733 177.854 37.8C177.441 37.0133 177.234 36.08 177.234 35C177.234 33.92 177.441 32.9933 177.854 32.22C178.268 31.4333 178.841 30.8333 179.574 30.42C180.308 30.0067 181.141 29.8 182.074 29.8ZM182.074 31.18C181.394 31.18 180.814 31.3333 180.334 31.64C179.854 31.9467 179.481 32.3867 179.214 32.96C178.961 33.52 178.834 34.2 178.834 35C178.834 35.7867 178.961 36.4667 179.214 37.04C179.481 37.6133 179.854 38.0533 180.334 38.36C180.814 38.6667 181.394 38.82 182.074 38.82C182.754 38.82 183.334 38.6667 183.814 38.36C184.294 38.0533 184.661 37.6133 184.914 37.04C185.181 36.4667 185.314 35.7867 185.314 35C185.314 34.2 185.181 33.52 184.914 32.96C184.661 32.3867 184.294 31.9467 183.814 31.64C183.334 31.3333 182.754 31.18 182.074 31.18ZM193.811 25.3C194.157 25.3 194.484 25.34 194.791 25.42C195.097 25.5 195.337 25.6133 195.511 25.76L195.091 27.06C194.931 26.9533 194.757 26.88 194.571 26.84C194.384 26.7867 194.177 26.76 193.951 26.76C193.377 26.76 192.931 26.9 192.611 27.18C192.291 27.4467 192.131 27.88 192.131 28.48V30V30.52V40H190.531V28.32C190.531 27.88 190.597 27.4733 190.731 27.1C190.864 26.7267 191.064 26.4067 191.331 26.14C191.611 25.8733 191.957 25.6667 192.371 25.52C192.784 25.3733 193.264 25.3 193.811 25.3ZM195.471 30V31.38H188.531V30H195.471ZM210.57 26.8V35.48C210.57 36.96 210.17 38.12 209.37 38.96C208.583 39.7867 207.49 40.2 206.09 40.2C205.103 40.2 204.29 40.0133 203.65 39.64C203.01 39.2667 202.563 38.74 202.31 38.06C202.07 37.3667 202.036 36.56 202.21 35.64L203.69 35.34C203.543 36.4733 203.643 37.32 203.99 37.88C204.35 38.4267 205.03 38.7 206.03 38.7C207.163 38.7 207.936 38.3933 208.35 37.78C208.763 37.1533 208.97 36.2533 208.97 35.08V26.8H210.57ZM219.946 33.54C219.946 32.7933 219.746 32.22 219.346 31.82C218.946 31.4067 218.379 31.2 217.646 31.2C216.953 31.2 216.366 31.3533 215.886 31.66C215.406 31.9533 215.053 32.4333 214.826 33.1L213.526 32.3C213.793 31.5533 214.286 30.9533 215.006 30.5C215.726 30.0333 216.619 29.8 217.686 29.8C218.406 29.8 219.059 29.9267 219.646 30.18C220.233 30.42 220.693 30.7933 221.026 31.3C221.373 31.7933 221.546 32.4333 221.546 33.22V38.06C221.546 38.54 221.799 38.78 222.306 38.78C222.559 38.78 222.806 38.7467 223.046 38.68L222.966 39.94C222.699 40.0733 222.353 40.14 221.926 40.14C221.539 40.14 221.193 40.0667 220.886 39.92C220.579 39.7733 220.339 39.5533 220.166 39.26C219.993 38.9533 219.906 38.5733 219.906 38.12V37.92L220.306 37.98C220.146 38.5 219.873 38.9267 219.486 39.26C219.099 39.58 218.666 39.82 218.186 39.98C217.706 40.1267 217.233 40.2 216.766 40.2C216.179 40.2 215.633 40.1 215.126 39.9C214.619 39.7 214.213 39.4 213.906 39C213.613 38.5867 213.466 38.08 213.466 37.48C213.466 36.7333 213.713 36.12 214.206 35.64C214.713 35.1467 215.413 34.8133 216.306 34.64L220.266 33.86V35.18L217.046 35.84C216.393 35.9733 215.906 36.16 215.586 36.4C215.266 36.64 215.106 36.9733 215.106 37.4C215.106 37.8133 215.266 38.1533 215.586 38.42C215.919 38.6733 216.386 38.8 216.986 38.8C217.373 38.8 217.739 38.7533 218.086 38.66C218.446 38.5533 218.766 38.4 219.046 38.2C219.326 37.9867 219.546 37.7267 219.706 37.42C219.866 37.1 219.946 36.7267 219.946 36.3V33.54ZM231.722 30H233.402L229.242 40H227.642L223.482 30H225.302L228.462 38.38L231.722 30ZM236.293 28.08C235.933 28.08 235.639 27.9733 235.413 27.76C235.199 27.5333 235.093 27.24 235.093 26.88C235.093 26.52 235.199 26.2333 235.413 26.02C235.639 25.7933 235.933 25.68 236.293 25.68C236.653 25.68 236.939 25.7933 237.153 26.02C237.379 26.2333 237.493 26.52 237.493 26.88C237.493 27.24 237.379 27.5333 237.153 27.76C236.939 27.9733 236.653 28.08 236.293 28.08ZM237.093 30V40H235.493V30H237.093ZM244.985 40.2C244.039 40.2 243.192 39.9933 242.445 39.58C241.712 39.1667 241.139 38.5733 240.725 37.8C240.312 37.0133 240.105 36.08 240.105 35C240.105 33.92 240.312 32.9933 240.725 32.22C241.139 31.4333 241.705 30.8333 242.425 30.42C243.145 30.0067 243.965 29.8 244.885 29.8C245.819 29.8 246.612 30 247.265 30.4C247.932 30.8 248.439 31.3467 248.785 32.04C249.132 32.72 249.305 33.4867 249.305 34.34C249.305 34.5667 249.299 34.7733 249.285 34.96C249.272 35.1467 249.252 35.3133 249.225 35.46H241.145V34.04H248.525L247.705 34.2C247.705 33.24 247.439 32.5 246.905 31.98C246.385 31.46 245.699 31.2 244.845 31.2C244.192 31.2 243.625 31.3533 243.145 31.66C242.679 31.9533 242.312 32.3867 242.045 32.96C241.792 33.52 241.665 34.2 241.665 35C241.665 35.7867 241.799 36.4667 242.065 37.04C242.332 37.6133 242.705 38.0533 243.185 38.36C243.679 38.6533 244.265 38.8 244.945 38.8C245.679 38.8 246.272 38.66 246.725 38.38C247.192 38.1 247.565 37.72 247.845 37.24L249.105 37.98C248.852 38.4333 248.525 38.8267 248.125 39.16C247.739 39.4933 247.279 39.7533 246.745 39.94C246.225 40.1133 245.639 40.2 244.985 40.2ZM252.348 40V30H253.648L253.868 31.64C254.148 31.0267 254.555 30.5667 255.088 30.26C255.635 29.9533 256.295 29.8 257.068 29.8C257.242 29.8 257.428 29.8133 257.628 29.84C257.842 29.8667 258.022 29.92 258.168 30L257.888 31.46C257.742 31.4067 257.582 31.3667 257.408 31.34C257.235 31.3133 256.988 31.3 256.668 31.3C256.255 31.3 255.835 31.42 255.408 31.66C254.995 31.9 254.648 32.2667 254.368 32.76C254.088 33.24 253.948 33.8533 253.948 34.6V40H252.348ZM267.16 40V26.8H271.86C273.42 26.8 274.56 27.1267 275.28 27.78C276 28.4333 276.36 29.32 276.36 30.44C276.36 31.1067 276.167 31.7133 275.78 32.26C275.393 32.7933 274.847 33.1333 274.14 33.28V33.3C274.927 33.4467 275.547 33.8067 276 34.38C276.467 34.94 276.7 35.58 276.7 36.3C276.7 37.42 276.28 38.32 275.44 39C274.6 39.6667 273.4 40 271.84 40H267.16ZM268.76 38.5H272.22C273.167 38.5 273.867 38.3067 274.32 37.92C274.787 37.5333 275.02 36.9933 275.02 36.3C275.02 35.5933 274.787 35.0533 274.32 34.68C273.867 34.2933 273.167 34.1 272.22 34.1H268.76V38.5ZM268.76 32.6H271.88C273.747 32.6 274.68 31.88 274.68 30.44C274.68 29.0133 273.747 28.3 271.88 28.3H268.76V32.6ZM285.766 33.54C285.766 32.7933 285.566 32.22 285.166 31.82C284.766 31.4067 284.2 31.2 283.466 31.2C282.773 31.2 282.186 31.3533 281.706 31.66C281.226 31.9533 280.873 32.4333 280.646 33.1L279.346 32.3C279.613 31.5533 280.106 30.9533 280.826 30.5C281.546 30.0333 282.44 29.8 283.506 29.8C284.226 29.8 284.88 29.9267 285.466 30.18C286.053 30.42 286.513 30.7933 286.846 31.3C287.193 31.7933 287.366 32.4333 287.366 33.22V38.06C287.366 38.54 287.62 38.78 288.126 38.78C288.38 38.78 288.626 38.7467 288.866 38.68L288.786 39.94C288.52 40.0733 288.173 40.14 287.746 40.14C287.36 40.14 287.013 40.0667 286.706 39.92C286.4 39.7733 286.16 39.5533 285.986 39.26C285.813 38.9533 285.726 38.5733 285.726 38.12V37.92L286.126 37.98C285.966 38.5 285.693 38.9267 285.306 39.26C284.92 39.58 284.486 39.82 284.006 39.98C283.526 40.1267 283.053 40.2 282.586 40.2C282 40.2 281.453 40.1 280.946 39.9C280.44 39.7 280.033 39.4 279.726 39C279.433 38.5867 279.286 38.08 279.286 37.48C279.286 36.7333 279.533 36.12 280.026 35.64C280.533 35.1467 281.233 34.8133 282.126 34.64L286.086 33.86V35.18L282.866 35.84C282.213 35.9733 281.726 36.16 281.406 36.4C281.086 36.64 280.926 36.9733 280.926 37.4C280.926 37.8133 281.086 38.1533 281.406 38.42C281.74 38.6733 282.206 38.8 282.806 38.8C283.193 38.8 283.56 38.7533 283.906 38.66C284.266 38.5533 284.586 38.4 284.866 38.2C285.146 37.9867 285.366 37.7267 285.526 37.42C285.686 37.1 285.766 36.7267 285.766 36.3V33.54ZM291.255 40V30H292.555L292.775 31.64C293.055 31.0267 293.461 30.5667 293.995 30.26C294.541 29.9533 295.201 29.8 295.975 29.8C296.148 29.8 296.335 29.8133 296.535 29.84C296.748 29.8667 296.928 29.92 297.075 30L296.795 31.46C296.648 31.4067 296.488 31.3667 296.315 31.34C296.141 31.3133 295.895 31.3 295.575 31.3C295.161 31.3 294.741 31.42 294.315 31.66C293.901 31.9 293.555 32.2667 293.275 32.76C292.995 33.24 292.855 33.8533 292.855 34.6V40H291.255ZM303.006 40.2C302.179 40.2 301.419 39.9933 300.726 39.58C300.033 39.1667 299.479 38.5733 299.066 37.8C298.653 37.0133 298.446 36.08 298.446 35C298.446 33.8933 298.666 32.9533 299.106 32.18C299.546 31.4067 300.126 30.82 300.846 30.42C301.566 30.0067 302.339 29.8 303.166 29.8C303.993 29.8 304.706 30.0133 305.306 30.44C305.919 30.8667 306.326 31.4333 306.526 32.14L306.326 32.28V25.4H307.926V40H306.526L306.386 37.58L306.606 37.46C306.513 38.0467 306.286 38.5467 305.926 38.96C305.579 39.36 305.146 39.6667 304.626 39.88C304.119 40.0933 303.579 40.2 303.006 40.2ZM303.166 38.8C303.806 38.8 304.359 38.64 304.826 38.32C305.306 38 305.673 37.5467 305.926 36.96C306.193 36.36 306.326 35.66 306.326 34.86C306.326 34.1 306.193 33.4467 305.926 32.9C305.673 32.3533 305.313 31.9333 304.846 31.64C304.393 31.3467 303.859 31.2 303.246 31.2C302.233 31.2 301.446 31.5467 300.886 32.24C300.326 32.9333 300.046 33.8533 300.046 35C300.046 36.1467 300.319 37.0667 300.866 37.76C301.413 38.4533 302.179 38.8 303.166 38.8ZM315.825 40.2C314.878 40.2 314.032 39.9933 313.285 39.58C312.552 39.1667 311.978 38.5733 311.565 37.8C311.152 37.0133 310.945 36.08 310.945 35C310.945 33.92 311.152 32.9933 311.565 32.22C311.978 31.4333 312.545 30.8333 313.265 30.42C313.985 30.0067 314.805 29.8 315.725 29.8C316.658 29.8 317.452 30 318.105 30.4C318.772 30.8 319.278 31.3467 319.625 32.04C319.972 32.72 320.145 33.4867 320.145 34.34C320.145 34.5667 320.138 34.7733 320.125 34.96C320.112 35.1467 320.092 35.3133 320.065 35.46H311.985V34.04H319.365L318.545 34.2C318.545 33.24 318.278 32.5 317.745 31.98C317.225 31.46 316.538 31.2 315.685 31.2C315.032 31.2 314.465 31.3533 313.985 31.66C313.518 31.9533 313.152 32.3867 312.885 32.96C312.632 33.52 312.505 34.2 312.505 35C312.505 35.7867 312.638 36.4667 312.905 37.04C313.172 37.6133 313.545 38.0533 314.025 38.36C314.518 38.6533 315.105 38.8 315.785 38.8C316.518 38.8 317.112 38.66 317.565 38.38C318.032 38.1 318.405 37.72 318.685 37.24L319.945 37.98C319.692 38.4333 319.365 38.8267 318.965 39.16C318.578 39.4933 318.118 39.7533 317.585 39.94C317.065 40.1133 316.478 40.2 315.825 40.2ZM323.188 40V30H324.588L324.688 31.56C325.048 30.9467 325.515 30.5 326.088 30.22C326.675 29.94 327.275 29.8 327.888 29.8C328.595 29.8 329.261 29.96 329.888 30.28C330.515 30.6 330.995 31.0933 331.328 31.76C331.541 31.3067 331.841 30.94 332.228 30.66C332.615 30.3667 333.035 30.1533 333.488 30.02C333.955 29.8733 334.395 29.8 334.808 29.8C335.448 29.8 336.055 29.9333 336.628 30.2C337.215 30.4667 337.695 30.88 338.068 31.44C338.441 32 338.628 32.72 338.628 33.6V40H337.028V33.76C337.028 32.8533 336.801 32.2 336.348 31.8C335.895 31.4 335.335 31.2 334.668 31.2C334.148 31.2 333.661 31.3267 333.208 31.58C332.755 31.8333 332.388 32.2067 332.108 32.7C331.841 33.1933 331.708 33.8 331.708 34.52V40H330.108V33.76C330.108 32.8533 329.881 32.2 329.428 31.8C328.975 31.4 328.415 31.2 327.748 31.2C327.308 31.2 326.855 31.32 326.388 31.56C325.935 31.7867 325.555 32.1533 325.248 32.66C324.941 33.1667 324.788 33.8333 324.788 34.66V40H323.188ZM349.867 28.08C349.507 28.08 349.214 27.9733 348.987 27.76C348.774 27.5333 348.667 27.24 348.667 26.88C348.667 26.52 348.774 26.2333 348.987 26.02C349.214 25.7933 349.507 25.68 349.867 25.68C350.227 25.68 350.514 25.7933 350.727 26.02C350.954 26.2333 351.067 26.52 351.067 26.88C351.067 27.24 350.954 27.5333 350.727 27.76C350.514 27.9733 350.227 28.08 349.867 28.08ZM350.667 30V40H349.067V30H350.667ZM357.98 40.2C357.006 40.2 356.106 39.9933 355.28 39.58C354.466 39.1667 353.84 38.58 353.4 37.82L354.76 36.84C355.053 37.4533 355.48 37.9333 356.04 38.28C356.613 38.6267 357.3 38.8 358.1 38.8C358.806 38.8 359.36 38.6667 359.76 38.4C360.16 38.12 360.36 37.76 360.36 37.32C360.36 37.04 360.266 36.7867 360.08 36.56C359.906 36.32 359.566 36.1467 359.06 36.04L356.66 35.54C355.686 35.34 354.986 35.0067 354.56 34.54C354.146 34.0733 353.94 33.4933 353.94 32.8C353.94 32.2533 354.093 31.7533 354.4 31.3C354.72 30.8467 355.166 30.4867 355.74 30.22C356.326 29.94 357.013 29.8 357.8 29.8C358.786 29.8 359.62 29.9933 360.3 30.38C360.98 30.7667 361.486 31.3133 361.82 32.02L360.48 32.9C360.253 32.3133 359.886 31.8867 359.38 31.62C358.873 31.34 358.346 31.2 357.8 31.2C357.32 31.2 356.906 31.2667 356.56 31.4C356.226 31.5333 355.966 31.72 355.78 31.96C355.606 32.1867 355.52 32.4467 355.52 32.74C355.52 33.0333 355.62 33.3067 355.82 33.56C356.02 33.8 356.393 33.9733 356.94 34.08L359.44 34.6C360.373 34.7867 361.026 35.0933 361.4 35.52C361.773 35.9467 361.96 36.4667 361.96 37.08C361.96 37.7067 361.793 38.26 361.46 38.74C361.126 39.2067 360.66 39.5667 360.06 39.82C359.46 40.0733 358.766 40.2 357.98 40.2ZM371.743 40V25.4H373.343V31.5C373.689 30.9 374.149 30.4667 374.723 30.2C375.296 29.9333 375.923 29.8 376.603 29.8C377.323 29.8 377.976 29.94 378.563 30.22C379.149 30.4867 379.616 30.9 379.963 31.46C380.323 32.02 380.503 32.7333 380.503 33.6V40H378.903V34.16C378.903 33.0533 378.663 32.2867 378.183 31.86C377.716 31.42 377.136 31.2 376.443 31.2C375.963 31.2 375.483 31.3133 375.003 31.54C374.523 31.7667 374.123 32.14 373.803 32.66C373.496 33.1667 373.343 33.8467 373.343 34.7V40H371.743ZM384.926 28.08C384.566 28.08 384.272 27.9733 384.046 27.76C383.832 27.5333 383.726 27.24 383.726 26.88C383.726 26.52 383.832 26.2333 384.046 26.02C384.272 25.7933 384.566 25.68 384.926 25.68C385.286 25.68 385.572 25.7933 385.786 26.02C386.012 26.2333 386.126 26.52 386.126 26.88C386.126 27.24 386.012 27.5333 385.786 27.76C385.572 27.9733 385.286 28.08 384.926 28.08ZM385.726 30V40H384.126V30H385.726ZM393.338 40.2C392.511 40.2 391.751 39.9933 391.058 39.58C390.365 39.1667 389.811 38.5733 389.398 37.8C388.985 37.0133 388.778 36.08 388.778 35C388.778 33.8933 388.998 32.9533 389.438 32.18C389.878 31.4067 390.458 30.82 391.178 30.42C391.898 30.0067 392.671 29.8 393.498 29.8C394.325 29.8 395.038 30.0133 395.638 30.44C396.251 30.8667 396.658 31.4333 396.858 32.14L396.658 32.28V25.4H398.258V40H396.858L396.718 37.58L396.938 37.46C396.845 38.0467 396.618 38.5467 396.258 38.96C395.911 39.36 395.478 39.6667 394.958 39.88C394.451 40.0933 393.911 40.2 393.338 40.2ZM393.498 38.8C394.138 38.8 394.691 38.64 395.158 38.32C395.638 38 396.005 37.5467 396.258 36.96C396.525 36.36 396.658 35.66 396.658 34.86C396.658 34.1 396.525 33.4467 396.258 32.9C396.005 32.3533 395.645 31.9333 395.178 31.64C394.725 31.3467 394.191 31.2 393.578 31.2C392.565 31.2 391.778 31.5467 391.218 32.24C390.658 32.9333 390.378 33.8533 390.378 35C390.378 36.1467 390.651 37.0667 391.198 37.76C391.745 38.4533 392.511 38.8 393.498 38.8ZM405.877 40.2C405.051 40.2 404.291 39.9933 403.597 39.58C402.904 39.1667 402.351 38.5733 401.937 37.8C401.524 37.0133 401.317 36.08 401.317 35C401.317 33.8933 401.537 32.9533 401.977 32.18C402.417 31.4067 402.997 30.82 403.717 30.42C404.437 30.0067 405.211 29.8 406.037 29.8C406.864 29.8 407.577 30.0133 408.177 30.44C408.791 30.8667 409.197 31.4333 409.397 32.14L409.197 32.28V25.4H410.797V40H409.397L409.257 37.58L409.477 37.46C409.384 38.0467 409.157 38.5467 408.797 38.96C408.451 39.36 408.017 39.6667 407.497 39.88C406.991 40.0933 406.451 40.2 405.877 40.2ZM406.037 38.8C406.677 38.8 407.231 38.64 407.697 38.32C408.177 38 408.544 37.5467 408.797 36.96C409.064 36.36 409.197 35.66 409.197 34.86C409.197 34.1 409.064 33.4467 408.797 32.9C408.544 32.3533 408.184 31.9333 407.717 31.64C407.264 31.3467 406.731 31.2 406.117 31.2C405.104 31.2 404.317 31.5467 403.757 32.24C403.197 32.9333 402.917 33.8533 402.917 35C402.917 36.1467 403.191 37.0667 403.737 37.76C404.284 38.4533 405.051 38.8 406.037 38.8ZM418.696 40.2C417.75 40.2 416.903 39.9933 416.156 39.58C415.423 39.1667 414.85 38.5733 414.436 37.8C414.023 37.0133 413.816 36.08 413.816 35C413.816 33.92 414.023 32.9933 414.436 32.22C414.85 31.4333 415.416 30.8333 416.136 30.42C416.856 30.0067 417.676 29.8 418.596 29.8C419.53 29.8 420.323 30 420.976 30.4C421.643 30.8 422.15 31.3467 422.496 32.04C422.843 32.72 423.016 33.4867 423.016 34.34C423.016 34.5667 423.01 34.7733 422.996 34.96C422.983 35.1467 422.963 35.3133 422.936 35.46H414.856V34.04H422.236L421.416 34.2C421.416 33.24 421.15 32.5 420.616 31.98C420.096 31.46 419.41 31.2 418.556 31.2C417.903 31.2 417.336 31.3533 416.856 31.66C416.39 31.9533 416.023 32.3867 415.756 32.96C415.503 33.52 415.376 34.2 415.376 35C415.376 35.7867 415.51 36.4667 415.776 37.04C416.043 37.6133 416.416 38.0533 416.896 38.36C417.39 38.6533 417.976 38.8 418.656 38.8C419.39 38.8 419.983 38.66 420.436 38.38C420.903 38.1 421.276 37.72 421.556 37.24L422.816 37.98C422.563 38.4333 422.236 38.8267 421.836 39.16C421.45 39.4933 420.99 39.7533 420.456 39.94C419.936 40.1133 419.35 40.2 418.696 40.2ZM426.059 40V30H427.459L427.599 32.24L427.339 32.02C427.553 31.4867 427.839 31.06 428.199 30.74C428.559 30.4067 428.973 30.1667 429.439 30.02C429.919 29.8733 430.413 29.8 430.919 29.8C431.639 29.8 432.293 29.94 432.879 30.22C433.466 30.4867 433.933 30.9 434.279 31.46C434.639 32.02 434.819 32.7333 434.819 33.6V40H433.219V34.16C433.219 33.0533 432.979 32.2867 432.499 31.86C432.033 31.42 431.453 31.2 430.759 31.2C430.279 31.2 429.799 31.3133 429.319 31.54C428.839 31.7667 428.439 32.1333 428.119 32.64C427.813 33.1467 427.659 33.8267 427.659 34.68V40H426.059ZM451.098 33.54C451.098 32.7933 450.898 32.22 450.498 31.82C450.098 31.4067 449.532 31.2 448.798 31.2C448.105 31.2 447.518 31.3533 447.038 31.66C446.558 31.9533 446.205 32.4333 445.978 33.1L444.678 32.3C444.945 31.5533 445.438 30.9533 446.158 30.5C446.878 30.0333 447.772 29.8 448.838 29.8C449.558 29.8 450.212 29.9267 450.798 30.18C451.385 30.42 451.845 30.7933 452.178 31.3C452.525 31.7933 452.698 32.4333 452.698 33.22V38.06C452.698 38.54 452.952 38.78 453.458 38.78C453.712 38.78 453.958 38.7467 454.198 38.68L454.118 39.94C453.852 40.0733 453.505 40.14 453.078 40.14C452.692 40.14 452.345 40.0667 452.038 39.92C451.732 39.7733 451.492 39.5533 451.318 39.26C451.145 38.9533 451.058 38.5733 451.058 38.12V37.92L451.458 37.98C451.298 38.5 451.025 38.9267 450.638 39.26C450.252 39.58 449.818 39.82 449.338 39.98C448.858 40.1267 448.385 40.2 447.918 40.2C447.332 40.2 446.785 40.1 446.278 39.9C445.772 39.7 445.365 39.4 445.058 39C444.765 38.5867 444.618 38.08 444.618 37.48C444.618 36.7333 444.865 36.12 445.358 35.64C445.865 35.1467 446.565 34.8133 447.458 34.64L451.418 33.86V35.18L448.198 35.84C447.545 35.9733 447.058 36.16 446.738 36.4C446.418 36.64 446.258 36.9733 446.258 37.4C446.258 37.8133 446.418 38.1533 446.738 38.42C447.072 38.6733 447.538 38.8 448.138 38.8C448.525 38.8 448.892 38.7533 449.238 38.66C449.598 38.5533 449.918 38.4 450.198 38.2C450.478 37.9867 450.698 37.7267 450.858 37.42C451.018 37.1 451.098 36.7267 451.098 36.3V33.54ZM456.587 40V30H457.987L458.087 31.56C458.447 30.9467 458.913 30.5 459.487 30.22C460.073 29.94 460.673 29.8 461.287 29.8C461.993 29.8 462.66 29.96 463.287 30.28C463.913 30.6 464.393 31.0933 464.727 31.76C464.94 31.3067 465.24 30.94 465.627 30.66C466.013 30.3667 466.433 30.1533 466.887 30.02C467.353 29.8733 467.793 29.8 468.207 29.8C468.847 29.8 469.453 29.9333 470.027 30.2C470.613 30.4667 471.093 30.88 471.467 31.44C471.84 32 472.027 32.72 472.027 33.6V40H470.427V33.76C470.427 32.8533 470.2 32.2 469.747 31.8C469.293 31.4 468.733 31.2 468.067 31.2C467.547 31.2 467.06 31.3267 466.607 31.58C466.153 31.8333 465.787 32.2067 465.507 32.7C465.24 33.1933 465.107 33.8 465.107 34.52V40H463.507V33.76C463.507 32.8533 463.28 32.2 462.827 31.8C462.373 31.4 461.813 31.2 461.147 31.2C460.707 31.2 460.253 31.32 459.787 31.56C459.333 31.7867 458.953 32.1533 458.647 32.66C458.34 33.1667 458.187 33.8333 458.187 34.66V40H456.587ZM479.789 29.8C480.736 29.8 481.569 30.0067 482.289 30.42C483.022 30.8333 483.596 31.4333 484.009 32.22C484.422 32.9933 484.629 33.92 484.629 35C484.629 36.08 484.422 37.0133 484.009 37.8C483.596 38.5733 483.022 39.1667 482.289 39.58C481.569 39.9933 480.736 40.2 479.789 40.2C478.856 40.2 478.022 39.9933 477.289 39.58C476.556 39.1667 475.982 38.5733 475.569 37.8C475.156 37.0133 474.949 36.08 474.949 35C474.949 33.92 475.156 32.9933 475.569 32.22C475.982 31.4333 476.556 30.8333 477.289 30.42C478.022 30.0067 478.856 29.8 479.789 29.8ZM479.789 31.18C479.109 31.18 478.529 31.3333 478.049 31.64C477.569 31.9467 477.196 32.3867 476.929 32.96C476.676 33.52 476.549 34.2 476.549 35C476.549 35.7867 476.676 36.4667 476.929 37.04C477.196 37.6133 477.569 38.0533 478.049 38.36C478.529 38.6667 479.109 38.82 479.789 38.82C480.469 38.82 481.049 38.6667 481.529 38.36C482.009 38.0533 482.376 37.6133 482.629 37.04C482.896 36.4667 483.029 35.7867 483.029 35C483.029 34.2 482.896 33.52 482.629 32.96C482.376 32.3867 482.009 31.9467 481.529 31.64C481.049 31.3333 480.469 31.18 479.789 31.18ZM487.641 40V30H489.041L489.181 32.24L488.921 32.02C489.135 31.4867 489.421 31.06 489.781 30.74C490.141 30.4067 490.555 30.1667 491.021 30.02C491.501 29.8733 491.995 29.8 492.501 29.8C493.221 29.8 493.875 29.94 494.461 30.22C495.048 30.4867 495.515 30.9 495.861 31.46C496.221 32.02 496.401 32.7333 496.401 33.6V40H494.801V34.16C494.801 33.0533 494.561 32.2867 494.081 31.86C493.615 31.42 493.035 31.2 492.341 31.2C491.861 31.2 491.381 31.3133 490.901 31.54C490.421 31.7667 490.021 32.1333 489.701 32.64C489.395 33.1467 489.241 33.8267 489.241 34.68V40H487.641ZM508.444 28.16L508.804 29.58C508.791 29.58 508.771 29.58 508.744 29.58C508.717 29.58 508.691 29.58 508.664 29.58C508.011 29.58 507.504 29.7133 507.144 29.98C506.797 30.2333 506.624 30.6467 506.624 31.22L505.644 30.72C505.644 30.2 505.764 29.7467 506.004 29.36C506.244 28.9733 506.571 28.68 506.984 28.48C507.397 28.2667 507.851 28.16 508.344 28.16C508.357 28.16 508.371 28.16 508.384 28.16C508.411 28.16 508.431 28.16 508.444 28.16ZM505.404 38.72C506.351 38.72 507.091 38.94 507.624 39.38C508.157 39.8067 508.424 40.38 508.424 41.1C508.424 41.7533 508.204 42.32 507.764 42.8C507.337 43.28 506.757 43.6467 506.024 43.9C505.304 44.1667 504.491 44.3 503.584 44.3C502.011 44.3 500.831 44.0333 500.044 43.5C499.271 42.9667 498.884 42.3267 498.884 41.58C498.884 41.0467 499.057 40.5667 499.404 40.14C499.764 39.7267 500.364 39.4933 501.204 39.44L501.064 39.74C500.611 39.62 500.224 39.42 499.904 39.14C499.597 38.8467 499.444 38.4267 499.444 37.88C499.444 37.3333 499.644 36.8667 500.044 36.48C500.457 36.08 501.064 35.8333 501.864 35.74L502.924 36.28H502.724C502.071 36.3467 501.604 36.5133 501.324 36.78C501.057 37.0333 500.924 37.3133 500.924 37.62C500.924 37.9933 501.057 38.2733 501.324 38.46C501.604 38.6333 501.991 38.72 502.484 38.72H505.404ZM503.564 42.96C504.337 42.96 504.971 42.88 505.464 42.72C505.971 42.56 506.344 42.3533 506.584 42.1C506.824 41.8467 506.944 41.5733 506.944 41.28C506.944 40.92 506.797 40.6333 506.504 40.42C506.224 40.2067 505.711 40.1 504.964 40.1H501.884C501.457 40.1 501.097 40.2067 500.804 40.42C500.511 40.6467 500.364 40.9533 500.364 41.34C500.364 41.8333 500.644 42.2267 501.204 42.52C501.777 42.8133 502.564 42.96 503.564 42.96ZM503.424 29.8C504.224 29.8 504.931 29.9467 505.544 30.24C506.171 30.52 506.657 30.9133 507.004 31.42C507.351 31.9267 507.524 32.5133 507.524 33.18C507.524 33.8333 507.351 34.42 507.004 34.94C506.657 35.4467 506.171 35.8467 505.544 36.14C504.931 36.42 504.224 36.56 503.424 36.56C502.104 36.56 501.091 36.2467 500.384 35.62C499.677 34.98 499.324 34.1667 499.324 33.18C499.324 32.5133 499.497 31.9267 499.844 31.42C500.204 30.9133 500.691 30.52 501.304 30.24C501.917 29.9467 502.624 29.8 503.424 29.8ZM503.424 31.1C502.731 31.1 502.151 31.2933 501.684 31.68C501.217 32.0533 500.984 32.5533 500.984 33.18C500.984 33.7933 501.217 34.2933 501.684 34.68C502.151 35.0667 502.731 35.26 503.424 35.26C504.117 35.26 504.697 35.0667 505.164 34.68C505.631 34.2933 505.864 33.7933 505.864 33.18C505.864 32.5533 505.631 32.0533 505.164 31.68C504.697 31.2933 504.117 31.1 503.424 31.1ZM4.22 53.16V63.24C4.22 63.7333 4.36 64.1 4.64 64.34C4.92 64.58 5.28 64.7 5.72 64.7C6.10667 64.7 6.44 64.6333 6.72 64.5C7 64.3667 7.25333 64.1867 7.48 63.96L8.04 65.3C7.73333 65.58 7.36667 65.8 6.94 65.96C6.52667 66.12 6.04667 66.2 5.5 66.2C4.99333 66.2 4.52 66.1133 4.08 65.94C3.64 65.7533 3.28667 65.4667 3.02 65.08C2.76667 64.68 2.63333 64.16 2.62 63.52V53.6L4.22 53.16ZM7.86 56V57.38H0.62V56H7.86ZM10.2389 66V51.4H11.8389V57.5C12.1856 56.9 12.6456 56.4667 13.2189 56.2C13.7922 55.9333 14.4189 55.8 15.0989 55.8C15.8189 55.8 16.4722 55.94 17.0589 56.22C17.6456 56.4867 18.1122 56.9 18.4589 57.46C18.8189 58.02 18.9989 58.7333 18.9989 59.6V66H17.3989V60.16C17.3989 59.0533 17.1589 58.2867 16.6789 57.86C16.2122 57.42 15.6322 57.2 14.9389 57.2C14.4589 57.2 13.9789 57.3133 13.4989 57.54C13.0189 57.7667 12.6189 58.14 12.2989 58.66C11.9922 59.1667 11.8389 59.8467 11.8389 60.7V66H10.2389ZM26.8017 66.2C25.8551 66.2 25.0084 65.9933 24.2617 65.58C23.5284 65.1667 22.9551 64.5733 22.5417 63.8C22.1284 63.0133 21.9217 62.08 21.9217 61C21.9217 59.92 22.1284 58.9933 22.5417 58.22C22.9551 57.4333 23.5217 56.8333 24.2417 56.42C24.9617 56.0067 25.7817 55.8 26.7017 55.8C27.6351 55.8 28.4284 56 29.0817 56.4C29.7484 56.8 30.2551 57.3467 30.6017 58.04C30.9484 58.72 31.1217 59.4867 31.1217 60.34C31.1217 60.5667 31.1151 60.7733 31.1017 60.96C31.0884 61.1467 31.0684 61.3133 31.0417 61.46H22.9617V60.04H30.3417L29.5217 60.2C29.5217 59.24 29.2551 58.5 28.7217 57.98C28.2017 57.46 27.5151 57.2 26.6617 57.2C26.0084 57.2 25.4417 57.3533 24.9617 57.66C24.4951 57.9533 24.1284 58.3867 23.8617 58.96C23.6084 59.52 23.4817 60.2 23.4817 61C23.4817 61.7867 23.6151 62.4667 23.8817 63.04C24.1484 63.6133 24.5217 64.0533 25.0017 64.36C25.4951 64.6533 26.0817 64.8 26.7617 64.8C27.4951 64.8 28.0884 64.66 28.5417 64.38C29.0084 64.1 29.3817 63.72 29.6617 63.24L30.9217 63.98C30.6684 64.4333 30.3417 64.8267 29.9417 65.16C29.5551 65.4933 29.0951 65.7533 28.5617 65.94C28.0417 66.1133 27.4551 66.2 26.8017 66.2ZM42.5011 51.4V63.46C42.5011 63.9667 42.5944 64.32 42.7811 64.52C42.9678 64.7067 43.2678 64.8 43.6811 64.8C43.9478 64.8 44.1678 64.78 44.3411 64.74C44.5144 64.7 44.7478 64.6267 45.0411 64.52L44.7811 65.92C44.5678 66.0133 44.3344 66.08 44.0811 66.12C43.8278 66.1733 43.5678 66.2 43.3011 66.2C42.4878 66.2 41.8811 65.98 41.4811 65.54C41.0944 65.1 40.9011 64.4267 40.9011 63.52V51.4H42.5011ZM51.2744 66.2C50.3277 66.2 49.481 65.9933 48.7344 65.58C48.001 65.1667 47.4277 64.5733 47.0144 63.8C46.601 63.0133 46.3944 62.08 46.3944 61C46.3944 59.92 46.601 58.9933 47.0144 58.22C47.4277 57.4333 47.9944 56.8333 48.7144 56.42C49.4344 56.0067 50.2544 55.8 51.1744 55.8C52.1077 55.8 52.901 56 53.5544 56.4C54.221 56.8 54.7277 57.3467 55.0744 58.04C55.421 58.72 55.5944 59.4867 55.5944 60.34C55.5944 60.5667 55.5877 60.7733 55.5744 60.96C55.561 61.1467 55.541 61.3133 55.5144 61.46H47.4344V60.04H54.8144L53.9944 60.2C53.9944 59.24 53.7277 58.5 53.1944 57.98C52.6744 57.46 51.9877 57.2 51.1344 57.2C50.481 57.2 49.9144 57.3533 49.4344 57.66C48.9677 57.9533 48.601 58.3867 48.3344 58.96C48.081 59.52 47.9544 60.2 47.9544 61C47.9544 61.7867 48.0877 62.4667 48.3544 63.04C48.621 63.6133 48.9944 64.0533 49.4744 64.36C49.9677 64.6533 50.5544 64.8 51.2344 64.8C51.9677 64.8 52.561 64.66 53.0144 64.38C53.481 64.1 53.8544 63.72 54.1344 63.24L55.3944 63.98C55.141 64.4333 54.8144 64.8267 54.4144 65.16C54.0277 65.4933 53.5677 65.7533 53.0344 65.94C52.5144 66.1133 51.9277 66.2 51.2744 66.2ZM64.4773 59.54C64.4773 58.7933 64.2773 58.22 63.8773 57.82C63.4773 57.4067 62.9107 57.2 62.1773 57.2C61.484 57.2 60.8973 57.3533 60.4173 57.66C59.9373 57.9533 59.584 58.4333 59.3573 59.1L58.0573 58.3C58.324 57.5533 58.8173 56.9533 59.5373 56.5C60.2573 56.0333 61.1507 55.8 62.2173 55.8C62.9373 55.8 63.5907 55.9267 64.1773 56.18C64.764 56.42 65.224 56.7933 65.5573 57.3C65.904 57.7933 66.0773 58.4333 66.0773 59.22V64.06C66.0773 64.54 66.3307 64.78 66.8373 64.78C67.0907 64.78 67.3373 64.7467 67.5773 64.68L67.4973 65.94C67.2307 66.0733 66.884 66.14 66.4573 66.14C66.0707 66.14 65.724 66.0667 65.4173 65.92C65.1107 65.7733 64.8707 65.5533 64.6973 65.26C64.524 64.9533 64.4373 64.5733 64.4373 64.12V63.92L64.8373 63.98C64.6773 64.5 64.404 64.9267 64.0173 65.26C63.6307 65.58 63.1973 65.82 62.7173 65.98C62.2373 66.1267 61.764 66.2 61.2973 66.2C60.7107 66.2 60.164 66.1 59.6573 65.9C59.1507 65.7 58.744 65.4 58.4373 65C58.144 64.5867 57.9973 64.08 57.9973 63.48C57.9973 62.7333 58.244 62.12 58.7373 61.64C59.244 61.1467 59.944 60.8133 60.8373 60.64L64.7973 59.86V61.18L61.5773 61.84C60.924 61.9733 60.4373 62.16 60.1173 62.4C59.7973 62.64 59.6373 62.9733 59.6373 63.4C59.6373 63.8133 59.7973 64.1533 60.1173 64.42C60.4507 64.6733 60.9173 64.8 61.5173 64.8C61.904 64.8 62.2707 64.7533 62.6173 64.66C62.9773 64.5533 63.2973 64.4 63.5773 64.2C63.8573 63.9867 64.0773 63.7267 64.2373 63.42C64.3973 63.1 64.4773 62.7267 64.4773 62.3V59.54ZM76.2534 56H77.9334L73.7734 66H72.1734L68.0134 56H69.8334L72.9934 64.38L76.2534 56ZM84.2041 66.2C83.2574 66.2 82.4107 65.9933 81.6641 65.58C80.9307 65.1667 80.3574 64.5733 79.9441 63.8C79.5307 63.0133 79.3241 62.08 79.3241 61C79.3241 59.92 79.5307 58.9933 79.9441 58.22C80.3574 57.4333 80.9241 56.8333 81.6441 56.42C82.3641 56.0067 83.1841 55.8 84.1041 55.8C85.0374 55.8 85.8307 56 86.4841 56.4C87.1507 56.8 87.6574 57.3467 88.0041 58.04C88.3507 58.72 88.5241 59.4867 88.5241 60.34C88.5241 60.5667 88.5174 60.7733 88.5041 60.96C88.4907 61.1467 88.4707 61.3133 88.4441 61.46H80.3641V60.04H87.7441L86.9241 60.2C86.9241 59.24 86.6574 58.5 86.1241 57.98C85.6041 57.46 84.9174 57.2 84.0641 57.2C83.4107 57.2 82.8441 57.3533 82.3641 57.66C81.8974 57.9533 81.5307 58.3867 81.2641 58.96C81.0107 59.52 80.8841 60.2 80.8841 61C80.8841 61.7867 81.0174 62.4667 81.2841 63.04C81.5507 63.6133 81.9241 64.0533 82.4041 64.36C82.8974 64.6533 83.4841 64.8 84.1641 64.8C84.8974 64.8 85.4907 64.66 85.9441 64.38C86.4107 64.1 86.7841 63.72 87.0641 63.24L88.3241 63.98C88.0707 64.4333 87.7441 64.8267 87.3441 65.16C86.9574 65.4933 86.4974 65.7533 85.9641 65.94C85.4441 66.1133 84.8574 66.2 84.2041 66.2ZM95.167 66.2C94.1937 66.2 93.2937 65.9933 92.467 65.58C91.6537 65.1667 91.027 64.58 90.587 63.82L91.947 62.84C92.2404 63.4533 92.667 63.9333 93.227 64.28C93.8004 64.6267 94.487 64.8 95.287 64.8C95.9937 64.8 96.547 64.6667 96.947 64.4C97.347 64.12 97.547 63.76 97.547 63.32C97.547 63.04 97.4537 62.7867 97.267 62.56C97.0937 62.32 96.7537 62.1467 96.247 62.04L93.847 61.54C92.8737 61.34 92.1737 61.0067 91.747 60.54C91.3337 60.0733 91.127 59.4933 91.127 58.8C91.127 58.2533 91.2804 57.7533 91.587 57.3C91.907 56.8467 92.3537 56.4867 92.927 56.22C93.5137 55.94 94.2004 55.8 94.987 55.8C95.9737 55.8 96.807 55.9933 97.487 56.38C98.167 56.7667 98.6737 57.3133 99.007 58.02L97.667 58.9C97.4404 58.3133 97.0737 57.8867 96.567 57.62C96.0604 57.34 95.5337 57.2 94.987 57.2C94.507 57.2 94.0937 57.2667 93.747 57.4C93.4137 57.5333 93.1537 57.72 92.967 57.96C92.7937 58.1867 92.707 58.4467 92.707 58.74C92.707 59.0333 92.807 59.3067 93.007 59.56C93.207 59.8 93.5804 59.9733 94.127 60.08L96.627 60.6C97.5604 60.7867 98.2137 61.0933 98.587 61.52C98.9604 61.9467 99.147 62.4667 99.147 63.08C99.147 63.7067 98.9804 64.26 98.647 64.74C98.3137 65.2067 97.847 65.5667 97.247 65.82C96.647 66.0733 95.9537 66.2 95.167 66.2ZM102.914 63.6C103.234 63.6 103.501 63.6867 103.714 63.86C103.941 64.02 104.114 64.2467 104.234 64.54C104.354 64.82 104.414 65.1533 104.414 65.54C104.414 65.98 104.334 66.4133 104.174 66.84C104.027 67.2667 103.794 67.66 103.474 68.02C103.154 68.38 102.741 68.68 102.234 68.92L101.394 68.14C101.754 68.02 102.067 67.8533 102.334 67.64C102.614 67.4267 102.841 67.1867 103.014 66.92C103.187 66.6533 103.301 66.38 103.354 66.1L103.274 66.06C103.221 66.1 103.154 66.1333 103.074 66.16C102.994 66.1867 102.874 66.2 102.714 66.2C102.554 66.2 102.387 66.1533 102.214 66.06C102.054 65.9667 101.914 65.8333 101.794 65.66C101.674 65.4733 101.614 65.2333 101.614 64.94C101.614 64.7 101.674 64.48 101.794 64.28C101.914 64.0667 102.067 63.9 102.254 63.78C102.454 63.66 102.674 63.6 102.914 63.6ZM120.083 59.54C120.083 58.7933 119.883 58.22 119.483 57.82C119.083 57.4067 118.516 57.2 117.783 57.2C117.089 57.2 116.503 57.3533 116.023 57.66C115.543 57.9533 115.189 58.4333 114.963 59.1L113.663 58.3C113.929 57.5533 114.423 56.9533 115.143 56.5C115.863 56.0333 116.756 55.8 117.823 55.8C118.543 55.8 119.196 55.9267 119.783 56.18C120.369 56.42 120.829 56.7933 121.163 57.3C121.509 57.7933 121.683 58.4333 121.683 59.22V64.06C121.683 64.54 121.936 64.78 122.443 64.78C122.696 64.78 122.943 64.7467 123.183 64.68L123.103 65.94C122.836 66.0733 122.489 66.14 122.063 66.14C121.676 66.14 121.329 66.0667 121.023 65.92C120.716 65.7733 120.476 65.5533 120.303 65.26C120.129 64.9533 120.043 64.5733 120.043 64.12V63.92L120.443 63.98C120.283 64.5 120.009 64.9267 119.623 65.26C119.236 65.58 118.803 65.82 118.323 65.98C117.843 66.1267 117.369 66.2 116.903 66.2C116.316 66.2 115.769 66.1 115.263 65.9C114.756 65.7 114.349 65.4 114.043 65C113.749 64.5867 113.603 64.08 113.603 63.48C113.603 62.7333 113.849 62.12 114.343 61.64C114.849 61.1467 115.549 60.8133 116.443 60.64L120.403 59.86V61.18L117.183 61.84C116.529 61.9733 116.043 62.16 115.723 62.4C115.403 62.64 115.243 62.9733 115.243 63.4C115.243 63.8133 115.403 64.1533 115.723 64.42C116.056 64.6733 116.523 64.8 117.123 64.8C117.509 64.8 117.876 64.7533 118.223 64.66C118.583 64.5533 118.903 64.4 119.183 64.2C119.463 63.9867 119.683 63.7267 119.843 63.42C120.003 63.1 120.083 62.7267 120.083 62.3V59.54ZM135.819 66.2C134.992 66.2 134.232 65.9933 133.539 65.58C132.845 65.1667 132.292 64.5733 131.879 63.8C131.465 63.0133 131.259 62.08 131.259 61C131.259 59.8933 131.479 58.9533 131.919 58.18C132.359 57.4067 132.939 56.82 133.659 56.42C134.379 56.0067 135.152 55.8 135.979 55.8C136.805 55.8 137.519 56.0133 138.119 56.44C138.732 56.8667 139.139 57.4333 139.339 58.14L139.139 58.28V51.4H140.739V66H139.339L139.199 63.58L139.419 63.46C139.325 64.0467 139.099 64.5467 138.739 64.96C138.392 65.36 137.959 65.6667 137.439 65.88C136.932 66.0933 136.392 66.2 135.819 66.2ZM135.979 64.8C136.619 64.8 137.172 64.64 137.639 64.32C138.119 64 138.485 63.5467 138.739 62.96C139.005 62.36 139.139 61.66 139.139 60.86C139.139 60.1 139.005 59.4467 138.739 58.9C138.485 58.3533 138.125 57.9333 137.659 57.64C137.205 57.3467 136.672 57.2 136.059 57.2C135.045 57.2 134.259 57.5467 133.699 58.24C133.139 58.9333 132.859 59.8533 132.859 61C132.859 62.1467 133.132 63.0667 133.679 63.76C134.225 64.4533 134.992 64.8 135.979 64.8ZM148.638 66.2C147.691 66.2 146.844 65.9933 146.098 65.58C145.364 65.1667 144.791 64.5733 144.378 63.8C143.964 63.0133 143.758 62.08 143.758 61C143.758 59.92 143.964 58.9933 144.378 58.22C144.791 57.4333 145.358 56.8333 146.078 56.42C146.798 56.0067 147.618 55.8 148.538 55.8C149.471 55.8 150.264 56 150.918 56.4C151.584 56.8 152.091 57.3467 152.438 58.04C152.784 58.72 152.958 59.4867 152.958 60.34C152.958 60.5667 152.951 60.7733 152.938 60.96C152.924 61.1467 152.904 61.3133 152.878 61.46H144.798V60.04H152.178L151.358 60.2C151.358 59.24 151.091 58.5 150.558 57.98C150.038 57.46 149.351 57.2 148.498 57.2C147.844 57.2 147.278 57.3533 146.798 57.66C146.331 57.9533 145.964 58.3867 145.698 58.96C145.444 59.52 145.318 60.2 145.318 61C145.318 61.7867 145.451 62.4667 145.718 63.04C145.984 63.6133 146.358 64.0533 146.838 64.36C147.331 64.6533 147.918 64.8 148.598 64.8C149.331 64.8 149.924 64.66 150.378 64.38C150.844 64.1 151.218 63.72 151.498 63.24L152.758 63.98C152.504 64.4333 152.178 64.8267 151.778 65.16C151.391 65.4933 150.931 65.7533 150.398 65.94C149.878 66.1133 149.291 66.2 148.638 66.2ZM158.068 53.16V63.24C158.068 63.7333 158.208 64.1 158.488 64.34C158.768 64.58 159.128 64.7 159.568 64.7C159.954 64.7 160.288 64.6333 160.568 64.5C160.848 64.3667 161.101 64.1867 161.328 63.96L161.888 65.3C161.581 65.58 161.214 65.8 160.788 65.96C160.374 66.12 159.894 66.2 159.348 66.2C158.841 66.2 158.368 66.1133 157.928 65.94C157.488 65.7533 157.134 65.4667 156.868 65.08C156.614 64.68 156.481 64.16 156.468 63.52V53.6L158.068 53.16ZM161.708 56V57.38H154.468V56H161.708ZM169.927 59.54C169.927 58.7933 169.727 58.22 169.327 57.82C168.927 57.4067 168.36 57.2 167.627 57.2C166.933 57.2 166.347 57.3533 165.867 57.66C165.387 57.9533 165.033 58.4333 164.807 59.1L163.507 58.3C163.773 57.5533 164.267 56.9533 164.987 56.5C165.707 56.0333 166.6 55.8 167.667 55.8C168.387 55.8 169.04 55.9267 169.627 56.18C170.213 56.42 170.673 56.7933 171.007 57.3C171.353 57.7933 171.527 58.4333 171.527 59.22V64.06C171.527 64.54 171.78 64.78 172.287 64.78C172.54 64.78 172.787 64.7467 173.027 64.68L172.947 65.94C172.68 66.0733 172.333 66.14 171.907 66.14C171.52 66.14 171.173 66.0667 170.867 65.92C170.56 65.7733 170.32 65.5533 170.147 65.26C169.973 64.9533 169.887 64.5733 169.887 64.12V63.92L170.287 63.98C170.127 64.5 169.853 64.9267 169.467 65.26C169.08 65.58 168.647 65.82 168.167 65.98C167.687 66.1267 167.213 66.2 166.747 66.2C166.16 66.2 165.613 66.1 165.107 65.9C164.6 65.7 164.193 65.4 163.887 65C163.593 64.5867 163.447 64.08 163.447 63.48C163.447 62.7333 163.693 62.12 164.187 61.64C164.693 61.1467 165.393 60.8133 166.287 60.64L170.247 59.86V61.18L167.027 61.84C166.373 61.9733 165.887 62.16 165.567 62.4C165.247 62.64 165.087 62.9733 165.087 63.4C165.087 63.8133 165.247 64.1533 165.567 64.42C165.9 64.6733 166.367 64.8 166.967 64.8C167.353 64.8 167.72 64.7533 168.067 64.66C168.427 64.5533 168.747 64.4 169.027 64.2C169.307 63.9867 169.527 63.7267 169.687 63.42C169.847 63.1 169.927 62.7267 169.927 62.3V59.54ZM176.215 54.08C175.855 54.08 175.561 53.9733 175.335 53.76C175.121 53.5333 175.015 53.24 175.015 52.88C175.015 52.52 175.121 52.2333 175.335 52.02C175.561 51.7933 175.855 51.68 176.215 51.68C176.575 51.68 176.861 51.7933 177.075 52.02C177.301 52.2333 177.415 52.52 177.415 52.88C177.415 53.24 177.301 53.5333 177.075 53.76C176.861 53.9733 176.575 54.08 176.215 54.08ZM177.015 56V66H175.415V56H177.015ZM182.247 51.4V63.46C182.247 63.9667 182.341 64.32 182.527 64.52C182.714 64.7067 183.014 64.8 183.427 64.8C183.694 64.8 183.914 64.78 184.087 64.74C184.261 64.7 184.494 64.6267 184.787 64.52L184.527 65.92C184.314 66.0133 184.081 66.08 183.827 66.12C183.574 66.1733 183.314 66.2 183.047 66.2C182.234 66.2 181.627 65.98 181.227 65.54C180.841 65.1 180.647 64.4267 180.647 63.52V51.4H182.247ZM194.923 53.16V63.24C194.923 63.7333 195.063 64.1 195.343 64.34C195.623 64.58 195.983 64.7 196.423 64.7C196.81 64.7 197.143 64.6333 197.423 64.5C197.703 64.3667 197.956 64.1867 198.183 63.96L198.743 65.3C198.436 65.58 198.07 65.8 197.643 65.96C197.23 66.12 196.75 66.2 196.203 66.2C195.696 66.2 195.223 66.1133 194.783 65.94C194.343 65.7533 193.99 65.4667 193.723 65.08C193.47 64.68 193.336 64.16 193.323 63.52V53.6L194.923 53.16ZM198.563 56V57.38H191.323V56H198.563ZM200.942 66V51.4H202.542V57.5C202.889 56.9 203.349 56.4667 203.922 56.2C204.495 55.9333 205.122 55.8 205.802 55.8C206.522 55.8 207.175 55.94 207.762 56.22C208.349 56.4867 208.815 56.9 209.162 57.46C209.522 58.02 209.702 58.7333 209.702 59.6V66H208.102V60.16C208.102 59.0533 207.862 58.2867 207.382 57.86C206.915 57.42 206.335 57.2 205.642 57.2C205.162 57.2 204.682 57.3133 204.202 57.54C203.722 57.7667 203.322 58.14 203.002 58.66C202.695 59.1667 202.542 59.8467 202.542 60.7V66H200.942ZM219.165 59.54C219.165 58.7933 218.965 58.22 218.565 57.82C218.165 57.4067 217.598 57.2 216.865 57.2C216.172 57.2 215.585 57.3533 215.105 57.66C214.625 57.9533 214.272 58.4333 214.045 59.1L212.745 58.3C213.012 57.5533 213.505 56.9533 214.225 56.5C214.945 56.0333 215.838 55.8 216.905 55.8C217.625 55.8 218.278 55.9267 218.865 56.18C219.452 56.42 219.912 56.7933 220.245 57.3C220.592 57.7933 220.765 58.4333 220.765 59.22V64.06C220.765 64.54 221.018 64.78 221.525 64.78C221.778 64.78 222.025 64.7467 222.265 64.68L222.185 65.94C221.918 66.0733 221.572 66.14 221.145 66.14C220.758 66.14 220.412 66.0667 220.105 65.92C219.798 65.7733 219.558 65.5533 219.385 65.26C219.212 64.9533 219.125 64.5733 219.125 64.12V63.92L219.525 63.98C219.365 64.5 219.092 64.9267 218.705 65.26C218.318 65.58 217.885 65.82 217.405 65.98C216.925 66.1267 216.452 66.2 215.985 66.2C215.398 66.2 214.852 66.1 214.345 65.9C213.838 65.7 213.432 65.4 213.125 65C212.832 64.5867 212.685 64.08 212.685 63.48C212.685 62.7333 212.932 62.12 213.425 61.64C213.932 61.1467 214.632 60.8133 215.525 60.64L219.485 59.86V61.18L216.265 61.84C215.612 61.9733 215.125 62.16 214.805 62.4C214.485 62.64 214.325 62.9733 214.325 63.4C214.325 63.8133 214.485 64.1533 214.805 64.42C215.138 64.6733 215.605 64.8 216.205 64.8C216.592 64.8 216.958 64.7533 217.305 64.66C217.665 64.5533 217.985 64.4 218.265 64.2C218.545 63.9867 218.765 63.7267 218.925 63.42C219.085 63.1 219.165 62.7267 219.165 62.3V59.54ZM226.622 53.16V63.24C226.622 63.7333 226.762 64.1 227.042 64.34C227.322 64.58 227.682 64.7 228.122 64.7C228.509 64.7 228.842 64.6333 229.122 64.5C229.402 64.3667 229.656 64.1867 229.882 63.96L230.442 65.3C230.136 65.58 229.769 65.8 229.342 65.96C228.929 66.12 228.449 66.2 227.902 66.2C227.396 66.2 226.922 66.1133 226.482 65.94C226.042 65.7533 225.689 65.4667 225.422 65.08C225.169 64.68 225.036 64.16 225.022 63.52V53.6L226.622 53.16ZM230.262 56V57.38H223.022V56H230.262ZM245.298 59.54C245.298 58.7933 245.098 58.22 244.698 57.82C244.298 57.4067 243.731 57.2 242.998 57.2C242.304 57.2 241.718 57.3533 241.238 57.66C240.758 57.9533 240.404 58.4333 240.178 59.1L238.878 58.3C239.144 57.5533 239.638 56.9533 240.358 56.5C241.078 56.0333 241.971 55.8 243.038 55.8C243.758 55.8 244.411 55.9267 244.998 56.18C245.584 56.42 246.044 56.7933 246.378 57.3C246.724 57.7933 246.898 58.4333 246.898 59.22V64.06C246.898 64.54 247.151 64.78 247.658 64.78C247.911 64.78 248.158 64.7467 248.398 64.68L248.318 65.94C248.051 66.0733 247.704 66.14 247.278 66.14C246.891 66.14 246.544 66.0667 246.238 65.92C245.931 65.7733 245.691 65.5533 245.518 65.26C245.344 64.9533 245.258 64.5733 245.258 64.12V63.92L245.658 63.98C245.498 64.5 245.224 64.9267 244.838 65.26C244.451 65.58 244.018 65.82 243.538 65.98C243.058 66.1267 242.584 66.2 242.118 66.2C241.531 66.2 240.984 66.1 240.478 65.9C239.971 65.7 239.564 65.4 239.258 65C238.964 64.5867 238.818 64.08 238.818 63.48C238.818 62.7333 239.064 62.12 239.558 61.64C240.064 61.1467 240.764 60.8133 241.658 60.64L245.618 59.86V61.18L242.398 61.84C241.744 61.9733 241.258 62.16 240.938 62.4C240.618 62.64 240.458 62.9733 240.458 63.4C240.458 63.8133 240.618 64.1533 240.938 64.42C241.271 64.6733 241.738 64.8 242.338 64.8C242.724 64.8 243.091 64.7533 243.438 64.66C243.798 64.5533 244.118 64.4 244.398 64.2C244.678 63.9867 244.898 63.7267 245.058 63.42C245.218 63.1 245.298 62.7267 245.298 62.3V59.54ZM252.306 51.4V63.46C252.306 63.9667 252.399 64.32 252.586 64.52C252.772 64.7067 253.072 64.8 253.486 64.8C253.752 64.8 253.972 64.78 254.146 64.74C254.319 64.7 254.552 64.6267 254.846 64.52L254.586 65.92C254.372 66.0133 254.139 66.08 253.886 66.12C253.632 66.1733 253.372 66.2 253.106 66.2C252.292 66.2 251.686 65.98 251.286 65.54C250.899 65.1 250.706 64.4267 250.706 63.52V51.4H252.306ZM260.499 66.2C259.526 66.2 258.626 65.9933 257.799 65.58C256.986 65.1667 256.359 64.58 255.919 63.82L257.279 62.84C257.572 63.4533 257.999 63.9333 258.559 64.28C259.132 64.6267 259.819 64.8 260.619 64.8C261.326 64.8 261.879 64.6667 262.279 64.4C262.679 64.12 262.879 63.76 262.879 63.32C262.879 63.04 262.786 62.7867 262.599 62.56C262.426 62.32 262.086 62.1467 261.579 62.04L259.179 61.54C258.206 61.34 257.506 61.0067 257.079 60.54C256.666 60.0733 256.459 59.4933 256.459 58.8C256.459 58.2533 256.612 57.7533 256.919 57.3C257.239 56.8467 257.686 56.4867 258.259 56.22C258.846 55.94 259.532 55.8 260.319 55.8C261.306 55.8 262.139 55.9933 262.819 56.38C263.499 56.7667 264.006 57.3133 264.339 58.02L262.999 58.9C262.772 58.3133 262.406 57.8867 261.899 57.62C261.392 57.34 260.866 57.2 260.319 57.2C259.839 57.2 259.426 57.2667 259.079 57.4C258.746 57.5333 258.486 57.72 258.299 57.96C258.126 58.1867 258.039 58.4467 258.039 58.74C258.039 59.0333 258.139 59.3067 258.339 59.56C258.539 59.8 258.912 59.9733 259.459 60.08L261.959 60.6C262.892 60.7867 263.546 61.0933 263.919 61.52C264.292 61.9467 264.479 62.4667 264.479 63.08C264.479 63.7067 264.312 64.26 263.979 64.74C263.646 65.2067 263.179 65.5667 262.579 65.82C261.979 66.0733 261.286 66.2 260.499 66.2ZM271.586 55.8C272.533 55.8 273.366 56.0067 274.086 56.42C274.819 56.8333 275.393 57.4333 275.806 58.22C276.219 58.9933 276.426 59.92 276.426 61C276.426 62.08 276.219 63.0133 275.806 63.8C275.393 64.5733 274.819 65.1667 274.086 65.58C273.366 65.9933 272.533 66.2 271.586 66.2C270.653 66.2 269.819 65.9933 269.086 65.58C268.353 65.1667 267.779 64.5733 267.366 63.8C266.953 63.0133 266.746 62.08 266.746 61C266.746 59.92 266.953 58.9933 267.366 58.22C267.779 57.4333 268.353 56.8333 269.086 56.42C269.819 56.0067 270.653 55.8 271.586 55.8ZM271.586 57.18C270.906 57.18 270.326 57.3333 269.846 57.64C269.366 57.9467 268.993 58.3867 268.726 58.96C268.473 59.52 268.346 60.2 268.346 61C268.346 61.7867 268.473 62.4667 268.726 63.04C268.993 63.6133 269.366 64.0533 269.846 64.36C270.326 64.6667 270.906 64.82 271.586 64.82C272.266 64.82 272.846 64.6667 273.326 64.36C273.806 64.0533 274.173 63.6133 274.426 63.04C274.693 62.4667 274.826 61.7867 274.826 61C274.826 60.2 274.693 59.52 274.426 58.96C274.173 58.3867 273.806 57.9467 273.326 57.64C272.846 57.3333 272.266 57.18 271.586 57.18ZM292.095 59.54C292.095 58.7933 291.895 58.22 291.495 57.82C291.095 57.4067 290.528 57.2 289.795 57.2C289.101 57.2 288.515 57.3533 288.035 57.66C287.555 57.9533 287.201 58.4333 286.975 59.1L285.675 58.3C285.941 57.5533 286.435 56.9533 287.155 56.5C287.875 56.0333 288.768 55.8 289.835 55.8C290.555 55.8 291.208 55.9267 291.795 56.18C292.381 56.42 292.841 56.7933 293.175 57.3C293.521 57.7933 293.695 58.4333 293.695 59.22V64.06C293.695 64.54 293.948 64.78 294.455 64.78C294.708 64.78 294.955 64.7467 295.195 64.68L295.115 65.94C294.848 66.0733 294.501 66.14 294.075 66.14C293.688 66.14 293.341 66.0667 293.035 65.92C292.728 65.7733 292.488 65.5533 292.315 65.26C292.141 64.9533 292.055 64.5733 292.055 64.12V63.92L292.455 63.98C292.295 64.5 292.021 64.9267 291.635 65.26C291.248 65.58 290.815 65.82 290.335 65.98C289.855 66.1267 289.381 66.2 288.915 66.2C288.328 66.2 287.781 66.1 287.275 65.9C286.768 65.7 286.361 65.4 286.055 65C285.761 64.5867 285.615 64.08 285.615 63.48C285.615 62.7333 285.861 62.12 286.355 61.64C286.861 61.1467 287.561 60.8133 288.455 60.64L292.415 59.86V61.18L289.195 61.84C288.541 61.9733 288.055 62.16 287.735 62.4C287.415 62.64 287.255 62.9733 287.255 63.4C287.255 63.8133 287.415 64.1533 287.735 64.42C288.068 64.6733 288.535 64.8 289.135 64.8C289.521 64.8 289.888 64.7533 290.235 64.66C290.595 64.5533 290.915 64.4 291.195 64.2C291.475 63.9867 291.695 63.7267 291.855 63.42C292.015 63.1 292.095 62.7267 292.095 62.3V59.54ZM297.583 70.2V56H298.983L299.123 58.44L298.903 58.16C299.076 57.6933 299.336 57.2867 299.683 56.94C300.029 56.58 300.449 56.3 300.943 56.1C301.436 55.9 301.969 55.8 302.543 55.8C303.356 55.8 304.103 56.0067 304.783 56.42C305.476 56.8333 306.029 57.4267 306.443 58.2C306.856 58.9733 307.063 59.9067 307.063 61C307.063 62.08 306.849 63.0133 306.423 63.8C306.009 64.5733 305.456 65.1667 304.763 65.58C304.069 65.9933 303.309 66.2 302.483 66.2C301.656 66.2 300.929 66 300.303 65.6C299.689 65.1867 299.249 64.6667 298.983 64.04L299.183 63.74V70.2H297.583ZM302.323 64.8C303.309 64.8 304.076 64.4533 304.623 63.76C305.183 63.0667 305.463 62.1467 305.463 61C305.463 59.8533 305.189 58.9333 304.643 58.24C304.109 57.5467 303.356 57.2 302.383 57.2C301.743 57.2 301.183 57.36 300.703 57.68C300.223 57.9867 299.849 58.4267 299.583 59C299.316 59.56 299.183 60.2267 299.183 61C299.183 61.76 299.309 62.4267 299.563 63C299.829 63.5733 300.196 64.02 300.663 64.34C301.143 64.6467 301.696 64.8 302.323 64.8ZM310.122 70.2V56H311.522L311.662 58.44L311.442 58.16C311.615 57.6933 311.875 57.2867 312.222 56.94C312.568 56.58 312.988 56.3 313.482 56.1C313.975 55.9 314.508 55.8 315.082 55.8C315.895 55.8 316.642 56.0067 317.322 56.42C318.015 56.8333 318.568 57.4267 318.982 58.2C319.395 58.9733 319.602 59.9067 319.602 61C319.602 62.08 319.388 63.0133 318.962 63.8C318.548 64.5733 317.995 65.1667 317.302 65.58C316.608 65.9933 315.848 66.2 315.022 66.2C314.195 66.2 313.468 66 312.842 65.6C312.228 65.1867 311.788 64.6667 311.522 64.04L311.722 63.74V70.2H310.122ZM314.862 64.8C315.848 64.8 316.615 64.4533 317.162 63.76C317.722 63.0667 318.002 62.1467 318.002 61C318.002 59.8533 317.728 58.9333 317.182 58.24C316.648 57.5467 315.895 57.2 314.922 57.2C314.282 57.2 313.722 57.36 313.242 57.68C312.762 57.9867 312.388 58.4267 312.122 59C311.855 59.56 311.722 60.2267 311.722 61C311.722 61.76 311.848 62.4267 312.102 63C312.368 63.5733 312.735 64.02 313.202 64.34C313.682 64.6467 314.235 64.8 314.862 64.8ZM326.841 66.2C325.894 66.2 325.047 65.9933 324.301 65.58C323.567 65.1667 322.994 64.5733 322.581 63.8C322.167 63.0133 321.961 62.08 321.961 61C321.961 59.92 322.167 58.9933 322.581 58.22C322.994 57.4333 323.561 56.8333 324.281 56.42C325.001 56.0067 325.821 55.8 326.741 55.8C327.674 55.8 328.467 56 329.121 56.4C329.787 56.8 330.294 57.3467 330.641 58.04C330.987 58.72 331.161 59.4867 331.161 60.34C331.161 60.5667 331.154 60.7733 331.141 60.96C331.127 61.1467 331.107 61.3133 331.081 61.46H323.001V60.04H330.381L329.561 60.2C329.561 59.24 329.294 58.5 328.761 57.98C328.241 57.46 327.554 57.2 326.701 57.2C326.047 57.2 325.481 57.3533 325.001 57.66C324.534 57.9533 324.167 58.3867 323.901 58.96C323.647 59.52 323.521 60.2 323.521 61C323.521 61.7867 323.654 62.4667 323.921 63.04C324.187 63.6133 324.561 64.0533 325.041 64.36C325.534 64.6533 326.121 64.8 326.801 64.8C327.534 64.8 328.127 64.66 328.581 64.38C329.047 64.1 329.421 63.72 329.701 63.24L330.961 63.98C330.707 64.4333 330.381 64.8267 329.981 65.16C329.594 65.4933 329.134 65.7533 328.601 65.94C328.081 66.1133 327.494 66.2 326.841 66.2ZM340.044 59.54C340.044 58.7933 339.844 58.22 339.444 57.82C339.044 57.4067 338.477 57.2 337.744 57.2C337.05 57.2 336.464 57.3533 335.984 57.66C335.504 57.9533 335.15 58.4333 334.924 59.1L333.624 58.3C333.89 57.5533 334.384 56.9533 335.104 56.5C335.824 56.0333 336.717 55.8 337.784 55.8C338.504 55.8 339.157 55.9267 339.744 56.18C340.33 56.42 340.79 56.7933 341.124 57.3C341.47 57.7933 341.644 58.4333 341.644 59.22V64.06C341.644 64.54 341.897 64.78 342.404 64.78C342.657 64.78 342.904 64.7467 343.144 64.68L343.064 65.94C342.797 66.0733 342.45 66.14 342.024 66.14C341.637 66.14 341.29 66.0667 340.984 65.92C340.677 65.7733 340.437 65.5533 340.264 65.26C340.09 64.9533 340.004 64.5733 340.004 64.12V63.92L340.404 63.98C340.244 64.5 339.97 64.9267 339.584 65.26C339.197 65.58 338.764 65.82 338.284 65.98C337.804 66.1267 337.33 66.2 336.864 66.2C336.277 66.2 335.73 66.1 335.224 65.9C334.717 65.7 334.31 65.4 334.004 65C333.71 64.5867 333.564 64.08 333.564 63.48C333.564 62.7333 333.81 62.12 334.304 61.64C334.81 61.1467 335.51 60.8133 336.404 60.64L340.364 59.86V61.18L337.144 61.84C336.49 61.9733 336.004 62.16 335.684 62.4C335.364 62.64 335.204 62.9733 335.204 63.4C335.204 63.8133 335.364 64.1533 335.684 64.42C336.017 64.6733 336.484 64.8 337.084 64.8C337.47 64.8 337.837 64.7533 338.184 64.66C338.544 64.5533 338.864 64.4 339.144 64.2C339.424 63.9867 339.644 63.7267 339.804 63.42C339.964 63.1 340.044 62.7267 340.044 62.3V59.54ZM345.532 66V56H346.832L347.052 57.64C347.332 57.0267 347.739 56.5667 348.272 56.26C348.819 55.9533 349.479 55.8 350.252 55.8C350.425 55.8 350.612 55.8133 350.812 55.84C351.025 55.8667 351.205 55.92 351.352 56L351.072 57.46C350.925 57.4067 350.765 57.3667 350.592 57.34C350.419 57.3133 350.172 57.3 349.852 57.3C349.439 57.3 349.019 57.42 348.592 57.66C348.179 57.9 347.832 58.2667 347.552 58.76C347.272 59.24 347.132 59.8533 347.132 60.6V66H345.532ZM356.866 66.2C355.893 66.2 354.993 65.9933 354.166 65.58C353.353 65.1667 352.726 64.58 352.286 63.82L353.646 62.84C353.94 63.4533 354.366 63.9333 354.926 64.28C355.5 64.6267 356.186 64.8 356.986 64.8C357.693 64.8 358.246 64.6667 358.646 64.4C359.046 64.12 359.246 63.76 359.246 63.32C359.246 63.04 359.153 62.7867 358.966 62.56C358.793 62.32 358.453 62.1467 357.946 62.04L355.546 61.54C354.573 61.34 353.873 61.0067 353.446 60.54C353.033 60.0733 352.826 59.4933 352.826 58.8C352.826 58.2533 352.98 57.7533 353.286 57.3C353.606 56.8467 354.053 56.4867 354.626 56.22C355.213 55.94 355.9 55.8 356.686 55.8C357.673 55.8 358.506 55.9933 359.186 56.38C359.866 56.7667 360.373 57.3133 360.706 58.02L359.366 58.9C359.14 58.3133 358.773 57.8867 358.266 57.62C357.76 57.34 357.233 57.2 356.686 57.2C356.206 57.2 355.793 57.2667 355.446 57.4C355.113 57.5333 354.853 57.72 354.666 57.96C354.493 58.1867 354.406 58.4467 354.406 58.74C354.406 59.0333 354.506 59.3067 354.706 59.56C354.906 59.8 355.28 59.9733 355.826 60.08L358.326 60.6C359.26 60.7867 359.913 61.0933 360.286 61.52C360.66 61.9467 360.846 62.4667 360.846 63.08C360.846 63.7067 360.68 64.26 360.346 64.74C360.013 65.2067 359.546 65.5667 358.946 65.82C358.346 66.0733 357.653 66.2 356.866 66.2ZM372.15 51.4V63.46C372.15 63.9667 372.243 64.32 372.43 64.52C372.616 64.7067 372.916 64.8 373.33 64.8C373.596 64.8 373.816 64.78 373.99 64.74C374.163 64.7 374.396 64.6267 374.69 64.52L374.43 65.92C374.216 66.0133 373.983 66.08 373.73 66.12C373.476 66.1733 373.216 66.2 372.95 66.2C372.136 66.2 371.53 65.98 371.13 65.54C370.743 65.1 370.55 64.4267 370.55 63.52V51.4H372.15ZM382.583 59.54C382.583 58.7933 382.383 58.22 381.983 57.82C381.583 57.4067 381.016 57.2 380.283 57.2C379.589 57.2 379.003 57.3533 378.523 57.66C378.043 57.9533 377.689 58.4333 377.463 59.1L376.163 58.3C376.429 57.5533 376.923 56.9533 377.643 56.5C378.363 56.0333 379.256 55.8 380.323 55.8C381.043 55.8 381.696 55.9267 382.283 56.18C382.869 56.42 383.329 56.7933 383.663 57.3C384.009 57.7933 384.183 58.4333 384.183 59.22V64.06C384.183 64.54 384.436 64.78 384.943 64.78C385.196 64.78 385.443 64.7467 385.683 64.68L385.603 65.94C385.336 66.0733 384.989 66.14 384.563 66.14C384.176 66.14 383.829 66.0667 383.523 65.92C383.216 65.7733 382.976 65.5533 382.803 65.26C382.629 64.9533 382.543 64.5733 382.543 64.12V63.92L382.943 63.98C382.783 64.5 382.509 64.9267 382.123 65.26C381.736 65.58 381.303 65.82 380.823 65.98C380.343 66.1267 379.869 66.2 379.403 66.2C378.816 66.2 378.269 66.1 377.763 65.9C377.256 65.7 376.849 65.4 376.543 65C376.249 64.5867 376.103 64.08 376.103 63.48C376.103 62.7333 376.349 62.12 376.843 61.64C377.349 61.1467 378.049 60.8133 378.943 60.64L382.903 59.86V61.18L379.683 61.84C379.029 61.9733 378.543 62.16 378.223 62.4C377.903 62.64 377.743 62.9733 377.743 63.4C377.743 63.8133 377.903 64.1533 378.223 64.42C378.556 64.6733 379.023 64.8 379.623 64.8C380.009 64.8 380.376 64.7533 380.723 64.66C381.083 64.5533 381.403 64.4 381.683 64.2C381.963 63.9867 382.183 63.7267 382.343 63.42C382.503 63.1 382.583 62.7267 382.583 62.3V59.54ZM390.04 53.16V63.24C390.04 63.7333 390.18 64.1 390.46 64.34C390.74 64.58 391.1 64.7 391.54 64.7C391.927 64.7 392.26 64.6333 392.54 64.5C392.82 64.3667 393.074 64.1867 393.3 63.96L393.86 65.3C393.554 65.58 393.187 65.8 392.76 65.96C392.347 66.12 391.867 66.2 391.32 66.2C390.814 66.2 390.34 66.1133 389.9 65.94C389.46 65.7533 389.107 65.4667 388.84 65.08C388.587 64.68 388.454 64.16 388.44 63.52V53.6L390.04 53.16ZM393.68 56V57.38H386.44V56H393.68ZM400.239 66.2C399.293 66.2 398.446 65.9933 397.699 65.58C396.966 65.1667 396.393 64.5733 395.979 63.8C395.566 63.0133 395.359 62.08 395.359 61C395.359 59.92 395.566 58.9933 395.979 58.22C396.393 57.4333 396.959 56.8333 397.679 56.42C398.399 56.0067 399.219 55.8 400.139 55.8C401.073 55.8 401.866 56 402.519 56.4C403.186 56.8 403.693 57.3467 404.039 58.04C404.386 58.72 404.559 59.4867 404.559 60.34C404.559 60.5667 404.553 60.7733 404.539 60.96C404.526 61.1467 404.506 61.3133 404.479 61.46H396.399V60.04H403.779L402.959 60.2C402.959 59.24 402.693 58.5 402.159 57.98C401.639 57.46 400.953 57.2 400.099 57.2C399.446 57.2 398.879 57.3533 398.399 57.66C397.933 57.9533 397.566 58.3867 397.299 58.96C397.046 59.52 396.919 60.2 396.919 61C396.919 61.7867 397.053 62.4667 397.319 63.04C397.586 63.6133 397.959 64.0533 398.439 64.36C398.933 64.6533 399.519 64.8 400.199 64.8C400.933 64.8 401.526 64.66 401.979 64.38C402.446 64.1 402.819 63.72 403.099 63.24L404.359 63.98C404.106 64.4333 403.779 64.8267 403.379 65.16C402.993 65.4933 402.533 65.7533 401.999 65.94C401.479 66.1133 400.893 66.2 400.239 66.2ZM407.602 66V56H408.902L409.122 57.64C409.402 57.0267 409.809 56.5667 410.342 56.26C410.889 55.9533 411.549 55.8 412.322 55.8C412.496 55.8 412.682 55.8133 412.882 55.84C413.096 55.8667 413.276 55.92 413.422 56L413.142 57.46C412.996 57.4067 412.836 57.3667 412.662 57.34C412.489 57.3133 412.242 57.3 411.922 57.3C411.509 57.3 411.089 57.42 410.662 57.66C410.249 57.9 409.902 58.2667 409.622 58.76C409.342 59.24 409.202 59.8533 409.202 60.6V66H407.602ZM422.914 54.08C422.554 54.08 422.261 53.9733 422.034 53.76C421.821 53.5333 421.714 53.24 421.714 52.88C421.714 52.52 421.821 52.2333 422.034 52.02C422.261 51.7933 422.554 51.68 422.914 51.68C423.274 51.68 423.561 51.7933 423.774 52.02C424.001 52.2333 424.114 52.52 424.114 52.88C424.114 53.24 424.001 53.5333 423.774 53.76C423.561 53.9733 423.274 54.08 422.914 54.08ZM423.714 56V66H422.114V56H423.714ZM427.426 66V56H428.826L428.966 58.24L428.706 58.02C428.92 57.4867 429.206 57.06 429.566 56.74C429.926 56.4067 430.34 56.1667 430.806 56.02C431.286 55.8733 431.78 55.8 432.286 55.8C433.006 55.8 433.66 55.94 434.246 56.22C434.833 56.4867 435.3 56.9 435.646 57.46C436.006 58.02 436.186 58.7333 436.186 59.6V66H434.586V60.16C434.586 59.0533 434.346 58.2867 433.866 57.86C433.4 57.42 432.82 57.2 432.126 57.2C431.646 57.2 431.166 57.3133 430.686 57.54C430.206 57.7667 429.806 58.1333 429.486 58.64C429.18 59.1467 429.026 59.8267 429.026 60.68V66H427.426ZM448.595 53.16V63.24C448.595 63.7333 448.735 64.1 449.015 64.34C449.295 64.58 449.655 64.7 450.095 64.7C450.482 64.7 450.815 64.6333 451.095 64.5C451.375 64.3667 451.628 64.1867 451.855 63.96L452.415 65.3C452.108 65.58 451.742 65.8 451.315 65.96C450.902 66.12 450.422 66.2 449.875 66.2C449.368 66.2 448.895 66.1133 448.455 65.94C448.015 65.7533 447.662 65.4667 447.395 65.08C447.142 64.68 447.008 64.16 446.995 63.52V53.6L448.595 53.16ZM452.235 56V57.38H444.995V56H452.235ZM454.614 66V51.4H456.214V57.5C456.561 56.9 457.021 56.4667 457.594 56.2C458.167 55.9333 458.794 55.8 459.474 55.8C460.194 55.8 460.847 55.94 461.434 56.22C462.021 56.4867 462.487 56.9 462.834 57.46C463.194 58.02 463.374 58.7333 463.374 59.6V66H461.774V60.16C461.774 59.0533 461.534 58.2867 461.054 57.86C460.587 57.42 460.007 57.2 459.314 57.2C458.834 57.2 458.354 57.3133 457.874 57.54C457.394 57.7667 456.994 58.14 456.674 58.66C456.367 59.1667 456.214 59.8467 456.214 60.7V66H454.614ZM471.177 66.2C470.23 66.2 469.383 65.9933 468.637 65.58C467.903 65.1667 467.33 64.5733 466.917 63.8C466.503 63.0133 466.297 62.08 466.297 61C466.297 59.92 466.503 58.9933 466.917 58.22C467.33 57.4333 467.897 56.8333 468.617 56.42C469.337 56.0067 470.157 55.8 471.077 55.8C472.01 55.8 472.803 56 473.457 56.4C474.123 56.8 474.63 57.3467 474.977 58.04C475.323 58.72 475.497 59.4867 475.497 60.34C475.497 60.5667 475.49 60.7733 475.477 60.96C475.463 61.1467 475.443 61.3133 475.417 61.46H467.337V60.04H474.717L473.897 60.2C473.897 59.24 473.63 58.5 473.097 57.98C472.577 57.46 471.89 57.2 471.037 57.2C470.383 57.2 469.817 57.3533 469.337 57.66C468.87 57.9533 468.503 58.3867 468.237 58.96C467.983 59.52 467.857 60.2 467.857 61C467.857 61.7867 467.99 62.4667 468.257 63.04C468.523 63.6133 468.897 64.0533 469.377 64.36C469.87 64.6533 470.457 64.8 471.137 64.8C471.87 64.8 472.463 64.66 472.917 64.38C473.383 64.1 473.757 63.72 474.037 63.24L475.297 63.98C475.043 64.4333 474.717 64.8267 474.317 65.16C473.93 65.4933 473.47 65.7533 472.937 65.94C472.417 66.1133 471.83 66.2 471.177 66.2ZM489.045 51.3C489.392 51.3 489.718 51.34 490.025 51.42C490.332 51.5 490.572 51.6133 490.745 51.76L490.325 53.06C490.165 52.9533 489.992 52.88 489.805 52.84C489.618 52.7867 489.412 52.76 489.185 52.76C488.612 52.76 488.165 52.9 487.845 53.18C487.525 53.4467 487.365 53.88 487.365 54.48V56V56.52V66H485.765V54.32C485.765 53.88 485.832 53.4733 485.965 53.1C486.098 52.7267 486.298 52.4067 486.565 52.14C486.845 51.8733 487.192 51.6667 487.605 51.52C488.018 51.3733 488.498 51.3 489.045 51.3ZM490.705 56V57.38H483.765V56H490.705ZM493.645 54.08C493.285 54.08 492.992 53.9733 492.765 53.76C492.552 53.5333 492.445 53.24 492.445 52.88C492.445 52.52 492.552 52.2333 492.765 52.02C492.992 51.7933 493.285 51.68 493.645 51.68C494.005 51.68 494.292 51.7933 494.505 52.02C494.732 52.2333 494.845 52.52 494.845 52.88C494.845 53.24 494.732 53.5333 494.505 53.76C494.292 53.9733 494.005 54.08 493.645 54.08ZM494.445 56V66H492.845V56H494.445ZM499.689 51.4V63.46C499.689 63.9667 499.782 64.32 499.969 64.52C500.155 64.7067 500.455 64.8 500.869 64.8C501.135 64.8 501.355 64.78 501.529 64.74C501.702 64.7 501.935 64.6267 502.229 64.52L501.969 65.92C501.755 66.0133 501.522 66.08 501.269 66.12C501.015 66.1733 500.755 66.2 500.489 66.2C499.675 66.2 499.069 65.98 498.669 65.54C498.282 65.1 498.089 64.4267 498.089 63.52V51.4H499.689ZM504.282 66V56H505.682L505.782 57.56C506.142 56.9467 506.609 56.5 507.182 56.22C507.769 55.94 508.369 55.8 508.982 55.8C509.689 55.8 510.355 55.96 510.982 56.28C511.609 56.6 512.089 57.0933 512.422 57.76C512.635 57.3067 512.935 56.94 513.322 56.66C513.709 56.3667 514.129 56.1533 514.582 56.02C515.049 55.8733 515.489 55.8 515.902 55.8C516.542 55.8 517.149 55.9333 517.722 56.2C518.309 56.4667 518.789 56.88 519.162 57.44C519.535 58 519.722 58.72 519.722 59.6V66H518.122V59.76C518.122 58.8533 517.895 58.2 517.442 57.8C516.989 57.4 516.429 57.2 515.762 57.2C515.242 57.2 514.755 57.3267 514.302 57.58C513.849 57.8333 513.482 58.2067 513.202 58.7C512.935 59.1933 512.802 59.8 512.802 60.52V66H511.202V59.76C511.202 58.8533 510.975 58.2 510.522 57.8C510.069 57.4 509.509 57.2 508.842 57.2C508.402 57.2 507.949 57.32 507.482 57.56C507.029 57.7867 506.649 58.1533 506.342 58.66C506.035 59.1667 505.882 59.8333 505.882 60.66V66H504.282ZM524.144 63.6C524.531 63.6 524.844 63.72 525.084 63.96C525.324 64.2 525.444 64.5133 525.444 64.9C525.444 65.2867 525.324 65.6 525.084 65.84C524.844 66.08 524.531 66.2 524.144 66.2C523.758 66.2 523.444 66.08 523.204 65.84C522.964 65.6 522.844 65.2867 522.844 64.9C522.844 64.5133 522.964 64.2 523.204 63.96C523.444 63.72 523.758 63.6 524.144 63.6Z" fill="white"/>
</svg>
