<svg width="544" height="71" viewBox="0 0 544 71" fill="none" xmlns="http://www.w3.org/2000/svg">
<path d="M14.98 14H10.22L9.62 11.48H6.06L5.44 14H0.8L5.08 0.799999H10.68L14.98 14ZM6.76 8.58H8.94L7.86 4L6.76 8.58ZM27.507 0.799999L23.047 14H17.507L13.047 0.799999H17.907L19.727 8.02L20.367 10.6L20.967 8.06L22.827 0.799999H27.507ZM28.3477 14V0.799999H39.3077V4.22H33.0077V5.86H38.0877V9.02H33.0077V10.58H39.5477V14H28.3477ZM53.7872 0.799999V14H48.7472L45.5872 8L44.8672 6.38H44.8272L44.9072 9.1V14H40.8672V0.799999H45.9072L49.0672 6.82L49.7872 8.42H49.8272L49.7472 5.7V0.799999H53.7872ZM61.3491 14.2C60.2157 14.2 59.1957 13.9533 58.2891 13.46C57.3824 12.9533 56.6691 12.2 56.1491 11.2C55.6291 10.1867 55.3691 8.93333 55.3691 7.44C55.3691 6 55.6357 4.77333 56.1691 3.76C56.7157 2.73333 57.5024 1.95333 58.5291 1.42C59.5557 0.873333 60.7824 0.6 62.2091 0.6C63.8357 0.6 65.1357 0.886666 66.1091 1.46C67.0957 2.03333 67.8491 2.95333 68.3691 4.22L64.0291 5.78C63.9357 5.15333 63.7291 4.72 63.4091 4.48C63.1024 4.22667 62.7157 4.1 62.2491 4.1C61.7424 4.1 61.3291 4.22 61.0091 4.46C60.7024 4.7 60.4757 5.06667 60.3291 5.56C60.1957 6.04 60.1291 6.65333 60.1291 7.4C60.1291 8.22667 60.2157 8.89333 60.3891 9.4C60.5757 9.90667 60.8491 10.2733 61.2091 10.5C61.5824 10.7133 62.0491 10.82 62.6091 10.82C62.8757 10.82 63.1157 10.7933 63.3291 10.74C63.5557 10.6867 63.7491 10.6067 63.9091 10.5C64.0824 10.38 64.2091 10.2333 64.2891 10.06C64.3824 9.88667 64.4291 9.68 64.4291 9.44V9.42H62.2091V6.56H68.3291V14H65.2491L64.8691 10.46L65.5891 11.24C65.3624 12.1867 64.8891 12.92 64.1691 13.44C63.4624 13.9467 62.5224 14.2 61.3491 14.2ZM70.2227 14V0.799999H81.1827V4.22H74.8827V5.86H79.9627V9.02H74.8827V10.58H81.4227V14H70.2227ZM89.9022 0.799999C91.6222 0.799999 92.9422 1.18667 93.8622 1.96C94.7822 2.72 95.2422 3.73333 95.2422 5C95.2422 6.45333 94.7889 7.54667 93.8822 8.28C92.9889 9.01333 91.6822 9.38 89.9622 9.38L89.5022 9.62H87.3022V14H82.7422V0.799999H89.9022ZM89.1022 6.56C89.5955 6.56 89.9622 6.47333 90.2022 6.3C90.4555 6.11333 90.5822 5.79333 90.5822 5.34C90.5822 4.9 90.4555 4.58667 90.2022 4.4C89.9622 4.21333 89.5955 4.12 89.1022 4.12H87.3022V6.56H89.1022ZM91.8622 7.54L95.9822 14H90.9222L87.8422 8.22L91.8622 7.54ZM102.624 0.6C103.89 0.6 105.024 0.76 106.024 1.08C107.037 1.38667 107.93 1.85333 108.704 2.48L106.824 5.48C106.197 5.04 105.537 4.68667 104.844 4.42C104.164 4.15333 103.424 4.02 102.624 4.02C102.277 4.02 101.997 4.04667 101.784 4.1C101.584 4.15333 101.437 4.22667 101.344 4.32C101.264 4.41333 101.224 4.52 101.224 4.64C101.224 4.8 101.344 4.92 101.584 5C101.837 5.08 102.15 5.16667 102.524 5.26L104.344 5.68C105.69 5.98667 106.704 6.44 107.384 7.04C108.077 7.64 108.424 8.47333 108.424 9.54C108.424 10.6067 108.164 11.4867 107.644 12.18C107.124 12.86 106.417 13.3667 105.524 13.7C104.644 14.0333 103.644 14.2 102.524 14.2C101.684 14.2 100.844 14.1267 100.004 13.98C99.1638 13.82 98.3838 13.5933 97.6638 13.3C96.9438 12.9933 96.3238 12.6267 95.8037 12.2L97.6438 9.14C98.0304 9.44667 98.4971 9.72667 99.0438 9.98C99.5904 10.22 100.157 10.4133 100.744 10.56C101.33 10.7067 101.877 10.78 102.384 10.78C102.704 10.78 102.957 10.7533 103.144 10.7C103.33 10.6467 103.457 10.58 103.524 10.5C103.604 10.4067 103.644 10.3 103.644 10.18C103.644 9.99333 103.564 9.85333 103.404 9.76C103.257 9.66667 102.984 9.57333 102.584 9.48L100.584 9.04C99.8771 8.88 99.2038 8.66667 98.5638 8.4C97.9238 8.13333 97.4038 7.74667 97.0038 7.24C96.6038 6.72 96.4038 6.02 96.4038 5.14C96.4038 4.23333 96.6438 3.44 97.1238 2.76C97.6171 2.08 98.3238 1.55333 99.2438 1.18C100.177 0.793333 101.304 0.6 102.624 0.6ZM111.873 3.8C112.659 3.8 113.266 3.98667 113.693 4.36C114.119 4.73333 114.333 5.26 114.333 5.94C114.333 6.62 114.119 7.14667 113.693 7.52C113.266 7.89333 112.659 8.08 111.873 8.08C111.099 8.08 110.493 7.89333 110.053 7.52C109.626 7.14667 109.413 6.62 109.413 5.94C109.413 5.26 109.626 4.73333 110.053 4.36C110.493 3.98667 111.099 3.8 111.873 3.8ZM111.873 9.88C112.659 9.88 113.266 10.0667 113.693 10.44C114.119 10.8133 114.333 11.34 114.333 12.02C114.333 12.7 114.119 13.2267 113.693 13.6C113.266 13.9733 112.659 14.16 111.873 14.16C111.099 14.16 110.493 13.9733 110.053 13.6C109.626 13.2267 109.413 12.7 109.413 12.02C109.413 11.34 109.626 10.8133 110.053 10.44C110.493 10.0667 111.099 9.88 111.873 9.88ZM125.976 0.799999V14H121.316V0.799999H125.976ZM140.897 0.799999V14H135.857L132.697 8L131.977 6.38H131.937L132.017 9.1V14H127.977V0.799999H133.017L136.177 6.82L136.897 8.42H136.937L136.857 5.7V0.799999H140.897ZM153.838 4.22H147.558V6.06H152.638V9.48H147.558V14H142.898V0.799999H153.838V4.22ZM159.844 0.799999V14H155.184V0.799999H159.844ZM174.764 0.799999V14H169.724L166.564 8L165.844 6.38H165.804L165.884 9.1V14H161.844V0.799999H166.884L170.044 6.82L170.764 8.42H170.804L170.724 5.7V0.799999H174.764ZM181.426 0.799999V14H176.766V0.799999H181.426ZM195.746 0.799999V4.22H191.626V14H186.966V4.22H182.826V0.799999H195.746ZM209.611 0.799999L204.991 9.42V14H200.331V9.42L195.711 0.799999H200.351L201.751 3.82L202.691 6.22L203.631 3.82L205.031 0.799999H209.611ZM217.685 14L213.945 0.799999H218.965L220.505 10.34L222.365 0.799999H226.365L228.325 10.28L229.825 0.799999H234.665L230.905 14H225.965L224.925 9.04L224.405 5.66H224.345L223.825 9.04L222.805 14H217.685ZM247.187 14H242.427L241.827 11.48H238.267L237.647 14H233.007L237.287 0.799999H242.887L247.187 14ZM238.967 8.58H241.147L240.067 4L238.967 8.58ZM255.156 0.799999C256.876 0.799999 258.196 1.18667 259.116 1.96C260.036 2.72 260.496 3.73333 260.496 5C260.496 6.45333 260.043 7.54667 259.136 8.28C258.243 9.01333 256.936 9.38 255.216 9.38L254.756 9.62H252.556V14H247.996V0.799999H255.156ZM254.356 6.56C254.849 6.56 255.216 6.47333 255.456 6.3C255.709 6.11333 255.836 5.79333 255.836 5.34C255.836 4.9 255.709 4.58667 255.456 4.4C255.216 4.21333 254.849 4.12 254.356 4.12H252.556V6.56H254.356ZM257.116 7.54L261.236 14H256.176L253.096 8.22L257.116 7.54ZM264.273 9.88C264.886 9.88 265.379 10.0133 265.753 10.28C266.139 10.5467 266.419 10.8933 266.592 11.32C266.779 11.7333 266.873 12.18 266.873 12.66C266.873 13.38 266.706 14.0533 266.373 14.68C266.053 15.32 265.646 15.8667 265.153 16.32C264.659 16.7867 264.173 17.12 263.693 17.32L261.953 16.14C262.326 15.9667 262.679 15.7667 263.013 15.54C263.359 15.3133 263.673 15.0667 263.952 14.8C264.233 14.5333 264.453 14.26 264.613 13.98L264.513 13.9C264.419 13.9533 264.313 13.9933 264.193 14.02C264.073 14.06 263.919 14.08 263.733 14.08C263.439 14.08 263.146 14.0133 262.853 13.88C262.559 13.7333 262.313 13.52 262.113 13.24C261.913 12.96 261.813 12.6067 261.813 12.18C261.813 11.6333 261.926 11.1933 262.153 10.86C262.393 10.5267 262.699 10.28 263.073 10.12C263.459 9.96 263.859 9.88 264.273 9.88ZM273.446 14V11.2C274.446 10.6667 275.312 10.1333 276.046 9.6C276.792 9.06667 277.406 8.54667 277.886 8.04C278.379 7.52 278.746 7.03333 278.986 6.58C279.226 6.11333 279.346 5.68667 279.346 5.3C279.346 4.98 279.266 4.7 279.106 4.46C278.946 4.22 278.666 4.1 278.266 4.1C277.812 4.1 277.479 4.28667 277.266 4.66C277.052 5.03333 276.959 5.62667 276.986 6.44L273.006 5.48C272.979 4.36 273.212 3.44 273.706 2.72C274.199 2 274.872 1.46667 275.726 1.12C276.592 0.773333 277.546 0.6 278.586 0.6C279.586 0.6 280.426 0.739999 281.106 1.02C281.799 1.28667 282.352 1.64 282.766 2.08C283.179 2.50667 283.472 2.97333 283.646 3.48C283.832 3.97333 283.926 4.44667 283.926 4.9C283.926 5.78 283.692 6.57333 283.226 7.28C282.772 7.98667 282.159 8.62 281.386 9.18C280.612 9.74 279.752 10.2467 278.806 10.7V10.74C279.086 10.7133 279.392 10.6933 279.726 10.68C280.072 10.6533 280.432 10.64 280.806 10.64C281.192 10.6267 281.572 10.62 281.946 10.62H284.006V14H273.446ZM291.115 14.2C289.115 14.2 287.635 13.6333 286.675 12.5C285.728 11.3667 285.255 9.66667 285.255 7.4C285.255 5.13333 285.728 3.43333 286.675 2.3C287.635 1.16667 289.115 0.6 291.115 0.6C293.115 0.6 294.588 1.16667 295.535 2.3C296.495 3.43333 296.975 5.13333 296.975 7.4C296.975 9.66667 296.495 11.3667 295.535 12.5C294.588 13.6333 293.115 14.2 291.115 14.2ZM291.115 10.7C291.462 10.7 291.728 10.6067 291.915 10.42C292.102 10.2333 292.228 9.9 292.295 9.42C292.375 8.94 292.415 8.26667 292.415 7.4C292.415 6.53333 292.375 5.86 292.295 5.38C292.228 4.9 292.102 4.56667 291.915 4.38C291.728 4.19333 291.462 4.1 291.115 4.1C290.782 4.1 290.515 4.19333 290.315 4.38C290.128 4.56667 289.995 4.9 289.915 5.38C289.848 5.86 289.815 6.53333 289.815 7.4C289.815 8.26667 289.848 8.94 289.915 9.42C289.995 9.9 290.128 10.2333 290.315 10.42C290.515 10.6067 290.782 10.7 291.115 10.7ZM301.299 14V7.8C301.299 7.36 301.299 6.92 301.299 6.48C301.299 6.04 301.299 5.6 301.299 5.16C300.873 5.53333 300.413 5.86 299.919 6.14C299.426 6.40667 298.906 6.58 298.359 6.66L298.099 2.92C298.513 2.88 298.926 2.79333 299.339 2.66C299.753 2.51333 300.139 2.34 300.499 2.14C300.873 1.94 301.199 1.72667 301.479 1.5C301.773 1.27333 301.993 1.04 302.139 0.799999H305.759V14H301.299ZM313.219 0.659999C314.312 0.659999 315.259 0.813332 316.059 1.12C316.872 1.41333 317.499 1.84 317.939 2.4C318.392 2.94667 318.619 3.60667 318.619 4.38C318.619 5.1 318.439 5.71333 318.079 6.22C317.719 6.72667 317.166 7.11333 316.419 7.38V7.4C317.246 7.65333 317.872 8.02 318.299 8.5C318.739 8.96667 318.959 9.59333 318.959 10.38C318.959 11.1533 318.732 11.8267 318.279 12.4C317.826 12.96 317.172 13.4 316.319 13.72C315.466 14.04 314.432 14.2 313.219 14.2C312.006 14.2 310.972 14.04 310.119 13.72C309.266 13.4 308.612 12.96 308.159 12.4C307.706 11.8267 307.479 11.1533 307.479 10.38C307.479 9.59333 307.699 8.96667 308.139 8.5C308.579 8.02 309.206 7.65333 310.019 7.4V7.38C309.286 7.11333 308.732 6.72667 308.359 6.22C307.999 5.71333 307.819 5.1 307.819 4.38C307.819 3.60667 308.039 2.94667 308.479 2.4C308.932 1.84 309.566 1.41333 310.379 1.12C311.192 0.813332 312.139 0.659999 313.219 0.659999ZM313.219 3.82C312.846 3.82 312.546 3.92 312.319 4.12C312.106 4.32 311.999 4.59333 311.999 4.94C311.999 5.28667 312.106 5.56 312.319 5.76C312.546 5.96 312.852 6.06 313.239 6.06C313.612 6.06 313.906 5.96 314.119 5.76C314.332 5.56 314.439 5.28667 314.439 4.94C314.439 4.59333 314.332 4.32 314.119 4.12C313.906 3.92 313.606 3.82 313.219 3.82ZM313.219 11.04C313.499 11.04 313.732 11 313.919 10.92C314.119 10.8267 314.266 10.6933 314.359 10.52C314.466 10.3467 314.519 10.1467 314.519 9.92C314.519 9.68 314.466 9.48 314.359 9.32C314.266 9.14667 314.119 9.02 313.919 8.94C313.732 8.84667 313.499 8.8 313.219 8.8C312.952 8.8 312.719 8.84667 312.519 8.94C312.319 9.02 312.166 9.14667 312.059 9.32C311.966 9.48 311.919 9.68 311.919 9.92C311.919 10.1467 311.966 10.3467 312.059 10.52C312.166 10.6933 312.319 10.8267 312.519 10.92C312.719 11 312.952 11.04 313.219 11.04ZM13.68 40H11.98L10.58 36.34H4.6L3.2 40H1.52L6.66 26.8H8.56L13.68 40ZM5.18 34.84H10L7.58 28.34L5.18 34.84ZM19.5655 40.2C18.5921 40.2 17.6921 39.9933 16.8655 39.58C16.0521 39.1667 15.4255 38.58 14.9855 37.82L16.3455 36.84C16.6388 37.4533 17.0655 37.9333 17.6255 38.28C18.1988 38.6267 18.8855 38.8 19.6855 38.8C20.3921 38.8 20.9455 38.6667 21.3455 38.4C21.7455 38.12 21.9455 37.76 21.9455 37.32C21.9455 37.04 21.8521 36.7867 21.6655 36.56C21.4921 36.32 21.1521 36.1467 20.6455 36.04L18.2455 35.54C17.2721 35.34 16.5721 35.0067 16.1455 34.54C15.7321 34.0733 15.5255 33.4933 15.5255 32.8C15.5255 32.2533 15.6788 31.7533 15.9855 31.3C16.3055 30.8467 16.7521 30.4867 17.3255 30.22C17.9121 29.94 18.5988 29.8 19.3855 29.8C20.3721 29.8 21.2055 29.9933 21.8855 30.38C22.5655 30.7667 23.0721 31.3133 23.4055 32.02L22.0655 32.9C21.8388 32.3133 21.4721 31.8867 20.9655 31.62C20.4588 31.34 19.9321 31.2 19.3855 31.2C18.9055 31.2 18.4921 31.2667 18.1455 31.4C17.8121 31.5333 17.5521 31.72 17.3655 31.96C17.1921 32.1867 17.1055 32.4467 17.1055 32.74C17.1055 33.0333 17.2055 33.3067 17.4055 33.56C17.6055 33.8 17.9788 33.9733 18.5255 34.08L21.0255 34.6C21.9588 34.7867 22.6121 35.0933 22.9855 35.52C23.3588 35.9467 23.5455 36.4667 23.5455 37.08C23.5455 37.7067 23.3788 38.26 23.0455 38.74C22.7121 39.2067 22.2455 39.5667 21.6455 39.82C21.0455 40.0733 20.3521 40.2 19.5655 40.2ZM35.2981 27.16V37.24C35.2981 37.7333 35.4381 38.1 35.7181 38.34C35.9981 38.58 36.3581 38.7 36.7981 38.7C37.1848 38.7 37.5181 38.6333 37.7981 38.5C38.0781 38.3667 38.3315 38.1867 38.5581 37.96L39.1181 39.3C38.8115 39.58 38.4448 39.8 38.0181 39.96C37.6048 40.12 37.1248 40.2 36.5781 40.2C36.0715 40.2 35.5981 40.1133 35.1581 39.94C34.7181 39.7533 34.3648 39.4667 34.0981 39.08C33.8448 38.68 33.7115 38.16 33.6981 37.52V27.6L35.2981 27.16ZM38.9381 30V31.38H31.6981V30H38.9381ZM41.317 40V25.4H42.917V31.5C43.2637 30.9 43.7237 30.4667 44.297 30.2C44.8704 29.9333 45.497 29.8 46.177 29.8C46.897 29.8 47.5504 29.94 48.137 30.22C48.7237 30.4867 49.1904 30.9 49.537 31.46C49.897 32.02 50.077 32.7333 50.077 33.6V40H48.477V34.16C48.477 33.0533 48.237 32.2867 47.757 31.86C47.2904 31.42 46.7104 31.2 46.017 31.2C45.537 31.2 45.057 31.3133 44.577 31.54C44.097 31.7667 43.697 32.14 43.377 32.66C43.0704 33.1667 42.917 33.8467 42.917 34.7V40H41.317ZM57.8798 40.2C56.9332 40.2 56.0865 39.9933 55.3398 39.58C54.6065 39.1667 54.0332 38.5733 53.6198 37.8C53.2065 37.0133 52.9998 36.08 52.9998 35C52.9998 33.92 53.2065 32.9933 53.6198 32.22C54.0332 31.4333 54.5998 30.8333 55.3198 30.42C56.0398 30.0067 56.8598 29.8 57.7798 29.8C58.7132 29.8 59.5065 30 60.1598 30.4C60.8265 30.8 61.3332 31.3467 61.6798 32.04C62.0265 32.72 62.1998 33.4867 62.1998 34.34C62.1998 34.5667 62.1932 34.7733 62.1798 34.96C62.1665 35.1467 62.1465 35.3133 62.1198 35.46H54.0398V34.04H61.4198L60.5998 34.2C60.5998 33.24 60.3332 32.5 59.7998 31.98C59.2798 31.46 58.5932 31.2 57.7398 31.2C57.0865 31.2 56.5198 31.3533 56.0398 31.66C55.5732 31.9533 55.2065 32.3867 54.9398 32.96C54.6865 33.52 54.5598 34.2 54.5598 35C54.5598 35.7867 54.6932 36.4667 54.9598 37.04C55.2265 37.6133 55.5998 38.0533 56.0798 38.36C56.5732 38.6533 57.1598 38.8 57.8398 38.8C58.5732 38.8 59.1665 38.66 59.6198 38.38C60.0865 38.1 60.4598 37.72 60.7398 37.24L61.9998 37.98C61.7465 38.4333 61.4198 38.8267 61.0198 39.16C60.6332 39.4933 60.1732 39.7533 59.6398 39.94C59.1198 40.1133 58.5332 40.2 57.8798 40.2ZM75.7481 25.3C76.0948 25.3 76.4215 25.34 76.7281 25.42C77.0348 25.5 77.2748 25.6133 77.4481 25.76L77.0281 27.06C76.8681 26.9533 76.6948 26.88 76.5081 26.84C76.3215 26.7867 76.1148 26.76 75.8881 26.76C75.3148 26.76 74.8681 26.9 74.5481 27.18C74.2281 27.4467 74.0681 27.88 74.0681 28.48V30V30.52V40H72.4681V28.32C72.4681 27.88 72.5348 27.4733 72.6681 27.1C72.8015 26.7267 73.0015 26.4067 73.2681 26.14C73.5481 25.8733 73.8948 25.6667 74.3081 25.52C74.7215 25.3733 75.2015 25.3 75.7481 25.3ZM77.4081 30V31.38H70.4681V30H77.4081ZM80.3481 28.08C79.9881 28.08 79.6948 27.9733 79.4681 27.76C79.2548 27.5333 79.1481 27.24 79.1481 26.88C79.1481 26.52 79.2548 26.2333 79.4681 26.02C79.6948 25.7933 79.9881 25.68 80.3481 25.68C80.7081 25.68 80.9948 25.7933 81.2081 26.02C81.4348 26.2333 81.5481 26.52 81.5481 26.88C81.5481 27.24 81.4348 27.5333 81.2081 27.76C80.9948 27.9733 80.7081 28.08 80.3481 28.08ZM81.1481 30V40H79.5481V30H81.1481ZM84.8717 40V30H86.1717L86.3917 31.64C86.6717 31.0267 87.0784 30.5667 87.6117 30.26C88.1584 29.9533 88.8184 29.8 89.5917 29.8C89.7651 29.8 89.9517 29.8133 90.1517 29.84C90.3651 29.8667 90.5451 29.92 90.6917 30L90.4117 31.46C90.2651 31.4067 90.1051 31.3667 89.9317 31.34C89.7584 31.3133 89.5117 31.3 89.1917 31.3C88.7784 31.3 88.3584 31.42 87.9317 31.66C87.5184 31.9 87.1717 32.2667 86.8917 32.76C86.6117 33.24 86.4717 33.8533 86.4717 34.6V40H84.8717ZM96.2061 40.2C95.2328 40.2 94.3328 39.9933 93.5061 39.58C92.6928 39.1667 92.0661 38.58 91.6261 37.82L92.9861 36.84C93.2794 37.4533 93.7061 37.9333 94.2661 38.28C94.8394 38.6267 95.5261 38.8 96.3261 38.8C97.0328 38.8 97.5861 38.6667 97.9861 38.4C98.3861 38.12 98.5861 37.76 98.5861 37.32C98.5861 37.04 98.4928 36.7867 98.3061 36.56C98.1328 36.32 97.7928 36.1467 97.2861 36.04L94.8861 35.54C93.9128 35.34 93.2128 35.0067 92.7861 34.54C92.3728 34.0733 92.1661 33.4933 92.1661 32.8C92.1661 32.2533 92.3194 31.7533 92.6261 31.3C92.9461 30.8467 93.3928 30.4867 93.9661 30.22C94.5528 29.94 95.2394 29.8 96.0261 29.8C97.0128 29.8 97.8461 29.9933 98.5261 30.38C99.2061 30.7667 99.7128 31.3133 100.046 32.02L98.7061 32.9C98.4794 32.3133 98.1128 31.8867 97.6061 31.62C97.0994 31.34 96.5728 31.2 96.0261 31.2C95.5461 31.2 95.1328 31.2667 94.7861 31.4C94.4528 31.5333 94.1928 31.72 94.0061 31.96C93.8328 32.1867 93.7461 32.4467 93.7461 32.74C93.7461 33.0333 93.8461 33.3067 94.0461 33.56C94.2461 33.8 94.6194 33.9733 95.1661 34.08L97.6661 34.6C98.5994 34.7867 99.2528 35.0933 99.6261 35.52C99.9994 35.9467 100.186 36.4667 100.186 37.08C100.186 37.7067 100.019 38.26 99.6861 38.74C99.3528 39.2067 98.8861 39.5667 98.2861 39.82C97.6861 40.0733 96.9928 40.2 96.2061 40.2ZM105.513 27.16V37.24C105.513 37.7333 105.653 38.1 105.933 38.34C106.213 38.58 106.573 38.7 107.013 38.7C107.4 38.7 107.733 38.6333 108.013 38.5C108.293 38.3667 108.546 38.1867 108.773 37.96L109.333 39.3C109.026 39.58 108.66 39.8 108.233 39.96C107.82 40.12 107.34 40.2 106.793 40.2C106.286 40.2 105.813 40.1133 105.373 39.94C104.933 39.7533 104.58 39.4667 104.313 39.08C104.06 38.68 103.926 38.16 103.913 37.52V27.6L105.513 27.16ZM109.153 30V31.38H101.913V30H109.153ZM118.348 40V30H119.748L119.848 31.56C120.208 30.9467 120.675 30.5 121.248 30.22C121.835 29.94 122.435 29.8 123.048 29.8C123.755 29.8 124.422 29.96 125.048 30.28C125.675 30.6 126.155 31.0933 126.488 31.76C126.702 31.3067 127.002 30.94 127.388 30.66C127.775 30.3667 128.195 30.1533 128.648 30.02C129.115 29.8733 129.555 29.8 129.968 29.8C130.608 29.8 131.215 29.9333 131.788 30.2C132.375 30.4667 132.855 30.88 133.228 31.44C133.602 32 133.788 32.72 133.788 33.6V40H132.188V33.76C132.188 32.8533 131.962 32.2 131.508 31.8C131.055 31.4 130.495 31.2 129.828 31.2C129.308 31.2 128.822 31.3267 128.368 31.58C127.915 31.8333 127.548 32.2067 127.268 32.7C127.002 33.1933 126.868 33.8 126.868 34.52V40H125.268V33.76C125.268 32.8533 125.042 32.2 124.588 31.8C124.135 31.4 123.575 31.2 122.908 31.2C122.468 31.2 122.015 31.32 121.548 31.56C121.095 31.7867 120.715 32.1533 120.408 32.66C120.102 33.1667 119.948 33.8333 119.948 34.66V40H118.348ZM143.251 33.54C143.251 32.7933 143.051 32.22 142.651 31.82C142.251 31.4067 141.684 31.2 140.951 31.2C140.257 31.2 139.671 31.3533 139.191 31.66C138.711 31.9533 138.357 32.4333 138.131 33.1L136.831 32.3C137.097 31.5533 137.591 30.9533 138.311 30.5C139.031 30.0333 139.924 29.8 140.991 29.8C141.711 29.8 142.364 29.9267 142.951 30.18C143.537 30.42 143.997 30.7933 144.331 31.3C144.677 31.7933 144.851 32.4333 144.851 33.22V38.06C144.851 38.54 145.104 38.78 145.611 38.78C145.864 38.78 146.111 38.7467 146.351 38.68L146.271 39.94C146.004 40.0733 145.657 40.14 145.231 40.14C144.844 40.14 144.497 40.0667 144.191 39.92C143.884 39.7733 143.644 39.5533 143.471 39.26C143.297 38.9533 143.211 38.5733 143.211 38.12V37.92L143.611 37.98C143.451 38.5 143.177 38.9267 142.791 39.26C142.404 39.58 141.971 39.82 141.491 39.98C141.011 40.1267 140.537 40.2 140.071 40.2C139.484 40.2 138.937 40.1 138.431 39.9C137.924 39.7 137.517 39.4 137.211 39C136.917 38.5867 136.771 38.08 136.771 37.48C136.771 36.7333 137.017 36.12 137.511 35.64C138.017 35.1467 138.717 34.8133 139.611 34.64L143.571 33.86V35.18L140.351 35.84C139.697 35.9733 139.211 36.16 138.891 36.4C138.571 36.64 138.411 36.9733 138.411 37.4C138.411 37.8133 138.571 38.1533 138.891 38.42C139.224 38.6733 139.691 38.8 140.291 38.8C140.677 38.8 141.044 38.7533 141.391 38.66C141.751 38.5533 142.071 38.4 142.351 38.2C142.631 37.9867 142.851 37.7267 143.011 37.42C143.171 37.1 143.251 36.7267 143.251 36.3V33.54ZM149.539 28.08C149.179 28.08 148.886 27.9733 148.659 27.76C148.446 27.5333 148.339 27.24 148.339 26.88C148.339 26.52 148.446 26.2333 148.659 26.02C148.886 25.7933 149.179 25.68 149.539 25.68C149.899 25.68 150.186 25.7933 150.399 26.02C150.626 26.2333 150.739 26.52 150.739 26.88C150.739 27.24 150.626 27.5333 150.399 27.76C150.186 27.9733 149.899 28.08 149.539 28.08ZM150.339 30V41.02C150.339 41.8467 150.179 42.5 149.859 42.98C149.539 43.46 149.146 43.8 148.679 44C148.212 44.2 147.752 44.3 147.299 44.3C146.886 44.3 146.506 44.2333 146.159 44.1C145.812 43.98 145.526 43.8267 145.299 43.64L145.639 42.12C145.826 42.2933 146.059 42.44 146.339 42.56C146.619 42.68 146.932 42.74 147.279 42.74C147.706 42.74 148.052 42.6 148.319 42.32C148.599 42.04 148.739 41.5533 148.739 40.86V30H150.339ZM158.191 29.8C159.138 29.8 159.971 30.0067 160.691 30.42C161.425 30.8333 161.998 31.4333 162.411 32.22C162.825 32.9933 163.031 33.92 163.031 35C163.031 36.08 162.825 37.0133 162.411 37.8C161.998 38.5733 161.425 39.1667 160.691 39.58C159.971 39.9933 159.138 40.2 158.191 40.2C157.258 40.2 156.425 39.9933 155.691 39.58C154.958 39.1667 154.385 38.5733 153.971 37.8C153.558 37.0133 153.351 36.08 153.351 35C153.351 33.92 153.558 32.9933 153.971 32.22C154.385 31.4333 154.958 30.8333 155.691 30.42C156.425 30.0067 157.258 29.8 158.191 29.8ZM158.191 31.18C157.511 31.18 156.931 31.3333 156.451 31.64C155.971 31.9467 155.598 32.3867 155.331 32.96C155.078 33.52 154.951 34.2 154.951 35C154.951 35.7867 155.078 36.4667 155.331 37.04C155.598 37.6133 155.971 38.0533 156.451 38.36C156.931 38.6667 157.511 38.82 158.191 38.82C158.871 38.82 159.451 38.6667 159.931 38.36C160.411 38.0533 160.778 37.6133 161.031 37.04C161.298 36.4667 161.431 35.7867 161.431 35C161.431 34.2 161.298 33.52 161.031 32.96C160.778 32.3867 160.411 31.9467 159.931 31.64C159.451 31.3333 158.871 31.18 158.191 31.18ZM166.044 40V30H167.344L167.564 31.64C167.844 31.0267 168.25 30.5667 168.784 30.26C169.33 29.9533 169.99 29.8 170.764 29.8C170.937 29.8 171.124 29.8133 171.324 29.84C171.537 29.8667 171.717 29.92 171.864 30L171.584 31.46C171.437 31.4067 171.277 31.3667 171.104 31.34C170.93 31.3133 170.684 31.3 170.364 31.3C169.95 31.3 169.53 31.42 169.104 31.66C168.69 31.9 168.344 32.2667 168.064 32.76C167.784 33.24 167.644 33.8533 167.644 34.6V40H166.044ZM184.244 25.3C184.591 25.3 184.918 25.34 185.224 25.42C185.531 25.5 185.771 25.6133 185.944 25.76L185.524 27.06C185.364 26.9533 185.191 26.88 185.004 26.84C184.818 26.7867 184.611 26.76 184.384 26.76C183.811 26.76 183.364 26.9 183.044 27.18C182.724 27.4467 182.564 27.88 182.564 28.48V30V30.52V40H180.964V28.32C180.964 27.88 181.031 27.4733 181.164 27.1C181.298 26.7267 181.498 26.4067 181.764 26.14C182.044 25.8733 182.391 25.6667 182.804 25.52C183.218 25.3733 183.698 25.3 184.244 25.3ZM185.904 30V31.38H178.964V30H185.904ZM188.844 28.08C188.484 28.08 188.191 27.9733 187.964 27.76C187.751 27.5333 187.644 27.24 187.644 26.88C187.644 26.52 187.751 26.2333 187.964 26.02C188.191 25.7933 188.484 25.68 188.844 25.68C189.204 25.68 189.491 25.7933 189.704 26.02C189.931 26.2333 190.044 26.52 190.044 26.88C190.044 27.24 189.931 27.5333 189.704 27.76C189.491 27.9733 189.204 28.08 188.844 28.08ZM189.644 30V40H188.044V30H189.644ZM194.888 25.4V37.46C194.888 37.9667 194.981 38.32 195.168 38.52C195.354 38.7067 195.654 38.8 196.068 38.8C196.334 38.8 196.554 38.78 196.728 38.74C196.901 38.7 197.134 38.6267 197.428 38.52L197.168 39.92C196.954 40.0133 196.721 40.08 196.468 40.12C196.214 40.1733 195.954 40.2 195.688 40.2C194.874 40.2 194.268 39.98 193.868 39.54C193.481 39.1 193.288 38.4267 193.288 37.52V25.4H194.888ZM199.481 40V30H200.881L200.981 31.56C201.341 30.9467 201.808 30.5 202.381 30.22C202.968 29.94 203.568 29.8 204.181 29.8C204.888 29.8 205.554 29.96 206.181 30.28C206.808 30.6 207.288 31.0933 207.621 31.76C207.834 31.3067 208.134 30.94 208.521 30.66C208.908 30.3667 209.328 30.1533 209.781 30.02C210.248 29.8733 210.688 29.8 211.101 29.8C211.741 29.8 212.348 29.9333 212.921 30.2C213.508 30.4667 213.988 30.88 214.361 31.44C214.734 32 214.921 32.72 214.921 33.6V40H213.321V33.76C213.321 32.8533 213.094 32.2 212.641 31.8C212.188 31.4 211.628 31.2 210.961 31.2C210.441 31.2 209.954 31.3267 209.501 31.58C209.048 31.8333 208.681 32.2067 208.401 32.7C208.134 33.1933 208.001 33.8 208.001 34.52V40H206.401V33.76C206.401 32.8533 206.174 32.2 205.721 31.8C205.268 31.4 204.708 31.2 204.041 31.2C203.601 31.2 203.148 31.32 202.681 31.56C202.228 31.7867 201.848 32.1533 201.541 32.66C201.234 33.1667 201.081 33.8333 201.081 34.66V40H199.481ZM228.96 40.2C227.987 40.2 227.087 39.9933 226.26 39.58C225.447 39.1667 224.82 38.58 224.38 37.82L225.74 36.84C226.033 37.4533 226.46 37.9333 227.02 38.28C227.593 38.6267 228.28 38.8 229.08 38.8C229.787 38.8 230.34 38.6667 230.74 38.4C231.14 38.12 231.34 37.76 231.34 37.32C231.34 37.04 231.247 36.7867 231.06 36.56C230.887 36.32 230.547 36.1467 230.04 36.04L227.64 35.54C226.667 35.34 225.967 35.0067 225.54 34.54C225.127 34.0733 224.92 33.4933 224.92 32.8C224.92 32.2533 225.073 31.7533 225.38 31.3C225.7 30.8467 226.147 30.4867 226.72 30.22C227.307 29.94 227.993 29.8 228.78 29.8C229.767 29.8 230.6 29.9933 231.28 30.38C231.96 30.7667 232.467 31.3133 232.8 32.02L231.46 32.9C231.233 32.3133 230.867 31.8867 230.36 31.62C229.853 31.34 229.327 31.2 228.78 31.2C228.3 31.2 227.887 31.2667 227.54 31.4C227.207 31.5333 226.947 31.72 226.76 31.96C226.587 32.1867 226.5 32.4467 226.5 32.74C226.5 33.0333 226.6 33.3067 226.8 33.56C227 33.8 227.373 33.9733 227.92 34.08L230.42 34.6C231.353 34.7867 232.007 35.0933 232.38 35.52C232.753 35.9467 232.94 36.4667 232.94 37.08C232.94 37.7067 232.773 38.26 232.44 38.74C232.107 39.2067 231.64 39.5667 231.04 39.82C230.44 40.0733 229.747 40.2 228.96 40.2ZM235.907 40V25.4H237.507V31.5C237.854 30.9 238.314 30.4667 238.887 30.2C239.46 29.9333 240.087 29.8 240.767 29.8C241.487 29.8 242.14 29.94 242.727 30.22C243.314 30.4867 243.78 30.9 244.127 31.46C244.487 32.02 244.667 32.7333 244.667 33.6V40H243.067V34.16C243.067 33.0533 242.827 32.2867 242.347 31.86C241.88 31.42 241.3 31.2 240.607 31.2C240.127 31.2 239.647 31.3133 239.167 31.54C238.687 31.7667 238.287 32.14 237.967 32.66C237.66 33.1667 237.507 33.8467 237.507 34.7V40H235.907ZM252.43 29.8C253.376 29.8 254.21 30.0067 254.93 30.42C255.663 30.8333 256.236 31.4333 256.65 32.22C257.063 32.9933 257.27 33.92 257.27 35C257.27 36.08 257.063 37.0133 256.65 37.8C256.236 38.5733 255.663 39.1667 254.93 39.58C254.21 39.9933 253.376 40.2 252.43 40.2C251.496 40.2 250.663 39.9933 249.93 39.58C249.196 39.1667 248.623 38.5733 248.21 37.8C247.796 37.0133 247.59 36.08 247.59 35C247.59 33.92 247.796 32.9933 248.21 32.22C248.623 31.4333 249.196 30.8333 249.93 30.42C250.663 30.0067 251.496 29.8 252.43 29.8ZM252.43 31.18C251.75 31.18 251.17 31.3333 250.69 31.64C250.21 31.9467 249.836 32.3867 249.57 32.96C249.316 33.52 249.19 34.2 249.19 35C249.19 35.7867 249.316 36.4667 249.57 37.04C249.836 37.6133 250.21 38.0533 250.69 38.36C251.17 38.6667 251.75 38.82 252.43 38.82C253.11 38.82 253.69 38.6667 254.17 38.36C254.65 38.0533 255.016 37.6133 255.27 37.04C255.536 36.4667 255.67 35.7867 255.67 35C255.67 34.2 255.536 33.52 255.27 32.96C255.016 32.3867 254.65 31.9467 254.17 31.64C253.69 31.3333 253.11 31.18 252.43 31.18ZM262.466 27.16V37.24C262.466 37.7333 262.606 38.1 262.886 38.34C263.166 38.58 263.526 38.7 263.966 38.7C264.353 38.7 264.686 38.6333 264.966 38.5C265.246 38.3667 265.499 38.1867 265.726 37.96L266.286 39.3C265.979 39.58 265.613 39.8 265.186 39.96C264.773 40.12 264.293 40.2 263.746 40.2C263.239 40.2 262.766 40.1133 262.326 39.94C261.886 39.7533 261.533 39.4667 261.266 39.08C261.013 38.68 260.879 38.16 260.866 37.52V27.6L262.466 27.16ZM266.106 30V31.38H258.866V30H266.106ZM279.481 40.2C278.535 40.2 277.688 39.9933 276.941 39.58C276.208 39.1667 275.635 38.5733 275.221 37.8C274.808 37.0133 274.601 36.08 274.601 35C274.601 33.92 274.808 32.9933 275.221 32.22C275.635 31.4333 276.201 30.8333 276.921 30.42C277.641 30.0067 278.461 29.8 279.381 29.8C280.315 29.8 281.108 30 281.761 30.4C282.428 30.8 282.935 31.3467 283.281 32.04C283.628 32.72 283.801 33.4867 283.801 34.34C283.801 34.5667 283.795 34.7733 283.781 34.96C283.768 35.1467 283.748 35.3133 283.721 35.46H275.641V34.04H283.021L282.201 34.2C282.201 33.24 281.935 32.5 281.401 31.98C280.881 31.46 280.195 31.2 279.341 31.2C278.688 31.2 278.121 31.3533 277.641 31.66C277.175 31.9533 276.808 32.3867 276.541 32.96C276.288 33.52 276.161 34.2 276.161 35C276.161 35.7867 276.295 36.4667 276.561 37.04C276.828 37.6133 277.201 38.0533 277.681 38.36C278.175 38.6533 278.761 38.8 279.441 38.8C280.175 38.8 280.768 38.66 281.221 38.38C281.688 38.1 282.061 37.72 282.341 37.24L283.601 37.98C283.348 38.4333 283.021 38.8267 282.621 39.16C282.235 39.4933 281.775 39.7533 281.241 39.94C280.721 40.1133 280.135 40.2 279.481 40.2ZM286.844 40V30H288.244L288.384 32.24L288.124 32.02C288.338 31.4867 288.624 31.06 288.984 30.74C289.344 30.4067 289.758 30.1667 290.224 30.02C290.704 29.8733 291.198 29.8 291.704 29.8C292.424 29.8 293.078 29.94 293.664 30.22C294.251 30.4867 294.718 30.9 295.064 31.46C295.424 32.02 295.604 32.7333 295.604 33.6V40H294.004V34.16C294.004 33.0533 293.764 32.2867 293.284 31.86C292.818 31.42 292.238 31.2 291.544 31.2C291.064 31.2 290.584 31.3133 290.104 31.54C289.624 31.7667 289.224 32.1333 288.904 32.64C288.598 33.1467 288.444 33.8267 288.444 34.68V40H286.844ZM301.45 27.16V37.24C301.45 37.7333 301.59 38.1 301.87 38.34C302.15 38.58 302.51 38.7 302.95 38.7C303.337 38.7 303.67 38.6333 303.95 38.5C304.23 38.3667 304.484 38.1867 304.71 37.96L305.27 39.3C304.964 39.58 304.597 39.8 304.17 39.96C303.757 40.12 303.277 40.2 302.73 40.2C302.224 40.2 301.75 40.1133 301.31 39.94C300.87 39.7533 300.517 39.4667 300.25 39.08C299.997 38.68 299.864 38.16 299.85 37.52V27.6L301.45 27.16ZM305.09 30V31.38H297.85V30H305.09ZM308.269 28.08C307.909 28.08 307.616 27.9733 307.389 27.76C307.176 27.5333 307.069 27.24 307.069 26.88C307.069 26.52 307.176 26.2333 307.389 26.02C307.616 25.7933 307.909 25.68 308.269 25.68C308.629 25.68 308.916 25.7933 309.129 26.02C309.356 26.2333 309.469 26.52 309.469 26.88C309.469 27.24 309.356 27.5333 309.129 27.76C308.916 27.9733 308.629 28.08 308.269 28.08ZM309.069 30V40H307.469V30H309.069ZM312.782 40V30H314.082L314.302 31.64C314.582 31.0267 314.989 30.5667 315.522 30.26C316.069 29.9533 316.729 29.8 317.502 29.8C317.675 29.8 317.862 29.8133 318.062 29.84C318.275 29.8667 318.455 29.92 318.602 30L318.322 31.46C318.175 31.4067 318.015 31.3667 317.842 31.34C317.669 31.3133 317.422 31.3 317.102 31.3C316.689 31.3 316.269 31.42 315.842 31.66C315.429 31.9 315.082 32.2667 314.802 32.76C314.522 33.24 314.382 33.8533 314.382 34.6V40H312.782ZM324.813 40.2C323.867 40.2 323.02 39.9933 322.273 39.58C321.54 39.1667 320.967 38.5733 320.553 37.8C320.14 37.0133 319.933 36.08 319.933 35C319.933 33.92 320.14 32.9933 320.553 32.22C320.967 31.4333 321.533 30.8333 322.253 30.42C322.973 30.0067 323.793 29.8 324.713 29.8C325.647 29.8 326.44 30 327.093 30.4C327.76 30.8 328.267 31.3467 328.613 32.04C328.96 32.72 329.133 33.4867 329.133 34.34C329.133 34.5667 329.127 34.7733 329.113 34.96C329.1 35.1467 329.08 35.3133 329.053 35.46H320.973V34.04H328.353L327.533 34.2C327.533 33.24 327.267 32.5 326.733 31.98C326.213 31.46 325.527 31.2 324.673 31.2C324.02 31.2 323.453 31.3533 322.973 31.66C322.507 31.9533 322.14 32.3867 321.873 32.96C321.62 33.52 321.493 34.2 321.493 35C321.493 35.7867 321.627 36.4667 321.893 37.04C322.16 37.6133 322.533 38.0533 323.013 38.36C323.507 38.6533 324.093 38.8 324.773 38.8C325.507 38.8 326.1 38.66 326.553 38.38C327.02 38.1 327.393 37.72 327.673 37.24L328.933 37.98C328.68 38.4333 328.353 38.8267 327.953 39.16C327.567 39.4933 327.107 39.7533 326.573 39.94C326.053 40.1133 325.467 40.2 324.813 40.2ZM333.696 25.4V37.46C333.696 37.9667 333.79 38.32 333.976 38.52C334.163 38.7067 334.463 38.8 334.876 38.8C335.143 38.8 335.363 38.78 335.536 38.74C335.71 38.7 335.943 38.6267 336.236 38.52L335.976 39.92C335.763 40.0133 335.53 40.08 335.276 40.12C335.023 40.1733 334.763 40.2 334.496 40.2C333.683 40.2 333.076 39.98 332.676 39.54C332.29 39.1 332.096 38.4267 332.096 37.52V25.4H333.696ZM346.002 30L341.302 41.68C341.049 42.3333 340.769 42.8467 340.462 43.22C340.169 43.6067 339.835 43.88 339.462 44.04C339.102 44.2133 338.682 44.3 338.202 44.3C337.749 44.3 337.329 44.2333 336.942 44.1C336.569 43.98 336.235 43.8133 335.942 43.6L336.382 42.2C336.649 42.44 336.929 42.6133 337.222 42.72C337.529 42.84 337.829 42.9 338.122 42.9C338.469 42.9 338.795 42.7933 339.102 42.58C339.409 42.3667 339.689 41.9333 339.942 41.28L340.462 39.98L339.462 37.6L336.282 30H338.102L340.602 36.52L341.222 38.3L341.942 36.32L344.282 30H346.002ZM366.494 30H368.274L364.794 40H363.194L360.374 32.04L357.714 40H356.114L352.634 30H354.414L356.934 38.14L359.654 30H361.254L363.974 38.14L366.494 30ZM371.473 28.08C371.113 28.08 370.819 27.9733 370.593 27.76C370.379 27.5333 370.273 27.24 370.273 26.88C370.273 26.52 370.379 26.2333 370.593 26.02C370.819 25.7933 371.113 25.68 371.473 25.68C371.833 25.68 372.119 25.7933 372.333 26.02C372.559 26.2333 372.673 26.52 372.673 26.88C372.673 27.24 372.559 27.5333 372.333 27.76C372.119 27.9733 371.833 28.08 371.473 28.08ZM372.273 30V40H370.673V30H372.273ZM378.345 27.16V37.24C378.345 37.7333 378.485 38.1 378.765 38.34C379.045 38.58 379.405 38.7 379.845 38.7C380.232 38.7 380.565 38.6333 380.845 38.5C381.125 38.3667 381.378 38.1867 381.605 37.96L382.165 39.3C381.858 39.58 381.492 39.8 381.065 39.96C380.652 40.12 380.172 40.2 379.625 40.2C379.118 40.2 378.645 40.1133 378.205 39.94C377.765 39.7533 377.412 39.4667 377.145 39.08C376.892 38.68 376.758 38.16 376.745 37.52V27.6L378.345 27.16ZM381.985 30V31.38H374.745V30H381.985ZM384.364 40V25.4H385.964V31.5C386.311 30.9 386.771 30.4667 387.344 30.2C387.917 29.9333 388.544 29.8 389.224 29.8C389.944 29.8 390.597 29.94 391.184 30.22C391.771 30.4867 392.237 30.9 392.584 31.46C392.944 32.02 393.124 32.7333 393.124 33.6V40H391.524V34.16C391.524 33.0533 391.284 32.2867 390.804 31.86C390.337 31.42 389.757 31.2 389.064 31.2C388.584 31.2 388.104 31.3133 387.624 31.54C387.144 31.7667 386.744 32.14 386.424 32.66C386.117 33.1667 385.964 33.8467 385.964 34.7V40H384.364ZM405.463 26.8V40H403.863V26.8H405.463ZM422.541 26.8V40H421.021V31.7L421.201 28.22H421.181L416.841 40H415.481L411.141 28.22H411.121L411.301 31.7V40H409.781V26.8H412.241L415.141 34.82L416.141 38.12H416.181L417.201 34.84L420.081 26.8H422.541ZM437.371 40H435.671L434.271 36.34H428.291L426.891 40H425.211L430.351 26.8H432.251L437.371 40ZM428.871 34.84H433.691L431.271 28.34L428.871 34.84ZM448.884 40H447.044L443.464 34.56L439.864 40H438.004L442.624 33.28L438.404 26.8H440.284L443.624 31.94L447.004 26.8H448.744L444.464 33.2L448.884 40ZM462.137 29.8C462.83 29.8 463.437 29.9067 463.957 30.12C464.49 30.3333 464.95 30.64 465.337 31.04C465.723 31.44 466.037 31.9133 466.277 32.46L464.757 33.18C464.543 32.54 464.217 32.0533 463.777 31.72C463.35 31.3733 462.79 31.2 462.097 31.2C461.43 31.2 460.857 31.3533 460.377 31.66C459.897 31.9533 459.53 32.3867 459.277 32.96C459.023 33.52 458.897 34.2 458.897 35C458.897 35.7867 459.023 36.4667 459.277 37.04C459.53 37.6133 459.897 38.0533 460.377 38.36C460.857 38.6533 461.43 38.8 462.097 38.8C462.617 38.8 463.063 38.72 463.437 38.56C463.823 38.4 464.137 38.1667 464.377 37.86C464.63 37.5533 464.803 37.18 464.897 36.74L466.377 37.26C466.15 37.8733 465.837 38.4 465.437 38.84C465.05 39.28 464.577 39.62 464.017 39.86C463.47 40.0867 462.843 40.2 462.137 40.2C461.203 40.2 460.37 39.9933 459.637 39.58C458.903 39.1667 458.33 38.5733 457.917 37.8C457.503 37.0133 457.297 36.08 457.297 35C457.297 33.92 457.503 32.9933 457.917 32.22C458.33 31.4333 458.903 30.8333 459.637 30.42C460.37 30.0067 461.203 29.8 462.137 29.8ZM475.028 33.54C475.028 32.7933 474.828 32.22 474.428 31.82C474.028 31.4067 473.461 31.2 472.728 31.2C472.035 31.2 471.448 31.3533 470.968 31.66C470.488 31.9533 470.135 32.4333 469.908 33.1L468.608 32.3C468.875 31.5533 469.368 30.9533 470.088 30.5C470.808 30.0333 471.701 29.8 472.768 29.8C473.488 29.8 474.141 29.9267 474.728 30.18C475.315 30.42 475.775 30.7933 476.108 31.3C476.455 31.7933 476.628 32.4333 476.628 33.22V38.06C476.628 38.54 476.881 38.78 477.388 38.78C477.641 38.78 477.888 38.7467 478.128 38.68L478.048 39.94C477.781 40.0733 477.435 40.14 477.008 40.14C476.621 40.14 476.275 40.0667 475.968 39.92C475.661 39.7733 475.421 39.5533 475.248 39.26C475.075 38.9533 474.988 38.5733 474.988 38.12V37.92L475.388 37.98C475.228 38.5 474.955 38.9267 474.568 39.26C474.181 39.58 473.748 39.82 473.268 39.98C472.788 40.1267 472.315 40.2 471.848 40.2C471.261 40.2 470.715 40.1 470.208 39.9C469.701 39.7 469.295 39.4 468.988 39C468.695 38.5867 468.548 38.08 468.548 37.48C468.548 36.7333 468.795 36.12 469.288 35.64C469.795 35.1467 470.495 34.8133 471.388 34.64L475.348 33.86V35.18L472.128 35.84C471.475 35.9733 470.988 36.16 470.668 36.4C470.348 36.64 470.188 36.9733 470.188 37.4C470.188 37.8133 470.348 38.1533 470.668 38.42C471.001 38.6733 471.468 38.8 472.068 38.8C472.455 38.8 472.821 38.7533 473.168 38.66C473.528 38.5533 473.848 38.4 474.128 38.2C474.408 37.9867 474.628 37.7267 474.788 37.42C474.948 37.1 475.028 36.7267 475.028 36.3V33.54ZM480.516 40V30H481.916L482.016 31.56C482.376 30.9467 482.843 30.5 483.416 30.22C484.003 29.94 484.603 29.8 485.216 29.8C485.923 29.8 486.59 29.96 487.216 30.28C487.843 30.6 488.323 31.0933 488.656 31.76C488.87 31.3067 489.17 30.94 489.556 30.66C489.943 30.3667 490.363 30.1533 490.816 30.02C491.283 29.8733 491.723 29.8 492.136 29.8C492.776 29.8 493.383 29.9333 493.956 30.2C494.543 30.4667 495.023 30.88 495.396 31.44C495.77 32 495.956 32.72 495.956 33.6V40H494.356V33.76C494.356 32.8533 494.13 32.2 493.676 31.8C493.223 31.4 492.663 31.2 491.996 31.2C491.476 31.2 490.99 31.3267 490.536 31.58C490.083 31.8333 489.716 32.2067 489.436 32.7C489.17 33.1933 489.036 33.8 489.036 34.52V40H487.436V33.76C487.436 32.8533 487.21 32.2 486.756 31.8C486.303 31.4 485.743 31.2 485.076 31.2C484.636 31.2 484.183 31.32 483.716 31.56C483.263 31.7867 482.883 32.1533 482.576 32.66C482.27 33.1667 482.116 33.8333 482.116 34.66V40H480.516ZM503.759 40.2C502.812 40.2 501.965 39.9933 501.219 39.58C500.485 39.1667 499.912 38.5733 499.499 37.8C499.085 37.0133 498.879 36.08 498.879 35C498.879 33.92 499.085 32.9933 499.499 32.22C499.912 31.4333 500.479 30.8333 501.199 30.42C501.919 30.0067 502.739 29.8 503.659 29.8C504.592 29.8 505.385 30 506.039 30.4C506.705 30.8 507.212 31.3467 507.559 32.04C507.905 32.72 508.079 33.4867 508.079 34.34C508.079 34.5667 508.072 34.7733 508.059 34.96C508.045 35.1467 508.025 35.3133 507.999 35.46H499.919V34.04H507.299L506.479 34.2C506.479 33.24 506.212 32.5 505.679 31.98C505.159 31.46 504.472 31.2 503.619 31.2C502.965 31.2 502.399 31.3533 501.919 31.66C501.452 31.9533 501.085 32.3867 500.819 32.96C500.565 33.52 500.439 34.2 500.439 35C500.439 35.7867 500.572 36.4667 500.839 37.04C501.105 37.6133 501.479 38.0533 501.959 38.36C502.452 38.6533 503.039 38.8 503.719 38.8C504.452 38.8 505.045 38.66 505.499 38.38C505.965 38.1 506.339 37.72 506.619 37.24L507.879 37.98C507.625 38.4333 507.299 38.8267 506.899 39.16C506.512 39.4933 506.052 39.7533 505.519 39.94C504.999 40.1133 504.412 40.2 503.759 40.2ZM511.122 40V30H512.422L512.642 31.64C512.922 31.0267 513.328 30.5667 513.862 30.26C514.408 29.9533 515.068 29.8 515.842 29.8C516.015 29.8 516.202 29.8133 516.402 29.84C516.615 29.8667 516.795 29.92 516.942 30L516.662 31.46C516.515 31.4067 516.355 31.3667 516.182 31.34C516.008 31.3133 515.762 31.3 515.442 31.3C515.028 31.3 514.608 31.42 514.182 31.66C513.768 31.9 513.422 32.2667 513.142 32.76C512.862 33.24 512.722 33.8533 512.722 34.6V40H511.122ZM524.852 33.54C524.852 32.7933 524.652 32.22 524.252 31.82C523.852 31.4067 523.286 31.2 522.552 31.2C521.859 31.2 521.272 31.3533 520.792 31.66C520.312 31.9533 519.959 32.4333 519.732 33.1L518.432 32.3C518.699 31.5533 519.192 30.9533 519.912 30.5C520.632 30.0333 521.526 29.8 522.592 29.8C523.312 29.8 523.966 29.9267 524.552 30.18C525.139 30.42 525.599 30.7933 525.932 31.3C526.279 31.7933 526.452 32.4333 526.452 33.22V38.06C526.452 38.54 526.706 38.78 527.212 38.78C527.466 38.78 527.712 38.7467 527.952 38.68L527.872 39.94C527.606 40.0733 527.259 40.14 526.832 40.14C526.446 40.14 526.099 40.0667 525.792 39.92C525.486 39.7733 525.246 39.5533 525.072 39.26C524.899 38.9533 524.812 38.5733 524.812 38.12V37.92L525.212 37.98C525.052 38.5 524.779 38.9267 524.392 39.26C524.006 39.58 523.572 39.82 523.092 39.98C522.612 40.1267 522.139 40.2 521.672 40.2C521.086 40.2 520.539 40.1 520.032 39.9C519.526 39.7 519.119 39.4 518.812 39C518.519 38.5867 518.372 38.08 518.372 37.48C518.372 36.7333 518.619 36.12 519.112 35.64C519.619 35.1467 520.319 34.8133 521.212 34.64L525.172 33.86V35.18L521.952 35.84C521.299 35.9733 520.812 36.16 520.492 36.4C520.172 36.64 520.012 36.9733 520.012 37.4C520.012 37.8133 520.172 38.1533 520.492 38.42C520.826 38.6733 521.292 38.8 521.892 38.8C522.279 38.8 522.646 38.7533 522.992 38.66C523.352 38.5533 523.672 38.4 523.952 38.2C524.232 37.9867 524.452 37.7267 524.612 37.42C524.772 37.1 524.852 36.7267 524.852 36.3V33.54ZM533.94 40.2C532.967 40.2 532.067 39.9933 531.24 39.58C530.427 39.1667 529.8 38.58 529.36 37.82L530.72 36.84C531.014 37.4533 531.44 37.9333 532 38.28C532.574 38.6267 533.26 38.8 534.06 38.8C534.767 38.8 535.32 38.6667 535.72 38.4C536.12 38.12 536.32 37.76 536.32 37.32C536.32 37.04 536.227 36.7867 536.04 36.56C535.867 36.32 535.527 36.1467 535.02 36.04L532.62 35.54C531.647 35.34 530.947 35.0067 530.52 34.54C530.107 34.0733 529.9 33.4933 529.9 32.8C529.9 32.2533 530.054 31.7533 530.36 31.3C530.68 30.8467 531.127 30.4867 531.7 30.22C532.287 29.94 532.974 29.8 533.76 29.8C534.747 29.8 535.58 29.9933 536.26 30.38C536.94 30.7667 537.447 31.3133 537.78 32.02L536.44 32.9C536.214 32.3133 535.847 31.8867 535.34 31.62C534.834 31.34 534.307 31.2 533.76 31.2C533.28 31.2 532.867 31.2667 532.52 31.4C532.187 31.5333 531.927 31.72 531.74 31.96C531.567 32.1867 531.48 32.4467 531.48 32.74C531.48 33.0333 531.58 33.3067 531.78 33.56C531.98 33.8 532.354 33.9733 532.9 34.08L535.4 34.6C536.334 34.7867 536.987 35.0933 537.36 35.52C537.734 35.9467 537.92 36.4667 537.92 37.08C537.92 37.7067 537.754 38.26 537.42 38.74C537.087 39.2067 536.62 39.5667 536.02 39.82C535.42 40.0733 534.727 40.2 533.94 40.2ZM541.687 37.6C542.007 37.6 542.274 37.6867 542.487 37.86C542.714 38.02 542.887 38.2467 543.007 38.54C543.127 38.82 543.187 39.1533 543.187 39.54C543.187 39.98 543.107 40.4133 542.947 40.84C542.801 41.2667 542.567 41.66 542.247 42.02C541.927 42.38 541.514 42.68 541.007 42.92L540.167 42.14C540.527 42.02 540.841 41.8533 541.107 41.64C541.387 41.4267 541.614 41.1867 541.787 40.92C541.961 40.6533 542.074 40.38 542.127 40.1L542.047 40.06C541.994 40.1 541.927 40.1333 541.847 40.16C541.767 40.1867 541.647 40.2 541.487 40.2C541.327 40.2 541.161 40.1533 540.987 40.06C540.827 39.9667 540.687 39.8333 540.567 39.66C540.447 39.4733 540.387 39.2333 540.387 38.94C540.387 38.7 540.447 38.48 540.567 38.28C540.687 38.0667 540.841 37.9 541.027 37.78C541.227 37.66 541.447 37.6 541.687 37.6ZM5.22 53.16V63.24C5.22 63.7333 5.36 64.1 5.64 64.34C5.92 64.58 6.28 64.7 6.72 64.7C7.10667 64.7 7.44 64.6333 7.72 64.5C8 64.3667 8.25333 64.1867 8.48 63.96L9.04 65.3C8.73333 65.58 8.36667 65.8 7.94 65.96C7.52667 66.12 7.04667 66.2 6.5 66.2C5.99333 66.2 5.52 66.1133 5.08 65.94C4.64 65.7533 4.28667 65.4667 4.02 65.08C3.76667 64.68 3.63333 64.16 3.62 63.52V53.6L5.22 53.16ZM8.86 56V57.38H1.62V56H8.86ZM11.2389 66V51.4H12.8389V57.5C13.1856 56.9 13.6456 56.4667 14.2189 56.2C14.7922 55.9333 15.4189 55.8 16.0989 55.8C16.8189 55.8 17.4722 55.94 18.0589 56.22C18.6456 56.4867 19.1122 56.9 19.4589 57.46C19.8189 58.02 19.9989 58.7333 19.9989 59.6V66H18.3989V60.16C18.3989 59.0533 18.1589 58.2867 17.6789 57.86C17.2122 57.42 16.6322 57.2 15.9389 57.2C15.4589 57.2 14.9789 57.3133 14.4989 57.54C14.0189 57.7667 13.6189 58.14 13.2989 58.66C12.9922 59.1667 12.8389 59.8467 12.8389 60.7V66H11.2389ZM27.8017 66.2C26.8551 66.2 26.0084 65.9933 25.2617 65.58C24.5284 65.1667 23.9551 64.5733 23.5417 63.8C23.1284 63.0133 22.9217 62.08 22.9217 61C22.9217 59.92 23.1284 58.9933 23.5417 58.22C23.9551 57.4333 24.5217 56.8333 25.2417 56.42C25.9617 56.0067 26.7817 55.8 27.7017 55.8C28.6351 55.8 29.4284 56 30.0817 56.4C30.7484 56.8 31.2551 57.3467 31.6017 58.04C31.9484 58.72 32.1217 59.4867 32.1217 60.34C32.1217 60.5667 32.1151 60.7733 32.1017 60.96C32.0884 61.1467 32.0684 61.3133 32.0417 61.46H23.9617V60.04H31.3417L30.5217 60.2C30.5217 59.24 30.2551 58.5 29.7217 57.98C29.2017 57.46 28.5151 57.2 27.6617 57.2C27.0084 57.2 26.4417 57.3533 25.9617 57.66C25.4951 57.9533 25.1284 58.3867 24.8617 58.96C24.6084 59.52 24.4817 60.2 24.4817 61C24.4817 61.7867 24.6151 62.4667 24.8817 63.04C25.1484 63.6133 25.5217 64.0533 26.0017 64.36C26.4951 64.6533 27.0817 64.8 27.7617 64.8C28.4951 64.8 29.0884 64.66 29.5417 64.38C30.0084 64.1 30.3817 63.72 30.6617 63.24L31.9217 63.98C31.6684 64.4333 31.3417 64.8267 30.9417 65.16C30.5551 65.4933 30.0951 65.7533 29.5617 65.94C29.0417 66.1133 28.4551 66.2 27.8017 66.2ZM54.0719 56H55.8519L52.3719 66H50.7719L47.9519 58.04L45.2919 66H43.6919L40.2119 56H41.9919L44.5119 64.14L47.2319 56H48.8319L51.5519 64.14L54.0719 56ZM62.0781 55.8C63.0248 55.8 63.8581 56.0067 64.5781 56.42C65.3115 56.8333 65.8848 57.4333 66.2981 58.22C66.7115 58.9933 66.9181 59.92 66.9181 61C66.9181 62.08 66.7115 63.0133 66.2981 63.8C65.8848 64.5733 65.3115 65.1667 64.5781 65.58C63.8581 65.9933 63.0248 66.2 62.0781 66.2C61.1448 66.2 60.3115 65.9933 59.5781 65.58C58.8448 65.1667 58.2715 64.5733 57.8581 63.8C57.4448 63.0133 57.2381 62.08 57.2381 61C57.2381 59.92 57.4448 58.9933 57.8581 58.22C58.2715 57.4333 58.8448 56.8333 59.5781 56.42C60.3115 56.0067 61.1448 55.8 62.0781 55.8ZM62.0781 57.18C61.3981 57.18 60.8181 57.3333 60.3381 57.64C59.8581 57.9467 59.4848 58.3867 59.2181 58.96C58.9648 59.52 58.8381 60.2 58.8381 61C58.8381 61.7867 58.9648 62.4667 59.2181 63.04C59.4848 63.6133 59.8581 64.0533 60.3381 64.36C60.8181 64.6667 61.3981 64.82 62.0781 64.82C62.7581 64.82 63.3381 64.6667 63.8181 64.36C64.2981 64.0533 64.6648 63.6133 64.9181 63.04C65.1848 62.4667 65.3181 61.7867 65.3181 61C65.3181 60.2 65.1848 59.52 64.9181 58.96C64.6648 58.3867 64.2981 57.9467 63.8181 57.64C63.3381 57.3333 62.7581 57.18 62.0781 57.18ZM69.9303 66V56H71.2303L71.4503 57.64C71.7303 57.0267 72.137 56.5667 72.6703 56.26C73.217 55.9533 73.877 55.8 74.6503 55.8C74.8236 55.8 75.0103 55.8133 75.2103 55.84C75.4236 55.8667 75.6036 55.92 75.7503 56L75.4703 57.46C75.3236 57.4067 75.1636 57.3667 74.9903 57.34C74.817 57.3133 74.5703 57.3 74.2503 57.3C73.837 57.3 73.417 57.42 72.9903 57.66C72.577 57.9 72.2303 58.2667 71.9503 58.76C71.6703 59.24 71.5303 59.8533 71.5303 60.6V66H69.9303ZM81.6819 66.2C80.8552 66.2 80.0952 65.9933 79.4019 65.58C78.7085 65.1667 78.1552 64.5733 77.7419 63.8C77.3285 63.0133 77.1219 62.08 77.1219 61C77.1219 59.8933 77.3419 58.9533 77.7819 58.18C78.2219 57.4067 78.8019 56.82 79.5219 56.42C80.2419 56.0067 81.0152 55.8 81.8419 55.8C82.6685 55.8 83.3819 56.0133 83.9819 56.44C84.5952 56.8667 85.0019 57.4333 85.2019 58.14L85.0019 58.28V51.4H86.6019V66H85.2019L85.0619 63.58L85.2819 63.46C85.1885 64.0467 84.9619 64.5467 84.6019 64.96C84.2552 65.36 83.8219 65.6667 83.3019 65.88C82.7952 66.0933 82.2552 66.2 81.6819 66.2ZM81.8419 64.8C82.4819 64.8 83.0352 64.64 83.5019 64.32C83.9819 64 84.3485 63.5467 84.6019 62.96C84.8685 62.36 85.0019 61.66 85.0019 60.86C85.0019 60.1 84.8685 59.4467 84.6019 58.9C84.3485 58.3533 83.9885 57.9333 83.5219 57.64C83.0685 57.3467 82.5352 57.2 81.9219 57.2C80.9085 57.2 80.1219 57.5467 79.5619 58.24C79.0019 58.9333 78.7219 59.8533 78.7219 61C78.7219 62.1467 78.9952 63.0667 79.5419 63.76C80.0885 64.4533 80.8552 64.8 81.8419 64.8ZM97.8373 57.32C97.5307 57.32 97.264 57.24 97.0373 57.08C96.8107 56.9067 96.6373 56.6733 96.5173 56.38C96.3973 56.0867 96.3373 55.7533 96.3373 55.38C96.3373 54.9267 96.4107 54.4933 96.5573 54.08C96.7173 53.6533 96.9573 53.26 97.2773 52.9C97.5973 52.54 98.0107 52.24 98.5173 52L99.3573 52.78C98.9973 52.9 98.6773 53.0667 98.3973 53.28C98.1307 53.4933 97.9107 53.7333 97.7373 54C97.5773 54.2667 97.464 54.54 97.3973 54.82L97.4773 54.86C97.5307 54.82 97.5973 54.7867 97.6773 54.76C97.7573 54.7333 97.8773 54.72 98.0373 54.72C98.1973 54.72 98.364 54.7667 98.5373 54.86C98.7107 54.9533 98.8507 55.0933 98.9573 55.28C99.0773 55.4533 99.1373 55.6867 99.1373 55.98C99.1373 56.22 99.0773 56.44 98.9573 56.64C98.8507 56.84 98.6973 57.0067 98.4973 57.14C98.2973 57.26 98.0773 57.32 97.8373 57.32ZM101.597 57.32C101.291 57.32 101.024 57.24 100.797 57.08C100.571 56.9067 100.397 56.6733 100.277 56.38C100.157 56.0867 100.097 55.7533 100.097 55.38C100.097 54.9267 100.171 54.4933 100.317 54.08C100.477 53.6533 100.717 53.26 101.037 52.9C101.357 52.54 101.771 52.24 102.277 52L103.117 52.78C102.757 52.9 102.437 53.0667 102.157 53.28C101.891 53.4933 101.671 53.7333 101.497 54C101.337 54.2667 101.224 54.54 101.157 54.82L101.237 54.86C101.291 54.82 101.357 54.7867 101.437 54.76C101.517 54.7333 101.637 54.72 101.797 54.72C101.957 54.72 102.124 54.7667 102.297 54.86C102.471 54.9533 102.611 55.0933 102.717 55.28C102.837 55.4533 102.897 55.6867 102.897 55.98C102.897 56.22 102.837 56.44 102.717 56.64C102.611 56.84 102.457 57.0067 102.257 57.14C102.057 57.26 101.837 57.32 101.597 57.32ZM107.905 52.8V66H106.305V52.8H107.905ZM124.983 52.8V66H123.463V57.7L123.643 54.22H123.623L119.283 66H117.923L113.583 54.22H113.563L113.743 57.7V66H112.223V52.8H114.683L117.583 60.82L118.583 64.12H118.623L119.643 60.84L122.523 52.8H124.983ZM139.813 66H138.113L136.713 62.34H130.733L129.333 66H127.653L132.793 52.8H134.693L139.813 66ZM131.313 60.84H136.133L133.713 54.34L131.313 60.84ZM151.325 66H149.485L145.905 60.56L142.305 66H140.445L145.065 59.28L140.845 52.8H142.725L146.065 57.94L149.445 52.8H151.185L146.905 59.2L151.325 66ZM154.577 52C154.897 52 155.164 52.0867 155.377 52.26C155.604 52.42 155.777 52.6467 155.897 52.94C156.017 53.22 156.077 53.5533 156.077 53.94C156.077 54.38 155.997 54.8133 155.837 55.24C155.69 55.6667 155.457 56.06 155.137 56.42C154.817 56.78 154.404 57.08 153.897 57.32L153.057 56.54C153.417 56.42 153.73 56.2533 153.997 56.04C154.277 55.8267 154.504 55.5867 154.677 55.32C154.85 55.0533 154.964 54.78 155.017 54.5L154.937 54.46C154.884 54.5 154.817 54.5333 154.737 54.56C154.657 54.5867 154.537 54.6 154.377 54.6C154.217 54.6 154.05 54.5533 153.877 54.46C153.717 54.3667 153.577 54.2333 153.457 54.06C153.337 53.8733 153.277 53.6333 153.277 53.34C153.277 53.1 153.337 52.88 153.457 52.68C153.577 52.4667 153.73 52.3 153.917 52.18C154.117 52.06 154.337 52 154.577 52ZM158.337 52C158.657 52 158.924 52.0867 159.137 52.26C159.364 52.42 159.537 52.6467 159.657 52.94C159.777 53.22 159.837 53.5533 159.837 53.94C159.837 54.38 159.757 54.8133 159.597 55.24C159.45 55.6667 159.217 56.06 158.897 56.42C158.577 56.78 158.164 57.08 157.657 57.32L156.817 56.54C157.177 56.42 157.49 56.2533 157.757 56.04C158.037 55.8267 158.264 55.5867 158.437 55.32C158.61 55.0533 158.724 54.78 158.777 54.5L158.697 54.46C158.644 54.5 158.577 54.5333 158.497 54.56C158.417 54.5867 158.297 54.6 158.137 54.6C157.977 54.6 157.81 54.5533 157.637 54.46C157.477 54.3667 157.337 54.2333 157.217 54.06C157.097 53.8733 157.037 53.6333 157.037 53.34C157.037 53.1 157.097 52.88 157.217 52.68C157.337 52.4667 157.49 52.3 157.677 52.18C157.877 52.06 158.097 52 158.337 52ZM170.301 54.08C169.941 54.08 169.647 53.9733 169.421 53.76C169.207 53.5333 169.101 53.24 169.101 52.88C169.101 52.52 169.207 52.2333 169.421 52.02C169.647 51.7933 169.941 51.68 170.301 51.68C170.661 51.68 170.947 51.7933 171.161 52.02C171.387 52.2333 171.501 52.52 171.501 52.88C171.501 53.24 171.387 53.5333 171.161 53.76C170.947 53.9733 170.661 54.08 170.301 54.08ZM171.101 56V66H169.501V56H171.101ZM178.413 66.2C177.44 66.2 176.54 65.9933 175.713 65.58C174.9 65.1667 174.273 64.58 173.833 63.82L175.193 62.84C175.486 63.4533 175.913 63.9333 176.473 64.28C177.046 64.6267 177.733 64.8 178.533 64.8C179.24 64.8 179.793 64.6667 180.193 64.4C180.593 64.12 180.793 63.76 180.793 63.32C180.793 63.04 180.7 62.7867 180.513 62.56C180.34 62.32 180 62.1467 179.493 62.04L177.093 61.54C176.12 61.34 175.42 61.0067 174.993 60.54C174.58 60.0733 174.373 59.4933 174.373 58.8C174.373 58.2533 174.526 57.7533 174.833 57.3C175.153 56.8467 175.6 56.4867 176.173 56.22C176.76 55.94 177.446 55.8 178.233 55.8C179.22 55.8 180.053 55.9933 180.733 56.38C181.413 56.7667 181.92 57.3133 182.253 58.02L180.913 58.9C180.686 58.3133 180.32 57.8867 179.813 57.62C179.306 57.34 178.78 57.2 178.233 57.2C177.753 57.2 177.34 57.2667 176.993 57.4C176.66 57.5333 176.4 57.72 176.213 57.96C176.04 58.1867 175.953 58.4467 175.953 58.74C175.953 59.0333 176.053 59.3067 176.253 59.56C176.453 59.8 176.826 59.9733 177.373 60.08L179.873 60.6C180.806 60.7867 181.46 61.0933 181.833 61.52C182.206 61.9467 182.393 62.4667 182.393 63.08C182.393 63.7067 182.226 64.26 181.893 64.74C181.56 65.2067 181.093 65.5667 180.493 65.82C179.893 66.0733 179.2 66.2 178.413 66.2ZM195.776 66.2C194.803 66.2 193.903 65.9933 193.076 65.58C192.263 65.1667 191.636 64.58 191.196 63.82L192.556 62.84C192.85 63.4533 193.276 63.9333 193.836 64.28C194.41 64.6267 195.096 64.8 195.896 64.8C196.603 64.8 197.156 64.6667 197.556 64.4C197.956 64.12 198.156 63.76 198.156 63.32C198.156 63.04 198.063 62.7867 197.876 62.56C197.703 62.32 197.363 62.1467 196.856 62.04L194.456 61.54C193.483 61.34 192.783 61.0067 192.356 60.54C191.943 60.0733 191.736 59.4933 191.736 58.8C191.736 58.2533 191.89 57.7533 192.196 57.3C192.516 56.8467 192.963 56.4867 193.536 56.22C194.123 55.94 194.81 55.8 195.596 55.8C196.583 55.8 197.416 55.9933 198.096 56.38C198.776 56.7667 199.283 57.3133 199.616 58.02L198.276 58.9C198.05 58.3133 197.683 57.8867 197.176 57.62C196.67 57.34 196.143 57.2 195.596 57.2C195.116 57.2 194.703 57.2667 194.356 57.4C194.023 57.5333 193.763 57.72 193.576 57.96C193.403 58.1867 193.316 58.4467 193.316 58.74C193.316 59.0333 193.416 59.3067 193.616 59.56C193.816 59.8 194.19 59.9733 194.736 60.08L197.236 60.6C198.17 60.7867 198.823 61.0933 199.196 61.52C199.57 61.9467 199.756 62.4667 199.756 63.08C199.756 63.7067 199.59 64.26 199.256 64.74C198.923 65.2067 198.456 65.5667 197.856 65.82C197.256 66.0733 196.563 66.2 195.776 66.2ZM206.343 66.2C205.703 66.2 205.097 66.08 204.523 65.84C203.963 65.6 203.503 65.2133 203.143 64.68C202.797 64.1333 202.623 63.4267 202.623 62.56V56H204.223V62.14C204.223 63.1533 204.443 63.8533 204.883 64.24C205.323 64.6133 205.943 64.8 206.743 64.8C207.117 64.8 207.483 64.74 207.843 64.62C208.203 64.4867 208.523 64.2867 208.803 64.02C209.097 63.74 209.323 63.3867 209.483 62.96C209.657 62.5333 209.743 62.0267 209.743 61.44V56H211.343V66H209.943L209.843 64.48C209.497 65.08 209.023 65.52 208.423 65.8C207.837 66.0667 207.143 66.2 206.343 66.2ZM219.967 66.2C219.407 66.2 218.887 66.1 218.407 65.9C217.927 65.7 217.514 65.42 217.167 65.06C216.82 64.7 216.56 64.2933 216.387 63.84L216.607 63.56L216.467 66H215.067V51.4H216.667V58.26L216.467 57.96C216.734 57.3333 217.18 56.82 217.807 56.42C218.447 56.0067 219.174 55.8 219.987 55.8C220.814 55.8 221.574 56.0067 222.267 56.42C222.96 56.8333 223.514 57.4267 223.927 58.2C224.34 58.9733 224.547 59.9067 224.547 61C224.547 62.08 224.334 63.0133 223.907 63.8C223.494 64.5733 222.94 65.1667 222.247 65.58C221.554 65.9933 220.794 66.2 219.967 66.2ZM219.807 64.8C220.794 64.8 221.56 64.4533 222.107 63.76C222.667 63.0667 222.947 62.1467 222.947 61C222.947 59.8533 222.674 58.9333 222.127 58.24C221.58 57.5467 220.814 57.2 219.827 57.2C219.2 57.2 218.647 57.36 218.167 57.68C217.7 58 217.334 58.4467 217.067 59.02C216.8 59.5933 216.667 60.2667 216.667 61.04C216.667 61.8 216.794 62.4667 217.047 63.04C217.314 63.6 217.68 64.0333 218.147 64.34C218.627 64.6467 219.18 64.8 219.807 64.8ZM229.79 53.16V63.24C229.79 63.7333 229.93 64.1 230.21 64.34C230.49 64.58 230.85 64.7 231.29 64.7C231.677 64.7 232.01 64.6333 232.29 64.5C232.57 64.3667 232.824 64.1867 233.05 63.96L233.61 65.3C233.304 65.58 232.937 65.8 232.51 65.96C232.097 66.12 231.617 66.2 231.07 66.2C230.564 66.2 230.09 66.1133 229.65 65.94C229.21 65.7533 228.857 65.4667 228.59 65.08C228.337 64.68 228.204 64.16 228.19 63.52V53.6L229.79 53.16ZM233.43 56V57.38H226.19V56H233.43ZM237.329 51.4V63.46C237.329 63.9667 237.423 64.32 237.609 64.52C237.796 64.7067 238.096 64.8 238.509 64.8C238.776 64.8 238.996 64.78 239.169 64.74C239.343 64.7 239.576 64.6267 239.869 64.52L239.609 65.92C239.396 66.0133 239.163 66.08 238.909 66.12C238.656 66.1733 238.396 66.2 238.129 66.2C237.316 66.2 236.709 65.98 236.309 65.54C235.923 65.1 235.729 64.4267 235.729 63.52V51.4H237.329ZM249.635 56L244.935 67.68C244.681 68.3333 244.401 68.8467 244.095 69.22C243.801 69.6067 243.468 69.88 243.095 70.04C242.735 70.2133 242.315 70.3 241.835 70.3C241.381 70.3 240.961 70.2333 240.575 70.1C240.201 69.98 239.868 69.8133 239.575 69.6L240.015 68.2C240.281 68.44 240.561 68.6133 240.855 68.72C241.161 68.84 241.461 68.9 241.755 68.9C242.101 68.9 242.428 68.7933 242.735 68.58C243.041 68.3667 243.321 67.9333 243.575 67.28L244.095 65.98L243.095 63.6L239.915 56H241.735L244.235 62.52L244.855 64.3L245.575 62.32L247.915 56H249.635ZM258.036 66V51.4H259.636V57.5C259.982 56.9 260.442 56.4667 261.016 56.2C261.589 55.9333 262.216 55.8 262.896 55.8C263.616 55.8 264.269 55.94 264.856 56.22C265.442 56.4867 265.909 56.9 266.256 57.46C266.616 58.02 266.796 58.7333 266.796 59.6V66H265.196V60.16C265.196 59.0533 264.956 58.2867 264.476 57.86C264.009 57.42 263.429 57.2 262.736 57.2C262.256 57.2 261.776 57.3133 261.296 57.54C260.816 57.7667 260.416 58.14 260.096 58.66C259.789 59.1667 259.636 59.8467 259.636 60.7V66H258.036ZM271.219 54.08C270.859 54.08 270.565 53.9733 270.339 53.76C270.125 53.5333 270.019 53.24 270.019 52.88C270.019 52.52 270.125 52.2333 270.339 52.02C270.565 51.7933 270.859 51.68 271.219 51.68C271.579 51.68 271.865 51.7933 272.079 52.02C272.305 52.2333 272.419 52.52 272.419 52.88C272.419 53.24 272.305 53.5333 272.079 53.76C271.865 53.9733 271.579 54.08 271.219 54.08ZM272.019 56V66H270.419V56H272.019ZM279.631 66.2C278.804 66.2 278.044 65.9933 277.351 65.58C276.658 65.1667 276.104 64.5733 275.691 63.8C275.278 63.0133 275.071 62.08 275.071 61C275.071 59.8933 275.291 58.9533 275.731 58.18C276.171 57.4067 276.751 56.82 277.471 56.42C278.191 56.0067 278.964 55.8 279.791 55.8C280.618 55.8 281.331 56.0133 281.931 56.44C282.544 56.8667 282.951 57.4333 283.151 58.14L282.951 58.28V51.4H284.551V66H283.151L283.011 63.58L283.231 63.46C283.138 64.0467 282.911 64.5467 282.551 64.96C282.204 65.36 281.771 65.6667 281.251 65.88C280.744 66.0933 280.204 66.2 279.631 66.2ZM279.791 64.8C280.431 64.8 280.984 64.64 281.451 64.32C281.931 64 282.298 63.5467 282.551 62.96C282.818 62.36 282.951 61.66 282.951 60.86C282.951 60.1 282.818 59.4467 282.551 58.9C282.298 58.3533 281.938 57.9333 281.471 57.64C281.018 57.3467 280.484 57.2 279.871 57.2C278.858 57.2 278.071 57.5467 277.511 58.24C276.951 58.9333 276.671 59.8533 276.671 61C276.671 62.1467 276.944 63.0667 277.491 63.76C278.038 64.4533 278.804 64.8 279.791 64.8ZM292.17 66.2C291.343 66.2 290.583 65.9933 289.89 65.58C289.197 65.1667 288.643 64.5733 288.23 63.8C287.817 63.0133 287.61 62.08 287.61 61C287.61 59.8933 287.83 58.9533 288.27 58.18C288.71 57.4067 289.29 56.82 290.01 56.42C290.73 56.0067 291.503 55.8 292.33 55.8C293.157 55.8 293.87 56.0133 294.47 56.44C295.083 56.8667 295.49 57.4333 295.69 58.14L295.49 58.28V51.4H297.09V66H295.69L295.55 63.58L295.77 63.46C295.677 64.0467 295.45 64.5467 295.09 64.96C294.743 65.36 294.31 65.6667 293.79 65.88C293.283 66.0933 292.743 66.2 292.17 66.2ZM292.33 64.8C292.97 64.8 293.523 64.64 293.99 64.32C294.47 64 294.837 63.5467 295.09 62.96C295.357 62.36 295.49 61.66 295.49 60.86C295.49 60.1 295.357 59.4467 295.09 58.9C294.837 58.3533 294.477 57.9333 294.01 57.64C293.557 57.3467 293.023 57.2 292.41 57.2C291.397 57.2 290.61 57.5467 290.05 58.24C289.49 58.9333 289.21 59.8533 289.21 61C289.21 62.1467 289.483 63.0667 290.03 63.76C290.577 64.4533 291.343 64.8 292.33 64.8ZM304.989 66.2C304.043 66.2 303.196 65.9933 302.449 65.58C301.716 65.1667 301.143 64.5733 300.729 63.8C300.316 63.0133 300.109 62.08 300.109 61C300.109 59.92 300.316 58.9933 300.729 58.22C301.143 57.4333 301.709 56.8333 302.429 56.42C303.149 56.0067 303.969 55.8 304.889 55.8C305.823 55.8 306.616 56 307.269 56.4C307.936 56.8 308.443 57.3467 308.789 58.04C309.136 58.72 309.309 59.4867 309.309 60.34C309.309 60.5667 309.303 60.7733 309.289 60.96C309.276 61.1467 309.256 61.3133 309.229 61.46H301.149V60.04H308.529L307.709 60.2C307.709 59.24 307.443 58.5 306.909 57.98C306.389 57.46 305.703 57.2 304.849 57.2C304.196 57.2 303.629 57.3533 303.149 57.66C302.683 57.9533 302.316 58.3867 302.049 58.96C301.796 59.52 301.669 60.2 301.669 61C301.669 61.7867 301.803 62.4667 302.069 63.04C302.336 63.6133 302.709 64.0533 303.189 64.36C303.683 64.6533 304.269 64.8 304.949 64.8C305.683 64.8 306.276 64.66 306.729 64.38C307.196 64.1 307.569 63.72 307.849 63.24L309.109 63.98C308.856 64.4333 308.529 64.8267 308.129 65.16C307.743 65.4933 307.283 65.7533 306.749 65.94C306.229 66.1133 305.643 66.2 304.989 66.2ZM312.352 66V56H313.752L313.892 58.24L313.632 58.02C313.846 57.4867 314.132 57.06 314.492 56.74C314.852 56.4067 315.266 56.1667 315.732 56.02C316.212 55.8733 316.706 55.8 317.212 55.8C317.932 55.8 318.586 55.94 319.172 56.22C319.759 56.4867 320.226 56.9 320.572 57.46C320.932 58.02 321.112 58.7333 321.112 59.6V66H319.512V60.16C319.512 59.0533 319.272 58.2867 318.792 57.86C318.326 57.42 317.746 57.2 317.052 57.2C316.572 57.2 316.092 57.3133 315.612 57.54C315.132 57.7667 314.732 58.1333 314.412 58.64C314.106 59.1467 313.952 59.8267 313.952 60.68V66H312.352ZM331.551 66V56H332.951L333.051 57.56C333.411 56.9467 333.878 56.5 334.451 56.22C335.038 55.94 335.638 55.8 336.251 55.8C336.958 55.8 337.625 55.96 338.251 56.28C338.878 56.6 339.358 57.0933 339.691 57.76C339.905 57.3067 340.205 56.94 340.591 56.66C340.978 56.3667 341.398 56.1533 341.851 56.02C342.318 55.8733 342.758 55.8 343.171 55.8C343.811 55.8 344.418 55.9333 344.991 56.2C345.578 56.4667 346.058 56.88 346.431 57.44C346.805 58 346.991 58.72 346.991 59.6V66H345.391V59.76C345.391 58.8533 345.165 58.2 344.711 57.8C344.258 57.4 343.698 57.2 343.031 57.2C342.511 57.2 342.025 57.3267 341.571 57.58C341.118 57.8333 340.751 58.2067 340.471 58.7C340.205 59.1933 340.071 59.8 340.071 60.52V66H338.471V59.76C338.471 58.8533 338.245 58.2 337.791 57.8C337.338 57.4 336.778 57.2 336.111 57.2C335.671 57.2 335.218 57.32 334.751 57.56C334.298 57.7867 333.918 58.1533 333.611 58.66C333.305 59.1667 333.151 59.8333 333.151 60.66V66H331.551ZM354.234 66.2C353.594 66.2 352.987 66.08 352.414 65.84C351.854 65.6 351.394 65.2133 351.034 64.68C350.687 64.1333 350.514 63.4267 350.514 62.56V56H352.114V62.14C352.114 63.1533 352.334 63.8533 352.774 64.24C353.214 64.6133 353.834 64.8 354.634 64.8C355.007 64.8 355.374 64.74 355.734 64.62C356.094 64.4867 356.414 64.2867 356.694 64.02C356.987 63.74 357.214 63.3867 357.374 62.96C357.547 62.5333 357.634 62.0267 357.634 61.44V56H359.234V66H357.834L357.734 64.48C357.387 65.08 356.914 65.52 356.314 65.8C355.727 66.0667 355.034 66.2 354.234 66.2ZM364.478 51.4V63.46C364.478 63.9667 364.571 64.32 364.758 64.52C364.944 64.7067 365.244 64.8 365.658 64.8C365.924 64.8 366.144 64.78 366.318 64.74C366.491 64.7 366.724 64.6267 367.018 64.52L366.758 65.92C366.544 66.0133 366.311 66.08 366.058 66.12C365.804 66.1733 365.544 66.2 365.278 66.2C364.464 66.2 363.858 65.98 363.458 65.54C363.071 65.1 362.878 64.4267 362.878 63.52V51.4H364.478ZM371.04 53.16V63.24C371.04 63.7333 371.18 64.1 371.46 64.34C371.74 64.58 372.1 64.7 372.54 64.7C372.927 64.7 373.26 64.6333 373.54 64.5C373.82 64.3667 374.074 64.1867 374.3 63.96L374.86 65.3C374.554 65.58 374.187 65.8 373.76 65.96C373.347 66.12 372.867 66.2 372.32 66.2C371.814 66.2 371.34 66.1133 370.9 65.94C370.46 65.7533 370.107 65.4667 369.84 65.08C369.587 64.68 369.454 64.16 369.44 63.52V53.6L371.04 53.16ZM374.68 56V57.38H367.44V56H374.68ZM377.859 54.08C377.499 54.08 377.206 53.9733 376.979 53.76C376.766 53.5333 376.659 53.24 376.659 52.88C376.659 52.52 376.766 52.2333 376.979 52.02C377.206 51.7933 377.499 51.68 377.859 51.68C378.219 51.68 378.506 51.7933 378.719 52.02C378.946 52.2333 379.059 52.52 379.059 52.88C379.059 53.24 378.946 53.5333 378.719 53.76C378.506 53.9733 378.219 54.08 377.859 54.08ZM378.659 56V66H377.059V56H378.659ZM382.372 70.2V56H383.772L383.912 58.44L383.692 58.16C383.865 57.6933 384.125 57.2867 384.472 56.94C384.818 56.58 385.238 56.3 385.732 56.1C386.225 55.9 386.758 55.8 387.332 55.8C388.145 55.8 388.892 56.0067 389.572 56.42C390.265 56.8333 390.818 57.4267 391.232 58.2C391.645 58.9733 391.852 59.9067 391.852 61C391.852 62.08 391.638 63.0133 391.212 63.8C390.798 64.5733 390.245 65.1667 389.552 65.58C388.858 65.9933 388.098 66.2 387.272 66.2C386.445 66.2 385.718 66 385.092 65.6C384.478 65.1867 384.038 64.6667 383.772 64.04L383.972 63.74V70.2H382.372ZM387.112 64.8C388.098 64.8 388.865 64.4533 389.412 63.76C389.972 63.0667 390.252 62.1467 390.252 61C390.252 59.8533 389.978 58.9333 389.432 58.24C388.898 57.5467 388.145 57.2 387.172 57.2C386.532 57.2 385.972 57.36 385.492 57.68C385.012 57.9867 384.638 58.4267 384.372 59C384.105 59.56 383.972 60.2267 383.972 61C383.972 61.76 384.098 62.4267 384.352 63C384.618 63.5733 384.985 64.02 385.452 64.34C385.932 64.6467 386.485 64.8 387.112 64.8ZM396.431 51.4V63.46C396.431 63.9667 396.524 64.32 396.711 64.52C396.897 64.7067 397.197 64.8 397.611 64.8C397.877 64.8 398.097 64.78 398.271 64.74C398.444 64.7 398.677 64.6267 398.971 64.52L398.711 65.92C398.497 66.0133 398.264 66.08 398.011 66.12C397.757 66.1733 397.497 66.2 397.231 66.2C396.417 66.2 395.811 65.98 395.411 65.54C395.024 65.1 394.831 64.4267 394.831 63.52V51.4H396.431ZM405.204 66.2C404.257 66.2 403.411 65.9933 402.664 65.58C401.931 65.1667 401.357 64.5733 400.944 63.8C400.531 63.0133 400.324 62.08 400.324 61C400.324 59.92 400.531 58.9933 400.944 58.22C401.357 57.4333 401.924 56.8333 402.644 56.42C403.364 56.0067 404.184 55.8 405.104 55.8C406.037 55.8 406.831 56 407.484 56.4C408.151 56.8 408.657 57.3467 409.004 58.04C409.351 58.72 409.524 59.4867 409.524 60.34C409.524 60.5667 409.517 60.7733 409.504 60.96C409.491 61.1467 409.471 61.3133 409.444 61.46H401.364V60.04H408.744L407.924 60.2C407.924 59.24 407.657 58.5 407.124 57.98C406.604 57.46 405.917 57.2 405.064 57.2C404.411 57.2 403.844 57.3533 403.364 57.66C402.897 57.9533 402.531 58.3867 402.264 58.96C402.011 59.52 401.884 60.2 401.884 61C401.884 61.7867 402.017 62.4667 402.284 63.04C402.551 63.6133 402.924 64.0533 403.404 64.36C403.897 64.6533 404.484 64.8 405.164 64.8C405.897 64.8 406.491 64.66 406.944 64.38C407.411 64.1 407.784 63.72 408.064 63.24L409.324 63.98C409.071 64.4333 408.744 64.8267 408.344 65.16C407.957 65.4933 407.497 65.7533 406.964 65.94C406.444 66.1133 405.857 66.2 405.204 66.2ZM421.353 53.16V63.24C421.353 63.7333 421.493 64.1 421.773 64.34C422.053 64.58 422.413 64.7 422.853 64.7C423.239 64.7 423.573 64.6333 423.853 64.5C424.133 64.3667 424.386 64.1867 424.613 63.96L425.173 65.3C424.866 65.58 424.499 65.8 424.073 65.96C423.659 66.12 423.179 66.2 422.633 66.2C422.126 66.2 421.653 66.1133 421.213 65.94C420.773 65.7533 420.419 65.4667 420.153 65.08C419.899 64.68 419.766 64.16 419.753 63.52V53.6L421.353 53.16ZM424.993 56V57.38H417.753V56H424.993ZM428.172 54.08C427.812 54.08 427.518 53.9733 427.292 53.76C427.078 53.5333 426.972 53.24 426.972 52.88C426.972 52.52 427.078 52.2333 427.292 52.02C427.518 51.7933 427.812 51.68 428.172 51.68C428.532 51.68 428.818 51.7933 429.032 52.02C429.258 52.2333 429.372 52.52 429.372 52.88C429.372 53.24 429.258 53.5333 429.032 53.76C428.818 53.9733 428.532 54.08 428.172 54.08ZM428.972 56V66H427.372V56H428.972ZM432.684 66V56H434.084L434.184 57.56C434.544 56.9467 435.011 56.5 435.584 56.22C436.171 55.94 436.771 55.8 437.384 55.8C438.091 55.8 438.758 55.96 439.384 56.28C440.011 56.6 440.491 57.0933 440.824 57.76C441.038 57.3067 441.338 56.94 441.724 56.66C442.111 56.3667 442.531 56.1533 442.984 56.02C443.451 55.8733 443.891 55.8 444.304 55.8C444.944 55.8 445.551 55.9333 446.124 56.2C446.711 56.4667 447.191 56.88 447.564 57.44C447.938 58 448.124 58.72 448.124 59.6V66H446.524V59.76C446.524 58.8533 446.298 58.2 445.844 57.8C445.391 57.4 444.831 57.2 444.164 57.2C443.644 57.2 443.158 57.3267 442.704 57.58C442.251 57.8333 441.884 58.2067 441.604 58.7C441.338 59.1933 441.204 59.8 441.204 60.52V66H439.604V59.76C439.604 58.8533 439.378 58.2 438.924 57.8C438.471 57.4 437.911 57.2 437.244 57.2C436.804 57.2 436.351 57.32 435.884 57.56C435.431 57.7867 435.051 58.1533 434.744 58.66C434.438 59.1667 434.284 59.8333 434.284 60.66V66H432.684ZM455.927 66.2C454.98 66.2 454.133 65.9933 453.387 65.58C452.653 65.1667 452.08 64.5733 451.667 63.8C451.253 63.0133 451.047 62.08 451.047 61C451.047 59.92 451.253 58.9933 451.667 58.22C452.08 57.4333 452.647 56.8333 453.367 56.42C454.087 56.0067 454.907 55.8 455.827 55.8C456.76 55.8 457.553 56 458.207 56.4C458.873 56.8 459.38 57.3467 459.727 58.04C460.073 58.72 460.247 59.4867 460.247 60.34C460.247 60.5667 460.24 60.7733 460.227 60.96C460.213 61.1467 460.193 61.3133 460.167 61.46H452.087V60.04H459.467L458.647 60.2C458.647 59.24 458.38 58.5 457.847 57.98C457.327 57.46 456.64 57.2 455.787 57.2C455.133 57.2 454.567 57.3533 454.087 57.66C453.62 57.9533 453.253 58.3867 452.987 58.96C452.733 59.52 452.607 60.2 452.607 61C452.607 61.7867 452.74 62.4667 453.007 63.04C453.273 63.6133 453.647 64.0533 454.127 64.36C454.62 64.6533 455.207 64.8 455.887 64.8C456.62 64.8 457.213 64.66 457.667 64.38C458.133 64.1 458.507 63.72 458.787 63.24L460.047 63.98C459.793 64.4333 459.467 64.8267 459.067 65.16C458.68 65.4933 458.22 65.7533 457.687 65.94C457.167 66.1133 456.58 66.2 455.927 66.2ZM466.89 66.2C465.916 66.2 465.016 65.9933 464.19 65.58C463.376 65.1667 462.75 64.58 462.31 63.82L463.67 62.84C463.963 63.4533 464.39 63.9333 464.95 64.28C465.523 64.6267 466.21 64.8 467.01 64.8C467.716 64.8 468.27 64.6667 468.67 64.4C469.07 64.12 469.27 63.76 469.27 63.32C469.27 63.04 469.176 62.7867 468.99 62.56C468.816 62.32 468.476 62.1467 467.97 62.04L465.57 61.54C464.596 61.34 463.896 61.0067 463.47 60.54C463.056 60.0733 462.85 59.4933 462.85 58.8C462.85 58.2533 463.003 57.7533 463.31 57.3C463.63 56.8467 464.076 56.4867 464.65 56.22C465.236 55.94 465.923 55.8 466.71 55.8C467.696 55.8 468.53 55.9933 469.21 56.38C469.89 56.7667 470.396 57.3133 470.73 58.02L469.39 58.9C469.163 58.3133 468.796 57.8867 468.29 57.62C467.783 57.34 467.256 57.2 466.71 57.2C466.23 57.2 465.816 57.2667 465.47 57.4C465.136 57.5333 464.876 57.72 464.69 57.96C464.516 58.1867 464.43 58.4467 464.43 58.74C464.43 59.0333 464.53 59.3067 464.73 59.56C464.93 59.8 465.303 59.9733 465.85 60.08L468.35 60.6C469.283 60.7867 469.936 61.0933 470.31 61.52C470.683 61.9467 470.87 62.4667 470.87 63.08C470.87 63.7067 470.703 64.26 470.37 64.74C470.036 65.2067 469.57 65.5667 468.97 65.82C468.37 66.0733 467.676 66.2 466.89 66.2ZM474.637 63.6C475.023 63.6 475.337 63.72 475.577 63.96C475.817 64.2 475.937 64.5133 475.937 64.9C475.937 65.2867 475.817 65.6 475.577 65.84C475.337 66.08 475.023 66.2 474.637 66.2C474.25 66.2 473.937 66.08 473.697 65.84C473.457 65.6 473.337 65.2867 473.337 64.9C473.337 64.5133 473.457 64.2 473.697 63.96C473.937 63.72 474.25 63.6 474.637 63.6Z" fill="white"/>
</svg>
