<svg width="479" height="71" viewBox="0 0 479 71" fill="none" xmlns="http://www.w3.org/2000/svg">
<path d="M13.32 0.799999V4.22H9.2V14H4.54V4.22H0.4V0.799999H13.32ZM14.7109 14V0.799999H25.6709V4.22H19.3709V5.86H24.4509V9.02H19.3709V10.58H25.9109V14H14.7109ZM40.4905 14H34.8705L33.1305 10.58L31.5305 14H26.2705L30.6505 7.42L26.4305 0.799999H31.9305L33.4705 4.1L35.0305 0.799999H40.1105L35.9105 7.3L40.4905 14ZM53.9019 14H49.1419L48.5419 11.48H44.9819L44.3619 14H39.7219L44.0019 0.799999H49.6019L53.9019 14ZM45.6819 8.58H47.8619L46.7819 4L45.6819 8.58ZM60.4909 0.6C61.7576 0.6 62.8909 0.76 63.8909 1.08C64.9043 1.38667 65.7976 1.85333 66.5709 2.48L64.6909 5.48C64.0643 5.04 63.4043 4.68667 62.7109 4.42C62.0309 4.15333 61.2909 4.02 60.4909 4.02C60.1443 4.02 59.8643 4.04667 59.6509 4.1C59.4509 4.15333 59.3043 4.22667 59.2109 4.32C59.1309 4.41333 59.0909 4.52 59.0909 4.64C59.0909 4.8 59.2109 4.92 59.4509 5C59.7043 5.08 60.0176 5.16667 60.3909 5.26L62.2109 5.68C63.5576 5.98667 64.5709 6.44 65.2509 7.04C65.9443 7.64 66.2909 8.47333 66.2909 9.54C66.2909 10.6067 66.0309 11.4867 65.5109 12.18C64.9909 12.86 64.2843 13.3667 63.3909 13.7C62.5109 14.0333 61.5109 14.2 60.3909 14.2C59.5509 14.2 58.7109 14.1267 57.8709 13.98C57.0309 13.82 56.2509 13.5933 55.5309 13.3C54.8109 12.9933 54.1909 12.6267 53.6709 12.2L55.5109 9.14C55.8976 9.44667 56.3643 9.72667 56.9109 9.98C57.4576 10.22 58.0243 10.4133 58.6109 10.56C59.1976 10.7067 59.7443 10.78 60.2509 10.78C60.5709 10.78 60.8243 10.7533 61.0109 10.7C61.1976 10.6467 61.3243 10.58 61.3909 10.5C61.4709 10.4067 61.5109 10.3 61.5109 10.18C61.5109 9.99333 61.4309 9.85333 61.2709 9.76C61.1243 9.66667 60.8509 9.57333 60.4509 9.48L58.4509 9.04C57.7443 8.88 57.0709 8.66667 56.4309 8.4C55.7909 8.13333 55.2709 7.74667 54.8709 7.24C54.4709 6.72 54.2709 6.02 54.2709 5.14C54.2709 4.23333 54.5109 3.44 54.9909 2.76C55.4843 2.08 56.1909 1.55333 57.1109 1.18C58.0443 0.793333 59.1709 0.6 60.4909 0.6ZM85.0797 9.96C84.8397 10.9867 84.4264 11.8133 83.8397 12.44C83.2664 13.0667 82.5664 13.52 81.7397 13.8C80.913 14.0667 79.993 14.2 78.9797 14.2C77.593 14.2 76.393 13.9333 75.3797 13.4C74.3797 12.8667 73.6064 12.0933 73.0597 11.08C72.5264 10.0667 72.2597 8.84 72.2597 7.4C72.2597 5.96 72.5264 4.73333 73.0597 3.72C73.6064 2.70667 74.3797 1.93333 75.3797 1.4C76.393 0.866666 77.593 0.6 78.9797 0.6C79.953 0.6 80.8597 0.739999 81.6997 1.02C82.5397 1.28667 83.2464 1.71333 83.8197 2.3C84.4064 2.88667 84.793 3.65333 84.9797 4.6L80.9797 6.16C80.873 5.29333 80.653 4.73333 80.3197 4.48C79.9997 4.22667 79.593 4.1 79.0997 4.1C78.6464 4.1 78.2597 4.22 77.9397 4.46C77.633 4.68667 77.3997 5.04667 77.2397 5.54C77.093 6.02 77.0197 6.64 77.0197 7.4C77.0197 8.14667 77.0864 8.76667 77.2197 9.26C77.3664 9.75333 77.5997 10.12 77.9197 10.36C78.2397 10.5867 78.6664 10.7 79.1997 10.7C79.6797 10.7 80.073 10.56 80.3797 10.28C80.6864 9.98667 80.8797 9.52667 80.9597 8.9L85.0797 9.96ZM99.1548 0.799999V14H94.4948V0.799999H99.1548ZM90.8748 0.799999V14H86.2148V0.799999H90.8748ZM97.0748 5.66V9.08H88.4548V5.66H97.0748ZM114.136 14H109.376L108.776 11.48H105.216L104.596 14H99.9562L104.236 0.799999H109.836L114.136 14ZM105.916 8.58H108.096L107.016 4L105.916 8.58ZM119.605 0.799999V14H114.945V0.799999H119.605ZM134.525 0.799999V14H129.485L126.325 8L125.605 6.38H125.565L125.645 9.1V14H121.605V0.799999H126.645L129.805 6.82L130.525 8.42H130.565L130.485 5.7V0.799999H134.525ZM142.307 0.6C143.574 0.6 144.707 0.76 145.707 1.08C146.721 1.38667 147.614 1.85333 148.387 2.48L146.507 5.48C145.881 5.04 145.221 4.68667 144.527 4.42C143.847 4.15333 143.107 4.02 142.307 4.02C141.961 4.02 141.681 4.04667 141.467 4.1C141.267 4.15333 141.121 4.22667 141.027 4.32C140.947 4.41333 140.907 4.52 140.907 4.64C140.907 4.8 141.027 4.92 141.267 5C141.521 5.08 141.834 5.16667 142.207 5.26L144.027 5.68C145.374 5.98667 146.387 6.44 147.067 7.04C147.761 7.64 148.107 8.47333 148.107 9.54C148.107 10.6067 147.847 11.4867 147.327 12.18C146.807 12.86 146.101 13.3667 145.207 13.7C144.327 14.0333 143.327 14.2 142.207 14.2C141.367 14.2 140.527 14.1267 139.687 13.98C138.847 13.82 138.067 13.5933 137.347 13.3C136.627 12.9933 136.007 12.6267 135.487 12.2L137.327 9.14C137.714 9.44667 138.181 9.72667 138.727 9.98C139.274 10.22 139.841 10.4133 140.427 10.56C141.014 10.7067 141.561 10.78 142.067 10.78C142.387 10.78 142.641 10.7533 142.827 10.7C143.014 10.6467 143.141 10.58 143.207 10.5C143.287 10.4067 143.327 10.3 143.327 10.18C143.327 9.99333 143.247 9.85333 143.087 9.76C142.941 9.66667 142.667 9.57333 142.267 9.48L140.267 9.04C139.561 8.88 138.887 8.66667 138.247 8.4C137.607 8.13333 137.087 7.74667 136.687 7.24C136.287 6.72 136.087 6.02 136.087 5.14C136.087 4.23333 136.327 3.44 136.807 2.76C137.301 2.08 138.007 1.55333 138.927 1.18C139.861 0.793333 140.987 0.6 142.307 0.6ZM162.476 14H157.716L157.116 11.48H153.556L152.936 14H148.296L152.576 0.799999H158.176L162.476 14ZM154.256 8.58H156.436L155.356 4L154.256 8.58ZM164.537 14L160.797 0.799999H165.817L167.357 10.34L169.217 0.799999H173.217L175.177 10.28L176.677 0.799999H181.517L177.757 14H172.817L171.777 9.04L171.257 5.66H171.197L170.677 9.04L169.657 14H164.537ZM204.054 0.799999V14H199.994V9.42L200.054 4.98H199.994L197.434 14H193.714L191.194 4.98H191.114L191.174 9.42V14H187.094V0.799999H193.614L195.134 6.66L195.714 9.12H195.754L196.334 6.66L197.854 0.799999H204.054ZM219.039 14H214.279L213.679 11.48H210.119L209.499 14H204.859L209.139 0.799999H214.739L219.039 14ZM210.819 8.58H212.999L211.919 4L210.819 8.58ZM225.628 0.6C226.894 0.6 228.028 0.76 229.028 1.08C230.041 1.38667 230.934 1.85333 231.708 2.48L229.828 5.48C229.201 5.04 228.541 4.68667 227.848 4.42C227.168 4.15333 226.428 4.02 225.628 4.02C225.281 4.02 225.001 4.04667 224.788 4.1C224.588 4.15333 224.441 4.22667 224.348 4.32C224.268 4.41333 224.228 4.52 224.228 4.64C224.228 4.8 224.348 4.92 224.588 5C224.841 5.08 225.154 5.16667 225.528 5.26L227.348 5.68C228.694 5.98667 229.708 6.44 230.388 7.04C231.081 7.64 231.428 8.47333 231.428 9.54C231.428 10.6067 231.168 11.4867 230.648 12.18C230.128 12.86 229.421 13.3667 228.528 13.7C227.648 14.0333 226.648 14.2 225.528 14.2C224.688 14.2 223.848 14.1267 223.008 13.98C222.168 13.82 221.388 13.5933 220.668 13.3C219.948 12.9933 219.328 12.6267 218.808 12.2L220.648 9.14C221.034 9.44667 221.501 9.72667 222.048 9.98C222.594 10.22 223.161 10.4133 223.748 10.56C224.334 10.7067 224.881 10.78 225.388 10.78C225.708 10.78 225.961 10.7533 226.148 10.7C226.334 10.6467 226.461 10.58 226.528 10.5C226.608 10.4067 226.648 10.3 226.648 10.18C226.648 9.99333 226.568 9.85333 226.408 9.76C226.261 9.66667 225.988 9.57333 225.588 9.48L223.588 9.04C222.881 8.88 222.208 8.66667 221.568 8.4C220.928 8.13333 220.408 7.74667 220.008 7.24C219.608 6.72 219.408 6.02 219.408 5.14C219.408 4.23333 219.648 3.44 220.128 2.76C220.621 2.08 221.328 1.55333 222.248 1.18C223.181 0.793333 224.308 0.6 225.628 0.6ZM238.596 0.6C239.863 0.6 240.996 0.76 241.996 1.08C243.01 1.38667 243.903 1.85333 244.676 2.48L242.796 5.48C242.17 5.04 241.51 4.68667 240.816 4.42C240.136 4.15333 239.396 4.02 238.596 4.02C238.25 4.02 237.97 4.04667 237.756 4.1C237.556 4.15333 237.41 4.22667 237.316 4.32C237.236 4.41333 237.196 4.52 237.196 4.64C237.196 4.8 237.316 4.92 237.556 5C237.81 5.08 238.123 5.16667 238.496 5.26L240.316 5.68C241.663 5.98667 242.676 6.44 243.356 7.04C244.05 7.64 244.396 8.47333 244.396 9.54C244.396 10.6067 244.136 11.4867 243.616 12.18C243.096 12.86 242.39 13.3667 241.496 13.7C240.616 14.0333 239.616 14.2 238.496 14.2C237.656 14.2 236.816 14.1267 235.976 13.98C235.136 13.82 234.356 13.5933 233.636 13.3C232.916 12.9933 232.296 12.6267 231.776 12.2L233.616 9.14C234.003 9.44667 234.47 9.72667 235.016 9.98C235.563 10.22 236.13 10.4133 236.716 10.56C237.303 10.7067 237.85 10.78 238.356 10.78C238.676 10.78 238.93 10.7533 239.116 10.7C239.303 10.6467 239.43 10.58 239.496 10.5C239.576 10.4067 239.616 10.3 239.616 10.18C239.616 9.99333 239.536 9.85333 239.376 9.76C239.23 9.66667 238.956 9.57333 238.556 9.48L236.556 9.04C235.85 8.88 235.176 8.66667 234.536 8.4C233.896 8.13333 233.376 7.74667 232.976 7.24C232.576 6.72 232.376 6.02 232.376 5.14C232.376 4.23333 232.616 3.44 233.096 2.76C233.59 2.08 234.296 1.55333 235.216 1.18C236.15 0.793333 237.276 0.6 238.596 0.6ZM258.765 14H254.005L253.405 11.48H249.845L249.225 14H244.585L248.865 0.799999H254.465L258.765 14ZM250.545 8.58H252.725L251.645 4L250.545 8.58ZM271.447 9.96C271.207 10.9867 270.794 11.8133 270.207 12.44C269.634 13.0667 268.934 13.52 268.107 13.8C267.28 14.0667 266.36 14.2 265.347 14.2C263.96 14.2 262.76 13.9333 261.747 13.4C260.747 12.8667 259.974 12.0933 259.427 11.08C258.894 10.0667 258.627 8.84 258.627 7.4C258.627 5.96 258.894 4.73333 259.427 3.72C259.974 2.70667 260.747 1.93333 261.747 1.4C262.76 0.866666 263.96 0.6 265.347 0.6C266.32 0.6 267.227 0.739999 268.067 1.02C268.907 1.28667 269.614 1.71333 270.187 2.3C270.774 2.88667 271.16 3.65333 271.347 4.6L267.347 6.16C267.24 5.29333 267.02 4.73333 266.687 4.48C266.367 4.22667 265.96 4.1 265.467 4.1C265.014 4.1 264.627 4.22 264.307 4.46C264 4.68667 263.767 5.04667 263.607 5.54C263.46 6.02 263.387 6.64 263.387 7.4C263.387 8.14667 263.454 8.76667 263.587 9.26C263.734 9.75333 263.967 10.12 264.287 10.36C264.607 10.5867 265.034 10.7 265.567 10.7C266.047 10.7 266.44 10.56 266.747 10.28C267.054 9.98667 267.247 9.52667 267.327 8.9L271.447 9.96ZM279.742 0.799999C281.462 0.799999 282.782 1.18667 283.702 1.96C284.622 2.72 285.082 3.73333 285.082 5C285.082 6.45333 284.629 7.54667 283.722 8.28C282.829 9.01333 281.522 9.38 279.802 9.38L279.342 9.62H277.142V14H272.582V0.799999H279.742ZM278.942 6.56C279.435 6.56 279.802 6.47333 280.042 6.3C280.295 6.11333 280.422 5.79333 280.422 5.34C280.422 4.9 280.295 4.58667 280.042 4.4C279.802 4.21333 279.435 4.12 278.942 4.12H277.142V6.56H278.942ZM281.702 7.54L285.822 14H280.762L277.682 8.22L281.702 7.54ZM286.684 14V0.799999H297.644V4.22H291.344V5.86H296.424V9.02H291.344V10.58H297.884V14H286.684ZM301.495 9.88C302.108 9.88 302.602 10.0133 302.975 10.28C303.362 10.5467 303.642 10.8933 303.815 11.32C304.002 11.7333 304.095 12.18 304.095 12.66C304.095 13.38 303.928 14.0533 303.595 14.68C303.275 15.32 302.868 15.8667 302.375 16.32C301.882 16.7867 301.395 17.12 300.915 17.32L299.175 16.14C299.548 15.9667 299.902 15.7667 300.235 15.54C300.582 15.3133 300.895 15.0667 301.175 14.8C301.455 14.5333 301.675 14.26 301.835 13.98L301.735 13.9C301.642 13.9533 301.535 13.9933 301.415 14.02C301.295 14.06 301.142 14.08 300.955 14.08C300.662 14.08 300.368 14.0133 300.075 13.88C299.782 13.7333 299.535 13.52 299.335 13.24C299.135 12.96 299.035 12.6067 299.035 12.18C299.035 11.6333 299.148 11.1933 299.375 10.86C299.615 10.5267 299.922 10.28 300.295 10.12C300.682 9.96 301.082 9.88 301.495 9.88ZM310.668 14V11.2C311.668 10.6667 312.535 10.1333 313.268 9.6C314.015 9.06667 314.628 8.54667 315.108 8.04C315.602 7.52 315.968 7.03333 316.208 6.58C316.448 6.11333 316.568 5.68667 316.568 5.3C316.568 4.98 316.488 4.7 316.328 4.46C316.168 4.22 315.888 4.1 315.488 4.1C315.035 4.1 314.702 4.28667 314.488 4.66C314.275 5.03333 314.182 5.62667 314.208 6.44L310.228 5.48C310.202 4.36 310.435 3.44 310.928 2.72C311.422 2 312.095 1.46667 312.948 1.12C313.815 0.773333 314.768 0.6 315.808 0.6C316.808 0.6 317.648 0.739999 318.328 1.02C319.022 1.28667 319.575 1.64 319.988 2.08C320.402 2.50667 320.695 2.97333 320.868 3.48C321.055 3.97333 321.148 4.44667 321.148 4.9C321.148 5.78 320.915 6.57333 320.448 7.28C319.995 7.98667 319.382 8.62 318.608 9.18C317.835 9.74 316.975 10.2467 316.028 10.7V10.74C316.308 10.7133 316.615 10.6933 316.948 10.68C317.295 10.6533 317.655 10.64 318.028 10.64C318.415 10.6267 318.795 10.62 319.168 10.62H321.228V14H310.668ZM328.338 14.2C326.338 14.2 324.858 13.6333 323.898 12.5C322.951 11.3667 322.478 9.66667 322.478 7.4C322.478 5.13333 322.951 3.43333 323.898 2.3C324.858 1.16667 326.338 0.6 328.338 0.6C330.338 0.6 331.811 1.16667 332.758 2.3C333.718 3.43333 334.198 5.13333 334.198 7.4C334.198 9.66667 333.718 11.3667 332.758 12.5C331.811 13.6333 330.338 14.2 328.338 14.2ZM328.338 10.7C328.684 10.7 328.951 10.6067 329.138 10.42C329.324 10.2333 329.451 9.9 329.518 9.42C329.598 8.94 329.638 8.26667 329.638 7.4C329.638 6.53333 329.598 5.86 329.518 5.38C329.451 4.9 329.324 4.56667 329.138 4.38C328.951 4.19333 328.684 4.1 328.338 4.1C328.004 4.1 327.738 4.19333 327.538 4.38C327.351 4.56667 327.218 4.9 327.138 5.38C327.071 5.86 327.038 6.53333 327.038 7.4C327.038 8.26667 327.071 8.94 327.138 9.42C327.218 9.9 327.351 10.2333 327.538 10.42C327.738 10.6067 328.004 10.7 328.338 10.7ZM335.942 14V11.2C336.942 10.6667 337.809 10.1333 338.542 9.6C339.289 9.06667 339.902 8.54667 340.382 8.04C340.875 7.52 341.242 7.03333 341.482 6.58C341.722 6.11333 341.842 5.68667 341.842 5.3C341.842 4.98 341.762 4.7 341.602 4.46C341.442 4.22 341.162 4.1 340.762 4.1C340.309 4.1 339.975 4.28667 339.762 4.66C339.549 5.03333 339.455 5.62667 339.482 6.44L335.502 5.48C335.475 4.36 335.709 3.44 336.202 2.72C336.695 2 337.369 1.46667 338.222 1.12C339.089 0.773333 340.042 0.6 341.082 0.6C342.082 0.6 342.922 0.739999 343.602 1.02C344.295 1.28667 344.849 1.64 345.262 2.08C345.675 2.50667 345.969 2.97333 346.142 3.48C346.329 3.97333 346.422 4.44667 346.422 4.9C346.422 5.78 346.189 6.57333 345.722 7.28C345.269 7.98667 344.655 8.62 343.882 9.18C343.109 9.74 342.249 10.2467 341.302 10.7V10.74C341.582 10.7133 341.889 10.6933 342.222 10.68C342.569 10.6533 342.929 10.64 343.302 10.64C343.689 10.6267 344.069 10.62 344.442 10.62H346.502V14H335.942ZM348.051 14V11.2C349.051 10.6667 349.918 10.1333 350.651 9.6C351.398 9.06667 352.011 8.54667 352.491 8.04C352.985 7.52 353.351 7.03333 353.591 6.58C353.831 6.11333 353.951 5.68667 353.951 5.3C353.951 4.98 353.871 4.7 353.711 4.46C353.551 4.22 353.271 4.1 352.871 4.1C352.418 4.1 352.085 4.28667 351.871 4.66C351.658 5.03333 351.565 5.62667 351.591 6.44L347.611 5.48C347.585 4.36 347.818 3.44 348.311 2.72C348.805 2 349.478 1.46667 350.331 1.12C351.198 0.773333 352.151 0.6 353.191 0.6C354.191 0.6 355.031 0.739999 355.711 1.02C356.405 1.28667 356.958 1.64 357.371 2.08C357.785 2.50667 358.078 2.97333 358.251 3.48C358.438 3.97333 358.531 4.44667 358.531 4.9C358.531 5.78 358.298 6.57333 357.831 7.28C357.378 7.98667 356.765 8.62 355.991 9.18C355.218 9.74 354.358 10.2467 353.411 10.7V10.74C353.691 10.7133 353.998 10.6933 354.331 10.68C354.678 10.6533 355.038 10.64 355.411 10.64C355.798 10.6267 356.178 10.62 356.551 10.62H358.611V14H348.051ZM2.16 40V26.8H6.86C8.42 26.8 9.56 27.1267 10.28 27.78C11 28.4333 11.36 29.32 11.36 30.44C11.36 31.1067 11.1667 31.7133 10.78 32.26C10.3933 32.7933 9.84667 33.1333 9.14 33.28V33.3C9.92667 33.4467 10.5467 33.8067 11 34.38C11.4667 34.94 11.7 35.58 11.7 36.3C11.7 37.42 11.28 38.32 10.44 39C9.6 39.6667 8.4 40 6.84 40H2.16ZM3.76 38.5H7.22C8.16667 38.5 8.86667 38.3067 9.32 37.92C9.78667 37.5333 10.02 36.9933 10.02 36.3C10.02 35.5933 9.78667 35.0533 9.32 34.68C8.86667 34.2933 8.16667 34.1 7.22 34.1H3.76V38.5ZM3.76 32.6H6.88C8.74667 32.6 9.68 31.88 9.68 30.44C9.68 29.0133 8.74667 28.3 6.88 28.3H3.76V32.6ZM19.1064 40.2C18.1597 40.2 17.3131 39.9933 16.5664 39.58C15.8331 39.1667 15.2597 38.5733 14.8464 37.8C14.4331 37.0133 14.2264 36.08 14.2264 35C14.2264 33.92 14.4331 32.9933 14.8464 32.22C15.2597 31.4333 15.8264 30.8333 16.5464 30.42C17.2664 30.0067 18.0864 29.8 19.0064 29.8C19.9397 29.8 20.7331 30 21.3864 30.4C22.0531 30.8 22.5597 31.3467 22.9064 32.04C23.2531 32.72 23.4264 33.4867 23.4264 34.34C23.4264 34.5667 23.4197 34.7733 23.4064 34.96C23.3931 35.1467 23.3731 35.3133 23.3464 35.46H15.2664V34.04H22.6464L21.8264 34.2C21.8264 33.24 21.5597 32.5 21.0264 31.98C20.5064 31.46 19.8197 31.2 18.9664 31.2C18.3131 31.2 17.7464 31.3533 17.2664 31.66C16.7997 31.9533 16.4331 32.3867 16.1664 32.96C15.9131 33.52 15.7864 34.2 15.7864 35C15.7864 35.7867 15.9197 36.4667 16.1864 37.04C16.4531 37.6133 16.8264 38.0533 17.3064 38.36C17.7997 38.6533 18.3864 38.8 19.0664 38.8C19.7997 38.8 20.3931 38.66 20.8464 38.38C21.3131 38.1 21.6864 37.72 21.9664 37.24L23.2264 37.98C22.9731 38.4333 22.6464 38.8267 22.2464 39.16C21.8597 39.4933 21.3997 39.7533 20.8664 39.94C20.3464 40.1133 19.7597 40.2 19.1064 40.2ZM26.4694 40V30H27.8694L28.0094 32.24L27.7494 32.02C27.9627 31.4867 28.2494 31.06 28.6094 30.74C28.9694 30.4067 29.3827 30.1667 29.8494 30.02C30.3294 29.8733 30.8227 29.8 31.3294 29.8C32.0494 29.8 32.7027 29.94 33.2894 30.22C33.876 30.4867 34.3427 30.9 34.6894 31.46C35.0494 32.02 35.2294 32.7333 35.2294 33.6V40H33.6294V34.16C33.6294 33.0533 33.3894 32.2867 32.9094 31.86C32.4427 31.42 31.8627 31.2 31.1694 31.2C30.6894 31.2 30.2094 31.3133 29.7294 31.54C29.2494 31.7667 28.8494 32.1333 28.5294 32.64C28.2227 33.1467 28.0694 33.8267 28.0694 34.68V40H26.4694ZM43.0322 40.2C42.0855 40.2 41.2389 39.9933 40.4922 39.58C39.7589 39.1667 39.1855 38.5733 38.7722 37.8C38.3589 37.0133 38.1522 36.08 38.1522 35C38.1522 33.92 38.3589 32.9933 38.7722 32.22C39.1855 31.4333 39.7522 30.8333 40.4722 30.42C41.1922 30.0067 42.0122 29.8 42.9322 29.8C43.8655 29.8 44.6589 30 45.3122 30.4C45.9789 30.8 46.4855 31.3467 46.8322 32.04C47.1789 32.72 47.3522 33.4867 47.3522 34.34C47.3522 34.5667 47.3455 34.7733 47.3322 34.96C47.3189 35.1467 47.2989 35.3133 47.2722 35.46H39.1922V34.04H46.5722L45.7522 34.2C45.7522 33.24 45.4855 32.5 44.9522 31.98C44.4322 31.46 43.7455 31.2 42.8922 31.2C42.2389 31.2 41.6722 31.3533 41.1922 31.66C40.7255 31.9533 40.3589 32.3867 40.0922 32.96C39.8389 33.52 39.7122 34.2 39.7122 35C39.7122 35.7867 39.8455 36.4667 40.1122 37.04C40.3789 37.6133 40.7522 38.0533 41.2322 38.36C41.7255 38.6533 42.3122 38.8 42.9922 38.8C43.7255 38.8 44.3189 38.66 44.7722 38.38C45.2389 38.1 45.6122 37.72 45.8922 37.24L47.1522 37.98C46.8989 38.4333 46.5722 38.8267 46.1722 39.16C45.7855 39.4933 45.3255 39.7533 44.7922 39.94C44.2722 40.1133 43.6855 40.2 43.0322 40.2ZM56.2352 33.54C56.2352 32.7933 56.0352 32.22 55.6352 31.82C55.2352 31.4067 54.6685 31.2 53.9352 31.2C53.2418 31.2 52.6552 31.3533 52.1752 31.66C51.6952 31.9533 51.3418 32.4333 51.1152 33.1L49.8152 32.3C50.0818 31.5533 50.5752 30.9533 51.2952 30.5C52.0152 30.0333 52.9085 29.8 53.9752 29.8C54.6952 29.8 55.3485 29.9267 55.9352 30.18C56.5218 30.42 56.9818 30.7933 57.3152 31.3C57.6618 31.7933 57.8352 32.4333 57.8352 33.22V38.06C57.8352 38.54 58.0885 38.78 58.5952 38.78C58.8485 38.78 59.0952 38.7467 59.3352 38.68L59.2552 39.94C58.9885 40.0733 58.6418 40.14 58.2152 40.14C57.8285 40.14 57.4818 40.0667 57.1752 39.92C56.8685 39.7733 56.6285 39.5533 56.4552 39.26C56.2818 38.9533 56.1952 38.5733 56.1952 38.12V37.92L56.5952 37.98C56.4352 38.5 56.1618 38.9267 55.7752 39.26C55.3885 39.58 54.9552 39.82 54.4752 39.98C53.9952 40.1267 53.5218 40.2 53.0552 40.2C52.4685 40.2 51.9218 40.1 51.4152 39.9C50.9085 39.7 50.5018 39.4 50.1952 39C49.9018 38.5867 49.7552 38.08 49.7552 37.48C49.7552 36.7333 50.0018 36.12 50.4952 35.64C51.0018 35.1467 51.7018 34.8133 52.5952 34.64L56.5552 33.86V35.18L53.3352 35.84C52.6818 35.9733 52.1952 36.16 51.8752 36.4C51.5552 36.64 51.3952 36.9733 51.3952 37.4C51.3952 37.8133 51.5552 38.1533 51.8752 38.42C52.2085 38.6733 52.6752 38.8 53.2752 38.8C53.6618 38.8 54.0285 38.7533 54.3752 38.66C54.7352 38.5533 55.0552 38.4 55.3352 38.2C55.6152 37.9867 55.8352 37.7267 55.9952 37.42C56.1552 37.1 56.2352 36.7267 56.2352 36.3V33.54ZM63.6927 27.16V37.24C63.6927 37.7333 63.8327 38.1 64.1127 38.34C64.3927 38.58 64.7527 38.7 65.1927 38.7C65.5793 38.7 65.9127 38.6333 66.1927 38.5C66.4727 38.3667 66.726 38.1867 66.9527 37.96L67.5127 39.3C67.206 39.58 66.8393 39.8 66.4127 39.96C65.9993 40.12 65.5193 40.2 64.9727 40.2C64.466 40.2 63.9927 40.1133 63.5527 39.94C63.1127 39.7533 62.7593 39.4667 62.4927 39.08C62.2393 38.68 62.106 38.16 62.0927 37.52V27.6L63.6927 27.16ZM67.3327 30V31.38H60.0927V30H67.3327ZM69.7116 40V25.4H71.3116V31.5C71.6582 30.9 72.1182 30.4667 72.6916 30.2C73.2649 29.9333 73.8916 29.8 74.5716 29.8C75.2916 29.8 75.9449 29.94 76.5316 30.22C77.1182 30.4867 77.5849 30.9 77.9316 31.46C78.2916 32.02 78.4716 32.7333 78.4716 33.6V40H76.8716V34.16C76.8716 33.0533 76.6316 32.2867 76.1516 31.86C75.6849 31.42 75.1049 31.2 74.4116 31.2C73.9316 31.2 73.4516 31.3133 72.9716 31.54C72.4916 31.7667 72.0916 32.14 71.7716 32.66C71.4649 33.1667 71.3116 33.8467 71.3116 34.7V40H69.7116ZM90.8108 38.5H98.3708V40H89.2108V26.8H90.8108V38.5ZM104.751 40.2C103.804 40.2 102.958 39.9933 102.211 39.58C101.478 39.1667 100.904 38.5733 100.491 37.8C100.078 37.0133 99.8709 36.08 99.8709 35C99.8709 33.92 100.078 32.9933 100.491 32.22C100.904 31.4333 101.471 30.8333 102.191 30.42C102.911 30.0067 103.731 29.8 104.651 29.8C105.584 29.8 106.378 30 107.031 30.4C107.698 30.8 108.204 31.3467 108.551 32.04C108.898 32.72 109.071 33.4867 109.071 34.34C109.071 34.5667 109.064 34.7733 109.051 34.96C109.038 35.1467 109.018 35.3133 108.991 35.46H100.911V34.04H108.291L107.471 34.2C107.471 33.24 107.204 32.5 106.671 31.98C106.151 31.46 105.464 31.2 104.611 31.2C103.958 31.2 103.391 31.3533 102.911 31.66C102.444 31.9533 102.078 32.3867 101.811 32.96C101.558 33.52 101.431 34.2 101.431 35C101.431 35.7867 101.564 36.4667 101.831 37.04C102.098 37.6133 102.471 38.0533 102.951 38.36C103.444 38.6533 104.031 38.8 104.711 38.8C105.444 38.8 106.038 38.66 106.491 38.38C106.958 38.1 107.331 37.72 107.611 37.24L108.871 37.98C108.618 38.4333 108.291 38.8267 107.891 39.16C107.504 39.4933 107.044 39.7533 106.511 39.94C105.991 40.1133 105.404 40.2 104.751 40.2ZM117.954 33.54C117.954 32.7933 117.754 32.22 117.354 31.82C116.954 31.4067 116.387 31.2 115.654 31.2C114.961 31.2 114.374 31.3533 113.894 31.66C113.414 31.9533 113.061 32.4333 112.834 33.1L111.534 32.3C111.801 31.5533 112.294 30.9533 113.014 30.5C113.734 30.0333 114.627 29.8 115.694 29.8C116.414 29.8 117.067 29.9267 117.654 30.18C118.241 30.42 118.701 30.7933 119.034 31.3C119.381 31.7933 119.554 32.4333 119.554 33.22V38.06C119.554 38.54 119.807 38.78 120.314 38.78C120.567 38.78 120.814 38.7467 121.054 38.68L120.974 39.94C120.707 40.0733 120.361 40.14 119.934 40.14C119.547 40.14 119.201 40.0667 118.894 39.92C118.587 39.7733 118.347 39.5533 118.174 39.26C118.001 38.9533 117.914 38.5733 117.914 38.12V37.92L118.314 37.98C118.154 38.5 117.881 38.9267 117.494 39.26C117.107 39.58 116.674 39.82 116.194 39.98C115.714 40.1267 115.241 40.2 114.774 40.2C114.187 40.2 113.641 40.1 113.134 39.9C112.627 39.7 112.221 39.4 111.914 39C111.621 38.5867 111.474 38.08 111.474 37.48C111.474 36.7333 111.721 36.12 112.214 35.64C112.721 35.1467 113.421 34.8133 114.314 34.64L118.274 33.86V35.18L115.054 35.84C114.401 35.9733 113.914 36.16 113.594 36.4C113.274 36.64 113.114 36.9733 113.114 37.4C113.114 37.8133 113.274 38.1533 113.594 38.42C113.927 38.6733 114.394 38.8 114.994 38.8C115.381 38.8 115.747 38.7533 116.094 38.66C116.454 38.5533 116.774 38.4 117.054 38.2C117.334 37.9867 117.554 37.7267 117.714 37.42C117.874 37.1 117.954 36.7267 117.954 36.3V33.54ZM125.411 27.16V37.24C125.411 37.7333 125.551 38.1 125.831 38.34C126.111 38.58 126.471 38.7 126.911 38.7C127.298 38.7 127.631 38.6333 127.911 38.5C128.191 38.3667 128.445 38.1867 128.671 37.96L129.231 39.3C128.925 39.58 128.558 39.8 128.131 39.96C127.718 40.12 127.238 40.2 126.691 40.2C126.185 40.2 125.711 40.1133 125.271 39.94C124.831 39.7533 124.478 39.4667 124.211 39.08C123.958 38.68 123.825 38.16 123.811 37.52V27.6L125.411 27.16ZM129.051 30V31.38H121.811V30H129.051ZM131.43 40V25.4H133.03V31.5C133.377 30.9 133.837 30.4667 134.41 30.2C134.984 29.9333 135.61 29.8 136.29 29.8C137.01 29.8 137.664 29.94 138.25 30.22C138.837 30.4867 139.304 30.9 139.65 31.46C140.01 32.02 140.19 32.7333 140.19 33.6V40H138.59V34.16C138.59 33.0533 138.35 32.2867 137.87 31.86C137.404 31.42 136.824 31.2 136.13 31.2C135.65 31.2 135.17 31.3133 134.69 31.54C134.21 31.7667 133.81 32.14 133.49 32.66C133.184 33.1667 133.03 33.8467 133.03 34.7V40H131.43ZM147.993 40.2C147.046 40.2 146.2 39.9933 145.453 39.58C144.72 39.1667 144.146 38.5733 143.733 37.8C143.32 37.0133 143.113 36.08 143.113 35C143.113 33.92 143.32 32.9933 143.733 32.22C144.146 31.4333 144.713 30.8333 145.433 30.42C146.153 30.0067 146.973 29.8 147.893 29.8C148.826 29.8 149.62 30 150.273 30.4C150.94 30.8 151.446 31.3467 151.793 32.04C152.14 32.72 152.313 33.4867 152.313 34.34C152.313 34.5667 152.306 34.7733 152.293 34.96C152.28 35.1467 152.26 35.3133 152.233 35.46H144.153V34.04H151.533L150.713 34.2C150.713 33.24 150.446 32.5 149.913 31.98C149.393 31.46 148.706 31.2 147.853 31.2C147.2 31.2 146.633 31.3533 146.153 31.66C145.686 31.9533 145.32 32.3867 145.053 32.96C144.8 33.52 144.673 34.2 144.673 35C144.673 35.7867 144.806 36.4667 145.073 37.04C145.34 37.6133 145.713 38.0533 146.193 38.36C146.686 38.6533 147.273 38.8 147.953 38.8C148.686 38.8 149.28 38.66 149.733 38.38C150.2 38.1 150.573 37.72 150.853 37.24L152.113 37.98C151.86 38.4333 151.533 38.8267 151.133 39.16C150.746 39.4933 150.286 39.7533 149.753 39.94C149.233 40.1133 148.646 40.2 147.993 40.2ZM155.356 40V30H156.656L156.876 31.64C157.156 31.0267 157.563 30.5667 158.096 30.26C158.643 29.9533 159.303 29.8 160.076 29.8C160.249 29.8 160.436 29.8133 160.636 29.84C160.849 29.8667 161.029 29.92 161.176 30L160.896 31.46C160.749 31.4067 160.589 31.3667 160.416 31.34C160.243 31.3133 159.996 31.3 159.676 31.3C159.263 31.3 158.843 31.42 158.416 31.66C158.003 31.9 157.656 32.2667 157.376 32.76C157.096 33.24 156.956 33.8533 156.956 34.6V40H155.356ZM167.58 25.3C167.927 25.3 168.253 25.34 168.56 25.42C168.867 25.5 169.107 25.6133 169.28 25.76L168.86 27.06C168.7 26.9533 168.527 26.88 168.34 26.84C168.153 26.7867 167.947 26.76 167.72 26.76C167.147 26.76 166.7 26.9 166.38 27.18C166.06 27.4467 165.9 27.88 165.9 28.48V30V30.52V40H164.3V28.32C164.3 27.88 164.367 27.4733 164.5 27.1C164.633 26.7267 164.833 26.4067 165.1 26.14C165.38 25.8733 165.727 25.6667 166.14 25.52C166.553 25.3733 167.033 25.3 167.58 25.3ZM169.24 30V31.38H162.3V30H169.24ZM176.606 33.54C176.606 32.7933 176.406 32.22 176.006 31.82C175.606 31.4067 175.04 31.2 174.306 31.2C173.613 31.2 173.026 31.3533 172.546 31.66C172.066 31.9533 171.713 32.4333 171.486 33.1L170.186 32.3C170.453 31.5533 170.946 30.9533 171.666 30.5C172.386 30.0333 173.28 29.8 174.346 29.8C175.066 29.8 175.72 29.9267 176.306 30.18C176.893 30.42 177.353 30.7933 177.686 31.3C178.033 31.7933 178.206 32.4333 178.206 33.22V38.06C178.206 38.54 178.46 38.78 178.966 38.78C179.22 38.78 179.466 38.7467 179.706 38.68L179.626 39.94C179.36 40.0733 179.013 40.14 178.586 40.14C178.2 40.14 177.853 40.0667 177.546 39.92C177.24 39.7733 177 39.5533 176.826 39.26C176.653 38.9533 176.566 38.5733 176.566 38.12V37.92L176.966 37.98C176.806 38.5 176.533 38.9267 176.146 39.26C175.76 39.58 175.326 39.82 174.846 39.98C174.366 40.1267 173.893 40.2 173.426 40.2C172.84 40.2 172.293 40.1 171.786 39.9C171.28 39.7 170.873 39.4 170.566 39C170.273 38.5867 170.126 38.08 170.126 37.48C170.126 36.7333 170.373 36.12 170.866 35.64C171.373 35.1467 172.073 34.8133 172.966 34.64L176.926 33.86V35.18L173.706 35.84C173.053 35.9733 172.566 36.16 172.246 36.4C171.926 36.64 171.766 36.9733 171.766 37.4C171.766 37.8133 171.926 38.1533 172.246 38.42C172.58 38.6733 173.046 38.8 173.646 38.8C174.033 38.8 174.4 38.7533 174.746 38.66C175.106 38.5533 175.426 38.4 175.706 38.2C175.986 37.9867 176.206 37.7267 176.366 37.42C176.526 37.1 176.606 36.7267 176.606 36.3V33.54ZM186.234 29.8C186.928 29.8 187.534 29.9067 188.054 30.12C188.588 30.3333 189.048 30.64 189.434 31.04C189.821 31.44 190.134 31.9133 190.374 32.46L188.854 33.18C188.641 32.54 188.314 32.0533 187.874 31.72C187.448 31.3733 186.888 31.2 186.194 31.2C185.528 31.2 184.954 31.3533 184.474 31.66C183.994 31.9533 183.628 32.3867 183.374 32.96C183.121 33.52 182.994 34.2 182.994 35C182.994 35.7867 183.121 36.4667 183.374 37.04C183.628 37.6133 183.994 38.0533 184.474 38.36C184.954 38.6533 185.528 38.8 186.194 38.8C186.714 38.8 187.161 38.72 187.534 38.56C187.921 38.4 188.234 38.1667 188.474 37.86C188.728 37.5533 188.901 37.18 188.994 36.74L190.474 37.26C190.248 37.8733 189.934 38.4 189.534 38.84C189.148 39.28 188.674 39.62 188.114 39.86C187.568 40.0867 186.941 40.2 186.234 40.2C185.301 40.2 184.468 39.9933 183.734 39.58C183.001 39.1667 182.428 38.5733 182.014 37.8C181.601 37.0133 181.394 36.08 181.394 35C181.394 33.92 181.601 32.9933 182.014 32.22C182.428 31.4333 183.001 30.8333 183.734 30.42C184.468 30.0067 185.301 29.8 186.234 29.8ZM197.466 40.2C196.519 40.2 195.672 39.9933 194.926 39.58C194.192 39.1667 193.619 38.5733 193.206 37.8C192.792 37.0133 192.586 36.08 192.586 35C192.586 33.92 192.792 32.9933 193.206 32.22C193.619 31.4333 194.186 30.8333 194.906 30.42C195.626 30.0067 196.446 29.8 197.366 29.8C198.299 29.8 199.092 30 199.746 30.4C200.412 30.8 200.919 31.3467 201.266 32.04C201.612 32.72 201.786 33.4867 201.786 34.34C201.786 34.5667 201.779 34.7733 201.766 34.96C201.752 35.1467 201.732 35.3133 201.706 35.46H193.626V34.04H201.006L200.186 34.2C200.186 33.24 199.919 32.5 199.386 31.98C198.866 31.46 198.179 31.2 197.326 31.2C196.672 31.2 196.106 31.3533 195.626 31.66C195.159 31.9533 194.792 32.3867 194.526 32.96C194.272 33.52 194.146 34.2 194.146 35C194.146 35.7867 194.279 36.4667 194.546 37.04C194.812 37.6133 195.186 38.0533 195.666 38.36C196.159 38.6533 196.746 38.8 197.426 38.8C198.159 38.8 198.752 38.66 199.206 38.38C199.672 38.1 200.046 37.72 200.326 37.24L201.586 37.98C201.332 38.4333 201.006 38.8267 200.606 39.16C200.219 39.4933 199.759 39.7533 199.226 39.94C198.706 40.1133 198.119 40.2 197.466 40.2ZM204.847 26C205.167 26 205.433 26.0867 205.647 26.26C205.873 26.42 206.047 26.6467 206.167 26.94C206.287 27.22 206.347 27.5533 206.347 27.94C206.347 28.38 206.267 28.8133 206.107 29.24C205.96 29.6667 205.727 30.06 205.407 30.42C205.087 30.78 204.673 31.08 204.167 31.32L203.327 30.54C203.687 30.42 204 30.2533 204.267 30.04C204.547 29.8267 204.773 29.5867 204.947 29.32C205.12 29.0533 205.233 28.78 205.287 28.5L205.207 28.46C205.153 28.5 205.087 28.5333 205.007 28.56C204.927 28.5867 204.807 28.6 204.647 28.6C204.487 28.6 204.32 28.5533 204.147 28.46C203.987 28.3667 203.847 28.2333 203.727 28.06C203.607 27.8733 203.547 27.6333 203.547 27.34C203.547 27.1 203.607 26.88 203.727 26.68C203.847 26.4667 204 26.3 204.187 26.18C204.387 26.06 204.607 26 204.847 26ZM211.847 40.2C210.873 40.2 209.973 39.9933 209.147 39.58C208.333 39.1667 207.707 38.58 207.267 37.82L208.627 36.84C208.92 37.4533 209.347 37.9333 209.907 38.28C210.48 38.6267 211.167 38.8 211.967 38.8C212.673 38.8 213.227 38.6667 213.627 38.4C214.027 38.12 214.227 37.76 214.227 37.32C214.227 37.04 214.133 36.7867 213.947 36.56C213.773 36.32 213.433 36.1467 212.927 36.04L210.527 35.54C209.553 35.34 208.853 35.0067 208.427 34.54C208.013 34.0733 207.807 33.4933 207.807 32.8C207.807 32.2533 207.96 31.7533 208.267 31.3C208.587 30.8467 209.033 30.4867 209.607 30.22C210.193 29.94 210.88 29.8 211.667 29.8C212.653 29.8 213.487 29.9933 214.167 30.38C214.847 30.7667 215.353 31.3133 215.687 32.02L214.347 32.9C214.12 32.3133 213.753 31.8867 213.247 31.62C212.74 31.34 212.213 31.2 211.667 31.2C211.187 31.2 210.773 31.2667 210.427 31.4C210.093 31.5333 209.833 31.72 209.647 31.96C209.473 32.1867 209.387 32.4467 209.387 32.74C209.387 33.0333 209.487 33.3067 209.687 33.56C209.887 33.8 210.26 33.9733 210.807 34.08L213.307 34.6C214.24 34.7867 214.893 35.0933 215.267 35.52C215.64 35.9467 215.827 36.4667 215.827 37.08C215.827 37.7067 215.66 38.26 215.327 38.74C214.993 39.2067 214.527 39.5667 213.927 39.82C213.327 40.0733 212.633 40.2 211.847 40.2ZM230.51 40.2C229.95 40.2 229.43 40.1 228.95 39.9C228.47 39.7 228.057 39.42 227.71 39.06C227.363 38.7 227.103 38.2933 226.93 37.84L227.15 37.56L227.01 40H225.61V25.4H227.21V32.26L227.01 31.96C227.277 31.3333 227.723 30.82 228.35 30.42C228.99 30.0067 229.717 29.8 230.53 29.8C231.357 29.8 232.117 30.0067 232.81 30.42C233.503 30.8333 234.057 31.4267 234.47 32.2C234.883 32.9733 235.09 33.9067 235.09 35C235.09 36.08 234.877 37.0133 234.45 37.8C234.037 38.5733 233.483 39.1667 232.79 39.58C232.097 39.9933 231.337 40.2 230.51 40.2ZM230.35 38.8C231.337 38.8 232.103 38.4533 232.65 37.76C233.21 37.0667 233.49 36.1467 233.49 35C233.49 33.8533 233.217 32.9333 232.67 32.24C232.123 31.5467 231.357 31.2 230.37 31.2C229.743 31.2 229.19 31.36 228.71 31.68C228.243 32 227.877 32.4467 227.61 33.02C227.343 33.5933 227.21 34.2667 227.21 35.04C227.21 35.8 227.337 36.4667 227.59 37.04C227.857 37.6 228.223 38.0333 228.69 38.34C229.17 38.6467 229.723 38.8 230.35 38.8ZM242.289 29.8C243.236 29.8 244.069 30.0067 244.789 30.42C245.522 30.8333 246.096 31.4333 246.509 32.22C246.922 32.9933 247.129 33.92 247.129 35C247.129 36.08 246.922 37.0133 246.509 37.8C246.096 38.5733 245.522 39.1667 244.789 39.58C244.069 39.9933 243.236 40.2 242.289 40.2C241.356 40.2 240.522 39.9933 239.789 39.58C239.056 39.1667 238.482 38.5733 238.069 37.8C237.656 37.0133 237.449 36.08 237.449 35C237.449 33.92 237.656 32.9933 238.069 32.22C238.482 31.4333 239.056 30.8333 239.789 30.42C240.522 30.0067 241.356 29.8 242.289 29.8ZM242.289 31.18C241.609 31.18 241.029 31.3333 240.549 31.64C240.069 31.9467 239.696 32.3867 239.429 32.96C239.176 33.52 239.049 34.2 239.049 35C239.049 35.7867 239.176 36.4667 239.429 37.04C239.696 37.6133 240.069 38.0533 240.549 38.36C241.029 38.6667 241.609 38.82 242.289 38.82C242.969 38.82 243.549 38.6667 244.029 38.36C244.509 38.0533 244.876 37.6133 245.129 37.04C245.396 36.4667 245.529 35.7867 245.529 35C245.529 34.2 245.396 33.52 245.129 32.96C244.876 32.3867 244.509 31.9467 244.029 31.64C243.549 31.3333 242.969 31.18 242.289 31.18ZM252.325 27.16V37.24C252.325 37.7333 252.465 38.1 252.745 38.34C253.025 38.58 253.385 38.7 253.825 38.7C254.212 38.7 254.545 38.6333 254.825 38.5C255.105 38.3667 255.359 38.1867 255.585 37.96L256.145 39.3C255.839 39.58 255.472 39.8 255.045 39.96C254.632 40.12 254.152 40.2 253.605 40.2C253.099 40.2 252.625 40.1133 252.185 39.94C251.745 39.7533 251.392 39.4667 251.125 39.08C250.872 38.68 250.739 38.16 250.725 37.52V27.6L252.325 27.16ZM255.965 30V31.38H248.725V30H255.965ZM259.415 27.16V37.24C259.415 37.7333 259.555 38.1 259.835 38.34C260.115 38.58 260.475 38.7 260.915 38.7C261.302 38.7 261.635 38.6333 261.915 38.5C262.195 38.3667 262.449 38.1867 262.675 37.96L263.235 39.3C262.929 39.58 262.562 39.8 262.135 39.96C261.722 40.12 261.242 40.2 260.695 40.2C260.189 40.2 259.715 40.1133 259.275 39.94C258.835 39.7533 258.482 39.4667 258.215 39.08C257.962 38.68 257.829 38.16 257.815 37.52V27.6L259.415 27.16ZM263.055 30V31.38H255.815V30H263.055ZM269.574 29.8C270.521 29.8 271.354 30.0067 272.074 30.42C272.808 30.8333 273.381 31.4333 273.794 32.22C274.208 32.9933 274.414 33.92 274.414 35C274.414 36.08 274.208 37.0133 273.794 37.8C273.381 38.5733 272.808 39.1667 272.074 39.58C271.354 39.9933 270.521 40.2 269.574 40.2C268.641 40.2 267.808 39.9933 267.074 39.58C266.341 39.1667 265.768 38.5733 265.354 37.8C264.941 37.0133 264.734 36.08 264.734 35C264.734 33.92 264.941 32.9933 265.354 32.22C265.768 31.4333 266.341 30.8333 267.074 30.42C267.808 30.0067 268.641 29.8 269.574 29.8ZM269.574 31.18C268.894 31.18 268.314 31.3333 267.834 31.64C267.354 31.9467 266.981 32.3867 266.714 32.96C266.461 33.52 266.334 34.2 266.334 35C266.334 35.7867 266.461 36.4667 266.714 37.04C266.981 37.6133 267.354 38.0533 267.834 38.36C268.314 38.6667 268.894 38.82 269.574 38.82C270.254 38.82 270.834 38.6667 271.314 38.36C271.794 38.0533 272.161 37.6133 272.414 37.04C272.681 36.4667 272.814 35.7867 272.814 35C272.814 34.2 272.681 33.52 272.414 32.96C272.161 32.3867 271.794 31.9467 271.314 31.64C270.834 31.3333 270.254 31.18 269.574 31.18ZM277.426 40V30H278.826L278.926 31.56C279.286 30.9467 279.753 30.5 280.326 30.22C280.913 29.94 281.513 29.8 282.126 29.8C282.833 29.8 283.5 29.96 284.126 30.28C284.753 30.6 285.233 31.0933 285.566 31.76C285.78 31.3067 286.08 30.94 286.466 30.66C286.853 30.3667 287.273 30.1533 287.726 30.02C288.193 29.8733 288.633 29.8 289.046 29.8C289.686 29.8 290.293 29.9333 290.866 30.2C291.453 30.4667 291.933 30.88 292.306 31.44C292.68 32 292.866 32.72 292.866 33.6V40H291.266V33.76C291.266 32.8533 291.04 32.2 290.586 31.8C290.133 31.4 289.573 31.2 288.906 31.2C288.386 31.2 287.9 31.3267 287.446 31.58C286.993 31.8333 286.626 32.2067 286.346 32.7C286.08 33.1933 285.946 33.8 285.946 34.52V40H284.346V33.76C284.346 32.8533 284.12 32.2 283.666 31.8C283.213 31.4 282.653 31.2 281.986 31.2C281.546 31.2 281.093 31.32 280.626 31.56C280.173 31.7867 279.793 32.1533 279.486 32.66C279.18 33.1667 279.026 33.8333 279.026 34.66V40H277.426ZM304.825 25.4V37.46C304.825 37.9667 304.919 38.32 305.105 38.52C305.292 38.7067 305.592 38.8 306.005 38.8C306.272 38.8 306.492 38.78 306.665 38.74C306.839 38.7 307.072 38.6267 307.365 38.52L307.105 39.92C306.892 40.0133 306.659 40.08 306.405 40.12C306.152 40.1733 305.892 40.2 305.625 40.2C304.812 40.2 304.205 39.98 303.805 39.54C303.419 39.1 303.225 38.4267 303.225 37.52V25.4H304.825ZM310.219 28.08C309.859 28.08 309.565 27.9733 309.339 27.76C309.125 27.5333 309.019 27.24 309.019 26.88C309.019 26.52 309.125 26.2333 309.339 26.02C309.565 25.7933 309.859 25.68 310.219 25.68C310.579 25.68 310.865 25.7933 311.079 26.02C311.305 26.2333 311.419 26.52 311.419 26.88C311.419 27.24 311.305 27.5333 311.079 27.76C310.865 27.9733 310.579 28.08 310.219 28.08ZM311.019 30V40H309.419V30H311.019ZM314.731 44.2V30H316.131L316.271 32.44L316.051 32.16C316.224 31.6933 316.484 31.2867 316.831 30.94C317.178 30.58 317.598 30.3 318.091 30.1C318.584 29.9 319.118 29.8 319.691 29.8C320.504 29.8 321.251 30.0067 321.931 30.42C322.624 30.8333 323.178 31.4267 323.591 32.2C324.004 32.9733 324.211 33.9067 324.211 35C324.211 36.08 323.998 37.0133 323.571 37.8C323.158 38.5733 322.604 39.1667 321.911 39.58C321.218 39.9933 320.458 40.2 319.631 40.2C318.804 40.2 318.078 40 317.451 39.6C316.838 39.1867 316.398 38.6667 316.131 38.04L316.331 37.74V44.2H314.731ZM319.471 38.8C320.458 38.8 321.224 38.4533 321.771 37.76C322.331 37.0667 322.611 36.1467 322.611 35C322.611 33.8533 322.338 32.9333 321.791 32.24C321.258 31.5467 320.504 31.2 319.531 31.2C318.891 31.2 318.331 31.36 317.851 31.68C317.371 31.9867 316.998 32.4267 316.731 33C316.464 33.56 316.331 34.2267 316.331 35C316.331 35.76 316.458 36.4267 316.711 37C316.978 37.5733 317.344 38.02 317.811 38.34C318.291 38.6467 318.844 38.8 319.471 38.8ZM327.68 37.6C328 37.6 328.266 37.6867 328.48 37.86C328.706 38.02 328.88 38.2467 329 38.54C329.12 38.82 329.18 39.1533 329.18 39.54C329.18 39.98 329.1 40.4133 328.94 40.84C328.793 41.2667 328.56 41.66 328.24 42.02C327.92 42.38 327.506 42.68 327 42.92L326.16 42.14C326.52 42.02 326.833 41.8533 327.1 41.64C327.38 41.4267 327.606 41.1867 327.78 40.92C327.953 40.6533 328.066 40.38 328.12 40.1L328.04 40.06C327.986 40.1 327.92 40.1333 327.84 40.16C327.76 40.1867 327.64 40.2 327.48 40.2C327.32 40.2 327.153 40.1533 326.98 40.06C326.82 39.9667 326.68 39.8333 326.56 39.66C326.44 39.4733 326.38 39.2333 326.38 38.94C326.38 38.7 326.44 38.48 326.56 38.28C326.68 38.0667 326.833 37.9 327.02 37.78C327.22 37.66 327.44 37.6 327.68 37.6ZM344.848 33.54C344.848 32.7933 344.648 32.22 344.248 31.82C343.848 31.4067 343.282 31.2 342.548 31.2C341.855 31.2 341.268 31.3533 340.788 31.66C340.308 31.9533 339.955 32.4333 339.728 33.1L338.428 32.3C338.695 31.5533 339.188 30.9533 339.908 30.5C340.628 30.0333 341.522 29.8 342.588 29.8C343.308 29.8 343.962 29.9267 344.548 30.18C345.135 30.42 345.595 30.7933 345.928 31.3C346.275 31.7933 346.448 32.4333 346.448 33.22V38.06C346.448 38.54 346.702 38.78 347.208 38.78C347.462 38.78 347.708 38.7467 347.948 38.68L347.868 39.94C347.602 40.0733 347.255 40.14 346.828 40.14C346.442 40.14 346.095 40.0667 345.788 39.92C345.482 39.7733 345.242 39.5533 345.068 39.26C344.895 38.9533 344.808 38.5733 344.808 38.12V37.92L345.208 37.98C345.048 38.5 344.775 38.9267 344.388 39.26C344.002 39.58 343.568 39.82 343.088 39.98C342.608 40.1267 342.135 40.2 341.668 40.2C341.082 40.2 340.535 40.1 340.028 39.9C339.522 39.7 339.115 39.4 338.808 39C338.515 38.5867 338.368 38.08 338.368 37.48C338.368 36.7333 338.615 36.12 339.108 35.64C339.615 35.1467 340.315 34.8133 341.208 34.64L345.168 33.86V35.18L341.948 35.84C341.295 35.9733 340.808 36.16 340.488 36.4C340.168 36.64 340.008 36.9733 340.008 37.4C340.008 37.8133 340.168 38.1533 340.488 38.42C340.822 38.6733 341.288 38.8 341.888 38.8C342.275 38.8 342.642 38.7533 342.988 38.66C343.348 38.5533 343.668 38.4 343.948 38.2C344.228 37.9867 344.448 37.7267 344.608 37.42C344.768 37.1 344.848 36.7267 344.848 36.3V33.54ZM360.284 40.2C359.311 40.2 358.411 39.9933 357.584 39.58C356.771 39.1667 356.144 38.58 355.704 37.82L357.064 36.84C357.358 37.4533 357.784 37.9333 358.344 38.28C358.918 38.6267 359.604 38.8 360.404 38.8C361.111 38.8 361.664 38.6667 362.064 38.4C362.464 38.12 362.664 37.76 362.664 37.32C362.664 37.04 362.571 36.7867 362.384 36.56C362.211 36.32 361.871 36.1467 361.364 36.04L358.964 35.54C357.991 35.34 357.291 35.0067 356.864 34.54C356.451 34.0733 356.244 33.4933 356.244 32.8C356.244 32.2533 356.398 31.7533 356.704 31.3C357.024 30.8467 357.471 30.4867 358.044 30.22C358.631 29.94 359.318 29.8 360.104 29.8C361.091 29.8 361.924 29.9933 362.604 30.38C363.284 30.7667 363.791 31.3133 364.124 32.02L362.784 32.9C362.558 32.3133 362.191 31.8867 361.684 31.62C361.178 31.34 360.651 31.2 360.104 31.2C359.624 31.2 359.211 31.2667 358.864 31.4C358.531 31.5333 358.271 31.72 358.084 31.96C357.911 32.1867 357.824 32.4467 357.824 32.74C357.824 33.0333 357.924 33.3067 358.124 33.56C358.324 33.8 358.698 33.9733 359.244 34.08L361.744 34.6C362.678 34.7867 363.331 35.0933 363.704 35.52C364.078 35.9467 364.264 36.4667 364.264 37.08C364.264 37.7067 364.098 38.26 363.764 38.74C363.431 39.2067 362.964 39.5667 362.364 39.82C361.764 40.0733 361.071 40.2 360.284 40.2ZM368.031 28.08C367.671 28.08 367.378 27.9733 367.151 27.76C366.938 27.5333 366.831 27.24 366.831 26.88C366.831 26.52 366.938 26.2333 367.151 26.02C367.378 25.7933 367.671 25.68 368.031 25.68C368.391 25.68 368.678 25.7933 368.891 26.02C369.118 26.2333 369.231 26.52 369.231 26.88C369.231 27.24 369.118 27.5333 368.891 27.76C368.678 27.9733 368.391 28.08 368.031 28.08ZM368.831 30V40H367.231V30H368.831ZM374.064 25.4V37.46C374.064 37.9667 374.157 38.32 374.344 38.52C374.53 38.7067 374.83 38.8 375.244 38.8C375.51 38.8 375.73 38.78 375.904 38.74C376.077 38.7 376.31 38.6267 376.604 38.52L376.344 39.92C376.13 40.0133 375.897 40.08 375.644 40.12C375.39 40.1733 375.13 40.2 374.864 40.2C374.05 40.2 373.444 39.98 373.044 39.54C372.657 39.1 372.464 38.4267 372.464 37.52V25.4H374.064ZM378.657 40V25.4H380.257V31.5C380.604 30.9 381.064 30.4667 381.637 30.2C382.21 29.9333 382.837 29.8 383.517 29.8C384.237 29.8 384.89 29.94 385.477 30.22C386.064 30.4867 386.53 30.9 386.877 31.46C387.237 32.02 387.417 32.7333 387.417 33.6V40H385.817V34.16C385.817 33.0533 385.577 32.2867 385.097 31.86C384.63 31.42 384.05 31.2 383.357 31.2C382.877 31.2 382.397 31.3133 381.917 31.54C381.437 31.7667 381.037 32.14 380.717 32.66C380.41 33.1667 380.257 33.8467 380.257 34.7V40H378.657ZM395.18 29.8C396.126 29.8 396.96 30.0067 397.68 30.42C398.413 30.8333 398.986 31.4333 399.4 32.22C399.813 32.9933 400.02 33.92 400.02 35C400.02 36.08 399.813 37.0133 399.4 37.8C398.986 38.5733 398.413 39.1667 397.68 39.58C396.96 39.9933 396.126 40.2 395.18 40.2C394.246 40.2 393.413 39.9933 392.68 39.58C391.946 39.1667 391.373 38.5733 390.96 37.8C390.546 37.0133 390.34 36.08 390.34 35C390.34 33.92 390.546 32.9933 390.96 32.22C391.373 31.4333 391.946 30.8333 392.68 30.42C393.413 30.0067 394.246 29.8 395.18 29.8ZM395.18 31.18C394.5 31.18 393.92 31.3333 393.44 31.64C392.96 31.9467 392.586 32.3867 392.32 32.96C392.066 33.52 391.94 34.2 391.94 35C391.94 35.7867 392.066 36.4667 392.32 37.04C392.586 37.6133 392.96 38.0533 393.44 38.36C393.92 38.6667 394.5 38.82 395.18 38.82C395.86 38.82 396.44 38.6667 396.92 38.36C397.4 38.0533 397.766 37.6133 398.02 37.04C398.286 36.4667 398.42 35.7867 398.42 35C398.42 34.2 398.286 33.52 398.02 32.96C397.766 32.3867 397.4 31.9467 396.92 31.64C396.44 31.3333 395.86 31.18 395.18 31.18ZM406.652 40.2C406.012 40.2 405.405 40.08 404.832 39.84C404.272 39.6 403.812 39.2133 403.452 38.68C403.105 38.1333 402.932 37.4267 402.932 36.56V30H404.532V36.14C404.532 37.1533 404.752 37.8533 405.192 38.24C405.632 38.6133 406.252 38.8 407.052 38.8C407.425 38.8 407.792 38.74 408.152 38.62C408.512 38.4867 408.832 38.2867 409.112 38.02C409.405 37.74 409.632 37.3867 409.792 36.96C409.965 36.5333 410.052 36.0267 410.052 35.44V30H411.652V40H410.252L410.152 38.48C409.805 39.08 409.332 39.52 408.732 39.8C408.145 40.0667 407.452 40.2 406.652 40.2ZM419.556 40.2C418.609 40.2 417.762 39.9933 417.016 39.58C416.282 39.1667 415.709 38.5733 415.296 37.8C414.882 37.0133 414.676 36.08 414.676 35C414.676 33.92 414.882 32.9933 415.296 32.22C415.709 31.4333 416.276 30.8333 416.996 30.42C417.716 30.0067 418.536 29.8 419.456 29.8C420.389 29.8 421.182 30 421.836 30.4C422.502 30.8 423.009 31.3467 423.356 32.04C423.702 32.72 423.876 33.4867 423.876 34.34C423.876 34.5667 423.869 34.7733 423.856 34.96C423.842 35.1467 423.822 35.3133 423.796 35.46H415.716V34.04H423.096L422.276 34.2C422.276 33.24 422.009 32.5 421.476 31.98C420.956 31.46 420.269 31.2 419.416 31.2C418.762 31.2 418.196 31.3533 417.716 31.66C417.249 31.9533 416.882 32.3867 416.616 32.96C416.362 33.52 416.236 34.2 416.236 35C416.236 35.7867 416.369 36.4667 416.636 37.04C416.902 37.6133 417.276 38.0533 417.756 38.36C418.249 38.6533 418.836 38.8 419.516 38.8C420.249 38.8 420.842 38.66 421.296 38.38C421.762 38.1 422.136 37.72 422.416 37.24L423.676 37.98C423.422 38.4333 423.096 38.8267 422.696 39.16C422.309 39.4933 421.849 39.7533 421.316 39.94C420.796 40.1133 420.209 40.2 419.556 40.2ZM428.986 27.16V37.24C428.986 37.7333 429.126 38.1 429.406 38.34C429.686 38.58 430.046 38.7 430.486 38.7C430.872 38.7 431.206 38.6333 431.486 38.5C431.766 38.3667 432.019 38.1867 432.246 37.96L432.806 39.3C432.499 39.58 432.132 39.8 431.706 39.96C431.292 40.12 430.812 40.2 430.266 40.2C429.759 40.2 429.286 40.1133 428.846 39.94C428.406 39.7533 428.052 39.4667 427.786 39.08C427.532 38.68 427.399 38.16 427.386 37.52V27.6L428.986 27.16ZM432.626 30V31.38H425.386V30H432.626ZM436.075 27.16V37.24C436.075 37.7333 436.215 38.1 436.495 38.34C436.775 38.58 437.135 38.7 437.575 38.7C437.962 38.7 438.295 38.6333 438.575 38.5C438.855 38.3667 439.109 38.1867 439.335 37.96L439.895 39.3C439.589 39.58 439.222 39.8 438.795 39.96C438.382 40.12 437.902 40.2 437.355 40.2C436.849 40.2 436.375 40.1133 435.935 39.94C435.495 39.7533 435.142 39.4667 434.875 39.08C434.622 38.68 434.489 38.16 434.475 37.52V27.6L436.075 27.16ZM439.715 30V31.38H432.475V30H439.715ZM446.274 40.2C445.328 40.2 444.481 39.9933 443.734 39.58C443.001 39.1667 442.428 38.5733 442.014 37.8C441.601 37.0133 441.394 36.08 441.394 35C441.394 33.92 441.601 32.9933 442.014 32.22C442.428 31.4333 442.994 30.8333 443.714 30.42C444.434 30.0067 445.254 29.8 446.174 29.8C447.108 29.8 447.901 30 448.554 30.4C449.221 30.8 449.728 31.3467 450.074 32.04C450.421 32.72 450.594 33.4867 450.594 34.34C450.594 34.5667 450.588 34.7733 450.574 34.96C450.561 35.1467 450.541 35.3133 450.514 35.46H442.434V34.04H449.814L448.994 34.2C448.994 33.24 448.728 32.5 448.194 31.98C447.674 31.46 446.988 31.2 446.134 31.2C445.481 31.2 444.914 31.3533 444.434 31.66C443.968 31.9533 443.601 32.3867 443.334 32.96C443.081 33.52 442.954 34.2 442.954 35C442.954 35.7867 443.088 36.4667 443.354 37.04C443.621 37.6133 443.994 38.0533 444.474 38.36C444.968 38.6533 445.554 38.8 446.234 38.8C446.968 38.8 447.561 38.66 448.014 38.38C448.481 38.1 448.854 37.72 449.134 37.24L450.394 37.98C450.141 38.4333 449.814 38.8267 449.414 39.16C449.028 39.4933 448.568 39.7533 448.034 39.94C447.514 40.1133 446.928 40.2 446.274 40.2ZM464.594 29.8C465.54 29.8 466.374 30.0067 467.094 30.42C467.827 30.8333 468.4 31.4333 468.814 32.22C469.227 32.9933 469.434 33.92 469.434 35C469.434 36.08 469.227 37.0133 468.814 37.8C468.4 38.5733 467.827 39.1667 467.094 39.58C466.374 39.9933 465.54 40.2 464.594 40.2C463.66 40.2 462.827 39.9933 462.094 39.58C461.36 39.1667 460.787 38.5733 460.374 37.8C459.96 37.0133 459.754 36.08 459.754 35C459.754 33.92 459.96 32.9933 460.374 32.22C460.787 31.4333 461.36 30.8333 462.094 30.42C462.827 30.0067 463.66 29.8 464.594 29.8ZM464.594 31.18C463.914 31.18 463.334 31.3333 462.854 31.64C462.374 31.9467 462 32.3867 461.734 32.96C461.48 33.52 461.354 34.2 461.354 35C461.354 35.7867 461.48 36.4667 461.734 37.04C462 37.6133 462.374 38.0533 462.854 38.36C463.334 38.6667 463.914 38.82 464.594 38.82C465.274 38.82 465.854 38.6667 466.334 38.36C466.814 38.0533 467.18 37.6133 467.434 37.04C467.7 36.4667 467.834 35.7867 467.834 35C467.834 34.2 467.7 33.52 467.434 32.96C467.18 32.3867 466.814 31.9467 466.334 31.64C465.854 31.3333 465.274 31.18 464.594 31.18ZM476.33 25.3C476.677 25.3 477.003 25.34 477.31 25.42C477.617 25.5 477.857 25.6133 478.03 25.76L477.61 27.06C477.45 26.9533 477.277 26.88 477.09 26.84C476.903 26.7867 476.697 26.76 476.47 26.76C475.897 26.76 475.45 26.9 475.13 27.18C474.81 27.4467 474.65 27.88 474.65 28.48V30V30.52V40H473.05V28.32C473.05 27.88 473.117 27.4733 473.25 27.1C473.383 26.7267 473.583 26.4067 473.85 26.14C474.13 25.8733 474.477 25.6667 474.89 25.52C475.303 25.3733 475.783 25.3 476.33 25.3ZM477.99 30V31.38H471.05V30H477.99ZM1.86 66V51.4H3.46V57.5C3.80667 56.9 4.26667 56.4667 4.84 56.2C5.41333 55.9333 6.04 55.8 6.72 55.8C7.44 55.8 8.09333 55.94 8.68 56.22C9.26667 56.4867 9.73333 56.9 10.08 57.46C10.44 58.02 10.62 58.7333 10.62 59.6V66H9.02V60.16C9.02 59.0533 8.78 58.2867 8.3 57.86C7.83333 57.42 7.25333 57.2 6.56 57.2C6.08 57.2 5.6 57.3133 5.12 57.54C4.64 57.7667 4.24 58.14 3.92 58.66C3.61333 59.1667 3.46 59.8467 3.46 60.7V66H1.86ZM15.0428 54.08C14.6828 54.08 14.3895 53.9733 14.1628 53.76C13.9495 53.5333 13.8428 53.24 13.8428 52.88C13.8428 52.52 13.9495 52.2333 14.1628 52.02C14.3895 51.7933 14.6828 51.68 15.0428 51.68C15.4028 51.68 15.6895 51.7933 15.9028 52.02C16.1295 52.2333 16.2428 52.52 16.2428 52.88C16.2428 53.24 16.1295 53.5333 15.9028 53.76C15.6895 53.9733 15.4028 54.08 15.0428 54.08ZM15.8428 56V66H14.2428V56H15.8428ZM23.1553 66.2C22.182 66.2 21.282 65.9933 20.4553 65.58C19.642 65.1667 19.0153 64.58 18.5753 63.82L19.9353 62.84C20.2286 63.4533 20.6553 63.9333 21.2153 64.28C21.7886 64.6267 22.4753 64.8 23.2753 64.8C23.982 64.8 24.5353 64.6667 24.9353 64.4C25.3353 64.12 25.5353 63.76 25.5353 63.32C25.5353 63.04 25.442 62.7867 25.2553 62.56C25.082 62.32 24.742 62.1467 24.2353 62.04L21.8353 61.54C20.862 61.34 20.162 61.0067 19.7353 60.54C19.322 60.0733 19.1153 59.4933 19.1153 58.8C19.1153 58.2533 19.2686 57.7533 19.5753 57.3C19.8953 56.8467 20.342 56.4867 20.9153 56.22C21.502 55.94 22.1886 55.8 22.9753 55.8C23.962 55.8 24.7953 55.9933 25.4753 56.38C26.1553 56.7667 26.662 57.3133 26.9953 58.02L25.6553 58.9C25.4286 58.3133 25.062 57.8867 24.5553 57.62C24.0486 57.34 23.522 57.2 22.9753 57.2C22.4953 57.2 22.082 57.2667 21.7353 57.4C21.402 57.5333 21.142 57.72 20.9553 57.96C20.782 58.1867 20.6953 58.4467 20.6953 58.74C20.6953 59.0333 20.7953 59.3067 20.9953 59.56C21.1953 59.8 21.5686 59.9733 22.1153 60.08L24.6153 60.6C25.5486 60.7867 26.202 61.0933 26.5753 61.52C26.9486 61.9467 27.1353 62.4667 27.1353 63.08C27.1353 63.7067 26.9686 64.26 26.6353 64.74C26.302 65.2067 25.8353 65.5667 25.2353 65.82C24.6353 66.0733 23.942 66.2 23.1553 66.2ZM37.7186 54.08C37.3586 54.08 37.0653 53.9733 36.8386 53.76C36.6253 53.5333 36.5186 53.24 36.5186 52.88C36.5186 52.52 36.6253 52.2333 36.8386 52.02C37.0653 51.7933 37.3586 51.68 37.7186 51.68C38.0786 51.68 38.3653 51.7933 38.5786 52.02C38.8053 52.2333 38.9186 52.52 38.9186 52.88C38.9186 53.24 38.8053 53.5333 38.5786 53.76C38.3653 53.9733 38.0786 54.08 37.7186 54.08ZM38.5186 56V66H36.9186V56H38.5186ZM46.3711 55.8C47.0644 55.8 47.6711 55.9067 48.1911 56.12C48.7244 56.3333 49.1844 56.64 49.5711 57.04C49.9578 57.44 50.2711 57.9133 50.5111 58.46L48.9911 59.18C48.7778 58.54 48.4511 58.0533 48.0111 57.72C47.5844 57.3733 47.0244 57.2 46.3311 57.2C45.6644 57.2 45.0911 57.3533 44.6111 57.66C44.1311 57.9533 43.7644 58.3867 43.5111 58.96C43.2578 59.52 43.1311 60.2 43.1311 61C43.1311 61.7867 43.2578 62.4667 43.5111 63.04C43.7644 63.6133 44.1311 64.0533 44.6111 64.36C45.0911 64.6533 45.6644 64.8 46.3311 64.8C46.8511 64.8 47.2978 64.72 47.6711 64.56C48.0578 64.4 48.3711 64.1667 48.6111 63.86C48.8644 63.5533 49.0378 63.18 49.1311 62.74L50.6111 63.26C50.3844 63.8733 50.0711 64.4 49.6711 64.84C49.2844 65.28 48.8111 65.62 48.2511 65.86C47.7044 66.0867 47.0778 66.2 46.3711 66.2C45.4378 66.2 44.6044 65.9933 43.8711 65.58C43.1378 65.1667 42.5644 64.5733 42.1511 63.8C41.7378 63.0133 41.5311 62.08 41.5311 61C41.5311 59.92 41.7378 58.9933 42.1511 58.22C42.5644 57.4333 43.1378 56.8333 43.8711 56.42C44.6044 56.0067 45.4378 55.8 46.3711 55.8ZM57.5625 55.8C58.5092 55.8 59.3425 56.0067 60.0625 56.42C60.7958 56.8333 61.3692 57.4333 61.7825 58.22C62.1958 58.9933 62.4025 59.92 62.4025 61C62.4025 62.08 62.1958 63.0133 61.7825 63.8C61.3692 64.5733 60.7958 65.1667 60.0625 65.58C59.3425 65.9933 58.5092 66.2 57.5625 66.2C56.6292 66.2 55.7958 65.9933 55.0625 65.58C54.3292 65.1667 53.7558 64.5733 53.3425 63.8C52.9292 63.0133 52.7225 62.08 52.7225 61C52.7225 59.92 52.9292 58.9933 53.3425 58.22C53.7558 57.4333 54.3292 56.8333 55.0625 56.42C55.7958 56.0067 56.6292 55.8 57.5625 55.8ZM57.5625 57.18C56.8825 57.18 56.3025 57.3333 55.8225 57.64C55.3425 57.9467 54.9692 58.3867 54.7025 58.96C54.4492 59.52 54.3225 60.2 54.3225 61C54.3225 61.7867 54.4492 62.4667 54.7025 63.04C54.9692 63.6133 55.3425 64.0533 55.8225 64.36C56.3025 64.6667 56.8825 64.82 57.5625 64.82C58.2425 64.82 58.8225 64.6667 59.3025 64.36C59.7825 64.0533 60.1492 63.6133 60.4025 63.04C60.6692 62.4667 60.8025 61.7867 60.8025 61C60.8025 60.2 60.6692 59.52 60.4025 58.96C60.1492 58.3867 59.7825 57.9467 59.3025 57.64C58.8225 57.3333 58.2425 57.18 57.5625 57.18ZM65.4147 66V56H66.8147L66.9547 58.24L66.6947 58.02C66.908 57.4867 67.1947 57.06 67.5547 56.74C67.9147 56.4067 68.328 56.1667 68.7947 56.02C69.2747 55.8733 69.768 55.8 70.2747 55.8C70.9947 55.8 71.648 55.94 72.2347 56.22C72.8214 56.4867 73.288 56.9 73.6347 57.46C73.9947 58.02 74.1747 58.7333 74.1747 59.6V66H72.5747V60.16C72.5747 59.0533 72.3347 58.2867 71.8547 57.86C71.388 57.42 70.808 57.2 70.1147 57.2C69.6347 57.2 69.1547 57.3133 68.6747 57.54C68.1947 57.7667 67.7947 58.1333 67.4747 58.64C67.168 59.1467 67.0147 59.8267 67.0147 60.68V66H65.4147ZM78.5975 54.08C78.2375 54.08 77.9442 53.9733 77.7175 53.76C77.5042 53.5333 77.3975 53.24 77.3975 52.88C77.3975 52.52 77.5042 52.2333 77.7175 52.02C77.9442 51.7933 78.2375 51.68 78.5975 51.68C78.9575 51.68 79.2442 51.7933 79.4575 52.02C79.6842 52.2333 79.7975 52.52 79.7975 52.88C79.7975 53.24 79.6842 53.5333 79.4575 53.76C79.2442 53.9733 78.9575 54.08 78.5975 54.08ZM79.3975 56V66H77.7975V56H79.3975ZM87.25 55.8C87.9433 55.8 88.55 55.9067 89.07 56.12C89.6033 56.3333 90.0633 56.64 90.45 57.04C90.8367 57.44 91.15 57.9133 91.39 58.46L89.87 59.18C89.6567 58.54 89.33 58.0533 88.89 57.72C88.4633 57.3733 87.9033 57.2 87.21 57.2C86.5433 57.2 85.97 57.3533 85.49 57.66C85.01 57.9533 84.6433 58.3867 84.39 58.96C84.1367 59.52 84.01 60.2 84.01 61C84.01 61.7867 84.1367 62.4667 84.39 63.04C84.6433 63.6133 85.01 64.0533 85.49 64.36C85.97 64.6533 86.5433 64.8 87.21 64.8C87.73 64.8 88.1767 64.72 88.55 64.56C88.9367 64.4 89.25 64.1667 89.49 63.86C89.7433 63.5533 89.9167 63.18 90.01 62.74L91.49 63.26C91.2633 63.8733 90.95 64.4 90.55 64.84C90.1633 65.28 89.69 65.62 89.13 65.86C88.5833 66.0867 87.9567 66.2 87.25 66.2C86.3167 66.2 85.4833 65.9933 84.75 65.58C84.0167 65.1667 83.4433 64.5733 83.03 63.8C82.6167 63.0133 82.41 62.08 82.41 61C82.41 59.92 82.6167 58.9933 83.03 58.22C83.4433 57.4333 84.0167 56.8333 84.75 56.42C85.4833 56.0067 86.3167 55.8 87.25 55.8ZM104.807 51.3C105.153 51.3 105.48 51.34 105.787 51.42C106.093 51.5 106.333 51.6133 106.507 51.76L106.087 53.06C105.927 52.9533 105.753 52.88 105.567 52.84C105.38 52.7867 105.173 52.76 104.947 52.76C104.373 52.76 103.927 52.9 103.607 53.18C103.287 53.4467 103.127 53.88 103.127 54.48V56V56.52V66H101.527V54.32C101.527 53.88 101.593 53.4733 101.727 53.1C101.86 52.7267 102.06 52.4067 102.327 52.14C102.607 51.8733 102.953 51.6667 103.367 51.52C103.78 51.3733 104.26 51.3 104.807 51.3ZM106.467 56V57.38H99.5267V56H106.467ZM109.407 54.08C109.047 54.08 108.753 53.9733 108.527 53.76C108.313 53.5333 108.207 53.24 108.207 52.88C108.207 52.52 108.313 52.2333 108.527 52.02C108.753 51.7933 109.047 51.68 109.407 51.68C109.767 51.68 110.053 51.7933 110.267 52.02C110.493 52.2333 110.607 52.52 110.607 52.88C110.607 53.24 110.493 53.5333 110.267 53.76C110.053 53.9733 109.767 54.08 109.407 54.08ZM110.207 56V66H108.607V56H110.207ZM122.35 54.16L122.71 55.58C122.697 55.58 122.677 55.58 122.65 55.58C122.624 55.58 122.597 55.58 122.57 55.58C121.917 55.58 121.41 55.7133 121.05 55.98C120.704 56.2333 120.53 56.6467 120.53 57.22L119.55 56.72C119.55 56.2 119.67 55.7467 119.91 55.36C120.15 54.9733 120.477 54.68 120.89 54.48C121.304 54.2667 121.757 54.16 122.25 54.16C122.264 54.16 122.277 54.16 122.29 54.16C122.317 54.16 122.337 54.16 122.35 54.16ZM119.31 64.72C120.257 64.72 120.997 64.94 121.53 65.38C122.064 65.8067 122.33 66.38 122.33 67.1C122.33 67.7533 122.11 68.32 121.67 68.8C121.244 69.28 120.664 69.6467 119.93 69.9C119.21 70.1667 118.397 70.3 117.49 70.3C115.917 70.3 114.737 70.0333 113.95 69.5C113.177 68.9667 112.79 68.3267 112.79 67.58C112.79 67.0467 112.964 66.5667 113.31 66.14C113.67 65.7267 114.27 65.4933 115.11 65.44L114.97 65.74C114.517 65.62 114.13 65.42 113.81 65.14C113.504 64.8467 113.35 64.4267 113.35 63.88C113.35 63.3333 113.55 62.8667 113.95 62.48C114.364 62.08 114.97 61.8333 115.77 61.74L116.83 62.28H116.63C115.977 62.3467 115.51 62.5133 115.23 62.78C114.964 63.0333 114.83 63.3133 114.83 63.62C114.83 63.9933 114.964 64.2733 115.23 64.46C115.51 64.6333 115.897 64.72 116.39 64.72H119.31ZM117.47 68.96C118.244 68.96 118.877 68.88 119.37 68.72C119.877 68.56 120.25 68.3533 120.49 68.1C120.73 67.8467 120.85 67.5733 120.85 67.28C120.85 66.92 120.704 66.6333 120.41 66.42C120.13 66.2067 119.617 66.1 118.87 66.1H115.79C115.364 66.1 115.004 66.2067 114.71 66.42C114.417 66.6467 114.27 66.9533 114.27 67.34C114.27 67.8333 114.55 68.2267 115.11 68.52C115.684 68.8133 116.47 68.96 117.47 68.96ZM117.33 55.8C118.13 55.8 118.837 55.9467 119.45 56.24C120.077 56.52 120.564 56.9133 120.91 57.42C121.257 57.9267 121.43 58.5133 121.43 59.18C121.43 59.8333 121.257 60.42 120.91 60.94C120.564 61.4467 120.077 61.8467 119.45 62.14C118.837 62.42 118.13 62.56 117.33 62.56C116.01 62.56 114.997 62.2467 114.29 61.62C113.584 60.98 113.23 60.1667 113.23 59.18C113.23 58.5133 113.404 57.9267 113.75 57.42C114.11 56.9133 114.597 56.52 115.21 56.24C115.824 55.9467 116.53 55.8 117.33 55.8ZM117.33 57.1C116.637 57.1 116.057 57.2933 115.59 57.68C115.124 58.0533 114.89 58.5533 114.89 59.18C114.89 59.7933 115.124 60.2933 115.59 60.68C116.057 61.0667 116.637 61.26 117.33 61.26C118.024 61.26 118.604 61.0667 119.07 60.68C119.537 60.2933 119.77 59.7933 119.77 59.18C119.77 58.5533 119.537 58.0533 119.07 57.68C118.604 57.2933 118.024 57.1 117.33 57.1ZM128.195 66.2C127.555 66.2 126.948 66.08 126.375 65.84C125.815 65.6 125.355 65.2133 124.995 64.68C124.648 64.1333 124.475 63.4267 124.475 62.56V56H126.075V62.14C126.075 63.1533 126.295 63.8533 126.735 64.24C127.175 64.6133 127.795 64.8 128.595 64.8C128.968 64.8 129.335 64.74 129.695 64.62C130.055 64.4867 130.375 64.2867 130.655 64.02C130.948 63.74 131.175 63.3867 131.335 62.96C131.508 62.5333 131.595 62.0267 131.595 61.44V56H133.195V66H131.795L131.695 64.48C131.348 65.08 130.875 65.52 130.275 65.8C129.688 66.0667 128.995 66.2 128.195 66.2ZM136.919 66V56H138.219L138.439 57.64C138.719 57.0267 139.125 56.5667 139.659 56.26C140.205 55.9533 140.865 55.8 141.639 55.8C141.812 55.8 141.999 55.8133 142.199 55.84C142.412 55.8667 142.592 55.92 142.739 56L142.459 57.46C142.312 57.4067 142.152 57.3667 141.979 57.34C141.805 57.3133 141.559 57.3 141.239 57.3C140.825 57.3 140.405 57.42 139.979 57.66C139.565 57.9 139.219 58.2667 138.939 58.76C138.659 59.24 138.519 59.8533 138.519 60.6V66H136.919ZM148.95 66.2C148.003 66.2 147.157 65.9933 146.41 65.58C145.677 65.1667 145.103 64.5733 144.69 63.8C144.277 63.0133 144.07 62.08 144.07 61C144.07 59.92 144.277 58.9933 144.69 58.22C145.103 57.4333 145.67 56.8333 146.39 56.42C147.11 56.0067 147.93 55.8 148.85 55.8C149.783 55.8 150.577 56 151.23 56.4C151.897 56.8 152.403 57.3467 152.75 58.04C153.097 58.72 153.27 59.4867 153.27 60.34C153.27 60.5667 153.263 60.7733 153.25 60.96C153.237 61.1467 153.217 61.3133 153.19 61.46H145.11V60.04H152.49L151.67 60.2C151.67 59.24 151.403 58.5 150.87 57.98C150.35 57.46 149.663 57.2 148.81 57.2C148.157 57.2 147.59 57.3533 147.11 57.66C146.643 57.9533 146.277 58.3867 146.01 58.96C145.757 59.52 145.63 60.2 145.63 61C145.63 61.7867 145.763 62.4667 146.03 63.04C146.297 63.6133 146.67 64.0533 147.15 64.36C147.643 64.6533 148.23 64.8 148.91 64.8C149.643 64.8 150.237 64.66 150.69 64.38C151.157 64.1 151.53 63.72 151.81 63.24L153.07 63.98C152.817 64.4333 152.49 64.8267 152.09 65.16C151.703 65.4933 151.243 65.7533 150.71 65.94C150.19 66.1133 149.603 66.2 148.95 66.2ZM163.13 66V51.4H164.73V57.5C165.076 56.9 165.536 56.4667 166.11 56.2C166.683 55.9333 167.31 55.8 167.99 55.8C168.71 55.8 169.363 55.94 169.95 56.22C170.536 56.4867 171.003 56.9 171.35 57.46C171.71 58.02 171.89 58.7333 171.89 59.6V66H170.29V60.16C170.29 59.0533 170.05 58.2867 169.57 57.86C169.103 57.42 168.523 57.2 167.83 57.2C167.35 57.2 166.87 57.3133 166.39 57.54C165.91 57.7667 165.51 58.14 165.19 58.66C164.883 59.1667 164.73 59.8467 164.73 60.7V66H163.13ZM179.652 55.8C180.599 55.8 181.432 56.0067 182.152 56.42C182.886 56.8333 183.459 57.4333 183.872 58.22C184.286 58.9933 184.492 59.92 184.492 61C184.492 62.08 184.286 63.0133 183.872 63.8C183.459 64.5733 182.886 65.1667 182.152 65.58C181.432 65.9933 180.599 66.2 179.652 66.2C178.719 66.2 177.886 65.9933 177.152 65.58C176.419 65.1667 175.846 64.5733 175.432 63.8C175.019 63.0133 174.812 62.08 174.812 61C174.812 59.92 175.019 58.9933 175.432 58.22C175.846 57.4333 176.419 56.8333 177.152 56.42C177.886 56.0067 178.719 55.8 179.652 55.8ZM179.652 57.18C178.972 57.18 178.392 57.3333 177.912 57.64C177.432 57.9467 177.059 58.3867 176.792 58.96C176.539 59.52 176.412 60.2 176.412 61C176.412 61.7867 176.539 62.4667 176.792 63.04C177.059 63.6133 177.432 64.0533 177.912 64.36C178.392 64.6667 178.972 64.82 179.652 64.82C180.332 64.82 180.912 64.6667 181.392 64.36C181.872 64.0533 182.239 63.6133 182.492 63.04C182.759 62.4667 182.892 61.7867 182.892 61C182.892 60.2 182.759 59.52 182.492 58.96C182.239 58.3867 181.872 57.9467 181.392 57.64C180.912 57.3333 180.332 57.18 179.652 57.18ZM189.025 51.4V63.46C189.025 63.9667 189.118 64.32 189.305 64.52C189.491 64.7067 189.791 64.8 190.205 64.8C190.471 64.8 190.691 64.78 190.865 64.74C191.038 64.7 191.271 64.6267 191.565 64.52L191.305 65.92C191.091 66.0133 190.858 66.08 190.605 66.12C190.351 66.1733 190.091 66.2 189.825 66.2C189.011 66.2 188.405 65.98 188.005 65.54C187.618 65.1 187.425 64.4267 187.425 63.52V51.4H189.025ZM197.518 66.2C196.691 66.2 195.931 65.9933 195.238 65.58C194.544 65.1667 193.991 64.5733 193.578 63.8C193.164 63.0133 192.958 62.08 192.958 61C192.958 59.8933 193.178 58.9533 193.618 58.18C194.058 57.4067 194.638 56.82 195.358 56.42C196.078 56.0067 196.851 55.8 197.678 55.8C198.504 55.8 199.218 56.0133 199.818 56.44C200.431 56.8667 200.838 57.4333 201.038 58.14L200.838 58.28V51.4H202.438V66H201.038L200.898 63.58L201.118 63.46C201.024 64.0467 200.798 64.5467 200.438 64.96C200.091 65.36 199.658 65.6667 199.138 65.88C198.631 66.0933 198.091 66.2 197.518 66.2ZM197.678 64.8C198.318 64.8 198.871 64.64 199.338 64.32C199.818 64 200.184 63.5467 200.438 62.96C200.704 62.36 200.838 61.66 200.838 60.86C200.838 60.1 200.704 59.4467 200.438 58.9C200.184 58.3533 199.824 57.9333 199.358 57.64C198.904 57.3467 198.371 57.2 197.758 57.2C196.744 57.2 195.958 57.5467 195.398 58.24C194.838 58.9333 194.558 59.8533 194.558 61C194.558 62.1467 194.831 63.0667 195.378 63.76C195.924 64.4533 196.691 64.8 197.678 64.8ZM206.957 54.08C206.597 54.08 206.304 53.9733 206.077 53.76C205.864 53.5333 205.757 53.24 205.757 52.88C205.757 52.52 205.864 52.2333 206.077 52.02C206.304 51.7933 206.597 51.68 206.957 51.68C207.317 51.68 207.604 51.7933 207.817 52.02C208.044 52.2333 208.157 52.52 208.157 52.88C208.157 53.24 208.044 53.5333 207.817 53.76C207.604 53.9733 207.317 54.08 206.957 54.08ZM207.757 56V66H206.157V56H207.757ZM211.469 66V56H212.869L213.009 58.24L212.749 58.02C212.963 57.4867 213.249 57.06 213.609 56.74C213.969 56.4067 214.383 56.1667 214.849 56.02C215.329 55.8733 215.823 55.8 216.329 55.8C217.049 55.8 217.703 55.94 218.289 56.22C218.876 56.4867 219.343 56.9 219.689 57.46C220.049 58.02 220.229 58.7333 220.229 59.6V66H218.629V60.16C218.629 59.0533 218.389 58.2867 217.909 57.86C217.443 57.42 216.863 57.2 216.169 57.2C215.689 57.2 215.209 57.3133 214.729 57.54C214.249 57.7667 213.849 58.1333 213.529 58.64C213.223 59.1467 213.069 59.8267 213.069 60.68V66H211.469ZM232.272 54.16L232.632 55.58C232.619 55.58 232.599 55.58 232.572 55.58C232.546 55.58 232.519 55.58 232.492 55.58C231.839 55.58 231.332 55.7133 230.972 55.98C230.626 56.2333 230.452 56.6467 230.452 57.22L229.472 56.72C229.472 56.2 229.592 55.7467 229.832 55.36C230.072 54.9733 230.399 54.68 230.812 54.48C231.226 54.2667 231.679 54.16 232.172 54.16C232.186 54.16 232.199 54.16 232.212 54.16C232.239 54.16 232.259 54.16 232.272 54.16ZM229.232 64.72C230.179 64.72 230.919 64.94 231.452 65.38C231.986 65.8067 232.252 66.38 232.252 67.1C232.252 67.7533 232.032 68.32 231.592 68.8C231.166 69.28 230.586 69.6467 229.852 69.9C229.132 70.1667 228.319 70.3 227.412 70.3C225.839 70.3 224.659 70.0333 223.872 69.5C223.099 68.9667 222.712 68.3267 222.712 67.58C222.712 67.0467 222.886 66.5667 223.232 66.14C223.592 65.7267 224.192 65.4933 225.032 65.44L224.892 65.74C224.439 65.62 224.052 65.42 223.732 65.14C223.426 64.8467 223.272 64.4267 223.272 63.88C223.272 63.3333 223.472 62.8667 223.872 62.48C224.286 62.08 224.892 61.8333 225.692 61.74L226.752 62.28H226.552C225.899 62.3467 225.432 62.5133 225.152 62.78C224.886 63.0333 224.752 63.3133 224.752 63.62C224.752 63.9933 224.886 64.2733 225.152 64.46C225.432 64.6333 225.819 64.72 226.312 64.72H229.232ZM227.392 68.96C228.166 68.96 228.799 68.88 229.292 68.72C229.799 68.56 230.172 68.3533 230.412 68.1C230.652 67.8467 230.772 67.5733 230.772 67.28C230.772 66.92 230.626 66.6333 230.332 66.42C230.052 66.2067 229.539 66.1 228.792 66.1H225.712C225.286 66.1 224.926 66.2067 224.632 66.42C224.339 66.6467 224.192 66.9533 224.192 67.34C224.192 67.8333 224.472 68.2267 225.032 68.52C225.606 68.8133 226.392 68.96 227.392 68.96ZM227.252 55.8C228.052 55.8 228.759 55.9467 229.372 56.24C229.999 56.52 230.486 56.9133 230.832 57.42C231.179 57.9267 231.352 58.5133 231.352 59.18C231.352 59.8333 231.179 60.42 230.832 60.94C230.486 61.4467 229.999 61.8467 229.372 62.14C228.759 62.42 228.052 62.56 227.252 62.56C225.932 62.56 224.919 62.2467 224.212 61.62C223.506 60.98 223.152 60.1667 223.152 59.18C223.152 58.5133 223.326 57.9267 223.672 57.42C224.032 56.9133 224.519 56.52 225.132 56.24C225.746 55.9467 226.452 55.8 227.252 55.8ZM227.252 57.1C226.559 57.1 225.979 57.2933 225.512 57.68C225.046 58.0533 224.812 58.5533 224.812 59.18C224.812 59.7933 225.046 60.2933 225.512 60.68C225.979 61.0667 226.559 61.26 227.252 61.26C227.946 61.26 228.526 61.0667 228.992 60.68C229.459 60.2933 229.692 59.7933 229.692 59.18C229.692 58.5533 229.459 58.0533 228.992 57.68C228.526 57.2933 227.946 57.1 227.252 57.1ZM247.153 59.54C247.153 58.7933 246.953 58.22 246.553 57.82C246.153 57.4067 245.586 57.2 244.853 57.2C244.16 57.2 243.573 57.3533 243.093 57.66C242.613 57.9533 242.26 58.4333 242.033 59.1L240.733 58.3C241 57.5533 241.493 56.9533 242.213 56.5C242.933 56.0333 243.826 55.8 244.893 55.8C245.613 55.8 246.266 55.9267 246.853 56.18C247.44 56.42 247.9 56.7933 248.233 57.3C248.58 57.7933 248.753 58.4333 248.753 59.22V64.06C248.753 64.54 249.006 64.78 249.513 64.78C249.766 64.78 250.013 64.7467 250.253 64.68L250.173 65.94C249.906 66.0733 249.56 66.14 249.133 66.14C248.746 66.14 248.4 66.0667 248.093 65.92C247.786 65.7733 247.546 65.5533 247.373 65.26C247.2 64.9533 247.113 64.5733 247.113 64.12V63.92L247.513 63.98C247.353 64.5 247.08 64.9267 246.693 65.26C246.306 65.58 245.873 65.82 245.393 65.98C244.913 66.1267 244.44 66.2 243.973 66.2C243.386 66.2 242.84 66.1 242.333 65.9C241.826 65.7 241.42 65.4 241.113 65C240.82 64.5867 240.673 64.08 240.673 63.48C240.673 62.7333 240.92 62.12 241.413 61.64C241.92 61.1467 242.62 60.8133 243.513 60.64L247.473 59.86V61.18L244.253 61.84C243.6 61.9733 243.113 62.16 242.793 62.4C242.473 62.64 242.313 62.9733 242.313 63.4C242.313 63.8133 242.473 64.1533 242.793 64.42C243.126 64.6733 243.593 64.8 244.193 64.8C244.58 64.8 244.946 64.7533 245.293 64.66C245.653 64.5533 245.973 64.4 246.253 64.2C246.533 63.9867 246.753 63.7267 246.913 63.42C247.073 63.1 247.153 62.7267 247.153 62.3V59.54ZM263.129 55.8C263.822 55.8 264.429 55.9067 264.949 56.12C265.482 56.3333 265.942 56.64 266.329 57.04C266.716 57.44 267.029 57.9133 267.269 58.46L265.749 59.18C265.536 58.54 265.209 58.0533 264.769 57.72C264.342 57.3733 263.782 57.2 263.089 57.2C262.422 57.2 261.849 57.3533 261.369 57.66C260.889 57.9533 260.522 58.3867 260.269 58.96C260.016 59.52 259.889 60.2 259.889 61C259.889 61.7867 260.016 62.4667 260.269 63.04C260.522 63.6133 260.889 64.0533 261.369 64.36C261.849 64.6533 262.422 64.8 263.089 64.8C263.609 64.8 264.056 64.72 264.429 64.56C264.816 64.4 265.129 64.1667 265.369 63.86C265.622 63.5533 265.796 63.18 265.889 62.74L267.369 63.26C267.142 63.8733 266.829 64.4 266.429 64.84C266.042 65.28 265.569 65.62 265.009 65.86C264.462 66.0867 263.836 66.2 263.129 66.2C262.196 66.2 261.362 65.9933 260.629 65.58C259.896 65.1667 259.322 64.5733 258.909 63.8C258.496 63.0133 258.289 62.08 258.289 61C258.289 59.92 258.496 58.9933 258.909 58.22C259.322 57.4333 259.896 56.8333 260.629 56.42C261.362 56.0067 262.196 55.8 263.129 55.8ZM270.18 66V51.4H271.78V57.5C272.127 56.9 272.587 56.4667 273.16 56.2C273.734 55.9333 274.36 55.8 275.04 55.8C275.76 55.8 276.414 55.94 277 56.22C277.587 56.4867 278.054 56.9 278.4 57.46C278.76 58.02 278.94 58.7333 278.94 59.6V66H277.34V60.16C277.34 59.0533 277.1 58.2867 276.62 57.86C276.154 57.42 275.574 57.2 274.88 57.2C274.4 57.2 273.92 57.3133 273.44 57.54C272.96 57.7667 272.56 58.14 272.24 58.66C271.934 59.1667 271.78 59.8467 271.78 60.7V66H270.18ZM288.403 59.54C288.403 58.7933 288.203 58.22 287.803 57.82C287.403 57.4067 286.836 57.2 286.103 57.2C285.41 57.2 284.823 57.3533 284.343 57.66C283.863 57.9533 283.51 58.4333 283.283 59.1L281.983 58.3C282.25 57.5533 282.743 56.9533 283.463 56.5C284.183 56.0333 285.076 55.8 286.143 55.8C286.863 55.8 287.516 55.9267 288.103 56.18C288.69 56.42 289.15 56.7933 289.483 57.3C289.83 57.7933 290.003 58.4333 290.003 59.22V64.06C290.003 64.54 290.256 64.78 290.763 64.78C291.016 64.78 291.263 64.7467 291.503 64.68L291.423 65.94C291.156 66.0733 290.81 66.14 290.383 66.14C289.996 66.14 289.65 66.0667 289.343 65.92C289.036 65.7733 288.796 65.5533 288.623 65.26C288.45 64.9533 288.363 64.5733 288.363 64.12V63.92L288.763 63.98C288.603 64.5 288.33 64.9267 287.943 65.26C287.556 65.58 287.123 65.82 286.643 65.98C286.163 66.1267 285.69 66.2 285.223 66.2C284.636 66.2 284.09 66.1 283.583 65.9C283.076 65.7 282.67 65.4 282.363 65C282.07 64.5867 281.923 64.08 281.923 63.48C281.923 62.7333 282.17 62.12 282.663 61.64C283.17 61.1467 283.87 60.8133 284.763 60.64L288.723 59.86V61.18L285.503 61.84C284.85 61.9733 284.363 62.16 284.043 62.4C283.723 62.64 283.563 62.9733 283.563 63.4C283.563 63.8133 283.723 64.1533 284.043 64.42C284.376 64.6733 284.843 64.8 285.443 64.8C285.83 64.8 286.196 64.7533 286.543 64.66C286.903 64.5533 287.223 64.4 287.503 64.2C287.783 63.9867 288.003 63.7267 288.163 63.42C288.323 63.1 288.403 62.7267 288.403 62.3V59.54ZM294.691 54.08C294.331 54.08 294.038 53.9733 293.811 53.76C293.598 53.5333 293.491 53.24 293.491 52.88C293.491 52.52 293.598 52.2333 293.811 52.02C294.038 51.7933 294.331 51.68 294.691 51.68C295.051 51.68 295.338 51.7933 295.551 52.02C295.778 52.2333 295.891 52.52 295.891 52.88C295.891 53.24 295.778 53.5333 295.551 53.76C295.338 53.9733 295.051 54.08 294.691 54.08ZM295.491 56V66H293.891V56H295.491ZM299.204 66V56H300.604L300.744 58.24L300.484 58.02C300.697 57.4867 300.984 57.06 301.344 56.74C301.704 56.4067 302.117 56.1667 302.584 56.02C303.064 55.8733 303.557 55.8 304.064 55.8C304.784 55.8 305.437 55.94 306.024 56.22C306.61 56.4867 307.077 56.9 307.424 57.46C307.784 58.02 307.964 58.7333 307.964 59.6V66H306.364V60.16C306.364 59.0533 306.124 58.2867 305.644 57.86C305.177 57.42 304.597 57.2 303.904 57.2C303.424 57.2 302.944 57.3133 302.464 57.54C301.984 57.7667 301.584 58.1333 301.264 58.64C300.957 59.1467 300.804 59.8267 300.804 60.68V66H299.204ZM315.187 66.2C314.213 66.2 313.313 65.9933 312.487 65.58C311.673 65.1667 311.047 64.58 310.607 63.82L311.967 62.84C312.26 63.4533 312.687 63.9333 313.247 64.28C313.82 64.6267 314.507 64.8 315.307 64.8C316.013 64.8 316.567 64.6667 316.967 64.4C317.367 64.12 317.567 63.76 317.567 63.32C317.567 63.04 317.473 62.7867 317.287 62.56C317.113 62.32 316.773 62.1467 316.267 62.04L313.867 61.54C312.893 61.34 312.193 61.0067 311.767 60.54C311.353 60.0733 311.147 59.4933 311.147 58.8C311.147 58.2533 311.3 57.7533 311.607 57.3C311.927 56.8467 312.373 56.4867 312.947 56.22C313.533 55.94 314.22 55.8 315.007 55.8C315.993 55.8 316.827 55.9933 317.507 56.38C318.187 56.7667 318.693 57.3133 319.027 58.02L317.687 58.9C317.46 58.3133 317.093 57.8867 316.587 57.62C316.08 57.34 315.553 57.2 315.007 57.2C314.527 57.2 314.113 57.2667 313.767 57.4C313.433 57.5333 313.173 57.72 312.987 57.96C312.813 58.1867 312.727 58.4467 312.727 58.74C312.727 59.0333 312.827 59.3067 313.027 59.56C313.227 59.8 313.6 59.9733 314.147 60.08L316.647 60.6C317.58 60.7867 318.233 61.0933 318.607 61.52C318.98 61.9467 319.167 62.4667 319.167 63.08C319.167 63.7067 319 64.26 318.667 64.74C318.333 65.2067 317.867 65.5667 317.267 65.82C316.667 66.0733 315.973 66.2 315.187 66.2ZM327.973 59.54C327.973 58.7933 327.773 58.22 327.373 57.82C326.973 57.4067 326.407 57.2 325.673 57.2C324.98 57.2 324.393 57.3533 323.913 57.66C323.433 57.9533 323.08 58.4333 322.853 59.1L321.553 58.3C321.82 57.5533 322.313 56.9533 323.033 56.5C323.753 56.0333 324.647 55.8 325.713 55.8C326.433 55.8 327.087 55.9267 327.673 56.18C328.26 56.42 328.72 56.7933 329.053 57.3C329.4 57.7933 329.573 58.4333 329.573 59.22V64.06C329.573 64.54 329.827 64.78 330.333 64.78C330.587 64.78 330.833 64.7467 331.073 64.68L330.993 65.94C330.727 66.0733 330.38 66.14 329.953 66.14C329.567 66.14 329.22 66.0667 328.913 65.92C328.607 65.7733 328.367 65.5533 328.193 65.26C328.02 64.9533 327.933 64.5733 327.933 64.12V63.92L328.333 63.98C328.173 64.5 327.9 64.9267 327.513 65.26C327.127 65.58 326.693 65.82 326.213 65.98C325.733 66.1267 325.26 66.2 324.793 66.2C324.207 66.2 323.66 66.1 323.153 65.9C322.647 65.7 322.24 65.4 321.933 65C321.64 64.5867 321.493 64.08 321.493 63.48C321.493 62.7333 321.74 62.12 322.233 61.64C322.74 61.1467 323.44 60.8133 324.333 60.64L328.293 59.86V61.18L325.073 61.84C324.42 61.9733 323.933 62.16 323.613 62.4C323.293 62.64 323.133 62.9733 323.133 63.4C323.133 63.8133 323.293 64.1533 323.613 64.42C323.947 64.6733 324.413 64.8 325.013 64.8C325.4 64.8 325.767 64.7533 326.113 64.66C326.473 64.5533 326.793 64.4 327.073 64.2C327.353 63.9867 327.573 63.7267 327.733 63.42C327.893 63.1 327.973 62.7267 327.973 62.3V59.54ZM345.787 56H347.567L344.087 66H342.487L339.667 58.04L337.007 66H335.407L331.927 56H333.707L336.227 64.14L338.947 56H340.547L343.267 64.14L345.787 56ZM357.133 54.08C356.773 54.08 356.479 53.9733 356.253 53.76C356.039 53.5333 355.933 53.24 355.933 52.88C355.933 52.52 356.039 52.2333 356.253 52.02C356.479 51.7933 356.773 51.68 357.133 51.68C357.493 51.68 357.779 51.7933 357.993 52.02C358.219 52.2333 358.333 52.52 358.333 52.88C358.333 53.24 358.219 53.5333 357.993 53.76C357.779 53.9733 357.493 54.08 357.133 54.08ZM357.933 56V66H356.333V56H357.933ZM365.245 66.2C364.272 66.2 363.372 65.9933 362.545 65.58C361.732 65.1667 361.105 64.58 360.665 63.82L362.025 62.84C362.318 63.4533 362.745 63.9333 363.305 64.28C363.878 64.6267 364.565 64.8 365.365 64.8C366.072 64.8 366.625 64.6667 367.025 64.4C367.425 64.12 367.625 63.76 367.625 63.32C367.625 63.04 367.532 62.7867 367.345 62.56C367.172 62.32 366.832 62.1467 366.325 62.04L363.925 61.54C362.952 61.34 362.252 61.0067 361.825 60.54C361.412 60.0733 361.205 59.4933 361.205 58.8C361.205 58.2533 361.358 57.7533 361.665 57.3C361.985 56.8467 362.432 56.4867 363.005 56.22C363.592 55.94 364.278 55.8 365.065 55.8C366.052 55.8 366.885 55.9933 367.565 56.38C368.245 56.7667 368.752 57.3133 369.085 58.02L367.745 58.9C367.518 58.3133 367.152 57.8867 366.645 57.62C366.138 57.34 365.612 57.2 365.065 57.2C364.585 57.2 364.172 57.2667 363.825 57.4C363.492 57.5333 363.232 57.72 363.045 57.96C362.872 58.1867 362.785 58.4467 362.785 58.74C362.785 59.0333 362.885 59.3067 363.085 59.56C363.285 59.8 363.658 59.9733 364.205 60.08L366.705 60.6C367.638 60.7867 368.292 61.0933 368.665 61.52C369.038 61.9467 369.225 62.4667 369.225 63.08C369.225 63.7067 369.058 64.26 368.725 64.74C368.392 65.2067 367.925 65.5667 367.325 65.82C366.725 66.0733 366.032 66.2 365.245 66.2ZM379.008 66V51.4H380.608V57.5C380.955 56.9 381.415 56.4667 381.988 56.2C382.562 55.9333 383.188 55.8 383.868 55.8C384.588 55.8 385.242 55.94 385.828 56.22C386.415 56.4867 386.882 56.9 387.228 57.46C387.588 58.02 387.768 58.7333 387.768 59.6V66H386.168V60.16C386.168 59.0533 385.928 58.2867 385.448 57.86C384.982 57.42 384.402 57.2 383.708 57.2C383.228 57.2 382.748 57.3133 382.268 57.54C381.788 57.7667 381.388 58.14 381.068 58.66C380.762 59.1667 380.608 59.8467 380.608 60.7V66H379.008ZM392.191 54.08C391.831 54.08 391.538 53.9733 391.311 53.76C391.098 53.5333 390.991 53.24 390.991 52.88C390.991 52.52 391.098 52.2333 391.311 52.02C391.538 51.7933 391.831 51.68 392.191 51.68C392.551 51.68 392.838 51.7933 393.051 52.02C393.278 52.2333 393.391 52.52 393.391 52.88C393.391 53.24 393.278 53.5333 393.051 53.76C392.838 53.9733 392.551 54.08 392.191 54.08ZM392.991 56V66H391.391V56H392.991ZM400.604 66.2C399.777 66.2 399.017 65.9933 398.324 65.58C397.63 65.1667 397.077 64.5733 396.664 63.8C396.25 63.0133 396.044 62.08 396.044 61C396.044 59.8933 396.264 58.9533 396.704 58.18C397.144 57.4067 397.724 56.82 398.444 56.42C399.164 56.0067 399.937 55.8 400.764 55.8C401.59 55.8 402.304 56.0133 402.904 56.44C403.517 56.8667 403.924 57.4333 404.124 58.14L403.924 58.28V51.4H405.524V66H404.124L403.984 63.58L404.204 63.46C404.11 64.0467 403.884 64.5467 403.524 64.96C403.177 65.36 402.744 65.6667 402.224 65.88C401.717 66.0933 401.177 66.2 400.604 66.2ZM400.764 64.8C401.404 64.8 401.957 64.64 402.424 64.32C402.904 64 403.27 63.5467 403.524 62.96C403.79 62.36 403.924 61.66 403.924 60.86C403.924 60.1 403.79 59.4467 403.524 58.9C403.27 58.3533 402.91 57.9333 402.444 57.64C401.99 57.3467 401.457 57.2 400.844 57.2C399.83 57.2 399.044 57.5467 398.484 58.24C397.924 58.9333 397.644 59.8533 397.644 61C397.644 62.1467 397.917 63.0667 398.464 63.76C399.01 64.4533 399.777 64.8 400.764 64.8ZM413.143 66.2C412.316 66.2 411.556 65.9933 410.863 65.58C410.169 65.1667 409.616 64.5733 409.203 63.8C408.789 63.0133 408.583 62.08 408.583 61C408.583 59.8933 408.803 58.9533 409.243 58.18C409.683 57.4067 410.263 56.82 410.983 56.42C411.703 56.0067 412.476 55.8 413.303 55.8C414.129 55.8 414.843 56.0133 415.443 56.44C416.056 56.8667 416.463 57.4333 416.663 58.14L416.463 58.28V51.4H418.063V66H416.663L416.523 63.58L416.743 63.46C416.649 64.0467 416.423 64.5467 416.063 64.96C415.716 65.36 415.283 65.6667 414.763 65.88C414.256 66.0933 413.716 66.2 413.143 66.2ZM413.303 64.8C413.943 64.8 414.496 64.64 414.963 64.32C415.443 64 415.809 63.5467 416.063 62.96C416.329 62.36 416.463 61.66 416.463 60.86C416.463 60.1 416.329 59.4467 416.063 58.9C415.809 58.3533 415.449 57.9333 414.983 57.64C414.529 57.3467 413.996 57.2 413.383 57.2C412.369 57.2 411.583 57.5467 411.023 58.24C410.463 58.9333 410.183 59.8533 410.183 61C410.183 62.1467 410.456 63.0667 411.003 63.76C411.549 64.4533 412.316 64.8 413.303 64.8ZM425.962 66.2C425.015 66.2 424.169 65.9933 423.422 65.58C422.689 65.1667 422.115 64.5733 421.702 63.8C421.289 63.0133 421.082 62.08 421.082 61C421.082 59.92 421.289 58.9933 421.702 58.22C422.115 57.4333 422.682 56.8333 423.402 56.42C424.122 56.0067 424.942 55.8 425.862 55.8C426.795 55.8 427.589 56 428.242 56.4C428.909 56.8 429.415 57.3467 429.762 58.04C430.109 58.72 430.282 59.4867 430.282 60.34C430.282 60.5667 430.275 60.7733 430.262 60.96C430.249 61.1467 430.229 61.3133 430.202 61.46H422.122V60.04H429.502L428.682 60.2C428.682 59.24 428.415 58.5 427.882 57.98C427.362 57.46 426.675 57.2 425.822 57.2C425.169 57.2 424.602 57.3533 424.122 57.66C423.655 57.9533 423.289 58.3867 423.022 58.96C422.769 59.52 422.642 60.2 422.642 61C422.642 61.7867 422.775 62.4667 423.042 63.04C423.309 63.6133 423.682 64.0533 424.162 64.36C424.655 64.6533 425.242 64.8 425.922 64.8C426.655 64.8 427.249 64.66 427.702 64.38C428.169 64.1 428.542 63.72 428.822 63.24L430.082 63.98C429.829 64.4333 429.502 64.8267 429.102 65.16C428.715 65.4933 428.255 65.7533 427.722 65.94C427.202 66.1133 426.615 66.2 425.962 66.2ZM433.325 66V56H434.725L434.865 58.24L434.605 58.02C434.818 57.4867 435.105 57.06 435.465 56.74C435.825 56.4067 436.238 56.1667 436.705 56.02C437.185 55.8733 437.678 55.8 438.185 55.8C438.905 55.8 439.558 55.94 440.145 56.22C440.732 56.4867 441.198 56.9 441.545 57.46C441.905 58.02 442.085 58.7333 442.085 59.6V66H440.485V60.16C440.485 59.0533 440.245 58.2867 439.765 57.86C439.298 57.42 438.718 57.2 438.025 57.2C437.545 57.2 437.065 57.3133 436.585 57.54C436.105 57.7667 435.705 58.1333 435.385 58.64C435.078 59.1467 434.925 59.8267 434.925 60.68V66H433.325ZM446.508 63.6C446.894 63.6 447.208 63.72 447.448 63.96C447.688 64.2 447.808 64.5133 447.808 64.9C447.808 65.2867 447.688 65.6 447.448 65.84C447.208 66.08 446.894 66.2 446.508 66.2C446.121 66.2 445.808 66.08 445.568 65.84C445.328 65.6 445.208 65.2867 445.208 64.9C445.208 64.5133 445.328 64.2 445.568 63.96C445.808 63.72 446.121 63.6 446.508 63.6Z" fill="white"/>
</svg>
