<svg width="526" height="71" viewBox="0 0 526 71" fill="none" xmlns="http://www.w3.org/2000/svg">
<path d="M13.32 0.799999V4.22H9.2V14H4.54V4.22H0.4V0.799999H13.32ZM20.4055 0.6C21.8055 0.6 23.0055 0.866666 24.0055 1.4C25.0055 1.93333 25.7721 2.70667 26.3055 3.72C26.8388 4.73333 27.1055 5.96 27.1055 7.4C27.1055 8.84 26.8388 10.0667 26.3055 11.08C25.7721 12.0933 25.0055 12.8667 24.0055 13.4C23.0055 13.9333 21.8055 14.2 20.4055 14.2C19.0188 14.2 17.8188 13.9333 16.8055 13.4C15.8055 12.8667 15.0321 12.0933 14.4855 11.08C13.9521 10.0667 13.6855 8.84 13.6855 7.4C13.6855 5.96 13.9521 4.73333 14.4855 3.72C15.0321 2.70667 15.8055 1.93333 16.8055 1.4C17.8188 0.866666 19.0188 0.6 20.4055 0.6ZM20.4055 4.1C19.9521 4.1 19.5788 4.22 19.2855 4.46C19.0055 4.68667 18.7921 5.04 18.6455 5.52C18.5121 6 18.4455 6.62667 18.4455 7.4C18.4455 8.16 18.5121 8.78667 18.6455 9.28C18.7921 9.76 19.0055 10.12 19.2855 10.36C19.5788 10.5867 19.9521 10.7 20.4055 10.7C20.8588 10.7 21.2255 10.5867 21.5055 10.36C21.7988 10.12 22.0121 9.76 22.1455 9.28C22.2788 8.78667 22.3455 8.16 22.3455 7.4C22.3455 6.62667 22.2788 6 22.1455 5.52C22.0121 5.04 21.7988 4.68667 21.5055 4.46C21.2255 4.22 20.8588 4.1 20.4055 4.1ZM40.4667 0.799999L35.8467 9.42V14H31.1867V9.42L26.5667 0.799999H31.2067L32.6067 3.82L33.5467 6.22L34.4867 3.82L35.8867 0.799999H40.4667ZM52.0339 0.6C53.3006 0.6 54.4339 0.76 55.4339 1.08C56.4472 1.38667 57.3406 1.85333 58.1139 2.48L56.2339 5.48C55.6072 5.04 54.9472 4.68667 54.2539 4.42C53.5739 4.15333 52.8339 4.02 52.0339 4.02C51.6872 4.02 51.4072 4.04667 51.1939 4.1C50.9939 4.15333 50.8472 4.22667 50.7539 4.32C50.6739 4.41333 50.6339 4.52 50.6339 4.64C50.6339 4.8 50.7539 4.92 50.9939 5C51.2472 5.08 51.5606 5.16667 51.9339 5.26L53.7539 5.68C55.1006 5.98667 56.1139 6.44 56.7939 7.04C57.4872 7.64 57.8339 8.47333 57.8339 9.54C57.8339 10.6067 57.5739 11.4867 57.0539 12.18C56.5339 12.86 55.8272 13.3667 54.9339 13.7C54.0539 14.0333 53.0539 14.2 51.9339 14.2C51.0939 14.2 50.2539 14.1267 49.4139 13.98C48.5739 13.82 47.7939 13.5933 47.0739 13.3C46.3539 12.9933 45.7339 12.6267 45.2139 12.2L47.0539 9.14C47.4406 9.44667 47.9072 9.72667 48.4539 9.98C49.0006 10.22 49.5672 10.4133 50.1539 10.56C50.7406 10.7067 51.2872 10.78 51.7939 10.78C52.1139 10.78 52.3672 10.7533 52.5539 10.7C52.7406 10.6467 52.8672 10.58 52.9339 10.5C53.0139 10.4067 53.0539 10.3 53.0539 10.18C53.0539 9.99333 52.9739 9.85333 52.8139 9.76C52.6672 9.66667 52.3939 9.57333 51.9939 9.48L49.9939 9.04C49.2872 8.88 48.6139 8.66667 47.9739 8.4C47.3339 8.13333 46.8139 7.74667 46.4139 7.24C46.0139 6.72 45.8139 6.02 45.8139 5.14C45.8139 4.23333 46.0539 3.44 46.5339 2.76C47.0272 2.08 47.7339 1.55333 48.6539 1.18C49.5872 0.793333 50.7139 0.6 52.0339 0.6ZM71.5427 0.799999V4.22H67.4227V14H62.7627V4.22H58.6227V0.799999H71.5427ZM78.6281 0.6C80.0281 0.6 81.2281 0.866666 82.2281 1.4C83.2281 1.93333 83.9948 2.70667 84.5281 3.72C85.0615 4.73333 85.3281 5.96 85.3281 7.4C85.3281 8.84 85.0615 10.0667 84.5281 11.08C83.9948 12.0933 83.2281 12.8667 82.2281 13.4C81.2281 13.9333 80.0281 14.2 78.6281 14.2C77.2415 14.2 76.0415 13.9333 75.0281 13.4C74.0281 12.8667 73.2548 12.0933 72.7081 11.08C72.1748 10.0667 71.9081 8.84 71.9081 7.4C71.9081 5.96 72.1748 4.73333 72.7081 3.72C73.2548 2.70667 74.0281 1.93333 75.0281 1.4C76.0415 0.866666 77.2415 0.6 78.6281 0.6ZM78.6281 4.1C78.1748 4.1 77.8015 4.22 77.5081 4.46C77.2281 4.68667 77.0148 5.04 76.8681 5.52C76.7348 6 76.6681 6.62667 76.6681 7.4C76.6681 8.16 76.7348 8.78667 76.8681 9.28C77.0148 9.76 77.2281 10.12 77.5081 10.36C77.8015 10.5867 78.1748 10.7 78.6281 10.7C79.0815 10.7 79.4481 10.5867 79.7281 10.36C80.0215 10.12 80.2348 9.76 80.3681 9.28C80.5015 8.78667 80.5681 8.16 80.5681 7.4C80.5681 6.62667 80.5015 6 80.3681 5.52C80.2348 5.04 80.0215 4.68667 79.7281 4.46C79.4481 4.22 79.0815 4.1 78.6281 4.1ZM94.0584 0.799999C95.7784 0.799999 97.0984 1.18667 98.0184 1.96C98.9384 2.72 99.3984 3.73333 99.3984 5C99.3984 6.45333 98.9451 7.54667 98.0384 8.28C97.1451 9.01333 95.8384 9.38 94.1184 9.38L93.6584 9.62H91.4584V14H86.8984V0.799999H94.0584ZM93.2584 6.56C93.7518 6.56 94.1184 6.47333 94.3584 6.3C94.6118 6.11333 94.7384 5.79333 94.7384 5.34C94.7384 4.9 94.6118 4.58667 94.3584 4.4C94.1184 4.21333 93.7518 4.12 93.2584 4.12H91.4584V6.56H93.2584ZM96.0184 7.54L100.138 14H95.0784L91.9984 8.22L96.0184 7.54ZM113.025 0.799999L108.405 9.42V14H103.745V9.42L99.1253 0.799999H103.765L105.165 3.82L106.105 6.22L107.045 3.82L108.445 0.799999H113.025ZM125.113 14V11.48H118.673V8.66C118.859 8.31333 119.113 7.88667 119.433 7.38C119.766 6.86 120.153 6.26667 120.593 5.6L123.733 0.799999H129.112V8.46H130.893V11.48H129.112V14H125.113ZM122.113 8.46H125.173V5.08C125.173 4.88 125.173 4.66 125.173 4.42C125.186 4.18 125.199 3.93333 125.213 3.68H125.173C125.053 3.90667 124.926 4.13333 124.793 4.36C124.673 4.58667 124.546 4.8 124.413 5L122.812 7.46C122.706 7.63333 122.593 7.8 122.473 7.96C122.366 8.12 122.246 8.28667 122.113 8.46ZM134.171 9.88C134.784 9.88 135.278 10.0133 135.651 10.28C136.038 10.5467 136.318 10.8933 136.491 11.32C136.678 11.7333 136.771 12.18 136.771 12.66C136.771 13.38 136.604 14.0533 136.271 14.68C135.951 15.32 135.544 15.8667 135.051 16.32C134.558 16.7867 134.071 17.12 133.591 17.32L131.851 16.14C132.224 15.9667 132.578 15.7667 132.911 15.54C133.258 15.3133 133.571 15.0667 133.851 14.8C134.131 14.5333 134.351 14.26 134.511 13.98L134.411 13.9C134.318 13.9533 134.211 13.9933 134.091 14.02C133.971 14.06 133.818 14.08 133.631 14.08C133.338 14.08 133.044 14.0133 132.751 13.88C132.458 13.7333 132.211 13.52 132.011 13.24C131.811 12.96 131.711 12.6067 131.711 12.18C131.711 11.6333 131.824 11.1933 132.051 10.86C132.291 10.5267 132.598 10.28 132.971 10.12C133.358 9.96 133.758 9.88 134.171 9.88ZM143.344 14V11.2C144.344 10.6667 145.211 10.1333 145.944 9.6C146.691 9.06667 147.304 8.54667 147.784 8.04C148.278 7.52 148.644 7.03333 148.884 6.58C149.124 6.11333 149.244 5.68667 149.244 5.3C149.244 4.98 149.164 4.7 149.004 4.46C148.844 4.22 148.564 4.1 148.164 4.1C147.711 4.1 147.378 4.28667 147.164 4.66C146.951 5.03333 146.858 5.62667 146.884 6.44L142.904 5.48C142.878 4.36 143.111 3.44 143.604 2.72C144.098 2 144.771 1.46667 145.624 1.12C146.491 0.773333 147.444 0.6 148.484 0.6C149.484 0.6 150.324 0.739999 151.004 1.02C151.698 1.28667 152.251 1.64 152.664 2.08C153.078 2.50667 153.371 2.97333 153.544 3.48C153.731 3.97333 153.824 4.44667 153.824 4.9C153.824 5.78 153.591 6.57333 153.124 7.28C152.671 7.98667 152.058 8.62 151.284 9.18C150.511 9.74 149.651 10.2467 148.704 10.7V10.74C148.984 10.7133 149.291 10.6933 149.624 10.68C149.971 10.6533 150.331 10.64 150.704 10.64C151.091 10.6267 151.471 10.62 151.844 10.62H153.904V14H143.344ZM161.014 14.2C159.014 14.2 157.534 13.6333 156.574 12.5C155.627 11.3667 155.154 9.66667 155.154 7.4C155.154 5.13333 155.627 3.43333 156.574 2.3C157.534 1.16667 159.014 0.6 161.014 0.6C163.014 0.6 164.487 1.16667 165.434 2.3C166.394 3.43333 166.874 5.13333 166.874 7.4C166.874 9.66667 166.394 11.3667 165.434 12.5C164.487 13.6333 163.014 14.2 161.014 14.2ZM161.014 10.7C161.36 10.7 161.627 10.6067 161.814 10.42C162 10.2333 162.127 9.9 162.194 9.42C162.274 8.94 162.314 8.26667 162.314 7.4C162.314 6.53333 162.274 5.86 162.194 5.38C162.127 4.9 162 4.56667 161.814 4.38C161.627 4.19333 161.36 4.1 161.014 4.1C160.68 4.1 160.414 4.19333 160.214 4.38C160.027 4.56667 159.894 4.9 159.814 5.38C159.747 5.86 159.714 6.53333 159.714 7.4C159.714 8.26667 159.747 8.94 159.814 9.42C159.894 9.9 160.027 10.2333 160.214 10.42C160.414 10.6067 160.68 10.7 161.014 10.7ZM171.198 14V7.8C171.198 7.36 171.198 6.92 171.198 6.48C171.198 6.04 171.198 5.6 171.198 5.16C170.771 5.53333 170.311 5.86 169.818 6.14C169.324 6.40667 168.804 6.58 168.258 6.66L167.998 2.92C168.411 2.88 168.824 2.79333 169.238 2.66C169.651 2.51333 170.038 2.34 170.398 2.14C170.771 1.94 171.098 1.72667 171.378 1.5C171.671 1.27333 171.891 1.04 172.038 0.799999H175.658V14H171.198ZM182.577 0.6C183.857 0.6 184.924 0.84 185.777 1.32C186.644 1.78667 187.291 2.51333 187.717 3.5C188.157 4.48667 188.377 5.76 188.377 7.32C188.377 9 188.111 10.3467 187.577 11.36C187.057 12.36 186.357 13.0867 185.477 13.54C184.597 13.98 183.631 14.2 182.577 14.2C181.391 14.2 180.351 13.9867 179.457 13.56C178.577 13.12 177.917 12.3933 177.477 11.38L181.557 9.92C181.611 10.2267 181.724 10.46 181.897 10.62C182.071 10.78 182.311 10.86 182.617 10.86C182.857 10.86 183.077 10.8133 183.277 10.72C183.477 10.6267 183.651 10.4867 183.797 10.3C183.944 10.1133 184.057 9.87333 184.137 9.58C184.217 9.28667 184.257 8.93333 184.257 8.52C184.257 8.45333 184.257 8.39333 184.257 8.34C184.257 8.27333 184.257 8.19333 184.257 8.1H184.197C184.064 8.36667 183.851 8.59333 183.557 8.78C183.277 8.96667 182.951 9.11333 182.577 9.22C182.204 9.31333 181.797 9.36 181.357 9.36C180.557 9.36 179.844 9.19333 179.217 8.86C178.591 8.51333 178.097 8.03333 177.737 7.42C177.377 6.79333 177.197 6.06667 177.197 5.24C177.197 4.26667 177.424 3.44 177.877 2.76C178.344 2.06667 178.977 1.53333 179.777 1.16C180.591 0.786666 181.524 0.6 182.577 0.6ZM182.577 3.98C182.231 3.98 181.937 4.08 181.697 4.28C181.471 4.46667 181.357 4.74 181.357 5.1C181.357 5.46 181.471 5.74 181.697 5.94C181.937 6.12667 182.231 6.22 182.577 6.22C182.791 6.22 182.991 6.18 183.177 6.1C183.364 6.00667 183.511 5.88 183.617 5.72C183.737 5.54667 183.797 5.34 183.797 5.1C183.797 4.86 183.737 4.66 183.617 4.5C183.511 4.32667 183.364 4.2 183.177 4.12C182.991 4.02667 182.791 3.98 182.577 3.98ZM3.76 26.8V40H2.16V26.8H3.76ZM7.68031 40V30H9.08031L9.22031 32.24L8.96031 32.02C9.17365 31.4867 9.46031 31.06 9.82031 30.74C10.1803 30.4067 10.5936 30.1667 11.0603 30.02C11.5403 29.8733 12.0336 29.8 12.5403 29.8C13.2603 29.8 13.9136 29.94 14.5003 30.22C15.087 30.4867 15.5536 30.9 15.9003 31.46C16.2603 32.02 16.4403 32.7333 16.4403 33.6V40H14.8403V34.16C14.8403 33.0533 14.6003 32.2867 14.1203 31.86C13.6536 31.42 13.0736 31.2 12.3803 31.2C11.9003 31.2 11.4203 31.3133 10.9403 31.54C10.4603 31.7667 10.0603 32.1333 9.74031 32.64C9.43365 33.1467 9.28031 33.8267 9.28031 34.68V40H7.68031ZM28.8489 27.16V37.24C28.8489 37.7333 28.9889 38.1 29.2689 38.34C29.5489 38.58 29.9089 38.7 30.3489 38.7C30.7356 38.7 31.0689 38.6333 31.3489 38.5C31.6289 38.3667 31.8822 38.1867 32.1089 37.96L32.6689 39.3C32.3622 39.58 31.9956 39.8 31.5689 39.96C31.1556 40.12 30.6756 40.2 30.1289 40.2C29.6222 40.2 29.1489 40.1133 28.7089 39.94C28.2689 39.7533 27.9156 39.4667 27.6489 39.08C27.3956 38.68 27.2622 38.16 27.2489 37.52V27.6L28.8489 27.16ZM32.4889 30V31.38H25.2489V30H32.4889ZM34.8678 40V25.4H36.4678V31.5C36.8145 30.9 37.2745 30.4667 37.8478 30.2C38.4211 29.9333 39.0478 29.8 39.7278 29.8C40.4478 29.8 41.1011 29.94 41.6878 30.22C42.2745 30.4867 42.7411 30.9 43.0878 31.46C43.4478 32.02 43.6278 32.7333 43.6278 33.6V40H42.0278V34.16C42.0278 33.0533 41.7878 32.2867 41.3078 31.86C40.8411 31.42 40.2611 31.2 39.5678 31.2C39.0878 31.2 38.6078 31.3133 38.1278 31.54C37.6478 31.7667 37.2478 32.14 36.9278 32.66C36.6211 33.1667 36.4678 33.8467 36.4678 34.7V40H34.8678ZM51.4306 40.2C50.484 40.2 49.6373 39.9933 48.8906 39.58C48.1573 39.1667 47.584 38.5733 47.1706 37.8C46.7573 37.0133 46.5506 36.08 46.5506 35C46.5506 33.92 46.7573 32.9933 47.1706 32.22C47.584 31.4333 48.1506 30.8333 48.8706 30.42C49.5906 30.0067 50.4106 29.8 51.3306 29.8C52.264 29.8 53.0573 30 53.7106 30.4C54.3773 30.8 54.884 31.3467 55.2306 32.04C55.5773 32.72 55.7506 33.4867 55.7506 34.34C55.7506 34.5667 55.744 34.7733 55.7306 34.96C55.7173 35.1467 55.6973 35.3133 55.6706 35.46H47.5906V34.04H54.9706L54.1506 34.2C54.1506 33.24 53.884 32.5 53.3506 31.98C52.8306 31.46 52.144 31.2 51.2906 31.2C50.6373 31.2 50.0706 31.3533 49.5906 31.66C49.124 31.9533 48.7573 32.3867 48.4906 32.96C48.2373 33.52 48.1106 34.2 48.1106 35C48.1106 35.7867 48.244 36.4667 48.5106 37.04C48.7773 37.6133 49.1506 38.0533 49.6306 38.36C50.124 38.6533 50.7106 38.8 51.3906 38.8C52.124 38.8 52.7173 38.66 53.1706 38.38C53.6373 38.1 54.0106 37.72 54.2906 37.24L55.5506 37.98C55.2973 38.4333 54.9706 38.8267 54.5706 39.16C54.184 39.4933 53.724 39.7533 53.1906 39.94C52.6706 40.1133 52.084 40.2 51.4306 40.2ZM65.61 44.2V30H67.01L67.15 32.44L66.93 32.16C67.1033 31.6933 67.3633 31.2867 67.71 30.94C68.0567 30.58 68.4767 30.3 68.97 30.1C69.4633 29.9 69.9967 29.8 70.57 29.8C71.3833 29.8 72.13 30.0067 72.81 30.42C73.5033 30.8333 74.0567 31.4267 74.47 32.2C74.8833 32.9733 75.09 33.9067 75.09 35C75.09 36.08 74.8767 37.0133 74.45 37.8C74.0367 38.5733 73.4833 39.1667 72.79 39.58C72.0967 39.9933 71.3367 40.2 70.51 40.2C69.6833 40.2 68.9567 40 68.33 39.6C67.7167 39.1867 67.2767 38.6667 67.01 38.04L67.21 37.74V44.2H65.61ZM70.35 38.8C71.3367 38.8 72.1033 38.4533 72.65 37.76C73.21 37.0667 73.49 36.1467 73.49 35C73.49 33.8533 73.2167 32.9333 72.67 32.24C72.1367 31.5467 71.3833 31.2 70.41 31.2C69.77 31.2 69.21 31.36 68.73 31.68C68.25 31.9867 67.8767 32.4267 67.61 33C67.3433 33.56 67.21 34.2267 67.21 35C67.21 35.76 67.3367 36.4267 67.59 37C67.8567 37.5733 68.2233 38.02 68.69 38.34C69.17 38.6467 69.7233 38.8 70.35 38.8ZM78.9491 28.08C78.5891 28.08 78.2957 27.9733 78.0691 27.76C77.8557 27.5333 77.7491 27.24 77.7491 26.88C77.7491 26.52 77.8557 26.2333 78.0691 26.02C78.2957 25.7933 78.5891 25.68 78.9491 25.68C79.3091 25.68 79.5957 25.7933 79.8091 26.02C80.0357 26.2333 80.1491 26.52 80.1491 26.88C80.1491 27.24 80.0357 27.5333 79.8091 27.76C79.5957 27.9733 79.3091 28.08 78.9491 28.08ZM79.7491 30V40H78.1491V30H79.7491ZM87.6016 29.8C88.2949 29.8 88.9016 29.9067 89.4216 30.12C89.9549 30.3333 90.4149 30.64 90.8016 31.04C91.1882 31.44 91.5016 31.9133 91.7416 32.46L90.2216 33.18C90.0082 32.54 89.6816 32.0533 89.2416 31.72C88.8149 31.3733 88.2549 31.2 87.5616 31.2C86.8949 31.2 86.3216 31.3533 85.8416 31.66C85.3616 31.9533 84.9949 32.3867 84.7416 32.96C84.4882 33.52 84.3616 34.2 84.3616 35C84.3616 35.7867 84.4882 36.4667 84.7416 37.04C84.9949 37.6133 85.3616 38.0533 85.8416 38.36C86.3216 38.6533 86.8949 38.8 87.5616 38.8C88.0816 38.8 88.5282 38.72 88.9016 38.56C89.2882 38.4 89.6016 38.1667 89.8416 37.86C90.0949 37.5533 90.2682 37.18 90.3616 36.74L91.8416 37.26C91.6149 37.8733 91.3016 38.4 90.9016 38.84C90.5149 39.28 90.0416 39.62 89.4816 39.86C88.9349 40.0867 88.3082 40.2 87.6016 40.2C86.6682 40.2 85.8349 39.9933 85.1016 39.58C84.3682 39.1667 83.7949 38.5733 83.3816 37.8C82.9682 37.0133 82.7616 36.08 82.7616 35C82.7616 33.92 82.9682 32.9933 83.3816 32.22C83.7949 31.4333 84.3682 30.8333 85.1016 30.42C85.8349 30.0067 86.6682 29.8 87.6016 29.8ZM97.013 27.16V37.24C97.013 37.7333 97.153 38.1 97.433 38.34C97.713 38.58 98.073 38.7 98.513 38.7C98.8996 38.7 99.233 38.6333 99.513 38.5C99.793 38.3667 100.046 38.1867 100.273 37.96L100.833 39.3C100.526 39.58 100.16 39.8 99.733 39.96C99.3196 40.12 98.8396 40.2 98.293 40.2C97.7863 40.2 97.313 40.1133 96.873 39.94C96.433 39.7533 96.0796 39.4667 95.813 39.08C95.5596 38.68 95.4263 38.16 95.413 37.52V27.6L97.013 27.16ZM100.653 30V31.38H93.413V30H100.653ZM106.652 40.2C106.012 40.2 105.405 40.08 104.832 39.84C104.272 39.6 103.812 39.2133 103.452 38.68C103.105 38.1333 102.932 37.4267 102.932 36.56V30H104.532V36.14C104.532 37.1533 104.752 37.8533 105.192 38.24C105.632 38.6133 106.252 38.8 107.052 38.8C107.425 38.8 107.792 38.74 108.152 38.62C108.512 38.4867 108.832 38.2867 109.112 38.02C109.405 37.74 109.632 37.3867 109.792 36.96C109.965 36.5333 110.052 36.0267 110.052 35.44V30H111.652V40H110.252L110.152 38.48C109.805 39.08 109.332 39.52 108.732 39.8C108.145 40.0667 107.452 40.2 106.652 40.2ZM115.376 40V30H116.676L116.896 31.64C117.176 31.0267 117.582 30.5667 118.116 30.26C118.662 29.9533 119.322 29.8 120.096 29.8C120.269 29.8 120.456 29.8133 120.656 29.84C120.869 29.8667 121.049 29.92 121.196 30L120.916 31.46C120.769 31.4067 120.609 31.3667 120.436 31.34C120.262 31.3133 120.016 31.3 119.696 31.3C119.282 31.3 118.862 31.42 118.436 31.66C118.022 31.9 117.676 32.2667 117.396 32.76C117.116 33.24 116.976 33.8533 116.976 34.6V40H115.376ZM127.407 40.2C126.461 40.2 125.614 39.9933 124.867 39.58C124.134 39.1667 123.561 38.5733 123.147 37.8C122.734 37.0133 122.527 36.08 122.527 35C122.527 33.92 122.734 32.9933 123.147 32.22C123.561 31.4333 124.127 30.8333 124.847 30.42C125.567 30.0067 126.387 29.8 127.307 29.8C128.241 29.8 129.034 30 129.687 30.4C130.354 30.8 130.861 31.3467 131.207 32.04C131.554 32.72 131.727 33.4867 131.727 34.34C131.727 34.5667 131.721 34.7733 131.707 34.96C131.694 35.1467 131.674 35.3133 131.647 35.46H123.567V34.04H130.947L130.127 34.2C130.127 33.24 129.861 32.5 129.327 31.98C128.807 31.46 128.121 31.2 127.267 31.2C126.614 31.2 126.047 31.3533 125.567 31.66C125.101 31.9533 124.734 32.3867 124.467 32.96C124.214 33.52 124.087 34.2 124.087 35C124.087 35.7867 124.221 36.4667 124.487 37.04C124.754 37.6133 125.127 38.0533 125.607 38.36C126.101 38.6533 126.687 38.8 127.367 38.8C128.101 38.8 128.694 38.66 129.147 38.38C129.614 38.1 129.987 37.72 130.267 37.24L131.527 37.98C131.274 38.4333 130.947 38.8267 130.547 39.16C130.161 39.4933 129.701 39.7533 129.167 39.94C128.647 40.1133 128.061 40.2 127.407 40.2ZM141.587 40V25.4H143.187V31.5C143.533 30.9 143.993 30.4667 144.567 30.2C145.14 29.9333 145.767 29.8 146.447 29.8C147.167 29.8 147.82 29.94 148.407 30.22C148.993 30.4867 149.46 30.9 149.807 31.46C150.167 32.02 150.347 32.7333 150.347 33.6V40H148.747V34.16C148.747 33.0533 148.507 32.2867 148.027 31.86C147.56 31.42 146.98 31.2 146.287 31.2C145.807 31.2 145.327 31.3133 144.847 31.54C144.367 31.7667 143.967 32.14 143.647 32.66C143.34 33.1667 143.187 33.8467 143.187 34.7V40H141.587ZM159.809 33.54C159.809 32.7933 159.609 32.22 159.209 31.82C158.809 31.4067 158.243 31.2 157.509 31.2C156.816 31.2 156.229 31.3533 155.749 31.66C155.269 31.9533 154.916 32.4333 154.689 33.1L153.389 32.3C153.656 31.5533 154.149 30.9533 154.869 30.5C155.589 30.0333 156.483 29.8 157.549 29.8C158.269 29.8 158.923 29.9267 159.509 30.18C160.096 30.42 160.556 30.7933 160.889 31.3C161.236 31.7933 161.409 32.4333 161.409 33.22V38.06C161.409 38.54 161.663 38.78 162.169 38.78C162.423 38.78 162.669 38.7467 162.909 38.68L162.829 39.94C162.563 40.0733 162.216 40.14 161.789 40.14C161.403 40.14 161.056 40.0667 160.749 39.92C160.443 39.7733 160.203 39.5533 160.029 39.26C159.856 38.9533 159.769 38.5733 159.769 38.12V37.92L160.169 37.98C160.009 38.5 159.736 38.9267 159.349 39.26C158.963 39.58 158.529 39.82 158.049 39.98C157.569 40.1267 157.096 40.2 156.629 40.2C156.043 40.2 155.496 40.1 154.989 39.9C154.483 39.7 154.076 39.4 153.769 39C153.476 38.5867 153.329 38.08 153.329 37.48C153.329 36.7333 153.576 36.12 154.069 35.64C154.576 35.1467 155.276 34.8133 156.169 34.64L160.129 33.86V35.18L156.909 35.84C156.256 35.9733 155.769 36.16 155.449 36.4C155.129 36.64 154.969 36.9733 154.969 37.4C154.969 37.8133 155.129 38.1533 155.449 38.42C155.783 38.6733 156.249 38.8 156.849 38.8C157.236 38.8 157.603 38.7533 157.949 38.66C158.309 38.5533 158.629 38.4 158.909 38.2C159.189 37.9867 159.409 37.7267 159.569 37.42C159.729 37.1 159.809 36.7267 159.809 36.3V33.54ZM165.298 40V30H166.698L166.838 32.24L166.578 32.02C166.791 31.4867 167.078 31.06 167.438 30.74C167.798 30.4067 168.211 30.1667 168.678 30.02C169.158 29.8733 169.651 29.8 170.158 29.8C170.878 29.8 171.531 29.94 172.118 30.22C172.704 30.4867 173.171 30.9 173.518 31.46C173.878 32.02 174.058 32.7333 174.058 33.6V40H172.458V34.16C172.458 33.0533 172.218 32.2867 171.738 31.86C171.271 31.42 170.691 31.2 169.998 31.2C169.518 31.2 169.038 31.3133 168.558 31.54C168.078 31.7667 167.678 32.1333 167.358 32.64C167.051 33.1467 166.898 33.8267 166.898 34.68V40H165.298ZM186.1 28.16L186.46 29.58C186.447 29.58 186.427 29.58 186.4 29.58C186.374 29.58 186.347 29.58 186.32 29.58C185.667 29.58 185.16 29.7133 184.8 29.98C184.454 30.2333 184.28 30.6467 184.28 31.22L183.3 30.72C183.3 30.2 183.42 29.7467 183.66 29.36C183.9 28.9733 184.227 28.68 184.64 28.48C185.054 28.2667 185.507 28.16 186 28.16C186.014 28.16 186.027 28.16 186.04 28.16C186.067 28.16 186.087 28.16 186.1 28.16ZM183.06 38.72C184.007 38.72 184.747 38.94 185.28 39.38C185.814 39.8067 186.08 40.38 186.08 41.1C186.08 41.7533 185.86 42.32 185.42 42.8C184.994 43.28 184.414 43.6467 183.68 43.9C182.96 44.1667 182.147 44.3 181.24 44.3C179.667 44.3 178.487 44.0333 177.7 43.5C176.927 42.9667 176.54 42.3267 176.54 41.58C176.54 41.0467 176.714 40.5667 177.06 40.14C177.42 39.7267 178.02 39.4933 178.86 39.44L178.72 39.74C178.267 39.62 177.88 39.42 177.56 39.14C177.254 38.8467 177.1 38.4267 177.1 37.88C177.1 37.3333 177.3 36.8667 177.7 36.48C178.114 36.08 178.72 35.8333 179.52 35.74L180.58 36.28H180.38C179.727 36.3467 179.26 36.5133 178.98 36.78C178.714 37.0333 178.58 37.3133 178.58 37.62C178.58 37.9933 178.714 38.2733 178.98 38.46C179.26 38.6333 179.647 38.72 180.14 38.72H183.06ZM181.22 42.96C181.994 42.96 182.627 42.88 183.12 42.72C183.627 42.56 184 42.3533 184.24 42.1C184.48 41.8467 184.6 41.5733 184.6 41.28C184.6 40.92 184.454 40.6333 184.16 40.42C183.88 40.2067 183.367 40.1 182.62 40.1H179.54C179.114 40.1 178.754 40.2067 178.46 40.42C178.167 40.6467 178.02 40.9533 178.02 41.34C178.02 41.8333 178.3 42.2267 178.86 42.52C179.434 42.8133 180.22 42.96 181.22 42.96ZM181.08 29.8C181.88 29.8 182.587 29.9467 183.2 30.24C183.827 30.52 184.314 30.9133 184.66 31.42C185.007 31.9267 185.18 32.5133 185.18 33.18C185.18 33.8333 185.007 34.42 184.66 34.94C184.314 35.4467 183.827 35.8467 183.2 36.14C182.587 36.42 181.88 36.56 181.08 36.56C179.76 36.56 178.747 36.2467 178.04 35.62C177.334 34.98 176.98 34.1667 176.98 33.18C176.98 32.5133 177.154 31.9267 177.5 31.42C177.86 30.9133 178.347 30.52 178.96 30.24C179.574 29.9467 180.28 29.8 181.08 29.8ZM181.08 31.1C180.387 31.1 179.807 31.2933 179.34 31.68C178.874 32.0533 178.64 32.5533 178.64 33.18C178.64 33.7933 178.874 34.2933 179.34 34.68C179.807 35.0667 180.387 35.26 181.08 35.26C181.774 35.26 182.354 35.0667 182.82 34.68C183.287 34.2933 183.52 33.7933 183.52 33.18C183.52 32.5533 183.287 32.0533 182.82 31.68C182.354 31.2933 181.774 31.1 181.08 31.1ZM189.125 28.08C188.765 28.08 188.472 27.9733 188.245 27.76C188.032 27.5333 187.925 27.24 187.925 26.88C187.925 26.52 188.032 26.2333 188.245 26.02C188.472 25.7933 188.765 25.68 189.125 25.68C189.485 25.68 189.772 25.7933 189.985 26.02C190.212 26.2333 190.325 26.52 190.325 26.88C190.325 27.24 190.212 27.5333 189.985 27.76C189.772 27.9733 189.485 28.08 189.125 28.08ZM189.925 30V40H188.325V30H189.925ZM193.637 40V30H195.037L195.177 32.24L194.917 32.02C195.131 31.4867 195.417 31.06 195.777 30.74C196.137 30.4067 196.551 30.1667 197.017 30.02C197.497 29.8733 197.991 29.8 198.497 29.8C199.217 29.8 199.871 29.94 200.457 30.22C201.044 30.4867 201.511 30.9 201.857 31.46C202.217 32.02 202.397 32.7333 202.397 33.6V40H200.797V34.16C200.797 33.0533 200.557 32.2867 200.077 31.86C199.611 31.42 199.031 31.2 198.337 31.2C197.857 31.2 197.377 31.3133 196.897 31.54C196.417 31.7667 196.017 32.1333 195.697 32.64C195.391 33.1467 195.237 33.8267 195.237 34.68V40H193.637ZM214.44 28.16L214.8 29.58C214.787 29.58 214.767 29.58 214.74 29.58C214.713 29.58 214.687 29.58 214.66 29.58C214.007 29.58 213.5 29.7133 213.14 29.98C212.793 30.2333 212.62 30.6467 212.62 31.22L211.64 30.72C211.64 30.2 211.76 29.7467 212 29.36C212.24 28.9733 212.567 28.68 212.98 28.48C213.393 28.2667 213.847 28.16 214.34 28.16C214.353 28.16 214.367 28.16 214.38 28.16C214.407 28.16 214.427 28.16 214.44 28.16ZM211.4 38.72C212.347 38.72 213.087 38.94 213.62 39.38C214.153 39.8067 214.42 40.38 214.42 41.1C214.42 41.7533 214.2 42.32 213.76 42.8C213.333 43.28 212.753 43.6467 212.02 43.9C211.3 44.1667 210.487 44.3 209.58 44.3C208.007 44.3 206.827 44.0333 206.04 43.5C205.267 42.9667 204.88 42.3267 204.88 41.58C204.88 41.0467 205.053 40.5667 205.4 40.14C205.76 39.7267 206.36 39.4933 207.2 39.44L207.06 39.74C206.607 39.62 206.22 39.42 205.9 39.14C205.593 38.8467 205.44 38.4267 205.44 37.88C205.44 37.3333 205.64 36.8667 206.04 36.48C206.453 36.08 207.06 35.8333 207.86 35.74L208.92 36.28H208.72C208.067 36.3467 207.6 36.5133 207.32 36.78C207.053 37.0333 206.92 37.3133 206.92 37.62C206.92 37.9933 207.053 38.2733 207.32 38.46C207.6 38.6333 207.987 38.72 208.48 38.72H211.4ZM209.56 42.96C210.333 42.96 210.967 42.88 211.46 42.72C211.967 42.56 212.34 42.3533 212.58 42.1C212.82 41.8467 212.94 41.5733 212.94 41.28C212.94 40.92 212.793 40.6333 212.5 40.42C212.22 40.2067 211.707 40.1 210.96 40.1H207.88C207.453 40.1 207.093 40.2067 206.8 40.42C206.507 40.6467 206.36 40.9533 206.36 41.34C206.36 41.8333 206.64 42.2267 207.2 42.52C207.773 42.8133 208.56 42.96 209.56 42.96ZM209.42 29.8C210.22 29.8 210.927 29.9467 211.54 30.24C212.167 30.52 212.653 30.9133 213 31.42C213.347 31.9267 213.52 32.5133 213.52 33.18C213.52 33.8333 213.347 34.42 213 34.94C212.653 35.4467 212.167 35.8467 211.54 36.14C210.927 36.42 210.22 36.56 209.42 36.56C208.1 36.56 207.087 36.2467 206.38 35.62C205.673 34.98 205.32 34.1667 205.32 33.18C205.32 32.5133 205.493 31.9267 205.84 31.42C206.2 30.9133 206.687 30.52 207.3 30.24C207.913 29.9467 208.62 29.8 209.42 29.8ZM209.42 31.1C208.727 31.1 208.147 31.2933 207.68 31.68C207.213 32.0533 206.98 32.5533 206.98 33.18C206.98 33.7933 207.213 34.2933 207.68 34.68C208.147 35.0667 208.727 35.26 209.42 35.26C210.113 35.26 210.693 35.0667 211.16 34.68C211.627 34.2933 211.86 33.7933 211.86 33.18C211.86 32.5533 211.627 32.0533 211.16 31.68C210.693 31.2933 210.113 31.1 209.42 31.1ZM227.621 29.8C228.568 29.8 229.401 30.0067 230.121 30.42C230.854 30.8333 231.428 31.4333 231.841 32.22C232.254 32.9933 232.461 33.92 232.461 35C232.461 36.08 232.254 37.0133 231.841 37.8C231.428 38.5733 230.854 39.1667 230.121 39.58C229.401 39.9933 228.568 40.2 227.621 40.2C226.688 40.2 225.854 39.9933 225.121 39.58C224.388 39.1667 223.814 38.5733 223.401 37.8C222.988 37.0133 222.781 36.08 222.781 35C222.781 33.92 222.988 32.9933 223.401 32.22C223.814 31.4333 224.388 30.8333 225.121 30.42C225.854 30.0067 226.688 29.8 227.621 29.8ZM227.621 31.18C226.941 31.18 226.361 31.3333 225.881 31.64C225.401 31.9467 225.028 32.3867 224.761 32.96C224.508 33.52 224.381 34.2 224.381 35C224.381 35.7867 224.508 36.4667 224.761 37.04C225.028 37.6133 225.401 38.0533 225.881 38.36C226.361 38.6667 226.941 38.82 227.621 38.82C228.301 38.82 228.881 38.6667 229.361 38.36C229.841 38.0533 230.208 37.6133 230.461 37.04C230.728 36.4667 230.861 35.7867 230.861 35C230.861 34.2 230.728 33.52 230.461 32.96C230.208 32.3867 229.841 31.9467 229.361 31.64C228.881 31.3333 228.301 31.18 227.621 31.18ZM235.473 40V30H236.873L237.013 32.24L236.753 32.02C236.967 31.4867 237.253 31.06 237.613 30.74C237.973 30.4067 238.387 30.1667 238.853 30.02C239.333 29.8733 239.827 29.8 240.333 29.8C241.053 29.8 241.707 29.94 242.293 30.22C242.88 30.4867 243.347 30.9 243.693 31.46C244.053 32.02 244.233 32.7333 244.233 33.6V40H242.633V34.16C242.633 33.0533 242.393 32.2867 241.913 31.86C241.447 31.42 240.867 31.2 240.173 31.2C239.693 31.2 239.213 31.3133 238.733 31.54C238.253 31.7667 237.853 32.1333 237.533 32.64C237.227 33.1467 237.073 33.8267 237.073 34.68V40H235.473ZM256.642 27.16V37.24C256.642 37.7333 256.782 38.1 257.062 38.34C257.342 38.58 257.702 38.7 258.142 38.7C258.529 38.7 258.862 38.6333 259.142 38.5C259.422 38.3667 259.675 38.1867 259.902 37.96L260.462 39.3C260.155 39.58 259.789 39.8 259.362 39.96C258.949 40.12 258.469 40.2 257.922 40.2C257.415 40.2 256.942 40.1133 256.502 39.94C256.062 39.7533 255.709 39.4667 255.442 39.08C255.189 38.68 255.055 38.16 255.042 37.52V27.6L256.642 27.16ZM260.282 30V31.38H253.042V30H260.282ZM262.661 40V25.4H264.261V31.5C264.607 30.9 265.067 30.4667 265.641 30.2C266.214 29.9333 266.841 29.8 267.521 29.8C268.241 29.8 268.894 29.94 269.481 30.22C270.067 30.4867 270.534 30.9 270.881 31.46C271.241 32.02 271.421 32.7333 271.421 33.6V40H269.821V34.16C269.821 33.0533 269.581 32.2867 269.101 31.86C268.634 31.42 268.054 31.2 267.361 31.2C266.881 31.2 266.401 31.3133 265.921 31.54C265.441 31.7667 265.041 32.14 264.721 32.66C264.414 33.1667 264.261 33.8467 264.261 34.7V40H262.661ZM279.224 40.2C278.277 40.2 277.43 39.9933 276.684 39.58C275.95 39.1667 275.377 38.5733 274.964 37.8C274.55 37.0133 274.344 36.08 274.344 35C274.344 33.92 274.55 32.9933 274.964 32.22C275.377 31.4333 275.944 30.8333 276.664 30.42C277.384 30.0067 278.204 29.8 279.124 29.8C280.057 29.8 280.85 30 281.504 30.4C282.17 30.8 282.677 31.3467 283.024 32.04C283.37 32.72 283.544 33.4867 283.544 34.34C283.544 34.5667 283.537 34.7733 283.524 34.96C283.51 35.1467 283.49 35.3133 283.464 35.46H275.384V34.04H282.764L281.944 34.2C281.944 33.24 281.677 32.5 281.144 31.98C280.624 31.46 279.937 31.2 279.084 31.2C278.43 31.2 277.864 31.3533 277.384 31.66C276.917 31.9533 276.55 32.3867 276.284 32.96C276.03 33.52 275.904 34.2 275.904 35C275.904 35.7867 276.037 36.4667 276.304 37.04C276.57 37.6133 276.944 38.0533 277.424 38.36C277.917 38.6533 278.504 38.8 279.184 38.8C279.917 38.8 280.51 38.66 280.964 38.38C281.43 38.1 281.804 37.72 282.084 37.24L283.344 37.98C283.09 38.4333 282.764 38.8267 282.364 39.16C281.977 39.4933 281.517 39.7533 280.984 39.94C280.464 40.1133 279.877 40.2 279.224 40.2ZM305.494 30H307.274L303.794 40H302.194L299.374 32.04L296.714 40H295.114L291.634 30H293.414L295.934 38.14L298.654 30H300.254L302.974 38.14L305.494 30ZM315.298 33.54C315.298 32.7933 315.098 32.22 314.698 31.82C314.298 31.4067 313.731 31.2 312.998 31.2C312.304 31.2 311.718 31.3533 311.238 31.66C310.758 31.9533 310.404 32.4333 310.178 33.1L308.878 32.3C309.144 31.5533 309.638 30.9533 310.358 30.5C311.078 30.0333 311.971 29.8 313.038 29.8C313.758 29.8 314.411 29.9267 314.998 30.18C315.584 30.42 316.044 30.7933 316.378 31.3C316.724 31.7933 316.898 32.4333 316.898 33.22V38.06C316.898 38.54 317.151 38.78 317.658 38.78C317.911 38.78 318.158 38.7467 318.398 38.68L318.318 39.94C318.051 40.0733 317.704 40.14 317.278 40.14C316.891 40.14 316.544 40.0667 316.238 39.92C315.931 39.7733 315.691 39.5533 315.518 39.26C315.344 38.9533 315.258 38.5733 315.258 38.12V37.92L315.658 37.98C315.498 38.5 315.224 38.9267 314.838 39.26C314.451 39.58 314.018 39.82 313.538 39.98C313.058 40.1267 312.584 40.2 312.118 40.2C311.531 40.2 310.984 40.1 310.478 39.9C309.971 39.7 309.564 39.4 309.258 39C308.964 38.5867 308.818 38.08 308.818 37.48C308.818 36.7333 309.064 36.12 309.558 35.64C310.064 35.1467 310.764 34.8133 311.658 34.64L315.618 33.86V35.18L312.398 35.84C311.744 35.9733 311.258 36.16 310.938 36.4C310.618 36.64 310.458 36.9733 310.458 37.4C310.458 37.8133 310.618 38.1533 310.938 38.42C311.271 38.6733 311.738 38.8 312.338 38.8C312.724 38.8 313.091 38.7533 313.438 38.66C313.798 38.5533 314.118 38.4 314.398 38.2C314.678 37.9867 314.898 37.7267 315.058 37.42C315.218 37.1 315.298 36.7267 315.298 36.3V33.54ZM322.306 25.4V37.46C322.306 37.9667 322.399 38.32 322.586 38.52C322.772 38.7067 323.072 38.8 323.486 38.8C323.752 38.8 323.972 38.78 324.146 38.74C324.319 38.7 324.552 38.6267 324.846 38.52L324.586 39.92C324.372 40.0133 324.139 40.08 323.886 40.12C323.632 40.1733 323.372 40.2 323.106 40.2C322.292 40.2 321.686 39.98 321.286 39.54C320.899 39.1 320.706 38.4267 320.706 37.52V25.4H322.306ZM328.419 25.4V37.46C328.419 37.9667 328.512 38.32 328.699 38.52C328.886 38.7067 329.186 38.8 329.599 38.8C329.866 38.8 330.086 38.78 330.259 38.74C330.432 38.7 330.666 38.6267 330.959 38.52L330.699 39.92C330.486 40.0133 330.252 40.08 329.999 40.12C329.746 40.1733 329.486 40.2 329.219 40.2C328.406 40.2 327.799 39.98 327.399 39.54C327.012 39.1 326.819 38.4267 326.819 37.52V25.4H328.419ZM333.812 37.6C334.132 37.6 334.399 37.6867 334.612 37.86C334.839 38.02 335.012 38.2467 335.132 38.54C335.252 38.82 335.312 39.1533 335.312 39.54C335.312 39.98 335.232 40.4133 335.072 40.84C334.926 41.2667 334.692 41.66 334.372 42.02C334.052 42.38 333.639 42.68 333.132 42.92L332.292 42.14C332.652 42.02 332.966 41.8533 333.232 41.64C333.512 41.4267 333.739 41.1867 333.912 40.92C334.086 40.6533 334.199 40.38 334.252 40.1L334.172 40.06C334.119 40.1 334.052 40.1333 333.972 40.16C333.892 40.1867 333.772 40.2 333.612 40.2C333.452 40.2 333.286 40.1533 333.112 40.06C332.952 39.9667 332.812 39.8333 332.692 39.66C332.572 39.4733 332.512 39.2333 332.512 38.94C332.512 38.7 332.572 38.48 332.692 38.28C332.812 38.0667 332.966 37.9 333.152 37.78C333.352 37.66 333.572 37.6 333.812 37.6ZM348.83 25.3C349.177 25.3 349.503 25.34 349.81 25.42C350.117 25.5 350.357 25.6133 350.53 25.76L350.11 27.06C349.95 26.9533 349.777 26.88 349.59 26.84C349.403 26.7867 349.197 26.76 348.97 26.76C348.397 26.76 347.95 26.9 347.63 27.18C347.31 27.4467 347.15 27.88 347.15 28.48V30V30.52V40H345.55V28.32C345.55 27.88 345.617 27.4733 345.75 27.1C345.883 26.7267 346.083 26.4067 346.35 26.14C346.63 25.8733 346.977 25.6667 347.39 25.52C347.803 25.3733 348.283 25.3 348.83 25.3ZM350.49 30V31.38H343.55V30H350.49ZM357.856 33.54C357.856 32.7933 357.656 32.22 357.256 31.82C356.856 31.4067 356.29 31.2 355.556 31.2C354.863 31.2 354.276 31.3533 353.796 31.66C353.316 31.9533 352.963 32.4333 352.736 33.1L351.436 32.3C351.703 31.5533 352.196 30.9533 352.916 30.5C353.636 30.0333 354.53 29.8 355.596 29.8C356.316 29.8 356.97 29.9267 357.556 30.18C358.143 30.42 358.603 30.7933 358.936 31.3C359.283 31.7933 359.456 32.4333 359.456 33.22V38.06C359.456 38.54 359.71 38.78 360.216 38.78C360.47 38.78 360.716 38.7467 360.956 38.68L360.876 39.94C360.61 40.0733 360.263 40.14 359.836 40.14C359.45 40.14 359.103 40.0667 358.796 39.92C358.49 39.7733 358.25 39.5533 358.076 39.26C357.903 38.9533 357.816 38.5733 357.816 38.12V37.92L358.216 37.98C358.056 38.5 357.783 38.9267 357.396 39.26C357.01 39.58 356.576 39.82 356.096 39.98C355.616 40.1267 355.143 40.2 354.676 40.2C354.09 40.2 353.543 40.1 353.036 39.9C352.53 39.7 352.123 39.4 351.816 39C351.523 38.5867 351.376 38.08 351.376 37.48C351.376 36.7333 351.623 36.12 352.116 35.64C352.623 35.1467 353.323 34.8133 354.216 34.64L358.176 33.86V35.18L354.956 35.84C354.303 35.9733 353.816 36.16 353.496 36.4C353.176 36.64 353.016 36.9733 353.016 37.4C353.016 37.8133 353.176 38.1533 353.496 38.42C353.83 38.6733 354.296 38.8 354.896 38.8C355.283 38.8 355.65 38.7533 355.996 38.66C356.356 38.5533 356.676 38.4 356.956 38.2C357.236 37.9867 357.456 37.7267 357.616 37.42C357.776 37.1 357.856 36.7267 357.856 36.3V33.54ZM363.344 40V30H364.744L364.844 31.56C365.204 30.9467 365.671 30.5 366.244 30.22C366.831 29.94 367.431 29.8 368.044 29.8C368.751 29.8 369.418 29.96 370.044 30.28C370.671 30.6 371.151 31.0933 371.484 31.76C371.698 31.3067 371.998 30.94 372.384 30.66C372.771 30.3667 373.191 30.1533 373.644 30.02C374.111 29.8733 374.551 29.8 374.964 29.8C375.604 29.8 376.211 29.9333 376.784 30.2C377.371 30.4667 377.851 30.88 378.224 31.44C378.598 32 378.784 32.72 378.784 33.6V40H377.184V33.76C377.184 32.8533 376.958 32.2 376.504 31.8C376.051 31.4 375.491 31.2 374.824 31.2C374.304 31.2 373.818 31.3267 373.364 31.58C372.911 31.8333 372.544 32.2067 372.264 32.7C371.998 33.1933 371.864 33.8 371.864 34.52V40H370.264V33.76C370.264 32.8533 370.038 32.2 369.584 31.8C369.131 31.4 368.571 31.2 367.904 31.2C367.464 31.2 367.011 31.32 366.544 31.56C366.091 31.7867 365.711 32.1533 365.404 32.66C365.098 33.1667 364.944 33.8333 364.944 34.66V40H363.344ZM383.207 28.08C382.847 28.08 382.554 27.9733 382.327 27.76C382.114 27.5333 382.007 27.24 382.007 26.88C382.007 26.52 382.114 26.2333 382.327 26.02C382.554 25.7933 382.847 25.68 383.207 25.68C383.567 25.68 383.854 25.7933 384.067 26.02C384.294 26.2333 384.407 26.52 384.407 26.88C384.407 27.24 384.294 27.5333 384.067 27.76C383.854 27.9733 383.567 28.08 383.207 28.08ZM384.007 30V40H382.407V30H384.007ZM389.239 25.4V37.46C389.239 37.9667 389.333 38.32 389.519 38.52C389.706 38.7067 390.006 38.8 390.419 38.8C390.686 38.8 390.906 38.78 391.079 38.74C391.253 38.7 391.486 38.6267 391.779 38.52L391.519 39.92C391.306 40.0133 391.073 40.08 390.819 40.12C390.566 40.1733 390.306 40.2 390.039 40.2C389.226 40.2 388.619 39.98 388.219 39.54C387.833 39.1 387.639 38.4267 387.639 37.52V25.4H389.239ZM394.633 28.08C394.273 28.08 393.979 27.9733 393.753 27.76C393.539 27.5333 393.433 27.24 393.433 26.88C393.433 26.52 393.539 26.2333 393.753 26.02C393.979 25.7933 394.273 25.68 394.633 25.68C394.993 25.68 395.279 25.7933 395.493 26.02C395.719 26.2333 395.833 26.52 395.833 26.88C395.833 27.24 395.719 27.5333 395.493 27.76C395.279 27.9733 394.993 28.08 394.633 28.08ZM395.433 30V40H393.833V30H395.433ZM404.985 33.54C404.985 32.7933 404.785 32.22 404.385 31.82C403.985 31.4067 403.418 31.2 402.685 31.2C401.992 31.2 401.405 31.3533 400.925 31.66C400.445 31.9533 400.092 32.4333 399.865 33.1L398.565 32.3C398.832 31.5533 399.325 30.9533 400.045 30.5C400.765 30.0333 401.658 29.8 402.725 29.8C403.445 29.8 404.098 29.9267 404.685 30.18C405.272 30.42 405.732 30.7933 406.065 31.3C406.412 31.7933 406.585 32.4333 406.585 33.22V38.06C406.585 38.54 406.838 38.78 407.345 38.78C407.598 38.78 407.845 38.7467 408.085 38.68L408.005 39.94C407.738 40.0733 407.392 40.14 406.965 40.14C406.578 40.14 406.232 40.0667 405.925 39.92C405.618 39.7733 405.378 39.5533 405.205 39.26C405.032 38.9533 404.945 38.5733 404.945 38.12V37.92L405.345 37.98C405.185 38.5 404.912 38.9267 404.525 39.26C404.138 39.58 403.705 39.82 403.225 39.98C402.745 40.1267 402.272 40.2 401.805 40.2C401.218 40.2 400.672 40.1 400.165 39.9C399.658 39.7 399.252 39.4 398.945 39C398.652 38.5867 398.505 38.08 398.505 37.48C398.505 36.7333 398.752 36.12 399.245 35.64C399.752 35.1467 400.452 34.8133 401.345 34.64L405.305 33.86V35.18L402.085 35.84C401.432 35.9733 400.945 36.16 400.625 36.4C400.305 36.64 400.145 36.9733 400.145 37.4C400.145 37.8133 400.305 38.1533 400.625 38.42C400.958 38.6733 401.425 38.8 402.025 38.8C402.412 38.8 402.778 38.7533 403.125 38.66C403.485 38.5533 403.805 38.4 404.085 38.2C404.365 37.9867 404.585 37.7267 404.745 37.42C404.905 37.1 404.985 36.7267 404.985 36.3V33.54ZM410.473 40V30H411.773L411.993 31.64C412.273 31.0267 412.68 30.5667 413.213 30.26C413.76 29.9533 414.42 29.8 415.193 29.8C415.367 29.8 415.553 29.8133 415.753 29.84C415.967 29.8667 416.147 29.92 416.293 30L416.013 31.46C415.867 31.4067 415.707 31.3667 415.533 31.34C415.36 31.3133 415.113 31.3 414.793 31.3C414.38 31.3 413.96 31.42 413.533 31.66C413.12 31.9 412.773 32.2667 412.493 32.76C412.213 33.24 412.073 33.8533 412.073 34.6V40H410.473ZM429.125 29.8C429.818 29.8 430.425 29.9067 430.945 30.12C431.478 30.3333 431.938 30.64 432.325 31.04C432.712 31.44 433.025 31.9133 433.265 32.46L431.745 33.18C431.532 32.54 431.205 32.0533 430.765 31.72C430.338 31.3733 429.778 31.2 429.085 31.2C428.418 31.2 427.845 31.3533 427.365 31.66C426.885 31.9533 426.518 32.3867 426.265 32.96C426.012 33.52 425.885 34.2 425.885 35C425.885 35.7867 426.012 36.4667 426.265 37.04C426.518 37.6133 426.885 38.0533 427.365 38.36C427.845 38.6533 428.418 38.8 429.085 38.8C429.605 38.8 430.052 38.72 430.425 38.56C430.812 38.4 431.125 38.1667 431.365 37.86C431.618 37.5533 431.792 37.18 431.885 36.74L433.365 37.26C433.138 37.8733 432.825 38.4 432.425 38.84C432.038 39.28 431.565 39.62 431.005 39.86C430.458 40.0867 429.832 40.2 429.125 40.2C428.192 40.2 427.358 39.9933 426.625 39.58C425.892 39.1667 425.318 38.5733 424.905 37.8C424.492 37.0133 424.285 36.08 424.285 35C424.285 33.92 424.492 32.9933 424.905 32.22C425.318 31.4333 425.892 30.8333 426.625 30.42C427.358 30.0067 428.192 29.8 429.125 29.8ZM436.176 40V25.4H437.776V31.5C438.123 30.9 438.583 30.4667 439.156 30.2C439.73 29.9333 440.356 29.8 441.036 29.8C441.756 29.8 442.41 29.94 442.996 30.22C443.583 30.4867 444.05 30.9 444.396 31.46C444.756 32.02 444.936 32.7333 444.936 33.6V40H443.336V34.16C443.336 33.0533 443.096 32.2867 442.616 31.86C442.15 31.42 441.57 31.2 440.876 31.2C440.396 31.2 439.916 31.3133 439.436 31.54C438.956 31.7667 438.556 32.14 438.236 32.66C437.93 33.1667 437.776 33.8467 437.776 34.7V40H436.176ZM454.399 33.54C454.399 32.7933 454.199 32.22 453.799 31.82C453.399 31.4067 452.833 31.2 452.099 31.2C451.406 31.2 450.819 31.3533 450.339 31.66C449.859 31.9533 449.506 32.4333 449.279 33.1L447.979 32.3C448.246 31.5533 448.739 30.9533 449.459 30.5C450.179 30.0333 451.073 29.8 452.139 29.8C452.859 29.8 453.513 29.9267 454.099 30.18C454.686 30.42 455.146 30.7933 455.479 31.3C455.826 31.7933 455.999 32.4333 455.999 33.22V38.06C455.999 38.54 456.253 38.78 456.759 38.78C457.013 38.78 457.259 38.7467 457.499 38.68L457.419 39.94C457.153 40.0733 456.806 40.14 456.379 40.14C455.993 40.14 455.646 40.0667 455.339 39.92C455.033 39.7733 454.793 39.5533 454.619 39.26C454.446 38.9533 454.359 38.5733 454.359 38.12V37.92L454.759 37.98C454.599 38.5 454.326 38.9267 453.939 39.26C453.553 39.58 453.119 39.82 452.639 39.98C452.159 40.1267 451.686 40.2 451.219 40.2C450.633 40.2 450.086 40.1 449.579 39.9C449.073 39.7 448.666 39.4 448.359 39C448.066 38.5867 447.919 38.08 447.919 37.48C447.919 36.7333 448.166 36.12 448.659 35.64C449.166 35.1467 449.866 34.8133 450.759 34.64L454.719 33.86V35.18L451.499 35.84C450.846 35.9733 450.359 36.16 450.039 36.4C449.719 36.64 449.559 36.9733 449.559 37.4C449.559 37.8133 449.719 38.1533 450.039 38.42C450.373 38.6733 450.839 38.8 451.439 38.8C451.826 38.8 452.193 38.7533 452.539 38.66C452.899 38.5533 453.219 38.4 453.499 38.2C453.779 37.9867 453.999 37.7267 454.159 37.42C454.319 37.1 454.399 36.7267 454.399 36.3V33.54ZM459.887 40V30H461.187L461.407 31.64C461.687 31.0267 462.094 30.5667 462.627 30.26C463.174 29.9533 463.834 29.8 464.607 29.8C464.781 29.8 464.967 29.8133 465.167 29.84C465.381 29.8667 465.561 29.92 465.707 30L465.427 31.46C465.281 31.4067 465.121 31.3667 464.947 31.34C464.774 31.3133 464.527 31.3 464.207 31.3C463.794 31.3 463.374 31.42 462.947 31.66C462.534 31.9 462.187 32.2667 461.907 32.76C461.627 33.24 461.487 33.8533 461.487 34.6V40H459.887ZM473.618 33.54C473.618 32.7933 473.418 32.22 473.018 31.82C472.618 31.4067 472.051 31.2 471.318 31.2C470.625 31.2 470.038 31.3533 469.558 31.66C469.078 31.9533 468.725 32.4333 468.498 33.1L467.198 32.3C467.465 31.5533 467.958 30.9533 468.678 30.5C469.398 30.0333 470.291 29.8 471.358 29.8C472.078 29.8 472.731 29.9267 473.318 30.18C473.905 30.42 474.365 30.7933 474.698 31.3C475.045 31.7933 475.218 32.4333 475.218 33.22V38.06C475.218 38.54 475.471 38.78 475.978 38.78C476.231 38.78 476.478 38.7467 476.718 38.68L476.638 39.94C476.371 40.0733 476.025 40.14 475.598 40.14C475.211 40.14 474.865 40.0667 474.558 39.92C474.251 39.7733 474.011 39.5533 473.838 39.26C473.665 38.9533 473.578 38.5733 473.578 38.12V37.92L473.978 37.98C473.818 38.5 473.545 38.9267 473.158 39.26C472.771 39.58 472.338 39.82 471.858 39.98C471.378 40.1267 470.905 40.2 470.438 40.2C469.851 40.2 469.305 40.1 468.798 39.9C468.291 39.7 467.885 39.4 467.578 39C467.285 38.5867 467.138 38.08 467.138 37.48C467.138 36.7333 467.385 36.12 467.878 35.64C468.385 35.1467 469.085 34.8133 469.978 34.64L473.938 33.86V35.18L470.718 35.84C470.065 35.9733 469.578 36.16 469.258 36.4C468.938 36.64 468.778 36.9733 468.778 37.4C468.778 37.8133 468.938 38.1533 469.258 38.42C469.591 38.6733 470.058 38.8 470.658 38.8C471.045 38.8 471.411 38.7533 471.758 38.66C472.118 38.5533 472.438 38.4 472.718 38.2C472.998 37.9867 473.218 37.7267 473.378 37.42C473.538 37.1 473.618 36.7267 473.618 36.3V33.54ZM483.246 29.8C483.939 29.8 484.546 29.9067 485.066 30.12C485.599 30.3333 486.059 30.64 486.446 31.04C486.833 31.44 487.146 31.9133 487.386 32.46L485.866 33.18C485.653 32.54 485.326 32.0533 484.886 31.72C484.459 31.3733 483.899 31.2 483.206 31.2C482.539 31.2 481.966 31.3533 481.486 31.66C481.006 31.9533 480.639 32.3867 480.386 32.96C480.133 33.52 480.006 34.2 480.006 35C480.006 35.7867 480.133 36.4667 480.386 37.04C480.639 37.6133 481.006 38.0533 481.486 38.36C481.966 38.6533 482.539 38.8 483.206 38.8C483.726 38.8 484.173 38.72 484.546 38.56C484.933 38.4 485.246 38.1667 485.486 37.86C485.739 37.5533 485.913 37.18 486.006 36.74L487.486 37.26C487.259 37.8733 486.946 38.4 486.546 38.84C486.159 39.28 485.686 39.62 485.126 39.86C484.579 40.0867 483.953 40.2 483.246 40.2C482.313 40.2 481.479 39.9933 480.746 39.58C480.013 39.1667 479.439 38.5733 479.026 37.8C478.613 37.0133 478.406 36.08 478.406 35C478.406 33.92 478.613 32.9933 479.026 32.22C479.439 31.4333 480.013 30.8333 480.746 30.42C481.479 30.0067 482.313 29.8 483.246 29.8ZM492.658 27.16V37.24C492.658 37.7333 492.798 38.1 493.078 38.34C493.358 38.58 493.718 38.7 494.158 38.7C494.544 38.7 494.878 38.6333 495.158 38.5C495.438 38.3667 495.691 38.1867 495.918 37.96L496.478 39.3C496.171 39.58 495.804 39.8 495.378 39.96C494.964 40.12 494.484 40.2 493.938 40.2C493.431 40.2 492.958 40.1133 492.518 39.94C492.078 39.7533 491.724 39.4667 491.458 39.08C491.204 38.68 491.071 38.16 491.058 37.52V27.6L492.658 27.16ZM496.298 30V31.38H489.058V30H496.298ZM502.856 40.2C501.91 40.2 501.063 39.9933 500.316 39.58C499.583 39.1667 499.01 38.5733 498.596 37.8C498.183 37.0133 497.976 36.08 497.976 35C497.976 33.92 498.183 32.9933 498.596 32.22C499.01 31.4333 499.576 30.8333 500.296 30.42C501.016 30.0067 501.836 29.8 502.756 29.8C503.69 29.8 504.483 30 505.136 30.4C505.803 30.8 506.31 31.3467 506.656 32.04C507.003 32.72 507.176 33.4867 507.176 34.34C507.176 34.5667 507.17 34.7733 507.156 34.96C507.143 35.1467 507.123 35.3133 507.096 35.46H499.016V34.04H506.396L505.576 34.2C505.576 33.24 505.31 32.5 504.776 31.98C504.256 31.46 503.57 31.2 502.716 31.2C502.063 31.2 501.496 31.3533 501.016 31.66C500.55 31.9533 500.183 32.3867 499.916 32.96C499.663 33.52 499.536 34.2 499.536 35C499.536 35.7867 499.67 36.4667 499.936 37.04C500.203 37.6133 500.576 38.0533 501.056 38.36C501.55 38.6533 502.136 38.8 502.816 38.8C503.55 38.8 504.143 38.66 504.596 38.38C505.063 38.1 505.436 37.72 505.716 37.24L506.976 37.98C506.723 38.4333 506.396 38.8267 505.996 39.16C505.61 39.4933 505.15 39.7533 504.616 39.94C504.096 40.1133 503.51 40.2 502.856 40.2ZM510.219 40V30H511.519L511.739 31.64C512.019 31.0267 512.426 30.5667 512.959 30.26C513.506 29.9533 514.166 29.8 514.939 29.8C515.113 29.8 515.299 29.8133 515.499 29.84C515.713 29.8667 515.893 29.92 516.039 30L515.759 31.46C515.613 31.4067 515.453 31.3667 515.279 31.34C515.106 31.3133 514.859 31.3 514.539 31.3C514.126 31.3 513.706 31.42 513.279 31.66C512.866 31.9 512.519 32.2667 512.239 32.76C511.959 33.24 511.819 33.8533 511.819 34.6V40H510.219ZM521.554 40.2C520.58 40.2 519.68 39.9933 518.854 39.58C518.04 39.1667 517.414 38.58 516.974 37.82L518.334 36.84C518.627 37.4533 519.054 37.9333 519.614 38.28C520.187 38.6267 520.874 38.8 521.674 38.8C522.38 38.8 522.934 38.6667 523.334 38.4C523.734 38.12 523.934 37.76 523.934 37.32C523.934 37.04 523.84 36.7867 523.654 36.56C523.48 36.32 523.14 36.1467 522.634 36.04L520.234 35.54C519.26 35.34 518.56 35.0067 518.134 34.54C517.72 34.0733 517.514 33.4933 517.514 32.8C517.514 32.2533 517.667 31.7533 517.974 31.3C518.294 30.8467 518.74 30.4867 519.314 30.22C519.9 29.94 520.587 29.8 521.374 29.8C522.36 29.8 523.194 29.9933 523.874 30.38C524.554 30.7667 525.06 31.3133 525.394 32.02L524.054 32.9C523.827 32.3133 523.46 31.8867 522.954 31.62C522.447 31.34 521.92 31.2 521.374 31.2C520.894 31.2 520.48 31.2667 520.134 31.4C519.8 31.5333 519.54 31.72 519.354 31.96C519.18 32.1867 519.094 32.4467 519.094 32.74C519.094 33.0333 519.194 33.3067 519.394 33.56C519.594 33.8 519.967 33.9733 520.514 34.08L523.014 34.6C523.947 34.7867 524.6 35.0933 524.974 35.52C525.347 35.9467 525.534 36.4667 525.534 37.08C525.534 37.7067 525.367 38.26 525.034 38.74C524.7 39.2067 524.234 39.5667 523.634 39.82C523.034 40.0733 522.34 40.2 521.554 40.2ZM5.92 51.3C6.26667 51.3 6.59333 51.34 6.9 51.42C7.20667 51.5 7.44667 51.6133 7.62 51.76L7.2 53.06C7.04 52.9533 6.86667 52.88 6.68 52.84C6.49333 52.7867 6.28667 52.76 6.06 52.76C5.48667 52.76 5.04 52.9 4.72 53.18C4.4 53.4467 4.24 53.88 4.24 54.48V56V56.52V66H2.64V54.32C2.64 53.88 2.70667 53.4733 2.84 53.1C2.97333 52.7267 3.17333 52.4067 3.44 52.14C3.72 51.8733 4.06667 51.6667 4.48 51.52C4.89333 51.3733 5.37333 51.3 5.92 51.3ZM7.58 56V57.38H0.64V56H7.58ZM9.71156 66V56H11.0116L11.2316 57.64C11.5116 57.0267 11.9182 56.5667 12.4516 56.26C12.9982 55.9533 13.6582 55.8 14.4316 55.8C14.6049 55.8 14.7916 55.8133 14.9916 55.84C15.2049 55.8667 15.3849 55.92 15.5316 56L15.2516 57.46C15.1049 57.4067 14.9449 57.3667 14.7716 57.34C14.5982 57.3133 14.3516 57.3 14.0316 57.3C13.6182 57.3 13.1982 57.42 12.7716 57.66C12.3582 57.9 12.0116 58.2667 11.7316 58.76C11.4516 59.24 11.3116 59.8533 11.3116 60.6V66H9.71156ZM21.7031 55.8C22.6498 55.8 23.4831 56.0067 24.2031 56.42C24.9365 56.8333 25.5098 57.4333 25.9231 58.22C26.3365 58.9933 26.5431 59.92 26.5431 61C26.5431 62.08 26.3365 63.0133 25.9231 63.8C25.5098 64.5733 24.9365 65.1667 24.2031 65.58C23.4831 65.9933 22.6498 66.2 21.7031 66.2C20.7698 66.2 19.9365 65.9933 19.2031 65.58C18.4698 65.1667 17.8965 64.5733 17.4831 63.8C17.0698 63.0133 16.8631 62.08 16.8631 61C16.8631 59.92 17.0698 58.9933 17.4831 58.22C17.8965 57.4333 18.4698 56.8333 19.2031 56.42C19.9365 56.0067 20.7698 55.8 21.7031 55.8ZM21.7031 57.18C21.0231 57.18 20.4431 57.3333 19.9631 57.64C19.4831 57.9467 19.1098 58.3867 18.8431 58.96C18.5898 59.52 18.4631 60.2 18.4631 61C18.4631 61.7867 18.5898 62.4667 18.8431 63.04C19.1098 63.6133 19.4831 64.0533 19.9631 64.36C20.4431 64.6667 21.0231 64.82 21.7031 64.82C22.3831 64.82 22.9631 64.6667 23.4431 64.36C23.9231 64.0533 24.2898 63.6133 24.5431 63.04C24.8098 62.4667 24.9431 61.7867 24.9431 61C24.9431 60.2 24.8098 59.52 24.5431 58.96C24.2898 58.3867 23.9231 57.9467 23.4431 57.64C22.9631 57.3333 22.3831 57.18 21.7031 57.18ZM29.5553 66V56H30.9553L31.0553 57.56C31.4153 56.9467 31.882 56.5 32.4553 56.22C33.042 55.94 33.642 55.8 34.2553 55.8C34.962 55.8 35.6286 55.96 36.2553 56.28C36.882 56.6 37.362 57.0933 37.6953 57.76C37.9086 57.3067 38.2086 56.94 38.5953 56.66C38.982 56.3667 39.402 56.1533 39.8553 56.02C40.322 55.8733 40.762 55.8 41.1753 55.8C41.8153 55.8 42.422 55.9333 42.9953 56.2C43.582 56.4667 44.062 56.88 44.4353 57.44C44.8086 58 44.9953 58.72 44.9953 59.6V66H43.3953V59.76C43.3953 58.8533 43.1686 58.2 42.7153 57.8C42.262 57.4 41.702 57.2 41.0353 57.2C40.5153 57.2 40.0286 57.3267 39.5753 57.58C39.122 57.8333 38.7553 58.2067 38.4753 58.7C38.2086 59.1933 38.0753 59.8 38.0753 60.52V66H36.4753V59.76C36.4753 58.8533 36.2486 58.2 35.7953 57.8C35.342 57.4 34.782 57.2 34.1153 57.2C33.6753 57.2 33.222 57.32 32.7553 57.56C32.302 57.7867 31.922 58.1533 31.6153 58.66C31.3086 59.1667 31.1553 59.8333 31.1553 60.66V66H29.5553ZM57.4036 53.16V63.24C57.4036 63.7333 57.5436 64.1 57.8236 64.34C58.1036 64.58 58.4636 64.7 58.9036 64.7C59.2903 64.7 59.6236 64.6333 59.9036 64.5C60.1836 64.3667 60.4369 64.1867 60.6636 63.96L61.2236 65.3C60.9169 65.58 60.5503 65.8 60.1236 65.96C59.7103 66.12 59.2303 66.2 58.6836 66.2C58.1769 66.2 57.7036 66.1133 57.2636 65.94C56.8236 65.7533 56.4703 65.4667 56.2036 65.08C55.9503 64.68 55.8169 64.16 55.8036 63.52V53.6L57.4036 53.16ZM61.0436 56V57.38H53.8036V56H61.0436ZM63.4225 66V51.4H65.0225V57.5C65.3692 56.9 65.8292 56.4667 66.4025 56.2C66.9758 55.9333 67.6025 55.8 68.2825 55.8C69.0025 55.8 69.6558 55.94 70.2425 56.22C70.8292 56.4867 71.2958 56.9 71.6425 57.46C72.0025 58.02 72.1825 58.7333 72.1825 59.6V66H70.5825V60.16C70.5825 59.0533 70.3425 58.2867 69.8625 57.86C69.3958 57.42 68.8158 57.2 68.1225 57.2C67.6425 57.2 67.1625 57.3133 66.6825 57.54C66.2025 57.7667 65.8025 58.14 65.4825 58.66C65.1758 59.1667 65.0225 59.8467 65.0225 60.7V66H63.4225ZM79.9853 66.2C79.0386 66.2 78.192 65.9933 77.4453 65.58C76.712 65.1667 76.1386 64.5733 75.7253 63.8C75.312 63.0133 75.1053 62.08 75.1053 61C75.1053 59.92 75.312 58.9933 75.7253 58.22C76.1386 57.4333 76.7053 56.8333 77.4253 56.42C78.1453 56.0067 78.9653 55.8 79.8853 55.8C80.8186 55.8 81.612 56 82.2653 56.4C82.932 56.8 83.4386 57.3467 83.7853 58.04C84.132 58.72 84.3053 59.4867 84.3053 60.34C84.3053 60.5667 84.2986 60.7733 84.2853 60.96C84.272 61.1467 84.252 61.3133 84.2253 61.46H76.1453V60.04H83.5253L82.7053 60.2C82.7053 59.24 82.4386 58.5 81.9053 57.98C81.3853 57.46 80.6986 57.2 79.8453 57.2C79.192 57.2 78.6253 57.3533 78.1453 57.66C77.6786 57.9533 77.312 58.3867 77.0453 58.96C76.792 59.52 76.6653 60.2 76.6653 61C76.6653 61.7867 76.7986 62.4667 77.0653 63.04C77.332 63.6133 77.7053 64.0533 78.1853 64.36C78.6786 64.6533 79.2653 64.8 79.9453 64.8C80.6786 64.8 81.272 64.66 81.7253 64.38C82.192 64.1 82.5653 63.72 82.8453 63.24L84.1053 63.98C83.852 64.4333 83.5253 64.8267 83.1253 65.16C82.7386 65.4933 82.2786 65.7533 81.7453 65.94C81.2253 66.1133 80.6386 66.2 79.9853 66.2ZM94.1647 66V56H95.5647L95.6647 57.56C96.0247 56.9467 96.4914 56.5 97.0647 56.22C97.6514 55.94 98.2514 55.8 98.8647 55.8C99.5714 55.8 100.238 55.96 100.865 56.28C101.491 56.6 101.971 57.0933 102.305 57.76C102.518 57.3067 102.818 56.94 103.205 56.66C103.591 56.3667 104.011 56.1533 104.465 56.02C104.931 55.8733 105.371 55.8 105.785 55.8C106.425 55.8 107.031 55.9333 107.605 56.2C108.191 56.4667 108.671 56.88 109.045 57.44C109.418 58 109.605 58.72 109.605 59.6V66H108.005V59.76C108.005 58.8533 107.778 58.2 107.325 57.8C106.871 57.4 106.311 57.2 105.645 57.2C105.125 57.2 104.638 57.3267 104.185 57.58C103.731 57.8333 103.365 58.2067 103.085 58.7C102.818 59.1933 102.685 59.8 102.685 60.52V66H101.085V59.76C101.085 58.8533 100.858 58.2 100.405 57.8C99.9514 57.4 99.3914 57.2 98.7247 57.2C98.2847 57.2 97.8314 57.32 97.3647 57.56C96.9114 57.7867 96.5314 58.1533 96.2247 58.66C95.918 59.1667 95.7647 59.8333 95.7647 60.66V66H94.1647ZM117.367 55.8C118.314 55.8 119.147 56.0067 119.867 56.42C120.601 56.8333 121.174 57.4333 121.587 58.22C122.001 58.9933 122.207 59.92 122.207 61C122.207 62.08 122.001 63.0133 121.587 63.8C121.174 64.5733 120.601 65.1667 119.867 65.58C119.147 65.9933 118.314 66.2 117.367 66.2C116.434 66.2 115.601 65.9933 114.867 65.58C114.134 65.1667 113.561 64.5733 113.147 63.8C112.734 63.0133 112.527 62.08 112.527 61C112.527 59.92 112.734 58.9933 113.147 58.22C113.561 57.4333 114.134 56.8333 114.867 56.42C115.601 56.0067 116.434 55.8 117.367 55.8ZM117.367 57.18C116.687 57.18 116.107 57.3333 115.627 57.64C115.147 57.9467 114.774 58.3867 114.507 58.96C114.254 59.52 114.127 60.2 114.127 61C114.127 61.7867 114.254 62.4667 114.507 63.04C114.774 63.6133 115.147 64.0533 115.627 64.36C116.107 64.6667 116.687 64.82 117.367 64.82C118.047 64.82 118.627 64.6667 119.107 64.36C119.587 64.0533 119.954 63.6133 120.207 63.04C120.474 62.4667 120.607 61.7867 120.607 61C120.607 60.2 120.474 59.52 120.207 58.96C119.954 58.3867 119.587 57.9467 119.107 57.64C118.627 57.3333 118.047 57.18 117.367 57.18ZM131.839 56H133.519L129.359 66H127.759L123.599 56H125.419L128.579 64.38L131.839 56ZM136.41 54.08C136.05 54.08 135.757 53.9733 135.53 53.76C135.317 53.5333 135.21 53.24 135.21 52.88C135.21 52.52 135.317 52.2333 135.53 52.02C135.757 51.7933 136.05 51.68 136.41 51.68C136.77 51.68 137.057 51.7933 137.27 52.02C137.497 52.2333 137.61 52.52 137.61 52.88C137.61 53.24 137.497 53.5333 137.27 53.76C137.057 53.9733 136.77 54.08 136.41 54.08ZM137.21 56V66H135.61V56H137.21ZM145.103 66.2C144.156 66.2 143.309 65.9933 142.563 65.58C141.829 65.1667 141.256 64.5733 140.843 63.8C140.429 63.0133 140.223 62.08 140.223 61C140.223 59.92 140.429 58.9933 140.843 58.22C141.256 57.4333 141.823 56.8333 142.543 56.42C143.263 56.0067 144.083 55.8 145.003 55.8C145.936 55.8 146.729 56 147.383 56.4C148.049 56.8 148.556 57.3467 148.903 58.04C149.249 58.72 149.423 59.4867 149.423 60.34C149.423 60.5667 149.416 60.7733 149.403 60.96C149.389 61.1467 149.369 61.3133 149.342 61.46H141.263V60.04H148.643L147.823 60.2C147.823 59.24 147.556 58.5 147.023 57.98C146.503 57.46 145.816 57.2 144.963 57.2C144.309 57.2 143.743 57.3533 143.263 57.66C142.796 57.9533 142.429 58.3867 142.163 58.96C141.909 59.52 141.783 60.2 141.783 61C141.783 61.7867 141.916 62.4667 142.183 63.04C142.449 63.6133 142.823 64.0533 143.303 64.36C143.796 64.6533 144.383 64.8 145.063 64.8C145.796 64.8 146.389 64.66 146.843 64.38C147.309 64.1 147.683 63.72 147.963 63.24L149.223 63.98C148.969 64.4333 148.643 64.8267 148.243 65.16C147.856 65.4933 147.396 65.7533 146.863 65.94C146.343 66.1133 145.756 66.2 145.103 66.2ZM159.982 57.32C159.675 57.32 159.409 57.24 159.182 57.08C158.955 56.9067 158.782 56.6733 158.662 56.38C158.542 56.0867 158.482 55.7533 158.482 55.38C158.482 54.9267 158.555 54.4933 158.702 54.08C158.862 53.6533 159.102 53.26 159.422 52.9C159.742 52.54 160.155 52.24 160.662 52L161.502 52.78C161.142 52.9 160.822 53.0667 160.542 53.28C160.275 53.4933 160.055 53.7333 159.882 54C159.722 54.2667 159.609 54.54 159.542 54.82L159.622 54.86C159.675 54.82 159.742 54.7867 159.822 54.76C159.902 54.7333 160.022 54.72 160.182 54.72C160.342 54.72 160.509 54.7667 160.682 54.86C160.855 54.9533 160.995 55.0933 161.102 55.28C161.222 55.4533 161.282 55.6867 161.282 55.98C161.282 56.22 161.222 56.44 161.102 56.64C160.995 56.84 160.842 57.0067 160.642 57.14C160.442 57.26 160.222 57.32 159.982 57.32ZM163.742 57.32C163.435 57.32 163.169 57.24 162.942 57.08C162.715 56.9067 162.542 56.6733 162.422 56.38C162.302 56.0867 162.242 55.7533 162.242 55.38C162.242 54.9267 162.315 54.4933 162.462 54.08C162.622 53.6533 162.862 53.26 163.182 52.9C163.502 52.54 163.915 52.24 164.422 52L165.262 52.78C164.902 52.9 164.582 53.0667 164.302 53.28C164.035 53.4933 163.815 53.7333 163.642 54C163.482 54.2667 163.369 54.54 163.302 54.82L163.382 54.86C163.435 54.82 163.502 54.7867 163.582 54.76C163.662 54.7333 163.782 54.72 163.942 54.72C164.102 54.72 164.269 54.7667 164.442 54.86C164.615 54.9533 164.755 55.0933 164.862 55.28C164.982 55.4533 165.042 55.6867 165.042 55.98C165.042 56.22 164.982 56.44 164.862 56.64C164.755 56.84 164.602 57.0067 164.402 57.14C164.202 57.26 163.982 57.32 163.742 57.32ZM178.549 52.8V61.08C178.549 62.7733 178.102 64.0533 177.209 64.92C176.316 65.7733 175.036 66.2 173.369 66.2C171.716 66.2 170.436 65.7733 169.529 64.92C168.636 64.0533 168.189 62.7733 168.189 61.08V52.8H169.789V60.68C169.789 62.0533 170.076 63.0667 170.649 63.72C171.236 64.3733 172.142 64.7 173.369 64.7C174.596 64.7 175.496 64.3733 176.069 63.72C176.656 63.0667 176.949 62.0533 176.949 60.68V52.8H178.549ZM182.212 70.2V56H183.612L183.752 58.44L183.532 58.16C183.705 57.6933 183.965 57.2867 184.312 56.94C184.658 56.58 185.078 56.3 185.572 56.1C186.065 55.9 186.598 55.8 187.172 55.8C187.985 55.8 188.732 56.0067 189.412 56.42C190.105 56.8333 190.658 57.4267 191.072 58.2C191.485 58.9733 191.692 59.9067 191.692 61C191.692 62.08 191.478 63.0133 191.052 63.8C190.638 64.5733 190.085 65.1667 189.392 65.58C188.698 65.9933 187.938 66.2 187.112 66.2C186.285 66.2 185.558 66 184.932 65.6C184.318 65.1867 183.878 64.6667 183.612 64.04L183.812 63.74V70.2H182.212ZM186.952 64.8C187.938 64.8 188.705 64.4533 189.252 63.76C189.812 63.0667 190.092 62.1467 190.092 61C190.092 59.8533 189.818 58.9333 189.272 58.24C188.738 57.5467 187.985 57.2 187.012 57.2C186.372 57.2 185.812 57.36 185.332 57.68C184.852 57.9867 184.478 58.4267 184.212 59C183.945 59.56 183.812 60.2267 183.812 61C183.812 61.76 183.938 62.4267 184.192 63C184.458 63.5733 184.825 64.02 185.292 64.34C185.772 64.6467 186.325 64.8 186.952 64.8ZM194.669 57.32C194.363 57.32 194.096 57.24 193.869 57.08C193.643 56.9067 193.469 56.6733 193.349 56.38C193.229 56.0867 193.169 55.7533 193.169 55.38C193.169 54.9267 193.243 54.4933 193.389 54.08C193.549 53.6533 193.789 53.26 194.109 52.9C194.429 52.54 194.843 52.24 195.349 52L196.189 52.78C195.829 52.9 195.509 53.0667 195.229 53.28C194.963 53.4933 194.743 53.7333 194.569 54C194.409 54.2667 194.296 54.54 194.229 54.82L194.309 54.86C194.363 54.82 194.429 54.7867 194.509 54.76C194.589 54.7333 194.709 54.72 194.869 54.72C195.029 54.72 195.196 54.7667 195.369 54.86C195.543 54.9533 195.683 55.0933 195.789 55.28C195.909 55.4533 195.969 55.6867 195.969 55.98C195.969 56.22 195.909 56.44 195.789 56.64C195.683 56.84 195.529 57.0067 195.329 57.14C195.129 57.26 194.909 57.32 194.669 57.32ZM198.429 57.32C198.123 57.32 197.856 57.24 197.629 57.08C197.403 56.9067 197.229 56.6733 197.109 56.38C196.989 56.0867 196.929 55.7533 196.929 55.38C196.929 54.9267 197.003 54.4933 197.149 54.08C197.309 53.6533 197.549 53.26 197.869 52.9C198.189 52.54 198.603 52.24 199.109 52L199.949 52.78C199.589 52.9 199.269 53.0667 198.989 53.28C198.723 53.4933 198.503 53.7333 198.329 54C198.169 54.2667 198.056 54.54 197.989 54.82L198.069 54.86C198.123 54.82 198.189 54.7867 198.269 54.76C198.349 54.7333 198.469 54.72 198.629 54.72C198.789 54.72 198.956 54.7667 199.129 54.86C199.303 54.9533 199.443 55.0933 199.549 55.28C199.669 55.4533 199.729 55.6867 199.729 55.98C199.729 56.22 199.669 56.44 199.549 56.64C199.443 56.84 199.289 57.0067 199.089 57.14C198.889 57.26 198.669 57.32 198.429 57.32ZM213.793 55.8C214.486 55.8 215.093 55.9067 215.613 56.12C216.146 56.3333 216.606 56.64 216.993 57.04C217.38 57.44 217.693 57.9133 217.933 58.46L216.413 59.18C216.2 58.54 215.873 58.0533 215.433 57.72C215.006 57.3733 214.446 57.2 213.753 57.2C213.086 57.2 212.513 57.3533 212.033 57.66C211.553 57.9533 211.186 58.3867 210.933 58.96C210.68 59.52 210.553 60.2 210.553 61C210.553 61.7867 210.68 62.4667 210.933 63.04C211.186 63.6133 211.553 64.0533 212.033 64.36C212.513 64.6533 213.086 64.8 213.753 64.8C214.273 64.8 214.72 64.72 215.093 64.56C215.48 64.4 215.793 64.1667 216.033 63.86C216.286 63.5533 216.46 63.18 216.553 62.74L218.033 63.26C217.806 63.8733 217.493 64.4 217.093 64.84C216.706 65.28 216.233 65.62 215.673 65.86C215.126 66.0867 214.5 66.2 213.793 66.2C212.86 66.2 212.026 65.9933 211.293 65.58C210.56 65.1667 209.986 64.5733 209.573 63.8C209.16 63.0133 208.953 62.08 208.953 61C208.953 59.92 209.16 58.9933 209.573 58.22C209.986 57.4333 210.56 56.8333 211.293 56.42C212.026 56.0067 212.86 55.8 213.793 55.8ZM226.684 59.54C226.684 58.7933 226.484 58.22 226.084 57.82C225.684 57.4067 225.118 57.2 224.384 57.2C223.691 57.2 223.104 57.3533 222.624 57.66C222.144 57.9533 221.791 58.4333 221.564 59.1L220.264 58.3C220.531 57.5533 221.024 56.9533 221.744 56.5C222.464 56.0333 223.358 55.8 224.424 55.8C225.144 55.8 225.798 55.9267 226.384 56.18C226.971 56.42 227.431 56.7933 227.764 57.3C228.111 57.7933 228.284 58.4333 228.284 59.22V64.06C228.284 64.54 228.538 64.78 229.044 64.78C229.298 64.78 229.544 64.7467 229.784 64.68L229.704 65.94C229.438 66.0733 229.091 66.14 228.664 66.14C228.278 66.14 227.931 66.0667 227.624 65.92C227.318 65.7733 227.078 65.5533 226.904 65.26C226.731 64.9533 226.644 64.5733 226.644 64.12V63.92L227.044 63.98C226.884 64.5 226.611 64.9267 226.224 65.26C225.838 65.58 225.404 65.82 224.924 65.98C224.444 66.1267 223.971 66.2 223.504 66.2C222.918 66.2 222.371 66.1 221.864 65.9C221.358 65.7 220.951 65.4 220.644 65C220.351 64.5867 220.204 64.08 220.204 63.48C220.204 62.7333 220.451 62.12 220.944 61.64C221.451 61.1467 222.151 60.8133 223.044 60.64L227.004 59.86V61.18L223.784 61.84C223.131 61.9733 222.644 62.16 222.324 62.4C222.004 62.64 221.844 62.9733 221.844 63.4C221.844 63.8133 222.004 64.1533 222.324 64.42C222.658 64.6733 223.124 64.8 223.724 64.8C224.111 64.8 224.478 64.7533 224.824 64.66C225.184 64.5533 225.504 64.4 225.784 64.2C226.064 63.9867 226.284 63.7267 226.444 63.42C226.604 63.1 226.684 62.7267 226.684 62.3V59.54ZM232.173 66V56H233.573L233.713 58.24L233.453 58.02C233.666 57.4867 233.953 57.06 234.313 56.74C234.673 56.4067 235.086 56.1667 235.553 56.02C236.033 55.8733 236.526 55.8 237.033 55.8C237.753 55.8 238.406 55.94 238.993 56.22C239.579 56.4867 240.046 56.9 240.393 57.46C240.753 58.02 240.933 58.7333 240.933 59.6V66H239.333V60.16C239.333 59.0533 239.093 58.2867 238.613 57.86C238.146 57.42 237.566 57.2 236.873 57.2C236.393 57.2 235.913 57.3133 235.433 57.54C234.953 57.7667 234.553 58.1333 234.233 58.64C233.926 59.1467 233.773 59.8267 233.773 60.68V66H232.173ZM256.272 66.2C255.712 66.2 255.192 66.1 254.712 65.9C254.232 65.7 253.818 65.42 253.472 65.06C253.125 64.7 252.865 64.2933 252.692 63.84L252.912 63.56L252.772 66H251.372V51.4H252.972V58.26L252.772 57.96C253.038 57.3333 253.485 56.82 254.112 56.42C254.752 56.0067 255.478 55.8 256.292 55.8C257.118 55.8 257.878 56.0067 258.572 56.42C259.265 56.8333 259.818 57.4267 260.232 58.2C260.645 58.9733 260.852 59.9067 260.852 61C260.852 62.08 260.638 63.0133 260.212 63.8C259.798 64.5733 259.245 65.1667 258.552 65.58C257.858 65.9933 257.098 66.2 256.272 66.2ZM256.112 64.8C257.098 64.8 257.865 64.4533 258.412 63.76C258.972 63.0667 259.252 62.1467 259.252 61C259.252 59.8533 258.978 58.9333 258.432 58.24C257.885 57.5467 257.118 57.2 256.132 57.2C255.505 57.2 254.952 57.36 254.472 57.68C254.005 58 253.638 58.4467 253.372 59.02C253.105 59.5933 252.972 60.2667 252.972 61.04C252.972 61.8 253.098 62.4667 253.352 63.04C253.618 63.6 253.985 64.0333 254.452 64.34C254.932 64.6467 255.485 64.8 256.112 64.8ZM268.091 66.2C267.144 66.2 266.297 65.9933 265.551 65.58C264.817 65.1667 264.244 64.5733 263.831 63.8C263.417 63.0133 263.211 62.08 263.211 61C263.211 59.92 263.417 58.9933 263.831 58.22C264.244 57.4333 264.811 56.8333 265.531 56.42C266.251 56.0067 267.071 55.8 267.991 55.8C268.924 55.8 269.717 56 270.371 56.4C271.037 56.8 271.544 57.3467 271.891 58.04C272.237 58.72 272.411 59.4867 272.411 60.34C272.411 60.5667 272.404 60.7733 272.391 60.96C272.377 61.1467 272.357 61.3133 272.331 61.46H264.251V60.04H271.631L270.811 60.2C270.811 59.24 270.544 58.5 270.011 57.98C269.491 57.46 268.804 57.2 267.951 57.2C267.297 57.2 266.731 57.3533 266.251 57.66C265.784 57.9533 265.417 58.3867 265.151 58.96C264.897 59.52 264.771 60.2 264.771 61C264.771 61.7867 264.904 62.4667 265.171 63.04C265.437 63.6133 265.811 64.0533 266.291 64.36C266.784 64.6533 267.371 64.8 268.051 64.8C268.784 64.8 269.377 64.66 269.831 64.38C270.297 64.1 270.671 63.72 270.951 63.24L272.211 63.98C271.957 64.4333 271.631 64.8267 271.231 65.16C270.844 65.4933 270.384 65.7533 269.851 65.94C269.331 66.1133 268.744 66.2 268.091 66.2ZM285.87 66.2C284.897 66.2 283.997 65.9933 283.17 65.58C282.357 65.1667 281.73 64.58 281.29 63.82L282.65 62.84C282.943 63.4533 283.37 63.9333 283.93 64.28C284.503 64.6267 285.19 64.8 285.99 64.8C286.697 64.8 287.25 64.6667 287.65 64.4C288.05 64.12 288.25 63.76 288.25 63.32C288.25 63.04 288.157 62.7867 287.97 62.56C287.797 62.32 287.457 62.1467 286.95 62.04L284.55 61.54C283.577 61.34 282.877 61.0067 282.45 60.54C282.037 60.0733 281.83 59.4933 281.83 58.8C281.83 58.2533 281.983 57.7533 282.29 57.3C282.61 56.8467 283.057 56.4867 283.63 56.22C284.217 55.94 284.903 55.8 285.69 55.8C286.677 55.8 287.51 55.9933 288.19 56.38C288.87 56.7667 289.377 57.3133 289.71 58.02L288.37 58.9C288.143 58.3133 287.777 57.8867 287.27 57.62C286.763 57.34 286.237 57.2 285.69 57.2C285.21 57.2 284.797 57.2667 284.45 57.4C284.117 57.5333 283.857 57.72 283.67 57.96C283.497 58.1867 283.41 58.4467 283.41 58.74C283.41 59.0333 283.51 59.3067 283.71 59.56C283.91 59.8 284.283 59.9733 284.83 60.08L287.33 60.6C288.263 60.7867 288.917 61.0933 289.29 61.52C289.663 61.9467 289.85 62.4667 289.85 63.08C289.85 63.7067 289.683 64.26 289.35 64.74C289.017 65.2067 288.55 65.5667 287.95 65.82C287.35 66.0733 286.657 66.2 285.87 66.2ZM296.997 66.2C296.05 66.2 295.204 65.9933 294.457 65.58C293.724 65.1667 293.15 64.5733 292.737 63.8C292.324 63.0133 292.117 62.08 292.117 61C292.117 59.92 292.324 58.9933 292.737 58.22C293.15 57.4333 293.717 56.8333 294.437 56.42C295.157 56.0067 295.977 55.8 296.897 55.8C297.83 55.8 298.624 56 299.277 56.4C299.944 56.8 300.45 57.3467 300.797 58.04C301.144 58.72 301.317 59.4867 301.317 60.34C301.317 60.5667 301.31 60.7733 301.297 60.96C301.284 61.1467 301.264 61.3133 301.237 61.46H293.157V60.04H300.537L299.717 60.2C299.717 59.24 299.45 58.5 298.917 57.98C298.397 57.46 297.71 57.2 296.857 57.2C296.204 57.2 295.637 57.3533 295.157 57.66C294.69 57.9533 294.324 58.3867 294.057 58.96C293.804 59.52 293.677 60.2 293.677 61C293.677 61.7867 293.81 62.4667 294.077 63.04C294.344 63.6133 294.717 64.0533 295.197 64.36C295.69 64.6533 296.277 64.8 296.957 64.8C297.69 64.8 298.284 64.66 298.737 64.38C299.204 64.1 299.577 63.72 299.857 63.24L301.117 63.98C300.864 64.4333 300.537 64.8267 300.137 65.16C299.75 65.4933 299.29 65.7533 298.757 65.94C298.237 66.1133 297.65 66.2 296.997 66.2ZM308.54 66.2C307.593 66.2 306.747 65.9933 306 65.58C305.267 65.1667 304.693 64.5733 304.28 63.8C303.867 63.0133 303.66 62.08 303.66 61C303.66 59.92 303.867 58.9933 304.28 58.22C304.693 57.4333 305.26 56.8333 305.98 56.42C306.7 56.0067 307.52 55.8 308.44 55.8C309.373 55.8 310.167 56 310.82 56.4C311.487 56.8 311.993 57.3467 312.34 58.04C312.687 58.72 312.86 59.4867 312.86 60.34C312.86 60.5667 312.853 60.7733 312.84 60.96C312.827 61.1467 312.807 61.3133 312.78 61.46H304.7V60.04H312.08L311.26 60.2C311.26 59.24 310.993 58.5 310.46 57.98C309.94 57.46 309.253 57.2 308.4 57.2C307.747 57.2 307.18 57.3533 306.7 57.66C306.233 57.9533 305.867 58.3867 305.6 58.96C305.347 59.52 305.22 60.2 305.22 61C305.22 61.7867 305.353 62.4667 305.62 63.04C305.887 63.6133 306.26 64.0533 306.74 64.36C307.233 64.6533 307.82 64.8 308.5 64.8C309.233 64.8 309.827 64.66 310.28 64.38C310.747 64.1 311.12 63.72 311.4 63.24L312.66 63.98C312.407 64.4333 312.08 64.8267 311.68 65.16C311.293 65.4933 310.833 65.7533 310.3 65.94C309.78 66.1133 309.193 66.2 308.54 66.2ZM315.903 66V56H317.303L317.443 58.24L317.183 58.02C317.396 57.4867 317.683 57.06 318.043 56.74C318.403 56.4067 318.816 56.1667 319.283 56.02C319.763 55.8733 320.256 55.8 320.763 55.8C321.483 55.8 322.136 55.94 322.723 56.22C323.31 56.4867 323.776 56.9 324.123 57.46C324.483 58.02 324.663 58.7333 324.663 59.6V66H323.063V60.16C323.063 59.0533 322.823 58.2867 322.343 57.86C321.876 57.42 321.296 57.2 320.603 57.2C320.123 57.2 319.643 57.3133 319.163 57.54C318.683 57.7667 318.283 58.1333 317.963 58.64C317.656 59.1467 317.503 59.8267 317.503 60.68V66H315.903ZM335.102 70.2V56H336.502L336.642 58.44L336.422 58.16C336.596 57.6933 336.856 57.2867 337.202 56.94C337.549 56.58 337.969 56.3 338.462 56.1C338.956 55.9 339.489 55.8 340.062 55.8C340.876 55.8 341.622 56.0067 342.302 56.42C342.996 56.8333 343.549 57.4267 343.962 58.2C344.376 58.9733 344.582 59.9067 344.582 61C344.582 62.08 344.369 63.0133 343.942 63.8C343.529 64.5733 342.976 65.1667 342.282 65.58C341.589 65.9933 340.829 66.2 340.002 66.2C339.176 66.2 338.449 66 337.822 65.6C337.209 65.1867 336.769 64.6667 336.502 64.04L336.702 63.74V70.2H335.102ZM339.842 64.8C340.829 64.8 341.596 64.4533 342.142 63.76C342.702 63.0667 342.982 62.1467 342.982 61C342.982 59.8533 342.709 58.9333 342.162 58.24C341.629 57.5467 340.876 57.2 339.902 57.2C339.262 57.2 338.702 57.36 338.222 57.68C337.742 57.9867 337.369 58.4267 337.102 59C336.836 59.56 336.702 60.2267 336.702 61C336.702 61.76 336.829 62.4267 337.082 63C337.349 63.5733 337.716 64.02 338.182 64.34C338.662 64.6467 339.216 64.8 339.842 64.8ZM349.161 51.4V63.46C349.161 63.9667 349.255 64.32 349.441 64.52C349.628 64.7067 349.928 64.8 350.341 64.8C350.608 64.8 350.828 64.78 351.001 64.74C351.175 64.7 351.408 64.6267 351.701 64.52L351.441 65.92C351.228 66.0133 350.995 66.08 350.741 66.12C350.488 66.1733 350.228 66.2 349.961 66.2C349.148 66.2 348.541 65.98 348.141 65.54C347.755 65.1 347.561 64.4267 347.561 63.52V51.4H349.161ZM359.595 59.54C359.595 58.7933 359.395 58.22 358.995 57.82C358.595 57.4067 358.028 57.2 357.295 57.2C356.601 57.2 356.015 57.3533 355.535 57.66C355.055 57.9533 354.701 58.4333 354.475 59.1L353.175 58.3C353.441 57.5533 353.935 56.9533 354.655 56.5C355.375 56.0333 356.268 55.8 357.335 55.8C358.055 55.8 358.708 55.9267 359.295 56.18C359.881 56.42 360.341 56.7933 360.675 57.3C361.021 57.7933 361.195 58.4333 361.195 59.22V64.06C361.195 64.54 361.448 64.78 361.955 64.78C362.208 64.78 362.455 64.7467 362.695 64.68L362.615 65.94C362.348 66.0733 362.001 66.14 361.575 66.14C361.188 66.14 360.841 66.0667 360.535 65.92C360.228 65.7733 359.988 65.5533 359.815 65.26C359.641 64.9533 359.555 64.5733 359.555 64.12V63.92L359.955 63.98C359.795 64.5 359.521 64.9267 359.135 65.26C358.748 65.58 358.315 65.82 357.835 65.98C357.355 66.1267 356.881 66.2 356.415 66.2C355.828 66.2 355.281 66.1 354.775 65.9C354.268 65.7 353.861 65.4 353.555 65C353.261 64.5867 353.115 64.08 353.115 63.48C353.115 62.7333 353.361 62.12 353.855 61.64C354.361 61.1467 355.061 60.8133 355.955 60.64L359.915 59.86V61.18L356.695 61.84C356.041 61.9733 355.555 62.16 355.235 62.4C354.915 62.64 354.755 62.9733 354.755 63.4C354.755 63.8133 354.915 64.1533 355.235 64.42C355.568 64.6733 356.035 64.8 356.635 64.8C357.021 64.8 357.388 64.7533 357.735 64.66C358.095 64.5533 358.415 64.4 358.695 64.2C358.975 63.9867 359.195 63.7267 359.355 63.42C359.515 63.1 359.595 62.7267 359.595 62.3V59.54ZM372.717 56L368.017 67.68C367.763 68.3333 367.483 68.8467 367.177 69.22C366.883 69.6067 366.55 69.88 366.177 70.04C365.817 70.2133 365.397 70.3 364.917 70.3C364.463 70.3 364.043 70.2333 363.657 70.1C363.283 69.98 362.95 69.8133 362.657 69.6L363.097 68.2C363.363 68.44 363.643 68.6133 363.937 68.72C364.243 68.84 364.543 68.9 364.837 68.9C365.183 68.9 365.51 68.7933 365.817 68.58C366.123 68.3667 366.403 67.9333 366.657 67.28L367.177 65.98L366.177 63.6L362.997 56H364.817L367.317 62.52L367.937 64.3L368.657 62.32L370.997 56H372.717ZM375.609 54.08C375.249 54.08 374.956 53.9733 374.729 53.76C374.516 53.5333 374.409 53.24 374.409 52.88C374.409 52.52 374.516 52.2333 374.729 52.02C374.956 51.7933 375.249 51.68 375.609 51.68C375.969 51.68 376.256 51.7933 376.469 52.02C376.696 52.2333 376.809 52.52 376.809 52.88C376.809 53.24 376.696 53.5333 376.469 53.76C376.256 53.9733 375.969 54.08 375.609 54.08ZM376.409 56V66H374.809V56H376.409ZM380.122 66V56H381.522L381.662 58.24L381.402 58.02C381.615 57.4867 381.902 57.06 382.262 56.74C382.622 56.4067 383.035 56.1667 383.502 56.02C383.982 55.8733 384.475 55.8 384.982 55.8C385.702 55.8 386.355 55.94 386.942 56.22C387.528 56.4867 387.995 56.9 388.342 57.46C388.702 58.02 388.882 58.7333 388.882 59.6V66H387.282V60.16C387.282 59.0533 387.042 58.2867 386.562 57.86C386.095 57.42 385.515 57.2 384.822 57.2C384.342 57.2 383.862 57.3133 383.382 57.54C382.902 57.7667 382.502 58.1333 382.182 58.64C381.875 59.1467 381.722 59.8267 381.722 60.68V66H380.122ZM400.925 54.16L401.285 55.58C401.271 55.58 401.251 55.58 401.225 55.58C401.198 55.58 401.171 55.58 401.145 55.58C400.491 55.58 399.985 55.7133 399.625 55.98C399.278 56.2333 399.105 56.6467 399.105 57.22L398.125 56.72C398.125 56.2 398.245 55.7467 398.485 55.36C398.725 54.9733 399.051 54.68 399.465 54.48C399.878 54.2667 400.331 54.16 400.825 54.16C400.838 54.16 400.851 54.16 400.865 54.16C400.891 54.16 400.911 54.16 400.925 54.16ZM397.885 64.72C398.831 64.72 399.571 64.94 400.105 65.38C400.638 65.8067 400.905 66.38 400.905 67.1C400.905 67.7533 400.685 68.32 400.245 68.8C399.818 69.28 399.238 69.6467 398.505 69.9C397.785 70.1667 396.971 70.3 396.065 70.3C394.491 70.3 393.311 70.0333 392.525 69.5C391.751 68.9667 391.365 68.3267 391.365 67.58C391.365 67.0467 391.538 66.5667 391.885 66.14C392.245 65.7267 392.845 65.4933 393.685 65.44L393.545 65.74C393.091 65.62 392.705 65.42 392.385 65.14C392.078 64.8467 391.925 64.4267 391.925 63.88C391.925 63.3333 392.125 62.8667 392.525 62.48C392.938 62.08 393.545 61.8333 394.345 61.74L395.405 62.28H395.205C394.551 62.3467 394.085 62.5133 393.805 62.78C393.538 63.0333 393.405 63.3133 393.405 63.62C393.405 63.9933 393.538 64.2733 393.805 64.46C394.085 64.6333 394.471 64.72 394.965 64.72H397.885ZM396.045 68.96C396.818 68.96 397.451 68.88 397.945 68.72C398.451 68.56 398.825 68.3533 399.065 68.1C399.305 67.8467 399.425 67.5733 399.425 67.28C399.425 66.92 399.278 66.6333 398.985 66.42C398.705 66.2067 398.191 66.1 397.445 66.1H394.365C393.938 66.1 393.578 66.2067 393.285 66.42C392.991 66.6467 392.845 66.9533 392.845 67.34C392.845 67.8333 393.125 68.2267 393.685 68.52C394.258 68.8133 395.045 68.96 396.045 68.96ZM395.905 55.8C396.705 55.8 397.411 55.9467 398.025 56.24C398.651 56.52 399.138 56.9133 399.485 57.42C399.831 57.9267 400.005 58.5133 400.005 59.18C400.005 59.8333 399.831 60.42 399.485 60.94C399.138 61.4467 398.651 61.8467 398.025 62.14C397.411 62.42 396.705 62.56 395.905 62.56C394.585 62.56 393.571 62.2467 392.865 61.62C392.158 60.98 391.805 60.1667 391.805 59.18C391.805 58.5133 391.978 57.9267 392.325 57.42C392.685 56.9133 393.171 56.52 393.785 56.24C394.398 55.9467 395.105 55.8 395.905 55.8ZM395.905 57.1C395.211 57.1 394.631 57.2933 394.165 57.68C393.698 58.0533 393.465 58.5533 393.465 59.18C393.465 59.7933 393.698 60.2933 394.165 60.68C394.631 61.0667 395.211 61.26 395.905 61.26C396.598 61.26 397.178 61.0667 397.645 60.68C398.111 60.2933 398.345 59.7933 398.345 59.18C398.345 58.5533 398.111 58.0533 397.645 57.68C397.178 57.2933 396.598 57.1 395.905 57.1ZM414.105 55.8C414.799 55.8 415.405 55.9067 415.925 56.12C416.459 56.3333 416.919 56.64 417.305 57.04C417.692 57.44 418.005 57.9133 418.245 58.46L416.725 59.18C416.512 58.54 416.185 58.0533 415.745 57.72C415.319 57.3733 414.759 57.2 414.065 57.2C413.399 57.2 412.825 57.3533 412.345 57.66C411.865 57.9533 411.499 58.3867 411.245 58.96C410.992 59.52 410.865 60.2 410.865 61C410.865 61.7867 410.992 62.4667 411.245 63.04C411.499 63.6133 411.865 64.0533 412.345 64.36C412.825 64.6533 413.399 64.8 414.065 64.8C414.585 64.8 415.032 64.72 415.405 64.56C415.792 64.4 416.105 64.1667 416.345 63.86C416.599 63.5533 416.772 63.18 416.865 62.74L418.345 63.26C418.119 63.8733 417.805 64.4 417.405 64.84C417.019 65.28 416.545 65.62 415.985 65.86C415.439 66.0867 414.812 66.2 414.105 66.2C413.172 66.2 412.339 65.9933 411.605 65.58C410.872 65.1667 410.299 64.5733 409.885 63.8C409.472 63.0133 409.265 62.08 409.265 61C409.265 59.92 409.472 58.9933 409.885 58.22C410.299 57.4333 410.872 56.8333 411.605 56.42C412.339 56.0067 413.172 55.8 414.105 55.8ZM426.997 59.54C426.997 58.7933 426.797 58.22 426.397 57.82C425.997 57.4067 425.43 57.2 424.697 57.2C424.004 57.2 423.417 57.3533 422.937 57.66C422.457 57.9533 422.104 58.4333 421.877 59.1L420.577 58.3C420.844 57.5533 421.337 56.9533 422.057 56.5C422.777 56.0333 423.67 55.8 424.737 55.8C425.457 55.8 426.11 55.9267 426.697 56.18C427.284 56.42 427.744 56.7933 428.077 57.3C428.424 57.7933 428.597 58.4333 428.597 59.22V64.06C428.597 64.54 428.85 64.78 429.357 64.78C429.61 64.78 429.857 64.7467 430.097 64.68L430.017 65.94C429.75 66.0733 429.404 66.14 428.977 66.14C428.59 66.14 428.244 66.0667 427.937 65.92C427.63 65.7733 427.39 65.5533 427.217 65.26C427.044 64.9533 426.957 64.5733 426.957 64.12V63.92L427.357 63.98C427.197 64.5 426.924 64.9267 426.537 65.26C426.15 65.58 425.717 65.82 425.237 65.98C424.757 66.1267 424.284 66.2 423.817 66.2C423.23 66.2 422.684 66.1 422.177 65.9C421.67 65.7 421.264 65.4 420.957 65C420.664 64.5867 420.517 64.08 420.517 63.48C420.517 62.7333 420.764 62.12 421.257 61.64C421.764 61.1467 422.464 60.8133 423.357 60.64L427.317 59.86V61.18L424.097 61.84C423.444 61.9733 422.957 62.16 422.637 62.4C422.317 62.64 422.157 62.9733 422.157 63.4C422.157 63.8133 422.317 64.1533 422.637 64.42C422.97 64.6733 423.437 64.8 424.037 64.8C424.424 64.8 424.79 64.7533 425.137 64.66C425.497 64.5533 425.817 64.4 426.097 64.2C426.377 63.9867 426.597 63.7267 426.757 63.42C426.917 63.1 426.997 62.7267 426.997 62.3V59.54ZM432.485 66V56H433.785L434.005 57.64C434.285 57.0267 434.692 56.5667 435.225 56.26C435.772 55.9533 436.432 55.8 437.205 55.8C437.378 55.8 437.565 55.8133 437.765 55.84C437.978 55.8667 438.158 55.92 438.305 56L438.025 57.46C437.878 57.4067 437.718 57.3667 437.545 57.34C437.372 57.3133 437.125 57.3 436.805 57.3C436.392 57.3 435.972 57.42 435.545 57.66C435.132 57.9 434.785 58.2667 434.505 58.76C434.225 59.24 434.085 59.8533 434.085 60.6V66H432.485ZM444.237 66.2C443.41 66.2 442.65 65.9933 441.957 65.58C441.263 65.1667 440.71 64.5733 440.297 63.8C439.883 63.0133 439.677 62.08 439.677 61C439.677 59.8933 439.897 58.9533 440.337 58.18C440.777 57.4067 441.357 56.82 442.077 56.42C442.797 56.0067 443.57 55.8 444.397 55.8C445.223 55.8 445.937 56.0133 446.537 56.44C447.15 56.8667 447.557 57.4333 447.757 58.14L447.557 58.28V51.4H449.157V66H447.757L447.617 63.58L447.837 63.46C447.743 64.0467 447.517 64.5467 447.157 64.96C446.81 65.36 446.377 65.6667 445.857 65.88C445.35 66.0933 444.81 66.2 444.237 66.2ZM444.397 64.8C445.037 64.8 445.59 64.64 446.057 64.32C446.537 64 446.903 63.5467 447.157 62.96C447.423 62.36 447.557 61.66 447.557 60.86C447.557 60.1 447.423 59.4467 447.157 58.9C446.903 58.3533 446.543 57.9333 446.077 57.64C445.623 57.3467 445.09 57.2 444.477 57.2C443.463 57.2 442.677 57.5467 442.117 58.24C441.557 58.9333 441.277 59.8533 441.277 61C441.277 62.1467 441.55 63.0667 442.097 63.76C442.643 64.4533 443.41 64.8 444.397 64.8ZM456.476 66.2C455.502 66.2 454.602 65.9933 453.776 65.58C452.962 65.1667 452.336 64.58 451.896 63.82L453.256 62.84C453.549 63.4533 453.976 63.9333 454.536 64.28C455.109 64.6267 455.796 64.8 456.596 64.8C457.302 64.8 457.856 64.6667 458.256 64.4C458.656 64.12 458.856 63.76 458.856 63.32C458.856 63.04 458.762 62.7867 458.576 62.56C458.402 62.32 458.062 62.1467 457.556 62.04L455.156 61.54C454.182 61.34 453.482 61.0067 453.056 60.54C452.642 60.0733 452.436 59.4933 452.436 58.8C452.436 58.2533 452.589 57.7533 452.896 57.3C453.216 56.8467 453.662 56.4867 454.236 56.22C454.822 55.94 455.509 55.8 456.296 55.8C457.282 55.8 458.116 55.9933 458.796 56.38C459.476 56.7667 459.982 57.3133 460.316 58.02L458.976 58.9C458.749 58.3133 458.382 57.8867 457.876 57.62C457.369 57.34 456.842 57.2 456.296 57.2C455.816 57.2 455.402 57.2667 455.056 57.4C454.722 57.5333 454.462 57.72 454.276 57.96C454.102 58.1867 454.016 58.4467 454.016 58.74C454.016 59.0333 454.116 59.3067 454.316 59.56C454.516 59.8 454.889 59.9733 455.436 60.08L457.936 60.6C458.869 60.7867 459.522 61.0933 459.896 61.52C460.269 61.9467 460.456 62.4667 460.456 63.08C460.456 63.7067 460.289 64.26 459.956 64.74C459.622 65.2067 459.156 65.5667 458.556 65.82C457.956 66.0733 457.262 66.2 456.476 66.2ZM464.223 63.6C464.609 63.6 464.923 63.72 465.163 63.96C465.403 64.2 465.523 64.5133 465.523 64.9C465.523 65.2867 465.403 65.6 465.163 65.84C464.923 66.08 464.609 66.2 464.223 66.2C463.836 66.2 463.523 66.08 463.283 65.84C463.043 65.6 462.923 65.2867 462.923 64.9C462.923 64.5133 463.043 64.2 463.283 63.96C463.523 63.72 463.836 63.6 464.223 63.6Z" fill="white"/>
</svg>
