<svg width="530" height="71" viewBox="0 0 530 71" fill="none" xmlns="http://www.w3.org/2000/svg">
<path d="M13.32 0.799999V4.22H9.2V14H4.54V4.22H0.4V0.799999H13.32ZM27.6509 0.799999V14H22.9909V0.799999H27.6509ZM19.3709 0.799999V14H14.7109V0.799999H19.3709ZM25.5709 5.66V9.08H16.9509V5.66H25.5709ZM29.6523 14V0.799999H40.6123V4.22H34.3123V5.86H39.3923V9.02H34.3123V10.58H40.8523V14H29.6523ZM52.9519 0.6C54.2185 0.6 55.3519 0.76 56.3519 1.08C57.3652 1.38667 58.2585 1.85333 59.0319 2.48L57.1519 5.48C56.5252 5.04 55.8652 4.68667 55.1719 4.42C54.4919 4.15333 53.7519 4.02 52.9519 4.02C52.6052 4.02 52.3252 4.04667 52.1119 4.1C51.9119 4.15333 51.7652 4.22667 51.6719 4.32C51.5919 4.41333 51.5519 4.52 51.5519 4.64C51.5519 4.8 51.6719 4.92 51.9119 5C52.1652 5.08 52.4785 5.16667 52.8519 5.26L54.6719 5.68C56.0185 5.98667 57.0319 6.44 57.7119 7.04C58.4052 7.64 58.7519 8.47333 58.7519 9.54C58.7519 10.6067 58.4919 11.4867 57.9719 12.18C57.4519 12.86 56.7452 13.3667 55.8519 13.7C54.9719 14.0333 53.9719 14.2 52.8519 14.2C52.0119 14.2 51.1719 14.1267 50.3319 13.98C49.4919 13.82 48.7119 13.5933 47.9919 13.3C47.2719 12.9933 46.6519 12.6267 46.1319 12.2L47.9719 9.14C48.3585 9.44667 48.8252 9.72667 49.3719 9.98C49.9185 10.22 50.4852 10.4133 51.0719 10.56C51.6585 10.7067 52.2052 10.78 52.7119 10.78C53.0319 10.78 53.2852 10.7533 53.4719 10.7C53.6585 10.6467 53.7852 10.58 53.8519 10.5C53.9319 10.4067 53.9719 10.3 53.9719 10.18C53.9719 9.99333 53.8919 9.85333 53.7319 9.76C53.5852 9.66667 53.3119 9.57333 52.9119 9.48L50.9119 9.04C50.2052 8.88 49.5319 8.66667 48.8919 8.4C48.2519 8.13333 47.7319 7.74667 47.3319 7.24C46.9319 6.72 46.7319 6.02 46.7319 5.14C46.7319 4.23333 46.9719 3.44 47.4519 2.76C47.9452 2.08 48.6519 1.55333 49.5719 1.18C50.5052 0.793333 51.6319 0.6 52.9519 0.6ZM64.8006 0.799999V14H60.1406V0.799999H64.8006ZM71.4608 10.58H77.4408V14H66.8008V0.799999H71.4608V10.58ZM78.9102 14V0.799999H89.8702V4.22H83.5702V5.86H88.6502V9.02H83.5702V10.58H90.1102V14H78.9102ZM104.35 0.799999V14H99.3097L96.1497 8L95.4297 6.38H95.3897L95.4697 9.1V14H91.4297V0.799999H96.4697L99.6297 6.82L100.35 8.42H100.39L100.31 5.7V0.799999H104.35ZM118.752 9.96C118.512 10.9867 118.098 11.8133 117.512 12.44C116.938 13.0667 116.238 13.52 115.412 13.8C114.585 14.0667 113.665 14.2 112.652 14.2C111.265 14.2 110.065 13.9333 109.052 13.4C108.052 12.8667 107.278 12.0933 106.732 11.08C106.198 10.0667 105.932 8.84 105.932 7.4C105.932 5.96 106.198 4.73333 106.732 3.72C107.278 2.70667 108.052 1.93333 109.052 1.4C110.065 0.866666 111.265 0.6 112.652 0.6C113.625 0.6 114.532 0.739999 115.372 1.02C116.212 1.28667 116.918 1.71333 117.492 2.3C118.078 2.88667 118.465 3.65333 118.652 4.6L114.652 6.16C114.545 5.29333 114.325 4.73333 113.992 4.48C113.672 4.22667 113.265 4.1 112.772 4.1C112.318 4.1 111.932 4.22 111.612 4.46C111.305 4.68667 111.072 5.04667 110.912 5.54C110.765 6.02 110.692 6.64 110.692 7.4C110.692 8.14667 110.758 8.76667 110.892 9.26C111.038 9.75333 111.272 10.12 111.592 10.36C111.912 10.5867 112.338 10.7 112.872 10.7C113.352 10.7 113.745 10.56 114.052 10.28C114.358 9.98667 114.552 9.52667 114.632 8.9L118.752 9.96ZM119.887 14V0.799999H130.847V4.22H124.547V5.86H129.627V9.02H124.547V10.58H131.087V14H119.887ZM143.706 0.6C145.106 0.6 146.306 0.866666 147.306 1.4C148.306 1.93333 149.073 2.70667 149.606 3.72C150.14 4.73333 150.406 5.96 150.406 7.4C150.406 8.84 150.14 10.0667 149.606 11.08C149.073 12.0933 148.306 12.8667 147.306 13.4C146.306 13.9333 145.106 14.2 143.706 14.2C142.32 14.2 141.12 13.9333 140.106 13.4C139.106 12.8667 138.333 12.0933 137.786 11.08C137.253 10.0667 136.986 8.84 136.986 7.4C136.986 5.96 137.253 4.73333 137.786 3.72C138.333 2.70667 139.106 1.93333 140.106 1.4C141.12 0.866666 142.32 0.6 143.706 0.6ZM143.706 4.1C143.253 4.1 142.88 4.22 142.586 4.46C142.306 4.68667 142.093 5.04 141.946 5.52C141.813 6 141.746 6.62667 141.746 7.4C141.746 8.16 141.813 8.78667 141.946 9.28C142.093 9.76 142.306 10.12 142.586 10.36C142.88 10.5867 143.253 10.7 143.706 10.7C144.16 10.7 144.526 10.5867 144.806 10.36C145.1 10.12 145.313 9.76 145.446 9.28C145.58 8.78667 145.646 8.16 145.646 7.4C145.646 6.62667 145.58 6 145.446 5.52C145.313 5.04 145.1 4.68667 144.806 4.46C144.526 4.22 144.16 4.1 143.706 4.1ZM162.917 4.22H156.637V6.06H161.717V9.48H156.637V14H151.977V0.799999H162.917V4.22ZM181.367 0.799999V4.22H177.247V14H172.587V4.22H168.447V0.799999H181.367ZM195.698 0.799999V14H191.038V0.799999H195.698ZM187.418 0.799999V14H182.758V0.799999H187.418ZM193.618 5.66V9.08H184.998V5.66H193.618ZM197.699 14V0.799999H208.659V4.22H202.359V5.86H207.439V9.02H202.359V10.58H208.899V14H197.699ZM219.879 10.58H225.859V14H215.219V0.799999H219.879V10.58ZM240.308 14H235.548L234.948 11.48H231.388L230.768 14H226.128L230.408 0.799999H236.008L240.308 14ZM232.088 8.58H234.268L233.188 4L232.088 8.58ZM258.077 0.799999V14H254.017V9.42L254.077 4.98H254.017L251.457 14H247.737L245.217 4.98H245.137L245.197 9.42V14H241.117V0.799999H247.637L249.157 6.66L249.737 9.12H249.777L250.357 6.66L251.877 0.799999H258.077ZM260.082 14V0.799999H267.642C269.309 0.813333 270.549 1.11333 271.362 1.7C272.175 2.27333 272.582 3.14667 272.582 4.32C272.582 5.10667 272.342 5.77333 271.862 6.32C271.382 6.86667 270.629 7.21333 269.602 7.36V7.38C270.749 7.5 271.589 7.84 272.122 8.4C272.655 8.96 272.922 9.66667 272.922 10.52C272.922 11.68 272.529 12.5533 271.742 13.14C270.969 13.7133 269.775 14 268.162 14H260.082ZM264.542 10.96H266.922C267.335 10.96 267.642 10.88 267.842 10.72C268.055 10.5467 268.162 10.3 268.162 9.98C268.162 9.67333 268.055 9.44 267.842 9.28C267.642 9.12 267.335 9.04 266.922 9.04H264.542V10.96ZM264.542 5.92H266.622C267.422 5.92 267.822 5.6 267.822 4.96C267.822 4.32 267.422 4 266.622 4H264.542V5.92ZM279.944 0.6C281.211 0.6 282.344 0.76 283.344 1.08C284.357 1.38667 285.251 1.85333 286.024 2.48L284.144 5.48C283.517 5.04 282.857 4.68667 282.164 4.42C281.484 4.15333 280.744 4.02 279.944 4.02C279.597 4.02 279.317 4.04667 279.104 4.1C278.904 4.15333 278.757 4.22667 278.664 4.32C278.584 4.41333 278.544 4.52 278.544 4.64C278.544 4.8 278.664 4.92 278.904 5C279.157 5.08 279.471 5.16667 279.844 5.26L281.664 5.68C283.011 5.98667 284.024 6.44 284.704 7.04C285.397 7.64 285.744 8.47333 285.744 9.54C285.744 10.6067 285.484 11.4867 284.964 12.18C284.444 12.86 283.737 13.3667 282.844 13.7C281.964 14.0333 280.964 14.2 279.844 14.2C279.004 14.2 278.164 14.1267 277.324 13.98C276.484 13.82 275.704 13.5933 274.984 13.3C274.264 12.9933 273.644 12.6267 273.124 12.2L274.964 9.14C275.351 9.44667 275.817 9.72667 276.364 9.98C276.911 10.22 277.477 10.4133 278.064 10.56C278.651 10.7067 279.197 10.78 279.704 10.78C280.024 10.78 280.277 10.7533 280.464 10.7C280.651 10.6467 280.777 10.58 280.844 10.5C280.924 10.4067 280.964 10.3 280.964 10.18C280.964 9.99333 280.884 9.85333 280.724 9.76C280.577 9.66667 280.304 9.57333 279.904 9.48L277.904 9.04C277.197 8.88 276.524 8.66667 275.884 8.4C275.244 8.13333 274.724 7.74667 274.324 7.24C273.924 6.72 273.724 6.02 273.724 5.14C273.724 4.23333 273.964 3.44 274.444 2.76C274.937 2.08 275.644 1.55333 276.564 1.18C277.497 0.793333 278.624 0.6 279.944 0.6ZM289.054 9.88C289.667 9.88 290.16 10.0133 290.534 10.28C290.92 10.5467 291.2 10.8933 291.374 11.32C291.56 11.7333 291.654 12.18 291.654 12.66C291.654 13.38 291.487 14.0533 291.154 14.68C290.834 15.32 290.427 15.8667 289.934 16.32C289.44 16.7867 288.954 17.12 288.474 17.32L286.734 16.14C287.107 15.9667 287.46 15.7667 287.794 15.54C288.14 15.3133 288.454 15.0667 288.734 14.8C289.014 14.5333 289.234 14.26 289.394 13.98L289.294 13.9C289.2 13.9533 289.094 13.9933 288.974 14.02C288.854 14.06 288.7 14.08 288.514 14.08C288.22 14.08 287.927 14.0133 287.634 13.88C287.34 13.7333 287.094 13.52 286.894 13.24C286.694 12.96 286.594 12.6067 286.594 12.18C286.594 11.6333 286.707 11.1933 286.934 10.86C287.174 10.5267 287.48 10.28 287.854 10.12C288.24 9.96 288.64 9.88 289.054 9.88ZM300.807 14V7.8C300.807 7.36 300.807 6.92 300.807 6.48C300.807 6.04 300.807 5.6 300.807 5.16C300.38 5.53333 299.92 5.86 299.427 6.14C298.934 6.40667 298.414 6.58 297.867 6.66L297.607 2.92C298.02 2.88 298.434 2.79333 298.847 2.66C299.26 2.51333 299.647 2.34 300.007 2.14C300.38 1.94 300.707 1.72667 300.987 1.5C301.28 1.27333 301.5 1.04 301.647 0.799999H305.267V14H300.807ZM312.187 0.6C313.467 0.6 314.533 0.84 315.387 1.32C316.253 1.78667 316.9 2.51333 317.327 3.5C317.767 4.48667 317.987 5.76 317.987 7.32C317.987 9 317.72 10.3467 317.187 11.36C316.667 12.36 315.967 13.0867 315.087 13.54C314.207 13.98 313.24 14.2 312.187 14.2C311 14.2 309.96 13.9867 309.067 13.56C308.187 13.12 307.527 12.3933 307.087 11.38L311.167 9.92C311.22 10.2267 311.333 10.46 311.507 10.62C311.68 10.78 311.92 10.86 312.227 10.86C312.467 10.86 312.687 10.8133 312.887 10.72C313.087 10.6267 313.26 10.4867 313.407 10.3C313.553 10.1133 313.667 9.87333 313.747 9.58C313.827 9.28667 313.867 8.93333 313.867 8.52C313.867 8.45333 313.867 8.39333 313.867 8.34C313.867 8.27333 313.867 8.19333 313.867 8.1H313.807C313.673 8.36667 313.46 8.59333 313.167 8.78C312.887 8.96667 312.56 9.11333 312.187 9.22C311.813 9.31333 311.407 9.36 310.967 9.36C310.167 9.36 309.453 9.19333 308.827 8.86C308.2 8.51333 307.707 8.03333 307.347 7.42C306.987 6.79333 306.807 6.06667 306.807 5.24C306.807 4.26667 307.033 3.44 307.487 2.76C307.953 2.06667 308.587 1.53333 309.387 1.16C310.2 0.786666 311.133 0.6 312.187 0.6ZM312.187 3.98C311.84 3.98 311.547 4.08 311.307 4.28C311.08 4.46667 310.967 4.74 310.967 5.1C310.967 5.46 311.08 5.74 311.307 5.94C311.547 6.12667 311.84 6.22 312.187 6.22C312.4 6.22 312.6 6.18 312.787 6.1C312.973 6.00667 313.12 5.88 313.227 5.72C313.347 5.54667 313.407 5.34 313.407 5.1C313.407 4.86 313.347 4.66 313.227 4.5C313.12 4.32667 312.973 4.2 312.787 4.12C312.6 4.02667 312.4 3.98 312.187 3.98ZM324.511 0.6C325.791 0.6 326.858 0.84 327.711 1.32C328.578 1.78667 329.224 2.51333 329.651 3.5C330.091 4.48667 330.311 5.76 330.311 7.32C330.311 9 330.044 10.3467 329.511 11.36C328.991 12.36 328.291 13.0867 327.411 13.54C326.531 13.98 325.564 14.2 324.511 14.2C323.324 14.2 322.284 13.9867 321.391 13.56C320.511 13.12 319.851 12.3933 319.411 11.38L323.491 9.92C323.544 10.2267 323.658 10.46 323.831 10.62C324.004 10.78 324.244 10.86 324.551 10.86C324.791 10.86 325.011 10.8133 325.211 10.72C325.411 10.6267 325.584 10.4867 325.731 10.3C325.878 10.1133 325.991 9.87333 326.071 9.58C326.151 9.28667 326.191 8.93333 326.191 8.52C326.191 8.45333 326.191 8.39333 326.191 8.34C326.191 8.27333 326.191 8.19333 326.191 8.1H326.131C325.998 8.36667 325.784 8.59333 325.491 8.78C325.211 8.96667 324.884 9.11333 324.511 9.22C324.138 9.31333 323.731 9.36 323.291 9.36C322.491 9.36 321.778 9.19333 321.151 8.86C320.524 8.51333 320.031 8.03333 319.671 7.42C319.311 6.79333 319.131 6.06667 319.131 5.24C319.131 4.26667 319.358 3.44 319.811 2.76C320.278 2.06667 320.911 1.53333 321.711 1.16C322.524 0.786666 323.458 0.6 324.511 0.6ZM324.511 3.98C324.164 3.98 323.871 4.08 323.631 4.28C323.404 4.46667 323.291 4.74 323.291 5.1C323.291 5.46 323.404 5.74 323.631 5.94C323.871 6.12667 324.164 6.22 324.511 6.22C324.724 6.22 324.924 6.18 325.111 6.1C325.298 6.00667 325.444 5.88 325.551 5.72C325.671 5.54667 325.731 5.34 325.731 5.1C325.731 4.86 325.671 4.66 325.551 4.5C325.444 4.32667 325.298 4.2 325.111 4.12C324.924 4.02667 324.724 3.98 324.511 3.98ZM334.635 14V7.8C334.635 7.36 334.635 6.92 334.635 6.48C334.635 6.04 334.635 5.6 334.635 5.16C334.208 5.53333 333.748 5.86 333.255 6.14C332.762 6.40667 332.242 6.58 331.695 6.66L331.435 2.92C331.848 2.88 332.262 2.79333 332.675 2.66C333.088 2.51333 333.475 2.34 333.835 2.14C334.208 1.94 334.535 1.72667 334.815 1.5C335.108 1.27333 335.328 1.04 335.475 0.799999H339.095V14H334.635ZM11.44 26.8V28.3H6.84V40H5.24V28.3H0.64V26.8H11.44ZM13.5397 40V25.4H15.1397V31.5C15.4864 30.9 15.9464 30.4667 16.5197 30.2C17.093 29.9333 17.7197 29.8 18.3997 29.8C19.1197 29.8 19.773 29.94 20.3597 30.22C20.9464 30.4867 21.413 30.9 21.7597 31.46C22.1197 32.02 22.2997 32.7333 22.2997 33.6V40H20.6997V34.16C20.6997 33.0533 20.4597 32.2867 19.9797 31.86C19.513 31.42 18.933 31.2 18.2397 31.2C17.7597 31.2 17.2797 31.3133 16.7997 31.54C16.3197 31.7667 15.9197 32.14 15.5997 32.66C15.293 33.1667 15.1397 33.8467 15.1397 34.7V40H13.5397ZM30.1025 40.2C29.1558 40.2 28.3092 39.9933 27.5625 39.58C26.8292 39.1667 26.2558 38.5733 25.8425 37.8C25.4292 37.0133 25.2225 36.08 25.2225 35C25.2225 33.92 25.4292 32.9933 25.8425 32.22C26.2558 31.4333 26.8225 30.8333 27.5425 30.42C28.2625 30.0067 29.0825 29.8 30.0025 29.8C30.9358 29.8 31.7292 30 32.3825 30.4C33.0492 30.8 33.5558 31.3467 33.9025 32.04C34.2492 32.72 34.4225 33.4867 34.4225 34.34C34.4225 34.5667 34.4158 34.7733 34.4025 34.96C34.3892 35.1467 34.3692 35.3133 34.3425 35.46H26.2625V34.04H33.6425L32.8225 34.2C32.8225 33.24 32.5558 32.5 32.0225 31.98C31.5025 31.46 30.8158 31.2 29.9625 31.2C29.3092 31.2 28.7425 31.3533 28.2625 31.66C27.7958 31.9533 27.4292 32.3867 27.1625 32.96C26.9092 33.52 26.7825 34.2 26.7825 35C26.7825 35.7867 26.9158 36.4667 27.1825 37.04C27.4492 37.6133 27.8225 38.0533 28.3025 38.36C28.7958 38.6533 29.3825 38.8 30.0625 38.8C30.7958 38.8 31.3892 38.66 31.8425 38.38C32.3092 38.1 32.6825 37.72 32.9625 37.24L34.2225 37.98C33.9692 38.4333 33.6425 38.8267 33.2425 39.16C32.8558 39.4933 32.3958 39.7533 31.8625 39.94C31.3425 40.1133 30.7558 40.2 30.1025 40.2ZM47.8819 40.2C46.9085 40.2 46.0085 39.9933 45.1819 39.58C44.3685 39.1667 43.7419 38.58 43.3019 37.82L44.6619 36.84C44.9552 37.4533 45.3819 37.9333 45.9419 38.28C46.5152 38.6267 47.2019 38.8 48.0019 38.8C48.7085 38.8 49.2619 38.6667 49.6619 38.4C50.0619 38.12 50.2619 37.76 50.2619 37.32C50.2619 37.04 50.1685 36.7867 49.9819 36.56C49.8085 36.32 49.4685 36.1467 48.9619 36.04L46.5619 35.54C45.5885 35.34 44.8885 35.0067 44.4619 34.54C44.0485 34.0733 43.8419 33.4933 43.8419 32.8C43.8419 32.2533 43.9952 31.7533 44.3019 31.3C44.6219 30.8467 45.0685 30.4867 45.6419 30.22C46.2285 29.94 46.9152 29.8 47.7019 29.8C48.6885 29.8 49.5219 29.9933 50.2019 30.38C50.8819 30.7667 51.3885 31.3133 51.7219 32.02L50.3819 32.9C50.1552 32.3133 49.7885 31.8867 49.2819 31.62C48.7752 31.34 48.2485 31.2 47.7019 31.2C47.2219 31.2 46.8085 31.2667 46.4619 31.4C46.1285 31.5333 45.8685 31.72 45.6819 31.96C45.5085 32.1867 45.4219 32.4467 45.4219 32.74C45.4219 33.0333 45.5219 33.3067 45.7219 33.56C45.9219 33.8 46.2952 33.9733 46.8419 34.08L49.3419 34.6C50.2752 34.7867 50.9285 35.0933 51.3019 35.52C51.6752 35.9467 51.8619 36.4667 51.8619 37.08C51.8619 37.7067 51.6952 38.26 51.3619 38.74C51.0285 39.2067 50.5619 39.5667 49.9619 39.82C49.3619 40.0733 48.6685 40.2 47.8819 40.2ZM63.6088 30L59.2888 34.32L58.9088 34.7L55.6288 37.98V35.98L61.5888 30H63.6088ZM56.4288 25.4V40H54.8288V25.4H56.4288ZM59.4288 33.5L63.8488 40H61.9088L58.0888 34.4L59.4288 33.5ZM69.7964 40.2C69.1564 40.2 68.5497 40.08 67.9764 39.84C67.4164 39.6 66.9564 39.2133 66.5964 38.68C66.2497 38.1333 66.0764 37.4267 66.0764 36.56V30H67.6764V36.14C67.6764 37.1533 67.8964 37.8533 68.3364 38.24C68.7764 38.6133 69.3964 38.8 70.1964 38.8C70.5697 38.8 70.9364 38.74 71.2964 38.62C71.6564 38.4867 71.9764 38.2867 72.2564 38.02C72.5497 37.74 72.7764 37.3867 72.9364 36.96C73.1097 36.5333 73.1964 36.0267 73.1964 35.44V30H74.7964V40H73.3964L73.2964 38.48C72.9497 39.08 72.4764 39.52 71.8764 39.8C71.2897 40.0667 70.5964 40.2 69.7964 40.2ZM80.0402 25.4V37.46C80.0402 37.9667 80.1335 38.32 80.3202 38.52C80.5068 38.7067 80.8068 38.8 81.2202 38.8C81.4868 38.8 81.7068 38.78 81.8802 38.74C82.0535 38.7 82.2868 38.6267 82.5802 38.52L82.3202 39.92C82.1068 40.0133 81.8735 40.08 81.6202 40.12C81.3668 40.1733 81.1068 40.2 80.8402 40.2C80.0268 40.2 79.4202 39.98 79.0202 39.54C78.6335 39.1 78.4402 38.4267 78.4402 37.52V25.4H80.0402ZM86.1534 25.4V37.46C86.1534 37.9667 86.2468 38.32 86.4334 38.52C86.6201 38.7067 86.9201 38.8 87.3334 38.8C87.6001 38.8 87.8201 38.78 87.9934 38.74C88.1668 38.7 88.4001 38.6267 88.6934 38.52L88.4334 39.92C88.2201 40.0133 87.9868 40.08 87.7334 40.12C87.4801 40.1733 87.2201 40.2 86.9534 40.2C86.1401 40.2 85.5334 39.98 85.1334 39.54C84.7468 39.1 84.5534 38.4267 84.5534 37.52V25.4H86.1534ZM101 29.8C101.947 29.8 102.78 30.0067 103.5 30.42C104.233 30.8333 104.807 31.4333 105.22 32.22C105.633 32.9933 105.84 33.92 105.84 35C105.84 36.08 105.633 37.0133 105.22 37.8C104.807 38.5733 104.233 39.1667 103.5 39.58C102.78 39.9933 101.947 40.2 101 40.2C100.067 40.2 99.2333 39.9933 98.5 39.58C97.7667 39.1667 97.1933 38.5733 96.78 37.8C96.3667 37.0133 96.16 36.08 96.16 35C96.16 33.92 96.3667 32.9933 96.78 32.22C97.1933 31.4333 97.7667 30.8333 98.5 30.42C99.2333 30.0067 100.067 29.8 101 29.8ZM101 31.18C100.32 31.18 99.74 31.3333 99.26 31.64C98.78 31.9467 98.4067 32.3867 98.14 32.96C97.8867 33.52 97.76 34.2 97.76 35C97.76 35.7867 97.8867 36.4667 98.14 37.04C98.4067 37.6133 98.78 38.0533 99.26 38.36C99.74 38.6667 100.32 38.82 101 38.82C101.68 38.82 102.26 38.6667 102.74 38.36C103.22 38.0533 103.587 37.6133 103.84 37.04C104.107 36.4667 104.24 35.7867 104.24 35C104.24 34.2 104.107 33.52 103.84 32.96C103.587 32.3867 103.22 31.9467 102.74 31.64C102.26 31.3333 101.68 31.18 101 31.18ZM108.852 40V30H110.252L110.392 32.24L110.132 32.02C110.346 31.4867 110.632 31.06 110.992 30.74C111.352 30.4067 111.766 30.1667 112.232 30.02C112.712 29.8733 113.206 29.8 113.712 29.8C114.432 29.8 115.086 29.94 115.672 30.22C116.259 30.4867 116.726 30.9 117.072 31.46C117.432 32.02 117.612 32.7333 117.612 33.6V40H116.012V34.16C116.012 33.0533 115.772 32.2867 115.292 31.86C114.826 31.42 114.246 31.2 113.552 31.2C113.072 31.2 112.592 31.3133 112.112 31.54C111.632 31.7667 111.232 32.1333 110.912 32.64C110.606 33.1467 110.452 33.8267 110.452 34.68V40H108.852ZM130.021 27.16V37.24C130.021 37.7333 130.161 38.1 130.441 38.34C130.721 38.58 131.081 38.7 131.521 38.7C131.907 38.7 132.241 38.6333 132.521 38.5C132.801 38.3667 133.054 38.1867 133.281 37.96L133.841 39.3C133.534 39.58 133.167 39.8 132.741 39.96C132.327 40.12 131.847 40.2 131.301 40.2C130.794 40.2 130.321 40.1133 129.881 39.94C129.441 39.7533 129.087 39.4667 128.821 39.08C128.567 38.68 128.434 38.16 128.421 37.52V27.6L130.021 27.16ZM133.661 30V31.38H126.421V30H133.661ZM136.04 40V25.4H137.64V31.5C137.986 30.9 138.446 30.4667 139.02 30.2C139.593 29.9333 140.22 29.8 140.9 29.8C141.62 29.8 142.273 29.94 142.86 30.22C143.446 30.4867 143.913 30.9 144.26 31.46C144.62 32.02 144.8 32.7333 144.8 33.6V40H143.2V34.16C143.2 33.0533 142.96 32.2867 142.48 31.86C142.013 31.42 141.433 31.2 140.74 31.2C140.26 31.2 139.78 31.3133 139.3 31.54C138.82 31.7667 138.42 32.14 138.1 32.66C137.793 33.1667 137.64 33.8467 137.64 34.7V40H136.04ZM152.603 40.2C151.656 40.2 150.809 39.9933 150.063 39.58C149.329 39.1667 148.756 38.5733 148.343 37.8C147.929 37.0133 147.723 36.08 147.723 35C147.723 33.92 147.929 32.9933 148.343 32.22C148.756 31.4333 149.323 30.8333 150.043 30.42C150.763 30.0067 151.583 29.8 152.503 29.8C153.436 29.8 154.229 30 154.883 30.4C155.549 30.8 156.056 31.3467 156.403 32.04C156.749 32.72 156.923 33.4867 156.923 34.34C156.923 34.5667 156.916 34.7733 156.903 34.96C156.889 35.1467 156.869 35.3133 156.842 35.46H148.763V34.04H156.143L155.323 34.2C155.323 33.24 155.056 32.5 154.523 31.98C154.003 31.46 153.316 31.2 152.463 31.2C151.809 31.2 151.243 31.3533 150.763 31.66C150.296 31.9533 149.929 32.3867 149.663 32.96C149.409 33.52 149.283 34.2 149.283 35C149.283 35.7867 149.416 36.4667 149.683 37.04C149.949 37.6133 150.323 38.0533 150.803 38.36C151.296 38.6533 151.883 38.8 152.563 38.8C153.296 38.8 153.889 38.66 154.343 38.38C154.809 38.1 155.183 37.72 155.463 37.24L156.723 37.98C156.469 38.4333 156.143 38.8267 155.743 39.16C155.356 39.4933 154.896 39.7533 154.363 39.94C153.843 40.1133 153.256 40.2 152.603 40.2ZM166.782 40V30H168.182L168.282 31.56C168.642 30.9467 169.109 30.5 169.682 30.22C170.269 29.94 170.869 29.8 171.482 29.8C172.189 29.8 172.855 29.96 173.482 30.28C174.109 30.6 174.589 31.0933 174.922 31.76C175.135 31.3067 175.435 30.94 175.822 30.66C176.209 30.3667 176.629 30.1533 177.082 30.02C177.549 29.8733 177.989 29.8 178.402 29.8C179.042 29.8 179.649 29.9333 180.222 30.2C180.809 30.4667 181.289 30.88 181.662 31.44C182.035 32 182.222 32.72 182.222 33.6V40H180.622V33.76C180.622 32.8533 180.395 32.2 179.942 31.8C179.489 31.4 178.929 31.2 178.262 31.2C177.742 31.2 177.255 31.3267 176.802 31.58C176.349 31.8333 175.982 32.2067 175.702 32.7C175.435 33.1933 175.302 33.8 175.302 34.52V40H173.702V33.76C173.702 32.8533 173.475 32.2 173.022 31.8C172.569 31.4 172.009 31.2 171.342 31.2C170.902 31.2 170.449 31.32 169.982 31.56C169.529 31.7867 169.149 32.1533 168.842 32.66C168.535 33.1667 168.382 33.8333 168.382 34.66V40H166.782ZM189.984 29.8C190.931 29.8 191.764 30.0067 192.484 30.42C193.218 30.8333 193.791 31.4333 194.204 32.22C194.618 32.9933 194.824 33.92 194.824 35C194.824 36.08 194.618 37.0133 194.204 37.8C193.791 38.5733 193.218 39.1667 192.484 39.58C191.764 39.9933 190.931 40.2 189.984 40.2C189.051 40.2 188.218 39.9933 187.484 39.58C186.751 39.1667 186.178 38.5733 185.764 37.8C185.351 37.0133 185.144 36.08 185.144 35C185.144 33.92 185.351 32.9933 185.764 32.22C186.178 31.4333 186.751 30.8333 187.484 30.42C188.218 30.0067 189.051 29.8 189.984 29.8ZM189.984 31.18C189.304 31.18 188.724 31.3333 188.244 31.64C187.764 31.9467 187.391 32.3867 187.124 32.96C186.871 33.52 186.744 34.2 186.744 35C186.744 35.7867 186.871 36.4667 187.124 37.04C187.391 37.6133 187.764 38.0533 188.244 38.36C188.724 38.6667 189.304 38.82 189.984 38.82C190.664 38.82 191.244 38.6667 191.724 38.36C192.204 38.0533 192.571 37.6133 192.824 37.04C193.091 36.4667 193.224 35.7867 193.224 35C193.224 34.2 193.091 33.52 192.824 32.96C192.571 32.3867 192.204 31.9467 191.724 31.64C191.244 31.3333 190.664 31.18 189.984 31.18ZM200.021 27.16V37.24C200.021 37.7333 200.161 38.1 200.441 38.34C200.721 38.58 201.081 38.7 201.521 38.7C201.907 38.7 202.241 38.6333 202.521 38.5C202.801 38.3667 203.054 38.1867 203.281 37.96L203.841 39.3C203.534 39.58 203.167 39.8 202.741 39.96C202.327 40.12 201.847 40.2 201.301 40.2C200.794 40.2 200.321 40.1133 199.881 39.94C199.441 39.7533 199.087 39.4667 198.821 39.08C198.567 38.68 198.434 38.16 198.421 37.52V27.6L200.021 27.16ZM203.661 30V31.38H196.421V30H203.661ZM206.04 40V25.4H207.64V31.5C207.986 30.9 208.446 30.4667 209.02 30.2C209.593 29.9333 210.22 29.8 210.9 29.8C211.62 29.8 212.273 29.94 212.86 30.22C213.446 30.4867 213.913 30.9 214.26 31.46C214.62 32.02 214.8 32.7333 214.8 33.6V40H213.2V34.16C213.2 33.0533 212.96 32.2867 212.48 31.86C212.013 31.42 211.433 31.2 210.74 31.2C210.26 31.2 209.78 31.3133 209.3 31.54C208.82 31.7667 208.42 32.14 208.1 32.66C207.793 33.1667 207.64 33.8467 207.64 34.7V40H206.04ZM218.186 26C218.506 26 218.773 26.0867 218.986 26.26C219.213 26.42 219.386 26.6467 219.506 26.94C219.626 27.22 219.686 27.5533 219.686 27.94C219.686 28.38 219.606 28.8133 219.446 29.24C219.3 29.6667 219.066 30.06 218.746 30.42C218.426 30.78 218.013 31.08 217.506 31.32L216.666 30.54C217.026 30.42 217.34 30.2533 217.606 30.04C217.886 29.8267 218.113 29.5867 218.286 29.32C218.46 29.0533 218.573 28.78 218.626 28.5L218.546 28.46C218.493 28.5 218.426 28.5333 218.346 28.56C218.266 28.5867 218.146 28.6 217.986 28.6C217.826 28.6 217.66 28.5533 217.486 28.46C217.326 28.3667 217.186 28.2333 217.066 28.06C216.946 27.8733 216.886 27.6333 216.886 27.34C216.886 27.1 216.946 26.88 217.066 26.68C217.186 26.4667 217.34 26.3 217.526 26.18C217.726 26.06 217.946 26 218.186 26ZM225.187 40.2C224.213 40.2 223.313 39.9933 222.487 39.58C221.673 39.1667 221.047 38.58 220.607 37.82L221.967 36.84C222.26 37.4533 222.687 37.9333 223.247 38.28C223.82 38.6267 224.507 38.8 225.307 38.8C226.013 38.8 226.567 38.6667 226.967 38.4C227.367 38.12 227.567 37.76 227.567 37.32C227.567 37.04 227.473 36.7867 227.287 36.56C227.113 36.32 226.773 36.1467 226.267 36.04L223.867 35.54C222.893 35.34 222.193 35.0067 221.767 34.54C221.353 34.0733 221.147 33.4933 221.147 32.8C221.147 32.2533 221.3 31.7533 221.607 31.3C221.927 30.8467 222.373 30.4867 222.947 30.22C223.533 29.94 224.22 29.8 225.007 29.8C225.993 29.8 226.827 29.9933 227.507 30.38C228.187 30.7667 228.693 31.3133 229.027 32.02L227.687 32.9C227.46 32.3133 227.093 31.8867 226.587 31.62C226.08 31.34 225.553 31.2 225.007 31.2C224.527 31.2 224.113 31.2667 223.767 31.4C223.433 31.5333 223.173 31.72 222.987 31.96C222.813 32.1867 222.727 32.4467 222.727 32.74C222.727 33.0333 222.827 33.3067 223.027 33.56C223.227 33.8 223.6 33.9733 224.147 34.08L226.647 34.6C227.58 34.7867 228.233 35.0933 228.607 35.52C228.98 35.9467 229.167 36.4667 229.167 37.08C229.167 37.7067 229 38.26 228.667 38.74C228.333 39.2067 227.867 39.5667 227.267 39.82C226.667 40.0733 225.973 40.2 225.187 40.2ZM243.85 40.2C243.29 40.2 242.77 40.1 242.29 39.9C241.81 39.7 241.397 39.42 241.05 39.06C240.703 38.7 240.443 38.2933 240.27 37.84L240.49 37.56L240.35 40H238.95V25.4H240.55V32.26L240.35 31.96C240.617 31.3333 241.063 30.82 241.69 30.42C242.33 30.0067 243.057 29.8 243.87 29.8C244.697 29.8 245.457 30.0067 246.15 30.42C246.843 30.8333 247.397 31.4267 247.81 32.2C248.223 32.9733 248.43 33.9067 248.43 35C248.43 36.08 248.217 37.0133 247.79 37.8C247.377 38.5733 246.823 39.1667 246.13 39.58C245.437 39.9933 244.677 40.2 243.85 40.2ZM243.69 38.8C244.677 38.8 245.443 38.4533 245.99 37.76C246.55 37.0667 246.83 36.1467 246.83 35C246.83 33.8533 246.557 32.9333 246.01 32.24C245.463 31.5467 244.697 31.2 243.71 31.2C243.083 31.2 242.53 31.36 242.05 31.68C241.583 32 241.217 32.4467 240.95 33.02C240.683 33.5933 240.55 34.2667 240.55 35.04C240.55 35.8 240.677 36.4667 240.93 37.04C241.197 37.6 241.563 38.0333 242.03 38.34C242.51 38.6467 243.063 38.8 243.69 38.8ZM257.329 33.54C257.329 32.7933 257.129 32.22 256.729 31.82C256.329 31.4067 255.762 31.2 255.029 31.2C254.336 31.2 253.749 31.3533 253.269 31.66C252.789 31.9533 252.436 32.4333 252.209 33.1L250.909 32.3C251.176 31.5533 251.669 30.9533 252.389 30.5C253.109 30.0333 254.002 29.8 255.069 29.8C255.789 29.8 256.442 29.9267 257.029 30.18C257.616 30.42 258.076 30.7933 258.409 31.3C258.756 31.7933 258.929 32.4333 258.929 33.22V38.06C258.929 38.54 259.182 38.78 259.689 38.78C259.942 38.78 260.189 38.7467 260.429 38.68L260.349 39.94C260.082 40.0733 259.736 40.14 259.309 40.14C258.922 40.14 258.576 40.0667 258.269 39.92C257.962 39.7733 257.722 39.5533 257.549 39.26C257.376 38.9533 257.289 38.5733 257.289 38.12V37.92L257.689 37.98C257.529 38.5 257.256 38.9267 256.869 39.26C256.482 39.58 256.049 39.82 255.569 39.98C255.089 40.1267 254.616 40.2 254.149 40.2C253.562 40.2 253.016 40.1 252.509 39.9C252.002 39.7 251.596 39.4 251.289 39C250.996 38.5867 250.849 38.08 250.849 37.48C250.849 36.7333 251.096 36.12 251.589 35.64C252.096 35.1467 252.796 34.8133 253.689 34.64L257.649 33.86V35.18L254.429 35.84C253.776 35.9733 253.289 36.16 252.969 36.4C252.649 36.64 252.489 36.9733 252.489 37.4C252.489 37.8133 252.649 38.1533 252.969 38.42C253.302 38.6733 253.769 38.8 254.369 38.8C254.756 38.8 255.122 38.7533 255.469 38.66C255.829 38.5533 256.149 38.4 256.429 38.2C256.709 37.9867 256.929 37.7267 257.089 37.42C257.249 37.1 257.329 36.7267 257.329 36.3V33.54ZM266.957 29.8C267.65 29.8 268.257 29.9067 268.777 30.12C269.31 30.3333 269.77 30.64 270.157 31.04C270.544 31.44 270.857 31.9133 271.097 32.46L269.577 33.18C269.364 32.54 269.037 32.0533 268.597 31.72C268.17 31.3733 267.61 31.2 266.917 31.2C266.25 31.2 265.677 31.3533 265.197 31.66C264.717 31.9533 264.35 32.3867 264.097 32.96C263.844 33.52 263.717 34.2 263.717 35C263.717 35.7867 263.844 36.4667 264.097 37.04C264.35 37.6133 264.717 38.0533 265.197 38.36C265.677 38.6533 266.25 38.8 266.917 38.8C267.437 38.8 267.884 38.72 268.257 38.56C268.644 38.4 268.957 38.1667 269.197 37.86C269.45 37.5533 269.624 37.18 269.717 36.74L271.197 37.26C270.97 37.8733 270.657 38.4 270.257 38.84C269.87 39.28 269.397 39.62 268.837 39.86C268.29 40.0867 267.664 40.2 266.957 40.2C266.024 40.2 265.19 39.9933 264.457 39.58C263.724 39.1667 263.15 38.5733 262.737 37.8C262.324 37.0133 262.117 36.08 262.117 35C262.117 33.92 262.324 32.9933 262.737 32.22C263.15 31.4333 263.724 30.8333 264.457 30.42C265.19 30.0067 266.024 29.8 266.957 29.8ZM282.788 30L278.468 34.32L278.088 34.7L274.808 37.98V35.98L280.768 30H282.788ZM275.608 25.4V40H274.008V25.4H275.608ZM278.608 33.5L283.028 40H281.088L277.268 34.4L278.608 33.5ZM292.523 28.08C292.163 28.08 291.87 27.9733 291.643 27.76C291.43 27.5333 291.323 27.24 291.323 26.88C291.323 26.52 291.43 26.2333 291.643 26.02C291.87 25.7933 292.163 25.68 292.523 25.68C292.883 25.68 293.17 25.7933 293.383 26.02C293.61 26.2333 293.723 26.52 293.723 26.88C293.723 27.24 293.61 27.5333 293.383 27.76C293.17 27.9733 292.883 28.08 292.523 28.08ZM293.323 30V40H291.723V30H293.323ZM300.636 40.2C299.662 40.2 298.762 39.9933 297.936 39.58C297.122 39.1667 296.496 38.58 296.056 37.82L297.416 36.84C297.709 37.4533 298.136 37.9333 298.696 38.28C299.269 38.6267 299.956 38.8 300.756 38.8C301.462 38.8 302.016 38.6667 302.416 38.4C302.816 38.12 303.016 37.76 303.016 37.32C303.016 37.04 302.922 36.7867 302.736 36.56C302.562 36.32 302.222 36.1467 301.716 36.04L299.316 35.54C298.342 35.34 297.642 35.0067 297.216 34.54C296.802 34.0733 296.596 33.4933 296.596 32.8C296.596 32.2533 296.749 31.7533 297.056 31.3C297.376 30.8467 297.822 30.4867 298.396 30.22C298.982 29.94 299.669 29.8 300.456 29.8C301.442 29.8 302.276 29.9933 302.956 30.38C303.636 30.7667 304.142 31.3133 304.476 32.02L303.136 32.9C302.909 32.3133 302.542 31.8867 302.036 31.62C301.529 31.34 301.002 31.2 300.456 31.2C299.976 31.2 299.562 31.2667 299.216 31.4C298.882 31.5333 298.622 31.72 298.436 31.96C298.262 32.1867 298.176 32.4467 298.176 32.74C298.176 33.0333 298.276 33.3067 298.476 33.56C298.676 33.8 299.049 33.9733 299.596 34.08L302.096 34.6C303.029 34.7867 303.682 35.0933 304.056 35.52C304.429 35.9467 304.616 36.4667 304.616 37.08C304.616 37.7067 304.449 38.26 304.116 38.74C303.782 39.2067 303.316 39.5667 302.716 39.82C302.116 40.0733 301.422 40.2 300.636 40.2ZM314.399 40V30H315.799L315.899 31.56C316.259 30.9467 316.726 30.5 317.299 30.22C317.886 29.94 318.486 29.8 319.099 29.8C319.806 29.8 320.472 29.96 321.099 30.28C321.726 30.6 322.206 31.0933 322.539 31.76C322.752 31.3067 323.052 30.94 323.439 30.66C323.826 30.3667 324.246 30.1533 324.699 30.02C325.166 29.8733 325.606 29.8 326.019 29.8C326.659 29.8 327.266 29.9333 327.839 30.2C328.426 30.4667 328.906 30.88 329.279 31.44C329.652 32 329.839 32.72 329.839 33.6V40H328.239V33.76C328.239 32.8533 328.012 32.2 327.559 31.8C327.106 31.4 326.546 31.2 325.879 31.2C325.359 31.2 324.872 31.3267 324.419 31.58C323.966 31.8333 323.599 32.2067 323.319 32.7C323.052 33.1933 322.919 33.8 322.919 34.52V40H321.319V33.76C321.319 32.8533 321.092 32.2 320.639 31.8C320.186 31.4 319.626 31.2 318.959 31.2C318.519 31.2 318.066 31.32 317.599 31.56C317.146 31.7867 316.766 32.1533 316.459 32.66C316.152 33.1667 315.999 33.8333 315.999 34.66V40H314.399ZM339.302 33.54C339.302 32.7933 339.102 32.22 338.702 31.82C338.302 31.4067 337.735 31.2 337.002 31.2C336.308 31.2 335.722 31.3533 335.242 31.66C334.762 31.9533 334.408 32.4333 334.182 33.1L332.882 32.3C333.148 31.5533 333.642 30.9533 334.362 30.5C335.082 30.0333 335.975 29.8 337.042 29.8C337.762 29.8 338.415 29.9267 339.002 30.18C339.588 30.42 340.048 30.7933 340.382 31.3C340.728 31.7933 340.902 32.4333 340.902 33.22V38.06C340.902 38.54 341.155 38.78 341.662 38.78C341.915 38.78 342.162 38.7467 342.402 38.68L342.322 39.94C342.055 40.0733 341.708 40.14 341.282 40.14C340.895 40.14 340.548 40.0667 340.242 39.92C339.935 39.7733 339.695 39.5533 339.522 39.26C339.348 38.9533 339.262 38.5733 339.262 38.12V37.92L339.662 37.98C339.502 38.5 339.228 38.9267 338.842 39.26C338.455 39.58 338.022 39.82 337.542 39.98C337.062 40.1267 336.588 40.2 336.122 40.2C335.535 40.2 334.988 40.1 334.482 39.9C333.975 39.7 333.568 39.4 333.262 39C332.968 38.5867 332.822 38.08 332.822 37.48C332.822 36.7333 333.068 36.12 333.562 35.64C334.068 35.1467 334.768 34.8133 335.662 34.64L339.622 33.86V35.18L336.402 35.84C335.748 35.9733 335.262 36.16 334.942 36.4C334.622 36.64 334.462 36.9733 334.462 37.4C334.462 37.8133 334.622 38.1533 334.942 38.42C335.275 38.6733 335.742 38.8 336.342 38.8C336.728 38.8 337.095 38.7533 337.442 38.66C337.802 38.5533 338.122 38.4 338.402 38.2C338.682 37.9867 338.902 37.7267 339.062 37.42C339.222 37.1 339.302 36.7267 339.302 36.3V33.54ZM348.69 40.2C347.863 40.2 347.103 39.9933 346.41 39.58C345.716 39.1667 345.163 38.5733 344.75 37.8C344.336 37.0133 344.13 36.08 344.13 35C344.13 33.8933 344.35 32.9533 344.79 32.18C345.23 31.4067 345.81 30.82 346.53 30.42C347.25 30.0067 348.023 29.8 348.85 29.8C349.676 29.8 350.39 30.0133 350.99 30.44C351.603 30.8667 352.01 31.4333 352.21 32.14L352.01 32.28V25.4H353.61V40H352.21L352.07 37.58L352.29 37.46C352.196 38.0467 351.97 38.5467 351.61 38.96C351.263 39.36 350.83 39.6667 350.31 39.88C349.803 40.0933 349.263 40.2 348.69 40.2ZM348.85 38.8C349.49 38.8 350.043 38.64 350.51 38.32C350.99 38 351.356 37.5467 351.61 36.96C351.876 36.36 352.01 35.66 352.01 34.86C352.01 34.1 351.876 33.4467 351.61 32.9C351.356 32.3533 350.996 31.9333 350.53 31.64C350.076 31.3467 349.543 31.2 348.93 31.2C347.916 31.2 347.13 31.5467 346.57 32.24C346.01 32.9333 345.73 33.8533 345.73 35C345.73 36.1467 346.003 37.0667 346.55 37.76C347.096 38.4533 347.863 38.8 348.85 38.8ZM361.509 40.2C360.562 40.2 359.715 39.9933 358.969 39.58C358.235 39.1667 357.662 38.5733 357.249 37.8C356.835 37.0133 356.629 36.08 356.629 35C356.629 33.92 356.835 32.9933 357.249 32.22C357.662 31.4333 358.229 30.8333 358.949 30.42C359.669 30.0067 360.489 29.8 361.409 29.8C362.342 29.8 363.135 30 363.789 30.4C364.455 30.8 364.962 31.3467 365.309 32.04C365.655 32.72 365.829 33.4867 365.829 34.34C365.829 34.5667 365.822 34.7733 365.809 34.96C365.795 35.1467 365.775 35.3133 365.749 35.46H357.669V34.04H365.049L364.229 34.2C364.229 33.24 363.962 32.5 363.429 31.98C362.909 31.46 362.222 31.2 361.369 31.2C360.715 31.2 360.149 31.3533 359.669 31.66C359.202 31.9533 358.835 32.3867 358.569 32.96C358.315 33.52 358.189 34.2 358.189 35C358.189 35.7867 358.322 36.4667 358.589 37.04C358.855 37.6133 359.229 38.0533 359.709 38.36C360.202 38.6533 360.789 38.8 361.469 38.8C362.202 38.8 362.795 38.66 363.249 38.38C363.715 38.1 364.089 37.72 364.369 37.24L365.629 37.98C365.375 38.4333 365.049 38.8267 364.649 39.16C364.262 39.4933 363.802 39.7533 363.269 39.94C362.749 40.1133 362.162 40.2 361.509 40.2ZM379.828 29.8C380.775 29.8 381.608 30.0067 382.328 30.42C383.061 30.8333 383.635 31.4333 384.048 32.22C384.461 32.9933 384.668 33.92 384.668 35C384.668 36.08 384.461 37.0133 384.048 37.8C383.635 38.5733 383.061 39.1667 382.328 39.58C381.608 39.9933 380.775 40.2 379.828 40.2C378.895 40.2 378.061 39.9933 377.328 39.58C376.595 39.1667 376.021 38.5733 375.608 37.8C375.195 37.0133 374.988 36.08 374.988 35C374.988 33.92 375.195 32.9933 375.608 32.22C376.021 31.4333 376.595 30.8333 377.328 30.42C378.061 30.0067 378.895 29.8 379.828 29.8ZM379.828 31.18C379.148 31.18 378.568 31.3333 378.088 31.64C377.608 31.9467 377.235 32.3867 376.968 32.96C376.715 33.52 376.588 34.2 376.588 35C376.588 35.7867 376.715 36.4667 376.968 37.04C377.235 37.6133 377.608 38.0533 378.088 38.36C378.568 38.6667 379.148 38.82 379.828 38.82C380.508 38.82 381.088 38.6667 381.568 38.36C382.048 38.0533 382.415 37.6133 382.668 37.04C382.935 36.4667 383.068 35.7867 383.068 35C383.068 34.2 382.935 33.52 382.668 32.96C382.415 32.3867 382.048 31.9467 381.568 31.64C381.088 31.3333 380.508 31.18 379.828 31.18ZM391.565 25.3C391.911 25.3 392.238 25.34 392.545 25.42C392.851 25.5 393.091 25.6133 393.265 25.76L392.845 27.06C392.685 26.9533 392.511 26.88 392.325 26.84C392.138 26.7867 391.931 26.76 391.705 26.76C391.131 26.76 390.685 26.9 390.365 27.18C390.045 27.4467 389.885 27.88 389.885 28.48V30V30.52V40H388.285V28.32C388.285 27.88 388.351 27.4733 388.485 27.1C388.618 26.7267 388.818 26.4067 389.085 26.14C389.365 25.8733 389.711 25.6667 390.125 25.52C390.538 25.3733 391.018 25.3 391.565 25.3ZM393.225 30V31.38H386.285V30H393.225ZM404.972 40.2C403.998 40.2 403.098 39.9933 402.272 39.58C401.458 39.1667 400.832 38.58 400.392 37.82L401.752 36.84C402.045 37.4533 402.472 37.9333 403.032 38.28C403.605 38.6267 404.292 38.8 405.092 38.8C405.798 38.8 406.352 38.6667 406.752 38.4C407.152 38.12 407.352 37.76 407.352 37.32C407.352 37.04 407.258 36.7867 407.072 36.56C406.898 36.32 406.558 36.1467 406.052 36.04L403.652 35.54C402.678 35.34 401.978 35.0067 401.552 34.54C401.138 34.0733 400.932 33.4933 400.932 32.8C400.932 32.2533 401.085 31.7533 401.392 31.3C401.712 30.8467 402.158 30.4867 402.732 30.22C403.318 29.94 404.005 29.8 404.792 29.8C405.778 29.8 406.612 29.9933 407.292 30.38C407.972 30.7667 408.478 31.3133 408.812 32.02L407.472 32.9C407.245 32.3133 406.878 31.8867 406.372 31.62C405.865 31.34 405.338 31.2 404.792 31.2C404.312 31.2 403.898 31.2667 403.552 31.4C403.218 31.5333 402.958 31.72 402.772 31.96C402.598 32.1867 402.512 32.4467 402.512 32.74C402.512 33.0333 402.612 33.3067 402.812 33.56C403.012 33.8 403.385 33.9733 403.932 34.08L406.432 34.6C407.365 34.7867 408.018 35.0933 408.392 35.52C408.765 35.9467 408.952 36.4667 408.952 37.08C408.952 37.7067 408.785 38.26 408.452 38.74C408.118 39.2067 407.652 39.5667 407.052 39.82C406.452 40.0733 405.758 40.2 404.972 40.2ZM416.099 40.2C415.152 40.2 414.305 39.9933 413.559 39.58C412.825 39.1667 412.252 38.5733 411.839 37.8C411.425 37.0133 411.219 36.08 411.219 35C411.219 33.92 411.425 32.9933 411.839 32.22C412.252 31.4333 412.819 30.8333 413.539 30.42C414.259 30.0067 415.079 29.8 415.999 29.8C416.932 29.8 417.725 30 418.379 30.4C419.045 30.8 419.552 31.3467 419.899 32.04C420.245 32.72 420.419 33.4867 420.419 34.34C420.419 34.5667 420.412 34.7733 420.399 34.96C420.385 35.1467 420.365 35.3133 420.339 35.46H412.259V34.04H419.639L418.819 34.2C418.819 33.24 418.552 32.5 418.019 31.98C417.499 31.46 416.812 31.2 415.959 31.2C415.305 31.2 414.739 31.3533 414.259 31.66C413.792 31.9533 413.425 32.3867 413.159 32.96C412.905 33.52 412.779 34.2 412.779 35C412.779 35.7867 412.912 36.4667 413.179 37.04C413.445 37.6133 413.819 38.0533 414.299 38.36C414.792 38.6533 415.379 38.8 416.059 38.8C416.792 38.8 417.385 38.66 417.839 38.38C418.305 38.1 418.679 37.72 418.959 37.24L420.219 37.98C419.965 38.4333 419.639 38.8267 419.239 39.16C418.852 39.4933 418.392 39.7533 417.859 39.94C417.339 40.1133 416.752 40.2 416.099 40.2ZM429.808 30H431.488L427.328 40H425.728L421.568 30H423.388L426.548 38.38L429.808 30ZM437.759 40.2C436.812 40.2 435.965 39.9933 435.219 39.58C434.485 39.1667 433.912 38.5733 433.499 37.8C433.085 37.0133 432.879 36.08 432.879 35C432.879 33.92 433.085 32.9933 433.499 32.22C433.912 31.4333 434.479 30.8333 435.199 30.42C435.919 30.0067 436.739 29.8 437.659 29.8C438.592 29.8 439.385 30 440.039 30.4C440.705 30.8 441.212 31.3467 441.559 32.04C441.905 32.72 442.079 33.4867 442.079 34.34C442.079 34.5667 442.072 34.7733 442.059 34.96C442.045 35.1467 442.025 35.3133 441.999 35.46H433.919V34.04H441.299L440.479 34.2C440.479 33.24 440.212 32.5 439.679 31.98C439.159 31.46 438.472 31.2 437.619 31.2C436.965 31.2 436.399 31.3533 435.919 31.66C435.452 31.9533 435.085 32.3867 434.819 32.96C434.565 33.52 434.439 34.2 434.439 35C434.439 35.7867 434.572 36.4667 434.839 37.04C435.105 37.6133 435.479 38.0533 435.959 38.36C436.452 38.6533 437.039 38.8 437.719 38.8C438.452 38.8 439.045 38.66 439.499 38.38C439.965 38.1 440.339 37.72 440.619 37.24L441.879 37.98C441.625 38.4333 441.299 38.8267 440.899 39.16C440.512 39.4933 440.052 39.7533 439.519 39.94C438.999 40.1133 438.412 40.2 437.759 40.2ZM445.122 40V30H446.522L446.662 32.24L446.402 32.02C446.615 31.4867 446.902 31.06 447.262 30.74C447.622 30.4067 448.035 30.1667 448.502 30.02C448.982 29.8733 449.475 29.8 449.982 29.8C450.702 29.8 451.355 29.94 451.942 30.22C452.528 30.4867 452.995 30.9 453.342 31.46C453.702 32.02 453.882 32.7333 453.882 33.6V40H452.282V34.16C452.282 33.0533 452.042 32.2867 451.562 31.86C451.095 31.42 450.515 31.2 449.822 31.2C449.342 31.2 448.862 31.3133 448.382 31.54C447.902 31.7667 447.502 32.1333 447.182 32.64C446.875 33.1467 446.722 33.8267 446.722 34.68V40H445.122ZM464.321 40V30H465.721L465.861 32.24L465.601 32.02C465.814 31.4867 466.101 31.06 466.461 30.74C466.821 30.4067 467.234 30.1667 467.701 30.02C468.181 29.8733 468.674 29.8 469.181 29.8C469.901 29.8 470.554 29.94 471.141 30.22C471.728 30.4867 472.194 30.9 472.541 31.46C472.901 32.02 473.081 32.7333 473.081 33.6V40H471.481V34.16C471.481 33.0533 471.241 32.2867 470.761 31.86C470.294 31.42 469.714 31.2 469.021 31.2C468.541 31.2 468.061 31.3133 467.581 31.54C467.101 31.7667 466.701 32.1333 466.381 32.64C466.074 33.1467 465.921 33.8267 465.921 34.68V40H464.321ZM480.324 40.2C479.684 40.2 479.077 40.08 478.504 39.84C477.944 39.6 477.484 39.2133 477.124 38.68C476.777 38.1333 476.604 37.4267 476.604 36.56V30H478.204V36.14C478.204 37.1533 478.424 37.8533 478.864 38.24C479.304 38.6133 479.924 38.8 480.724 38.8C481.097 38.8 481.464 38.74 481.824 38.62C482.184 38.4867 482.504 38.2867 482.784 38.02C483.077 37.74 483.304 37.3867 483.464 36.96C483.637 36.5333 483.724 36.0267 483.724 35.44V30H485.324V40H483.924L483.824 38.48C483.477 39.08 483.004 39.52 482.404 39.8C481.817 40.0667 481.124 40.2 480.324 40.2ZM492.948 40.2C492.121 40.2 491.361 39.9933 490.668 39.58C489.974 39.1667 489.421 38.5733 489.008 37.8C488.594 37.0133 488.388 36.08 488.388 35C488.388 33.8933 488.608 32.9533 489.048 32.18C489.488 31.4067 490.068 30.82 490.788 30.42C491.508 30.0067 492.281 29.8 493.108 29.8C493.934 29.8 494.648 30.0133 495.248 30.44C495.861 30.8667 496.268 31.4333 496.468 32.14L496.268 32.28V25.4H497.868V40H496.468L496.328 37.58L496.548 37.46C496.454 38.0467 496.228 38.5467 495.868 38.96C495.521 39.36 495.088 39.6667 494.568 39.88C494.061 40.0933 493.521 40.2 492.948 40.2ZM493.108 38.8C493.748 38.8 494.301 38.64 494.768 38.32C495.248 38 495.614 37.5467 495.868 36.96C496.134 36.36 496.268 35.66 496.268 34.86C496.268 34.1 496.134 33.4467 495.868 32.9C495.614 32.3533 495.254 31.9333 494.788 31.64C494.334 31.3467 493.801 31.2 493.188 31.2C492.174 31.2 491.388 31.5467 490.828 32.24C490.268 32.9333 489.988 33.8533 489.988 35C489.988 36.1467 490.261 37.0667 490.808 37.76C491.354 38.4533 492.121 38.8 493.108 38.8ZM505.767 40.2C504.82 40.2 503.973 39.9933 503.227 39.58C502.493 39.1667 501.92 38.5733 501.507 37.8C501.093 37.0133 500.887 36.08 500.887 35C500.887 33.92 501.093 32.9933 501.507 32.22C501.92 31.4333 502.487 30.8333 503.207 30.42C503.927 30.0067 504.747 29.8 505.667 29.8C506.6 29.8 507.393 30 508.047 30.4C508.713 30.8 509.22 31.3467 509.567 32.04C509.913 32.72 510.087 33.4867 510.087 34.34C510.087 34.5667 510.08 34.7733 510.067 34.96C510.053 35.1467 510.033 35.3133 510.007 35.46H501.927V34.04H509.307L508.487 34.2C508.487 33.24 508.22 32.5 507.687 31.98C507.167 31.46 506.48 31.2 505.627 31.2C504.973 31.2 504.407 31.3533 503.927 31.66C503.46 31.9533 503.093 32.3867 502.827 32.96C502.573 33.52 502.447 34.2 502.447 35C502.447 35.7867 502.58 36.4667 502.847 37.04C503.113 37.6133 503.487 38.0533 503.967 38.36C504.46 38.6533 505.047 38.8 505.727 38.8C506.46 38.8 507.053 38.66 507.507 38.38C507.973 38.1 508.347 37.72 508.627 37.24L509.887 37.98C509.633 38.4333 509.307 38.8267 508.907 39.16C508.52 39.4933 508.06 39.7533 507.527 39.94C507.007 40.1133 506.42 40.2 505.767 40.2ZM14.4 56H16.18L12.7 66H11.1L8.28 58.04L5.62 66H4.02L0.54 56H2.32L4.84 64.14L7.56 56H9.16L11.88 64.14L14.4 56ZM22.4063 55.8C23.3529 55.8 24.1863 56.0067 24.9063 56.42C25.6396 56.8333 26.2129 57.4333 26.6263 58.22C27.0396 58.9933 27.2463 59.92 27.2463 61C27.2463 62.08 27.0396 63.0133 26.6263 63.8C26.2129 64.5733 25.6396 65.1667 24.9063 65.58C24.1863 65.9933 23.3529 66.2 22.4063 66.2C21.4729 66.2 20.6396 65.9933 19.9063 65.58C19.1729 65.1667 18.5996 64.5733 18.1863 63.8C17.7729 63.0133 17.5663 62.08 17.5663 61C17.5663 59.92 17.7729 58.9933 18.1863 58.22C18.5996 57.4333 19.1729 56.8333 19.9063 56.42C20.6396 56.0067 21.4729 55.8 22.4063 55.8ZM22.4063 57.18C21.7263 57.18 21.1463 57.3333 20.6663 57.64C20.1863 57.9467 19.8129 58.3867 19.5463 58.96C19.2929 59.52 19.1663 60.2 19.1663 61C19.1663 61.7867 19.2929 62.4667 19.5463 63.04C19.8129 63.6133 20.1863 64.0533 20.6663 64.36C21.1463 64.6667 21.7263 64.82 22.4063 64.82C23.0863 64.82 23.6663 64.6667 24.1463 64.36C24.6263 64.0533 24.9929 63.6133 25.2463 63.04C25.5129 62.4667 25.6463 61.7867 25.6463 61C25.6463 60.2 25.5129 59.52 25.2463 58.96C24.9929 58.3867 24.6263 57.9467 24.1463 57.64C23.6663 57.3333 23.0863 57.18 22.4063 57.18ZM30.2584 66V56H31.6584L31.7584 57.56C32.1184 56.9467 32.5851 56.5 33.1584 56.22C33.7451 55.94 34.3451 55.8 34.9584 55.8C35.6651 55.8 36.3318 55.96 36.9584 56.28C37.5851 56.6 38.0651 57.0933 38.3984 57.76C38.6118 57.3067 38.9118 56.94 39.2984 56.66C39.6851 56.3667 40.1051 56.1533 40.5584 56.02C41.0251 55.8733 41.4651 55.8 41.8784 55.8C42.5184 55.8 43.1251 55.9333 43.6984 56.2C44.2851 56.4667 44.7651 56.88 45.1384 57.44C45.5118 58 45.6984 58.72 45.6984 59.6V66H44.0984V59.76C44.0984 58.8533 43.8718 58.2 43.4184 57.8C42.9651 57.4 42.4051 57.2 41.7384 57.2C41.2184 57.2 40.7318 57.3267 40.2784 57.58C39.8251 57.8333 39.4584 58.2067 39.1784 58.7C38.9118 59.1933 38.7784 59.8 38.7784 60.52V66H37.1784V59.76C37.1784 58.8533 36.9518 58.2 36.4984 57.8C36.0451 57.4 35.4851 57.2 34.8184 57.2C34.3784 57.2 33.9251 57.32 33.4584 57.56C33.0051 57.7867 32.6251 58.1533 32.3184 58.66C32.0118 59.1667 31.8584 59.8333 31.8584 60.66V66H30.2584ZM53.5009 66.2C52.5543 66.2 51.7076 65.9933 50.9609 65.58C50.2276 65.1667 49.6543 64.5733 49.2409 63.8C48.8276 63.0133 48.6209 62.08 48.6209 61C48.6209 59.92 48.8276 58.9933 49.2409 58.22C49.6543 57.4333 50.2209 56.8333 50.9409 56.42C51.6609 56.0067 52.4809 55.8 53.4009 55.8C54.3343 55.8 55.1276 56 55.7809 56.4C56.4476 56.8 56.9543 57.3467 57.3009 58.04C57.6476 58.72 57.8209 59.4867 57.8209 60.34C57.8209 60.5667 57.8143 60.7733 57.8009 60.96C57.7876 61.1467 57.7676 61.3133 57.7409 61.46H49.6609V60.04H57.0409L56.2209 60.2C56.2209 59.24 55.9543 58.5 55.4209 57.98C54.9009 57.46 54.2143 57.2 53.3609 57.2C52.7076 57.2 52.1409 57.3533 51.6609 57.66C51.1943 57.9533 50.8276 58.3867 50.5609 58.96C50.3076 59.52 50.1809 60.2 50.1809 61C50.1809 61.7867 50.3143 62.4667 50.5809 63.04C50.8476 63.6133 51.2209 64.0533 51.7009 64.36C52.1943 64.6533 52.7809 64.8 53.4609 64.8C54.1943 64.8 54.7876 64.66 55.2409 64.38C55.7076 64.1 56.0809 63.72 56.3609 63.24L57.6209 63.98C57.3676 64.4333 57.0409 64.8267 56.6409 65.16C56.2543 65.4933 55.7943 65.7533 55.2609 65.94C54.7409 66.1133 54.1543 66.2 53.5009 66.2ZM60.8639 66V56H62.2639L62.4039 58.24L62.1439 58.02C62.3572 57.4867 62.6439 57.06 63.0039 56.74C63.3639 56.4067 63.7772 56.1667 64.2439 56.02C64.7239 55.8733 65.2172 55.8 65.7239 55.8C66.4439 55.8 67.0972 55.94 67.6839 56.22C68.2706 56.4867 68.7372 56.9 69.0839 57.46C69.4439 58.02 69.6239 58.7333 69.6239 59.6V66H68.0239V60.16C68.0239 59.0533 67.7839 58.2867 67.3039 57.86C66.8372 57.42 66.2572 57.2 65.5639 57.2C65.0839 57.2 64.6039 57.3133 64.1239 57.54C63.6439 57.7667 63.2439 58.1333 62.9239 58.64C62.6172 59.1467 62.4639 59.8267 62.4639 60.68V66H60.8639ZM74.0467 63.6C74.3667 63.6 74.6334 63.6867 74.8467 63.86C75.0734 64.02 75.2467 64.2467 75.3667 64.54C75.4867 64.82 75.5467 65.1533 75.5467 65.54C75.5467 65.98 75.4667 66.4133 75.3067 66.84C75.1601 67.2667 74.9267 67.66 74.6067 68.02C74.2867 68.38 73.8734 68.68 73.3667 68.92L72.5267 68.14C72.8867 68.02 73.2001 67.8533 73.4667 67.64C73.7467 67.4267 73.9734 67.1867 74.1467 66.92C74.3201 66.6533 74.4334 66.38 74.4867 66.1L74.4067 66.06C74.3534 66.1 74.2867 66.1333 74.2067 66.16C74.1267 66.1867 74.0067 66.2 73.8467 66.2C73.6867 66.2 73.5201 66.1533 73.3467 66.06C73.1867 65.9667 73.0467 65.8333 72.9267 65.66C72.8067 65.4733 72.7467 65.2333 72.7467 64.94C72.7467 64.7 72.8067 64.48 72.9267 64.28C73.0467 64.0667 73.2001 63.9 73.3867 63.78C73.5867 63.66 73.8067 63.6 74.0467 63.6ZM86.1756 54.08C85.8156 54.08 85.5223 53.9733 85.2956 53.76C85.0823 53.5333 84.9756 53.24 84.9756 52.88C84.9756 52.52 85.0823 52.2333 85.2956 52.02C85.5223 51.7933 85.8156 51.68 86.1756 51.68C86.5356 51.68 86.8223 51.7933 87.0356 52.02C87.2623 52.2333 87.3756 52.52 87.3756 52.88C87.3756 53.24 87.2623 53.5333 87.0356 53.76C86.8223 53.9733 86.5356 54.08 86.1756 54.08ZM86.9756 56V66H85.3756V56H86.9756ZM90.6881 66V56H92.0881L92.2281 58.24L91.9681 58.02C92.1815 57.4867 92.4681 57.06 92.8281 56.74C93.1881 56.4067 93.6015 56.1667 94.0681 56.02C94.5481 55.8733 95.0415 55.8 95.5481 55.8C96.2681 55.8 96.9215 55.94 97.5081 56.22C98.0948 56.4867 98.5615 56.9 98.9081 57.46C99.2681 58.02 99.4481 58.7333 99.4481 59.6V66H97.8481V60.16C97.8481 59.0533 97.6081 58.2867 97.1281 57.86C96.6615 57.42 96.0815 57.2 95.3881 57.2C94.9081 57.2 94.4281 57.3133 93.9481 57.54C93.4681 57.7667 93.0681 58.1333 92.7481 58.64C92.4415 59.1467 92.2881 59.8267 92.2881 60.68V66H90.6881ZM115.727 59.54C115.727 58.7933 115.527 58.22 115.127 57.82C114.727 57.4067 114.161 57.2 113.427 57.2C112.734 57.2 112.147 57.3533 111.667 57.66C111.187 57.9533 110.834 58.4333 110.607 59.1L109.307 58.3C109.574 57.5533 110.067 56.9533 110.787 56.5C111.507 56.0333 112.401 55.8 113.467 55.8C114.187 55.8 114.841 55.9267 115.427 56.18C116.014 56.42 116.474 56.7933 116.807 57.3C117.154 57.7933 117.327 58.4333 117.327 59.22V64.06C117.327 64.54 117.581 64.78 118.087 64.78C118.341 64.78 118.587 64.7467 118.827 64.68L118.747 65.94C118.481 66.0733 118.134 66.14 117.707 66.14C117.321 66.14 116.974 66.0667 116.667 65.92C116.361 65.7733 116.121 65.5533 115.947 65.26C115.774 64.9533 115.687 64.5733 115.687 64.12V63.92L116.087 63.98C115.927 64.5 115.654 64.9267 115.267 65.26C114.881 65.58 114.447 65.82 113.967 65.98C113.487 66.1267 113.014 66.2 112.547 66.2C111.961 66.2 111.414 66.1 110.907 65.9C110.401 65.7 109.994 65.4 109.687 65C109.394 64.5867 109.247 64.08 109.247 63.48C109.247 62.7333 109.494 62.12 109.987 61.64C110.494 61.1467 111.194 60.8133 112.087 60.64L116.047 59.86V61.18L112.827 61.84C112.174 61.9733 111.687 62.16 111.367 62.4C111.047 62.64 110.887 62.9733 110.887 63.4C110.887 63.8133 111.047 64.1533 111.367 64.42C111.701 64.6733 112.167 64.8 112.767 64.8C113.154 64.8 113.521 64.7533 113.867 64.66C114.227 64.5533 114.547 64.4 114.827 64.2C115.107 63.9867 115.327 63.7267 115.487 63.42C115.647 63.1 115.727 62.7267 115.727 62.3V59.54ZM131.703 55.8C132.396 55.8 133.003 55.9067 133.523 56.12C134.056 56.3333 134.516 56.64 134.903 57.04C135.29 57.44 135.603 57.9133 135.843 58.46L134.323 59.18C134.11 58.54 133.783 58.0533 133.343 57.72C132.916 57.3733 132.356 57.2 131.663 57.2C130.996 57.2 130.423 57.3533 129.943 57.66C129.463 57.9533 129.096 58.3867 128.843 58.96C128.59 59.52 128.463 60.2 128.463 61C128.463 61.7867 128.59 62.4667 128.843 63.04C129.096 63.6133 129.463 64.0533 129.943 64.36C130.423 64.6533 130.996 64.8 131.663 64.8C132.183 64.8 132.63 64.72 133.003 64.56C133.39 64.4 133.703 64.1667 133.943 63.86C134.196 63.5533 134.37 63.18 134.463 62.74L135.943 63.26C135.716 63.8733 135.403 64.4 135.003 64.84C134.616 65.28 134.143 65.62 133.583 65.86C133.036 66.0867 132.41 66.2 131.703 66.2C130.77 66.2 129.936 65.9933 129.203 65.58C128.47 65.1667 127.896 64.5733 127.483 63.8C127.07 63.0133 126.863 62.08 126.863 61C126.863 59.92 127.07 58.9933 127.483 58.22C127.896 57.4333 128.47 56.8333 129.203 56.42C129.936 56.0067 130.77 55.8 131.703 55.8ZM142.895 55.8C143.841 55.8 144.675 56.0067 145.395 56.42C146.128 56.8333 146.701 57.4333 147.115 58.22C147.528 58.9933 147.735 59.92 147.735 61C147.735 62.08 147.528 63.0133 147.115 63.8C146.701 64.5733 146.128 65.1667 145.395 65.58C144.675 65.9933 143.841 66.2 142.895 66.2C141.961 66.2 141.128 65.9933 140.395 65.58C139.661 65.1667 139.088 64.5733 138.675 63.8C138.261 63.0133 138.055 62.08 138.055 61C138.055 59.92 138.261 58.9933 138.675 58.22C139.088 57.4333 139.661 56.8333 140.395 56.42C141.128 56.0067 141.961 55.8 142.895 55.8ZM142.895 57.18C142.215 57.18 141.635 57.3333 141.155 57.64C140.675 57.9467 140.301 58.3867 140.035 58.96C139.781 59.52 139.655 60.2 139.655 61C139.655 61.7867 139.781 62.4667 140.035 63.04C140.301 63.6133 140.675 64.0533 141.155 64.36C141.635 64.6667 142.215 64.82 142.895 64.82C143.575 64.82 144.155 64.6667 144.635 64.36C145.115 64.0533 145.481 63.6133 145.735 63.04C146.001 62.4667 146.135 61.7867 146.135 61C146.135 60.2 146.001 59.52 145.735 58.96C145.481 58.3867 145.115 57.9467 144.635 57.64C144.155 57.3333 143.575 57.18 142.895 57.18ZM150.747 66V56H152.147L152.247 57.56C152.607 56.9467 153.073 56.5 153.647 56.22C154.233 55.94 154.833 55.8 155.447 55.8C156.153 55.8 156.82 55.96 157.447 56.28C158.073 56.6 158.553 57.0933 158.887 57.76C159.1 57.3067 159.4 56.94 159.787 56.66C160.173 56.3667 160.593 56.1533 161.047 56.02C161.513 55.8733 161.953 55.8 162.367 55.8C163.007 55.8 163.613 55.9333 164.187 56.2C164.773 56.4667 165.253 56.88 165.627 57.44C166 58 166.187 58.72 166.187 59.6V66H164.587V59.76C164.587 58.8533 164.36 58.2 163.907 57.8C163.453 57.4 162.893 57.2 162.227 57.2C161.707 57.2 161.22 57.3267 160.767 57.58C160.313 57.8333 159.947 58.2067 159.667 58.7C159.4 59.1933 159.267 59.8 159.267 60.52V66H157.667V59.76C157.667 58.8533 157.44 58.2 156.987 57.8C156.533 57.4 155.973 57.2 155.307 57.2C154.867 57.2 154.413 57.32 153.947 57.56C153.493 57.7867 153.113 58.1533 152.807 58.66C152.5 59.1667 152.347 59.8333 152.347 60.66V66H150.747ZM169.809 70.2V56H171.209L171.349 58.44L171.129 58.16C171.303 57.6933 171.563 57.2867 171.909 56.94C172.256 56.58 172.676 56.3 173.169 56.1C173.663 55.9 174.196 55.8 174.769 55.8C175.583 55.8 176.329 56.0067 177.009 56.42C177.703 56.8333 178.256 57.4267 178.669 58.2C179.083 58.9733 179.289 59.9067 179.289 61C179.289 62.08 179.076 63.0133 178.649 63.8C178.236 64.5733 177.683 65.1667 176.989 65.58C176.296 65.9933 175.536 66.2 174.709 66.2C173.883 66.2 173.156 66 172.529 65.6C171.916 65.1867 171.476 64.6667 171.209 64.04L171.409 63.74V70.2H169.809ZM174.549 64.8C175.536 64.8 176.303 64.4533 176.849 63.76C177.409 63.0667 177.689 62.1467 177.689 61C177.689 59.8533 177.416 58.9333 176.869 58.24C176.336 57.5467 175.583 57.2 174.609 57.2C173.969 57.2 173.409 57.36 172.929 57.68C172.449 57.9867 172.076 58.4267 171.809 59C171.543 59.56 171.409 60.2267 171.409 61C171.409 61.76 171.536 62.4267 171.789 63C172.056 63.5733 172.423 64.02 172.889 64.34C173.369 64.6467 173.923 64.8 174.549 64.8ZM186.488 55.8C187.435 55.8 188.268 56.0067 188.988 56.42C189.722 56.8333 190.295 57.4333 190.708 58.22C191.122 58.9933 191.328 59.92 191.328 61C191.328 62.08 191.122 63.0133 190.708 63.8C190.295 64.5733 189.722 65.1667 188.988 65.58C188.268 65.9933 187.435 66.2 186.488 66.2C185.555 66.2 184.722 65.9933 183.988 65.58C183.255 65.1667 182.682 64.5733 182.268 63.8C181.855 63.0133 181.648 62.08 181.648 61C181.648 59.92 181.855 58.9933 182.268 58.22C182.682 57.4333 183.255 56.8333 183.988 56.42C184.722 56.0067 185.555 55.8 186.488 55.8ZM186.488 57.18C185.808 57.18 185.228 57.3333 184.748 57.64C184.268 57.9467 183.895 58.3867 183.628 58.96C183.375 59.52 183.248 60.2 183.248 61C183.248 61.7867 183.375 62.4667 183.628 63.04C183.895 63.6133 184.268 64.0533 184.748 64.36C185.228 64.6667 185.808 64.82 186.488 64.82C187.168 64.82 187.748 64.6667 188.228 64.36C188.708 64.0533 189.075 63.6133 189.328 63.04C189.595 62.4667 189.728 61.7867 189.728 61C189.728 60.2 189.595 59.52 189.328 58.96C189.075 58.3867 188.708 57.9467 188.228 57.64C187.748 57.3333 187.168 57.18 186.488 57.18ZM197.94 66.2C196.967 66.2 196.067 65.9933 195.24 65.58C194.427 65.1667 193.8 64.58 193.36 63.82L194.72 62.84C195.014 63.4533 195.44 63.9333 196 64.28C196.574 64.6267 197.26 64.8 198.06 64.8C198.767 64.8 199.32 64.6667 199.72 64.4C200.12 64.12 200.32 63.76 200.32 63.32C200.32 63.04 200.227 62.7867 200.04 62.56C199.867 62.32 199.527 62.1467 199.02 62.04L196.62 61.54C195.647 61.34 194.947 61.0067 194.52 60.54C194.107 60.0733 193.9 59.4933 193.9 58.8C193.9 58.2533 194.054 57.7533 194.36 57.3C194.68 56.8467 195.127 56.4867 195.7 56.22C196.287 55.94 196.974 55.8 197.76 55.8C198.747 55.8 199.58 55.9933 200.26 56.38C200.94 56.7667 201.447 57.3133 201.78 58.02L200.44 58.9C200.214 58.3133 199.847 57.8867 199.34 57.62C198.834 57.34 198.307 57.2 197.76 57.2C197.28 57.2 196.867 57.2667 196.52 57.4C196.187 57.5333 195.927 57.72 195.74 57.96C195.567 58.1867 195.48 58.4467 195.48 58.74C195.48 59.0333 195.58 59.3067 195.78 59.56C195.98 59.8 196.354 59.9733 196.9 60.08L199.4 60.6C200.334 60.7867 200.987 61.0933 201.36 61.52C201.734 61.9467 201.92 62.4667 201.92 63.08C201.92 63.7067 201.754 64.26 201.42 64.74C201.087 65.2067 200.62 65.5667 200.02 65.82C199.42 66.0733 198.727 66.2 197.94 66.2ZM205.687 54.08C205.327 54.08 205.034 53.9733 204.807 53.76C204.594 53.5333 204.487 53.24 204.487 52.88C204.487 52.52 204.594 52.2333 204.807 52.02C205.034 51.7933 205.327 51.68 205.687 51.68C206.047 51.68 206.334 51.7933 206.547 52.02C206.774 52.2333 206.887 52.52 206.887 52.88C206.887 53.24 206.774 53.5333 206.547 53.76C206.334 53.9733 206.047 54.08 205.687 54.08ZM206.487 56V66H204.887V56H206.487ZM212.56 53.16V63.24C212.56 63.7333 212.7 64.1 212.98 64.34C213.26 64.58 213.62 64.7 214.06 64.7C214.447 64.7 214.78 64.6333 215.06 64.5C215.34 64.3667 215.593 64.1867 215.82 63.96L216.38 65.3C216.073 65.58 215.707 65.8 215.28 65.96C214.867 66.12 214.387 66.2 213.84 66.2C213.333 66.2 212.86 66.1133 212.42 65.94C211.98 65.7533 211.627 65.4667 211.36 65.08C211.107 64.68 210.973 64.16 210.96 63.52V53.6L212.56 53.16ZM216.2 56V57.38H208.96V56H216.2ZM219.379 54.08C219.019 54.08 218.725 53.9733 218.499 53.76C218.285 53.5333 218.179 53.24 218.179 52.88C218.179 52.52 218.285 52.2333 218.499 52.02C218.725 51.7933 219.019 51.68 219.379 51.68C219.739 51.68 220.025 51.7933 220.239 52.02C220.465 52.2333 220.579 52.52 220.579 52.88C220.579 53.24 220.465 53.5333 220.239 53.76C220.025 53.9733 219.739 54.08 219.379 54.08ZM220.179 56V66H218.579V56H220.179ZM228.031 55.8C228.978 55.8 229.811 56.0067 230.531 56.42C231.265 56.8333 231.838 57.4333 232.251 58.22C232.665 58.9933 232.871 59.92 232.871 61C232.871 62.08 232.665 63.0133 232.251 63.8C231.838 64.5733 231.265 65.1667 230.531 65.58C229.811 65.9933 228.978 66.2 228.031 66.2C227.098 66.2 226.265 65.9933 225.531 65.58C224.798 65.1667 224.225 64.5733 223.811 63.8C223.398 63.0133 223.191 62.08 223.191 61C223.191 59.92 223.398 58.9933 223.811 58.22C224.225 57.4333 224.798 56.8333 225.531 56.42C226.265 56.0067 227.098 55.8 228.031 55.8ZM228.031 57.18C227.351 57.18 226.771 57.3333 226.291 57.64C225.811 57.9467 225.438 58.3867 225.171 58.96C224.918 59.52 224.791 60.2 224.791 61C224.791 61.7867 224.918 62.4667 225.171 63.04C225.438 63.6133 225.811 64.0533 226.291 64.36C226.771 64.6667 227.351 64.82 228.031 64.82C228.711 64.82 229.291 64.6667 229.771 64.36C230.251 64.0533 230.618 63.6133 230.871 63.04C231.138 62.4667 231.271 61.7867 231.271 61C231.271 60.2 231.138 59.52 230.871 58.96C230.618 58.3867 230.251 57.9467 229.771 57.64C229.291 57.3333 228.711 57.18 228.031 57.18ZM235.883 66V56H237.283L237.423 58.24L237.163 58.02C237.377 57.4867 237.663 57.06 238.023 56.74C238.383 56.4067 238.797 56.1667 239.263 56.02C239.743 55.8733 240.237 55.8 240.743 55.8C241.463 55.8 242.117 55.94 242.703 56.22C243.29 56.4867 243.757 56.9 244.103 57.46C244.463 58.02 244.643 58.7333 244.643 59.6V66H243.043V60.16C243.043 59.0533 242.803 58.2867 242.323 57.86C241.857 57.42 241.277 57.2 240.583 57.2C240.103 57.2 239.623 57.3133 239.143 57.54C238.663 57.7667 238.263 58.1333 237.943 58.64C237.637 59.1467 237.483 59.8267 237.483 60.68V66H235.883ZM259.983 66.2C259.423 66.2 258.903 66.1 258.423 65.9C257.943 65.7 257.529 65.42 257.183 65.06C256.836 64.7 256.576 64.2933 256.403 63.84L256.623 63.56L256.483 66H255.083V51.4H256.683V58.26L256.483 57.96C256.749 57.3333 257.196 56.82 257.823 56.42C258.463 56.0067 259.189 55.8 260.003 55.8C260.829 55.8 261.589 56.0067 262.283 56.42C262.976 56.8333 263.529 57.4267 263.943 58.2C264.356 58.9733 264.563 59.9067 264.563 61C264.563 62.08 264.349 63.0133 263.923 63.8C263.509 64.5733 262.956 65.1667 262.263 65.58C261.569 65.9933 260.809 66.2 259.983 66.2ZM259.823 64.8C260.809 64.8 261.576 64.4533 262.123 63.76C262.683 63.0667 262.963 62.1467 262.963 61C262.963 59.8533 262.689 58.9333 262.143 58.24C261.596 57.5467 260.829 57.2 259.843 57.2C259.216 57.2 258.663 57.36 258.183 57.68C257.716 58 257.349 58.4467 257.083 59.02C256.816 59.5933 256.683 60.2667 256.683 61.04C256.683 61.8 256.809 62.4667 257.063 63.04C257.329 63.6 257.696 64.0333 258.163 64.34C258.643 64.6467 259.196 64.8 259.823 64.8ZM273.462 59.54C273.462 58.7933 273.262 58.22 272.862 57.82C272.462 57.4067 271.895 57.2 271.162 57.2C270.468 57.2 269.882 57.3533 269.402 57.66C268.922 57.9533 268.568 58.4333 268.342 59.1L267.042 58.3C267.308 57.5533 267.802 56.9533 268.522 56.5C269.242 56.0333 270.135 55.8 271.202 55.8C271.922 55.8 272.575 55.9267 273.162 56.18C273.748 56.42 274.208 56.7933 274.542 57.3C274.888 57.7933 275.062 58.4333 275.062 59.22V64.06C275.062 64.54 275.315 64.78 275.822 64.78C276.075 64.78 276.322 64.7467 276.562 64.68L276.482 65.94C276.215 66.0733 275.868 66.14 275.442 66.14C275.055 66.14 274.708 66.0667 274.402 65.92C274.095 65.7733 273.855 65.5533 273.682 65.26C273.508 64.9533 273.422 64.5733 273.422 64.12V63.92L273.822 63.98C273.662 64.5 273.388 64.9267 273.002 65.26C272.615 65.58 272.182 65.82 271.702 65.98C271.222 66.1267 270.748 66.2 270.282 66.2C269.695 66.2 269.148 66.1 268.642 65.9C268.135 65.7 267.728 65.4 267.422 65C267.128 64.5867 266.982 64.08 266.982 63.48C266.982 62.7333 267.228 62.12 267.722 61.64C268.228 61.1467 268.928 60.8133 269.822 60.64L273.782 59.86V61.18L270.562 61.84C269.908 61.9733 269.422 62.16 269.102 62.4C268.782 62.64 268.622 62.9733 268.622 63.4C268.622 63.8133 268.782 64.1533 269.102 64.42C269.435 64.6733 269.902 64.8 270.502 64.8C270.888 64.8 271.255 64.7533 271.602 64.66C271.962 64.5533 272.282 64.4 272.562 64.2C272.842 63.9867 273.062 63.7267 273.222 63.42C273.382 63.1 273.462 62.7267 273.462 62.3V59.54ZM282.55 66.2C281.577 66.2 280.677 65.9933 279.85 65.58C279.037 65.1667 278.41 64.58 277.97 63.82L279.33 62.84C279.623 63.4533 280.05 63.9333 280.61 64.28C281.183 64.6267 281.87 64.8 282.67 64.8C283.377 64.8 283.93 64.6667 284.33 64.4C284.73 64.12 284.93 63.76 284.93 63.32C284.93 63.04 284.837 62.7867 284.65 62.56C284.477 62.32 284.137 62.1467 283.63 62.04L281.23 61.54C280.257 61.34 279.557 61.0067 279.13 60.54C278.717 60.0733 278.51 59.4933 278.51 58.8C278.51 58.2533 278.663 57.7533 278.97 57.3C279.29 56.8467 279.737 56.4867 280.31 56.22C280.897 55.94 281.583 55.8 282.37 55.8C283.357 55.8 284.19 55.9933 284.87 56.38C285.55 56.7667 286.057 57.3133 286.39 58.02L285.05 58.9C284.823 58.3133 284.457 57.8867 283.95 57.62C283.443 57.34 282.917 57.2 282.37 57.2C281.89 57.2 281.477 57.2667 281.13 57.4C280.797 57.5333 280.537 57.72 280.35 57.96C280.177 58.1867 280.09 58.4467 280.09 58.74C280.09 59.0333 280.19 59.3067 280.39 59.56C280.59 59.8 280.963 59.9733 281.51 60.08L284.01 60.6C284.943 60.7867 285.597 61.0933 285.97 61.52C286.343 61.9467 286.53 62.4667 286.53 63.08C286.53 63.7067 286.363 64.26 286.03 64.74C285.697 65.2067 285.23 65.5667 284.63 65.82C284.03 66.0733 283.337 66.2 282.55 66.2ZM293.677 66.2C292.73 66.2 291.883 65.9933 291.137 65.58C290.403 65.1667 289.83 64.5733 289.417 63.8C289.003 63.0133 288.797 62.08 288.797 61C288.797 59.92 289.003 58.9933 289.417 58.22C289.83 57.4333 290.397 56.8333 291.117 56.42C291.837 56.0067 292.657 55.8 293.577 55.8C294.51 55.8 295.303 56 295.957 56.4C296.623 56.8 297.13 57.3467 297.477 58.04C297.823 58.72 297.997 59.4867 297.997 60.34C297.997 60.5667 297.99 60.7733 297.977 60.96C297.963 61.1467 297.943 61.3133 297.917 61.46H289.837V60.04H297.217L296.397 60.2C296.397 59.24 296.13 58.5 295.597 57.98C295.077 57.46 294.39 57.2 293.537 57.2C292.883 57.2 292.317 57.3533 291.837 57.66C291.37 57.9533 291.003 58.3867 290.737 58.96C290.483 59.52 290.357 60.2 290.357 61C290.357 61.7867 290.49 62.4667 290.757 63.04C291.023 63.6133 291.397 64.0533 291.877 64.36C292.37 64.6533 292.957 64.8 293.637 64.8C294.37 64.8 294.963 64.66 295.417 64.38C295.883 64.1 296.257 63.72 296.537 63.24L297.797 63.98C297.543 64.4333 297.217 64.8267 296.817 65.16C296.43 65.4933 295.97 65.7533 295.437 65.94C294.917 66.1133 294.33 66.2 293.677 66.2ZM304.94 66.2C304.113 66.2 303.353 65.9933 302.66 65.58C301.966 65.1667 301.413 64.5733 301 63.8C300.586 63.0133 300.38 62.08 300.38 61C300.38 59.8933 300.6 58.9533 301.04 58.18C301.48 57.4067 302.06 56.82 302.78 56.42C303.5 56.0067 304.273 55.8 305.1 55.8C305.926 55.8 306.64 56.0133 307.24 56.44C307.853 56.8667 308.26 57.4333 308.46 58.14L308.26 58.28V51.4H309.86V66H308.46L308.32 63.58L308.54 63.46C308.446 64.0467 308.22 64.5467 307.86 64.96C307.513 65.36 307.08 65.6667 306.56 65.88C306.053 66.0933 305.513 66.2 304.94 66.2ZM305.1 64.8C305.74 64.8 306.293 64.64 306.76 64.32C307.24 64 307.606 63.5467 307.86 62.96C308.126 62.36 308.26 61.66 308.26 60.86C308.26 60.1 308.126 59.4467 307.86 58.9C307.606 58.3533 307.246 57.9333 306.78 57.64C306.326 57.3467 305.793 57.2 305.18 57.2C304.166 57.2 303.38 57.5467 302.82 58.24C302.26 58.9333 301.98 59.8533 301.98 61C301.98 62.1467 302.253 63.0667 302.8 63.76C303.346 64.4533 304.113 64.8 305.1 64.8ZM324.535 55.8C325.482 55.8 326.315 56.0067 327.035 56.42C327.768 56.8333 328.342 57.4333 328.755 58.22C329.168 58.9933 329.375 59.92 329.375 61C329.375 62.08 329.168 63.0133 328.755 63.8C328.342 64.5733 327.768 65.1667 327.035 65.58C326.315 65.9933 325.482 66.2 324.535 66.2C323.602 66.2 322.768 65.9933 322.035 65.58C321.302 65.1667 320.728 64.5733 320.315 63.8C319.902 63.0133 319.695 62.08 319.695 61C319.695 59.92 319.902 58.9933 320.315 58.22C320.728 57.4333 321.302 56.8333 322.035 56.42C322.768 56.0067 323.602 55.8 324.535 55.8ZM324.535 57.18C323.855 57.18 323.275 57.3333 322.795 57.64C322.315 57.9467 321.942 58.3867 321.675 58.96C321.422 59.52 321.295 60.2 321.295 61C321.295 61.7867 321.422 62.4667 321.675 63.04C321.942 63.6133 322.315 64.0533 322.795 64.36C323.275 64.6667 323.855 64.82 324.535 64.82C325.215 64.82 325.795 64.6667 326.275 64.36C326.755 64.0533 327.122 63.6133 327.375 63.04C327.642 62.4667 327.775 61.7867 327.775 61C327.775 60.2 327.642 59.52 327.375 58.96C327.122 58.3867 326.755 57.9467 326.275 57.64C325.795 57.3333 325.215 57.18 324.535 57.18ZM332.387 66V56H333.787L333.927 58.24L333.667 58.02C333.881 57.4867 334.167 57.06 334.527 56.74C334.887 56.4067 335.301 56.1667 335.767 56.02C336.247 55.8733 336.741 55.8 337.247 55.8C337.967 55.8 338.621 55.94 339.207 56.22C339.794 56.4867 340.261 56.9 340.607 57.46C340.967 58.02 341.147 58.7333 341.147 59.6V66H339.547V60.16C339.547 59.0533 339.307 58.2867 338.827 57.86C338.361 57.42 337.781 57.2 337.087 57.2C336.607 57.2 336.127 57.3133 335.647 57.54C335.167 57.7667 334.767 58.1333 334.447 58.64C334.141 59.1467 333.987 59.8267 333.987 60.68V66H332.387ZM356.127 52.6C357.287 52.6 358.287 52.84 359.127 53.32C359.967 53.7867 360.667 54.48 361.227 55.4L359.887 56.44C359.393 55.5867 358.833 54.9867 358.207 54.64C357.593 54.28 356.847 54.1 355.967 54.1C355.26 54.1 354.673 54.2 354.207 54.4C353.753 54.6 353.42 54.8667 353.207 55.2C352.993 55.52 352.887 55.8867 352.887 56.3C352.887 56.7667 353.033 57.18 353.327 57.54C353.62 57.8867 354.207 58.16 355.087 58.36L357.947 59C359.213 59.28 360.093 59.7067 360.587 60.28C361.093 60.84 361.347 61.54 361.347 62.38C361.347 63.1267 361.133 63.7933 360.707 64.38C360.293 64.9533 359.707 65.4 358.947 65.72C358.187 66.04 357.293 66.2 356.267 66.2C355.307 66.2 354.46 66.0733 353.727 65.82C353.007 65.5533 352.387 65.2 351.867 64.76C351.347 64.32 350.92 63.8267 350.587 63.28L351.987 62.14C352.24 62.6467 352.567 63.0933 352.967 63.48C353.367 63.8667 353.847 64.1667 354.407 64.38C354.98 64.5933 355.633 64.7 356.367 64.7C357.047 64.7 357.633 64.62 358.127 64.46C358.633 64.2867 359.02 64.04 359.287 63.72C359.553 63.3867 359.687 62.9867 359.687 62.52C359.687 62.0933 359.547 61.7133 359.267 61.38C358.987 61.0333 358.46 60.7733 357.687 60.6L354.587 59.9C353.773 59.7133 353.113 59.46 352.607 59.14C352.113 58.8067 351.753 58.42 351.527 57.98C351.313 57.5267 351.207 57.04 351.207 56.52C351.207 55.8133 351.4 55.1667 351.787 54.58C352.187 53.98 352.753 53.5 353.487 53.14C354.233 52.78 355.113 52.6 356.127 52.6ZM370.044 59.54C370.044 58.7933 369.844 58.22 369.444 57.82C369.044 57.4067 368.477 57.2 367.744 57.2C367.05 57.2 366.464 57.3533 365.984 57.66C365.504 57.9533 365.15 58.4333 364.924 59.1L363.624 58.3C363.89 57.5533 364.384 56.9533 365.104 56.5C365.824 56.0333 366.717 55.8 367.784 55.8C368.504 55.8 369.157 55.9267 369.744 56.18C370.33 56.42 370.79 56.7933 371.124 57.3C371.47 57.7933 371.644 58.4333 371.644 59.22V64.06C371.644 64.54 371.897 64.78 372.404 64.78C372.657 64.78 372.904 64.7467 373.144 64.68L373.064 65.94C372.797 66.0733 372.45 66.14 372.024 66.14C371.637 66.14 371.29 66.0667 370.984 65.92C370.677 65.7733 370.437 65.5533 370.264 65.26C370.09 64.9533 370.004 64.5733 370.004 64.12V63.92L370.404 63.98C370.244 64.5 369.97 64.9267 369.584 65.26C369.197 65.58 368.764 65.82 368.284 65.98C367.804 66.1267 367.33 66.2 366.864 66.2C366.277 66.2 365.73 66.1 365.224 65.9C364.717 65.7 364.31 65.4 364.004 65C363.71 64.5867 363.564 64.08 363.564 63.48C363.564 62.7333 363.81 62.12 364.304 61.64C364.81 61.1467 365.51 60.8133 366.404 60.64L370.364 59.86V61.18L367.144 61.84C366.49 61.9733 366.004 62.16 365.684 62.4C365.364 62.64 365.204 62.9733 365.204 63.4C365.204 63.8133 365.364 64.1533 365.684 64.42C366.017 64.6733 366.484 64.8 367.084 64.8C367.47 64.8 367.837 64.7533 368.184 64.66C368.544 64.5533 368.864 64.4 369.144 64.2C369.424 63.9867 369.644 63.7267 369.804 63.42C369.964 63.1 370.044 62.7267 370.044 62.3V59.54ZM377.052 51.4V63.46C377.052 63.9667 377.145 64.32 377.332 64.52C377.519 64.7067 377.819 64.8 378.232 64.8C378.499 64.8 378.719 64.78 378.892 64.74C379.065 64.7 379.299 64.6267 379.592 64.52L379.332 65.92C379.119 66.0133 378.885 66.08 378.632 66.12C378.379 66.1733 378.119 66.2 377.852 66.2C377.039 66.2 376.432 65.98 376.032 65.54C375.645 65.1 375.452 64.4267 375.452 63.52V51.4H377.052ZM387.875 56H389.555L385.395 66H383.795L379.635 56H381.455L384.615 64.38L387.875 56ZM397.231 59.54C397.231 58.7933 397.031 58.22 396.631 57.82C396.231 57.4067 395.665 57.2 394.931 57.2C394.238 57.2 393.651 57.3533 393.171 57.66C392.691 57.9533 392.338 58.4333 392.111 59.1L390.811 58.3C391.078 57.5533 391.571 56.9533 392.291 56.5C393.011 56.0333 393.905 55.8 394.971 55.8C395.691 55.8 396.345 55.9267 396.931 56.18C397.518 56.42 397.978 56.7933 398.311 57.3C398.658 57.7933 398.831 58.4333 398.831 59.22V64.06C398.831 64.54 399.085 64.78 399.591 64.78C399.845 64.78 400.091 64.7467 400.331 64.68L400.251 65.94C399.985 66.0733 399.638 66.14 399.211 66.14C398.825 66.14 398.478 66.0667 398.171 65.92C397.865 65.7733 397.625 65.5533 397.451 65.26C397.278 64.9533 397.191 64.5733 397.191 64.12V63.92L397.591 63.98C397.431 64.5 397.158 64.9267 396.771 65.26C396.385 65.58 395.951 65.82 395.471 65.98C394.991 66.1267 394.518 66.2 394.051 66.2C393.465 66.2 392.918 66.1 392.411 65.9C391.905 65.7 391.498 65.4 391.191 65C390.898 64.5867 390.751 64.08 390.751 63.48C390.751 62.7333 390.998 62.12 391.491 61.64C391.998 61.1467 392.698 60.8133 393.591 60.64L397.551 59.86V61.18L394.331 61.84C393.678 61.9733 393.191 62.16 392.871 62.4C392.551 62.64 392.391 62.9733 392.391 63.4C392.391 63.8133 392.551 64.1533 392.871 64.42C393.205 64.6733 393.671 64.8 394.271 64.8C394.658 64.8 395.025 64.7533 395.371 64.66C395.731 64.5533 396.051 64.4 396.331 64.2C396.611 63.9867 396.831 63.7267 396.991 63.42C397.151 63.1 397.231 62.7267 397.231 62.3V59.54ZM406.619 66.2C405.793 66.2 405.033 65.9933 404.339 65.58C403.646 65.1667 403.093 64.5733 402.679 63.8C402.266 63.0133 402.059 62.08 402.059 61C402.059 59.8933 402.279 58.9533 402.719 58.18C403.159 57.4067 403.739 56.82 404.459 56.42C405.179 56.0067 405.953 55.8 406.779 55.8C407.606 55.8 408.319 56.0133 408.919 56.44C409.533 56.8667 409.939 57.4333 410.139 58.14L409.939 58.28V51.4H411.539V66H410.139L409.999 63.58L410.219 63.46C410.126 64.0467 409.899 64.5467 409.539 64.96C409.193 65.36 408.759 65.6667 408.239 65.88C407.733 66.0933 407.193 66.2 406.619 66.2ZM406.779 64.8C407.419 64.8 407.973 64.64 408.439 64.32C408.919 64 409.286 63.5467 409.539 62.96C409.806 62.36 409.939 61.66 409.939 60.86C409.939 60.1 409.806 59.4467 409.539 58.9C409.286 58.3533 408.926 57.9333 408.459 57.64C408.006 57.3467 407.473 57.2 406.859 57.2C405.846 57.2 405.059 57.5467 404.499 58.24C403.939 58.9333 403.659 59.8533 403.659 61C403.659 62.1467 403.933 63.0667 404.479 63.76C405.026 64.4533 405.793 64.8 406.779 64.8ZM419.398 55.8C420.345 55.8 421.178 56.0067 421.898 56.42C422.632 56.8333 423.205 57.4333 423.618 58.22C424.032 58.9933 424.238 59.92 424.238 61C424.238 62.08 424.032 63.0133 423.618 63.8C423.205 64.5733 422.632 65.1667 421.898 65.58C421.178 65.9933 420.345 66.2 419.398 66.2C418.465 66.2 417.632 65.9933 416.898 65.58C416.165 65.1667 415.592 64.5733 415.178 63.8C414.765 63.0133 414.558 62.08 414.558 61C414.558 59.92 414.765 58.9933 415.178 58.22C415.592 57.4333 416.165 56.8333 416.898 56.42C417.632 56.0067 418.465 55.8 419.398 55.8ZM419.398 57.18C418.718 57.18 418.138 57.3333 417.658 57.64C417.178 57.9467 416.805 58.3867 416.538 58.96C416.285 59.52 416.158 60.2 416.158 61C416.158 61.7867 416.285 62.4667 416.538 63.04C416.805 63.6133 417.178 64.0533 417.658 64.36C418.138 64.6667 418.718 64.82 419.398 64.82C420.078 64.82 420.658 64.6667 421.138 64.36C421.618 64.0533 421.985 63.6133 422.238 63.04C422.505 62.4667 422.638 61.7867 422.638 61C422.638 60.2 422.505 59.52 422.238 58.96C421.985 58.3867 421.618 57.9467 421.138 57.64C420.658 57.3333 420.078 57.18 419.398 57.18ZM427.251 66V56H428.551L428.771 57.64C429.051 57.0267 429.457 56.5667 429.991 56.26C430.537 55.9533 431.197 55.8 431.971 55.8C432.144 55.8 432.331 55.8133 432.531 55.84C432.744 55.8667 432.924 55.92 433.071 56L432.791 57.46C432.644 57.4067 432.484 57.3667 432.311 57.34C432.137 57.3133 431.891 57.3 431.571 57.3C431.157 57.3 430.737 57.42 430.311 57.66C429.897 57.9 429.551 58.2667 429.271 58.76C428.991 59.24 428.851 59.8533 428.851 60.6V66H427.251ZM446.322 52.8C448.389 52.8 450.009 53.3733 451.182 54.52C452.369 55.6533 452.962 57.28 452.962 59.4C452.962 61.52 452.369 63.1533 451.182 64.3C450.009 65.4333 448.389 66 446.322 66H442.062V52.8H446.322ZM446.482 64.5C447.989 64.5 449.162 64.0533 450.002 63.16C450.856 62.2533 451.282 61 451.282 59.4C451.282 57.8 450.856 56.5533 450.002 55.66C449.162 54.7533 447.989 54.3 446.482 54.3H443.662V64.5H446.482ZM462.016 59.54C462.016 58.7933 461.816 58.22 461.416 57.82C461.016 57.4067 460.45 57.2 459.716 57.2C459.023 57.2 458.436 57.3533 457.956 57.66C457.476 57.9533 457.123 58.4333 456.896 59.1L455.596 58.3C455.863 57.5533 456.356 56.9533 457.076 56.5C457.796 56.0333 458.69 55.8 459.756 55.8C460.476 55.8 461.13 55.9267 461.716 56.18C462.303 56.42 462.763 56.7933 463.096 57.3C463.443 57.7933 463.616 58.4333 463.616 59.22V64.06C463.616 64.54 463.87 64.78 464.376 64.78C464.63 64.78 464.876 64.7467 465.116 64.68L465.036 65.94C464.77 66.0733 464.423 66.14 463.996 66.14C463.61 66.14 463.263 66.0667 462.956 65.92C462.65 65.7733 462.41 65.5533 462.236 65.26C462.063 64.9533 461.976 64.5733 461.976 64.12V63.92L462.376 63.98C462.216 64.5 461.943 64.9267 461.556 65.26C461.17 65.58 460.736 65.82 460.256 65.98C459.776 66.1267 459.303 66.2 458.836 66.2C458.25 66.2 457.703 66.1 457.196 65.9C456.69 65.7 456.283 65.4 455.976 65C455.683 64.5867 455.536 64.08 455.536 63.48C455.536 62.7333 455.783 62.12 456.276 61.64C456.783 61.1467 457.483 60.8133 458.376 60.64L462.336 59.86V61.18L459.116 61.84C458.463 61.9733 457.976 62.16 457.656 62.4C457.336 62.64 457.176 62.9733 457.176 63.4C457.176 63.8133 457.336 64.1533 457.656 64.42C457.99 64.6733 458.456 64.8 459.056 64.8C459.443 64.8 459.81 64.7533 460.156 64.66C460.516 64.5533 460.836 64.4 461.116 64.2C461.396 63.9867 461.616 63.7267 461.776 63.42C461.936 63.1 462.016 62.7267 462.016 62.3V59.54ZM469.025 51.4V63.46C469.025 63.9667 469.118 64.32 469.305 64.52C469.491 64.7067 469.791 64.8 470.205 64.8C470.471 64.8 470.691 64.78 470.865 64.74C471.038 64.7 471.271 64.6267 471.565 64.52L471.305 65.92C471.091 66.0133 470.858 66.08 470.605 66.12C470.351 66.1733 470.091 66.2 469.825 66.2C469.011 66.2 468.405 65.98 468.005 65.54C467.618 65.1 467.425 64.4267 467.425 63.52V51.4H469.025ZM475.218 56V66H473.618V56H475.218ZM474.958 51H476.698L474.738 54.34H473.438L474.958 51ZM479.69 52C480.01 52 480.277 52.0867 480.49 52.26C480.717 52.42 480.89 52.6467 481.01 52.94C481.13 53.22 481.19 53.5533 481.19 53.94C481.19 54.38 481.11 54.8133 480.95 55.24C480.804 55.6667 480.57 56.06 480.25 56.42C479.93 56.78 479.517 57.08 479.01 57.32L478.17 56.54C478.53 56.42 478.844 56.2533 479.11 56.04C479.39 55.8267 479.617 55.5867 479.79 55.32C479.964 55.0533 480.077 54.78 480.13 54.5L480.05 54.46C479.997 54.5 479.93 54.5333 479.85 54.56C479.77 54.5867 479.65 54.6 479.49 54.6C479.33 54.6 479.164 54.5533 478.99 54.46C478.83 54.3667 478.69 54.2333 478.57 54.06C478.45 53.8733 478.39 53.6333 478.39 53.34C478.39 53.1 478.45 52.88 478.57 52.68C478.69 52.4667 478.844 52.3 479.03 52.18C479.23 52.06 479.45 52 479.69 52ZM486.69 66.2C485.717 66.2 484.817 65.9933 483.99 65.58C483.177 65.1667 482.55 64.58 482.11 63.82L483.47 62.84C483.764 63.4533 484.19 63.9333 484.75 64.28C485.324 64.6267 486.01 64.8 486.81 64.8C487.517 64.8 488.07 64.6667 488.47 64.4C488.87 64.12 489.07 63.76 489.07 63.32C489.07 63.04 488.977 62.7867 488.79 62.56C488.617 62.32 488.277 62.1467 487.77 62.04L485.37 61.54C484.397 61.34 483.697 61.0067 483.27 60.54C482.857 60.0733 482.65 59.4933 482.65 58.8C482.65 58.2533 482.804 57.7533 483.11 57.3C483.43 56.8467 483.877 56.4867 484.45 56.22C485.037 55.94 485.724 55.8 486.51 55.8C487.497 55.8 488.33 55.9933 489.01 56.38C489.69 56.7667 490.197 57.3133 490.53 58.02L489.19 58.9C488.964 58.3133 488.597 57.8867 488.09 57.62C487.584 57.34 487.057 57.2 486.51 57.2C486.03 57.2 485.617 57.2667 485.27 57.4C484.937 57.5333 484.677 57.72 484.49 57.96C484.317 58.1867 484.23 58.4467 484.23 58.74C484.23 59.0333 484.33 59.3067 484.53 59.56C484.73 59.8 485.104 59.9733 485.65 60.08L488.15 60.6C489.084 60.7867 489.737 61.0933 490.11 61.52C490.484 61.9467 490.67 62.4667 490.67 63.08C490.67 63.7067 490.504 64.26 490.17 64.74C489.837 65.2067 489.37 65.5667 488.77 65.82C488.17 66.0733 487.477 66.2 486.69 66.2ZM506.294 59.54C506.294 58.7933 506.094 58.22 505.694 57.82C505.294 57.4067 504.727 57.2 503.994 57.2C503.3 57.2 502.714 57.3533 502.234 57.66C501.754 57.9533 501.4 58.4333 501.174 59.1L499.874 58.3C500.14 57.5533 500.634 56.9533 501.354 56.5C502.074 56.0333 502.967 55.8 504.034 55.8C504.754 55.8 505.407 55.9267 505.994 56.18C506.58 56.42 507.04 56.7933 507.374 57.3C507.72 57.7933 507.894 58.4333 507.894 59.22V64.06C507.894 64.54 508.147 64.78 508.654 64.78C508.907 64.78 509.154 64.7467 509.394 64.68L509.314 65.94C509.047 66.0733 508.7 66.14 508.274 66.14C507.887 66.14 507.54 66.0667 507.234 65.92C506.927 65.7733 506.687 65.5533 506.514 65.26C506.34 64.9533 506.254 64.5733 506.254 64.12V63.92L506.654 63.98C506.494 64.5 506.22 64.9267 505.834 65.26C505.447 65.58 505.014 65.82 504.534 65.98C504.054 66.1267 503.58 66.2 503.114 66.2C502.527 66.2 501.98 66.1 501.474 65.9C500.967 65.7 500.56 65.4 500.254 65C499.96 64.5867 499.814 64.08 499.814 63.48C499.814 62.7333 500.06 62.12 500.554 61.64C501.06 61.1467 501.76 60.8133 502.654 60.64L506.614 59.86V61.18L503.394 61.84C502.74 61.9733 502.254 62.16 501.934 62.4C501.614 62.64 501.454 62.9733 501.454 63.4C501.454 63.8133 501.614 64.1533 501.934 64.42C502.267 64.6733 502.734 64.8 503.334 64.8C503.72 64.8 504.087 64.7533 504.434 64.66C504.794 64.5533 505.114 64.4 505.394 64.2C505.674 63.9867 505.894 63.7267 506.054 63.42C506.214 63.1 506.294 62.7267 506.294 62.3V59.54ZM511.782 66V56H513.082L513.302 57.64C513.582 57.0267 513.989 56.5667 514.522 56.26C515.069 55.9533 515.729 55.8 516.502 55.8C516.675 55.8 516.862 55.8133 517.062 55.84C517.275 55.8667 517.455 55.92 517.602 56L517.322 57.46C517.175 57.4067 517.015 57.3667 516.842 57.34C516.669 57.3133 516.422 57.3 516.102 57.3C515.689 57.3 515.269 57.42 514.842 57.66C514.429 57.9 514.082 58.2667 513.802 58.76C513.522 59.24 513.382 59.8533 513.382 60.6V66H511.782ZM521.7 53.16V63.24C521.7 63.7333 521.84 64.1 522.12 64.34C522.4 64.58 522.76 64.7 523.2 64.7C523.587 64.7 523.92 64.6333 524.2 64.5C524.48 64.3667 524.734 64.1867 524.96 63.96L525.52 65.3C525.214 65.58 524.847 65.8 524.42 65.96C524.007 66.12 523.527 66.2 522.98 66.2C522.474 66.2 522 66.1133 521.56 65.94C521.12 65.7533 520.767 65.4667 520.5 65.08C520.247 64.68 520.114 64.16 520.1 63.52V53.6L521.7 53.16ZM525.34 56V57.38H518.1V56H525.34ZM528.519 63.6C528.906 63.6 529.219 63.72 529.459 63.96C529.699 64.2 529.819 64.5133 529.819 64.9C529.819 65.2867 529.699 65.6 529.459 65.84C529.219 66.08 528.906 66.2 528.519 66.2C528.133 66.2 527.819 66.08 527.579 65.84C527.339 65.6 527.219 65.2867 527.219 64.9C527.219 64.5133 527.339 64.2 527.579 63.96C527.819 63.72 528.133 63.6 528.519 63.6Z" fill="white"/>
</svg>
