<svg width="541" height="71" viewBox="0 0 541 71" fill="none" xmlns="http://www.w3.org/2000/svg">
<path d="M7.3 0.6C8.7 0.6 9.9 0.866666 10.9 1.4C11.9 1.93333 12.6667 2.70667 13.2 3.72C13.7333 4.73333 14 5.96 14 7.4C14 8.84 13.7333 10.0667 13.2 11.08C12.6667 12.0933 11.9 12.8667 10.9 13.4C9.9 13.9333 8.7 14.2 7.3 14.2C5.91333 14.2 4.71333 13.9333 3.7 13.4C2.7 12.8667 1.92667 12.0933 1.38 11.08C0.846667 10.0667 0.58 8.84 0.58 7.4C0.58 5.96 0.846667 4.73333 1.38 3.72C1.92667 2.70667 2.7 1.93333 3.7 1.4C4.71333 0.866666 5.91333 0.6 7.3 0.6ZM7.3 4.1C6.84667 4.1 6.47333 4.22 6.18 4.46C5.9 4.68667 5.68667 5.04 5.54 5.52C5.40667 6 5.34 6.62667 5.34 7.4C5.34 8.16 5.40667 8.78667 5.54 9.28C5.68667 9.76 5.9 10.12 6.18 10.36C6.47333 10.5867 6.84667 10.7 7.3 10.7C7.75333 10.7 8.12 10.5867 8.4 10.36C8.69333 10.12 8.90667 9.76 9.04 9.28C9.17333 8.78667 9.24 8.16 9.24 7.4C9.24 6.62667 9.17333 6 9.04 5.52C8.90667 5.04 8.69333 4.68667 8.4 4.46C8.12 4.22 7.75333 4.1 7.3 4.1ZM28.4903 0.799999V14H23.4503L20.2903 8L19.5703 6.38H19.5303L19.6103 9.1V14H15.5703V0.799999H20.6103L23.7703 6.82L24.4903 8.42H24.5303L24.4503 5.7V0.799999H28.4903ZM42.8922 9.96C42.6522 10.9867 42.2389 11.8133 41.6522 12.44C41.0789 13.0667 40.3789 13.52 39.5522 13.8C38.7255 14.0667 37.8055 14.2 36.7922 14.2C35.4055 14.2 34.2055 13.9333 33.1922 13.4C32.1922 12.8667 31.4189 12.0933 30.8722 11.08C30.3389 10.0667 30.0722 8.84 30.0722 7.4C30.0722 5.96 30.3389 4.73333 30.8722 3.72C31.4189 2.70667 32.1922 1.93333 33.1922 1.4C34.2055 0.866666 35.4055 0.6 36.7922 0.6C37.7655 0.6 38.6722 0.739999 39.5122 1.02C40.3522 1.28667 41.0589 1.71333 41.6322 2.3C42.2189 2.88667 42.6055 3.65333 42.7922 4.6L38.7922 6.16C38.6855 5.29333 38.4655 4.73333 38.1322 4.48C37.8122 4.22667 37.4055 4.1 36.9122 4.1C36.4589 4.1 36.0722 4.22 35.7522 4.46C35.4455 4.68667 35.2122 5.04667 35.0522 5.54C34.9055 6.02 34.8322 6.64 34.8322 7.4C34.8322 8.14667 34.8989 8.76667 35.0322 9.26C35.1789 9.75333 35.4122 10.12 35.7322 10.36C36.0522 10.5867 36.4789 10.7 37.0122 10.7C37.4922 10.7 37.8855 10.56 38.1922 10.28C38.4989 9.98667 38.6922 9.52667 38.7722 8.9L42.8922 9.96ZM44.0273 14V0.799999H54.9873V4.22H48.6873V5.86H53.7673V9.02H48.6873V10.58H55.2273V14H44.0273ZM74.0469 0.799999V8.32C74.0469 10.2933 73.5135 11.7667 72.4469 12.74C71.3935 13.7133 69.8002 14.2 67.6669 14.2C65.5335 14.2 63.9335 13.7133 62.8669 12.74C61.8135 11.7667 61.2869 10.2933 61.2869 8.32V0.799999H65.9669V8.68C65.9669 9.34667 66.1135 9.85333 66.4069 10.2C66.7002 10.5333 67.1202 10.7 67.6669 10.7C68.2269 10.7 68.6535 10.5333 68.9469 10.2C69.2402 9.85333 69.3869 9.34667 69.3869 8.68V0.799999H74.0469ZM82.7852 0.799999C83.9718 0.799999 84.9785 0.98 85.8052 1.34C86.6318 1.7 87.2585 2.22667 87.6852 2.92C88.1118 3.61333 88.3252 4.46 88.3252 5.46C88.3252 6.46 88.1118 7.30667 87.6852 8C87.2585 8.69333 86.6318 9.22 85.8052 9.58C84.9785 9.94 83.9718 10.12 82.7852 10.12H80.4452V14H75.7852V0.799999H82.7852ZM82.0252 6.82C82.5318 6.82 82.9318 6.71333 83.2252 6.5C83.5185 6.27333 83.6652 5.92667 83.6652 5.46C83.6652 4.99333 83.5185 4.65333 83.2252 4.44C82.9318 4.21333 82.5318 4.1 82.0252 4.1H80.4452V6.82H82.0252ZM96.2063 0.6C97.6063 0.6 98.8063 0.866666 99.8063 1.4C100.806 1.93333 101.573 2.70667 102.106 3.72C102.64 4.73333 102.906 5.96 102.906 7.4C102.906 8.84 102.64 10.0667 102.106 11.08C101.573 12.0933 100.806 12.8667 99.8063 13.4C98.8063 13.9333 97.6063 14.2 96.2063 14.2C94.8196 14.2 93.6196 13.9333 92.6063 13.4C91.6063 12.8667 90.8329 12.0933 90.2863 11.08C89.7529 10.0667 89.4863 8.84 89.4863 7.4C89.4863 5.96 89.7529 4.73333 90.2863 3.72C90.8329 2.70667 91.6063 1.93333 92.6063 1.4C93.6196 0.866666 94.8196 0.6 96.2063 0.6ZM96.2063 4.1C95.7529 4.1 95.3796 4.22 95.0863 4.46C94.8063 4.68667 94.5929 5.04 94.4463 5.52C94.3129 6 94.2463 6.62667 94.2463 7.4C94.2463 8.16 94.3129 8.78667 94.4463 9.28C94.5929 9.76 94.8063 10.12 95.0863 10.36C95.3796 10.5867 95.7529 10.7 96.2063 10.7C96.6596 10.7 97.0263 10.5867 97.3063 10.36C97.5996 10.12 97.8129 9.76 97.9463 9.28C98.0796 8.78667 98.1463 8.16 98.1463 7.4C98.1463 6.62667 98.0796 6 97.9463 5.52C97.8129 5.04 97.5996 4.68667 97.3063 4.46C97.0263 4.22 96.6596 4.1 96.2063 4.1ZM117.397 0.799999V14H112.357L109.197 8L108.477 6.38H108.437L108.517 9.1V14H104.477V0.799999H109.517L112.677 6.82L113.397 8.42H113.437L113.357 5.7V0.799999H117.397ZM137.183 14H132.423L131.823 11.48H128.263L127.643 14H123.003L127.283 0.799999H132.883L137.183 14ZM128.963 8.58H131.143L130.063 4L128.963 8.58ZM154.902 0.799999V4.22H150.782V14H146.122V4.22H141.982V0.799999H154.902ZM160.953 0.799999V14H156.293V0.799999H160.953ZM179.913 0.799999V14H175.853V9.42L175.913 4.98H175.853L173.293 14H169.573L167.053 4.98H166.973L167.033 9.42V14H162.953V0.799999H169.473L170.993 6.66L171.573 9.12H171.613L172.193 6.66L173.713 0.799999H179.913ZM181.918 14V0.799999H192.878V4.22H186.578V5.86H191.658V9.02H186.578V10.58H193.118V14H181.918ZM204.098 0.799999V14H199.438V0.799999H204.098ZM219.018 0.799999V14H213.978L210.818 8L210.098 6.38H210.058L210.138 9.1V14H206.098V0.799999H211.138L214.298 6.82L215.018 8.42H215.058L214.978 5.7V0.799999H219.018ZM238.96 0.799999V14H234.3V0.799999H238.96ZM230.68 0.799999V14H226.02V0.799999H230.68ZM236.88 5.66V9.08H228.26V5.66H236.88ZM247.261 0.6C248.661 0.6 249.861 0.866666 250.861 1.4C251.861 1.93333 252.628 2.70667 253.161 3.72C253.694 4.73333 253.961 5.96 253.961 7.4C253.961 8.84 253.694 10.0667 253.161 11.08C252.628 12.0933 251.861 12.8667 250.861 13.4C249.861 13.9333 248.661 14.2 247.261 14.2C245.874 14.2 244.674 13.9333 243.661 13.4C242.661 12.8667 241.888 12.0933 241.341 11.08C240.808 10.0667 240.541 8.84 240.541 7.4C240.541 5.96 240.808 4.73333 241.341 3.72C241.888 2.70667 242.661 1.93333 243.661 1.4C244.674 0.866666 245.874 0.6 247.261 0.6ZM247.261 4.1C246.808 4.1 246.434 4.22 246.141 4.46C245.861 4.68667 245.648 5.04 245.501 5.52C245.368 6 245.301 6.62667 245.301 7.4C245.301 8.16 245.368 8.78667 245.501 9.28C245.648 9.76 245.861 10.12 246.141 10.36C246.434 10.5867 246.808 10.7 247.261 10.7C247.714 10.7 248.081 10.5867 248.361 10.36C248.654 10.12 248.868 9.76 249.001 9.28C249.134 8.78667 249.201 8.16 249.201 7.4C249.201 6.62667 249.134 6 249.001 5.52C248.868 5.04 248.654 4.68667 248.361 4.46C248.081 4.22 247.714 4.1 247.261 4.1ZM260.191 10.58H266.171V14H255.531V0.799999H260.191V10.58ZM272.301 10.58H278.281V14H267.641V0.799999H272.301V10.58ZM290.076 0.799999L285.456 9.42V14H280.796V9.42L276.176 0.799999H280.816L282.216 3.82L283.156 6.22L284.096 3.82L285.496 0.799999H290.076ZM293.443 14L289.703 0.799999H294.723L296.263 10.34L298.123 0.799999H302.123L304.083 10.28L305.583 0.799999H310.423L306.663 14H301.723L300.683 9.04L300.163 5.66H300.103L299.583 9.04L298.563 14H293.443ZM317.202 0.6C318.602 0.6 319.802 0.866666 320.802 1.4C321.802 1.93333 322.569 2.70667 323.102 3.72C323.636 4.73333 323.902 5.96 323.902 7.4C323.902 8.84 323.636 10.0667 323.102 11.08C322.569 12.0933 321.802 12.8667 320.802 13.4C319.802 13.9333 318.602 14.2 317.202 14.2C315.816 14.2 314.616 13.9333 313.602 13.4C312.602 12.8667 311.829 12.0933 311.282 11.08C310.749 10.0667 310.482 8.84 310.482 7.4C310.482 5.96 310.749 4.73333 311.282 3.72C311.829 2.70667 312.602 1.93333 313.602 1.4C314.616 0.866666 315.816 0.6 317.202 0.6ZM317.202 4.1C316.749 4.1 316.376 4.22 316.082 4.46C315.802 4.68667 315.589 5.04 315.442 5.52C315.309 6 315.242 6.62667 315.242 7.4C315.242 8.16 315.309 8.78667 315.442 9.28C315.589 9.76 315.802 10.12 316.082 10.36C316.376 10.5867 316.749 10.7 317.202 10.7C317.656 10.7 318.022 10.5867 318.302 10.36C318.596 10.12 318.809 9.76 318.942 9.28C319.076 8.78667 319.142 8.16 319.142 7.4C319.142 6.62667 319.076 6 318.942 5.52C318.809 5.04 318.596 4.68667 318.302 4.46C318.022 4.22 317.656 4.1 317.202 4.1ZM331.773 0.6C333.173 0.6 334.373 0.866666 335.373 1.4C336.373 1.93333 337.139 2.70667 337.673 3.72C338.206 4.73333 338.473 5.96 338.473 7.4C338.473 8.84 338.206 10.0667 337.673 11.08C337.139 12.0933 336.373 12.8667 335.373 13.4C334.373 13.9333 333.173 14.2 331.773 14.2C330.386 14.2 329.186 13.9333 328.173 13.4C327.173 12.8667 326.399 12.0933 325.853 11.08C325.319 10.0667 325.053 8.84 325.053 7.4C325.053 5.96 325.319 4.73333 325.853 3.72C326.399 2.70667 327.173 1.93333 328.173 1.4C329.186 0.866666 330.386 0.6 331.773 0.6ZM331.773 4.1C331.319 4.1 330.946 4.22 330.653 4.46C330.373 4.68667 330.159 5.04 330.013 5.52C329.879 6 329.813 6.62667 329.813 7.4C329.813 8.16 329.879 8.78667 330.013 9.28C330.159 9.76 330.373 10.12 330.653 10.36C330.946 10.5867 331.319 10.7 331.773 10.7C332.226 10.7 332.593 10.5867 332.873 10.36C333.166 10.12 333.379 9.76 333.513 9.28C333.646 8.78667 333.713 8.16 333.713 7.4C333.713 6.62667 333.646 6 333.513 5.52C333.379 5.04 333.166 4.68667 332.873 4.46C332.593 4.22 332.226 4.1 331.773 4.1ZM346.523 0.799999C348.59 0.799999 350.15 1.37333 351.203 2.52C352.256 3.66667 352.783 5.29333 352.783 7.4C352.783 9.49333 352.256 11.12 351.203 12.28C350.15 13.4267 348.59 14 346.523 14H340.043V0.799999H346.523ZM345.863 10.68C346.73 10.68 347.303 10.42 347.583 9.9C347.876 9.36667 348.023 8.53333 348.023 7.4C348.023 6.26667 347.876 5.44 347.583 4.92C347.303 4.38667 346.73 4.12 345.863 4.12H344.703V10.68H345.863ZM355.792 9.88C356.405 9.88 356.899 10.0133 357.272 10.28C357.659 10.5467 357.939 10.8933 358.112 11.32C358.299 11.7333 358.392 12.18 358.392 12.66C358.392 13.38 358.225 14.0533 357.892 14.68C357.572 15.32 357.165 15.8667 356.672 16.32C356.179 16.7867 355.692 17.12 355.212 17.32L353.472 16.14C353.845 15.9667 354.199 15.7667 354.532 15.54C354.879 15.3133 355.192 15.0667 355.472 14.8C355.752 14.5333 355.972 14.26 356.132 13.98L356.032 13.9C355.939 13.9533 355.832 13.9933 355.712 14.02C355.592 14.06 355.439 14.08 355.252 14.08C354.959 14.08 354.665 14.0133 354.372 13.88C354.079 13.7333 353.832 13.52 353.632 13.24C353.432 12.96 353.332 12.6067 353.332 12.18C353.332 11.6333 353.445 11.1933 353.672 10.86C353.912 10.5267 354.219 10.28 354.592 10.12C354.979 9.96 355.379 9.88 355.792 9.88ZM364.965 14V11.2C365.965 10.6667 366.832 10.1333 367.565 9.6C368.312 9.06667 368.925 8.54667 369.405 8.04C369.899 7.52 370.265 7.03333 370.505 6.58C370.745 6.11333 370.865 5.68667 370.865 5.3C370.865 4.98 370.785 4.7 370.625 4.46C370.465 4.22 370.185 4.1 369.785 4.1C369.332 4.1 368.999 4.28667 368.785 4.66C368.572 5.03333 368.479 5.62667 368.505 6.44L364.525 5.48C364.499 4.36 364.732 3.44 365.225 2.72C365.719 2 366.392 1.46667 367.245 1.12C368.112 0.773333 369.065 0.6 370.105 0.6C371.105 0.6 371.945 0.739999 372.625 1.02C373.319 1.28667 373.872 1.64 374.285 2.08C374.699 2.50667 374.992 2.97333 375.165 3.48C375.352 3.97333 375.445 4.44667 375.445 4.9C375.445 5.78 375.212 6.57333 374.745 7.28C374.292 7.98667 373.679 8.62 372.905 9.18C372.132 9.74 371.272 10.2467 370.325 10.7V10.74C370.605 10.7133 370.912 10.6933 371.245 10.68C371.592 10.6533 371.952 10.64 372.325 10.64C372.712 10.6267 373.092 10.62 373.465 10.62H375.525V14H364.965ZM382.635 14.2C380.635 14.2 379.155 13.6333 378.195 12.5C377.248 11.3667 376.775 9.66667 376.775 7.4C376.775 5.13333 377.248 3.43333 378.195 2.3C379.155 1.16667 380.635 0.6 382.635 0.6C384.635 0.6 386.108 1.16667 387.055 2.3C388.015 3.43333 388.495 5.13333 388.495 7.4C388.495 9.66667 388.015 11.3667 387.055 12.5C386.108 13.6333 384.635 14.2 382.635 14.2ZM382.635 10.7C382.981 10.7 383.248 10.6067 383.435 10.42C383.621 10.2333 383.748 9.9 383.815 9.42C383.895 8.94 383.935 8.26667 383.935 7.4C383.935 6.53333 383.895 5.86 383.815 5.38C383.748 4.9 383.621 4.56667 383.435 4.38C383.248 4.19333 382.981 4.1 382.635 4.1C382.301 4.1 382.035 4.19333 381.835 4.38C381.648 4.56667 381.515 4.9 381.435 5.38C381.368 5.86 381.335 6.53333 381.335 7.4C381.335 8.26667 381.368 8.94 381.435 9.42C381.515 9.9 381.648 10.2333 381.835 10.42C382.035 10.6067 382.301 10.7 382.635 10.7ZM392.819 14V7.8C392.819 7.36 392.819 6.92 392.819 6.48C392.819 6.04 392.819 5.6 392.819 5.16C392.392 5.53333 391.932 5.86 391.439 6.14C390.945 6.40667 390.425 6.58 389.879 6.66L389.619 2.92C390.032 2.88 390.445 2.79333 390.859 2.66C391.272 2.51333 391.659 2.34 392.019 2.14C392.392 1.94 392.719 1.72667 392.999 1.5C393.292 1.27333 393.512 1.04 393.659 0.799999H397.279V14H392.819ZM404.198 0.6C405.478 0.6 406.545 0.84 407.398 1.32C408.265 1.78667 408.912 2.51333 409.338 3.5C409.778 4.48667 409.998 5.76 409.998 7.32C409.998 9 409.732 10.3467 409.198 11.36C408.678 12.36 407.978 13.0867 407.098 13.54C406.218 13.98 405.252 14.2 404.198 14.2C403.012 14.2 401.972 13.9867 401.078 13.56C400.198 13.12 399.538 12.3933 399.098 11.38L403.178 9.92C403.232 10.2267 403.345 10.46 403.518 10.62C403.692 10.78 403.932 10.86 404.238 10.86C404.478 10.86 404.698 10.8133 404.898 10.72C405.098 10.6267 405.272 10.4867 405.418 10.3C405.565 10.1133 405.678 9.87333 405.758 9.58C405.838 9.28667 405.878 8.93333 405.878 8.52C405.878 8.45333 405.878 8.39333 405.878 8.34C405.878 8.27333 405.878 8.19333 405.878 8.1H405.818C405.685 8.36667 405.472 8.59333 405.178 8.78C404.898 8.96667 404.572 9.11333 404.198 9.22C403.825 9.31333 403.418 9.36 402.978 9.36C402.178 9.36 401.465 9.19333 400.838 8.86C400.212 8.51333 399.718 8.03333 399.358 7.42C398.998 6.79333 398.818 6.06667 398.818 5.24C398.818 4.26667 399.045 3.44 399.498 2.76C399.965 2.06667 400.598 1.53333 401.398 1.16C402.212 0.786666 403.145 0.6 404.198 0.6ZM404.198 3.98C403.852 3.98 403.558 4.08 403.318 4.28C403.092 4.46667 402.978 4.74 402.978 5.1C402.978 5.46 403.092 5.74 403.318 5.94C403.558 6.12667 403.852 6.22 404.198 6.22C404.412 6.22 404.612 6.18 404.798 6.1C404.985 6.00667 405.132 5.88 405.238 5.72C405.358 5.54667 405.418 5.34 405.418 5.1C405.418 4.86 405.358 4.66 405.238 4.5C405.132 4.32667 404.985 4.2 404.798 4.12C404.612 4.02667 404.412 3.98 404.198 3.98ZM10.68 43.9C10 43.9 9.36 43.7733 8.76 43.52C8.16 43.2667 7.66667 42.8333 7.28 42.22C6.90667 41.6067 6.72 40.7667 6.72 39.7C6.72 39.58 6.72 39.4533 6.72 39.32C6.73333 39.1733 6.74667 39.0333 6.76 38.9L8.18 38.94C8.16667 39.0733 8.15333 39.2 8.14 39.32C8.14 39.4267 8.14 39.5333 8.14 39.64C8.14 40.4 8.26 40.9667 8.5 41.34C8.74 41.7133 9.05333 41.96 9.44 42.08C9.84 42.2133 10.2667 42.28 10.72 42.28C11.2133 42.28 11.6667 42.2133 12.08 42.08C12.4933 41.9467 12.8267 41.7667 13.08 41.54L13.6 43.02C13.28 43.3 12.8333 43.5133 12.26 43.66C11.7 43.82 11.1733 43.9 10.68 43.9ZM7.48 26.6C8.73333 26.6 9.81333 26.88 10.72 27.44C11.64 27.9867 12.3467 28.7667 12.84 29.78C13.3467 30.7933 13.6 32 13.6 33.4C13.6 34.8 13.3467 36.0067 12.84 37.02C12.3467 38.0333 11.64 38.82 10.72 39.38C9.81333 39.9267 8.73333 40.2 7.48 40.2C6.22667 40.2 5.14 39.9267 4.22 39.38C3.31333 38.82 2.60667 38.0333 2.1 37.02C1.60667 36.0067 1.36 34.8 1.36 33.4C1.36 32 1.60667 30.7933 2.1 29.78C2.60667 28.7667 3.31333 27.9867 4.22 27.44C5.14 26.88 6.22667 26.6 7.48 26.6ZM7.48 28.1C6.57333 28.1 5.78667 28.3133 5.12 28.74C4.45333 29.1533 3.94 29.76 3.58 30.56C3.22 31.3467 3.04 32.2933 3.04 33.4C3.04 34.5067 3.22 35.46 3.58 36.26C3.94 37.0467 4.45333 37.6533 5.12 38.08C5.78667 38.4933 6.57333 38.7 7.48 38.7C8.4 38.7 9.18667 38.4933 9.84 38.08C10.5067 37.6533 11.02 37.0467 11.38 36.26C11.74 35.46 11.92 34.5067 11.92 33.4C11.92 32.2933 11.74 31.3467 11.38 30.56C11.02 29.76 10.5067 29.1533 9.84 28.74C9.18667 28.3133 8.4 28.1 7.48 28.1ZM20.4409 40.2C19.8009 40.2 19.1943 40.08 18.6209 39.84C18.0609 39.6 17.6009 39.2133 17.2409 38.68C16.8943 38.1333 16.7209 37.4267 16.7209 36.56V30H18.3209V36.14C18.3209 37.1533 18.5409 37.8533 18.9809 38.24C19.4209 38.6133 20.0409 38.8 20.8409 38.8C21.2143 38.8 21.5809 38.74 21.9409 38.62C22.3009 38.4867 22.6209 38.2867 22.9009 38.02C23.1943 37.74 23.4209 37.3867 23.5809 36.96C23.7543 36.5333 23.8409 36.0267 23.8409 35.44V30H25.4409V40H24.0409L23.9409 38.48C23.5943 39.08 23.1209 39.52 22.5209 39.8C21.9343 40.0667 21.2409 40.2 20.4409 40.2ZM33.3447 40.2C32.398 40.2 31.5514 39.9933 30.8047 39.58C30.0714 39.1667 29.498 38.5733 29.0847 37.8C28.6714 37.0133 28.4647 36.08 28.4647 35C28.4647 33.92 28.6714 32.9933 29.0847 32.22C29.498 31.4333 30.0647 30.8333 30.7847 30.42C31.5047 30.0067 32.3247 29.8 33.2447 29.8C34.178 29.8 34.9714 30 35.6247 30.4C36.2914 30.8 36.798 31.3467 37.1447 32.04C37.4914 32.72 37.6647 33.4867 37.6647 34.34C37.6647 34.5667 37.658 34.7733 37.6447 34.96C37.6314 35.1467 37.6114 35.3133 37.5847 35.46H29.5047V34.04H36.8847L36.0647 34.2C36.0647 33.24 35.798 32.5 35.2647 31.98C34.7447 31.46 34.058 31.2 33.2047 31.2C32.5514 31.2 31.9847 31.3533 31.5047 31.66C31.038 31.9533 30.6714 32.3867 30.4047 32.96C30.1514 33.52 30.0247 34.2 30.0247 35C30.0247 35.7867 30.158 36.4667 30.4247 37.04C30.6914 37.6133 31.0647 38.0533 31.5447 38.36C32.038 38.6533 32.6247 38.8 33.3047 38.8C34.038 38.8 34.6314 38.66 35.0847 38.38C35.5514 38.1 35.9247 37.72 36.2047 37.24L37.4647 37.98C37.2114 38.4333 36.8847 38.8267 36.4847 39.16C36.098 39.4933 35.638 39.7533 35.1047 39.94C34.5847 40.1133 33.998 40.2 33.3447 40.2ZM40.7077 40V30H42.1077L42.2477 32.24L41.9877 32.02C42.201 31.4867 42.4877 31.06 42.8477 30.74C43.2077 30.4067 43.621 30.1667 44.0877 30.02C44.5677 29.8733 45.061 29.8 45.5677 29.8C46.2877 29.8 46.941 29.94 47.5277 30.22C48.1143 30.4867 48.581 30.9 48.9277 31.46C49.2877 32.02 49.4677 32.7333 49.4677 33.6V40H47.8677V34.16C47.8677 33.0533 47.6277 32.2867 47.1477 31.86C46.681 31.42 46.101 31.2 45.4077 31.2C44.9277 31.2 44.4477 31.3133 43.9677 31.54C43.4877 31.7667 43.0877 32.1333 42.7677 32.64C42.461 33.1467 42.3077 33.8267 42.3077 34.68V40H40.7077ZM55.3138 27.16V37.24C55.3138 37.7333 55.4538 38.1 55.7338 38.34C56.0138 38.58 56.3738 38.7 56.8138 38.7C57.2004 38.7 57.5338 38.6333 57.8138 38.5C58.0938 38.3667 58.3471 38.1867 58.5738 37.96L59.1338 39.3C58.8271 39.58 58.4604 39.8 58.0338 39.96C57.6204 40.12 57.1404 40.2 56.5938 40.2C56.0871 40.2 55.6138 40.1133 55.1738 39.94C54.7338 39.7533 54.3804 39.4667 54.1138 39.08C53.8604 38.68 53.7271 38.16 53.7138 37.52V27.6L55.3138 27.16ZM58.9538 30V31.38H51.7138V30H58.9538ZM62.1327 28.08C61.7727 28.08 61.4793 27.9733 61.2527 27.76C61.0393 27.5333 60.9327 27.24 60.9327 26.88C60.9327 26.52 61.0393 26.2333 61.2527 26.02C61.4793 25.7933 61.7727 25.68 62.1327 25.68C62.4927 25.68 62.7793 25.7933 62.9927 26.02C63.2193 26.2333 63.3327 26.52 63.3327 26.88C63.3327 27.24 63.2193 27.5333 62.9927 27.76C62.7793 27.9733 62.4927 28.08 62.1327 28.08ZM62.9327 30V40H61.3327V30H62.9327ZM66.6452 40V30H68.0452L68.1852 32.24L67.9252 32.02C68.1385 31.4867 68.4252 31.06 68.7852 30.74C69.1452 30.4067 69.5585 30.1667 70.0252 30.02C70.5052 29.8733 70.9985 29.8 71.5052 29.8C72.2252 29.8 72.8785 29.94 73.4652 30.22C74.0518 30.4867 74.5185 30.9 74.8652 31.46C75.2252 32.02 75.4052 32.7333 75.4052 33.6V40H73.8052V34.16C73.8052 33.0533 73.5652 32.2867 73.0852 31.86C72.6185 31.42 72.0385 31.2 71.3452 31.2C70.8652 31.2 70.3852 31.3133 69.9052 31.54C69.4252 31.7667 69.0252 32.1333 68.7052 32.64C68.3985 33.1467 68.2452 33.8267 68.2452 34.68V40H66.6452ZM94.8775 26.8V28.3H90.2775V40H88.6775V28.3H84.0775V26.8H94.8775ZM101.196 33.54C101.196 32.7933 100.996 32.22 100.596 31.82C100.196 31.4067 99.6294 31.2 98.8961 31.2C98.2028 31.2 97.6161 31.3533 97.1361 31.66C96.6561 31.9533 96.3028 32.4333 96.0761 33.1L94.7761 32.3C95.0428 31.5533 95.5361 30.9533 96.2561 30.5C96.9761 30.0333 97.8694 29.8 98.9361 29.8C99.6561 29.8 100.309 29.9267 100.896 30.18C101.483 30.42 101.943 30.7933 102.276 31.3C102.623 31.7933 102.796 32.4333 102.796 33.22V38.06C102.796 38.54 103.049 38.78 103.556 38.78C103.809 38.78 104.056 38.7467 104.296 38.68L104.216 39.94C103.949 40.0733 103.603 40.14 103.176 40.14C102.789 40.14 102.443 40.0667 102.136 39.92C101.829 39.7733 101.589 39.5533 101.416 39.26C101.243 38.9533 101.156 38.5733 101.156 38.12V37.92L101.556 37.98C101.396 38.5 101.123 38.9267 100.736 39.26C100.349 39.58 99.9161 39.82 99.4361 39.98C98.9561 40.1267 98.4828 40.2 98.0161 40.2C97.4294 40.2 96.8828 40.1 96.3761 39.9C95.8694 39.7 95.4628 39.4 95.1561 39C94.8628 38.5867 94.7161 38.08 94.7161 37.48C94.7161 36.7333 94.9628 36.12 95.4561 35.64C95.9628 35.1467 96.6628 34.8133 97.5561 34.64L101.516 33.86V35.18L98.2961 35.84C97.6428 35.9733 97.1561 36.16 96.8361 36.4C96.5161 36.64 96.3561 36.9733 96.3561 37.4C96.3561 37.8133 96.5161 38.1533 96.8361 38.42C97.1694 38.6733 97.6361 38.8 98.2361 38.8C98.6228 38.8 98.9894 38.7533 99.3361 38.66C99.6961 38.5533 100.016 38.4 100.296 38.2C100.576 37.9867 100.796 37.7267 100.956 37.42C101.116 37.1 101.196 36.7267 101.196 36.3V33.54ZM106.684 40V30H107.984L108.204 31.64C108.484 31.0267 108.891 30.5667 109.424 30.26C109.971 29.9533 110.631 29.8 111.404 29.8C111.578 29.8 111.764 29.8133 111.964 29.84C112.178 29.8667 112.358 29.92 112.504 30L112.224 31.46C112.078 31.4067 111.918 31.3667 111.744 31.34C111.571 31.3133 111.324 31.3 111.004 31.3C110.591 31.3 110.171 31.42 109.744 31.66C109.331 31.9 108.984 32.2667 108.704 32.76C108.424 33.24 108.284 33.8533 108.284 34.6V40H106.684ZM120.415 33.54C120.415 32.7933 120.215 32.22 119.815 31.82C119.415 31.4067 118.848 31.2 118.115 31.2C117.422 31.2 116.835 31.3533 116.355 31.66C115.875 31.9533 115.522 32.4333 115.295 33.1L113.995 32.3C114.262 31.5533 114.755 30.9533 115.475 30.5C116.195 30.0333 117.088 29.8 118.155 29.8C118.875 29.8 119.528 29.9267 120.115 30.18C120.702 30.42 121.162 30.7933 121.495 31.3C121.842 31.7933 122.015 32.4333 122.015 33.22V38.06C122.015 38.54 122.268 38.78 122.775 38.78C123.028 38.78 123.275 38.7467 123.515 38.68L123.435 39.94C123.168 40.0733 122.822 40.14 122.395 40.14C122.008 40.14 121.662 40.0667 121.355 39.92C121.048 39.7733 120.808 39.5533 120.635 39.26C120.462 38.9533 120.375 38.5733 120.375 38.12V37.92L120.775 37.98C120.615 38.5 120.342 38.9267 119.955 39.26C119.568 39.58 119.135 39.82 118.655 39.98C118.175 40.1267 117.702 40.2 117.235 40.2C116.648 40.2 116.102 40.1 115.595 39.9C115.088 39.7 114.682 39.4 114.375 39C114.082 38.5867 113.935 38.08 113.935 37.48C113.935 36.7333 114.182 36.12 114.675 35.64C115.182 35.1467 115.882 34.8133 116.775 34.64L120.735 33.86V35.18L117.515 35.84C116.862 35.9733 116.375 36.16 116.055 36.4C115.735 36.64 115.575 36.9733 115.575 37.4C115.575 37.8133 115.735 38.1533 116.055 38.42C116.388 38.6733 116.855 38.8 117.455 38.8C117.842 38.8 118.208 38.7533 118.555 38.66C118.915 38.5533 119.235 38.4 119.515 38.2C119.795 37.9867 120.015 37.7267 120.175 37.42C120.335 37.1 120.415 36.7267 120.415 36.3V33.54ZM125.903 40V30H127.303L127.443 32.24L127.183 32.02C127.396 31.4867 127.683 31.06 128.043 30.74C128.403 30.4067 128.816 30.1667 129.283 30.02C129.763 29.8733 130.256 29.8 130.763 29.8C131.483 29.8 132.136 29.94 132.723 30.22C133.31 30.4867 133.776 30.9 134.123 31.46C134.483 32.02 134.663 32.7333 134.663 33.6V40H133.063V34.16C133.063 33.0533 132.823 32.2867 132.343 31.86C131.876 31.42 131.296 31.2 130.603 31.2C130.123 31.2 129.643 31.3133 129.163 31.54C128.683 31.7667 128.283 32.1333 127.963 32.64C127.656 33.1467 127.503 33.8267 127.503 34.68V40H125.903ZM140.509 27.16V37.24C140.509 37.7333 140.649 38.1 140.929 38.34C141.209 38.58 141.569 38.7 142.009 38.7C142.396 38.7 142.729 38.6333 143.009 38.5C143.289 38.3667 143.542 38.1867 143.769 37.96L144.329 39.3C144.022 39.58 143.656 39.8 143.229 39.96C142.816 40.12 142.336 40.2 141.789 40.2C141.282 40.2 140.809 40.1133 140.369 39.94C139.929 39.7533 139.576 39.4667 139.309 39.08C139.056 38.68 138.922 38.16 138.909 37.52V27.6L140.509 27.16ZM144.149 30V31.38H136.909V30H144.149ZM147.328 28.08C146.968 28.08 146.675 27.9733 146.448 27.76C146.235 27.5333 146.128 27.24 146.128 26.88C146.128 26.52 146.235 26.2333 146.448 26.02C146.675 25.7933 146.968 25.68 147.328 25.68C147.688 25.68 147.975 25.7933 148.188 26.02C148.415 26.2333 148.528 26.52 148.528 26.88C148.528 27.24 148.415 27.5333 148.188 27.76C147.975 27.9733 147.688 28.08 147.328 28.08ZM148.128 30V40H146.528V30H148.128ZM151.84 40V30H153.24L153.38 32.24L153.12 32.02C153.334 31.4867 153.62 31.06 153.98 30.74C154.34 30.4067 154.754 30.1667 155.22 30.02C155.7 29.8733 156.194 29.8 156.7 29.8C157.42 29.8 158.074 29.94 158.66 30.22C159.247 30.4867 159.714 30.9 160.06 31.46C160.42 32.02 160.6 32.7333 160.6 33.6V40H159V34.16C159 33.0533 158.76 32.2867 158.28 31.86C157.814 31.42 157.234 31.2 156.54 31.2C156.06 31.2 155.58 31.3133 155.1 31.54C154.62 31.7667 154.22 32.1333 153.9 32.64C153.594 33.1467 153.44 33.8267 153.44 34.68V40H151.84ZM168.363 29.8C169.31 29.8 170.143 30.0067 170.863 30.42C171.597 30.8333 172.17 31.4333 172.583 32.22C172.997 32.9933 173.203 33.92 173.203 35C173.203 36.08 172.997 37.0133 172.583 37.8C172.17 38.5733 171.597 39.1667 170.863 39.58C170.143 39.9933 169.31 40.2 168.363 40.2C167.43 40.2 166.597 39.9933 165.863 39.58C165.13 39.1667 164.557 38.5733 164.143 37.8C163.73 37.0133 163.523 36.08 163.523 35C163.523 33.92 163.73 32.9933 164.143 32.22C164.557 31.4333 165.13 30.8333 165.863 30.42C166.597 30.0067 167.43 29.8 168.363 29.8ZM168.363 31.18C167.683 31.18 167.103 31.3333 166.623 31.64C166.143 31.9467 165.77 32.3867 165.503 32.96C165.25 33.52 165.123 34.2 165.123 35C165.123 35.7867 165.25 36.4667 165.503 37.04C165.77 37.6133 166.143 38.0533 166.623 38.36C167.103 38.6667 167.683 38.82 168.363 38.82C169.043 38.82 169.623 38.6667 170.103 38.36C170.583 38.0533 170.95 37.6133 171.203 37.04C171.47 36.4667 171.603 35.7867 171.603 35C171.603 34.2 171.47 33.52 171.203 32.96C170.95 32.3867 170.583 31.9467 170.103 31.64C169.623 31.3333 169.043 31.18 168.363 31.18ZM176.625 37.6C176.945 37.6 177.212 37.6867 177.425 37.86C177.652 38.02 177.825 38.2467 177.945 38.54C178.065 38.82 178.125 39.1533 178.125 39.54C178.125 39.98 178.045 40.4133 177.885 40.84C177.738 41.2667 177.505 41.66 177.185 42.02C176.865 42.38 176.452 42.68 175.945 42.92L175.105 42.14C175.465 42.02 175.778 41.8533 176.045 41.64C176.325 41.4267 176.552 41.1867 176.725 40.92C176.898 40.6533 177.012 40.38 177.065 40.1L176.985 40.06C176.932 40.1 176.865 40.1333 176.785 40.16C176.705 40.1867 176.585 40.2 176.425 40.2C176.265 40.2 176.098 40.1533 175.925 40.06C175.765 39.9667 175.625 39.8333 175.505 39.66C175.385 39.4733 175.325 39.2333 175.325 38.94C175.325 38.7 175.385 38.48 175.505 38.28C175.625 38.0667 175.778 37.9 175.965 37.78C176.165 37.66 176.385 37.6 176.625 37.6ZM189.923 27.16V37.24C189.923 37.7333 190.063 38.1 190.343 38.34C190.623 38.58 190.983 38.7 191.423 38.7C191.81 38.7 192.143 38.6333 192.423 38.5C192.703 38.3667 192.956 38.1867 193.183 37.96L193.743 39.3C193.436 39.58 193.07 39.8 192.643 39.96C192.23 40.12 191.75 40.2 191.203 40.2C190.696 40.2 190.223 40.1133 189.783 39.94C189.343 39.7533 188.99 39.4667 188.723 39.08C188.47 38.68 188.336 38.16 188.323 37.52V27.6L189.923 27.16ZM193.563 30V31.38H186.323V30H193.563ZM195.942 40V25.4H197.542V31.5C197.889 30.9 198.349 30.4667 198.922 30.2C199.495 29.9333 200.122 29.8 200.802 29.8C201.522 29.8 202.175 29.94 202.762 30.22C203.349 30.4867 203.815 30.9 204.162 31.46C204.522 32.02 204.702 32.7333 204.702 33.6V40H203.102V34.16C203.102 33.0533 202.862 32.2867 202.382 31.86C201.915 31.42 201.335 31.2 200.642 31.2C200.162 31.2 199.682 31.3133 199.202 31.54C198.722 31.7667 198.322 32.14 198.002 32.66C197.695 33.1667 197.542 33.8467 197.542 34.7V40H195.942ZM212.505 40.2C211.558 40.2 210.712 39.9933 209.965 39.58C209.232 39.1667 208.658 38.5733 208.245 37.8C207.832 37.0133 207.625 36.08 207.625 35C207.625 33.92 207.832 32.9933 208.245 32.22C208.658 31.4333 209.225 30.8333 209.945 30.42C210.665 30.0067 211.485 29.8 212.405 29.8C213.338 29.8 214.132 30 214.785 30.4C215.452 30.8 215.958 31.3467 216.305 32.04C216.652 32.72 216.825 33.4867 216.825 34.34C216.825 34.5667 216.818 34.7733 216.805 34.96C216.792 35.1467 216.772 35.3133 216.745 35.46H208.665V34.04H216.045L215.225 34.2C215.225 33.24 214.958 32.5 214.425 31.98C213.905 31.46 213.218 31.2 212.365 31.2C211.712 31.2 211.145 31.3533 210.665 31.66C210.198 31.9533 209.832 32.3867 209.565 32.96C209.312 33.52 209.185 34.2 209.185 35C209.185 35.7867 209.318 36.4667 209.585 37.04C209.852 37.6133 210.225 38.0533 210.705 38.36C211.198 38.6533 211.785 38.8 212.465 38.8C213.198 38.8 213.792 38.66 214.245 38.38C214.712 38.1 215.085 37.72 215.365 37.24L216.625 37.98C216.372 38.4333 216.045 38.8267 215.645 39.16C215.258 39.4933 214.798 39.7533 214.265 39.94C213.745 40.1133 213.158 40.2 212.505 40.2ZM230.584 40.2C229.758 40.2 228.998 39.9933 228.304 39.58C227.611 39.1667 227.058 38.5733 226.644 37.8C226.231 37.0133 226.024 36.08 226.024 35C226.024 33.8933 226.244 32.9533 226.684 32.18C227.124 31.4067 227.704 30.82 228.424 30.42C229.144 30.0067 229.918 29.8 230.744 29.8C231.571 29.8 232.284 30.0133 232.884 30.44C233.498 30.8667 233.904 31.4333 234.104 32.14L233.904 32.28V25.4H235.504V40H234.104L233.964 37.58L234.184 37.46C234.091 38.0467 233.864 38.5467 233.504 38.96C233.158 39.36 232.724 39.6667 232.204 39.88C231.698 40.0933 231.158 40.2 230.584 40.2ZM230.744 38.8C231.384 38.8 231.938 38.64 232.404 38.32C232.884 38 233.251 37.5467 233.504 36.96C233.771 36.36 233.904 35.66 233.904 34.86C233.904 34.1 233.771 33.4467 233.504 32.9C233.251 32.3533 232.891 31.9333 232.424 31.64C231.971 31.3467 231.438 31.2 230.824 31.2C229.811 31.2 229.024 31.5467 228.464 32.24C227.904 32.9333 227.624 33.8533 227.624 35C227.624 36.1467 227.898 37.0667 228.444 37.76C228.991 38.4533 229.758 38.8 230.744 38.8ZM240.023 28.08C239.663 28.08 239.37 27.9733 239.143 27.76C238.93 27.5333 238.823 27.24 238.823 26.88C238.823 26.52 238.93 26.2333 239.143 26.02C239.37 25.7933 239.663 25.68 240.023 25.68C240.383 25.68 240.67 25.7933 240.883 26.02C241.11 26.2333 241.223 26.52 241.223 26.88C241.223 27.24 241.11 27.5333 240.883 27.76C240.67 27.9733 240.383 28.08 240.023 28.08ZM240.823 30V40H239.223V30H240.823ZM244.536 40V30H245.836L246.056 31.64C246.336 31.0267 246.742 30.5667 247.276 30.26C247.822 29.9533 248.482 29.8 249.256 29.8C249.429 29.8 249.616 29.8133 249.816 29.84C250.029 29.8667 250.209 29.92 250.356 30L250.076 31.46C249.929 31.4067 249.769 31.3667 249.596 31.34C249.422 31.3133 249.176 31.3 248.856 31.3C248.442 31.3 248.022 31.42 247.596 31.66C247.182 31.9 246.836 32.2667 246.556 32.76C246.276 33.24 246.136 33.8533 246.136 34.6V40H244.536ZM256.567 40.2C255.621 40.2 254.774 39.9933 254.027 39.58C253.294 39.1667 252.721 38.5733 252.307 37.8C251.894 37.0133 251.687 36.08 251.687 35C251.687 33.92 251.894 32.9933 252.307 32.22C252.721 31.4333 253.287 30.8333 254.007 30.42C254.727 30.0067 255.547 29.8 256.467 29.8C257.401 29.8 258.194 30 258.847 30.4C259.514 30.8 260.021 31.3467 260.367 32.04C260.714 32.72 260.887 33.4867 260.887 34.34C260.887 34.5667 260.881 34.7733 260.867 34.96C260.854 35.1467 260.834 35.3133 260.807 35.46H252.727V34.04H260.107L259.287 34.2C259.287 33.24 259.021 32.5 258.487 31.98C257.967 31.46 257.281 31.2 256.427 31.2C255.774 31.2 255.207 31.3533 254.727 31.66C254.261 31.9533 253.894 32.3867 253.627 32.96C253.374 33.52 253.247 34.2 253.247 35C253.247 35.7867 253.381 36.4667 253.647 37.04C253.914 37.6133 254.287 38.0533 254.767 38.36C255.261 38.6533 255.847 38.8 256.527 38.8C257.261 38.8 257.854 38.66 258.307 38.38C258.774 38.1 259.147 37.72 259.427 37.24L260.687 37.98C260.434 38.4333 260.107 38.8267 259.707 39.16C259.321 39.4933 258.861 39.7533 258.327 39.94C257.807 40.1133 257.221 40.2 256.567 40.2ZM268.07 29.8C268.764 29.8 269.37 29.9067 269.89 30.12C270.424 30.3333 270.884 30.64 271.27 31.04C271.657 31.44 271.97 31.9133 272.21 32.46L270.69 33.18C270.477 32.54 270.15 32.0533 269.71 31.72C269.284 31.3733 268.724 31.2 268.03 31.2C267.364 31.2 266.79 31.3533 266.31 31.66C265.83 31.9533 265.464 32.3867 265.21 32.96C264.957 33.52 264.83 34.2 264.83 35C264.83 35.7867 264.957 36.4667 265.21 37.04C265.464 37.6133 265.83 38.0533 266.31 38.36C266.79 38.6533 267.364 38.8 268.03 38.8C268.55 38.8 268.997 38.72 269.37 38.56C269.757 38.4 270.07 38.1667 270.31 37.86C270.564 37.5533 270.737 37.18 270.83 36.74L272.31 37.26C272.084 37.8733 271.77 38.4 271.37 38.84C270.984 39.28 270.51 39.62 269.95 39.86C269.404 40.0867 268.777 40.2 268.07 40.2C267.137 40.2 266.304 39.9933 265.57 39.58C264.837 39.1667 264.264 38.5733 263.85 37.8C263.437 37.0133 263.23 36.08 263.23 35C263.23 33.92 263.437 32.9933 263.85 32.22C264.264 31.4333 264.837 30.8333 265.57 30.42C266.304 30.0067 267.137 29.8 268.07 29.8ZM277.482 27.16V37.24C277.482 37.7333 277.622 38.1 277.902 38.34C278.182 38.58 278.542 38.7 278.982 38.7C279.368 38.7 279.702 38.6333 279.982 38.5C280.262 38.3667 280.515 38.1867 280.742 37.96L281.302 39.3C280.995 39.58 280.628 39.8 280.202 39.96C279.788 40.12 279.308 40.2 278.762 40.2C278.255 40.2 277.782 40.1133 277.342 39.94C276.902 39.7533 276.548 39.4667 276.282 39.08C276.028 38.68 275.895 38.16 275.882 37.52V27.6L277.482 27.16ZM281.122 30V31.38H273.882V30H281.122ZM287.641 29.8C288.587 29.8 289.421 30.0067 290.141 30.42C290.874 30.8333 291.447 31.4333 291.861 32.22C292.274 32.9933 292.481 33.92 292.481 35C292.481 36.08 292.274 37.0133 291.861 37.8C291.447 38.5733 290.874 39.1667 290.141 39.58C289.421 39.9933 288.587 40.2 287.641 40.2C286.707 40.2 285.874 39.9933 285.141 39.58C284.407 39.1667 283.834 38.5733 283.421 37.8C283.007 37.0133 282.801 36.08 282.801 35C282.801 33.92 283.007 32.9933 283.421 32.22C283.834 31.4333 284.407 30.8333 285.141 30.42C285.874 30.0067 286.707 29.8 287.641 29.8ZM287.641 31.18C286.961 31.18 286.381 31.3333 285.901 31.64C285.421 31.9467 285.047 32.3867 284.781 32.96C284.527 33.52 284.401 34.2 284.401 35C284.401 35.7867 284.527 36.4667 284.781 37.04C285.047 37.6133 285.421 38.0533 285.901 38.36C286.381 38.6667 286.961 38.82 287.641 38.82C288.321 38.82 288.901 38.6667 289.381 38.36C289.861 38.0533 290.227 37.6133 290.481 37.04C290.747 36.4667 290.881 35.7867 290.881 35C290.881 34.2 290.747 33.52 290.481 32.96C290.227 32.3867 289.861 31.9467 289.381 31.64C288.901 31.3333 288.321 31.18 287.641 31.18ZM295.493 40V30H296.793L297.013 31.64C297.293 31.0267 297.699 30.5667 298.233 30.26C298.779 29.9533 299.439 29.8 300.213 29.8C300.386 29.8 300.573 29.8133 300.773 29.84C300.986 29.8667 301.166 29.92 301.313 30L301.033 31.46C300.886 31.4067 300.726 31.3667 300.553 31.34C300.379 31.3133 300.133 31.3 299.813 31.3C299.399 31.3 298.979 31.42 298.553 31.66C298.139 31.9 297.793 32.2667 297.513 32.76C297.233 33.24 297.093 33.8533 297.093 34.6V40H295.493ZM302.855 37.6C303.175 37.6 303.442 37.6867 303.655 37.86C303.882 38.02 304.055 38.2467 304.175 38.54C304.295 38.82 304.355 39.1533 304.355 39.54C304.355 39.98 304.275 40.4133 304.115 40.84C303.969 41.2667 303.735 41.66 303.415 42.02C303.095 42.38 302.682 42.68 302.175 42.92L301.335 42.14C301.695 42.02 302.009 41.8533 302.275 41.64C302.555 41.4267 302.782 41.1867 302.955 40.92C303.129 40.6533 303.242 40.38 303.295 40.1L303.215 40.06C303.162 40.1 303.095 40.1333 303.015 40.16C302.935 40.1867 302.815 40.2 302.655 40.2C302.495 40.2 302.329 40.1533 302.155 40.06C301.995 39.9667 301.855 39.8333 301.735 39.66C301.615 39.4733 301.555 39.2333 301.555 38.94C301.555 38.7 301.615 38.48 301.735 38.28C301.855 38.0667 302.009 37.9 302.195 37.78C302.395 37.66 302.615 37.6 302.855 37.6ZM320.024 33.54C320.024 32.7933 319.824 32.22 319.424 31.82C319.024 31.4067 318.458 31.2 317.724 31.2C317.031 31.2 316.444 31.3533 315.964 31.66C315.484 31.9533 315.131 32.4333 314.904 33.1L313.604 32.3C313.871 31.5533 314.364 30.9533 315.084 30.5C315.804 30.0333 316.698 29.8 317.764 29.8C318.484 29.8 319.138 29.9267 319.724 30.18C320.311 30.42 320.771 30.7933 321.104 31.3C321.451 31.7933 321.624 32.4333 321.624 33.22V38.06C321.624 38.54 321.878 38.78 322.384 38.78C322.638 38.78 322.884 38.7467 323.124 38.68L323.044 39.94C322.778 40.0733 322.431 40.14 322.004 40.14C321.618 40.14 321.271 40.0667 320.964 39.92C320.658 39.7733 320.418 39.5533 320.244 39.26C320.071 38.9533 319.984 38.5733 319.984 38.12V37.92L320.384 37.98C320.224 38.5 319.951 38.9267 319.564 39.26C319.178 39.58 318.744 39.82 318.264 39.98C317.784 40.1267 317.311 40.2 316.844 40.2C316.258 40.2 315.711 40.1 315.204 39.9C314.698 39.7 314.291 39.4 313.984 39C313.691 38.5867 313.544 38.08 313.544 37.48C313.544 36.7333 313.791 36.12 314.284 35.64C314.791 35.1467 315.491 34.8133 316.384 34.64L320.344 33.86V35.18L317.124 35.84C316.471 35.9733 315.984 36.16 315.664 36.4C315.344 36.64 315.184 36.9733 315.184 37.4C315.184 37.8133 315.344 38.1533 315.664 38.42C315.998 38.6733 316.464 38.8 317.064 38.8C317.451 38.8 317.818 38.7533 318.164 38.66C318.524 38.5533 318.844 38.4 319.124 38.2C319.404 37.9867 319.624 37.7267 319.784 37.42C319.944 37.1 320.024 36.7267 320.024 36.3V33.54ZM325.512 44.2V30H326.912L327.052 32.44L326.832 32.16C327.006 31.6933 327.266 31.2867 327.612 30.94C327.959 30.58 328.379 30.3 328.872 30.1C329.366 29.9 329.899 29.8 330.472 29.8C331.286 29.8 332.032 30.0067 332.712 30.42C333.406 30.8333 333.959 31.4267 334.372 32.2C334.786 32.9733 334.992 33.9067 334.992 35C334.992 36.08 334.779 37.0133 334.352 37.8C333.939 38.5733 333.386 39.1667 332.692 39.58C331.999 39.9933 331.239 40.2 330.412 40.2C329.586 40.2 328.859 40 328.232 39.6C327.619 39.1867 327.179 38.6667 326.912 38.04L327.112 37.74V44.2H325.512ZM330.252 38.8C331.239 38.8 332.006 38.4533 332.552 37.76C333.112 37.0667 333.392 36.1467 333.392 35C333.392 33.8533 333.119 32.9333 332.572 32.24C332.039 31.5467 331.286 31.2 330.312 31.2C329.672 31.2 329.112 31.36 328.632 31.68C328.152 31.9867 327.779 32.4267 327.512 33C327.246 33.56 327.112 34.2267 327.112 35C327.112 35.76 327.239 36.4267 327.492 37C327.759 37.5733 328.126 38.02 328.592 38.34C329.072 38.6467 329.626 38.8 330.252 38.8ZM338.051 44.2V30H339.451L339.591 32.44L339.371 32.16C339.545 31.6933 339.805 31.2867 340.151 30.94C340.498 30.58 340.918 30.3 341.411 30.1C341.905 29.9 342.438 29.8 343.011 29.8C343.825 29.8 344.571 30.0067 345.251 30.42C345.945 30.8333 346.498 31.4267 346.911 32.2C347.325 32.9733 347.531 33.9067 347.531 35C347.531 36.08 347.318 37.0133 346.891 37.8C346.478 38.5733 345.925 39.1667 345.231 39.58C344.538 39.9933 343.778 40.2 342.951 40.2C342.125 40.2 341.398 40 340.771 39.6C340.158 39.1867 339.718 38.6667 339.451 38.04L339.651 37.74V44.2H338.051ZM342.791 38.8C343.778 38.8 344.545 38.4533 345.091 37.76C345.651 37.0667 345.931 36.1467 345.931 35C345.931 33.8533 345.658 32.9333 345.111 32.24C344.578 31.5467 343.825 31.2 342.851 31.2C342.211 31.2 341.651 31.36 341.171 31.68C340.691 31.9867 340.318 32.4267 340.051 33C339.785 33.56 339.651 34.2267 339.651 35C339.651 35.76 339.778 36.4267 340.031 37C340.298 37.5733 340.665 38.02 341.131 38.34C341.611 38.6467 342.165 38.8 342.791 38.8ZM354.77 40.2C353.824 40.2 352.977 39.9933 352.23 39.58C351.497 39.1667 350.924 38.5733 350.51 37.8C350.097 37.0133 349.89 36.08 349.89 35C349.89 33.92 350.097 32.9933 350.51 32.22C350.924 31.4333 351.49 30.8333 352.21 30.42C352.93 30.0067 353.75 29.8 354.67 29.8C355.604 29.8 356.397 30 357.05 30.4C357.717 30.8 358.224 31.3467 358.57 32.04C358.917 32.72 359.09 33.4867 359.09 34.34C359.09 34.5667 359.084 34.7733 359.07 34.96C359.057 35.1467 359.037 35.3133 359.01 35.46H350.93V34.04H358.31L357.49 34.2C357.49 33.24 357.224 32.5 356.69 31.98C356.17 31.46 355.484 31.2 354.63 31.2C353.977 31.2 353.41 31.3533 352.93 31.66C352.464 31.9533 352.097 32.3867 351.83 32.96C351.577 33.52 351.45 34.2 351.45 35C351.45 35.7867 351.584 36.4667 351.85 37.04C352.117 37.6133 352.49 38.0533 352.97 38.36C353.464 38.6533 354.05 38.8 354.73 38.8C355.464 38.8 356.057 38.66 356.51 38.38C356.977 38.1 357.35 37.72 357.63 37.24L358.89 37.98C358.637 38.4333 358.31 38.8267 357.91 39.16C357.524 39.4933 357.064 39.7533 356.53 39.94C356.01 40.1133 355.424 40.2 354.77 40.2ZM367.973 33.54C367.973 32.7933 367.773 32.22 367.373 31.82C366.973 31.4067 366.407 31.2 365.673 31.2C364.98 31.2 364.393 31.3533 363.913 31.66C363.433 31.9533 363.08 32.4333 362.853 33.1L361.553 32.3C361.82 31.5533 362.313 30.9533 363.033 30.5C363.753 30.0333 364.647 29.8 365.713 29.8C366.433 29.8 367.087 29.9267 367.673 30.18C368.26 30.42 368.72 30.7933 369.053 31.3C369.4 31.7933 369.573 32.4333 369.573 33.22V38.06C369.573 38.54 369.827 38.78 370.333 38.78C370.587 38.78 370.833 38.7467 371.073 38.68L370.993 39.94C370.727 40.0733 370.38 40.14 369.953 40.14C369.567 40.14 369.22 40.0667 368.913 39.92C368.607 39.7733 368.367 39.5533 368.193 39.26C368.02 38.9533 367.933 38.5733 367.933 38.12V37.92L368.333 37.98C368.173 38.5 367.9 38.9267 367.513 39.26C367.127 39.58 366.693 39.82 366.213 39.98C365.733 40.1267 365.26 40.2 364.793 40.2C364.207 40.2 363.66 40.1 363.153 39.9C362.647 39.7 362.24 39.4 361.933 39C361.64 38.5867 361.493 38.08 361.493 37.48C361.493 36.7333 361.74 36.12 362.233 35.64C362.74 35.1467 363.44 34.8133 364.333 34.64L368.293 33.86V35.18L365.073 35.84C364.42 35.9733 363.933 36.16 363.613 36.4C363.293 36.64 363.133 36.9733 363.133 37.4C363.133 37.8133 363.293 38.1533 363.613 38.42C363.947 38.6733 364.413 38.8 365.013 38.8C365.4 38.8 365.767 38.7533 366.113 38.66C366.473 38.5533 366.793 38.4 367.073 38.2C367.353 37.9867 367.573 37.7267 367.733 37.42C367.893 37.1 367.973 36.7267 367.973 36.3V33.54ZM373.462 40V30H374.762L374.982 31.64C375.262 31.0267 375.668 30.5667 376.202 30.26C376.748 29.9533 377.408 29.8 378.182 29.8C378.355 29.8 378.542 29.8133 378.742 29.84C378.955 29.8667 379.135 29.92 379.282 30L379.002 31.46C378.855 31.4067 378.695 31.3667 378.522 31.34C378.348 31.3133 378.102 31.3 377.782 31.3C377.368 31.3 376.948 31.42 376.522 31.66C376.108 31.9 375.762 32.2667 375.482 32.76C375.202 33.24 375.062 33.8533 375.062 34.6V40H373.462ZM384.796 40.2C383.823 40.2 382.923 39.9933 382.096 39.58C381.283 39.1667 380.656 38.58 380.216 37.82L381.576 36.84C381.869 37.4533 382.296 37.9333 382.856 38.28C383.429 38.6267 384.116 38.8 384.916 38.8C385.623 38.8 386.176 38.6667 386.576 38.4C386.976 38.12 387.176 37.76 387.176 37.32C387.176 37.04 387.083 36.7867 386.896 36.56C386.723 36.32 386.383 36.1467 385.876 36.04L383.476 35.54C382.503 35.34 381.803 35.0067 381.376 34.54C380.963 34.0733 380.756 33.4933 380.756 32.8C380.756 32.2533 380.909 31.7533 381.216 31.3C381.536 30.8467 381.983 30.4867 382.556 30.22C383.143 29.94 383.829 29.8 384.616 29.8C385.603 29.8 386.436 29.9933 387.116 30.38C387.796 30.7667 388.303 31.3133 388.636 32.02L387.296 32.9C387.069 32.3133 386.703 31.8867 386.196 31.62C385.689 31.34 385.163 31.2 384.616 31.2C384.136 31.2 383.723 31.2667 383.376 31.4C383.043 31.5333 382.783 31.72 382.596 31.96C382.423 32.1867 382.336 32.4467 382.336 32.74C382.336 33.0333 382.436 33.3067 382.636 33.56C382.836 33.8 383.209 33.9733 383.756 34.08L386.256 34.6C387.189 34.7867 387.843 35.0933 388.216 35.52C388.589 35.9467 388.776 36.4667 388.776 37.08C388.776 37.7067 388.609 38.26 388.276 38.74C387.943 39.2067 387.476 39.5667 386.876 39.82C386.276 40.0733 385.583 40.2 384.796 40.2ZM410.65 30H412.43L408.95 40H407.35L404.53 32.04L401.87 40H400.27L396.79 30H398.57L401.09 38.14L403.81 30H405.41L408.13 38.14L410.65 30ZM415.629 28.08C415.269 28.08 414.975 27.9733 414.749 27.76C414.535 27.5333 414.429 27.24 414.429 26.88C414.429 26.52 414.535 26.2333 414.749 26.02C414.975 25.7933 415.269 25.68 415.629 25.68C415.989 25.68 416.275 25.7933 416.489 26.02C416.715 26.2333 416.829 26.52 416.829 26.88C416.829 27.24 416.715 27.5333 416.489 27.76C416.275 27.9733 415.989 28.08 415.629 28.08ZM416.429 30V40H414.829V30H416.429ZM422.501 27.16V37.24C422.501 37.7333 422.641 38.1 422.921 38.34C423.201 38.58 423.561 38.7 424.001 38.7C424.388 38.7 424.721 38.6333 425.001 38.5C425.281 38.3667 425.535 38.1867 425.761 37.96L426.321 39.3C426.015 39.58 425.648 39.8 425.221 39.96C424.808 40.12 424.328 40.2 423.781 40.2C423.275 40.2 422.801 40.1133 422.361 39.94C421.921 39.7533 421.568 39.4667 421.301 39.08C421.048 38.68 420.915 38.16 420.901 37.52V27.6L422.501 27.16ZM426.141 30V31.38H418.901V30H426.141ZM428.52 40V25.4H430.12V31.5C430.467 30.9 430.927 30.4667 431.5 30.2C432.073 29.9333 432.7 29.8 433.38 29.8C434.1 29.8 434.753 29.94 435.34 30.22C435.927 30.4867 436.393 30.9 436.74 31.46C437.1 32.02 437.28 32.7333 437.28 33.6V40H435.68V34.16C435.68 33.0533 435.44 32.2867 434.96 31.86C434.493 31.42 433.913 31.2 433.22 31.2C432.74 31.2 432.26 31.3133 431.78 31.54C431.3 31.7667 430.9 32.14 430.58 32.66C430.273 33.1667 430.12 33.8467 430.12 34.7V40H428.52ZM453.559 33.54C453.559 32.7933 453.359 32.22 452.959 31.82C452.559 31.4067 451.993 31.2 451.259 31.2C450.566 31.2 449.979 31.3533 449.499 31.66C449.019 31.9533 448.666 32.4333 448.439 33.1L447.139 32.3C447.406 31.5533 447.899 30.9533 448.619 30.5C449.339 30.0333 450.233 29.8 451.299 29.8C452.019 29.8 452.673 29.9267 453.259 30.18C453.846 30.42 454.306 30.7933 454.639 31.3C454.986 31.7933 455.159 32.4333 455.159 33.22V38.06C455.159 38.54 455.413 38.78 455.919 38.78C456.173 38.78 456.419 38.7467 456.659 38.68L456.579 39.94C456.313 40.0733 455.966 40.14 455.539 40.14C455.153 40.14 454.806 40.0667 454.499 39.92C454.193 39.7733 453.953 39.5533 453.779 39.26C453.606 38.9533 453.519 38.5733 453.519 38.12V37.92L453.919 37.98C453.759 38.5 453.486 38.9267 453.099 39.26C452.713 39.58 452.279 39.82 451.799 39.98C451.319 40.1267 450.846 40.2 450.379 40.2C449.793 40.2 449.246 40.1 448.739 39.9C448.233 39.7 447.826 39.4 447.519 39C447.226 38.5867 447.079 38.08 447.079 37.48C447.079 36.7333 447.326 36.12 447.819 35.64C448.326 35.1467 449.026 34.8133 449.919 34.64L453.879 33.86V35.18L450.659 35.84C450.006 35.9733 449.519 36.16 449.199 36.4C448.879 36.64 448.719 36.9733 448.719 37.4C448.719 37.8133 448.879 38.1533 449.199 38.42C449.533 38.6733 449.999 38.8 450.599 38.8C450.986 38.8 451.353 38.7533 451.699 38.66C452.059 38.5533 452.379 38.4 452.659 38.2C452.939 37.9867 453.159 37.7267 453.319 37.42C453.479 37.1 453.559 36.7267 453.559 36.3V33.54ZM469.535 29.8C470.228 29.8 470.835 29.9067 471.355 30.12C471.888 30.3333 472.348 30.64 472.735 31.04C473.122 31.44 473.435 31.9133 473.675 32.46L472.155 33.18C471.942 32.54 471.615 32.0533 471.175 31.72C470.748 31.3733 470.188 31.2 469.495 31.2C468.828 31.2 468.255 31.3533 467.775 31.66C467.295 31.9533 466.928 32.3867 466.675 32.96C466.422 33.52 466.295 34.2 466.295 35C466.295 35.7867 466.422 36.4667 466.675 37.04C466.928 37.6133 467.295 38.0533 467.775 38.36C468.255 38.6533 468.828 38.8 469.495 38.8C470.015 38.8 470.462 38.72 470.835 38.56C471.222 38.4 471.535 38.1667 471.775 37.86C472.028 37.5533 472.202 37.18 472.295 36.74L473.775 37.26C473.548 37.8733 473.235 38.4 472.835 38.84C472.448 39.28 471.975 39.62 471.415 39.86C470.868 40.0867 470.242 40.2 469.535 40.2C468.602 40.2 467.768 39.9933 467.035 39.58C466.302 39.1667 465.728 38.5733 465.315 37.8C464.902 37.0133 464.695 36.08 464.695 35C464.695 33.92 464.902 32.9933 465.315 32.22C465.728 31.4333 466.302 30.8333 467.035 30.42C467.768 30.0067 468.602 29.8 469.535 29.8ZM482.427 33.54C482.427 32.7933 482.227 32.22 481.827 31.82C481.427 31.4067 480.86 31.2 480.127 31.2C479.433 31.2 478.847 31.3533 478.367 31.66C477.887 31.9533 477.533 32.4333 477.307 33.1L476.007 32.3C476.273 31.5533 476.767 30.9533 477.487 30.5C478.207 30.0333 479.1 29.8 480.167 29.8C480.887 29.8 481.54 29.9267 482.127 30.18C482.713 30.42 483.173 30.7933 483.507 31.3C483.853 31.7933 484.027 32.4333 484.027 33.22V38.06C484.027 38.54 484.28 38.78 484.787 38.78C485.04 38.78 485.287 38.7467 485.527 38.68L485.447 39.94C485.18 40.0733 484.833 40.14 484.407 40.14C484.02 40.14 483.673 40.0667 483.367 39.92C483.06 39.7733 482.82 39.5533 482.647 39.26C482.473 38.9533 482.387 38.5733 482.387 38.12V37.92L482.787 37.98C482.627 38.5 482.353 38.9267 481.967 39.26C481.58 39.58 481.147 39.82 480.667 39.98C480.187 40.1267 479.713 40.2 479.247 40.2C478.66 40.2 478.113 40.1 477.607 39.9C477.1 39.7 476.693 39.4 476.387 39C476.093 38.5867 475.947 38.08 475.947 37.48C475.947 36.7333 476.193 36.12 476.687 35.64C477.193 35.1467 477.893 34.8133 478.787 34.64L482.747 33.86V35.18L479.527 35.84C478.873 35.9733 478.387 36.16 478.067 36.4C477.747 36.64 477.587 36.9733 477.587 37.4C477.587 37.8133 477.747 38.1533 478.067 38.42C478.4 38.6733 478.867 38.8 479.467 38.8C479.853 38.8 480.22 38.7533 480.567 38.66C480.927 38.5533 481.247 38.4 481.527 38.2C481.807 37.9867 482.027 37.7267 482.187 37.42C482.347 37.1 482.427 36.7267 482.427 36.3V33.54ZM487.915 40V30H489.315L489.415 31.56C489.775 30.9467 490.241 30.5 490.815 30.22C491.401 29.94 492.001 29.8 492.615 29.8C493.321 29.8 493.988 29.96 494.615 30.28C495.241 30.6 495.721 31.0933 496.055 31.76C496.268 31.3067 496.568 30.94 496.955 30.66C497.341 30.3667 497.761 30.1533 498.215 30.02C498.681 29.8733 499.121 29.8 499.535 29.8C500.175 29.8 500.781 29.9333 501.355 30.2C501.941 30.4667 502.421 30.88 502.795 31.44C503.168 32 503.355 32.72 503.355 33.6V40H501.755V33.76C501.755 32.8533 501.528 32.2 501.075 31.8C500.621 31.4 500.061 31.2 499.395 31.2C498.875 31.2 498.388 31.3267 497.935 31.58C497.481 31.8333 497.115 32.2067 496.835 32.7C496.568 33.1933 496.435 33.8 496.435 34.52V40H494.835V33.76C494.835 32.8533 494.608 32.2 494.155 31.8C493.701 31.4 493.141 31.2 492.475 31.2C492.035 31.2 491.581 31.32 491.115 31.56C490.661 31.7867 490.281 32.1533 489.975 32.66C489.668 33.1667 489.515 33.8333 489.515 34.66V40H487.915ZM511.157 40.2C510.211 40.2 509.364 39.9933 508.617 39.58C507.884 39.1667 507.311 38.5733 506.897 37.8C506.484 37.0133 506.277 36.08 506.277 35C506.277 33.92 506.484 32.9933 506.897 32.22C507.311 31.4333 507.877 30.8333 508.597 30.42C509.317 30.0067 510.137 29.8 511.057 29.8C511.991 29.8 512.784 30 513.437 30.4C514.104 30.8 514.611 31.3467 514.957 32.04C515.304 32.72 515.477 33.4867 515.477 34.34C515.477 34.5667 515.471 34.7733 515.457 34.96C515.444 35.1467 515.424 35.3133 515.397 35.46H507.317V34.04H514.697L513.877 34.2C513.877 33.24 513.611 32.5 513.077 31.98C512.557 31.46 511.871 31.2 511.017 31.2C510.364 31.2 509.797 31.3533 509.317 31.66C508.851 31.9533 508.484 32.3867 508.217 32.96C507.964 33.52 507.837 34.2 507.837 35C507.837 35.7867 507.971 36.4667 508.237 37.04C508.504 37.6133 508.877 38.0533 509.357 38.36C509.851 38.6533 510.437 38.8 511.117 38.8C511.851 38.8 512.444 38.66 512.897 38.38C513.364 38.1 513.737 37.72 514.017 37.24L515.277 37.98C515.024 38.4333 514.697 38.8267 514.297 39.16C513.911 39.4933 513.451 39.7533 512.917 39.94C512.397 40.1133 511.811 40.2 511.157 40.2ZM518.52 40V30H519.82L520.04 31.64C520.32 31.0267 520.727 30.5667 521.26 30.26C521.807 29.9533 522.467 29.8 523.24 29.8C523.413 29.8 523.6 29.8133 523.8 29.84C524.013 29.8667 524.193 29.92 524.34 30L524.06 31.46C523.913 31.4067 523.753 31.3667 523.58 31.34C523.407 31.3133 523.16 31.3 522.84 31.3C522.427 31.3 522.007 31.42 521.58 31.66C521.167 31.9 520.82 32.2667 520.54 32.76C520.26 33.24 520.12 33.8533 520.12 34.6V40H518.52ZM532.251 33.54C532.251 32.7933 532.051 32.22 531.651 31.82C531.251 31.4067 530.684 31.2 529.951 31.2C529.257 31.2 528.671 31.3533 528.191 31.66C527.711 31.9533 527.357 32.4333 527.131 33.1L525.831 32.3C526.097 31.5533 526.591 30.9533 527.311 30.5C528.031 30.0333 528.924 29.8 529.991 29.8C530.711 29.8 531.364 29.9267 531.951 30.18C532.537 30.42 532.997 30.7933 533.331 31.3C533.677 31.7933 533.851 32.4333 533.851 33.22V38.06C533.851 38.54 534.104 38.78 534.611 38.78C534.864 38.78 535.111 38.7467 535.351 38.68L535.271 39.94C535.004 40.0733 534.657 40.14 534.231 40.14C533.844 40.14 533.497 40.0667 533.191 39.92C532.884 39.7733 532.644 39.5533 532.471 39.26C532.297 38.9533 532.211 38.5733 532.211 38.12V37.92L532.611 37.98C532.451 38.5 532.177 38.9267 531.791 39.26C531.404 39.58 530.971 39.82 530.491 39.98C530.011 40.1267 529.537 40.2 529.071 40.2C528.484 40.2 527.937 40.1 527.431 39.9C526.924 39.7 526.517 39.4 526.211 39C525.917 38.5867 525.771 38.08 525.771 37.48C525.771 36.7333 526.017 36.12 526.511 35.64C527.017 35.1467 527.717 34.8133 528.611 34.64L532.571 33.86V35.18L529.351 35.84C528.697 35.9733 528.211 36.16 527.891 36.4C527.571 36.64 527.411 36.9733 527.411 37.4C527.411 37.8133 527.571 38.1533 527.891 38.42C528.224 38.6733 528.691 38.8 529.291 38.8C529.677 38.8 530.044 38.7533 530.391 38.66C530.751 38.5533 531.071 38.4 531.351 38.2C531.631 37.9867 531.851 37.7267 532.011 37.42C532.171 37.1 532.251 36.7267 532.251 36.3V33.54ZM538.539 37.6C538.859 37.6 539.126 37.6867 539.339 37.86C539.566 38.02 539.739 38.2467 539.859 38.54C539.979 38.82 540.039 39.1533 540.039 39.54C540.039 39.98 539.959 40.4133 539.799 40.84C539.652 41.2667 539.419 41.66 539.099 42.02C538.779 42.38 538.366 42.68 537.859 42.92L537.019 42.14C537.379 42.02 537.692 41.8533 537.959 41.64C538.239 41.4267 538.466 41.1867 538.639 40.92C538.812 40.6533 538.926 40.38 538.979 40.1L538.899 40.06C538.846 40.1 538.779 40.1333 538.699 40.16C538.619 40.1867 538.499 40.2 538.339 40.2C538.179 40.2 538.012 40.1533 537.839 40.06C537.679 39.9667 537.539 39.8333 537.419 39.66C537.299 39.4733 537.239 39.2333 537.239 38.94C537.239 38.7 537.299 38.48 537.419 38.28C537.539 38.0667 537.692 37.9 537.879 37.78C538.079 37.66 538.299 37.6 538.539 37.6ZM6.04 66.2C5.09333 66.2 4.24667 65.9933 3.5 65.58C2.76667 65.1667 2.19333 64.5733 1.78 63.8C1.36667 63.0133 1.16 62.08 1.16 61C1.16 59.92 1.36667 58.9933 1.78 58.22C2.19333 57.4333 2.76 56.8333 3.48 56.42C4.2 56.0067 5.02 55.8 5.94 55.8C6.87333 55.8 7.66667 56 8.32 56.4C8.98667 56.8 9.49333 57.3467 9.84 58.04C10.1867 58.72 10.36 59.4867 10.36 60.34C10.36 60.5667 10.3533 60.7733 10.34 60.96C10.3267 61.1467 10.3067 61.3133 10.28 61.46H2.2V60.04H9.58L8.76 60.2C8.76 59.24 8.49333 58.5 7.96 57.98C7.44 57.46 6.75333 57.2 5.9 57.2C5.24667 57.2 4.68 57.3533 4.2 57.66C3.73333 57.9533 3.36667 58.3867 3.1 58.96C2.84667 59.52 2.72 60.2 2.72 61C2.72 61.7867 2.85333 62.4667 3.12 63.04C3.38667 63.6133 3.76 64.0533 4.24 64.36C4.73333 64.6533 5.32 64.8 6 64.8C6.73333 64.8 7.32667 64.66 7.78 64.38C8.24667 64.1 8.62 63.72 8.9 63.24L10.16 63.98C9.90667 64.4333 9.58 64.8267 9.18 65.16C8.79333 65.4933 8.33333 65.7533 7.8 65.94C7.28 66.1133 6.69333 66.2 6.04 66.2ZM19.7495 56H21.4295L17.2695 66H15.6695L11.5095 56H13.3295L16.4895 64.38L19.7495 56ZM27.7002 66.2C26.7535 66.2 25.9068 65.9933 25.1602 65.58C24.4268 65.1667 23.8535 64.5733 23.4402 63.8C23.0268 63.0133 22.8202 62.08 22.8202 61C22.8202 59.92 23.0268 58.9933 23.4402 58.22C23.8535 57.4333 24.4202 56.8333 25.1402 56.42C25.8602 56.0067 26.6802 55.8 27.6002 55.8C28.5335 55.8 29.3268 56 29.9802 56.4C30.6468 56.8 31.1535 57.3467 31.5002 58.04C31.8468 58.72 32.0202 59.4867 32.0202 60.34C32.0202 60.5667 32.0135 60.7733 32.0002 60.96C31.9868 61.1467 31.9668 61.3133 31.9402 61.46H23.8602V60.04H31.2402L30.4202 60.2C30.4202 59.24 30.1535 58.5 29.6202 57.98C29.1002 57.46 28.4135 57.2 27.5602 57.2C26.9068 57.2 26.3402 57.3533 25.8602 57.66C25.3935 57.9533 25.0268 58.3867 24.7602 58.96C24.5068 59.52 24.3802 60.2 24.3802 61C24.3802 61.7867 24.5135 62.4667 24.7802 63.04C25.0468 63.6133 25.4202 64.0533 25.9002 64.36C26.3935 64.6533 26.9802 64.8 27.6602 64.8C28.3935 64.8 28.9868 64.66 29.4402 64.38C29.9068 64.1 30.2802 63.72 30.5602 63.24L31.8202 63.98C31.5668 64.4333 31.2402 64.8267 30.8402 65.16C30.4535 65.4933 29.9935 65.7533 29.4602 65.94C28.9402 66.1133 28.3535 66.2 27.7002 66.2ZM35.0631 66V56H36.4631L36.6031 58.24L36.3431 58.02C36.5565 57.4867 36.8431 57.06 37.2031 56.74C37.5631 56.4067 37.9765 56.1667 38.4431 56.02C38.9231 55.8733 39.4165 55.8 39.9231 55.8C40.6431 55.8 41.2965 55.94 41.8831 56.22C42.4698 56.4867 42.9365 56.9 43.2831 57.46C43.6431 58.02 43.8231 58.7333 43.8231 59.6V66H42.2231V60.16C42.2231 59.0533 41.9831 58.2867 41.5031 57.86C41.0365 57.42 40.4565 57.2 39.7631 57.2C39.2831 57.2 38.8031 57.3133 38.3231 57.54C37.8431 57.7667 37.4431 58.1333 37.1231 58.64C36.8165 59.1467 36.6631 59.8267 36.6631 60.68V66H35.0631ZM56.2317 53.16V63.24C56.2317 63.7333 56.3717 64.1 56.6517 64.34C56.9317 64.58 57.2917 64.7 57.7317 64.7C58.1184 64.7 58.4517 64.6333 58.7317 64.5C59.0117 64.3667 59.2651 64.1867 59.4917 63.96L60.0517 65.3C59.7451 65.58 59.3784 65.8 58.9517 65.96C58.5384 66.12 58.0584 66.2 57.5117 66.2C57.0051 66.2 56.5317 66.1133 56.0917 65.94C55.6517 65.7533 55.2984 65.4667 55.0317 65.08C54.7784 64.68 54.6451 64.16 54.6317 63.52V53.6L56.2317 53.16ZM59.8717 56V57.38H52.6317V56H59.8717ZM62.2506 66V51.4H63.8506V57.5C64.1973 56.9 64.6573 56.4667 65.2306 56.2C65.804 55.9333 66.4306 55.8 67.1106 55.8C67.8306 55.8 68.484 55.94 69.0706 56.22C69.6573 56.4867 70.124 56.9 70.4706 57.46C70.8306 58.02 71.0106 58.7333 71.0106 59.6V66H69.4106V60.16C69.4106 59.0533 69.1706 58.2867 68.6906 57.86C68.224 57.42 67.644 57.2 66.9506 57.2C66.4706 57.2 65.9906 57.3133 65.5106 57.54C65.0306 57.7667 64.6306 58.14 64.3106 58.66C64.004 59.1667 63.8506 59.8467 63.8506 60.7V66H62.2506ZM78.7734 55.8C79.7201 55.8 80.5534 56.0067 81.2734 56.42C82.0068 56.8333 82.5801 57.4333 82.9934 58.22C83.4068 58.9933 83.6134 59.92 83.6134 61C83.6134 62.08 83.4068 63.0133 82.9934 63.8C82.5801 64.5733 82.0068 65.1667 81.2734 65.58C80.5534 65.9933 79.7201 66.2 78.7734 66.2C77.8401 66.2 77.0068 65.9933 76.2734 65.58C75.5401 65.1667 74.9668 64.5733 74.5534 63.8C74.1401 63.0133 73.9334 62.08 73.9334 61C73.9334 59.92 74.1401 58.9933 74.5534 58.22C74.9668 57.4333 75.5401 56.8333 76.2734 56.42C77.0068 56.0067 77.8401 55.8 78.7734 55.8ZM78.7734 57.18C78.0934 57.18 77.5134 57.3333 77.0334 57.64C76.5534 57.9467 76.1801 58.3867 75.9134 58.96C75.6601 59.52 75.5334 60.2 75.5334 61C75.5334 61.7867 75.6601 62.4667 75.9134 63.04C76.1801 63.6133 76.5534 64.0533 77.0334 64.36C77.5134 64.6667 78.0934 64.82 78.7734 64.82C79.4534 64.82 80.0334 64.6667 80.5134 64.36C80.9934 64.0533 81.3601 63.6133 81.6134 63.04C81.8801 62.4667 82.0134 61.7867 82.0134 61C82.0134 60.2 81.8801 59.52 81.6134 58.96C81.3601 58.3867 80.9934 57.9467 80.5134 57.64C80.0334 57.3333 79.4534 57.18 78.7734 57.18ZM90.2456 66.2C89.6056 66.2 88.999 66.08 88.4256 65.84C87.8656 65.6 87.4056 65.2133 87.0456 64.68C86.699 64.1333 86.5256 63.4267 86.5256 62.56V56H88.1256V62.14C88.1256 63.1533 88.3456 63.8533 88.7856 64.24C89.2256 64.6133 89.8456 64.8 90.6456 64.8C91.019 64.8 91.3856 64.74 91.7456 64.62C92.1056 64.4867 92.4256 64.2867 92.7056 64.02C92.999 63.74 93.2256 63.3867 93.3856 62.96C93.559 62.5333 93.6456 62.0267 93.6456 61.44V56H95.2456V66H93.8456L93.7456 64.48C93.399 65.08 92.9256 65.52 92.3256 65.8C91.739 66.0667 91.0456 66.2 90.2456 66.2ZM107.389 54.16L107.749 55.58C107.736 55.58 107.716 55.58 107.689 55.58C107.663 55.58 107.636 55.58 107.609 55.58C106.956 55.58 106.449 55.7133 106.089 55.98C105.743 56.2333 105.569 56.6467 105.569 57.22L104.589 56.72C104.589 56.2 104.709 55.7467 104.949 55.36C105.189 54.9733 105.516 54.68 105.929 54.48C106.343 54.2667 106.796 54.16 107.289 54.16C107.303 54.16 107.316 54.16 107.329 54.16C107.356 54.16 107.376 54.16 107.389 54.16ZM104.349 64.72C105.296 64.72 106.036 64.94 106.569 65.38C107.103 65.8067 107.369 66.38 107.369 67.1C107.369 67.7533 107.149 68.32 106.709 68.8C106.283 69.28 105.703 69.6467 104.969 69.9C104.249 70.1667 103.436 70.3 102.529 70.3C100.956 70.3 99.776 70.0333 98.9894 69.5C98.216 68.9667 97.8294 68.3267 97.8294 67.58C97.8294 67.0467 98.0027 66.5667 98.3494 66.14C98.7094 65.7267 99.3094 65.4933 100.149 65.44L100.009 65.74C99.556 65.62 99.1694 65.42 98.8494 65.14C98.5427 64.8467 98.3894 64.4267 98.3894 63.88C98.3894 63.3333 98.5894 62.8667 98.9894 62.48C99.4027 62.08 100.009 61.8333 100.809 61.74L101.869 62.28H101.669C101.016 62.3467 100.549 62.5133 100.269 62.78C100.003 63.0333 99.8694 63.3133 99.8694 63.62C99.8694 63.9933 100.003 64.2733 100.269 64.46C100.549 64.6333 100.936 64.72 101.429 64.72H104.349ZM102.509 68.96C103.283 68.96 103.916 68.88 104.409 68.72C104.916 68.56 105.289 68.3533 105.529 68.1C105.769 67.8467 105.889 67.5733 105.889 67.28C105.889 66.92 105.743 66.6333 105.449 66.42C105.169 66.2067 104.656 66.1 103.909 66.1H100.829C100.403 66.1 100.043 66.2067 99.7494 66.42C99.456 66.6467 99.3094 66.9533 99.3094 67.34C99.3094 67.8333 99.5894 68.2267 100.149 68.52C100.723 68.8133 101.509 68.96 102.509 68.96ZM102.369 55.8C103.169 55.8 103.876 55.9467 104.489 56.24C105.116 56.52 105.603 56.9133 105.949 57.42C106.296 57.9267 106.469 58.5133 106.469 59.18C106.469 59.8333 106.296 60.42 105.949 60.94C105.603 61.4467 105.116 61.8467 104.489 62.14C103.876 62.42 103.169 62.56 102.369 62.56C101.049 62.56 100.036 62.2467 99.3294 61.62C98.6227 60.98 98.2694 60.1667 98.2694 59.18C98.2694 58.5133 98.4427 57.9267 98.7894 57.42C99.1494 56.9133 99.636 56.52 100.249 56.24C100.863 55.9467 101.569 55.8 102.369 55.8ZM102.369 57.1C101.676 57.1 101.096 57.2933 100.629 57.68C100.163 58.0533 99.9294 58.5533 99.9294 59.18C99.9294 59.7933 100.163 60.2933 100.629 60.68C101.096 61.0667 101.676 61.26 102.369 61.26C103.063 61.26 103.643 61.0667 104.109 60.68C104.576 60.2933 104.809 59.7933 104.809 59.18C104.809 58.5533 104.576 58.0533 104.109 57.68C103.643 57.2933 103.063 57.1 102.369 57.1ZM109.614 66V51.4H111.214V57.5C111.561 56.9 112.021 56.4667 112.594 56.2C113.167 55.9333 113.794 55.8 114.474 55.8C115.194 55.8 115.847 55.94 116.434 56.22C117.021 56.4867 117.487 56.9 117.834 57.46C118.194 58.02 118.374 58.7333 118.374 59.6V66H116.774V60.16C116.774 59.0533 116.534 58.2867 116.054 57.86C115.587 57.42 115.007 57.2 114.314 57.2C113.834 57.2 113.354 57.3133 112.874 57.54C112.394 57.7667 111.994 58.14 111.674 58.66C111.367 59.1667 111.214 59.8467 111.214 60.7V66H109.614ZM128.813 66V51.4H130.413V57.5C130.76 56.9 131.22 56.4667 131.793 56.2C132.366 55.9333 132.993 55.8 133.673 55.8C134.393 55.8 135.046 55.94 135.633 56.22C136.22 56.4867 136.686 56.9 137.033 57.46C137.393 58.02 137.573 58.7333 137.573 59.6V66H135.973V60.16C135.973 59.0533 135.733 58.2867 135.253 57.86C134.786 57.42 134.206 57.2 133.513 57.2C133.033 57.2 132.553 57.3133 132.073 57.54C131.593 57.7667 131.193 58.14 130.873 58.66C130.566 59.1667 130.413 59.8467 130.413 60.7V66H128.813ZM145.376 66.2C144.429 66.2 143.583 65.9933 142.836 65.58C142.103 65.1667 141.529 64.5733 141.116 63.8C140.703 63.0133 140.496 62.08 140.496 61C140.496 59.92 140.703 58.9933 141.116 58.22C141.529 57.4333 142.096 56.8333 142.816 56.42C143.536 56.0067 144.356 55.8 145.276 55.8C146.209 55.8 147.003 56 147.656 56.4C148.323 56.8 148.829 57.3467 149.176 58.04C149.523 58.72 149.696 59.4867 149.696 60.34C149.696 60.5667 149.689 60.7733 149.676 60.96C149.663 61.1467 149.643 61.3133 149.616 61.46H141.536V60.04H148.916L148.096 60.2C148.096 59.24 147.829 58.5 147.296 57.98C146.776 57.46 146.089 57.2 145.236 57.2C144.583 57.2 144.016 57.3533 143.536 57.66C143.069 57.9533 142.703 58.3867 142.436 58.96C142.183 59.52 142.056 60.2 142.056 61C142.056 61.7867 142.189 62.4667 142.456 63.04C142.723 63.6133 143.096 64.0533 143.576 64.36C144.069 64.6533 144.656 64.8 145.336 64.8C146.069 64.8 146.663 64.66 147.116 64.38C147.583 64.1 147.956 63.72 148.236 63.24L149.496 63.98C149.243 64.4333 148.916 64.8267 148.516 65.16C148.129 65.4933 147.669 65.7533 147.136 65.94C146.616 66.1133 146.029 66.2 145.376 66.2ZM163.455 66.2C162.629 66.2 161.869 65.9933 161.175 65.58C160.482 65.1667 159.929 64.5733 159.515 63.8C159.102 63.0133 158.895 62.08 158.895 61C158.895 59.8933 159.115 58.9533 159.555 58.18C159.995 57.4067 160.575 56.82 161.295 56.42C162.015 56.0067 162.789 55.8 163.615 55.8C164.442 55.8 165.155 56.0133 165.755 56.44C166.369 56.8667 166.775 57.4333 166.975 58.14L166.775 58.28V51.4H168.375V66H166.975L166.835 63.58L167.055 63.46C166.962 64.0467 166.735 64.5467 166.375 64.96C166.029 65.36 165.595 65.6667 165.075 65.88C164.569 66.0933 164.029 66.2 163.455 66.2ZM163.615 64.8C164.255 64.8 164.809 64.64 165.275 64.32C165.755 64 166.122 63.5467 166.375 62.96C166.642 62.36 166.775 61.66 166.775 60.86C166.775 60.1 166.642 59.4467 166.375 58.9C166.122 58.3533 165.762 57.9333 165.295 57.64C164.842 57.3467 164.309 57.2 163.695 57.2C162.682 57.2 161.895 57.5467 161.335 58.24C160.775 58.9333 160.495 59.8533 160.495 61C160.495 62.1467 160.769 63.0667 161.315 63.76C161.862 64.4533 162.629 64.8 163.615 64.8ZM176.234 55.8C177.181 55.8 178.014 56.0067 178.734 56.42C179.468 56.8333 180.041 57.4333 180.454 58.22C180.868 58.9933 181.074 59.92 181.074 61C181.074 62.08 180.868 63.0133 180.454 63.8C180.041 64.5733 179.468 65.1667 178.734 65.58C178.014 65.9933 177.181 66.2 176.234 66.2C175.301 66.2 174.468 65.9933 173.734 65.58C173.001 65.1667 172.428 64.5733 172.014 63.8C171.601 63.0133 171.394 62.08 171.394 61C171.394 59.92 171.601 58.9933 172.014 58.22C172.428 57.4333 173.001 56.8333 173.734 56.42C174.468 56.0067 175.301 55.8 176.234 55.8ZM176.234 57.18C175.554 57.18 174.974 57.3333 174.494 57.64C174.014 57.9467 173.641 58.3867 173.374 58.96C173.121 59.52 172.994 60.2 172.994 61C172.994 61.7867 173.121 62.4667 173.374 63.04C173.641 63.6133 174.014 64.0533 174.494 64.36C174.974 64.6667 175.554 64.82 176.234 64.82C176.914 64.82 177.494 64.6667 177.974 64.36C178.454 64.0533 178.821 63.6133 179.074 63.04C179.341 62.4667 179.474 61.7867 179.474 61C179.474 60.2 179.341 59.52 179.074 58.96C178.821 58.3867 178.454 57.9467 177.974 57.64C177.494 57.3333 176.914 57.18 176.234 57.18ZM188.267 66.2C187.32 66.2 186.473 65.9933 185.727 65.58C184.993 65.1667 184.42 64.5733 184.007 63.8C183.593 63.0133 183.387 62.08 183.387 61C183.387 59.92 183.593 58.9933 184.007 58.22C184.42 57.4333 184.987 56.8333 185.707 56.42C186.427 56.0067 187.247 55.8 188.167 55.8C189.1 55.8 189.893 56 190.547 56.4C191.213 56.8 191.72 57.3467 192.067 58.04C192.413 58.72 192.587 59.4867 192.587 60.34C192.587 60.5667 192.58 60.7733 192.567 60.96C192.553 61.1467 192.533 61.3133 192.507 61.46H184.427V60.04H191.807L190.987 60.2C190.987 59.24 190.72 58.5 190.187 57.98C189.667 57.46 188.98 57.2 188.127 57.2C187.473 57.2 186.907 57.3533 186.427 57.66C185.96 57.9533 185.593 58.3867 185.327 58.96C185.073 59.52 184.947 60.2 184.947 61C184.947 61.7867 185.08 62.4667 185.347 63.04C185.613 63.6133 185.987 64.0533 186.467 64.36C186.96 64.6533 187.547 64.8 188.227 64.8C188.96 64.8 189.553 64.66 190.007 64.38C190.473 64.1 190.847 63.72 191.127 63.24L192.387 63.98C192.133 64.4333 191.807 64.8267 191.407 65.16C191.02 65.4933 190.56 65.7533 190.027 65.94C189.507 66.1133 188.92 66.2 188.267 66.2ZM199.23 66.2C198.256 66.2 197.356 65.9933 196.53 65.58C195.716 65.1667 195.09 64.58 194.65 63.82L196.01 62.84C196.303 63.4533 196.73 63.9333 197.29 64.28C197.863 64.6267 198.55 64.8 199.35 64.8C200.056 64.8 200.61 64.6667 201.01 64.4C201.41 64.12 201.61 63.76 201.61 63.32C201.61 63.04 201.516 62.7867 201.33 62.56C201.156 62.32 200.816 62.1467 200.31 62.04L197.91 61.54C196.936 61.34 196.236 61.0067 195.81 60.54C195.396 60.0733 195.19 59.4933 195.19 58.8C195.19 58.2533 195.343 57.7533 195.65 57.3C195.97 56.8467 196.416 56.4867 196.99 56.22C197.576 55.94 198.263 55.8 199.05 55.8C200.036 55.8 200.87 55.9933 201.55 56.38C202.23 56.7667 202.736 57.3133 203.07 58.02L201.73 58.9C201.503 58.3133 201.136 57.8867 200.63 57.62C200.123 57.34 199.596 57.2 199.05 57.2C198.57 57.2 198.156 57.2667 197.81 57.4C197.476 57.5333 197.216 57.72 197.03 57.96C196.856 58.1867 196.77 58.4467 196.77 58.74C196.77 59.0333 196.87 59.3067 197.07 59.56C197.27 59.8 197.643 59.9733 198.19 60.08L200.69 60.6C201.623 60.7867 202.276 61.0933 202.65 61.52C203.023 61.9467 203.21 62.4667 203.21 63.08C203.21 63.7067 203.043 64.26 202.71 64.74C202.376 65.2067 201.91 65.5667 201.31 65.82C200.71 66.0733 200.016 66.2 199.23 66.2ZM206.176 66V56H207.576L207.716 58.24L207.456 58.02C207.67 57.4867 207.956 57.06 208.316 56.74C208.676 56.4067 209.09 56.1667 209.556 56.02C210.036 55.8733 210.53 55.8 211.036 55.8C211.756 55.8 212.41 55.94 212.996 56.22C213.583 56.4867 214.05 56.9 214.396 57.46C214.756 58.02 214.936 58.7333 214.936 59.6V66H213.336V60.16C213.336 59.0533 213.096 58.2867 212.616 57.86C212.15 57.42 211.57 57.2 210.876 57.2C210.396 57.2 209.916 57.3133 209.436 57.54C208.956 57.7667 208.556 58.1333 208.236 58.64C207.93 59.1467 207.776 59.8267 207.776 60.68V66H206.176ZM219.611 52.2L219.091 57.14H217.851V52.2H219.611ZM225.118 53.16V63.24C225.118 63.7333 225.258 64.1 225.538 64.34C225.818 64.58 226.178 64.7 226.618 64.7C227.005 64.7 227.338 64.6333 227.618 64.5C227.898 64.3667 228.152 64.1867 228.378 63.96L228.938 65.3C228.632 65.58 228.265 65.8 227.838 65.96C227.425 66.12 226.945 66.2 226.398 66.2C225.892 66.2 225.418 66.1133 224.978 65.94C224.538 65.7533 224.185 65.4667 223.918 65.08C223.665 64.68 223.532 64.16 223.518 63.52V53.6L225.118 53.16ZM228.758 56V57.38H221.518V56H228.758ZM243.794 59.54C243.794 58.7933 243.594 58.22 243.194 57.82C242.794 57.4067 242.227 57.2 241.494 57.2C240.8 57.2 240.214 57.3533 239.734 57.66C239.254 57.9533 238.9 58.4333 238.674 59.1L237.374 58.3C237.64 57.5533 238.134 56.9533 238.854 56.5C239.574 56.0333 240.467 55.8 241.534 55.8C242.254 55.8 242.907 55.9267 243.494 56.18C244.08 56.42 244.54 56.7933 244.874 57.3C245.22 57.7933 245.394 58.4333 245.394 59.22V64.06C245.394 64.54 245.647 64.78 246.154 64.78C246.407 64.78 246.654 64.7467 246.894 64.68L246.814 65.94C246.547 66.0733 246.2 66.14 245.774 66.14C245.387 66.14 245.04 66.0667 244.734 65.92C244.427 65.7733 244.187 65.5533 244.014 65.26C243.84 64.9533 243.754 64.5733 243.754 64.12V63.92L244.154 63.98C243.994 64.5 243.72 64.9267 243.334 65.26C242.947 65.58 242.514 65.82 242.034 65.98C241.554 66.1267 241.08 66.2 240.614 66.2C240.027 66.2 239.48 66.1 238.974 65.9C238.467 65.7 238.06 65.4 237.754 65C237.46 64.5867 237.314 64.08 237.314 63.48C237.314 62.7333 237.56 62.12 238.054 61.64C238.56 61.1467 239.26 60.8133 240.154 60.64L244.114 59.86V61.18L240.894 61.84C240.24 61.9733 239.754 62.16 239.434 62.4C239.114 62.64 238.954 62.9733 238.954 63.4C238.954 63.8133 239.114 64.1533 239.434 64.42C239.767 64.6733 240.234 64.8 240.834 64.8C241.22 64.8 241.587 64.7533 241.934 64.66C242.294 64.5533 242.614 64.4 242.894 64.2C243.174 63.9867 243.394 63.7267 243.554 63.42C243.714 63.1 243.794 62.7267 243.794 62.3V59.54ZM249.282 70.2V56H250.682L250.822 58.44L250.602 58.16C250.775 57.6933 251.035 57.2867 251.382 56.94C251.729 56.58 252.149 56.3 252.642 56.1C253.135 55.9 253.669 55.8 254.242 55.8C255.055 55.8 255.802 56.0067 256.482 56.42C257.175 56.8333 257.729 57.4267 258.142 58.2C258.555 58.9733 258.762 59.9067 258.762 61C258.762 62.08 258.549 63.0133 258.122 63.8C257.709 64.5733 257.155 65.1667 256.462 65.58C255.769 65.9933 255.009 66.2 254.182 66.2C253.355 66.2 252.629 66 252.002 65.6C251.389 65.1867 250.949 64.6667 250.682 64.04L250.882 63.74V70.2H249.282ZM254.022 64.8C255.009 64.8 255.775 64.4533 256.322 63.76C256.882 63.0667 257.162 62.1467 257.162 61C257.162 59.8533 256.889 58.9333 256.342 58.24C255.809 57.5467 255.055 57.2 254.082 57.2C253.442 57.2 252.882 57.36 252.402 57.68C251.922 57.9867 251.549 58.4267 251.282 59C251.015 59.56 250.882 60.2267 250.882 61C250.882 61.76 251.009 62.4267 251.262 63C251.529 63.5733 251.895 64.02 252.362 64.34C252.842 64.6467 253.395 64.8 254.022 64.8ZM261.821 70.2V56H263.221L263.361 58.44L263.141 58.16C263.314 57.6933 263.574 57.2867 263.921 56.94C264.268 56.58 264.688 56.3 265.181 56.1C265.674 55.9 266.208 55.8 266.781 55.8C267.594 55.8 268.341 56.0067 269.021 56.42C269.714 56.8333 270.268 57.4267 270.681 58.2C271.094 58.9733 271.301 59.9067 271.301 61C271.301 62.08 271.088 63.0133 270.661 63.8C270.248 64.5733 269.694 65.1667 269.001 65.58C268.308 65.9933 267.548 66.2 266.721 66.2C265.894 66.2 265.168 66 264.541 65.6C263.928 65.1867 263.488 64.6667 263.221 64.04L263.421 63.74V70.2H261.821ZM266.561 64.8C267.548 64.8 268.314 64.4533 268.861 63.76C269.421 63.0667 269.701 62.1467 269.701 61C269.701 59.8533 269.428 58.9333 268.881 58.24C268.348 57.5467 267.594 57.2 266.621 57.2C265.981 57.2 265.421 57.36 264.941 57.68C264.461 57.9867 264.088 58.4267 263.821 59C263.554 59.56 263.421 60.2267 263.421 61C263.421 61.76 263.548 62.4267 263.801 63C264.068 63.5733 264.434 64.02 264.901 64.34C265.381 64.6467 265.934 64.8 266.561 64.8ZM278.54 66.2C277.593 66.2 276.747 65.9933 276 65.58C275.267 65.1667 274.693 64.5733 274.28 63.8C273.867 63.0133 273.66 62.08 273.66 61C273.66 59.92 273.867 58.9933 274.28 58.22C274.693 57.4333 275.26 56.8333 275.98 56.42C276.7 56.0067 277.52 55.8 278.44 55.8C279.373 55.8 280.167 56 280.82 56.4C281.487 56.8 281.993 57.3467 282.34 58.04C282.687 58.72 282.86 59.4867 282.86 60.34C282.86 60.5667 282.853 60.7733 282.84 60.96C282.827 61.1467 282.807 61.3133 282.78 61.46H274.7V60.04H282.08L281.26 60.2C281.26 59.24 280.993 58.5 280.46 57.98C279.94 57.46 279.253 57.2 278.4 57.2C277.747 57.2 277.18 57.3533 276.7 57.66C276.233 57.9533 275.867 58.3867 275.6 58.96C275.347 59.52 275.22 60.2 275.22 61C275.22 61.7867 275.353 62.4667 275.62 63.04C275.887 63.6133 276.26 64.0533 276.74 64.36C277.233 64.6533 277.82 64.8 278.5 64.8C279.233 64.8 279.827 64.66 280.28 64.38C280.747 64.1 281.12 63.72 281.4 63.24L282.66 63.98C282.407 64.4333 282.08 64.8267 281.68 65.16C281.293 65.4933 280.833 65.7533 280.3 65.94C279.78 66.1133 279.193 66.2 278.54 66.2ZM291.743 59.54C291.743 58.7933 291.543 58.22 291.143 57.82C290.743 57.4067 290.176 57.2 289.443 57.2C288.75 57.2 288.163 57.3533 287.683 57.66C287.203 57.9533 286.85 58.4333 286.623 59.1L285.323 58.3C285.59 57.5533 286.083 56.9533 286.803 56.5C287.523 56.0333 288.416 55.8 289.483 55.8C290.203 55.8 290.856 55.9267 291.443 56.18C292.03 56.42 292.49 56.7933 292.823 57.3C293.17 57.7933 293.343 58.4333 293.343 59.22V64.06C293.343 64.54 293.596 64.78 294.103 64.78C294.356 64.78 294.603 64.7467 294.843 64.68L294.763 65.94C294.496 66.0733 294.15 66.14 293.723 66.14C293.336 66.14 292.99 66.0667 292.683 65.92C292.376 65.7733 292.136 65.5533 291.963 65.26C291.79 64.9533 291.703 64.5733 291.703 64.12V63.92L292.103 63.98C291.943 64.5 291.67 64.9267 291.283 65.26C290.896 65.58 290.463 65.82 289.983 65.98C289.503 66.1267 289.03 66.2 288.563 66.2C287.976 66.2 287.43 66.1 286.923 65.9C286.416 65.7 286.01 65.4 285.703 65C285.41 64.5867 285.263 64.08 285.263 63.48C285.263 62.7333 285.51 62.12 286.003 61.64C286.51 61.1467 287.21 60.8133 288.103 60.64L292.063 59.86V61.18L288.843 61.84C288.19 61.9733 287.703 62.16 287.383 62.4C287.063 62.64 286.903 62.9733 286.903 63.4C286.903 63.8133 287.063 64.1533 287.383 64.42C287.716 64.6733 288.183 64.8 288.783 64.8C289.17 64.8 289.536 64.7533 289.883 64.66C290.243 64.5533 290.563 64.4 290.843 64.2C291.123 63.9867 291.343 63.7267 291.503 63.42C291.663 63.1 291.743 62.7267 291.743 62.3V59.54ZM297.231 66V56H298.531L298.751 57.64C299.031 57.0267 299.438 56.5667 299.971 56.26C300.518 55.9533 301.178 55.8 301.951 55.8C302.124 55.8 302.311 55.8133 302.511 55.84C302.724 55.8667 302.904 55.92 303.051 56L302.771 57.46C302.624 57.4067 302.464 57.3667 302.291 57.34C302.118 57.3133 301.871 57.3 301.551 57.3C301.138 57.3 300.718 57.42 300.291 57.66C299.878 57.9 299.531 58.2667 299.251 58.76C298.971 59.24 298.831 59.8533 298.831 60.6V66H297.231ZM312.543 54.08C312.183 54.08 311.889 53.9733 311.663 53.76C311.449 53.5333 311.343 53.24 311.343 52.88C311.343 52.52 311.449 52.2333 311.663 52.02C311.889 51.7933 312.183 51.68 312.543 51.68C312.903 51.68 313.189 51.7933 313.403 52.02C313.629 52.2333 313.743 52.52 313.743 52.88C313.743 53.24 313.629 53.5333 313.403 53.76C313.189 53.9733 312.903 54.08 312.543 54.08ZM313.343 56V66H311.743V56H313.343ZM317.055 66V56H318.455L318.595 58.24L318.335 58.02C318.549 57.4867 318.835 57.06 319.195 56.74C319.555 56.4067 319.969 56.1667 320.435 56.02C320.915 55.8733 321.409 55.8 321.915 55.8C322.635 55.8 323.289 55.94 323.875 56.22C324.462 56.4867 324.929 56.9 325.275 57.46C325.635 58.02 325.815 58.7333 325.815 59.6V66H324.215V60.16C324.215 59.0533 323.975 58.2867 323.495 57.86C323.029 57.42 322.449 57.2 321.755 57.2C321.275 57.2 320.795 57.3133 320.315 57.54C319.835 57.7667 319.435 58.1333 319.115 58.64C318.809 59.1467 318.655 59.8267 318.655 60.68V66H317.055ZM338.224 53.16V63.24C338.224 63.7333 338.364 64.1 338.644 64.34C338.924 64.58 339.284 64.7 339.724 64.7C340.111 64.7 340.444 64.6333 340.724 64.5C341.004 64.3667 341.257 64.1867 341.484 63.96L342.044 65.3C341.737 65.58 341.371 65.8 340.944 65.96C340.531 66.12 340.051 66.2 339.504 66.2C338.997 66.2 338.524 66.1133 338.084 65.94C337.644 65.7533 337.291 65.4667 337.024 65.08C336.771 64.68 336.637 64.16 336.624 63.52V53.6L338.224 53.16ZM341.864 56V57.38H334.624V56H341.864ZM344.243 66V51.4H345.843V57.5C346.189 56.9 346.649 56.4667 347.223 56.2C347.796 55.9333 348.423 55.8 349.103 55.8C349.823 55.8 350.476 55.94 351.063 56.22C351.649 56.4867 352.116 56.9 352.463 57.46C352.823 58.02 353.003 58.7333 353.003 59.6V66H351.403V60.16C351.403 59.0533 351.163 58.2867 350.683 57.86C350.216 57.42 349.636 57.2 348.943 57.2C348.463 57.2 347.983 57.3133 347.503 57.54C347.023 57.7667 346.623 58.14 346.303 58.66C345.996 59.1667 345.843 59.8467 345.843 60.7V66H344.243ZM360.806 66.2C359.859 66.2 359.012 65.9933 358.266 65.58C357.532 65.1667 356.959 64.5733 356.546 63.8C356.132 63.0133 355.926 62.08 355.926 61C355.926 59.92 356.132 58.9933 356.546 58.22C356.959 57.4333 357.526 56.8333 358.246 56.42C358.966 56.0067 359.786 55.8 360.706 55.8C361.639 55.8 362.432 56 363.086 56.4C363.752 56.8 364.259 57.3467 364.606 58.04C364.952 58.72 365.126 59.4867 365.126 60.34C365.126 60.5667 365.119 60.7733 365.106 60.96C365.092 61.1467 365.072 61.3133 365.046 61.46H356.966V60.04H364.346L363.526 60.2C363.526 59.24 363.259 58.5 362.726 57.98C362.206 57.46 361.519 57.2 360.666 57.2C360.012 57.2 359.446 57.3533 358.966 57.66C358.499 57.9533 358.132 58.3867 357.866 58.96C357.612 59.52 357.486 60.2 357.486 61C357.486 61.7867 357.619 62.4667 357.886 63.04C358.152 63.6133 358.526 64.0533 359.006 64.36C359.499 64.6533 360.086 64.8 360.766 64.8C361.499 64.8 362.092 64.66 362.546 64.38C363.012 64.1 363.386 63.72 363.666 63.24L364.926 63.98C364.672 64.4333 364.346 64.8267 363.946 65.16C363.559 65.4933 363.099 65.7533 362.566 65.94C362.046 66.1133 361.459 66.2 360.806 66.2ZM378.674 51.3C379.021 51.3 379.347 51.34 379.654 51.42C379.961 51.5 380.201 51.6133 380.374 51.76L379.954 53.06C379.794 52.9533 379.621 52.88 379.434 52.84C379.247 52.7867 379.041 52.76 378.814 52.76C378.241 52.76 377.794 52.9 377.474 53.18C377.154 53.4467 376.994 53.88 376.994 54.48V56V56.52V66H375.394V54.32C375.394 53.88 375.461 53.4733 375.594 53.1C375.727 52.7267 375.927 52.4067 376.194 52.14C376.474 51.8733 376.821 51.6667 377.234 51.52C377.647 51.3733 378.127 51.3 378.674 51.3ZM380.334 56V57.38H373.394V56H380.334ZM383.274 54.08C382.914 54.08 382.621 53.9733 382.394 53.76C382.181 53.5333 382.074 53.24 382.074 52.88C382.074 52.52 382.181 52.2333 382.394 52.02C382.621 51.7933 382.914 51.68 383.274 51.68C383.634 51.68 383.921 51.7933 384.134 52.02C384.361 52.2333 384.474 52.52 384.474 52.88C384.474 53.24 384.361 53.5333 384.134 53.76C383.921 53.9733 383.634 54.08 383.274 54.08ZM384.074 56V66H382.474V56H384.074ZM389.318 51.4V63.46C389.318 63.9667 389.411 64.32 389.598 64.52C389.784 64.7067 390.084 64.8 390.498 64.8C390.764 64.8 390.984 64.78 391.158 64.74C391.331 64.7 391.564 64.6267 391.858 64.52L391.598 65.92C391.384 66.0133 391.151 66.08 390.898 66.12C390.644 66.1733 390.384 66.2 390.118 66.2C389.304 66.2 388.698 65.98 388.298 65.54C387.911 65.1 387.718 64.4267 387.718 63.52V51.4H389.318ZM393.911 66V56H395.311L395.411 57.56C395.771 56.9467 396.237 56.5 396.811 56.22C397.397 55.94 397.997 55.8 398.611 55.8C399.317 55.8 399.984 55.96 400.611 56.28C401.237 56.6 401.717 57.0933 402.051 57.76C402.264 57.3067 402.564 56.94 402.951 56.66C403.337 56.3667 403.757 56.1533 404.211 56.02C404.677 55.8733 405.117 55.8 405.531 55.8C406.171 55.8 406.777 55.9333 407.351 56.2C407.937 56.4667 408.417 56.88 408.791 57.44C409.164 58 409.351 58.72 409.351 59.6V66H407.751V59.76C407.751 58.8533 407.524 58.2 407.071 57.8C406.617 57.4 406.057 57.2 405.391 57.2C404.871 57.2 404.384 57.3267 403.931 57.58C403.477 57.8333 403.111 58.2067 402.831 58.7C402.564 59.1933 402.431 59.8 402.431 60.52V66H400.831V59.76C400.831 58.8533 400.604 58.2 400.151 57.8C399.697 57.4 399.137 57.2 398.471 57.2C398.031 57.2 397.577 57.32 397.111 57.56C396.657 57.7867 396.277 58.1533 395.971 58.66C395.664 59.1667 395.511 59.8333 395.511 60.66V66H393.911ZM420.59 54.08C420.23 54.08 419.936 53.9733 419.71 53.76C419.496 53.5333 419.39 53.24 419.39 52.88C419.39 52.52 419.496 52.2333 419.71 52.02C419.936 51.7933 420.23 51.68 420.59 51.68C420.95 51.68 421.236 51.7933 421.45 52.02C421.676 52.2333 421.79 52.52 421.79 52.88C421.79 53.24 421.676 53.5333 421.45 53.76C421.236 53.9733 420.95 54.08 420.59 54.08ZM421.39 56V66H419.79V56H421.39ZM427.462 53.16V63.24C427.462 63.7333 427.602 64.1 427.882 64.34C428.162 64.58 428.522 64.7 428.962 64.7C429.349 64.7 429.682 64.6333 429.962 64.5C430.242 64.3667 430.496 64.1867 430.722 63.96L431.282 65.3C430.976 65.58 430.609 65.8 430.182 65.96C429.769 66.12 429.289 66.2 428.742 66.2C428.236 66.2 427.762 66.1133 427.322 65.94C426.882 65.7533 426.529 65.4667 426.262 65.08C426.009 64.68 425.876 64.16 425.862 63.52V53.6L427.462 53.16ZM431.102 56V57.38H423.862V56H431.102ZM437.081 66.2C436.108 66.2 435.208 65.9933 434.381 65.58C433.568 65.1667 432.941 64.58 432.501 63.82L433.861 62.84C434.154 63.4533 434.581 63.9333 435.141 64.28C435.714 64.6267 436.401 64.8 437.201 64.8C437.908 64.8 438.461 64.6667 438.861 64.4C439.261 64.12 439.461 63.76 439.461 63.32C439.461 63.04 439.368 62.7867 439.181 62.56C439.008 62.32 438.668 62.1467 438.161 62.04L435.761 61.54C434.788 61.34 434.088 61.0067 433.661 60.54C433.248 60.0733 433.041 59.4933 433.041 58.8C433.041 58.2533 433.194 57.7533 433.501 57.3C433.821 56.8467 434.268 56.4867 434.841 56.22C435.428 55.94 436.114 55.8 436.901 55.8C437.888 55.8 438.721 55.9933 439.401 56.38C440.081 56.7667 440.588 57.3133 440.921 58.02L439.581 58.9C439.354 58.3133 438.988 57.8867 438.481 57.62C437.974 57.34 437.448 57.2 436.901 57.2C436.421 57.2 436.008 57.2667 435.661 57.4C435.328 57.5333 435.068 57.72 434.881 57.96C434.708 58.1867 434.621 58.4467 434.621 58.74C434.621 59.0333 434.721 59.3067 434.921 59.56C435.121 59.8 435.494 59.9733 436.041 60.08L438.541 60.6C439.474 60.7867 440.128 61.0933 440.501 61.52C440.874 61.9467 441.061 62.4667 441.061 63.08C441.061 63.7067 440.894 64.26 440.561 64.74C440.228 65.2067 439.761 65.5667 439.161 65.82C438.561 66.0733 437.868 66.2 437.081 66.2ZM448.208 66.2C447.261 66.2 446.415 65.9933 445.668 65.58C444.935 65.1667 444.361 64.5733 443.948 63.8C443.535 63.0133 443.328 62.08 443.328 61C443.328 59.92 443.535 58.9933 443.948 58.22C444.361 57.4333 444.928 56.8333 445.648 56.42C446.368 56.0067 447.188 55.8 448.108 55.8C449.041 55.8 449.835 56 450.488 56.4C451.155 56.8 451.661 57.3467 452.008 58.04C452.355 58.72 452.528 59.4867 452.528 60.34C452.528 60.5667 452.521 60.7733 452.508 60.96C452.495 61.1467 452.475 61.3133 452.448 61.46H444.368V60.04H451.748L450.928 60.2C450.928 59.24 450.661 58.5 450.128 57.98C449.608 57.46 448.921 57.2 448.068 57.2C447.415 57.2 446.848 57.3533 446.368 57.66C445.901 57.9533 445.535 58.3867 445.268 58.96C445.015 59.52 444.888 60.2 444.888 61C444.888 61.7867 445.021 62.4667 445.288 63.04C445.555 63.6133 445.928 64.0533 446.408 64.36C446.901 64.6533 447.488 64.8 448.168 64.8C448.901 64.8 449.495 64.66 449.948 64.38C450.415 64.1 450.788 63.72 451.068 63.24L452.328 63.98C452.075 64.4333 451.748 64.8267 451.348 65.16C450.961 65.4933 450.501 65.7533 449.968 65.94C449.448 66.1133 448.861 66.2 448.208 66.2ZM457.091 51.4V63.46C457.091 63.9667 457.184 64.32 457.371 64.52C457.558 64.7067 457.858 64.8 458.271 64.8C458.538 64.8 458.758 64.78 458.931 64.74C459.104 64.7 459.338 64.6267 459.631 64.52L459.371 65.92C459.158 66.0133 458.924 66.08 458.671 66.12C458.418 66.1733 458.158 66.2 457.891 66.2C457.078 66.2 456.471 65.98 456.071 65.54C455.684 65.1 455.491 64.4267 455.491 63.52V51.4H457.091ZM465.744 51.3C466.091 51.3 466.418 51.34 466.724 51.42C467.031 51.5 467.271 51.6133 467.444 51.76L467.024 53.06C466.864 52.9533 466.691 52.88 466.504 52.84C466.318 52.7867 466.111 52.76 465.884 52.76C465.311 52.76 464.864 52.9 464.544 53.18C464.224 53.4467 464.064 53.88 464.064 54.48V56V56.52V66H462.464V54.32C462.464 53.88 462.531 53.4733 462.664 53.1C462.798 52.7267 462.998 52.4067 463.264 52.14C463.544 51.8733 463.891 51.6667 464.304 51.52C464.718 51.3733 465.198 51.3 465.744 51.3ZM467.404 56V57.38H460.464V56H467.404ZM469.066 63.6C469.453 63.6 469.766 63.72 470.006 63.96C470.246 64.2 470.366 64.5133 470.366 64.9C470.366 65.2867 470.246 65.6 470.006 65.84C469.766 66.08 469.453 66.2 469.066 66.2C468.68 66.2 468.366 66.08 468.126 65.84C467.886 65.6 467.766 65.2867 467.766 64.9C467.766 64.5133 467.886 64.2 468.126 63.96C468.366 63.72 468.68 63.6 469.066 63.6Z" fill="white"/>
</svg>
