<svg width="607" height="71" viewBox="0 0 607 71" fill="none" xmlns="http://www.w3.org/2000/svg">
<path d="M13.5 0.799999V8.32C13.5 10.2933 12.9667 11.7667 11.9 12.74C10.8467 13.7133 9.25333 14.2 7.12 14.2C4.98667 14.2 3.38667 13.7133 2.32 12.74C1.26667 11.7667 0.74 10.2933 0.74 8.32V0.799999H5.42V8.68C5.42 9.34667 5.56667 9.85333 5.86 10.2C6.15333 10.5333 6.57333 10.7 7.12 10.7C7.68 10.7 8.10667 10.5333 8.4 10.2C8.69333 9.85333 8.84 9.34667 8.84 8.68V0.799999H13.5ZM28.1583 0.799999V14H23.1183L19.9583 8L19.2383 6.38H19.1983L19.2783 9.1V14H15.2383V0.799999H20.2783L23.4383 6.82L24.1583 8.42H24.1983L24.1183 5.7V0.799999H28.1583ZM36.6402 0.799999C38.7068 0.799999 40.2668 1.37333 41.3202 2.52C42.3735 3.66667 42.9002 5.29333 42.9002 7.4C42.9002 9.49333 42.3735 11.12 41.3202 12.28C40.2668 13.4267 38.7068 14 36.6402 14H30.1602V0.799999H36.6402ZM35.9802 10.68C36.8468 10.68 37.4202 10.42 37.7002 9.9C37.9935 9.36667 38.1402 8.53333 38.1402 7.4C38.1402 6.26667 37.9935 5.44 37.7002 4.92C37.4202 4.38667 36.8468 4.12 35.9802 4.12H34.8202V10.68H35.9802ZM44.4766 14V0.799999H55.4366V4.22H49.1366V5.86H54.2166V9.02H49.1366V10.58H55.6766V14H44.4766ZM64.1561 0.799999C65.8761 0.799999 67.1961 1.18667 68.1161 1.96C69.0361 2.72 69.4961 3.73333 69.4961 5C69.4961 6.45333 69.0428 7.54667 68.1361 8.28C67.2428 9.01333 65.9361 9.38 64.2161 9.38L63.7561 9.62H61.5561V14H56.9961V0.799999H64.1561ZM63.3561 6.56C63.8494 6.56 64.2161 6.47333 64.4561 6.3C64.7094 6.11333 64.8361 5.79333 64.8361 5.34C64.8361 4.9 64.7094 4.58667 64.4561 4.4C64.2161 4.21333 63.8494 4.12 63.3561 4.12H61.5561V6.56H63.3561ZM66.1161 7.54L70.2361 14H65.1761L62.0961 8.22L66.1161 7.54ZM88.2028 0.799999V4.22H84.0828V14H79.4228V4.22H75.2828V0.799999H88.2028ZM102.534 0.799999V14H97.8738V0.799999H102.534ZM94.2538 0.799999V14H89.5938V0.799999H94.2538ZM100.454 5.66V9.08H91.8338V5.66H100.454ZM104.535 14V0.799999H115.495V4.22H109.195V5.86H114.275V9.02H109.195V10.58H115.735V14H104.535ZM127.835 0.6C129.101 0.6 130.235 0.76 131.235 1.08C132.248 1.38667 133.141 1.85333 133.915 2.48L132.035 5.48C131.408 5.04 130.748 4.68667 130.055 4.42C129.375 4.15333 128.635 4.02 127.835 4.02C127.488 4.02 127.208 4.04667 126.995 4.1C126.795 4.15333 126.648 4.22667 126.555 4.32C126.475 4.41333 126.435 4.52 126.435 4.64C126.435 4.8 126.555 4.92 126.795 5C127.048 5.08 127.361 5.16667 127.735 5.26L129.555 5.68C130.901 5.98667 131.915 6.44 132.595 7.04C133.288 7.64 133.635 8.47333 133.635 9.54C133.635 10.6067 133.375 11.4867 132.855 12.18C132.335 12.86 131.628 13.3667 130.735 13.7C129.855 14.0333 128.855 14.2 127.735 14.2C126.895 14.2 126.055 14.1267 125.215 13.98C124.375 13.82 123.595 13.5933 122.875 13.3C122.155 12.9933 121.535 12.6267 121.015 12.2L122.855 9.14C123.241 9.44667 123.708 9.72667 124.255 9.98C124.801 10.22 125.368 10.4133 125.955 10.56C126.541 10.7067 127.088 10.78 127.595 10.78C127.915 10.78 128.168 10.7533 128.355 10.7C128.541 10.6467 128.668 10.58 128.735 10.5C128.815 10.4067 128.855 10.3 128.855 10.18C128.855 9.99333 128.775 9.85333 128.615 9.76C128.468 9.66667 128.195 9.57333 127.795 9.48L125.795 9.04C125.088 8.88 124.415 8.66667 123.775 8.4C123.135 8.13333 122.615 7.74667 122.215 7.24C121.815 6.72 121.615 6.02 121.615 5.14C121.615 4.23333 121.855 3.44 122.335 2.76C122.828 2.08 123.535 1.55333 124.455 1.18C125.388 0.793333 126.515 0.6 127.835 0.6ZM139.683 0.799999V14H135.023V0.799999H139.683ZM146.344 10.58H152.324V14H141.684V0.799999H146.344V10.58ZM165.042 0.799999L160.582 14H155.042L150.582 0.799999H155.442L157.262 8.02L157.902 10.6L158.502 8.06L160.362 0.799999H165.042ZM165.883 14V0.799999H176.843V4.22H170.543V5.86H175.623V9.02H170.543V10.58H177.083V14H165.883ZM185.562 0.799999C187.282 0.799999 188.602 1.18667 189.522 1.96C190.442 2.72 190.902 3.73333 190.902 5C190.902 6.45333 190.449 7.54667 189.542 8.28C188.649 9.01333 187.342 9.38 185.622 9.38L185.162 9.62H182.962V14H178.402V0.799999H185.562ZM184.762 6.56C185.256 6.56 185.622 6.47333 185.862 6.3C186.116 6.11333 186.242 5.79333 186.242 5.34C186.242 4.9 186.116 4.58667 185.862 4.4C185.622 4.21333 185.256 4.12 184.762 4.12H182.962V6.56H184.762ZM187.522 7.54L191.642 14H186.582L183.502 8.22L187.522 7.54ZM202.164 10.58H208.144V14H197.504V0.799999H202.164V10.58ZM222.593 14H217.833L217.233 11.48H213.673L213.053 14H208.413L212.693 0.799999H218.293L222.593 14ZM214.373 8.58H216.553L215.473 4L214.373 8.58ZM236.462 0.799999L229.982 9.22L229.782 8.2L226.882 12.16L225.802 8.94L231.502 0.799999H236.462ZM228.062 0.799999V14H223.402V0.799999H228.062ZM231.742 4.82L236.822 14H231.602L228.322 7.4L231.742 4.82ZM237.738 14V0.799999H248.698V4.22H242.398V5.86H247.478V9.02H242.398V10.58H248.938V14H237.738ZM252.55 9.88C253.163 9.88 253.657 10.0133 254.03 10.28C254.417 10.5467 254.697 10.8933 254.87 11.32C255.057 11.7333 255.15 12.18 255.15 12.66C255.15 13.38 254.983 14.0533 254.65 14.68C254.33 15.32 253.923 15.8667 253.43 16.32C252.937 16.7867 252.45 17.12 251.97 17.32L250.23 16.14C250.603 15.9667 250.957 15.7667 251.29 15.54C251.637 15.3133 251.95 15.0667 252.23 14.8C252.51 14.5333 252.73 14.26 252.89 13.98L252.79 13.9C252.697 13.9533 252.59 13.9933 252.47 14.02C252.35 14.06 252.197 14.08 252.01 14.08C251.717 14.08 251.423 14.0133 251.13 13.88C250.837 13.7333 250.59 13.52 250.39 13.24C250.19 12.96 250.09 12.6067 250.09 12.18C250.09 11.6333 250.203 11.1933 250.43 10.86C250.67 10.5267 250.977 10.28 251.35 10.12C251.737 9.96 252.137 9.88 252.55 9.88ZM261.723 14V11.2C262.723 10.6667 263.59 10.1333 264.323 9.6C265.07 9.06667 265.683 8.54667 266.163 8.04C266.656 7.52 267.023 7.03333 267.263 6.58C267.503 6.11333 267.623 5.68667 267.623 5.3C267.623 4.98 267.543 4.7 267.383 4.46C267.223 4.22 266.943 4.1 266.543 4.1C266.09 4.1 265.756 4.28667 265.543 4.66C265.33 5.03333 265.236 5.62667 265.263 6.44L261.283 5.48C261.256 4.36 261.49 3.44 261.983 2.72C262.476 2 263.15 1.46667 264.003 1.12C264.87 0.773333 265.823 0.6 266.863 0.6C267.863 0.6 268.703 0.739999 269.383 1.02C270.076 1.28667 270.63 1.64 271.043 2.08C271.456 2.50667 271.75 2.97333 271.923 3.48C272.11 3.97333 272.203 4.44667 272.203 4.9C272.203 5.78 271.97 6.57333 271.503 7.28C271.05 7.98667 270.436 8.62 269.663 9.18C268.89 9.74 268.03 10.2467 267.083 10.7V10.74C267.363 10.7133 267.67 10.6933 268.003 10.68C268.35 10.6533 268.71 10.64 269.083 10.64C269.47 10.6267 269.85 10.62 270.223 10.62H272.283V14H261.723ZM279.393 14.2C277.393 14.2 275.913 13.6333 274.953 12.5C274.006 11.3667 273.533 9.66667 273.533 7.4C273.533 5.13333 274.006 3.43333 274.953 2.3C275.913 1.16667 277.393 0.6 279.393 0.6C281.393 0.6 282.866 1.16667 283.813 2.3C284.773 3.43333 285.253 5.13333 285.253 7.4C285.253 9.66667 284.773 11.3667 283.813 12.5C282.866 13.6333 281.393 14.2 279.393 14.2ZM279.393 10.7C279.739 10.7 280.006 10.6067 280.193 10.42C280.379 10.2333 280.506 9.9 280.573 9.42C280.653 8.94 280.693 8.26667 280.693 7.4C280.693 6.53333 280.653 5.86 280.573 5.38C280.506 4.9 280.379 4.56667 280.193 4.38C280.006 4.19333 279.739 4.1 279.393 4.1C279.059 4.1 278.793 4.19333 278.593 4.38C278.406 4.56667 278.273 4.9 278.193 5.38C278.126 5.86 278.092 6.53333 278.092 7.4C278.092 8.26667 278.126 8.94 278.193 9.42C278.273 9.9 278.406 10.2333 278.593 10.42C278.793 10.6067 279.059 10.7 279.393 10.7ZM289.577 14V7.8C289.577 7.36 289.577 6.92 289.577 6.48C289.577 6.04 289.577 5.6 289.577 5.16C289.15 5.53333 288.69 5.86 288.197 6.14C287.703 6.40667 287.183 6.58 286.637 6.66L286.377 2.92C286.79 2.88 287.203 2.79333 287.617 2.66C288.03 2.51333 288.417 2.34 288.777 2.14C289.15 1.94 289.477 1.72667 289.757 1.5C290.05 1.27333 290.27 1.04 290.417 0.799999H294.037V14H289.577ZM301.496 0.659999C302.59 0.659999 303.536 0.813332 304.336 1.12C305.15 1.41333 305.776 1.84 306.216 2.4C306.67 2.94667 306.896 3.60667 306.896 4.38C306.896 5.1 306.716 5.71333 306.356 6.22C305.996 6.72667 305.443 7.11333 304.696 7.38V7.4C305.523 7.65333 306.15 8.02 306.576 8.5C307.016 8.96667 307.236 9.59333 307.236 10.38C307.236 11.1533 307.01 11.8267 306.556 12.4C306.103 12.96 305.45 13.4 304.596 13.72C303.743 14.04 302.71 14.2 301.496 14.2C300.283 14.2 299.25 14.04 298.396 13.72C297.543 13.4 296.89 12.96 296.436 12.4C295.983 11.8267 295.756 11.1533 295.756 10.38C295.756 9.59333 295.976 8.96667 296.416 8.5C296.856 8.02 297.483 7.65333 298.296 7.4V7.38C297.563 7.11333 297.01 6.72667 296.636 6.22C296.276 5.71333 296.096 5.1 296.096 4.38C296.096 3.60667 296.316 2.94667 296.756 2.4C297.21 1.84 297.843 1.41333 298.656 1.12C299.47 0.813332 300.416 0.659999 301.496 0.659999ZM301.496 3.82C301.123 3.82 300.823 3.92 300.596 4.12C300.383 4.32 300.276 4.59333 300.276 4.94C300.276 5.28667 300.383 5.56 300.596 5.76C300.823 5.96 301.13 6.06 301.516 6.06C301.89 6.06 302.183 5.96 302.396 5.76C302.61 5.56 302.716 5.28667 302.716 4.94C302.716 4.59333 302.61 4.32 302.396 4.12C302.183 3.92 301.883 3.82 301.496 3.82ZM301.496 11.04C301.776 11.04 302.01 11 302.196 10.92C302.396 10.8267 302.543 10.6933 302.636 10.52C302.743 10.3467 302.796 10.1467 302.796 9.92C302.796 9.68 302.743 9.48 302.636 9.32C302.543 9.14667 302.396 9.02 302.196 8.94C302.01 8.84667 301.776 8.8 301.496 8.8C301.23 8.8 300.996 8.84667 300.796 8.94C300.596 9.02 300.443 9.14667 300.336 9.32C300.243 9.48 300.196 9.68 300.196 9.92C300.196 10.1467 300.243 10.3467 300.336 10.52C300.443 10.6933 300.596 10.8267 300.796 10.92C300.996 11 301.23 11.04 301.496 11.04ZM12.52 26.8V40H10.92V26.8H12.52ZM3.76 26.8V40H2.16V26.8H3.76ZM11.66 32.56V34.06H3V32.56H11.66ZM17.3475 28.08C16.9875 28.08 16.6942 27.9733 16.4675 27.76C16.2542 27.5333 16.1475 27.24 16.1475 26.88C16.1475 26.52 16.2542 26.2333 16.4675 26.02C16.6942 25.7933 16.9875 25.68 17.3475 25.68C17.7075 25.68 17.9942 25.7933 18.2075 26.02C18.4342 26.2333 18.5475 26.52 18.5475 26.88C18.5475 27.24 18.4342 27.5333 18.2075 27.76C17.9942 27.9733 17.7075 28.08 17.3475 28.08ZM18.1475 30V40H16.5475V30H18.1475ZM25.76 40.2C24.9333 40.2 24.1733 39.9933 23.48 39.58C22.7867 39.1667 22.2333 38.5733 21.82 37.8C21.4067 37.0133 21.2 36.08 21.2 35C21.2 33.8933 21.42 32.9533 21.86 32.18C22.3 31.4067 22.88 30.82 23.6 30.42C24.32 30.0067 25.0933 29.8 25.92 29.8C26.7467 29.8 27.46 30.0133 28.06 30.44C28.6733 30.8667 29.08 31.4333 29.28 32.14L29.08 32.28V25.4H30.68V40H29.28L29.14 37.58L29.36 37.46C29.2667 38.0467 29.04 38.5467 28.68 38.96C28.3333 39.36 27.9 39.6667 27.38 39.88C26.8733 40.0933 26.3333 40.2 25.76 40.2ZM25.92 38.8C26.56 38.8 27.1133 38.64 27.58 38.32C28.06 38 28.4267 37.5467 28.68 36.96C28.9467 36.36 29.08 35.66 29.08 34.86C29.08 34.1 28.9467 33.4467 28.68 32.9C28.4267 32.3533 28.0667 31.9333 27.6 31.64C27.1467 31.3467 26.6133 31.2 26 31.2C24.9867 31.2 24.2 31.5467 23.64 32.24C23.08 32.9333 22.8 33.8533 22.8 35C22.8 36.1467 23.0733 37.0667 23.62 37.76C24.1667 38.4533 24.9333 38.8 25.92 38.8ZM38.2991 40.2C37.4724 40.2 36.7124 39.9933 36.0191 39.58C35.3257 39.1667 34.7724 38.5733 34.3591 37.8C33.9457 37.0133 33.7391 36.08 33.7391 35C33.7391 33.8933 33.9591 32.9533 34.3991 32.18C34.8391 31.4067 35.4191 30.82 36.1391 30.42C36.8591 30.0067 37.6324 29.8 38.4591 29.8C39.2857 29.8 39.9991 30.0133 40.5991 30.44C41.2124 30.8667 41.6191 31.4333 41.8191 32.14L41.6191 32.28V25.4H43.2191V40H41.8191L41.6791 37.58L41.8991 37.46C41.8057 38.0467 41.5791 38.5467 41.2191 38.96C40.8724 39.36 40.4391 39.6667 39.9191 39.88C39.4124 40.0933 38.8724 40.2 38.2991 40.2ZM38.4591 38.8C39.0991 38.8 39.6524 38.64 40.1191 38.32C40.5991 38 40.9657 37.5467 41.2191 36.96C41.4857 36.36 41.6191 35.66 41.6191 34.86C41.6191 34.1 41.4857 33.4467 41.2191 32.9C40.9657 32.3533 40.6057 31.9333 40.1391 31.64C39.6857 31.3467 39.1524 31.2 38.5391 31.2C37.5257 31.2 36.7391 31.5467 36.1791 32.24C35.6191 32.9333 35.3391 33.8533 35.3391 35C35.3391 36.1467 35.6124 37.0667 36.1591 37.76C36.7057 38.4533 37.4724 38.8 38.4591 38.8ZM51.1181 40.2C50.1715 40.2 49.3248 39.9933 48.5781 39.58C47.8448 39.1667 47.2715 38.5733 46.8581 37.8C46.4448 37.0133 46.2381 36.08 46.2381 35C46.2381 33.92 46.4448 32.9933 46.8581 32.22C47.2715 31.4333 47.8381 30.8333 48.5581 30.42C49.2781 30.0067 50.0981 29.8 51.0181 29.8C51.9515 29.8 52.7448 30 53.3981 30.4C54.0648 30.8 54.5715 31.3467 54.9181 32.04C55.2648 32.72 55.4381 33.4867 55.4381 34.34C55.4381 34.5667 55.4315 34.7733 55.4181 34.96C55.4048 35.1467 55.3848 35.3133 55.3581 35.46H47.2781V34.04H54.6581L53.8381 34.2C53.8381 33.24 53.5715 32.5 53.0381 31.98C52.5181 31.46 51.8315 31.2 50.9781 31.2C50.3248 31.2 49.7581 31.3533 49.2781 31.66C48.8115 31.9533 48.4448 32.3867 48.1781 32.96C47.9248 33.52 47.7981 34.2 47.7981 35C47.7981 35.7867 47.9315 36.4667 48.1981 37.04C48.4648 37.6133 48.8381 38.0533 49.3181 38.36C49.8115 38.6533 50.3981 38.8 51.0781 38.8C51.8115 38.8 52.4048 38.66 52.8581 38.38C53.3248 38.1 53.6981 37.72 53.9781 37.24L55.2381 37.98C54.9848 38.4333 54.6581 38.8267 54.2581 39.16C53.8715 39.4933 53.4115 39.7533 52.8781 39.94C52.3581 40.1133 51.7715 40.2 51.1181 40.2ZM58.4811 40V30H59.8811L60.0211 32.24L59.7611 32.02C59.9744 31.4867 60.2611 31.06 60.6211 30.74C60.9811 30.4067 61.3944 30.1667 61.8611 30.02C62.3411 29.8733 62.8344 29.8 63.3411 29.8C64.0611 29.8 64.7144 29.94 65.3011 30.22C65.8878 30.4867 66.3544 30.9 66.7011 31.46C67.0611 32.02 67.2411 32.7333 67.2411 33.6V40H65.6411V34.16C65.6411 33.0533 65.4011 32.2867 64.9211 31.86C64.4544 31.42 63.8744 31.2 63.1811 31.2C62.7011 31.2 62.2211 31.3133 61.7411 31.54C61.2611 31.7667 60.8611 32.1333 60.5411 32.64C60.2344 33.1467 60.0811 33.8267 60.0811 34.68V40H58.4811ZM81.3692 25.3C81.7159 25.3 82.0426 25.34 82.3492 25.42C82.6559 25.5 82.8959 25.6133 83.0692 25.76L82.6492 27.06C82.4892 26.9533 82.3159 26.88 82.1292 26.84C81.9426 26.7867 81.7359 26.76 81.5092 26.76C80.9359 26.76 80.4892 26.9 80.1692 27.18C79.8492 27.4467 79.6892 27.88 79.6892 28.48V30V30.52V40H78.0892V28.32C78.0892 27.88 78.1559 27.4733 78.2892 27.1C78.4226 26.7267 78.6226 26.4067 78.8892 26.14C79.1692 25.8733 79.5159 25.6667 79.9292 25.52C80.3426 25.3733 80.8226 25.3 81.3692 25.3ZM83.0292 30V31.38H76.0892V30H83.0292ZM85.9692 28.08C85.6092 28.08 85.3159 27.9733 85.0892 27.76C84.8759 27.5333 84.7692 27.24 84.7692 26.88C84.7692 26.52 84.8759 26.2333 85.0892 26.02C85.3159 25.7933 85.6092 25.68 85.9692 25.68C86.3292 25.68 86.6159 25.7933 86.8292 26.02C87.0559 26.2333 87.1692 26.52 87.1692 26.88C87.1692 27.24 87.0559 27.5333 86.8292 27.76C86.6159 27.9733 86.3292 28.08 85.9692 28.08ZM86.7692 30V40H85.1692V30H86.7692ZM98.9128 28.16L99.2728 29.58C99.2595 29.58 99.2395 29.58 99.2128 29.58C99.1861 29.58 99.1595 29.58 99.1328 29.58C98.4795 29.58 97.9728 29.7133 97.6128 29.98C97.2661 30.2333 97.0928 30.6467 97.0928 31.22L96.1128 30.72C96.1128 30.2 96.2328 29.7467 96.4728 29.36C96.7128 28.9733 97.0395 28.68 97.4528 28.48C97.8661 28.2667 98.3195 28.16 98.8128 28.16C98.8261 28.16 98.8395 28.16 98.8528 28.16C98.8795 28.16 98.8995 28.16 98.9128 28.16ZM95.8728 38.72C96.8195 38.72 97.5595 38.94 98.0928 39.38C98.6261 39.8067 98.8928 40.38 98.8928 41.1C98.8928 41.7533 98.6728 42.32 98.2328 42.8C97.8061 43.28 97.2261 43.6467 96.4928 43.9C95.7728 44.1667 94.9595 44.3 94.0528 44.3C92.4795 44.3 91.2995 44.0333 90.5128 43.5C89.7395 42.9667 89.3528 42.3267 89.3528 41.58C89.3528 41.0467 89.5261 40.5667 89.8728 40.14C90.2328 39.7267 90.8328 39.4933 91.6728 39.44L91.5328 39.74C91.0795 39.62 90.6928 39.42 90.3728 39.14C90.0661 38.8467 89.9128 38.4267 89.9128 37.88C89.9128 37.3333 90.1128 36.8667 90.5128 36.48C90.9261 36.08 91.5328 35.8333 92.3328 35.74L93.3928 36.28H93.1928C92.5395 36.3467 92.0728 36.5133 91.7928 36.78C91.5261 37.0333 91.3928 37.3133 91.3928 37.62C91.3928 37.9933 91.5261 38.2733 91.7928 38.46C92.0728 38.6333 92.4595 38.72 92.9528 38.72H95.8728ZM94.0328 42.96C94.8061 42.96 95.4395 42.88 95.9328 42.72C96.4395 42.56 96.8128 42.3533 97.0528 42.1C97.2928 41.8467 97.4128 41.5733 97.4128 41.28C97.4128 40.92 97.2661 40.6333 96.9728 40.42C96.6928 40.2067 96.1795 40.1 95.4328 40.1H92.3528C91.9261 40.1 91.5661 40.2067 91.2728 40.42C90.9795 40.6467 90.8328 40.9533 90.8328 41.34C90.8328 41.8333 91.1128 42.2267 91.6728 42.52C92.2461 42.8133 93.0328 42.96 94.0328 42.96ZM93.8928 29.8C94.6928 29.8 95.3995 29.9467 96.0128 30.24C96.6395 30.52 97.1261 30.9133 97.4728 31.42C97.8195 31.9267 97.9928 32.5133 97.9928 33.18C97.9928 33.8333 97.8195 34.42 97.4728 34.94C97.1261 35.4467 96.6395 35.8467 96.0128 36.14C95.3995 36.42 94.6928 36.56 93.8928 36.56C92.5728 36.56 91.5595 36.2467 90.8528 35.62C90.1461 34.98 89.7928 34.1667 89.7928 33.18C89.7928 32.5133 89.9661 31.9267 90.3128 31.42C90.6728 30.9133 91.1595 30.52 91.7728 30.24C92.3861 29.9467 93.0928 29.8 93.8928 29.8ZM93.8928 31.1C93.1995 31.1 92.6195 31.2933 92.1528 31.68C91.6861 32.0533 91.4528 32.5533 91.4528 33.18C91.4528 33.7933 91.6861 34.2933 92.1528 34.68C92.6195 35.0667 93.1995 35.26 93.8928 35.26C94.5861 35.26 95.1661 35.0667 95.6328 34.68C96.0995 34.2933 96.3328 33.7933 96.3328 33.18C96.3328 32.5533 96.0995 32.0533 95.6328 31.68C95.1661 31.2933 94.5861 31.1 93.8928 31.1ZM104.757 40.2C104.117 40.2 103.511 40.08 102.937 39.84C102.377 39.6 101.917 39.2133 101.557 38.68C101.211 38.1333 101.037 37.4267 101.037 36.56V30H102.637V36.14C102.637 37.1533 102.857 37.8533 103.297 38.24C103.737 38.6133 104.357 38.8 105.157 38.8C105.531 38.8 105.897 38.74 106.257 38.62C106.617 38.4867 106.937 38.2867 107.217 38.02C107.511 37.74 107.737 37.3867 107.897 36.96C108.071 36.5333 108.157 36.0267 108.157 35.44V30H109.757V40H108.357L108.257 38.48C107.911 39.08 107.437 39.52 106.837 39.8C106.251 40.0667 105.557 40.2 104.757 40.2ZM113.481 40V30H114.781L115.001 31.64C115.281 31.0267 115.688 30.5667 116.221 30.26C116.768 29.9533 117.428 29.8 118.201 29.8C118.374 29.8 118.561 29.8133 118.761 29.84C118.974 29.8667 119.154 29.92 119.301 30L119.021 31.46C118.874 31.4067 118.714 31.3667 118.541 31.34C118.368 31.3133 118.121 31.3 117.801 31.3C117.388 31.3 116.968 31.42 116.541 31.66C116.128 31.9 115.781 32.2667 115.501 32.76C115.221 33.24 115.081 33.8533 115.081 34.6V40H113.481ZM125.513 40.2C124.566 40.2 123.719 39.9933 122.973 39.58C122.239 39.1667 121.666 38.5733 121.253 37.8C120.839 37.0133 120.633 36.08 120.633 35C120.633 33.92 120.839 32.9933 121.253 32.22C121.666 31.4333 122.233 30.8333 122.953 30.42C123.673 30.0067 124.493 29.8 125.413 29.8C126.346 29.8 127.139 30 127.793 30.4C128.459 30.8 128.966 31.3467 129.313 32.04C129.659 32.72 129.833 33.4867 129.833 34.34C129.833 34.5667 129.826 34.7733 129.813 34.96C129.799 35.1467 129.779 35.3133 129.753 35.46H121.673V34.04H129.053L128.233 34.2C128.233 33.24 127.966 32.5 127.433 31.98C126.913 31.46 126.226 31.2 125.373 31.2C124.719 31.2 124.153 31.3533 123.673 31.66C123.206 31.9533 122.839 32.3867 122.573 32.96C122.319 33.52 122.193 34.2 122.193 35C122.193 35.7867 122.326 36.4667 122.593 37.04C122.859 37.6133 123.233 38.0533 123.713 38.36C124.206 38.6533 124.793 38.8 125.473 38.8C126.206 38.8 126.799 38.66 127.253 38.38C127.719 38.1 128.093 37.72 128.373 37.24L129.633 37.98C129.379 38.4333 129.053 38.8267 128.653 39.16C128.266 39.4933 127.806 39.7533 127.273 39.94C126.753 40.1133 126.166 40.2 125.513 40.2ZM136.476 40.2C135.502 40.2 134.602 39.9933 133.776 39.58C132.962 39.1667 132.336 38.58 131.896 37.82L133.256 36.84C133.549 37.4533 133.976 37.9333 134.536 38.28C135.109 38.6267 135.796 38.8 136.596 38.8C137.302 38.8 137.856 38.6667 138.256 38.4C138.656 38.12 138.856 37.76 138.856 37.32C138.856 37.04 138.762 36.7867 138.576 36.56C138.402 36.32 138.062 36.1467 137.556 36.04L135.156 35.54C134.182 35.34 133.482 35.0067 133.056 34.54C132.642 34.0733 132.436 33.4933 132.436 32.8C132.436 32.2533 132.589 31.7533 132.896 31.3C133.216 30.8467 133.662 30.4867 134.236 30.22C134.822 29.94 135.509 29.8 136.296 29.8C137.282 29.8 138.116 29.9933 138.796 30.38C139.476 30.7667 139.982 31.3133 140.316 32.02L138.976 32.9C138.749 32.3133 138.382 31.8867 137.876 31.62C137.369 31.34 136.842 31.2 136.296 31.2C135.816 31.2 135.402 31.2667 135.056 31.4C134.722 31.5333 134.462 31.72 134.276 31.96C134.102 32.1867 134.016 32.4467 134.016 32.74C134.016 33.0333 134.116 33.3067 134.316 33.56C134.516 33.8 134.889 33.9733 135.436 34.08L137.936 34.6C138.869 34.7867 139.522 35.0933 139.896 35.52C140.269 35.9467 140.456 36.4667 140.456 37.08C140.456 37.7067 140.289 38.26 139.956 38.74C139.622 39.2067 139.156 39.5667 138.556 39.82C137.956 40.0733 137.262 40.2 136.476 40.2ZM151.759 25.4V37.46C151.759 37.9667 151.852 38.32 152.039 38.52C152.226 38.7067 152.526 38.8 152.939 38.8C153.206 38.8 153.426 38.78 153.599 38.74C153.772 38.7 154.006 38.6267 154.299 38.52L154.039 39.92C153.826 40.0133 153.592 40.08 153.339 40.12C153.086 40.1733 152.826 40.2 152.559 40.2C151.746 40.2 151.139 39.98 150.739 39.54C150.352 39.1 150.159 38.4267 150.159 37.52V25.4H151.759ZM157.152 28.08C156.792 28.08 156.499 27.9733 156.272 27.76C156.059 27.5333 155.952 27.24 155.952 26.88C155.952 26.52 156.059 26.2333 156.272 26.02C156.499 25.7933 156.792 25.68 157.152 25.68C157.512 25.68 157.799 25.7933 158.012 26.02C158.239 26.2333 158.352 26.52 158.352 26.88C158.352 27.24 158.239 27.5333 158.012 27.76C157.799 27.9733 157.512 28.08 157.152 28.08ZM157.952 30V40H156.352V30H157.952ZM170.445 30L166.125 34.32L165.745 34.7L162.465 37.98V35.98L168.425 30H170.445ZM163.265 25.4V40H161.665V25.4H163.265ZM166.265 33.5L170.685 40H168.745L164.925 34.4L166.265 33.5ZM176.841 40.2C175.894 40.2 175.047 39.9933 174.301 39.58C173.567 39.1667 172.994 38.5733 172.581 37.8C172.167 37.0133 171.961 36.08 171.961 35C171.961 33.92 172.167 32.9933 172.581 32.22C172.994 31.4333 173.561 30.8333 174.281 30.42C175.001 30.0067 175.821 29.8 176.741 29.8C177.674 29.8 178.467 30 179.121 30.4C179.787 30.8 180.294 31.3467 180.641 32.04C180.987 32.72 181.161 33.4867 181.161 34.34C181.161 34.5667 181.154 34.7733 181.141 34.96C181.127 35.1467 181.107 35.3133 181.081 35.46H173.001V34.04H180.381L179.561 34.2C179.561 33.24 179.294 32.5 178.761 31.98C178.241 31.46 177.554 31.2 176.701 31.2C176.047 31.2 175.481 31.3533 175.001 31.66C174.534 31.9533 174.167 32.3867 173.901 32.96C173.647 33.52 173.521 34.2 173.521 35C173.521 35.7867 173.654 36.4667 173.921 37.04C174.187 37.6133 174.561 38.0533 175.041 38.36C175.534 38.6533 176.121 38.8 176.801 38.8C177.534 38.8 178.127 38.66 178.581 38.38C179.047 38.1 179.421 37.72 179.701 37.24L180.961 37.98C180.707 38.4333 180.381 38.8267 179.981 39.16C179.594 39.4933 179.134 39.7533 178.601 39.94C178.081 40.1133 177.494 40.2 176.841 40.2ZM196.86 33.54C196.86 32.7933 196.66 32.22 196.26 31.82C195.86 31.4067 195.293 31.2 194.56 31.2C193.867 31.2 193.28 31.3533 192.8 31.66C192.32 31.9533 191.967 32.4333 191.74 33.1L190.44 32.3C190.707 31.5533 191.2 30.9533 191.92 30.5C192.64 30.0333 193.533 29.8 194.6 29.8C195.32 29.8 195.973 29.9267 196.56 30.18C197.147 30.42 197.607 30.7933 197.94 31.3C198.287 31.7933 198.46 32.4333 198.46 33.22V38.06C198.46 38.54 198.713 38.78 199.22 38.78C199.473 38.78 199.72 38.7467 199.96 38.68L199.88 39.94C199.613 40.0733 199.267 40.14 198.84 40.14C198.453 40.14 198.107 40.0667 197.8 39.92C197.493 39.7733 197.253 39.5533 197.08 39.26C196.907 38.9533 196.82 38.5733 196.82 38.12V37.92L197.22 37.98C197.06 38.5 196.787 38.9267 196.4 39.26C196.013 39.58 195.58 39.82 195.1 39.98C194.62 40.1267 194.147 40.2 193.68 40.2C193.093 40.2 192.547 40.1 192.04 39.9C191.533 39.7 191.127 39.4 190.82 39C190.527 38.5867 190.38 38.08 190.38 37.48C190.38 36.7333 190.627 36.12 191.12 35.64C191.627 35.1467 192.327 34.8133 193.22 34.64L197.18 33.86V35.18L193.96 35.84C193.307 35.9733 192.82 36.16 192.5 36.4C192.18 36.64 192.02 36.9733 192.02 37.4C192.02 37.8133 192.18 38.1533 192.5 38.42C192.833 38.6733 193.3 38.8 193.9 38.8C194.287 38.8 194.653 38.7533 195 38.66C195.36 38.5533 195.68 38.4 195.96 38.2C196.24 37.9867 196.46 37.7267 196.62 37.42C196.78 37.1 196.86 36.7267 196.86 36.3V33.54ZM208.696 44.2V30H210.096L210.236 32.44L210.016 32.16C210.189 31.6933 210.449 31.2867 210.796 30.94C211.143 30.58 211.563 30.3 212.056 30.1C212.549 29.9 213.083 29.8 213.656 29.8C214.469 29.8 215.216 30.0067 215.896 30.42C216.589 30.8333 217.143 31.4267 217.556 32.2C217.969 32.9733 218.176 33.9067 218.176 35C218.176 36.08 217.963 37.0133 217.536 37.8C217.123 38.5733 216.569 39.1667 215.876 39.58C215.183 39.9933 214.423 40.2 213.596 40.2C212.769 40.2 212.043 40 211.416 39.6C210.803 39.1867 210.363 38.6667 210.096 38.04L210.296 37.74V44.2H208.696ZM213.436 38.8C214.423 38.8 215.189 38.4533 215.736 37.76C216.296 37.0667 216.576 36.1467 216.576 35C216.576 33.8533 216.303 32.9333 215.756 32.24C215.223 31.5467 214.469 31.2 213.496 31.2C212.856 31.2 212.296 31.36 211.816 31.68C211.336 31.9867 210.963 32.4267 210.696 33C210.429 33.56 210.296 34.2267 210.296 35C210.296 35.76 210.423 36.4267 210.676 37C210.943 37.5733 211.309 38.02 211.776 38.34C212.256 38.6467 212.809 38.8 213.436 38.8ZM222.035 28.08C221.675 28.08 221.382 27.9733 221.155 27.76C220.942 27.5333 220.835 27.24 220.835 26.88C220.835 26.52 220.942 26.2333 221.155 26.02C221.382 25.7933 221.675 25.68 222.035 25.68C222.395 25.68 222.682 25.7933 222.895 26.02C223.122 26.2333 223.235 26.52 223.235 26.88C223.235 27.24 223.122 27.5333 222.895 27.76C222.682 27.9733 222.395 28.08 222.035 28.08ZM222.835 30V40H221.235V30H222.835ZM226.548 40V30H227.848L228.068 31.64C228.348 31.0267 228.754 30.5667 229.288 30.26C229.834 29.9533 230.494 29.8 231.268 29.8C231.441 29.8 231.628 29.8133 231.828 29.84C232.041 29.8667 232.221 29.92 232.368 30L232.088 31.46C231.941 31.4067 231.781 31.3667 231.608 31.34C231.434 31.3133 231.188 31.3 230.868 31.3C230.454 31.3 230.034 31.42 229.608 31.66C229.194 31.9 228.848 32.2667 228.568 32.76C228.288 33.24 228.148 33.8533 228.148 34.6V40H226.548ZM240.278 33.54C240.278 32.7933 240.078 32.22 239.678 31.82C239.278 31.4067 238.711 31.2 237.978 31.2C237.285 31.2 236.698 31.3533 236.218 31.66C235.738 31.9533 235.385 32.4333 235.158 33.1L233.858 32.3C234.125 31.5533 234.618 30.9533 235.338 30.5C236.058 30.0333 236.951 29.8 238.018 29.8C238.738 29.8 239.391 29.9267 239.978 30.18C240.565 30.42 241.025 30.7933 241.358 31.3C241.705 31.7933 241.878 32.4333 241.878 33.22V38.06C241.878 38.54 242.131 38.78 242.638 38.78C242.891 38.78 243.138 38.7467 243.378 38.68L243.298 39.94C243.031 40.0733 242.685 40.14 242.258 40.14C241.871 40.14 241.525 40.0667 241.218 39.92C240.911 39.7733 240.671 39.5533 240.498 39.26C240.325 38.9533 240.238 38.5733 240.238 38.12V37.92L240.638 37.98C240.478 38.5 240.205 38.9267 239.818 39.26C239.431 39.58 238.998 39.82 238.518 39.98C238.038 40.1267 237.565 40.2 237.098 40.2C236.511 40.2 235.965 40.1 235.458 39.9C234.951 39.7 234.545 39.4 234.238 39C233.945 38.5867 233.798 38.08 233.798 37.48C233.798 36.7333 234.045 36.12 234.538 35.64C235.045 35.1467 235.745 34.8133 236.638 34.64L240.598 33.86V35.18L237.378 35.84C236.725 35.9733 236.238 36.16 235.918 36.4C235.598 36.64 235.438 36.9733 235.438 37.4C235.438 37.8133 235.598 38.1533 235.918 38.42C236.251 38.6733 236.718 38.8 237.318 38.8C237.705 38.8 238.071 38.7533 238.418 38.66C238.778 38.5533 239.098 38.4 239.378 38.2C239.658 37.9867 239.878 37.7267 240.038 37.42C240.198 37.1 240.278 36.7267 240.278 36.3V33.54ZM247.736 27.16V37.24C247.736 37.7333 247.876 38.1 248.156 38.34C248.436 38.58 248.796 38.7 249.236 38.7C249.622 38.7 249.956 38.6333 250.236 38.5C250.516 38.3667 250.769 38.1867 250.996 37.96L251.556 39.3C251.249 39.58 250.882 39.8 250.456 39.96C250.042 40.12 249.562 40.2 249.016 40.2C248.509 40.2 248.036 40.1133 247.596 39.94C247.156 39.7533 246.802 39.4667 246.536 39.08C246.282 38.68 246.149 38.16 246.136 37.52V27.6L247.736 27.16ZM251.376 30V31.38H244.136V30H251.376ZM257.935 40.2C256.988 40.2 256.141 39.9933 255.395 39.58C254.661 39.1667 254.088 38.5733 253.675 37.8C253.261 37.0133 253.055 36.08 253.055 35C253.055 33.92 253.261 32.9933 253.675 32.22C254.088 31.4333 254.655 30.8333 255.375 30.42C256.095 30.0067 256.915 29.8 257.835 29.8C258.768 29.8 259.561 30 260.215 30.4C260.881 30.8 261.388 31.3467 261.735 32.04C262.081 32.72 262.255 33.4867 262.255 34.34C262.255 34.5667 262.248 34.7733 262.235 34.96C262.221 35.1467 262.201 35.3133 262.175 35.46H254.095V34.04H261.475L260.655 34.2C260.655 33.24 260.388 32.5 259.855 31.98C259.335 31.46 258.648 31.2 257.795 31.2C257.141 31.2 256.575 31.3533 256.095 31.66C255.628 31.9533 255.261 32.3867 254.995 32.96C254.741 33.52 254.615 34.2 254.615 35C254.615 35.7867 254.748 36.4667 255.015 37.04C255.281 37.6133 255.655 38.0533 256.135 38.36C256.628 38.6533 257.215 38.8 257.895 38.8C258.628 38.8 259.221 38.66 259.675 38.38C260.141 38.1 260.515 37.72 260.795 37.24L262.055 37.98C261.801 38.4333 261.475 38.8267 261.075 39.16C260.688 39.4933 260.228 39.7533 259.695 39.94C259.175 40.1133 258.588 40.2 257.935 40.2ZM277.954 33.54C277.954 32.7933 277.754 32.22 277.354 31.82C276.954 31.4067 276.387 31.2 275.654 31.2C274.961 31.2 274.374 31.3533 273.894 31.66C273.414 31.9533 273.061 32.4333 272.834 33.1L271.534 32.3C271.801 31.5533 272.294 30.9533 273.014 30.5C273.734 30.0333 274.627 29.8 275.694 29.8C276.414 29.8 277.067 29.9267 277.654 30.18C278.241 30.42 278.701 30.7933 279.034 31.3C279.381 31.7933 279.554 32.4333 279.554 33.22V38.06C279.554 38.54 279.807 38.78 280.314 38.78C280.567 38.78 280.814 38.7467 281.054 38.68L280.974 39.94C280.707 40.0733 280.361 40.14 279.934 40.14C279.547 40.14 279.201 40.0667 278.894 39.92C278.587 39.7733 278.347 39.5533 278.174 39.26C278.001 38.9533 277.914 38.5733 277.914 38.12V37.92L278.314 37.98C278.154 38.5 277.881 38.9267 277.494 39.26C277.107 39.58 276.674 39.82 276.194 39.98C275.714 40.1267 275.241 40.2 274.774 40.2C274.187 40.2 273.641 40.1 273.134 39.9C272.627 39.7 272.221 39.4 271.914 39C271.621 38.5867 271.474 38.08 271.474 37.48C271.474 36.7333 271.721 36.12 272.214 35.64C272.721 35.1467 273.421 34.8133 274.314 34.64L278.274 33.86V35.18L275.054 35.84C274.401 35.9733 273.914 36.16 273.594 36.4C273.274 36.64 273.114 36.9733 273.114 37.4C273.114 37.8133 273.274 38.1533 273.594 38.42C273.927 38.6733 274.394 38.8 274.994 38.8C275.381 38.8 275.747 38.7533 276.094 38.66C276.454 38.5533 276.774 38.4 277.054 38.2C277.334 37.9867 277.554 37.7267 277.714 37.42C277.874 37.1 277.954 36.7267 277.954 36.3V33.54ZM283.442 40V30H284.842L284.982 32.24L284.722 32.02C284.935 31.4867 285.222 31.06 285.582 30.74C285.942 30.4067 286.355 30.1667 286.822 30.02C287.302 29.8733 287.795 29.8 288.302 29.8C289.022 29.8 289.675 29.94 290.262 30.22C290.849 30.4867 291.315 30.9 291.662 31.46C292.022 32.02 292.202 32.7333 292.202 33.6V40H290.602V34.16C290.602 33.0533 290.362 32.2867 289.882 31.86C289.415 31.42 288.835 31.2 288.142 31.2C287.662 31.2 287.182 31.3133 286.702 31.54C286.222 31.7667 285.822 32.1333 285.502 32.64C285.195 33.1467 285.042 33.8267 285.042 34.68V40H283.442ZM299.725 40.2C298.898 40.2 298.138 39.9933 297.445 39.58C296.752 39.1667 296.198 38.5733 295.785 37.8C295.372 37.0133 295.165 36.08 295.165 35C295.165 33.8933 295.385 32.9533 295.825 32.18C296.265 31.4067 296.845 30.82 297.565 30.42C298.285 30.0067 299.058 29.8 299.885 29.8C300.712 29.8 301.425 30.0133 302.025 30.44C302.638 30.8667 303.045 31.4333 303.245 32.14L303.045 32.28V25.4H304.645V40H303.245L303.105 37.58L303.325 37.46C303.232 38.0467 303.005 38.5467 302.645 38.96C302.298 39.36 301.865 39.6667 301.345 39.88C300.838 40.0933 300.298 40.2 299.725 40.2ZM299.885 38.8C300.525 38.8 301.078 38.64 301.545 38.32C302.025 38 302.392 37.5467 302.645 36.96C302.912 36.36 303.045 35.66 303.045 34.86C303.045 34.1 302.912 33.4467 302.645 32.9C302.392 32.3533 302.032 31.9333 301.565 31.64C301.112 31.3467 300.578 31.2 299.965 31.2C298.952 31.2 298.165 31.5467 297.605 32.24C297.045 32.9333 296.765 33.8533 296.765 35C296.765 36.1467 297.038 37.0667 297.585 37.76C298.132 38.4533 298.898 38.8 299.885 38.8ZM321.02 33.54C321.02 32.7933 320.82 32.22 320.42 31.82C320.02 31.4067 319.454 31.2 318.72 31.2C318.027 31.2 317.44 31.3533 316.96 31.66C316.48 31.9533 316.127 32.4333 315.9 33.1L314.6 32.3C314.867 31.5533 315.36 30.9533 316.08 30.5C316.8 30.0333 317.694 29.8 318.76 29.8C319.48 29.8 320.134 29.9267 320.72 30.18C321.307 30.42 321.767 30.7933 322.1 31.3C322.447 31.7933 322.62 32.4333 322.62 33.22V38.06C322.62 38.54 322.874 38.78 323.38 38.78C323.634 38.78 323.88 38.7467 324.12 38.68L324.04 39.94C323.774 40.0733 323.427 40.14 323 40.14C322.614 40.14 322.267 40.0667 321.96 39.92C321.654 39.7733 321.414 39.5533 321.24 39.26C321.067 38.9533 320.98 38.5733 320.98 38.12V37.92L321.38 37.98C321.22 38.5 320.947 38.9267 320.56 39.26C320.174 39.58 319.74 39.82 319.26 39.98C318.78 40.1267 318.307 40.2 317.84 40.2C317.254 40.2 316.707 40.1 316.2 39.9C315.694 39.7 315.287 39.4 314.98 39C314.687 38.5867 314.54 38.08 314.54 37.48C314.54 36.7333 314.787 36.12 315.28 35.64C315.787 35.1467 316.487 34.8133 317.38 34.64L321.34 33.86V35.18L318.12 35.84C317.467 35.9733 316.98 36.16 316.66 36.4C316.34 36.64 316.18 36.9733 316.18 37.4C316.18 37.8133 316.34 38.1533 316.66 38.42C316.994 38.6733 317.46 38.8 318.06 38.8C318.447 38.8 318.814 38.7533 319.16 38.66C319.52 38.5533 319.84 38.4 320.12 38.2C320.4 37.9867 320.62 37.7267 320.78 37.42C320.94 37.1 321.02 36.7267 321.02 36.3V33.54ZM332.856 40V30H334.256L334.356 31.56C334.716 30.9467 335.183 30.5 335.756 30.22C336.343 29.94 336.943 29.8 337.556 29.8C338.263 29.8 338.929 29.96 339.556 30.28C340.183 30.6 340.663 31.0933 340.996 31.76C341.209 31.3067 341.509 30.94 341.896 30.66C342.283 30.3667 342.703 30.1533 343.156 30.02C343.623 29.8733 344.063 29.8 344.476 29.8C345.116 29.8 345.723 29.9333 346.296 30.2C346.883 30.4667 347.363 30.88 347.736 31.44C348.109 32 348.296 32.72 348.296 33.6V40H346.696V33.76C346.696 32.8533 346.469 32.2 346.016 31.8C345.563 31.4 345.003 31.2 344.336 31.2C343.816 31.2 343.329 31.3267 342.876 31.58C342.423 31.8333 342.056 32.2067 341.776 32.7C341.509 33.1933 341.376 33.8 341.376 34.52V40H339.776V33.76C339.776 32.8533 339.549 32.2 339.096 31.8C338.643 31.4 338.083 31.2 337.416 31.2C336.976 31.2 336.523 31.32 336.056 31.56C335.603 31.7867 335.223 32.1533 334.916 32.66C334.609 33.1667 334.456 33.8333 334.456 34.66V40H332.856ZM356.099 40.2C355.152 40.2 354.305 39.9933 353.559 39.58C352.825 39.1667 352.252 38.5733 351.839 37.8C351.425 37.0133 351.219 36.08 351.219 35C351.219 33.92 351.425 32.9933 351.839 32.22C352.252 31.4333 352.819 30.8333 353.539 30.42C354.259 30.0067 355.079 29.8 355.999 29.8C356.932 29.8 357.725 30 358.379 30.4C359.045 30.8 359.552 31.3467 359.899 32.04C360.245 32.72 360.419 33.4867 360.419 34.34C360.419 34.5667 360.412 34.7733 360.399 34.96C360.385 35.1467 360.365 35.3133 360.339 35.46H352.259V34.04H359.639L358.819 34.2C358.819 33.24 358.552 32.5 358.019 31.98C357.499 31.46 356.812 31.2 355.959 31.2C355.305 31.2 354.739 31.3533 354.259 31.66C353.792 31.9533 353.425 32.3867 353.159 32.96C352.905 33.52 352.779 34.2 352.779 35C352.779 35.7867 352.912 36.4667 353.179 37.04C353.445 37.6133 353.819 38.0533 354.299 38.36C354.792 38.6533 355.379 38.8 356.059 38.8C356.792 38.8 357.385 38.66 357.839 38.38C358.305 38.1 358.679 37.72 358.959 37.24L360.219 37.98C359.965 38.4333 359.639 38.8267 359.239 39.16C358.852 39.4933 358.392 39.7533 357.859 39.94C357.339 40.1133 356.752 40.2 356.099 40.2ZM363.462 40V30H364.762L364.982 31.64C365.262 31.0267 365.668 30.5667 366.202 30.26C366.748 29.9533 367.408 29.8 368.182 29.8C368.355 29.8 368.542 29.8133 368.742 29.84C368.955 29.8667 369.135 29.92 369.282 30L369.002 31.46C368.855 31.4067 368.695 31.3667 368.522 31.34C368.348 31.3133 368.102 31.3 367.782 31.3C367.368 31.3 366.948 31.42 366.522 31.66C366.108 31.9 365.762 32.2667 365.482 32.76C365.202 33.24 365.062 33.8533 365.062 34.6V40H363.462ZM371.626 40V30H373.026L373.126 31.56C373.486 30.9467 373.952 30.5 374.526 30.22C375.112 29.94 375.712 29.8 376.326 29.8C377.032 29.8 377.699 29.96 378.326 30.28C378.952 30.6 379.432 31.0933 379.766 31.76C379.979 31.3067 380.279 30.94 380.666 30.66C381.052 30.3667 381.472 30.1533 381.926 30.02C382.392 29.8733 382.832 29.8 383.246 29.8C383.886 29.8 384.492 29.9333 385.066 30.2C385.652 30.4667 386.132 30.88 386.506 31.44C386.879 32 387.066 32.72 387.066 33.6V40H385.466V33.76C385.466 32.8533 385.239 32.2 384.786 31.8C384.332 31.4 383.772 31.2 383.106 31.2C382.586 31.2 382.099 31.3267 381.646 31.58C381.192 31.8333 380.826 32.2067 380.546 32.7C380.279 33.1933 380.146 33.8 380.146 34.52V40H378.546V33.76C378.546 32.8533 378.319 32.2 377.866 31.8C377.412 31.4 376.852 31.2 376.186 31.2C375.746 31.2 375.292 31.32 374.826 31.56C374.372 31.7867 373.992 32.1533 373.686 32.66C373.379 33.1667 373.226 33.8333 373.226 34.66V40H371.626ZM396.528 33.54C396.528 32.7933 396.328 32.22 395.928 31.82C395.528 31.4067 394.961 31.2 394.228 31.2C393.535 31.2 392.948 31.3533 392.468 31.66C391.988 31.9533 391.635 32.4333 391.408 33.1L390.108 32.3C390.375 31.5533 390.868 30.9533 391.588 30.5C392.308 30.0333 393.201 29.8 394.268 29.8C394.988 29.8 395.641 29.9267 396.228 30.18C396.815 30.42 397.275 30.7933 397.608 31.3C397.955 31.7933 398.128 32.4333 398.128 33.22V38.06C398.128 38.54 398.381 38.78 398.888 38.78C399.141 38.78 399.388 38.7467 399.628 38.68L399.548 39.94C399.281 40.0733 398.935 40.14 398.508 40.14C398.121 40.14 397.775 40.0667 397.468 39.92C397.161 39.7733 396.921 39.5533 396.748 39.26C396.575 38.9533 396.488 38.5733 396.488 38.12V37.92L396.888 37.98C396.728 38.5 396.455 38.9267 396.068 39.26C395.681 39.58 395.248 39.82 394.768 39.98C394.288 40.1267 393.815 40.2 393.348 40.2C392.761 40.2 392.215 40.1 391.708 39.9C391.201 39.7 390.795 39.4 390.488 39C390.195 38.5867 390.048 38.08 390.048 37.48C390.048 36.7333 390.295 36.12 390.788 35.64C391.295 35.1467 391.995 34.8133 392.888 34.64L396.848 33.86V35.18L393.628 35.84C392.975 35.9733 392.488 36.16 392.168 36.4C391.848 36.64 391.688 36.9733 391.688 37.4C391.688 37.8133 391.848 38.1533 392.168 38.42C392.501 38.6733 392.968 38.8 393.568 38.8C393.955 38.8 394.321 38.7533 394.668 38.66C395.028 38.5533 395.348 38.4 395.628 38.2C395.908 37.9867 396.128 37.7267 396.288 37.42C396.448 37.1 396.528 36.7267 396.528 36.3V33.54ZM402.816 28.08C402.456 28.08 402.163 27.9733 401.936 27.76C401.723 27.5333 401.616 27.24 401.616 26.88C401.616 26.52 401.723 26.2333 401.936 26.02C402.163 25.7933 402.456 25.68 402.816 25.68C403.176 25.68 403.463 25.7933 403.676 26.02C403.903 26.2333 404.016 26.52 404.016 26.88C404.016 27.24 403.903 27.5333 403.676 27.76C403.463 27.9733 403.176 28.08 402.816 28.08ZM403.616 30V40H402.016V30H403.616ZM411.229 40.2C410.402 40.2 409.642 39.9933 408.949 39.58C408.255 39.1667 407.702 38.5733 407.289 37.8C406.875 37.0133 406.669 36.08 406.669 35C406.669 33.8933 406.889 32.9533 407.329 32.18C407.769 31.4067 408.349 30.82 409.069 30.42C409.789 30.0067 410.562 29.8 411.389 29.8C412.215 29.8 412.929 30.0133 413.529 30.44C414.142 30.8667 414.549 31.4333 414.749 32.14L414.549 32.28V25.4H416.149V40H414.749L414.609 37.58L414.829 37.46C414.735 38.0467 414.509 38.5467 414.149 38.96C413.802 39.36 413.369 39.6667 412.849 39.88C412.342 40.0933 411.802 40.2 411.229 40.2ZM411.389 38.8C412.029 38.8 412.582 38.64 413.049 38.32C413.529 38 413.895 37.5467 414.149 36.96C414.415 36.36 414.549 35.66 414.549 34.86C414.549 34.1 414.415 33.4467 414.149 32.9C413.895 32.3533 413.535 31.9333 413.069 31.64C412.615 31.3467 412.082 31.2 411.469 31.2C410.455 31.2 409.669 31.5467 409.109 32.24C408.549 32.9333 408.269 33.8533 408.269 35C408.269 36.1467 408.542 37.0667 409.089 37.76C409.635 38.4533 410.402 38.8 411.389 38.8ZM432.524 33.54C432.524 32.7933 432.324 32.22 431.924 31.82C431.524 31.4067 430.958 31.2 430.224 31.2C429.531 31.2 428.944 31.3533 428.464 31.66C427.984 31.9533 427.631 32.4333 427.404 33.1L426.104 32.3C426.371 31.5533 426.864 30.9533 427.584 30.5C428.304 30.0333 429.198 29.8 430.264 29.8C430.984 29.8 431.638 29.9267 432.224 30.18C432.811 30.42 433.271 30.7933 433.604 31.3C433.951 31.7933 434.124 32.4333 434.124 33.22V38.06C434.124 38.54 434.378 38.78 434.884 38.78C435.138 38.78 435.384 38.7467 435.624 38.68L435.544 39.94C435.278 40.0733 434.931 40.14 434.504 40.14C434.118 40.14 433.771 40.0667 433.464 39.92C433.158 39.7733 432.918 39.5533 432.744 39.26C432.571 38.9533 432.484 38.5733 432.484 38.12V37.92L432.884 37.98C432.724 38.5 432.451 38.9267 432.064 39.26C431.678 39.58 431.244 39.82 430.764 39.98C430.284 40.1267 429.811 40.2 429.344 40.2C428.758 40.2 428.211 40.1 427.704 39.9C427.198 39.7 426.791 39.4 426.484 39C426.191 38.5867 426.044 38.08 426.044 37.48C426.044 36.7333 426.291 36.12 426.784 35.64C427.291 35.1467 427.991 34.8133 428.884 34.64L432.844 33.86V35.18L429.624 35.84C428.971 35.9733 428.484 36.16 428.164 36.4C427.844 36.64 427.684 36.9733 427.684 37.4C427.684 37.8133 427.844 38.1533 428.164 38.42C428.498 38.6733 428.964 38.8 429.564 38.8C429.951 38.8 430.318 38.7533 430.664 38.66C431.024 38.5533 431.344 38.4 431.624 38.2C431.904 37.9867 432.124 37.7267 432.284 37.42C432.444 37.1 432.524 36.7267 432.524 36.3V33.54ZM438.012 44.2V30H439.412L439.552 32.44L439.332 32.16C439.506 31.6933 439.766 31.2867 440.112 30.94C440.459 30.58 440.879 30.3 441.372 30.1C441.866 29.9 442.399 29.8 442.972 29.8C443.786 29.8 444.532 30.0067 445.212 30.42C445.906 30.8333 446.459 31.4267 446.872 32.2C447.286 32.9733 447.492 33.9067 447.492 35C447.492 36.08 447.279 37.0133 446.852 37.8C446.439 38.5733 445.886 39.1667 445.192 39.58C444.499 39.9933 443.739 40.2 442.912 40.2C442.086 40.2 441.359 40 440.732 39.6C440.119 39.1867 439.679 38.6667 439.412 38.04L439.612 37.74V44.2H438.012ZM442.752 38.8C443.739 38.8 444.506 38.4533 445.052 37.76C445.612 37.0667 445.892 36.1467 445.892 35C445.892 33.8533 445.619 32.9333 445.072 32.24C444.539 31.5467 443.786 31.2 442.812 31.2C442.172 31.2 441.612 31.36 441.132 31.68C440.652 31.9867 440.279 32.4267 440.012 33C439.746 33.56 439.612 34.2267 439.612 35C439.612 35.76 439.739 36.4267 439.992 37C440.259 37.5733 440.626 38.02 441.092 38.34C441.572 38.6467 442.126 38.8 442.752 38.8ZM450.551 44.2V30H451.951L452.091 32.44L451.871 32.16C452.045 31.6933 452.305 31.2867 452.651 30.94C452.998 30.58 453.418 30.3 453.911 30.1C454.405 29.9 454.938 29.8 455.511 29.8C456.325 29.8 457.071 30.0067 457.751 30.42C458.445 30.8333 458.998 31.4267 459.411 32.2C459.825 32.9733 460.031 33.9067 460.031 35C460.031 36.08 459.818 37.0133 459.391 37.8C458.978 38.5733 458.425 39.1667 457.731 39.58C457.038 39.9933 456.278 40.2 455.451 40.2C454.625 40.2 453.898 40 453.271 39.6C452.658 39.1867 452.218 38.6667 451.951 38.04L452.151 37.74V44.2H450.551ZM455.291 38.8C456.278 38.8 457.045 38.4533 457.591 37.76C458.151 37.0667 458.431 36.1467 458.431 35C458.431 33.8533 458.158 32.9333 457.611 32.24C457.078 31.5467 456.325 31.2 455.351 31.2C454.711 31.2 454.151 31.36 453.671 31.68C453.191 31.9867 452.818 32.4267 452.551 33C452.285 33.56 452.151 34.2267 452.151 35C452.151 35.76 452.278 36.4267 452.531 37C452.798 37.5733 453.165 38.02 453.631 38.34C454.111 38.6467 454.665 38.8 455.291 38.8ZM467.27 40.2C466.324 40.2 465.477 39.9933 464.73 39.58C463.997 39.1667 463.424 38.5733 463.01 37.8C462.597 37.0133 462.39 36.08 462.39 35C462.39 33.92 462.597 32.9933 463.01 32.22C463.424 31.4333 463.99 30.8333 464.71 30.42C465.43 30.0067 466.25 29.8 467.17 29.8C468.104 29.8 468.897 30 469.55 30.4C470.217 30.8 470.724 31.3467 471.07 32.04C471.417 32.72 471.59 33.4867 471.59 34.34C471.59 34.5667 471.584 34.7733 471.57 34.96C471.557 35.1467 471.537 35.3133 471.51 35.46H463.43V34.04H470.81L469.99 34.2C469.99 33.24 469.724 32.5 469.19 31.98C468.67 31.46 467.984 31.2 467.13 31.2C466.477 31.2 465.91 31.3533 465.43 31.66C464.964 31.9533 464.597 32.3867 464.33 32.96C464.077 33.52 463.95 34.2 463.95 35C463.95 35.7867 464.084 36.4667 464.35 37.04C464.617 37.6133 464.99 38.0533 465.47 38.36C465.964 38.6533 466.55 38.8 467.23 38.8C467.964 38.8 468.557 38.66 469.01 38.38C469.477 38.1 469.85 37.72 470.13 37.24L471.39 37.98C471.137 38.4333 470.81 38.8267 470.41 39.16C470.024 39.4933 469.564 39.7533 469.03 39.94C468.51 40.1133 467.924 40.2 467.27 40.2ZM480.473 33.54C480.473 32.7933 480.273 32.22 479.873 31.82C479.473 31.4067 478.907 31.2 478.173 31.2C477.48 31.2 476.893 31.3533 476.413 31.66C475.933 31.9533 475.58 32.4333 475.353 33.1L474.053 32.3C474.32 31.5533 474.813 30.9533 475.533 30.5C476.253 30.0333 477.147 29.8 478.213 29.8C478.933 29.8 479.587 29.9267 480.173 30.18C480.76 30.42 481.22 30.7933 481.553 31.3C481.9 31.7933 482.073 32.4333 482.073 33.22V38.06C482.073 38.54 482.327 38.78 482.833 38.78C483.087 38.78 483.333 38.7467 483.573 38.68L483.493 39.94C483.227 40.0733 482.88 40.14 482.453 40.14C482.067 40.14 481.72 40.0667 481.413 39.92C481.107 39.7733 480.867 39.5533 480.693 39.26C480.52 38.9533 480.433 38.5733 480.433 38.12V37.92L480.833 37.98C480.673 38.5 480.4 38.9267 480.013 39.26C479.627 39.58 479.193 39.82 478.713 39.98C478.233 40.1267 477.76 40.2 477.293 40.2C476.707 40.2 476.16 40.1 475.653 39.9C475.147 39.7 474.74 39.4 474.433 39C474.14 38.5867 473.993 38.08 473.993 37.48C473.993 36.7333 474.24 36.12 474.733 35.64C475.24 35.1467 475.94 34.8133 476.833 34.64L480.793 33.86V35.18L477.573 35.84C476.92 35.9733 476.433 36.16 476.113 36.4C475.793 36.64 475.633 36.9733 475.633 37.4C475.633 37.8133 475.793 38.1533 476.113 38.42C476.447 38.6733 476.913 38.8 477.513 38.8C477.9 38.8 478.267 38.7533 478.613 38.66C478.973 38.5533 479.293 38.4 479.573 38.2C479.853 37.9867 480.073 37.7267 480.233 37.42C480.393 37.1 480.473 36.7267 480.473 36.3V33.54ZM485.962 40V30H487.262L487.482 31.64C487.762 31.0267 488.168 30.5667 488.702 30.26C489.248 29.9533 489.908 29.8 490.682 29.8C490.855 29.8 491.042 29.8133 491.242 29.84C491.455 29.8667 491.635 29.92 491.782 30L491.502 31.46C491.355 31.4067 491.195 31.3667 491.022 31.34C490.848 31.3133 490.602 31.3 490.282 31.3C489.868 31.3 489.448 31.42 489.022 31.66C488.608 31.9 488.262 32.2667 487.982 32.76C487.702 33.24 487.562 33.8533 487.562 34.6V40H485.962ZM502.443 27.16V37.24C502.443 37.7333 502.583 38.1 502.863 38.34C503.143 38.58 503.503 38.7 503.943 38.7C504.329 38.7 504.663 38.6333 504.943 38.5C505.223 38.3667 505.476 38.1867 505.703 37.96L506.263 39.3C505.956 39.58 505.589 39.8 505.163 39.96C504.749 40.12 504.269 40.2 503.723 40.2C503.216 40.2 502.743 40.1133 502.303 39.94C501.863 39.7533 501.509 39.4667 501.243 39.08C500.989 38.68 500.856 38.16 500.843 37.52V27.6L502.443 27.16ZM506.083 30V31.38H498.843V30H506.083ZM508.462 40V25.4H510.062V31.5C510.408 30.9 510.868 30.4667 511.442 30.2C512.015 29.9333 512.642 29.8 513.322 29.8C514.042 29.8 514.695 29.94 515.282 30.22C515.868 30.4867 516.335 30.9 516.682 31.46C517.042 32.02 517.222 32.7333 517.222 33.6V40H515.622V34.16C515.622 33.0533 515.382 32.2867 514.902 31.86C514.435 31.42 513.855 31.2 513.162 31.2C512.682 31.2 512.202 31.3133 511.722 31.54C511.242 31.7667 510.842 32.14 510.522 32.66C510.215 33.1667 510.062 33.8467 510.062 34.7V40H508.462ZM520.844 40V30H522.144L522.364 31.64C522.644 31.0267 523.051 30.5667 523.584 30.26C524.131 29.9533 524.791 29.8 525.564 29.8C525.738 29.8 525.924 29.8133 526.124 29.84C526.338 29.8667 526.518 29.92 526.664 30L526.384 31.46C526.238 31.4067 526.078 31.3667 525.904 31.34C525.731 31.3133 525.484 31.3 525.164 31.3C524.751 31.3 524.331 31.42 523.904 31.66C523.491 31.9 523.144 32.2667 522.864 32.76C522.584 33.24 522.444 33.8533 522.444 34.6V40H520.844ZM532.836 29.8C533.783 29.8 534.616 30.0067 535.336 30.42C536.069 30.8333 536.643 31.4333 537.056 32.22C537.469 32.9933 537.676 33.92 537.676 35C537.676 36.08 537.469 37.0133 537.056 37.8C536.643 38.5733 536.069 39.1667 535.336 39.58C534.616 39.9933 533.783 40.2 532.836 40.2C531.903 40.2 531.069 39.9933 530.336 39.58C529.603 39.1667 529.029 38.5733 528.616 37.8C528.203 37.0133 527.996 36.08 527.996 35C527.996 33.92 528.203 32.9933 528.616 32.22C529.029 31.4333 529.603 30.8333 530.336 30.42C531.069 30.0067 531.903 29.8 532.836 29.8ZM532.836 31.18C532.156 31.18 531.576 31.3333 531.096 31.64C530.616 31.9467 530.243 32.3867 529.976 32.96C529.723 33.52 529.596 34.2 529.596 35C529.596 35.7867 529.723 36.4667 529.976 37.04C530.243 37.6133 530.616 38.0533 531.096 38.36C531.576 38.6667 532.156 38.82 532.836 38.82C533.516 38.82 534.096 38.6667 534.576 38.36C535.056 38.0533 535.423 37.6133 535.676 37.04C535.943 36.4667 536.076 35.7867 536.076 35C536.076 34.2 535.943 33.52 535.676 32.96C535.423 32.3867 535.056 31.9467 534.576 31.64C534.096 31.3333 533.516 31.18 532.836 31.18ZM544.308 40.2C543.668 40.2 543.061 40.08 542.488 39.84C541.928 39.6 541.468 39.2133 541.108 38.68C540.761 38.1333 540.588 37.4267 540.588 36.56V30H542.188V36.14C542.188 37.1533 542.408 37.8533 542.848 38.24C543.288 38.6133 543.908 38.8 544.708 38.8C545.081 38.8 545.448 38.74 545.808 38.62C546.168 38.4867 546.488 38.2867 546.768 38.02C547.061 37.74 547.288 37.3867 547.448 36.96C547.621 36.5333 547.708 36.0267 547.708 35.44V30H549.308V40H547.908L547.808 38.48C547.461 39.08 546.988 39.52 546.388 39.8C545.801 40.0667 545.108 40.2 544.308 40.2ZM561.452 28.16L561.812 29.58C561.799 29.58 561.779 29.58 561.752 29.58C561.725 29.58 561.699 29.58 561.672 29.58C561.019 29.58 560.512 29.7133 560.152 29.98C559.805 30.2333 559.632 30.6467 559.632 31.22L558.652 30.72C558.652 30.2 558.772 29.7467 559.012 29.36C559.252 28.9733 559.579 28.68 559.992 28.48C560.405 28.2667 560.859 28.16 561.352 28.16C561.365 28.16 561.379 28.16 561.392 28.16C561.419 28.16 561.439 28.16 561.452 28.16ZM558.412 38.72C559.359 38.72 560.099 38.94 560.632 39.38C561.165 39.8067 561.432 40.38 561.432 41.1C561.432 41.7533 561.212 42.32 560.772 42.8C560.345 43.28 559.765 43.6467 559.032 43.9C558.312 44.1667 557.499 44.3 556.592 44.3C555.019 44.3 553.839 44.0333 553.052 43.5C552.279 42.9667 551.892 42.3267 551.892 41.58C551.892 41.0467 552.065 40.5667 552.412 40.14C552.772 39.7267 553.372 39.4933 554.212 39.44L554.072 39.74C553.619 39.62 553.232 39.42 552.912 39.14C552.605 38.8467 552.452 38.4267 552.452 37.88C552.452 37.3333 552.652 36.8667 553.052 36.48C553.465 36.08 554.072 35.8333 554.872 35.74L555.932 36.28H555.732C555.079 36.3467 554.612 36.5133 554.332 36.78C554.065 37.0333 553.932 37.3133 553.932 37.62C553.932 37.9933 554.065 38.2733 554.332 38.46C554.612 38.6333 554.999 38.72 555.492 38.72H558.412ZM556.572 42.96C557.345 42.96 557.979 42.88 558.472 42.72C558.979 42.56 559.352 42.3533 559.592 42.1C559.832 41.8467 559.952 41.5733 559.952 41.28C559.952 40.92 559.805 40.6333 559.512 40.42C559.232 40.2067 558.719 40.1 557.972 40.1H554.892C554.465 40.1 554.105 40.2067 553.812 40.42C553.519 40.6467 553.372 40.9533 553.372 41.34C553.372 41.8333 553.652 42.2267 554.212 42.52C554.785 42.8133 555.572 42.96 556.572 42.96ZM556.432 29.8C557.232 29.8 557.939 29.9467 558.552 30.24C559.179 30.52 559.665 30.9133 560.012 31.42C560.359 31.9267 560.532 32.5133 560.532 33.18C560.532 33.8333 560.359 34.42 560.012 34.94C559.665 35.4467 559.179 35.8467 558.552 36.14C557.939 36.42 557.232 36.56 556.432 36.56C555.112 36.56 554.099 36.2467 553.392 35.62C552.685 34.98 552.332 34.1667 552.332 33.18C552.332 32.5133 552.505 31.9267 552.852 31.42C553.212 30.9133 553.699 30.52 554.312 30.24C554.925 29.9467 555.632 29.8 556.432 29.8ZM556.432 31.1C555.739 31.1 555.159 31.2933 554.692 31.68C554.225 32.0533 553.992 32.5533 553.992 33.18C553.992 33.7933 554.225 34.2933 554.692 34.68C555.159 35.0667 555.739 35.26 556.432 35.26C557.125 35.26 557.705 35.0667 558.172 34.68C558.639 34.2933 558.872 33.7933 558.872 33.18C558.872 32.5533 558.639 32.0533 558.172 31.68C557.705 31.2933 557.125 31.1 556.432 31.1ZM563.676 40V25.4H565.276V31.5C565.623 30.9 566.083 30.4667 566.656 30.2C567.23 29.9333 567.856 29.8 568.536 29.8C569.256 29.8 569.91 29.94 570.496 30.22C571.083 30.4867 571.55 30.9 571.896 31.46C572.256 32.02 572.436 32.7333 572.436 33.6V40H570.836V34.16C570.836 33.0533 570.596 32.2867 570.116 31.86C569.65 31.42 569.07 31.2 568.376 31.2C567.896 31.2 567.416 31.3133 566.936 31.54C566.456 31.7667 566.056 32.14 565.736 32.66C565.43 33.1667 565.276 33.8467 565.276 34.7V40H563.676ZM580.199 29.8C581.146 29.8 581.979 30.0067 582.699 30.42C583.433 30.8333 584.006 31.4333 584.419 32.22C584.833 32.9933 585.039 33.92 585.039 35C585.039 36.08 584.833 37.0133 584.419 37.8C584.006 38.5733 583.433 39.1667 582.699 39.58C581.979 39.9933 581.146 40.2 580.199 40.2C579.266 40.2 578.433 39.9933 577.699 39.58C576.966 39.1667 576.393 38.5733 575.979 37.8C575.566 37.0133 575.359 36.08 575.359 35C575.359 33.92 575.566 32.9933 575.979 32.22C576.393 31.4333 576.966 30.8333 577.699 30.42C578.433 30.0067 579.266 29.8 580.199 29.8ZM580.199 31.18C579.519 31.18 578.939 31.3333 578.459 31.64C577.979 31.9467 577.606 32.3867 577.339 32.96C577.086 33.52 576.959 34.2 576.959 35C576.959 35.7867 577.086 36.4667 577.339 37.04C577.606 37.6133 577.979 38.0533 578.459 38.36C578.939 38.6667 579.519 38.82 580.199 38.82C580.879 38.82 581.459 38.6667 581.939 38.36C582.419 38.0533 582.786 37.6133 583.039 37.04C583.306 36.4667 583.439 35.7867 583.439 35C583.439 34.2 583.306 33.52 583.039 32.96C582.786 32.3867 582.419 31.9467 581.939 31.64C581.459 31.3333 580.879 31.18 580.199 31.18ZM591.671 40.2C591.031 40.2 590.425 40.08 589.851 39.84C589.291 39.6 588.831 39.2133 588.471 38.68C588.125 38.1333 587.951 37.4267 587.951 36.56V30H589.551V36.14C589.551 37.1533 589.771 37.8533 590.211 38.24C590.651 38.6133 591.271 38.8 592.071 38.8C592.445 38.8 592.811 38.74 593.171 38.62C593.531 38.4867 593.851 38.2867 594.131 38.02C594.425 37.74 594.651 37.3867 594.811 36.96C594.985 36.5333 595.071 36.0267 595.071 35.44V30H596.671V40H595.271L595.171 38.48C594.825 39.08 594.351 39.52 593.751 39.8C593.165 40.0667 592.471 40.2 591.671 40.2ZM602.755 27.16V37.24C602.755 37.7333 602.895 38.1 603.175 38.34C603.455 38.58 603.815 38.7 604.255 38.7C604.642 38.7 604.975 38.6333 605.255 38.5C605.535 38.3667 605.788 38.1867 606.015 37.96L606.575 39.3C606.268 39.58 605.902 39.8 605.475 39.96C605.062 40.12 604.582 40.2 604.035 40.2C603.528 40.2 603.055 40.1133 602.615 39.94C602.175 39.7533 601.822 39.4667 601.555 39.08C601.302 38.68 601.168 38.16 601.155 37.52V27.6L602.755 27.16ZM606.395 30V31.38H599.155V30H606.395ZM4.22 53.16V63.24C4.22 63.7333 4.36 64.1 4.64 64.34C4.92 64.58 5.28 64.7 5.72 64.7C6.10667 64.7 6.44 64.6333 6.72 64.5C7 64.3667 7.25333 64.1867 7.48 63.96L8.04 65.3C7.73333 65.58 7.36667 65.8 6.94 65.96C6.52667 66.12 6.04667 66.2 5.5 66.2C4.99333 66.2 4.52 66.1133 4.08 65.94C3.64 65.7533 3.28667 65.4667 3.02 65.08C2.76667 64.68 2.63333 64.16 2.62 63.52V53.6L4.22 53.16ZM7.86 56V57.38H0.62V56H7.86ZM10.2389 66V51.4H11.8389V57.5C12.1856 56.9 12.6456 56.4667 13.2189 56.2C13.7922 55.9333 14.4189 55.8 15.0989 55.8C15.8189 55.8 16.4722 55.94 17.0589 56.22C17.6456 56.4867 18.1122 56.9 18.4589 57.46C18.8189 58.02 18.9989 58.7333 18.9989 59.6V66H17.3989V60.16C17.3989 59.0533 17.1589 58.2867 16.6789 57.86C16.2122 57.42 15.6322 57.2 14.9389 57.2C14.4589 57.2 13.9789 57.3133 13.4989 57.54C13.0189 57.7667 12.6189 58.14 12.2989 58.66C11.9922 59.1667 11.8389 59.8467 11.8389 60.7V66H10.2389ZM26.8017 66.2C25.8551 66.2 25.0084 65.9933 24.2617 65.58C23.5284 65.1667 22.9551 64.5733 22.5417 63.8C22.1284 63.0133 21.9217 62.08 21.9217 61C21.9217 59.92 22.1284 58.9933 22.5417 58.22C22.9551 57.4333 23.5217 56.8333 24.2417 56.42C24.9617 56.0067 25.7817 55.8 26.7017 55.8C27.6351 55.8 28.4284 56 29.0817 56.4C29.7484 56.8 30.2551 57.3467 30.6017 58.04C30.9484 58.72 31.1217 59.4867 31.1217 60.34C31.1217 60.5667 31.1151 60.7733 31.1017 60.96C31.0884 61.1467 31.0684 61.3133 31.0417 61.46H22.9617V60.04H30.3417L29.5217 60.2C29.5217 59.24 29.2551 58.5 28.7217 57.98C28.2017 57.46 27.5151 57.2 26.6617 57.2C26.0084 57.2 25.4417 57.3533 24.9617 57.66C24.4951 57.9533 24.1284 58.3867 23.8617 58.96C23.6084 59.52 23.4817 60.2 23.4817 61C23.4817 61.7867 23.6151 62.4667 23.8817 63.04C24.1484 63.6133 24.5217 64.0533 25.0017 64.36C25.4951 64.6533 26.0817 64.8 26.7617 64.8C27.4951 64.8 28.0884 64.66 28.5417 64.38C29.0084 64.1 29.3817 63.72 29.6617 63.24L30.9217 63.98C30.6684 64.4333 30.3417 64.8267 29.9417 65.16C29.5551 65.4933 29.0951 65.7533 28.5617 65.94C28.0417 66.1133 27.4551 66.2 26.8017 66.2ZM40.9811 70.2V56H42.3811L42.5211 58.44L42.3011 58.16C42.4744 57.6933 42.7344 57.2867 43.0811 56.94C43.4278 56.58 43.8478 56.3 44.3411 56.1C44.8344 55.9 45.3678 55.8 45.9411 55.8C46.7544 55.8 47.5011 56.0067 48.1811 56.42C48.8744 56.8333 49.4278 57.4267 49.8411 58.2C50.2544 58.9733 50.4611 59.9067 50.4611 61C50.4611 62.08 50.2478 63.0133 49.8211 63.8C49.4078 64.5733 48.8544 65.1667 48.1611 65.58C47.4678 65.9933 46.7078 66.2 45.8811 66.2C45.0544 66.2 44.3278 66 43.7011 65.6C43.0878 65.1867 42.6478 64.6667 42.3811 64.04L42.5811 63.74V70.2H40.9811ZM45.7211 64.8C46.7078 64.8 47.4744 64.4533 48.0211 63.76C48.5811 63.0667 48.8611 62.1467 48.8611 61C48.8611 59.8533 48.5878 58.9333 48.0411 58.24C47.5078 57.5467 46.7544 57.2 45.7811 57.2C45.1411 57.2 44.5811 57.36 44.1011 57.68C43.6211 57.9867 43.2478 58.4267 42.9811 59C42.7144 59.56 42.5811 60.2267 42.5811 61C42.5811 61.76 42.7078 62.4267 42.9611 63C43.2278 63.5733 43.5944 64.02 44.0611 64.34C44.5411 64.6467 45.0944 64.8 45.7211 64.8ZM57.6602 55.8C58.6068 55.8 59.4402 56.0067 60.1602 56.42C60.8935 56.8333 61.4668 57.4333 61.8802 58.22C62.2935 58.9933 62.5002 59.92 62.5002 61C62.5002 62.08 62.2935 63.0133 61.8802 63.8C61.4668 64.5733 60.8935 65.1667 60.1602 65.58C59.4402 65.9933 58.6068 66.2 57.6602 66.2C56.7268 66.2 55.8935 65.9933 55.1602 65.58C54.4268 65.1667 53.8535 64.5733 53.4402 63.8C53.0268 63.0133 52.8202 62.08 52.8202 61C52.8202 59.92 53.0268 58.9933 53.4402 58.22C53.8535 57.4333 54.4268 56.8333 55.1602 56.42C55.8935 56.0067 56.7268 55.8 57.6602 55.8ZM57.6602 57.18C56.9802 57.18 56.4002 57.3333 55.9202 57.64C55.4402 57.9467 55.0668 58.3867 54.8002 58.96C54.5468 59.52 54.4202 60.2 54.4202 61C54.4202 61.7867 54.5468 62.4667 54.8002 63.04C55.0668 63.6133 55.4402 64.0533 55.9202 64.36C56.4002 64.6667 56.9802 64.82 57.6602 64.82C58.3402 64.82 58.9202 64.6667 59.4002 64.36C59.8802 64.0533 60.2468 63.6133 60.5002 63.04C60.7668 62.4667 60.9002 61.7867 60.9002 61C60.9002 60.2 60.7668 59.52 60.5002 58.96C60.2468 58.3867 59.8802 57.9467 59.4002 57.64C58.9202 57.3333 58.3402 57.18 57.6602 57.18ZM69.1123 66.2C68.139 66.2 67.239 65.9933 66.4123 65.58C65.599 65.1667 64.9723 64.58 64.5323 63.82L65.8923 62.84C66.1857 63.4533 66.6123 63.9333 67.1723 64.28C67.7457 64.6267 68.4323 64.8 69.2323 64.8C69.939 64.8 70.4923 64.6667 70.8923 64.4C71.2923 64.12 71.4923 63.76 71.4923 63.32C71.4923 63.04 71.399 62.7867 71.2123 62.56C71.039 62.32 70.699 62.1467 70.1923 62.04L67.7923 61.54C66.819 61.34 66.119 61.0067 65.6923 60.54C65.279 60.0733 65.0723 59.4933 65.0723 58.8C65.0723 58.2533 65.2257 57.7533 65.5323 57.3C65.8523 56.8467 66.299 56.4867 66.8723 56.22C67.459 55.94 68.1457 55.8 68.9323 55.8C69.919 55.8 70.7523 55.9933 71.4323 56.38C72.1123 56.7667 72.619 57.3133 72.9523 58.02L71.6123 58.9C71.3857 58.3133 71.019 57.8867 70.5123 57.62C70.0057 57.34 69.479 57.2 68.9323 57.2C68.4523 57.2 68.039 57.2667 67.6923 57.4C67.359 57.5333 67.099 57.72 66.9123 57.96C66.739 58.1867 66.6523 58.4467 66.6523 58.74C66.6523 59.0333 66.7523 59.3067 66.9523 59.56C67.1523 59.8 67.5257 59.9733 68.0723 60.08L70.5723 60.6C71.5057 60.7867 72.159 61.0933 72.5323 61.52C72.9057 61.9467 73.0923 62.4667 73.0923 63.08C73.0923 63.7067 72.9257 64.26 72.5923 64.74C72.259 65.2067 71.7923 65.5667 71.1923 65.82C70.5923 66.0733 69.899 66.2 69.1123 66.2ZM78.4192 53.16V63.24C78.4192 63.7333 78.5592 64.1 78.8392 64.34C79.1192 64.58 79.4792 64.7 79.9192 64.7C80.3059 64.7 80.6392 64.6333 80.9192 64.5C81.1992 64.3667 81.4526 64.1867 81.6792 63.96L82.2392 65.3C81.9326 65.58 81.5659 65.8 81.1392 65.96C80.7259 66.12 80.2459 66.2 79.6992 66.2C79.1926 66.2 78.7192 66.1133 78.2792 65.94C77.8392 65.7533 77.4859 65.4667 77.2192 65.08C76.9659 64.68 76.8326 64.16 76.8192 63.52V53.6L78.4192 53.16ZM82.0592 56V57.38H74.8192V56H82.0592ZM88.6181 66.2C87.6715 66.2 86.8248 65.9933 86.0781 65.58C85.3448 65.1667 84.7715 64.5733 84.3581 63.8C83.9448 63.0133 83.7381 62.08 83.7381 61C83.7381 59.92 83.9448 58.9933 84.3581 58.22C84.7715 57.4333 85.3381 56.8333 86.0581 56.42C86.7781 56.0067 87.5981 55.8 88.5181 55.8C89.4515 55.8 90.2448 56 90.8981 56.4C91.5648 56.8 92.0715 57.3467 92.4181 58.04C92.7648 58.72 92.9381 59.4867 92.9381 60.34C92.9381 60.5667 92.9315 60.7733 92.9181 60.96C92.9048 61.1467 92.8848 61.3133 92.8581 61.46H84.7781V60.04H92.1581L91.3381 60.2C91.3381 59.24 91.0715 58.5 90.5381 57.98C90.0181 57.46 89.3315 57.2 88.4781 57.2C87.8248 57.2 87.2581 57.3533 86.7781 57.66C86.3115 57.9533 85.9448 58.3867 85.6781 58.96C85.4248 59.52 85.2981 60.2 85.2981 61C85.2981 61.7867 85.4315 62.4667 85.6981 63.04C85.9648 63.6133 86.3381 64.0533 86.8181 64.36C87.3115 64.6533 87.8981 64.8 88.5781 64.8C89.3115 64.8 89.9048 64.66 90.3581 64.38C90.8248 64.1 91.1981 63.72 91.4781 63.24L92.7381 63.98C92.4848 64.4333 92.1581 64.8267 91.7581 65.16C91.3715 65.4933 90.9115 65.7533 90.3781 65.94C89.8581 66.1133 89.2715 66.2 88.6181 66.2ZM95.9811 66V56H97.2811L97.5011 57.64C97.7811 57.0267 98.1878 56.5667 98.7211 56.26C99.2678 55.9533 99.9278 55.8 100.701 55.8C100.874 55.8 101.061 55.8133 101.261 55.84C101.474 55.8667 101.654 55.92 101.801 56L101.521 57.46C101.374 57.4067 101.214 57.3667 101.041 57.34C100.868 57.3133 100.621 57.3 100.301 57.3C99.8878 57.3 99.4678 57.42 99.0411 57.66C98.6278 57.9 98.2811 58.2667 98.0011 58.76C97.7211 59.24 97.5811 59.8533 97.5811 60.6V66H95.9811ZM103.344 63.6C103.664 63.6 103.93 63.6867 104.144 63.86C104.37 64.02 104.544 64.2467 104.664 64.54C104.784 64.82 104.844 65.1533 104.844 65.54C104.844 65.98 104.764 66.4133 104.604 66.84C104.457 67.2667 104.224 67.66 103.904 68.02C103.584 68.38 103.17 68.68 102.664 68.92L101.824 68.14C102.184 68.02 102.497 67.8533 102.764 67.64C103.044 67.4267 103.27 67.1867 103.444 66.92C103.617 66.6533 103.73 66.38 103.784 66.1L103.704 66.06C103.65 66.1 103.584 66.1333 103.504 66.16C103.424 66.1867 103.304 66.2 103.144 66.2C102.984 66.2 102.817 66.1533 102.644 66.06C102.484 65.9667 102.344 65.8333 102.224 65.66C102.104 65.4733 102.044 65.2333 102.044 64.94C102.044 64.7 102.104 64.48 102.224 64.28C102.344 64.0667 102.497 63.9 102.684 63.78C102.884 63.66 103.104 63.6 103.344 63.6ZM120.513 59.54C120.513 58.7933 120.313 58.22 119.913 57.82C119.513 57.4067 118.946 57.2 118.213 57.2C117.519 57.2 116.933 57.3533 116.453 57.66C115.973 57.9533 115.619 58.4333 115.393 59.1L114.093 58.3C114.359 57.5533 114.853 56.9533 115.573 56.5C116.293 56.0333 117.186 55.8 118.253 55.8C118.973 55.8 119.626 55.9267 120.213 56.18C120.799 56.42 121.259 56.7933 121.593 57.3C121.939 57.7933 122.113 58.4333 122.113 59.22V64.06C122.113 64.54 122.366 64.78 122.873 64.78C123.126 64.78 123.373 64.7467 123.613 64.68L123.533 65.94C123.266 66.0733 122.919 66.14 122.493 66.14C122.106 66.14 121.759 66.0667 121.453 65.92C121.146 65.7733 120.906 65.5533 120.733 65.26C120.559 64.9533 120.473 64.5733 120.473 64.12V63.92L120.873 63.98C120.713 64.5 120.439 64.9267 120.053 65.26C119.666 65.58 119.233 65.82 118.753 65.98C118.273 66.1267 117.799 66.2 117.333 66.2C116.746 66.2 116.199 66.1 115.693 65.9C115.186 65.7 114.779 65.4 114.473 65C114.179 64.5867 114.033 64.08 114.033 63.48C114.033 62.7333 114.279 62.12 114.773 61.64C115.279 61.1467 115.979 60.8133 116.873 60.64L120.833 59.86V61.18L117.613 61.84C116.959 61.9733 116.473 62.16 116.153 62.4C115.833 62.64 115.673 62.9733 115.673 63.4C115.673 63.8133 115.833 64.1533 116.153 64.42C116.486 64.6733 116.953 64.8 117.553 64.8C117.939 64.8 118.306 64.7533 118.653 64.66C119.013 64.5533 119.333 64.4 119.613 64.2C119.893 63.9867 120.113 63.7267 120.273 63.42C120.433 63.1 120.513 62.7267 120.513 62.3V59.54ZM132.348 66V56H133.748L133.888 58.24L133.628 58.02C133.842 57.4867 134.128 57.06 134.488 56.74C134.848 56.4067 135.262 56.1667 135.728 56.02C136.208 55.8733 136.702 55.8 137.208 55.8C137.928 55.8 138.582 55.94 139.168 56.22C139.755 56.4867 140.222 56.9 140.568 57.46C140.928 58.02 141.108 58.7333 141.108 59.6V66H139.508V60.16C139.508 59.0533 139.268 58.2867 138.788 57.86C138.322 57.42 137.742 57.2 137.048 57.2C136.568 57.2 136.088 57.3133 135.608 57.54C135.128 57.7667 134.728 58.1333 134.408 58.64C134.102 59.1467 133.948 59.8267 133.948 60.68V66H132.348ZM148.871 55.8C149.818 55.8 150.651 56.0067 151.371 56.42C152.104 56.8333 152.678 57.4333 153.091 58.22C153.504 58.9933 153.711 59.92 153.711 61C153.711 62.08 153.504 63.0133 153.091 63.8C152.678 64.5733 152.104 65.1667 151.371 65.58C150.651 65.9933 149.818 66.2 148.871 66.2C147.938 66.2 147.104 65.9933 146.371 65.58C145.638 65.1667 145.064 64.5733 144.651 63.8C144.238 63.0133 144.031 62.08 144.031 61C144.031 59.92 144.238 58.9933 144.651 58.22C145.064 57.4333 145.638 56.8333 146.371 56.42C147.104 56.0067 147.938 55.8 148.871 55.8ZM148.871 57.18C148.191 57.18 147.611 57.3333 147.131 57.64C146.651 57.9467 146.278 58.3867 146.011 58.96C145.758 59.52 145.631 60.2 145.631 61C145.631 61.7867 145.758 62.4667 146.011 63.04C146.278 63.6133 146.651 64.0533 147.131 64.36C147.611 64.6667 148.191 64.82 148.871 64.82C149.551 64.82 150.131 64.6667 150.611 64.36C151.091 64.0533 151.458 63.6133 151.711 63.04C151.978 62.4667 152.111 61.7867 152.111 61C152.111 60.2 151.978 59.52 151.711 58.96C151.458 58.3867 151.091 57.9467 150.611 57.64C150.131 57.3333 149.551 57.18 148.871 57.18ZM160.623 66.2C159.797 66.2 159.037 65.9933 158.343 65.58C157.65 65.1667 157.097 64.5733 156.683 63.8C156.27 63.0133 156.063 62.08 156.063 61C156.063 59.8933 156.283 58.9533 156.723 58.18C157.163 57.4067 157.743 56.82 158.463 56.42C159.183 56.0067 159.957 55.8 160.783 55.8C161.61 55.8 162.323 56.0133 162.923 56.44C163.537 56.8667 163.943 57.4333 164.143 58.14L163.943 58.28V51.4H165.543V66H164.143L164.003 63.58L164.223 63.46C164.13 64.0467 163.903 64.5467 163.543 64.96C163.197 65.36 162.763 65.6667 162.243 65.88C161.737 66.0933 161.197 66.2 160.623 66.2ZM160.783 64.8C161.423 64.8 161.977 64.64 162.443 64.32C162.923 64 163.29 63.5467 163.543 62.96C163.81 62.36 163.943 61.66 163.943 60.86C163.943 60.1 163.81 59.4467 163.543 58.9C163.29 58.3533 162.93 57.9333 162.463 57.64C162.01 57.3467 161.477 57.2 160.863 57.2C159.85 57.2 159.063 57.5467 158.503 58.24C157.943 58.9333 157.663 59.8533 157.663 61C157.663 62.1467 157.937 63.0667 158.483 63.76C159.03 64.4533 159.797 64.8 160.783 64.8ZM178.048 53.16V63.24C178.048 63.7333 178.188 64.1 178.468 64.34C178.748 64.58 179.108 64.7 179.548 64.7C179.935 64.7 180.268 64.6333 180.548 64.5C180.828 64.3667 181.081 64.1867 181.308 63.96L181.868 65.3C181.561 65.58 181.195 65.8 180.768 65.96C180.355 66.12 179.875 66.2 179.328 66.2C178.821 66.2 178.348 66.1133 177.908 65.94C177.468 65.7533 177.115 65.4667 176.848 65.08C176.595 64.68 176.461 64.16 176.448 63.52V53.6L178.048 53.16ZM181.688 56V57.38H174.448V56H181.688ZM188.207 55.8C189.154 55.8 189.987 56.0067 190.707 56.42C191.44 56.8333 192.014 57.4333 192.427 58.22C192.84 58.9933 193.047 59.92 193.047 61C193.047 62.08 192.84 63.0133 192.427 63.8C192.014 64.5733 191.44 65.1667 190.707 65.58C189.987 65.9933 189.154 66.2 188.207 66.2C187.274 66.2 186.44 65.9933 185.707 65.58C184.974 65.1667 184.4 64.5733 183.987 63.8C183.574 63.0133 183.367 62.08 183.367 61C183.367 59.92 183.574 58.9933 183.987 58.22C184.4 57.4333 184.974 56.8333 185.707 56.42C186.44 56.0067 187.274 55.8 188.207 55.8ZM188.207 57.18C187.527 57.18 186.947 57.3333 186.467 57.64C185.987 57.9467 185.614 58.3867 185.347 58.96C185.094 59.52 184.967 60.2 184.967 61C184.967 61.7867 185.094 62.4667 185.347 63.04C185.614 63.6133 185.987 64.0533 186.467 64.36C186.947 64.6667 187.527 64.82 188.207 64.82C188.887 64.82 189.467 64.6667 189.947 64.36C190.427 64.0533 190.794 63.6133 191.047 63.04C191.314 62.4667 191.447 61.7867 191.447 61C191.447 60.2 191.314 59.52 191.047 58.96C190.794 58.3867 190.427 57.9467 189.947 57.64C189.467 57.3333 188.887 57.18 188.207 57.18ZM204.845 53.16V63.24C204.845 63.7333 204.985 64.1 205.265 64.34C205.545 64.58 205.905 64.7 206.345 64.7C206.732 64.7 207.065 64.6333 207.345 64.5C207.625 64.3667 207.878 64.1867 208.105 63.96L208.665 65.3C208.358 65.58 207.992 65.8 207.565 65.96C207.152 66.12 206.672 66.2 206.125 66.2C205.618 66.2 205.145 66.1133 204.705 65.94C204.265 65.7533 203.912 65.4667 203.645 65.08C203.392 64.68 203.258 64.16 203.245 63.52V53.6L204.845 53.16ZM208.485 56V57.38H201.245V56H208.485ZM210.864 66V51.4H212.464V57.5C212.811 56.9 213.271 56.4667 213.844 56.2C214.417 55.9333 215.044 55.8 215.724 55.8C216.444 55.8 217.097 55.94 217.684 56.22C218.271 56.4867 218.737 56.9 219.084 57.46C219.444 58.02 219.624 58.7333 219.624 59.6V66H218.024V60.16C218.024 59.0533 217.784 58.2867 217.304 57.86C216.837 57.42 216.257 57.2 215.564 57.2C215.084 57.2 214.604 57.3133 214.124 57.54C213.644 57.7667 213.244 58.14 212.924 58.66C212.617 59.1667 212.464 59.8467 212.464 60.7V66H210.864ZM227.427 66.2C226.48 66.2 225.633 65.9933 224.887 65.58C224.153 65.1667 223.58 64.5733 223.167 63.8C222.753 63.0133 222.547 62.08 222.547 61C222.547 59.92 222.753 58.9933 223.167 58.22C223.58 57.4333 224.147 56.8333 224.867 56.42C225.587 56.0067 226.407 55.8 227.327 55.8C228.26 55.8 229.053 56 229.707 56.4C230.373 56.8 230.88 57.3467 231.227 58.04C231.573 58.72 231.747 59.4867 231.747 60.34C231.747 60.5667 231.74 60.7733 231.727 60.96C231.713 61.1467 231.693 61.3133 231.667 61.46H223.587V60.04H230.967L230.147 60.2C230.147 59.24 229.88 58.5 229.347 57.98C228.827 57.46 228.14 57.2 227.287 57.2C226.633 57.2 226.067 57.3533 225.587 57.66C225.12 57.9533 224.753 58.3867 224.487 58.96C224.233 59.52 224.107 60.2 224.107 61C224.107 61.7867 224.24 62.4667 224.507 63.04C224.773 63.6133 225.147 64.0533 225.627 64.36C226.12 64.6533 226.707 64.8 227.387 64.8C228.12 64.8 228.713 64.66 229.167 64.38C229.633 64.1 230.007 63.72 230.287 63.24L231.547 63.98C231.293 64.4333 230.967 64.8267 230.567 65.16C230.18 65.4933 229.72 65.7533 229.187 65.94C228.667 66.1133 228.08 66.2 227.427 66.2ZM245.295 51.3C245.642 51.3 245.968 51.34 246.275 51.42C246.582 51.5 246.822 51.6133 246.995 51.76L246.575 53.06C246.415 52.9533 246.242 52.88 246.055 52.84C245.868 52.7867 245.662 52.76 245.435 52.76C244.862 52.76 244.415 52.9 244.095 53.18C243.775 53.4467 243.615 53.88 243.615 54.48V56V56.52V66H242.015V54.32C242.015 53.88 242.082 53.4733 242.215 53.1C242.348 52.7267 242.548 52.4067 242.815 52.14C243.095 51.8733 243.442 51.6667 243.855 51.52C244.268 51.3733 244.748 51.3 245.295 51.3ZM246.955 56V57.38H240.015V56H246.955ZM249.895 54.08C249.535 54.08 249.242 53.9733 249.015 53.76C248.802 53.5333 248.695 53.24 248.695 52.88C248.695 52.52 248.802 52.2333 249.015 52.02C249.242 51.7933 249.535 51.68 249.895 51.68C250.255 51.68 250.542 51.7933 250.755 52.02C250.982 52.2333 251.095 52.52 251.095 52.88C251.095 53.24 250.982 53.5333 250.755 53.76C250.542 53.9733 250.255 54.08 249.895 54.08ZM250.695 56V66H249.095V56H250.695ZM255.939 51.4V63.46C255.939 63.9667 256.032 64.32 256.219 64.52C256.405 64.7067 256.705 64.8 257.119 64.8C257.385 64.8 257.605 64.78 257.779 64.74C257.952 64.7 258.185 64.6267 258.479 64.52L258.219 65.92C258.005 66.0133 257.772 66.08 257.519 66.12C257.265 66.1733 257.005 66.2 256.739 66.2C255.925 66.2 255.319 65.98 254.919 65.54C254.532 65.1 254.339 64.4267 254.339 63.52V51.4H255.939ZM260.532 66V56H261.932L262.032 57.56C262.392 56.9467 262.859 56.5 263.432 56.22C264.019 55.94 264.619 55.8 265.232 55.8C265.939 55.8 266.605 55.96 267.232 56.28C267.859 56.6 268.339 57.0933 268.672 57.76C268.885 57.3067 269.185 56.94 269.572 56.66C269.959 56.3667 270.379 56.1533 270.832 56.02C271.299 55.8733 271.739 55.8 272.152 55.8C272.792 55.8 273.399 55.9333 273.972 56.2C274.559 56.4667 275.039 56.88 275.412 57.44C275.785 58 275.972 58.72 275.972 59.6V66H274.372V59.76C274.372 58.8533 274.145 58.2 273.692 57.8C273.239 57.4 272.679 57.2 272.012 57.2C271.492 57.2 271.005 57.3267 270.552 57.58C270.099 57.8333 269.732 58.2067 269.452 58.7C269.185 59.1933 269.052 59.8 269.052 60.52V66H267.452V59.76C267.452 58.8533 267.225 58.2 266.772 57.8C266.319 57.4 265.759 57.2 265.092 57.2C264.652 57.2 264.199 57.32 263.732 57.56C263.279 57.7867 262.899 58.1533 262.592 58.66C262.285 59.1667 262.132 59.8333 262.132 60.66V66H260.532ZM279.358 52C279.678 52 279.945 52.0867 280.158 52.26C280.385 52.42 280.558 52.6467 280.678 52.94C280.798 53.22 280.858 53.5533 280.858 53.94C280.858 54.38 280.778 54.8133 280.618 55.24C280.472 55.6667 280.238 56.06 279.918 56.42C279.598 56.78 279.185 57.08 278.678 57.32L277.838 56.54C278.198 56.42 278.512 56.2533 278.778 56.04C279.058 55.8267 279.285 55.5867 279.458 55.32C279.632 55.0533 279.745 54.78 279.798 54.5L279.718 54.46C279.665 54.5 279.598 54.5333 279.518 54.56C279.438 54.5867 279.318 54.6 279.158 54.6C278.998 54.6 278.832 54.5533 278.658 54.46C278.498 54.3667 278.358 54.2333 278.238 54.06C278.118 53.8733 278.058 53.6333 278.058 53.34C278.058 53.1 278.118 52.88 278.238 52.68C278.358 52.4667 278.512 52.3 278.698 52.18C278.898 52.06 279.118 52 279.358 52ZM286.358 66.2C285.385 66.2 284.485 65.9933 283.658 65.58C282.845 65.1667 282.218 64.58 281.778 63.82L283.138 62.84C283.432 63.4533 283.858 63.9333 284.418 64.28C284.992 64.6267 285.678 64.8 286.478 64.8C287.185 64.8 287.738 64.6667 288.138 64.4C288.538 64.12 288.738 63.76 288.738 63.32C288.738 63.04 288.645 62.7867 288.458 62.56C288.285 62.32 287.945 62.1467 287.438 62.04L285.038 61.54C284.065 61.34 283.365 61.0067 282.938 60.54C282.525 60.0733 282.318 59.4933 282.318 58.8C282.318 58.2533 282.472 57.7533 282.778 57.3C283.098 56.8467 283.545 56.4867 284.118 56.22C284.705 55.94 285.392 55.8 286.178 55.8C287.165 55.8 287.998 55.9933 288.678 56.38C289.358 56.7667 289.865 57.3133 290.198 58.02L288.858 58.9C288.632 58.3133 288.265 57.8867 287.758 57.62C287.252 57.34 286.725 57.2 286.178 57.2C285.698 57.2 285.285 57.2667 284.938 57.4C284.605 57.5333 284.345 57.72 284.158 57.96C283.985 58.1867 283.898 58.4467 283.898 58.74C283.898 59.0333 283.998 59.3067 284.198 59.56C284.398 59.8 284.772 59.9733 285.318 60.08L287.818 60.6C288.752 60.7867 289.405 61.0933 289.778 61.52C290.152 61.9467 290.338 62.4667 290.338 63.08C290.338 63.7067 290.172 64.26 289.838 64.74C289.505 65.2067 289.038 65.5667 288.438 65.82C287.838 66.0733 287.145 66.2 286.358 66.2ZM302.091 53.16V63.24C302.091 63.7333 302.231 64.1 302.511 64.34C302.791 64.58 303.151 64.7 303.591 64.7C303.978 64.7 304.311 64.6333 304.591 64.5C304.871 64.3667 305.124 64.1867 305.351 63.96L305.911 65.3C305.604 65.58 305.238 65.8 304.811 65.96C304.398 66.12 303.918 66.2 303.371 66.2C302.864 66.2 302.391 66.1133 301.951 65.94C301.511 65.7533 301.158 65.4667 300.891 65.08C300.638 64.68 300.504 64.16 300.491 63.52V53.6L302.091 53.16ZM305.731 56V57.38H298.491V56H305.731ZM308.11 66V51.4H309.71V57.5C310.057 56.9 310.517 56.4667 311.09 56.2C311.663 55.9333 312.29 55.8 312.97 55.8C313.69 55.8 314.343 55.94 314.93 56.22C315.517 56.4867 315.983 56.9 316.33 57.46C316.69 58.02 316.87 58.7333 316.87 59.6V66H315.27V60.16C315.27 59.0533 315.03 58.2867 314.55 57.86C314.083 57.42 313.503 57.2 312.81 57.2C312.33 57.2 311.85 57.3133 311.37 57.54C310.89 57.7667 310.49 58.14 310.17 58.66C309.863 59.1667 309.71 59.8467 309.71 60.7V66H308.11ZM324.673 66.2C323.726 66.2 322.879 65.9933 322.133 65.58C321.399 65.1667 320.826 64.5733 320.413 63.8C319.999 63.0133 319.793 62.08 319.793 61C319.793 59.92 319.999 58.9933 320.413 58.22C320.826 57.4333 321.393 56.8333 322.113 56.42C322.833 56.0067 323.653 55.8 324.573 55.8C325.506 55.8 326.299 56 326.953 56.4C327.619 56.8 328.126 57.3467 328.473 58.04C328.819 58.72 328.993 59.4867 328.993 60.34C328.993 60.5667 328.986 60.7733 328.973 60.96C328.959 61.1467 328.939 61.3133 328.913 61.46H320.833V60.04H328.213L327.393 60.2C327.393 59.24 327.126 58.5 326.593 57.98C326.073 57.46 325.386 57.2 324.533 57.2C323.879 57.2 323.313 57.3533 322.833 57.66C322.366 57.9533 321.999 58.3867 321.733 58.96C321.479 59.52 321.353 60.2 321.353 61C321.353 61.7867 321.486 62.4667 321.753 63.04C322.019 63.6133 322.393 64.0533 322.873 64.36C323.366 64.6533 323.953 64.8 324.633 64.8C325.366 64.8 325.959 64.66 326.413 64.38C326.879 64.1 327.253 63.72 327.533 63.24L328.793 63.98C328.539 64.4333 328.213 64.8267 327.813 65.16C327.426 65.4933 326.966 65.7533 326.433 65.94C325.913 66.1133 325.326 66.2 324.673 66.2ZM332.036 66V56H333.436L333.536 57.56C333.896 56.9467 334.362 56.5 334.936 56.22C335.522 55.94 336.122 55.8 336.736 55.8C337.442 55.8 338.109 55.96 338.736 56.28C339.362 56.6 339.842 57.0933 340.176 57.76C340.389 57.3067 340.689 56.94 341.076 56.66C341.462 56.3667 341.882 56.1533 342.336 56.02C342.802 55.8733 343.242 55.8 343.656 55.8C344.296 55.8 344.902 55.9333 345.476 56.2C346.062 56.4667 346.542 56.88 346.916 57.44C347.289 58 347.476 58.72 347.476 59.6V66H345.876V59.76C345.876 58.8533 345.649 58.2 345.196 57.8C344.742 57.4 344.182 57.2 343.516 57.2C342.996 57.2 342.509 57.3267 342.056 57.58C341.602 57.8333 341.236 58.2067 340.956 58.7C340.689 59.1933 340.556 59.8 340.556 60.52V66H338.956V59.76C338.956 58.8533 338.729 58.2 338.276 57.8C337.822 57.4 337.262 57.2 336.596 57.2C336.156 57.2 335.702 57.32 335.236 57.56C334.782 57.7867 334.402 58.1533 334.096 58.66C333.789 59.1667 333.636 59.8333 333.636 60.66V66H332.036ZM355.278 66.2C354.332 66.2 353.485 65.9933 352.738 65.58C352.005 65.1667 351.432 64.5733 351.018 63.8C350.605 63.0133 350.398 62.08 350.398 61C350.398 59.92 350.605 58.9933 351.018 58.22C351.432 57.4333 351.998 56.8333 352.718 56.42C353.438 56.0067 354.258 55.8 355.178 55.8C356.112 55.8 356.905 56 357.558 56.4C358.225 56.8 358.732 57.3467 359.078 58.04C359.425 58.72 359.598 59.4867 359.598 60.34C359.598 60.5667 359.592 60.7733 359.578 60.96C359.565 61.1467 359.545 61.3133 359.518 61.46H351.438V60.04H358.818L357.998 60.2C357.998 59.24 357.732 58.5 357.198 57.98C356.678 57.46 355.992 57.2 355.138 57.2C354.485 57.2 353.918 57.3533 353.438 57.66C352.972 57.9533 352.605 58.3867 352.338 58.96C352.085 59.52 351.958 60.2 351.958 61C351.958 61.7867 352.092 62.4667 352.358 63.04C352.625 63.6133 352.998 64.0533 353.478 64.36C353.972 64.6533 354.558 64.8 355.238 64.8C355.972 64.8 356.565 64.66 357.018 64.38C357.485 64.1 357.858 63.72 358.138 63.24L359.398 63.98C359.145 64.4333 358.818 64.8267 358.418 65.16C358.032 65.4933 357.572 65.7533 357.038 65.94C356.518 66.1133 355.932 66.2 355.278 66.2ZM373.598 55.8C374.544 55.8 375.378 56.0067 376.098 56.42C376.831 56.8333 377.404 57.4333 377.818 58.22C378.231 58.9933 378.438 59.92 378.438 61C378.438 62.08 378.231 63.0133 377.818 63.8C377.404 64.5733 376.831 65.1667 376.098 65.58C375.378 65.9933 374.544 66.2 373.598 66.2C372.664 66.2 371.831 65.9933 371.098 65.58C370.364 65.1667 369.791 64.5733 369.378 63.8C368.964 63.0133 368.758 62.08 368.758 61C368.758 59.92 368.964 58.9933 369.378 58.22C369.791 57.4333 370.364 56.8333 371.098 56.42C371.831 56.0067 372.664 55.8 373.598 55.8ZM373.598 57.18C372.918 57.18 372.338 57.3333 371.858 57.64C371.378 57.9467 371.004 58.3867 370.738 58.96C370.484 59.52 370.358 60.2 370.358 61C370.358 61.7867 370.484 62.4667 370.738 63.04C371.004 63.6133 371.378 64.0533 371.858 64.36C372.338 64.6667 372.918 64.82 373.598 64.82C374.278 64.82 374.858 64.6667 375.338 64.36C375.818 64.0533 376.184 63.6133 376.438 63.04C376.704 62.4667 376.838 61.7867 376.838 61C376.838 60.2 376.704 59.52 376.438 58.96C376.184 58.3867 375.818 57.9467 375.338 57.64C374.858 57.3333 374.278 57.18 373.598 57.18ZM385.334 51.3C385.681 51.3 386.007 51.34 386.314 51.42C386.621 51.5 386.861 51.6133 387.034 51.76L386.614 53.06C386.454 52.9533 386.281 52.88 386.094 52.84C385.907 52.7867 385.701 52.76 385.474 52.76C384.901 52.76 384.454 52.9 384.134 53.18C383.814 53.4467 383.654 53.88 383.654 54.48V56V56.52V66H382.054V54.32C382.054 53.88 382.121 53.4733 382.254 53.1C382.387 52.7267 382.587 52.4067 382.854 52.14C383.134 51.8733 383.481 51.6667 383.894 51.52C384.307 51.3733 384.787 51.3 385.334 51.3ZM386.994 56V57.38H380.054V56H386.994ZM395.141 66V51.4H396.741V57.5C397.088 56.9 397.548 56.4667 398.121 56.2C398.695 55.9333 399.321 55.8 400.001 55.8C400.721 55.8 401.375 55.94 401.961 56.22C402.548 56.4867 403.015 56.9 403.361 57.46C403.721 58.02 403.901 58.7333 403.901 59.6V66H402.301V60.16C402.301 59.0533 402.061 58.2867 401.581 57.86C401.115 57.42 400.535 57.2 399.841 57.2C399.361 57.2 398.881 57.3133 398.401 57.54C397.921 57.7667 397.521 58.14 397.201 58.66C396.895 59.1667 396.741 59.8467 396.741 60.7V66H395.141ZM408.324 54.08C407.964 54.08 407.671 53.9733 407.444 53.76C407.231 53.5333 407.124 53.24 407.124 52.88C407.124 52.52 407.231 52.2333 407.444 52.02C407.671 51.7933 407.964 51.68 408.324 51.68C408.684 51.68 408.971 51.7933 409.184 52.02C409.411 52.2333 409.524 52.52 409.524 52.88C409.524 53.24 409.411 53.5333 409.184 53.76C408.971 53.9733 408.684 54.08 408.324 54.08ZM409.124 56V66H407.524V56H409.124ZM416.737 66.2C415.91 66.2 415.15 65.9933 414.457 65.58C413.763 65.1667 413.21 64.5733 412.797 63.8C412.383 63.0133 412.177 62.08 412.177 61C412.177 59.8933 412.397 58.9533 412.837 58.18C413.277 57.4067 413.857 56.82 414.577 56.42C415.297 56.0067 416.07 55.8 416.897 55.8C417.723 55.8 418.437 56.0133 419.037 56.44C419.65 56.8667 420.057 57.4333 420.257 58.14L420.057 58.28V51.4H421.657V66H420.257L420.117 63.58L420.337 63.46C420.243 64.0467 420.017 64.5467 419.657 64.96C419.31 65.36 418.877 65.6667 418.357 65.88C417.85 66.0933 417.31 66.2 416.737 66.2ZM416.897 64.8C417.537 64.8 418.09 64.64 418.557 64.32C419.037 64 419.403 63.5467 419.657 62.96C419.923 62.36 420.057 61.66 420.057 60.86C420.057 60.1 419.923 59.4467 419.657 58.9C419.403 58.3533 419.043 57.9333 418.577 57.64C418.123 57.3467 417.59 57.2 416.977 57.2C415.963 57.2 415.177 57.5467 414.617 58.24C414.057 58.9333 413.777 59.8533 413.777 61C413.777 62.1467 414.05 63.0667 414.597 63.76C415.143 64.4533 415.91 64.8 416.897 64.8ZM429.276 66.2C428.449 66.2 427.689 65.9933 426.996 65.58C426.302 65.1667 425.749 64.5733 425.336 63.8C424.922 63.0133 424.716 62.08 424.716 61C424.716 59.8933 424.936 58.9533 425.376 58.18C425.816 57.4067 426.396 56.82 427.116 56.42C427.836 56.0067 428.609 55.8 429.436 55.8C430.262 55.8 430.976 56.0133 431.576 56.44C432.189 56.8667 432.596 57.4333 432.796 58.14L432.596 58.28V51.4H434.196V66H432.796L432.656 63.58L432.876 63.46C432.782 64.0467 432.556 64.5467 432.196 64.96C431.849 65.36 431.416 65.6667 430.896 65.88C430.389 66.0933 429.849 66.2 429.276 66.2ZM429.436 64.8C430.076 64.8 430.629 64.64 431.096 64.32C431.576 64 431.942 63.5467 432.196 62.96C432.462 62.36 432.596 61.66 432.596 60.86C432.596 60.1 432.462 59.4467 432.196 58.9C431.942 58.3533 431.582 57.9333 431.116 57.64C430.662 57.3467 430.129 57.2 429.516 57.2C428.502 57.2 427.716 57.5467 427.156 58.24C426.596 58.9333 426.316 59.8533 426.316 61C426.316 62.1467 426.589 63.0667 427.136 63.76C427.682 64.4533 428.449 64.8 429.436 64.8ZM442.095 66.2C441.148 66.2 440.301 65.9933 439.555 65.58C438.821 65.1667 438.248 64.5733 437.835 63.8C437.421 63.0133 437.215 62.08 437.215 61C437.215 59.92 437.421 58.9933 437.835 58.22C438.248 57.4333 438.815 56.8333 439.535 56.42C440.255 56.0067 441.075 55.8 441.995 55.8C442.928 55.8 443.721 56 444.375 56.4C445.041 56.8 445.548 57.3467 445.895 58.04C446.241 58.72 446.415 59.4867 446.415 60.34C446.415 60.5667 446.408 60.7733 446.395 60.96C446.381 61.1467 446.361 61.3133 446.335 61.46H438.255V60.04H445.635L444.815 60.2C444.815 59.24 444.548 58.5 444.015 57.98C443.495 57.46 442.808 57.2 441.955 57.2C441.301 57.2 440.735 57.3533 440.255 57.66C439.788 57.9533 439.421 58.3867 439.155 58.96C438.901 59.52 438.775 60.2 438.775 61C438.775 61.7867 438.908 62.4667 439.175 63.04C439.441 63.6133 439.815 64.0533 440.295 64.36C440.788 64.6533 441.375 64.8 442.055 64.8C442.788 64.8 443.381 64.66 443.835 64.38C444.301 64.1 444.675 63.72 444.955 63.24L446.215 63.98C445.961 64.4333 445.635 64.8267 445.235 65.16C444.848 65.4933 444.388 65.7533 443.855 65.94C443.335 66.1133 442.748 66.2 442.095 66.2ZM449.458 66V56H450.858L450.998 58.24L450.738 58.02C450.951 57.4867 451.238 57.06 451.598 56.74C451.958 56.4067 452.371 56.1667 452.838 56.02C453.318 55.8733 453.811 55.8 454.318 55.8C455.038 55.8 455.691 55.94 456.278 56.22C456.864 56.4867 457.331 56.9 457.678 57.46C458.038 58.02 458.218 58.7333 458.218 59.6V66H456.618V60.16C456.618 59.0533 456.378 58.2867 455.898 57.86C455.431 57.42 454.851 57.2 454.158 57.2C453.678 57.2 453.198 57.3133 452.718 57.54C452.238 57.7667 451.838 58.1333 451.518 58.64C451.211 59.1467 451.058 59.8267 451.058 60.68V66H449.458ZM472.797 55.8C473.49 55.8 474.097 55.9067 474.617 56.12C475.15 56.3333 475.61 56.64 475.997 57.04C476.384 57.44 476.697 57.9133 476.937 58.46L475.417 59.18C475.204 58.54 474.877 58.0533 474.437 57.72C474.01 57.3733 473.45 57.2 472.757 57.2C472.09 57.2 471.517 57.3533 471.037 57.66C470.557 57.9533 470.19 58.3867 469.937 58.96C469.684 59.52 469.557 60.2 469.557 61C469.557 61.7867 469.684 62.4667 469.937 63.04C470.19 63.6133 470.557 64.0533 471.037 64.36C471.517 64.6533 472.09 64.8 472.757 64.8C473.277 64.8 473.724 64.72 474.097 64.56C474.484 64.4 474.797 64.1667 475.037 63.86C475.29 63.5533 475.464 63.18 475.557 62.74L477.037 63.26C476.81 63.8733 476.497 64.4 476.097 64.84C475.71 65.28 475.237 65.62 474.677 65.86C474.13 66.0867 473.504 66.2 472.797 66.2C471.864 66.2 471.03 65.9933 470.297 65.58C469.564 65.1667 468.99 64.5733 468.577 63.8C468.164 63.0133 467.957 62.08 467.957 61C467.957 59.92 468.164 58.9933 468.577 58.22C468.99 57.4333 469.564 56.8333 470.297 56.42C471.03 56.0067 471.864 55.8 472.797 55.8ZM481.368 51.4V63.46C481.368 63.9667 481.462 64.32 481.648 64.52C481.835 64.7067 482.135 64.8 482.548 64.8C482.815 64.8 483.035 64.78 483.208 64.74C483.382 64.7 483.615 64.6267 483.908 64.52L483.648 65.92C483.435 66.0133 483.202 66.08 482.948 66.12C482.695 66.1733 482.435 66.2 482.168 66.2C481.355 66.2 480.748 65.98 480.348 65.54C479.962 65.1 479.768 64.4267 479.768 63.52V51.4H481.368ZM489.582 66.2C488.942 66.2 488.335 66.08 487.762 65.84C487.202 65.6 486.742 65.2133 486.382 64.68C486.035 64.1333 485.862 63.4267 485.862 62.56V56H487.462V62.14C487.462 63.1533 487.682 63.8533 488.122 64.24C488.562 64.6133 489.182 64.8 489.982 64.8C490.355 64.8 490.722 64.74 491.082 64.62C491.442 64.4867 491.762 64.2867 492.042 64.02C492.335 63.74 492.562 63.3867 492.722 62.96C492.895 62.5333 492.982 62.0267 492.982 61.44V56H494.582V66H493.182L493.082 64.48C492.735 65.08 492.262 65.52 491.662 65.8C491.075 66.0667 490.382 66.2 489.582 66.2ZM502.485 66.2C501.539 66.2 500.692 65.9933 499.945 65.58C499.212 65.1667 498.639 64.5733 498.225 63.8C497.812 63.0133 497.605 62.08 497.605 61C497.605 59.92 497.812 58.9933 498.225 58.22C498.639 57.4333 499.205 56.8333 499.925 56.42C500.645 56.0067 501.465 55.8 502.385 55.8C503.319 55.8 504.112 56 504.765 56.4C505.432 56.8 505.939 57.3467 506.285 58.04C506.632 58.72 506.805 59.4867 506.805 60.34C506.805 60.5667 506.799 60.7733 506.785 60.96C506.772 61.1467 506.752 61.3133 506.725 61.46H498.645V60.04H506.025L505.205 60.2C505.205 59.24 504.939 58.5 504.405 57.98C503.885 57.46 503.199 57.2 502.345 57.2C501.692 57.2 501.125 57.3533 500.645 57.66C500.179 57.9533 499.812 58.3867 499.545 58.96C499.292 59.52 499.165 60.2 499.165 61C499.165 61.7867 499.299 62.4667 499.565 63.04C499.832 63.6133 500.205 64.0533 500.685 64.36C501.179 64.6533 501.765 64.8 502.445 64.8C503.179 64.8 503.772 64.66 504.225 64.38C504.692 64.1 505.065 63.72 505.345 63.24L506.605 63.98C506.352 64.4333 506.025 64.8267 505.625 65.16C505.239 65.4933 504.779 65.7533 504.245 65.94C503.725 66.1133 503.139 66.2 502.485 66.2ZM513.448 66.2C512.475 66.2 511.575 65.9933 510.748 65.58C509.935 65.1667 509.308 64.58 508.868 63.82L510.228 62.84C510.522 63.4533 510.948 63.9333 511.508 64.28C512.082 64.6267 512.768 64.8 513.568 64.8C514.275 64.8 514.828 64.6667 515.228 64.4C515.628 64.12 515.828 63.76 515.828 63.32C515.828 63.04 515.735 62.7867 515.548 62.56C515.375 62.32 515.035 62.1467 514.528 62.04L512.128 61.54C511.155 61.34 510.455 61.0067 510.028 60.54C509.615 60.0733 509.408 59.4933 509.408 58.8C509.408 58.2533 509.562 57.7533 509.868 57.3C510.188 56.8467 510.635 56.4867 511.208 56.22C511.795 55.94 512.482 55.8 513.268 55.8C514.255 55.8 515.088 55.9933 515.768 56.38C516.448 56.7667 516.955 57.3133 517.288 58.02L515.948 58.9C515.722 58.3133 515.355 57.8867 514.848 57.62C514.342 57.34 513.815 57.2 513.268 57.2C512.788 57.2 512.375 57.2667 512.028 57.4C511.695 57.5333 511.435 57.72 511.248 57.96C511.075 58.1867 510.988 58.4467 510.988 58.74C510.988 59.0333 511.088 59.3067 511.288 59.56C511.488 59.8 511.862 59.9733 512.408 60.08L514.908 60.6C515.842 60.7867 516.495 61.0933 516.868 61.52C517.242 61.9467 517.428 62.4667 517.428 63.08C517.428 63.7067 517.262 64.26 516.928 64.74C516.595 65.2067 516.128 65.5667 515.528 65.82C514.928 66.0733 514.235 66.2 513.448 66.2ZM521.195 63.6C521.582 63.6 521.895 63.72 522.135 63.96C522.375 64.2 522.495 64.5133 522.495 64.9C522.495 65.2867 522.375 65.6 522.135 65.84C521.895 66.08 521.582 66.2 521.195 66.2C520.808 66.2 520.495 66.08 520.255 65.84C520.015 65.6 519.895 65.2867 519.895 64.9C519.895 64.5133 520.015 64.2 520.255 63.96C520.495 63.72 520.808 63.6 521.195 63.6Z" fill="white"/>
</svg>
