<svg width="518" height="71" viewBox="0 0 518 71" fill="none" xmlns="http://www.w3.org/2000/svg">
<path d="M13.5 0.799999V8.32C13.5 10.2933 12.9667 11.7667 11.9 12.74C10.8467 13.7133 9.25333 14.2 7.12 14.2C4.98667 14.2 3.38667 13.7133 2.32 12.74C1.26667 11.7667 0.74 10.2933 0.74 8.32V0.799999H5.42V8.68C5.42 9.34667 5.56667 9.85333 5.86 10.2C6.15333 10.5333 6.57333 10.7 7.12 10.7C7.68 10.7 8.10667 10.5333 8.4 10.2C8.69333 9.85333 8.84 9.34667 8.84 8.68V0.799999H13.5ZM21.0183 0.6C22.2849 0.6 23.4183 0.76 24.4183 1.08C25.4316 1.38667 26.3249 1.85333 27.0983 2.48L25.2183 5.48C24.5916 5.04 23.9316 4.68667 23.2383 4.42C22.5583 4.15333 21.8183 4.02 21.0183 4.02C20.6716 4.02 20.3916 4.04667 20.1783 4.1C19.9783 4.15333 19.8316 4.22667 19.7383 4.32C19.6583 4.41333 19.6183 4.52 19.6183 4.64C19.6183 4.8 19.7383 4.92 19.9783 5C20.2316 5.08 20.5449 5.16667 20.9183 5.26L22.7383 5.68C24.0849 5.98667 25.0983 6.44 25.7783 7.04C26.4716 7.64 26.8183 8.47333 26.8183 9.54C26.8183 10.6067 26.5583 11.4867 26.0383 12.18C25.5183 12.86 24.8116 13.3667 23.9183 13.7C23.0383 14.0333 22.0383 14.2 20.9183 14.2C20.0783 14.2 19.2383 14.1267 18.3983 13.98C17.5583 13.82 16.7783 13.5933 16.0583 13.3C15.3383 12.9933 14.7183 12.6267 14.1983 12.2L16.0383 9.14C16.4249 9.44667 16.8916 9.72667 17.4383 9.98C17.9849 10.22 18.5516 10.4133 19.1383 10.56C19.7249 10.7067 20.2716 10.78 20.7783 10.78C21.0983 10.78 21.3516 10.7533 21.5383 10.7C21.7249 10.6467 21.8516 10.58 21.9183 10.5C21.9983 10.4067 22.0383 10.3 22.0383 10.18C22.0383 9.99333 21.9583 9.85333 21.7983 9.76C21.6516 9.66667 21.3783 9.57333 20.9783 9.48L18.9783 9.04C18.2716 8.88 17.5983 8.66667 16.9583 8.4C16.3183 8.13333 15.7983 7.74667 15.3983 7.24C14.9983 6.72 14.7983 6.02 14.7983 5.14C14.7983 4.23333 15.0383 3.44 15.5183 2.76C16.0116 2.08 16.7183 1.55333 17.6383 1.18C18.5716 0.793333 19.6983 0.6 21.0183 0.6ZM30.128 9.88C30.7413 9.88 31.2346 10.0133 31.608 10.28C31.9946 10.5467 32.2746 10.8933 32.448 11.32C32.6346 11.7333 32.728 12.18 32.728 12.66C32.728 13.38 32.5613 14.0533 32.228 14.68C31.908 15.32 31.5013 15.8667 31.008 16.32C30.5146 16.7867 30.028 17.12 29.548 17.32L27.808 16.14C28.1813 15.9667 28.5346 15.7667 28.868 15.54C29.2146 15.3133 29.528 15.0667 29.808 14.8C30.088 14.5333 30.308 14.26 30.468 13.98L30.368 13.9C30.2746 13.9533 30.168 13.9933 30.048 14.02C29.928 14.06 29.7746 14.08 29.588 14.08C29.2946 14.08 29.0013 14.0133 28.708 13.88C28.4146 13.7333 28.168 13.52 27.968 13.24C27.768 12.96 27.668 12.6067 27.668 12.18C27.668 11.6333 27.7813 11.1933 28.008 10.86C28.248 10.5267 28.5546 10.28 28.928 10.12C29.3146 9.96 29.7146 9.88 30.128 9.88ZM39.3013 14V11.2C40.3013 10.6667 41.1679 10.1333 41.9013 9.6C42.6479 9.06667 43.2613 8.54667 43.7413 8.04C44.2346 7.52 44.6013 7.03333 44.8413 6.58C45.0813 6.11333 45.2013 5.68667 45.2013 5.3C45.2013 4.98 45.1213 4.7 44.9613 4.46C44.8013 4.22 44.5213 4.1 44.1213 4.1C43.6679 4.1 43.3346 4.28667 43.1213 4.66C42.9079 5.03333 42.8146 5.62667 42.8413 6.44L38.8613 5.48C38.8346 4.36 39.0679 3.44 39.5613 2.72C40.0546 2 40.7279 1.46667 41.5813 1.12C42.4479 0.773333 43.4013 0.6 44.4413 0.6C45.4413 0.6 46.2813 0.739999 46.9613 1.02C47.6546 1.28667 48.2079 1.64 48.6213 2.08C49.0346 2.50667 49.3279 2.97333 49.5013 3.48C49.6879 3.97333 49.7813 4.44667 49.7813 4.9C49.7813 5.78 49.5479 6.57333 49.0813 7.28C48.6279 7.98667 48.0146 8.62 47.2413 9.18C46.4679 9.74 45.6079 10.2467 44.6613 10.7V10.74C44.9413 10.7133 45.2479 10.6933 45.5813 10.68C45.9279 10.6533 46.2879 10.64 46.6613 10.64C47.0479 10.6267 47.4279 10.62 47.8013 10.62H49.8613V14H39.3013ZM56.9706 14.2C54.9706 14.2 53.4906 13.6333 52.5306 12.5C51.584 11.3667 51.1106 9.66667 51.1106 7.4C51.1106 5.13333 51.584 3.43333 52.5306 2.3C53.4906 1.16667 54.9706 0.6 56.9706 0.6C58.9706 0.6 60.444 1.16667 61.3906 2.3C62.3506 3.43333 62.8306 5.13333 62.8306 7.4C62.8306 9.66667 62.3506 11.3667 61.3906 12.5C60.444 13.6333 58.9706 14.2 56.9706 14.2ZM56.9706 10.7C57.3173 10.7 57.584 10.6067 57.7706 10.42C57.9573 10.2333 58.084 9.9 58.1506 9.42C58.2306 8.94 58.2706 8.26667 58.2706 7.4C58.2706 6.53333 58.2306 5.86 58.1506 5.38C58.084 4.9 57.9573 4.56667 57.7706 4.38C57.584 4.19333 57.3173 4.1 56.9706 4.1C56.6373 4.1 56.3706 4.19333 56.1706 4.38C55.984 4.56667 55.8506 4.9 55.7706 5.38C55.704 5.86 55.6706 6.53333 55.6706 7.4C55.6706 8.26667 55.704 8.94 55.7706 9.42C55.8506 9.9 55.984 10.2333 56.1706 10.42C56.3706 10.6067 56.6373 10.7 56.9706 10.7ZM67.1547 14V7.8C67.1547 7.36 67.1547 6.92 67.1547 6.48C67.1547 6.04 67.1547 5.6 67.1547 5.16C66.728 5.53333 66.268 5.86 65.7747 6.14C65.2814 6.40667 64.7614 6.58 64.2147 6.66L63.9547 2.92C64.368 2.88 64.7814 2.79333 65.1947 2.66C65.608 2.51333 65.9947 2.34 66.3547 2.14C66.728 1.94 67.0547 1.72667 67.3347 1.5C67.628 1.27333 67.848 1.04 67.9947 0.799999H71.6147V14H67.1547ZM78.5344 0.6C79.8144 0.6 80.881 0.84 81.7344 1.32C82.601 1.78667 83.2477 2.51333 83.6744 3.5C84.1144 4.48667 84.3344 5.76 84.3344 7.32C84.3344 9 84.0677 10.3467 83.5344 11.36C83.0144 12.36 82.3144 13.0867 81.4344 13.54C80.5544 13.98 79.5877 14.2 78.5344 14.2C77.3477 14.2 76.3077 13.9867 75.4144 13.56C74.5344 13.12 73.8744 12.3933 73.4344 11.38L77.5144 9.92C77.5677 10.2267 77.681 10.46 77.8544 10.62C78.0277 10.78 78.2677 10.86 78.5744 10.86C78.8144 10.86 79.0344 10.8133 79.2344 10.72C79.4344 10.6267 79.6077 10.4867 79.7544 10.3C79.901 10.1133 80.0144 9.87333 80.0944 9.58C80.1744 9.28667 80.2144 8.93333 80.2144 8.52C80.2144 8.45333 80.2144 8.39333 80.2144 8.34C80.2144 8.27333 80.2144 8.19333 80.2144 8.1H80.1544C80.021 8.36667 79.8077 8.59333 79.5144 8.78C79.2344 8.96667 78.9077 9.11333 78.5344 9.22C78.161 9.31333 77.7544 9.36 77.3144 9.36C76.5144 9.36 75.801 9.19333 75.1744 8.86C74.5477 8.51333 74.0544 8.03333 73.6944 7.42C73.3344 6.79333 73.1544 6.06667 73.1544 5.24C73.1544 4.26667 73.381 3.44 73.8344 2.76C74.301 2.06667 74.9344 1.53333 75.7344 1.16C76.5477 0.786666 77.481 0.6 78.5344 0.6ZM78.5344 3.98C78.1877 3.98 77.8944 4.08 77.6544 4.28C77.4277 4.46667 77.3144 4.74 77.3144 5.1C77.3144 5.46 77.4277 5.74 77.6544 5.94C77.8944 6.12667 78.1877 6.22 78.5344 6.22C78.7477 6.22 78.9477 6.18 79.1344 6.1C79.321 6.00667 79.4677 5.88 79.5744 5.72C79.6944 5.54667 79.7544 5.34 79.7544 5.1C79.7544 4.86 79.6944 4.66 79.5744 4.5C79.4677 4.32667 79.321 4.2 79.1344 4.12C78.9477 4.02667 78.7477 3.98 78.5344 3.98ZM11.44 26.8V28.3H6.84V40H5.24V28.3H0.64V26.8H11.44ZM13.5397 40V25.4H15.1397V31.5C15.4864 30.9 15.9464 30.4667 16.5197 30.2C17.093 29.9333 17.7197 29.8 18.3997 29.8C19.1197 29.8 19.773 29.94 20.3597 30.22C20.9464 30.4867 21.413 30.9 21.7597 31.46C22.1197 32.02 22.2997 32.7333 22.2997 33.6V40H20.6997V34.16C20.6997 33.0533 20.4597 32.2867 19.9797 31.86C19.513 31.42 18.933 31.2 18.2397 31.2C17.7597 31.2 17.2797 31.3133 16.7997 31.54C16.3197 31.7667 15.9197 32.14 15.5997 32.66C15.293 33.1667 15.1397 33.8467 15.1397 34.7V40H13.5397ZM30.1025 40.2C29.1558 40.2 28.3092 39.9933 27.5625 39.58C26.8292 39.1667 26.2558 38.5733 25.8425 37.8C25.4292 37.0133 25.2225 36.08 25.2225 35C25.2225 33.92 25.4292 32.9933 25.8425 32.22C26.2558 31.4333 26.8225 30.8333 27.5425 30.42C28.2625 30.0067 29.0825 29.8 30.0025 29.8C30.9358 29.8 31.7292 30 32.3825 30.4C33.0492 30.8 33.5558 31.3467 33.9025 32.04C34.2492 32.72 34.4225 33.4867 34.4225 34.34C34.4225 34.5667 34.4158 34.7733 34.4025 34.96C34.3892 35.1467 34.3692 35.3133 34.3425 35.46H26.2625V34.04H33.6425L32.8225 34.2C32.8225 33.24 32.5558 32.5 32.0225 31.98C31.5025 31.46 30.8158 31.2 29.9625 31.2C29.3092 31.2 28.7425 31.3533 28.2625 31.66C27.7958 31.9533 27.4292 32.3867 27.1625 32.96C26.9092 33.52 26.7825 34.2 26.7825 35C26.7825 35.7867 26.9158 36.4667 27.1825 37.04C27.4492 37.6133 27.8225 38.0533 28.3025 38.36C28.7958 38.6533 29.3825 38.8 30.0625 38.8C30.7958 38.8 31.3892 38.66 31.8425 38.38C32.3092 38.1 32.6825 37.72 32.9625 37.24L34.2225 37.98C33.9692 38.4333 33.6425 38.8267 33.2425 39.16C32.8558 39.4933 32.3958 39.7533 31.8625 39.94C31.3425 40.1133 30.7558 40.2 30.1025 40.2ZM47.8819 40.2C46.9085 40.2 46.0085 39.9933 45.1819 39.58C44.3685 39.1667 43.7419 38.58 43.3019 37.82L44.6619 36.84C44.9552 37.4533 45.3819 37.9333 45.9419 38.28C46.5152 38.6267 47.2019 38.8 48.0019 38.8C48.7085 38.8 49.2619 38.6667 49.6619 38.4C50.0619 38.12 50.2619 37.76 50.2619 37.32C50.2619 37.04 50.1685 36.7867 49.9819 36.56C49.8085 36.32 49.4685 36.1467 48.9619 36.04L46.5619 35.54C45.5885 35.34 44.8885 35.0067 44.4619 34.54C44.0485 34.0733 43.8419 33.4933 43.8419 32.8C43.8419 32.2533 43.9952 31.7533 44.3019 31.3C44.6219 30.8467 45.0685 30.4867 45.6419 30.22C46.2285 29.94 46.9152 29.8 47.7019 29.8C48.6885 29.8 49.5219 29.9933 50.2019 30.38C50.8819 30.7667 51.3885 31.3133 51.7219 32.02L50.3819 32.9C50.1552 32.3133 49.7885 31.8867 49.2819 31.62C48.7752 31.34 48.2485 31.2 47.7019 31.2C47.2219 31.2 46.8085 31.2667 46.4619 31.4C46.1285 31.5333 45.8685 31.72 45.6819 31.96C45.5085 32.1867 45.4219 32.4467 45.4219 32.74C45.4219 33.0333 45.5219 33.3067 45.7219 33.56C45.9219 33.8 46.2952 33.9733 46.8419 34.08L49.3419 34.6C50.2752 34.7867 50.9285 35.0933 51.3019 35.52C51.6752 35.9467 51.8619 36.4667 51.8619 37.08C51.8619 37.7067 51.6952 38.26 51.3619 38.74C51.0285 39.2067 50.5619 39.5667 49.9619 39.82C49.3619 40.0733 48.6685 40.2 47.8819 40.2ZM58.9688 29.8C59.6621 29.8 60.2688 29.9067 60.7888 30.12C61.3221 30.3333 61.7821 30.64 62.1688 31.04C62.5554 31.44 62.8688 31.9133 63.1088 32.46L61.5888 33.18C61.3754 32.54 61.0488 32.0533 60.6088 31.72C60.1821 31.3733 59.6221 31.2 58.9288 31.2C58.2621 31.2 57.6888 31.3533 57.2088 31.66C56.7288 31.9533 56.3621 32.3867 56.1088 32.96C55.8554 33.52 55.7288 34.2 55.7288 35C55.7288 35.7867 55.8554 36.4667 56.1088 37.04C56.3621 37.6133 56.7288 38.0533 57.2088 38.36C57.6888 38.6533 58.2621 38.8 58.9288 38.8C59.4488 38.8 59.8954 38.72 60.2688 38.56C60.6554 38.4 60.9688 38.1667 61.2088 37.86C61.4621 37.5533 61.6354 37.18 61.7288 36.74L63.2088 37.26C62.9821 37.8733 62.6688 38.4 62.2688 38.84C61.8821 39.28 61.4088 39.62 60.8488 39.86C60.3021 40.0867 59.6754 40.2 58.9688 40.2C58.0354 40.2 57.2021 39.9933 56.4688 39.58C55.7354 39.1667 55.1621 38.5733 54.7488 37.8C54.3354 37.0133 54.1288 36.08 54.1288 35C54.1288 33.92 54.3354 32.9933 54.7488 32.22C55.1621 31.4333 55.7354 30.8333 56.4688 30.42C57.2021 30.0067 58.0354 29.8 58.9688 29.8ZM66.8202 28.08C66.4602 28.08 66.1668 27.9733 65.9402 27.76C65.7268 27.5333 65.6202 27.24 65.6202 26.88C65.6202 26.52 65.7268 26.2333 65.9402 26.02C66.1668 25.7933 66.4602 25.68 66.8202 25.68C67.1802 25.68 67.4668 25.7933 67.6802 26.02C67.9068 26.2333 68.0202 26.52 68.0202 26.88C68.0202 27.24 67.9068 27.5333 67.6802 27.76C67.4668 27.9733 67.1802 28.08 66.8202 28.08ZM67.6202 30V40H66.0202V30H67.6202ZM74.9327 40.2C73.9593 40.2 73.0593 39.9933 72.2327 39.58C71.4193 39.1667 70.7927 38.58 70.3527 37.82L71.7127 36.84C72.006 37.4533 72.4327 37.9333 72.9927 38.28C73.566 38.6267 74.2527 38.8 75.0527 38.8C75.7593 38.8 76.3127 38.6667 76.7127 38.4C77.1127 38.12 77.3127 37.76 77.3127 37.32C77.3127 37.04 77.2193 36.7867 77.0327 36.56C76.8593 36.32 76.5193 36.1467 76.0127 36.04L73.6127 35.54C72.6393 35.34 71.9393 35.0067 71.5127 34.54C71.0993 34.0733 70.8927 33.4933 70.8927 32.8C70.8927 32.2533 71.046 31.7533 71.3527 31.3C71.6727 30.8467 72.1193 30.4867 72.6927 30.22C73.2793 29.94 73.966 29.8 74.7527 29.8C75.7393 29.8 76.5727 29.9933 77.2527 30.38C77.9327 30.7667 78.4393 31.3133 78.7727 32.02L77.4327 32.9C77.206 32.3133 76.8393 31.8867 76.3327 31.62C75.826 31.34 75.2993 31.2 74.7527 31.2C74.2727 31.2 73.8593 31.2667 73.5127 31.4C73.1793 31.5333 72.9193 31.72 72.7327 31.96C72.5593 32.1867 72.4727 32.4467 72.4727 32.74C72.4727 33.0333 72.5727 33.3067 72.7727 33.56C72.9727 33.8 73.346 33.9733 73.8927 34.08L76.3927 34.6C77.326 34.7867 77.9793 35.0933 78.3527 35.52C78.726 35.9467 78.9127 36.4667 78.9127 37.08C78.9127 37.7067 78.746 38.26 78.4127 38.74C78.0793 39.2067 77.6127 39.5667 77.0127 39.82C76.4127 40.0733 75.7193 40.2 74.9327 40.2ZM85.4795 40.2C84.5062 40.2 83.6062 39.9933 82.7795 39.58C81.9662 39.1667 81.3395 38.58 80.8995 37.82L82.2595 36.84C82.5529 37.4533 82.9795 37.9333 83.5395 38.28C84.1129 38.6267 84.7995 38.8 85.5995 38.8C86.3062 38.8 86.8595 38.6667 87.2595 38.4C87.6595 38.12 87.8595 37.76 87.8595 37.32C87.8595 37.04 87.7662 36.7867 87.5795 36.56C87.4062 36.32 87.0662 36.1467 86.5595 36.04L84.1595 35.54C83.1862 35.34 82.4862 35.0067 82.0595 34.54C81.6462 34.0733 81.4395 33.4933 81.4395 32.8C81.4395 32.2533 81.5929 31.7533 81.8995 31.3C82.2195 30.8467 82.6662 30.4867 83.2395 30.22C83.8262 29.94 84.5129 29.8 85.2995 29.8C86.2862 29.8 87.1195 29.9933 87.7995 30.38C88.4795 30.7667 88.9862 31.3133 89.3195 32.02L87.9795 32.9C87.7529 32.3133 87.3862 31.8867 86.8795 31.62C86.3729 31.34 85.8462 31.2 85.2995 31.2C84.8195 31.2 84.4062 31.2667 84.0595 31.4C83.7262 31.5333 83.4662 31.72 83.2795 31.96C83.1062 32.1867 83.0195 32.4467 83.0195 32.74C83.0195 33.0333 83.1195 33.3067 83.3195 33.56C83.5195 33.8 83.8929 33.9733 84.4395 34.08L86.9395 34.6C87.8729 34.7867 88.5262 35.0933 88.8995 35.52C89.2729 35.9467 89.4595 36.4667 89.4595 37.08C89.4595 37.7067 89.2929 38.26 88.9595 38.74C88.6262 39.2067 88.1595 39.5667 87.5595 39.82C86.9595 40.0733 86.2662 40.2 85.4795 40.2ZM96.5664 29.8C97.5131 29.8 98.3464 30.0067 99.0664 30.42C99.7997 30.8333 100.373 31.4333 100.786 32.22C101.2 32.9933 101.406 33.92 101.406 35C101.406 36.08 101.2 37.0133 100.786 37.8C100.373 38.5733 99.7997 39.1667 99.0664 39.58C98.3464 39.9933 97.5131 40.2 96.5664 40.2C95.6331 40.2 94.7997 39.9933 94.0664 39.58C93.3331 39.1667 92.7597 38.5733 92.3464 37.8C91.9331 37.0133 91.7264 36.08 91.7264 35C91.7264 33.92 91.9331 32.9933 92.3464 32.22C92.7597 31.4333 93.3331 30.8333 94.0664 30.42C94.7997 30.0067 95.6331 29.8 96.5664 29.8ZM96.5664 31.18C95.8864 31.18 95.3064 31.3333 94.8264 31.64C94.3464 31.9467 93.9731 32.3867 93.7064 32.96C93.4531 33.52 93.3264 34.2 93.3264 35C93.3264 35.7867 93.4531 36.4667 93.7064 37.04C93.9731 37.6133 94.3464 38.0533 94.8264 38.36C95.3064 38.6667 95.8864 38.82 96.5664 38.82C97.2464 38.82 97.8264 38.6667 98.3064 38.36C98.7864 38.0533 99.1531 37.6133 99.4064 37.04C99.6731 36.4667 99.8064 35.7867 99.8064 35C99.8064 34.2 99.6731 33.52 99.4064 32.96C99.1531 32.3867 98.7864 31.9467 98.3064 31.64C97.8264 31.3333 97.2464 31.18 96.5664 31.18ZM104.419 40V30H105.719L105.939 31.64C106.219 31.0267 106.625 30.5667 107.159 30.26C107.705 29.9533 108.365 29.8 109.139 29.8C109.312 29.8 109.499 29.8133 109.699 29.84C109.912 29.8667 110.092 29.92 110.239 30L109.959 31.46C109.812 31.4067 109.652 31.3667 109.479 31.34C109.305 31.3133 109.059 31.3 108.739 31.3C108.325 31.3 107.905 31.42 107.479 31.66C107.065 31.9 106.719 32.2667 106.439 32.76C106.159 33.24 106.019 33.8533 106.019 34.6V40H104.419ZM118.93 40V25.4H120.53V31.5C120.877 30.9 121.337 30.4667 121.91 30.2C122.484 29.9333 123.11 29.8 123.79 29.8C124.51 29.8 125.164 29.94 125.75 30.22C126.337 30.4867 126.804 30.9 127.15 31.46C127.51 32.02 127.69 32.7333 127.69 33.6V40H126.09V34.16C126.09 33.0533 125.85 32.2867 125.37 31.86C124.904 31.42 124.324 31.2 123.63 31.2C123.15 31.2 122.67 31.3133 122.19 31.54C121.71 31.7667 121.31 32.14 120.99 32.66C120.684 33.1667 120.53 33.8467 120.53 34.7V40H118.93ZM137.153 33.54C137.153 32.7933 136.953 32.22 136.553 31.82C136.153 31.4067 135.586 31.2 134.853 31.2C134.16 31.2 133.573 31.3533 133.093 31.66C132.613 31.9533 132.26 32.4333 132.033 33.1L130.733 32.3C131 31.5533 131.493 30.9533 132.213 30.5C132.933 30.0333 133.826 29.8 134.893 29.8C135.613 29.8 136.266 29.9267 136.853 30.18C137.44 30.42 137.9 30.7933 138.233 31.3C138.58 31.7933 138.753 32.4333 138.753 33.22V38.06C138.753 38.54 139.006 38.78 139.513 38.78C139.766 38.78 140.013 38.7467 140.253 38.68L140.173 39.94C139.906 40.0733 139.56 40.14 139.133 40.14C138.746 40.14 138.4 40.0667 138.093 39.92C137.786 39.7733 137.546 39.5533 137.373 39.26C137.2 38.9533 137.113 38.5733 137.113 38.12V37.92L137.513 37.98C137.353 38.5 137.08 38.9267 136.693 39.26C136.306 39.58 135.873 39.82 135.393 39.98C134.913 40.1267 134.44 40.2 133.973 40.2C133.386 40.2 132.84 40.1 132.333 39.9C131.826 39.7 131.42 39.4 131.113 39C130.82 38.5867 130.673 38.08 130.673 37.48C130.673 36.7333 130.92 36.12 131.413 35.64C131.92 35.1467 132.62 34.8133 133.513 34.64L137.473 33.86V35.18L134.253 35.84C133.6 35.9733 133.113 36.16 132.793 36.4C132.473 36.64 132.313 36.9733 132.313 37.4C132.313 37.8133 132.473 38.1533 132.793 38.42C133.126 38.6733 133.593 38.8 134.193 38.8C134.58 38.8 134.946 38.7533 135.293 38.66C135.653 38.5533 135.973 38.4 136.253 38.2C136.533 37.9867 136.753 37.7267 136.913 37.42C137.073 37.1 137.153 36.7267 137.153 36.3V33.54ZM142.641 40V30H144.041L144.181 32.24L143.921 32.02C144.135 31.4867 144.421 31.06 144.781 30.74C145.141 30.4067 145.555 30.1667 146.021 30.02C146.501 29.8733 146.995 29.8 147.501 29.8C148.221 29.8 148.875 29.94 149.461 30.22C150.048 30.4867 150.515 30.9 150.861 31.46C151.221 32.02 151.401 32.7333 151.401 33.6V40H149.801V34.16C149.801 33.0533 149.561 32.2867 149.081 31.86C148.615 31.42 148.035 31.2 147.341 31.2C146.861 31.2 146.381 31.3133 145.901 31.54C145.421 31.7667 145.021 32.1333 144.701 32.64C144.395 33.1467 144.241 33.8267 144.241 34.68V40H142.641ZM158.924 40.2C158.097 40.2 157.337 39.9933 156.644 39.58C155.951 39.1667 155.397 38.5733 154.984 37.8C154.571 37.0133 154.364 36.08 154.364 35C154.364 33.8933 154.584 32.9533 155.024 32.18C155.464 31.4067 156.044 30.82 156.764 30.42C157.484 30.0067 158.257 29.8 159.084 29.8C159.911 29.8 160.624 30.0133 161.224 30.44C161.837 30.8667 162.244 31.4333 162.444 32.14L162.244 32.28V25.4H163.844V40H162.444L162.304 37.58L162.524 37.46C162.431 38.0467 162.204 38.5467 161.844 38.96C161.497 39.36 161.064 39.6667 160.544 39.88C160.037 40.0933 159.497 40.2 158.924 40.2ZM159.084 38.8C159.724 38.8 160.277 38.64 160.744 38.32C161.224 38 161.591 37.5467 161.844 36.96C162.111 36.36 162.244 35.66 162.244 34.86C162.244 34.1 162.111 33.4467 161.844 32.9C161.591 32.3533 161.231 31.9333 160.764 31.64C160.311 31.3467 159.777 31.2 159.164 31.2C158.151 31.2 157.364 31.5467 156.804 32.24C156.244 32.9333 155.964 33.8533 155.964 35C155.964 36.1467 156.237 37.0667 156.784 37.76C157.331 38.4533 158.097 38.8 159.084 38.8ZM169.083 25.4V37.46C169.083 37.9667 169.176 38.32 169.363 38.52C169.55 38.7067 169.85 38.8 170.263 38.8C170.53 38.8 170.75 38.78 170.923 38.74C171.096 38.7 171.33 38.6267 171.623 38.52L171.363 39.92C171.15 40.0133 170.916 40.08 170.663 40.12C170.41 40.1733 170.15 40.2 169.883 40.2C169.07 40.2 168.463 39.98 168.063 39.54C167.676 39.1 167.483 38.4267 167.483 37.52V25.4H169.083ZM177.856 40.2C176.91 40.2 176.063 39.9933 175.316 39.58C174.583 39.1667 174.01 38.5733 173.596 37.8C173.183 37.0133 172.976 36.08 172.976 35C172.976 33.92 173.183 32.9933 173.596 32.22C174.01 31.4333 174.576 30.8333 175.296 30.42C176.016 30.0067 176.836 29.8 177.756 29.8C178.69 29.8 179.483 30 180.136 30.4C180.803 30.8 181.31 31.3467 181.656 32.04C182.003 32.72 182.176 33.4867 182.176 34.34C182.176 34.5667 182.17 34.7733 182.156 34.96C182.143 35.1467 182.123 35.3133 182.096 35.46H174.016V34.04H181.396L180.576 34.2C180.576 33.24 180.31 32.5 179.776 31.98C179.256 31.46 178.57 31.2 177.716 31.2C177.063 31.2 176.496 31.3533 176.016 31.66C175.55 31.9533 175.183 32.3867 174.916 32.96C174.663 33.52 174.536 34.2 174.536 35C174.536 35.7867 174.67 36.4667 174.936 37.04C175.203 37.6133 175.576 38.0533 176.056 38.36C176.55 38.6533 177.136 38.8 177.816 38.8C178.55 38.8 179.143 38.66 179.596 38.38C180.063 38.1 180.436 37.72 180.716 37.24L181.976 37.98C181.723 38.4333 181.396 38.8267 180.996 39.16C180.61 39.4933 180.15 39.7533 179.616 39.94C179.096 40.1133 178.51 40.2 177.856 40.2ZM188.819 40.2C187.846 40.2 186.946 39.9933 186.119 39.58C185.306 39.1667 184.679 38.58 184.239 37.82L185.599 36.84C185.893 37.4533 186.319 37.9333 186.879 38.28C187.453 38.6267 188.139 38.8 188.939 38.8C189.646 38.8 190.199 38.6667 190.599 38.4C190.999 38.12 191.199 37.76 191.199 37.32C191.199 37.04 191.106 36.7867 190.919 36.56C190.746 36.32 190.406 36.1467 189.899 36.04L187.499 35.54C186.526 35.34 185.826 35.0067 185.399 34.54C184.986 34.0733 184.779 33.4933 184.779 32.8C184.779 32.2533 184.933 31.7533 185.239 31.3C185.559 30.8467 186.006 30.4867 186.579 30.22C187.166 29.94 187.853 29.8 188.639 29.8C189.626 29.8 190.459 29.9933 191.139 30.38C191.819 30.7667 192.326 31.3133 192.659 32.02L191.319 32.9C191.093 32.3133 190.726 31.8867 190.219 31.62C189.713 31.34 189.186 31.2 188.639 31.2C188.159 31.2 187.746 31.2667 187.399 31.4C187.066 31.5333 186.806 31.72 186.619 31.96C186.446 32.1867 186.359 32.4467 186.359 32.74C186.359 33.0333 186.459 33.3067 186.659 33.56C186.859 33.8 187.233 33.9733 187.779 34.08L190.279 34.6C191.213 34.7867 191.866 35.0933 192.239 35.52C192.613 35.9467 192.799 36.4667 192.799 37.08C192.799 37.7067 192.633 38.26 192.299 38.74C191.966 39.2067 191.499 39.5667 190.899 39.82C190.299 40.0733 189.606 40.2 188.819 40.2ZM206.272 25.3C206.618 25.3 206.945 25.34 207.252 25.42C207.558 25.5 207.798 25.6133 207.972 25.76L207.552 27.06C207.392 26.9533 207.218 26.88 207.032 26.84C206.845 26.7867 206.638 26.76 206.412 26.76C205.838 26.76 205.392 26.9 205.072 27.18C204.752 27.4467 204.592 27.88 204.592 28.48V30V30.52V40H202.992V28.32C202.992 27.88 203.058 27.4733 203.192 27.1C203.325 26.7267 203.525 26.4067 203.792 26.14C204.072 25.8733 204.418 25.6667 204.832 25.52C205.245 25.3733 205.725 25.3 206.272 25.3ZM207.932 30V31.38H200.992V30H207.932ZM213.93 29.8C214.876 29.8 215.71 30.0067 216.43 30.42C217.163 30.8333 217.736 31.4333 218.15 32.22C218.563 32.9933 218.77 33.92 218.77 35C218.77 36.08 218.563 37.0133 218.15 37.8C217.736 38.5733 217.163 39.1667 216.43 39.58C215.71 39.9933 214.876 40.2 213.93 40.2C212.996 40.2 212.163 39.9933 211.43 39.58C210.696 39.1667 210.123 38.5733 209.71 37.8C209.296 37.0133 209.09 36.08 209.09 35C209.09 33.92 209.296 32.9933 209.71 32.22C210.123 31.4333 210.696 30.8333 211.43 30.42C212.163 30.0067 212.996 29.8 213.93 29.8ZM213.93 31.18C213.25 31.18 212.67 31.3333 212.19 31.64C211.71 31.9467 211.336 32.3867 211.07 32.96C210.816 33.52 210.69 34.2 210.69 35C210.69 35.7867 210.816 36.4667 211.07 37.04C211.336 37.6133 211.71 38.0533 212.19 38.36C212.67 38.6667 213.25 38.82 213.93 38.82C214.61 38.82 215.19 38.6667 215.67 38.36C216.15 38.0533 216.516 37.6133 216.77 37.04C217.036 36.4667 217.17 35.7867 217.17 35C217.17 34.2 217.036 33.52 216.77 32.96C216.516 32.3867 216.15 31.9467 215.67 31.64C215.19 31.3333 214.61 31.18 213.93 31.18ZM221.782 40V30H223.082L223.302 31.64C223.582 31.0267 223.989 30.5667 224.522 30.26C225.069 29.9533 225.729 29.8 226.502 29.8C226.675 29.8 226.862 29.8133 227.062 29.84C227.275 29.8667 227.455 29.92 227.602 30L227.322 31.46C227.175 31.4067 227.015 31.3667 226.842 31.34C226.669 31.3133 226.422 31.3 226.102 31.3C225.689 31.3 225.269 31.42 224.842 31.66C224.429 31.9 224.082 32.2667 223.802 32.76C223.522 33.24 223.382 33.8533 223.382 34.6V40H221.782ZM229.946 40V30H231.346L231.446 31.56C231.806 30.9467 232.273 30.5 232.846 30.22C233.433 29.94 234.033 29.8 234.646 29.8C235.353 29.8 236.019 29.96 236.646 30.28C237.273 30.6 237.753 31.0933 238.086 31.76C238.299 31.3067 238.599 30.94 238.986 30.66C239.373 30.3667 239.793 30.1533 240.246 30.02C240.713 29.8733 241.153 29.8 241.566 29.8C242.206 29.8 242.813 29.9333 243.386 30.2C243.973 30.4667 244.453 30.88 244.826 31.44C245.199 32 245.386 32.72 245.386 33.6V40H243.786V33.76C243.786 32.8533 243.559 32.2 243.106 31.8C242.653 31.4 242.093 31.2 241.426 31.2C240.906 31.2 240.419 31.3267 239.966 31.58C239.513 31.8333 239.146 32.2067 238.866 32.7C238.599 33.1933 238.466 33.8 238.466 34.52V40H236.866V33.76C236.866 32.8533 236.639 32.2 236.186 31.8C235.733 31.4 235.173 31.2 234.506 31.2C234.066 31.2 233.613 31.32 233.146 31.56C232.693 31.7867 232.313 32.1533 232.006 32.66C231.699 33.1667 231.546 33.8333 231.546 34.66V40H229.946ZM257.794 27.16V37.24C257.794 37.7333 257.934 38.1 258.214 38.34C258.494 38.58 258.854 38.7 259.294 38.7C259.681 38.7 260.014 38.6333 260.294 38.5C260.574 38.3667 260.828 38.1867 261.054 37.96L261.614 39.3C261.308 39.58 260.941 39.8 260.514 39.96C260.101 40.12 259.621 40.2 259.074 40.2C258.568 40.2 258.094 40.1133 257.654 39.94C257.214 39.7533 256.861 39.4667 256.594 39.08C256.341 38.68 256.208 38.16 256.194 37.52V27.6L257.794 27.16ZM261.434 30V31.38H254.194V30H261.434ZM276.353 30H278.133L274.653 40H273.053L270.233 32.04L267.573 40H265.973L262.493 30H264.273L266.793 38.14L269.513 30H271.113L273.833 38.14L276.353 30ZM284.359 29.8C285.306 29.8 286.139 30.0067 286.859 30.42C287.593 30.8333 288.166 31.4333 288.579 32.22C288.993 32.9933 289.199 33.92 289.199 35C289.199 36.08 288.993 37.0133 288.579 37.8C288.166 38.5733 287.593 39.1667 286.859 39.58C286.139 39.9933 285.306 40.2 284.359 40.2C283.426 40.2 282.593 39.9933 281.859 39.58C281.126 39.1667 280.553 38.5733 280.139 37.8C279.726 37.0133 279.519 36.08 279.519 35C279.519 33.92 279.726 32.9933 280.139 32.22C280.553 31.4333 281.126 30.8333 281.859 30.42C282.593 30.0067 283.426 29.8 284.359 29.8ZM284.359 31.18C283.679 31.18 283.099 31.3333 282.619 31.64C282.139 31.9467 281.766 32.3867 281.499 32.96C281.246 33.52 281.119 34.2 281.119 35C281.119 35.7867 281.246 36.4667 281.499 37.04C281.766 37.6133 282.139 38.0533 282.619 38.36C283.099 38.6667 283.679 38.82 284.359 38.82C285.039 38.82 285.619 38.6667 286.099 38.36C286.579 38.0533 286.946 37.6133 287.199 37.04C287.466 36.4667 287.599 35.7867 287.599 35C287.599 34.2 287.466 33.52 287.199 32.96C286.946 32.3867 286.579 31.9467 286.099 31.64C285.619 31.3333 285.039 31.18 284.359 31.18ZM302.717 25.3C303.064 25.3 303.39 25.34 303.697 25.42C304.004 25.5 304.244 25.6133 304.417 25.76L303.997 27.06C303.837 26.9533 303.664 26.88 303.477 26.84C303.29 26.7867 303.084 26.76 302.857 26.76C302.284 26.76 301.837 26.9 301.517 27.18C301.197 27.4467 301.037 27.88 301.037 28.48V30V30.52V40H299.437V28.32C299.437 27.88 299.504 27.4733 299.637 27.1C299.77 26.7267 299.97 26.4067 300.237 26.14C300.517 25.8733 300.864 25.6667 301.277 25.52C301.69 25.3733 302.17 25.3 302.717 25.3ZM304.377 30V31.38H297.437V30H304.377ZM307.317 28.08C306.957 28.08 306.664 27.9733 306.437 27.76C306.224 27.5333 306.117 27.24 306.117 26.88C306.117 26.52 306.224 26.2333 306.437 26.02C306.664 25.7933 306.957 25.68 307.317 25.68C307.677 25.68 307.964 25.7933 308.177 26.02C308.404 26.2333 308.517 26.52 308.517 26.88C308.517 27.24 308.404 27.5333 308.177 27.76C307.964 27.9733 307.677 28.08 307.317 28.08ZM308.117 30V40H306.517V30H308.117ZM320.26 28.16L320.62 29.58C320.607 29.58 320.587 29.58 320.56 29.58C320.534 29.58 320.507 29.58 320.48 29.58C319.827 29.58 319.32 29.7133 318.96 29.98C318.614 30.2333 318.44 30.6467 318.44 31.22L317.46 30.72C317.46 30.2 317.58 29.7467 317.82 29.36C318.06 28.9733 318.387 28.68 318.8 28.48C319.214 28.2667 319.667 28.16 320.16 28.16C320.174 28.16 320.187 28.16 320.2 28.16C320.227 28.16 320.247 28.16 320.26 28.16ZM317.22 38.72C318.167 38.72 318.907 38.94 319.44 39.38C319.974 39.8067 320.24 40.38 320.24 41.1C320.24 41.7533 320.02 42.32 319.58 42.8C319.154 43.28 318.574 43.6467 317.84 43.9C317.12 44.1667 316.307 44.3 315.4 44.3C313.827 44.3 312.647 44.0333 311.86 43.5C311.087 42.9667 310.7 42.3267 310.7 41.58C310.7 41.0467 310.874 40.5667 311.22 40.14C311.58 39.7267 312.18 39.4933 313.02 39.44L312.88 39.74C312.427 39.62 312.04 39.42 311.72 39.14C311.414 38.8467 311.26 38.4267 311.26 37.88C311.26 37.3333 311.46 36.8667 311.86 36.48C312.274 36.08 312.88 35.8333 313.68 35.74L314.74 36.28H314.54C313.887 36.3467 313.42 36.5133 313.14 36.78C312.874 37.0333 312.74 37.3133 312.74 37.62C312.74 37.9933 312.874 38.2733 313.14 38.46C313.42 38.6333 313.807 38.72 314.3 38.72H317.22ZM315.38 42.96C316.154 42.96 316.787 42.88 317.28 42.72C317.787 42.56 318.16 42.3533 318.4 42.1C318.64 41.8467 318.76 41.5733 318.76 41.28C318.76 40.92 318.614 40.6333 318.32 40.42C318.04 40.2067 317.527 40.1 316.78 40.1H313.7C313.274 40.1 312.914 40.2067 312.62 40.42C312.327 40.6467 312.18 40.9533 312.18 41.34C312.18 41.8333 312.46 42.2267 313.02 42.52C313.594 42.8133 314.38 42.96 315.38 42.96ZM315.24 29.8C316.04 29.8 316.747 29.9467 317.36 30.24C317.987 30.52 318.474 30.9133 318.82 31.42C319.167 31.9267 319.34 32.5133 319.34 33.18C319.34 33.8333 319.167 34.42 318.82 34.94C318.474 35.4467 317.987 35.8467 317.36 36.14C316.747 36.42 316.04 36.56 315.24 36.56C313.92 36.56 312.907 36.2467 312.2 35.62C311.494 34.98 311.14 34.1667 311.14 33.18C311.14 32.5133 311.314 31.9267 311.66 31.42C312.02 30.9133 312.507 30.52 313.12 30.24C313.734 29.9467 314.44 29.8 315.24 29.8ZM315.24 31.1C314.547 31.1 313.967 31.2933 313.5 31.68C313.034 32.0533 312.8 32.5533 312.8 33.18C312.8 33.7933 313.034 34.2933 313.5 34.68C313.967 35.0667 314.547 35.26 315.24 35.26C315.934 35.26 316.514 35.0667 316.98 34.68C317.447 34.2933 317.68 33.7933 317.68 33.18C317.68 32.5533 317.447 32.0533 316.98 31.68C316.514 31.2933 315.934 31.1 315.24 31.1ZM326.105 40.2C325.465 40.2 324.858 40.08 324.285 39.84C323.725 39.6 323.265 39.2133 322.905 38.68C322.558 38.1333 322.385 37.4267 322.385 36.56V30H323.985V36.14C323.985 37.1533 324.205 37.8533 324.645 38.24C325.085 38.6133 325.705 38.8 326.505 38.8C326.878 38.8 327.245 38.74 327.605 38.62C327.965 38.4867 328.285 38.2867 328.565 38.02C328.858 37.74 329.085 37.3867 329.245 36.96C329.418 36.5333 329.505 36.0267 329.505 35.44V30H331.105V40H329.705L329.605 38.48C329.258 39.08 328.785 39.52 328.185 39.8C327.598 40.0667 326.905 40.2 326.105 40.2ZM334.829 40V30H336.129L336.349 31.64C336.629 31.0267 337.035 30.5667 337.569 30.26C338.115 29.9533 338.775 29.8 339.549 29.8C339.722 29.8 339.909 29.8133 340.109 29.84C340.322 29.8667 340.502 29.92 340.649 30L340.369 31.46C340.222 31.4067 340.062 31.3667 339.889 31.34C339.715 31.3133 339.469 31.3 339.149 31.3C338.735 31.3 338.315 31.42 337.889 31.66C337.475 31.9 337.129 32.2667 336.849 32.76C336.569 33.24 336.429 33.8533 336.429 34.6V40H334.829ZM346.86 40.2C345.914 40.2 345.067 39.9933 344.32 39.58C343.587 39.1667 343.014 38.5733 342.6 37.8C342.187 37.0133 341.98 36.08 341.98 35C341.98 33.92 342.187 32.9933 342.6 32.22C343.014 31.4333 343.58 30.8333 344.3 30.42C345.02 30.0067 345.84 29.8 346.76 29.8C347.694 29.8 348.487 30 349.14 30.4C349.807 30.8 350.314 31.3467 350.66 32.04C351.007 32.72 351.18 33.4867 351.18 34.34C351.18 34.5667 351.174 34.7733 351.16 34.96C351.147 35.1467 351.127 35.3133 351.1 35.46H343.02V34.04H350.4L349.58 34.2C349.58 33.24 349.314 32.5 348.78 31.98C348.26 31.46 347.574 31.2 346.72 31.2C346.067 31.2 345.5 31.3533 345.02 31.66C344.554 31.9533 344.187 32.3867 343.92 32.96C343.667 33.52 343.54 34.2 343.54 35C343.54 35.7867 343.674 36.4667 343.94 37.04C344.207 37.6133 344.58 38.0533 345.06 38.36C345.554 38.6533 346.14 38.8 346.82 38.8C347.554 38.8 348.147 38.66 348.6 38.38C349.067 38.1 349.44 37.72 349.72 37.24L350.98 37.98C350.727 38.4333 350.4 38.8267 350 39.16C349.614 39.4933 349.154 39.7533 348.62 39.94C348.1 40.1133 347.514 40.2 346.86 40.2ZM357.823 40.2C356.85 40.2 355.95 39.9933 355.123 39.58C354.31 39.1667 353.683 38.58 353.243 37.82L354.603 36.84C354.897 37.4533 355.323 37.9333 355.883 38.28C356.457 38.6267 357.143 38.8 357.943 38.8C358.65 38.8 359.203 38.6667 359.603 38.4C360.003 38.12 360.203 37.76 360.203 37.32C360.203 37.04 360.11 36.7867 359.923 36.56C359.75 36.32 359.41 36.1467 358.903 36.04L356.503 35.54C355.53 35.34 354.83 35.0067 354.403 34.54C353.99 34.0733 353.783 33.4933 353.783 32.8C353.783 32.2533 353.937 31.7533 354.243 31.3C354.563 30.8467 355.01 30.4867 355.583 30.22C356.17 29.94 356.857 29.8 357.643 29.8C358.63 29.8 359.463 29.9933 360.143 30.38C360.823 30.7667 361.33 31.3133 361.663 32.02L360.323 32.9C360.097 32.3133 359.73 31.8867 359.223 31.62C358.717 31.34 358.19 31.2 357.643 31.2C357.163 31.2 356.75 31.2667 356.403 31.4C356.07 31.5333 355.81 31.72 355.623 31.96C355.45 32.1867 355.363 32.4467 355.363 32.74C355.363 33.0333 355.463 33.3067 355.663 33.56C355.863 33.8 356.237 33.9733 356.783 34.08L359.283 34.6C360.217 34.7867 360.87 35.0933 361.243 35.52C361.617 35.9467 361.803 36.4667 361.803 37.08C361.803 37.7067 361.637 38.26 361.303 38.74C360.97 39.2067 360.503 39.5667 359.903 39.82C359.303 40.0733 358.61 40.2 357.823 40.2ZM375.275 25.3C375.622 25.3 375.949 25.34 376.255 25.42C376.562 25.5 376.802 25.6133 376.975 25.76L376.555 27.06C376.395 26.9533 376.222 26.88 376.035 26.84C375.849 26.7867 375.642 26.76 375.415 26.76C374.842 26.76 374.395 26.9 374.075 27.18C373.755 27.4467 373.595 27.88 373.595 28.48V30V30.52V40H371.995V28.32C371.995 27.88 372.062 27.4733 372.195 27.1C372.329 26.7267 372.529 26.4067 372.795 26.14C373.075 25.8733 373.422 25.6667 373.835 25.52C374.249 25.3733 374.729 25.3 375.275 25.3ZM376.935 30V31.38H369.995V30H376.935ZM384.302 33.54C384.302 32.7933 384.102 32.22 383.702 31.82C383.302 31.4067 382.735 31.2 382.002 31.2C381.308 31.2 380.722 31.3533 380.242 31.66C379.762 31.9533 379.408 32.4333 379.182 33.1L377.882 32.3C378.148 31.5533 378.642 30.9533 379.362 30.5C380.082 30.0333 380.975 29.8 382.042 29.8C382.762 29.8 383.415 29.9267 384.002 30.18C384.588 30.42 385.048 30.7933 385.382 31.3C385.728 31.7933 385.902 32.4333 385.902 33.22V38.06C385.902 38.54 386.155 38.78 386.662 38.78C386.915 38.78 387.162 38.7467 387.402 38.68L387.322 39.94C387.055 40.0733 386.708 40.14 386.282 40.14C385.895 40.14 385.548 40.0667 385.242 39.92C384.935 39.7733 384.695 39.5533 384.522 39.26C384.348 38.9533 384.262 38.5733 384.262 38.12V37.92L384.662 37.98C384.502 38.5 384.228 38.9267 383.842 39.26C383.455 39.58 383.022 39.82 382.542 39.98C382.062 40.1267 381.588 40.2 381.122 40.2C380.535 40.2 379.988 40.1 379.482 39.9C378.975 39.7 378.568 39.4 378.262 39C377.968 38.5867 377.822 38.08 377.822 37.48C377.822 36.7333 378.068 36.12 378.562 35.64C379.068 35.1467 379.768 34.8133 380.662 34.64L384.622 33.86V35.18L381.402 35.84C380.748 35.9733 380.262 36.16 379.942 36.4C379.622 36.64 379.462 36.9733 379.462 37.4C379.462 37.8133 379.622 38.1533 379.942 38.42C380.275 38.6733 380.742 38.8 381.342 38.8C381.728 38.8 382.095 38.7533 382.442 38.66C382.802 38.5533 383.122 38.4 383.402 38.2C383.682 37.9867 383.902 37.7267 384.062 37.42C384.222 37.1 384.302 36.7267 384.302 36.3V33.54ZM393.93 29.8C394.623 29.8 395.23 29.9067 395.75 30.12C396.283 30.3333 396.743 30.64 397.13 31.04C397.516 31.44 397.83 31.9133 398.07 32.46L396.55 33.18C396.336 32.54 396.01 32.0533 395.57 31.72C395.143 31.3733 394.583 31.2 393.89 31.2C393.223 31.2 392.65 31.3533 392.17 31.66C391.69 31.9533 391.323 32.3867 391.07 32.96C390.816 33.52 390.69 34.2 390.69 35C390.69 35.7867 390.816 36.4667 391.07 37.04C391.323 37.6133 391.69 38.0533 392.17 38.36C392.65 38.6533 393.223 38.8 393.89 38.8C394.41 38.8 394.856 38.72 395.23 38.56C395.616 38.4 395.93 38.1667 396.17 37.86C396.423 37.5533 396.596 37.18 396.69 36.74L398.17 37.26C397.943 37.8733 397.63 38.4 397.23 38.84C396.843 39.28 396.37 39.62 395.81 39.86C395.263 40.0867 394.636 40.2 393.93 40.2C392.996 40.2 392.163 39.9933 391.43 39.58C390.696 39.1667 390.123 38.5733 389.71 37.8C389.296 37.0133 389.09 36.08 389.09 35C389.09 33.92 389.296 32.9933 389.71 32.22C390.123 31.4333 390.696 30.8333 391.43 30.42C392.163 30.0067 392.996 29.8 393.93 29.8ZM401.781 28.08C401.421 28.08 401.128 27.9733 400.901 27.76C400.688 27.5333 400.581 27.24 400.581 26.88C400.581 26.52 400.688 26.2333 400.901 26.02C401.128 25.7933 401.421 25.68 401.781 25.68C402.141 25.68 402.428 25.7933 402.641 26.02C402.868 26.2333 402.981 26.52 402.981 26.88C402.981 27.24 402.868 27.5333 402.641 27.76C402.428 27.9733 402.141 28.08 401.781 28.08ZM402.581 30V40H400.981V30H402.581ZM406.294 40V30H407.694L407.834 32.24L407.574 32.02C407.787 31.4867 408.074 31.06 408.434 30.74C408.794 30.4067 409.207 30.1667 409.674 30.02C410.154 29.8733 410.647 29.8 411.154 29.8C411.874 29.8 412.527 29.94 413.114 30.22C413.7 30.4867 414.167 30.9 414.514 31.46C414.874 32.02 415.054 32.7333 415.054 33.6V40H413.454V34.16C413.454 33.0533 413.214 32.2867 412.734 31.86C412.267 31.42 411.687 31.2 410.994 31.2C410.514 31.2 410.034 31.3133 409.554 31.54C409.074 31.7667 408.674 32.1333 408.354 32.64C408.047 33.1467 407.894 33.8267 407.894 34.68V40H406.294ZM427.096 28.16L427.456 29.58C427.443 29.58 427.423 29.58 427.396 29.58C427.37 29.58 427.343 29.58 427.316 29.58C426.663 29.58 426.156 29.7133 425.796 29.98C425.45 30.2333 425.276 30.6467 425.276 31.22L424.296 30.72C424.296 30.2 424.416 29.7467 424.656 29.36C424.896 28.9733 425.223 28.68 425.636 28.48C426.05 28.2667 426.503 28.16 426.996 28.16C427.01 28.16 427.023 28.16 427.036 28.16C427.063 28.16 427.083 28.16 427.096 28.16ZM424.056 38.72C425.003 38.72 425.743 38.94 426.276 39.38C426.81 39.8067 427.076 40.38 427.076 41.1C427.076 41.7533 426.856 42.32 426.416 42.8C425.99 43.28 425.41 43.6467 424.676 43.9C423.956 44.1667 423.143 44.3 422.236 44.3C420.663 44.3 419.483 44.0333 418.696 43.5C417.923 42.9667 417.536 42.3267 417.536 41.58C417.536 41.0467 417.71 40.5667 418.056 40.14C418.416 39.7267 419.016 39.4933 419.856 39.44L419.716 39.74C419.263 39.62 418.876 39.42 418.556 39.14C418.25 38.8467 418.096 38.4267 418.096 37.88C418.096 37.3333 418.296 36.8667 418.696 36.48C419.11 36.08 419.716 35.8333 420.516 35.74L421.576 36.28H421.376C420.723 36.3467 420.256 36.5133 419.976 36.78C419.71 37.0333 419.576 37.3133 419.576 37.62C419.576 37.9933 419.71 38.2733 419.976 38.46C420.256 38.6333 420.643 38.72 421.136 38.72H424.056ZM422.216 42.96C422.99 42.96 423.623 42.88 424.116 42.72C424.623 42.56 424.996 42.3533 425.236 42.1C425.476 41.8467 425.596 41.5733 425.596 41.28C425.596 40.92 425.45 40.6333 425.156 40.42C424.876 40.2067 424.363 40.1 423.616 40.1H420.536C420.11 40.1 419.75 40.2067 419.456 40.42C419.163 40.6467 419.016 40.9533 419.016 41.34C419.016 41.8333 419.296 42.2267 419.856 42.52C420.43 42.8133 421.216 42.96 422.216 42.96ZM422.076 29.8C422.876 29.8 423.583 29.9467 424.196 30.24C424.823 30.52 425.31 30.9133 425.656 31.42C426.003 31.9267 426.176 32.5133 426.176 33.18C426.176 33.8333 426.003 34.42 425.656 34.94C425.31 35.4467 424.823 35.8467 424.196 36.14C423.583 36.42 422.876 36.56 422.076 36.56C420.756 36.56 419.743 36.2467 419.036 35.62C418.33 34.98 417.976 34.1667 417.976 33.18C417.976 32.5133 418.15 31.9267 418.496 31.42C418.856 30.9133 419.343 30.52 419.956 30.24C420.57 29.9467 421.276 29.8 422.076 29.8ZM422.076 31.1C421.383 31.1 420.803 31.2933 420.336 31.68C419.87 32.0533 419.636 32.5533 419.636 33.18C419.636 33.7933 419.87 34.2933 420.336 34.68C420.803 35.0667 421.383 35.26 422.076 35.26C422.77 35.26 423.35 35.0667 423.816 34.68C424.283 34.2933 424.516 33.7933 424.516 33.18C424.516 32.5533 424.283 32.0533 423.816 31.68C423.35 31.2933 422.77 31.1 422.076 31.1ZM440.277 29.8C441.224 29.8 442.057 30.0067 442.777 30.42C443.511 30.8333 444.084 31.4333 444.497 32.22C444.911 32.9933 445.117 33.92 445.117 35C445.117 36.08 444.911 37.0133 444.497 37.8C444.084 38.5733 443.511 39.1667 442.777 39.58C442.057 39.9933 441.224 40.2 440.277 40.2C439.344 40.2 438.511 39.9933 437.777 39.58C437.044 39.1667 436.471 38.5733 436.057 37.8C435.644 37.0133 435.437 36.08 435.437 35C435.437 33.92 435.644 32.9933 436.057 32.22C436.471 31.4333 437.044 30.8333 437.777 30.42C438.511 30.0067 439.344 29.8 440.277 29.8ZM440.277 31.18C439.597 31.18 439.017 31.3333 438.537 31.64C438.057 31.9467 437.684 32.3867 437.417 32.96C437.164 33.52 437.037 34.2 437.037 35C437.037 35.7867 437.164 36.4667 437.417 37.04C437.684 37.6133 438.057 38.0533 438.537 38.36C439.017 38.6667 439.597 38.82 440.277 38.82C440.957 38.82 441.537 38.6667 442.017 38.36C442.497 38.0533 442.864 37.6133 443.117 37.04C443.384 36.4667 443.517 35.7867 443.517 35C443.517 34.2 443.384 33.52 443.117 32.96C442.864 32.3867 442.497 31.9467 442.017 31.64C441.537 31.3333 440.957 31.18 440.277 31.18ZM448.13 44.2V30H449.53L449.67 32.44L449.45 32.16C449.623 31.6933 449.883 31.2867 450.23 30.94C450.576 30.58 450.996 30.3 451.49 30.1C451.983 29.9 452.516 29.8 453.09 29.8C453.903 29.8 454.65 30.0067 455.33 30.42C456.023 30.8333 456.576 31.4267 456.99 32.2C457.403 32.9733 457.61 33.9067 457.61 35C457.61 36.08 457.396 37.0133 456.97 37.8C456.556 38.5733 456.003 39.1667 455.31 39.58C454.616 39.9933 453.856 40.2 453.03 40.2C452.203 40.2 451.476 40 450.85 39.6C450.236 39.1867 449.796 38.6667 449.53 38.04L449.73 37.74V44.2H448.13ZM452.87 38.8C453.856 38.8 454.623 38.4533 455.17 37.76C455.73 37.0667 456.01 36.1467 456.01 35C456.01 33.8533 455.736 32.9333 455.19 32.24C454.656 31.5467 453.903 31.2 452.93 31.2C452.29 31.2 451.73 31.36 451.25 31.68C450.77 31.9867 450.396 32.4267 450.13 33C449.863 33.56 449.73 34.2267 449.73 35C449.73 35.76 449.856 36.4267 450.11 37C450.376 37.5733 450.743 38.02 451.21 38.34C451.69 38.6467 452.243 38.8 452.87 38.8ZM460.669 44.2V30H462.069L462.209 32.44L461.989 32.16C462.162 31.6933 462.422 31.2867 462.769 30.94C463.115 30.58 463.535 30.3 464.029 30.1C464.522 29.9 465.055 29.8 465.629 29.8C466.442 29.8 467.189 30.0067 467.869 30.42C468.562 30.8333 469.115 31.4267 469.529 32.2C469.942 32.9733 470.149 33.9067 470.149 35C470.149 36.08 469.935 37.0133 469.509 37.8C469.095 38.5733 468.542 39.1667 467.849 39.58C467.155 39.9933 466.395 40.2 465.569 40.2C464.742 40.2 464.015 40 463.389 39.6C462.775 39.1867 462.335 38.6667 462.069 38.04L462.269 37.74V44.2H460.669ZM465.409 38.8C466.395 38.8 467.162 38.4533 467.709 37.76C468.269 37.0667 468.549 36.1467 468.549 35C468.549 33.8533 468.275 32.9333 467.729 32.24C467.195 31.5467 466.442 31.2 465.469 31.2C464.829 31.2 464.269 31.36 463.789 31.68C463.309 31.9867 462.935 32.4267 462.669 33C462.402 33.56 462.269 34.2267 462.269 35C462.269 35.76 462.395 36.4267 462.649 37C462.915 37.5733 463.282 38.02 463.749 38.34C464.229 38.6467 464.782 38.8 465.409 38.8ZM477.348 29.8C478.294 29.8 479.128 30.0067 479.848 30.42C480.581 30.8333 481.154 31.4333 481.568 32.22C481.981 32.9933 482.188 33.92 482.188 35C482.188 36.08 481.981 37.0133 481.568 37.8C481.154 38.5733 480.581 39.1667 479.848 39.58C479.128 39.9933 478.294 40.2 477.348 40.2C476.414 40.2 475.581 39.9933 474.848 39.58C474.114 39.1667 473.541 38.5733 473.128 37.8C472.714 37.0133 472.508 36.08 472.508 35C472.508 33.92 472.714 32.9933 473.128 32.22C473.541 31.4333 474.114 30.8333 474.848 30.42C475.581 30.0067 476.414 29.8 477.348 29.8ZM477.348 31.18C476.668 31.18 476.088 31.3333 475.608 31.64C475.128 31.9467 474.754 32.3867 474.488 32.96C474.234 33.52 474.108 34.2 474.108 35C474.108 35.7867 474.234 36.4667 474.488 37.04C474.754 37.6133 475.128 38.0533 475.608 38.36C476.088 38.6667 476.668 38.82 477.348 38.82C478.028 38.82 478.608 38.6667 479.088 38.36C479.568 38.0533 479.934 37.6133 480.188 37.04C480.454 36.4667 480.588 35.7867 480.588 35C480.588 34.2 480.454 33.52 480.188 32.96C479.934 32.3867 479.568 31.9467 479.088 31.64C478.608 31.3333 478.028 31.18 477.348 31.18ZM488.8 40.2C487.827 40.2 486.927 39.9933 486.1 39.58C485.287 39.1667 484.66 38.58 484.22 37.82L485.58 36.84C485.873 37.4533 486.3 37.9333 486.86 38.28C487.433 38.6267 488.12 38.8 488.92 38.8C489.627 38.8 490.18 38.6667 490.58 38.4C490.98 38.12 491.18 37.76 491.18 37.32C491.18 37.04 491.087 36.7867 490.9 36.56C490.727 36.32 490.387 36.1467 489.88 36.04L487.48 35.54C486.507 35.34 485.807 35.0067 485.38 34.54C484.967 34.0733 484.76 33.4933 484.76 32.8C484.76 32.2533 484.913 31.7533 485.22 31.3C485.54 30.8467 485.987 30.4867 486.56 30.22C487.147 29.94 487.833 29.8 488.62 29.8C489.607 29.8 490.44 29.9933 491.12 30.38C491.8 30.7667 492.307 31.3133 492.64 32.02L491.3 32.9C491.073 32.3133 490.707 31.8867 490.2 31.62C489.693 31.34 489.167 31.2 488.62 31.2C488.14 31.2 487.727 31.2667 487.38 31.4C487.047 31.5333 486.787 31.72 486.6 31.96C486.427 32.1867 486.34 32.4467 486.34 32.74C486.34 33.0333 486.44 33.3067 486.64 33.56C486.84 33.8 487.213 33.9733 487.76 34.08L490.26 34.6C491.193 34.7867 491.847 35.0933 492.22 35.52C492.593 35.9467 492.78 36.4667 492.78 37.08C492.78 37.7067 492.613 38.26 492.28 38.74C491.947 39.2067 491.48 39.5667 490.88 39.82C490.28 40.0733 489.587 40.2 488.8 40.2ZM496.547 28.08C496.187 28.08 495.893 27.9733 495.667 27.76C495.453 27.5333 495.347 27.24 495.347 26.88C495.347 26.52 495.453 26.2333 495.667 26.02C495.893 25.7933 496.187 25.68 496.547 25.68C496.907 25.68 497.193 25.7933 497.407 26.02C497.633 26.2333 497.747 26.52 497.747 26.88C497.747 27.24 497.633 27.5333 497.407 27.76C497.193 27.9733 496.907 28.08 496.547 28.08ZM497.347 30V40H495.747V30H497.347ZM503.419 27.16V37.24C503.419 37.7333 503.559 38.1 503.839 38.34C504.119 38.58 504.479 38.7 504.919 38.7C505.306 38.7 505.639 38.6333 505.919 38.5C506.199 38.3667 506.453 38.1867 506.679 37.96L507.239 39.3C506.933 39.58 506.566 39.8 506.139 39.96C505.726 40.12 505.246 40.2 504.699 40.2C504.193 40.2 503.719 40.1133 503.279 39.94C502.839 39.7533 502.486 39.4667 502.219 39.08C501.966 38.68 501.833 38.16 501.819 37.52V27.6L503.419 27.16ZM507.059 30V31.38H499.819V30H507.059ZM513.618 40.2C512.671 40.2 511.825 39.9933 511.078 39.58C510.345 39.1667 509.771 38.5733 509.358 37.8C508.945 37.0133 508.738 36.08 508.738 35C508.738 33.92 508.945 32.9933 509.358 32.22C509.771 31.4333 510.338 30.8333 511.058 30.42C511.778 30.0067 512.598 29.8 513.518 29.8C514.451 29.8 515.245 30 515.898 30.4C516.565 30.8 517.071 31.3467 517.418 32.04C517.765 32.72 517.938 33.4867 517.938 34.34C517.938 34.5667 517.931 34.7733 517.918 34.96C517.905 35.1467 517.885 35.3133 517.858 35.46H509.778V34.04H517.158L516.338 34.2C516.338 33.24 516.071 32.5 515.538 31.98C515.018 31.46 514.331 31.2 513.478 31.2C512.825 31.2 512.258 31.3533 511.778 31.66C511.311 31.9533 510.945 32.3867 510.678 32.96C510.425 33.52 510.298 34.2 510.298 35C510.298 35.7867 510.431 36.4667 510.698 37.04C510.965 37.6133 511.338 38.0533 511.818 38.36C512.311 38.6533 512.898 38.8 513.578 38.8C514.311 38.8 514.905 38.66 515.358 38.38C515.825 38.1 516.198 37.72 516.478 37.24L517.738 37.98C517.485 38.4333 517.158 38.8267 516.758 39.16C516.371 39.4933 515.911 39.7533 515.378 39.94C514.858 40.1133 514.271 40.2 513.618 40.2ZM5.76 66.2C4.93333 66.2 4.17333 65.9933 3.48 65.58C2.78667 65.1667 2.23333 64.5733 1.82 63.8C1.40667 63.0133 1.2 62.08 1.2 61C1.2 59.8933 1.42 58.9533 1.86 58.18C2.3 57.4067 2.88 56.82 3.6 56.42C4.32 56.0067 5.09333 55.8 5.92 55.8C6.74667 55.8 7.46 56.0133 8.06 56.44C8.67333 56.8667 9.08 57.4333 9.28 58.14L9.08 58.28V51.4H10.68V66H9.28L9.14 63.58L9.36 63.46C9.26667 64.0467 9.04 64.5467 8.68 64.96C8.33333 65.36 7.9 65.6667 7.38 65.88C6.87333 66.0933 6.33333 66.2 5.76 66.2ZM5.92 64.8C6.56 64.8 7.11333 64.64 7.58 64.32C8.06 64 8.42667 63.5467 8.68 62.96C8.94667 62.36 9.08 61.66 9.08 60.86C9.08 60.1 8.94667 59.4467 8.68 58.9C8.42667 58.3533 8.06667 57.9333 7.6 57.64C7.14667 57.3467 6.61333 57.2 6 57.2C4.98667 57.2 4.2 57.5467 3.64 58.24C3.08 58.9333 2.8 59.8533 2.8 61C2.8 62.1467 3.07333 63.0667 3.62 63.76C4.16667 64.4533 4.93333 64.8 5.92 64.8ZM15.1991 54.08C14.8391 54.08 14.5457 53.9733 14.3191 53.76C14.1057 53.5333 13.9991 53.24 13.9991 52.88C13.9991 52.52 14.1057 52.2333 14.3191 52.02C14.5457 51.7933 14.8391 51.68 15.1991 51.68C15.5591 51.68 15.8457 51.7933 16.0591 52.02C16.2857 52.2333 16.3991 52.52 16.3991 52.88C16.3991 53.24 16.2857 53.5333 16.0591 53.76C15.8457 53.9733 15.5591 54.08 15.1991 54.08ZM15.9991 56V66H14.3991V56H15.9991ZM19.7116 66V56H21.0116L21.2316 57.64C21.5116 57.0267 21.9182 56.5667 22.4516 56.26C22.9982 55.9533 23.6582 55.8 24.4316 55.8C24.6049 55.8 24.7916 55.8133 24.9916 55.84C25.2049 55.8667 25.3849 55.92 25.5316 56L25.2516 57.46C25.1049 57.4067 24.9449 57.3667 24.7716 57.34C24.5982 57.3133 24.3516 57.3 24.0316 57.3C23.6182 57.3 23.1982 57.42 22.7716 57.66C22.3582 57.9 22.0116 58.2667 21.7316 58.76C21.4516 59.24 21.3116 59.8533 21.3116 60.6V66H19.7116ZM31.7431 66.2C30.7965 66.2 29.9498 65.9933 29.2031 65.58C28.4698 65.1667 27.8965 64.5733 27.4831 63.8C27.0698 63.0133 26.8631 62.08 26.8631 61C26.8631 59.92 27.0698 58.9933 27.4831 58.22C27.8965 57.4333 28.4631 56.8333 29.1831 56.42C29.9031 56.0067 30.7231 55.8 31.6431 55.8C32.5765 55.8 33.3698 56 34.0231 56.4C34.6898 56.8 35.1965 57.3467 35.5431 58.04C35.8898 58.72 36.0631 59.4867 36.0631 60.34C36.0631 60.5667 36.0565 60.7733 36.0431 60.96C36.0298 61.1467 36.0098 61.3133 35.9831 61.46H27.9031V60.04H35.2831L34.4631 60.2C34.4631 59.24 34.1965 58.5 33.6631 57.98C33.1431 57.46 32.4565 57.2 31.6031 57.2C30.9498 57.2 30.3831 57.3533 29.9031 57.66C29.4365 57.9533 29.0698 58.3867 28.8031 58.96C28.5498 59.52 28.4231 60.2 28.4231 61C28.4231 61.7867 28.5565 62.4667 28.8231 63.04C29.0898 63.6133 29.4631 64.0533 29.9431 64.36C30.4365 64.6533 31.0231 64.8 31.7031 64.8C32.4365 64.8 33.0298 64.66 33.4831 64.38C33.9498 64.1 34.3231 63.72 34.6031 63.24L35.8631 63.98C35.6098 64.4333 35.2831 64.8267 34.8831 65.16C34.4965 65.4933 34.0365 65.7533 33.5031 65.94C32.9831 66.1133 32.3965 66.2 31.7431 66.2ZM43.2461 55.8C43.9394 55.8 44.5461 55.9067 45.0661 56.12C45.5994 56.3333 46.0594 56.64 46.4461 57.04C46.8328 57.44 47.1461 57.9133 47.3861 58.46L45.8661 59.18C45.6528 58.54 45.3261 58.0533 44.8861 57.72C44.4594 57.3733 43.8994 57.2 43.2061 57.2C42.5394 57.2 41.9661 57.3533 41.4861 57.66C41.0061 57.9533 40.6394 58.3867 40.3861 58.96C40.1328 59.52 40.0061 60.2 40.0061 61C40.0061 61.7867 40.1328 62.4667 40.3861 63.04C40.6394 63.6133 41.0061 64.0533 41.4861 64.36C41.9661 64.6533 42.5394 64.8 43.2061 64.8C43.7261 64.8 44.1728 64.72 44.5461 64.56C44.9328 64.4 45.2461 64.1667 45.4861 63.86C45.7394 63.5533 45.9128 63.18 46.0061 62.74L47.4861 63.26C47.2594 63.8733 46.9461 64.4 46.5461 64.84C46.1594 65.28 45.6861 65.62 45.1261 65.86C44.5794 66.0867 43.9528 66.2 43.2461 66.2C42.3128 66.2 41.4794 65.9933 40.7461 65.58C40.0128 65.1667 39.4394 64.5733 39.0261 63.8C38.6128 63.0133 38.4061 62.08 38.4061 61C38.4061 59.92 38.6128 58.9933 39.0261 58.22C39.4394 57.4333 40.0128 56.8333 40.7461 56.42C41.4794 56.0067 42.3128 55.8 43.2461 55.8ZM52.6575 53.16V63.24C52.6575 63.7333 52.7975 64.1 53.0775 64.34C53.3575 64.58 53.7175 64.7 54.1575 64.7C54.5442 64.7 54.8775 64.6333 55.1575 64.5C55.4375 64.3667 55.6908 64.1867 55.9175 63.96L56.4775 65.3C56.1708 65.58 55.8042 65.8 55.3775 65.96C54.9642 66.12 54.4842 66.2 53.9375 66.2C53.4308 66.2 52.9575 66.1133 52.5175 65.94C52.0775 65.7533 51.7242 65.4667 51.4575 65.08C51.2042 64.68 51.0708 64.16 51.0575 63.52V53.6L52.6575 53.16ZM56.2975 56V57.38H49.0575V56H56.2975ZM59.4764 54.08C59.1164 54.08 58.8231 53.9733 58.5964 53.76C58.3831 53.5333 58.2764 53.24 58.2764 52.88C58.2764 52.52 58.3831 52.2333 58.5964 52.02C58.8231 51.7933 59.1164 51.68 59.4764 51.68C59.8364 51.68 60.1231 51.7933 60.3364 52.02C60.5631 52.2333 60.6764 52.52 60.6764 52.88C60.6764 53.24 60.5631 53.5333 60.3364 53.76C60.1231 53.9733 59.8364 54.08 59.4764 54.08ZM60.2764 56V66H58.6764V56H60.2764ZM68.1289 55.8C69.0756 55.8 69.9089 56.0067 70.6289 56.42C71.3622 56.8333 71.9356 57.4333 72.3489 58.22C72.7622 58.9933 72.9689 59.92 72.9689 61C72.9689 62.08 72.7622 63.0133 72.3489 63.8C71.9356 64.5733 71.3622 65.1667 70.6289 65.58C69.9089 65.9933 69.0756 66.2 68.1289 66.2C67.1956 66.2 66.3622 65.9933 65.6289 65.58C64.8956 65.1667 64.3222 64.5733 63.9089 63.8C63.4956 63.0133 63.2889 62.08 63.2889 61C63.2889 59.92 63.4956 58.9933 63.9089 58.22C64.3222 57.4333 64.8956 56.8333 65.6289 56.42C66.3622 56.0067 67.1956 55.8 68.1289 55.8ZM68.1289 57.18C67.4489 57.18 66.8689 57.3333 66.3889 57.64C65.9089 57.9467 65.5356 58.3867 65.2689 58.96C65.0156 59.52 64.8889 60.2 64.8889 61C64.8889 61.7867 65.0156 62.4667 65.2689 63.04C65.5356 63.6133 65.9089 64.0533 66.3889 64.36C66.8689 64.6667 67.4489 64.82 68.1289 64.82C68.8089 64.82 69.3889 64.6667 69.8689 64.36C70.3489 64.0533 70.7156 63.6133 70.9689 63.04C71.2356 62.4667 71.3689 61.7867 71.3689 61C71.3689 60.2 71.2356 59.52 70.9689 58.96C70.7156 58.3867 70.3489 57.9467 69.8689 57.64C69.3889 57.3333 68.8089 57.18 68.1289 57.18ZM75.9811 66V56H77.3811L77.5211 58.24L77.2611 58.02C77.4744 57.4867 77.7611 57.06 78.1211 56.74C78.4811 56.4067 78.8944 56.1667 79.3611 56.02C79.8411 55.8733 80.3344 55.8 80.8411 55.8C81.5611 55.8 82.2144 55.94 82.8011 56.22C83.3878 56.4867 83.8544 56.9 84.2011 57.46C84.5611 58.02 84.7411 58.7333 84.7411 59.6V66H83.1411V60.16C83.1411 59.0533 82.9011 58.2867 82.4211 57.86C81.9544 57.42 81.3744 57.2 80.6811 57.2C80.2011 57.2 79.7211 57.3133 79.2411 57.54C78.7611 57.7667 78.3611 58.1333 78.0411 58.64C77.7344 59.1467 77.5811 59.8267 77.5811 60.68V66H75.9811ZM91.9639 66.2C90.9906 66.2 90.0906 65.9933 89.2639 65.58C88.4506 65.1667 87.8239 64.58 87.3839 63.82L88.7439 62.84C89.0372 63.4533 89.4639 63.9333 90.0239 64.28C90.5972 64.6267 91.2839 64.8 92.0839 64.8C92.7906 64.8 93.3439 64.6667 93.7439 64.4C94.1439 64.12 94.3439 63.76 94.3439 63.32C94.3439 63.04 94.2506 62.7867 94.0639 62.56C93.8906 62.32 93.5506 62.1467 93.0439 62.04L90.6439 61.54C89.6706 61.34 88.9706 61.0067 88.5439 60.54C88.1306 60.0733 87.9239 59.4933 87.9239 58.8C87.9239 58.2533 88.0772 57.7533 88.3839 57.3C88.7039 56.8467 89.1506 56.4867 89.7239 56.22C90.3106 55.94 90.9972 55.8 91.7839 55.8C92.7706 55.8 93.6039 55.9933 94.2839 56.38C94.9639 56.7667 95.4706 57.3133 95.8039 58.02L94.4639 58.9C94.2372 58.3133 93.8706 57.8867 93.3639 57.62C92.8572 57.34 92.3306 57.2 91.7839 57.2C91.3039 57.2 90.8906 57.2667 90.5439 57.4C90.2106 57.5333 89.9506 57.72 89.7639 57.96C89.5906 58.1867 89.5039 58.4467 89.5039 58.74C89.5039 59.0333 89.6039 59.3067 89.8039 59.56C90.0039 59.8 90.3772 59.9733 90.9239 60.08L93.4239 60.6C94.3572 60.7867 95.0106 61.0933 95.3839 61.52C95.7572 61.9467 95.9439 62.4667 95.9439 63.08C95.9439 63.7067 95.7772 64.26 95.4439 64.74C95.1106 65.2067 94.6439 65.5667 94.0439 65.82C93.4439 66.0733 92.7506 66.2 91.9639 66.2ZM99.7108 63.6C100.031 63.6 100.297 63.6867 100.511 63.86C100.737 64.02 100.911 64.2467 101.031 64.54C101.151 64.82 101.211 65.1533 101.211 65.54C101.211 65.98 101.131 66.4133 100.971 66.84C100.824 67.2667 100.591 67.66 100.271 68.02C99.9508 68.38 99.5374 68.68 99.0308 68.92L98.1908 68.14C98.5508 68.02 98.8641 67.8533 99.1308 67.64C99.4108 67.4267 99.6374 67.1867 99.8108 66.92C99.9841 66.6533 100.097 66.38 100.151 66.1L100.071 66.06C100.017 66.1 99.9508 66.1333 99.8708 66.16C99.7908 66.1867 99.6708 66.2 99.5108 66.2C99.3508 66.2 99.1841 66.1533 99.0108 66.06C98.8508 65.9667 98.7108 65.8333 98.5908 65.66C98.4708 65.4733 98.4108 65.2333 98.4108 64.94C98.4108 64.7 98.4708 64.48 98.5908 64.28C98.7108 64.0667 98.8641 63.9 99.0508 63.78C99.2508 63.66 99.4708 63.6 99.7108 63.6ZM116.88 59.54C116.88 58.7933 116.68 58.22 116.28 57.82C115.88 57.4067 115.313 57.2 114.58 57.2C113.886 57.2 113.3 57.3533 112.82 57.66C112.34 57.9533 111.986 58.4333 111.76 59.1L110.46 58.3C110.726 57.5533 111.22 56.9533 111.94 56.5C112.66 56.0333 113.553 55.8 114.62 55.8C115.34 55.8 115.993 55.9267 116.58 56.18C117.166 56.42 117.626 56.7933 117.96 57.3C118.306 57.7933 118.48 58.4333 118.48 59.22V64.06C118.48 64.54 118.733 64.78 119.24 64.78C119.493 64.78 119.74 64.7467 119.98 64.68L119.9 65.94C119.633 66.0733 119.286 66.14 118.86 66.14C118.473 66.14 118.126 66.0667 117.82 65.92C117.513 65.7733 117.273 65.5533 117.1 65.26C116.926 64.9533 116.84 64.5733 116.84 64.12V63.92L117.24 63.98C117.08 64.5 116.806 64.9267 116.42 65.26C116.033 65.58 115.6 65.82 115.12 65.98C114.64 66.1267 114.166 66.2 113.7 66.2C113.113 66.2 112.566 66.1 112.06 65.9C111.553 65.7 111.146 65.4 110.84 65C110.546 64.5867 110.4 64.08 110.4 63.48C110.4 62.7333 110.646 62.12 111.14 61.64C111.646 61.1467 112.346 60.8133 113.24 60.64L117.2 59.86V61.18L113.98 61.84C113.326 61.9733 112.84 62.16 112.52 62.4C112.2 62.64 112.04 62.9733 112.04 63.4C112.04 63.8133 112.2 64.1533 112.52 64.42C112.853 64.6733 113.32 64.8 113.92 64.8C114.306 64.8 114.673 64.7533 115.02 64.66C115.38 64.5533 115.7 64.4 115.98 64.2C116.26 63.9867 116.48 63.7267 116.64 63.42C116.8 63.1 116.88 62.7267 116.88 62.3V59.54ZM128.715 66V56H130.115L130.255 58.24L129.995 58.02C130.209 57.4867 130.495 57.06 130.855 56.74C131.215 56.4067 131.629 56.1667 132.095 56.02C132.575 55.8733 133.069 55.8 133.575 55.8C134.295 55.8 134.949 55.94 135.535 56.22C136.122 56.4867 136.589 56.9 136.935 57.46C137.295 58.02 137.475 58.7333 137.475 59.6V66H135.875V60.16C135.875 59.0533 135.635 58.2867 135.155 57.86C134.689 57.42 134.109 57.2 133.415 57.2C132.935 57.2 132.455 57.3133 131.975 57.54C131.495 57.7667 131.095 58.1333 130.775 58.64C130.469 59.1467 130.315 59.8267 130.315 60.68V66H128.715ZM145.238 55.8C146.185 55.8 147.018 56.0067 147.738 56.42C148.472 56.8333 149.045 57.4333 149.458 58.22C149.872 58.9933 150.078 59.92 150.078 61C150.078 62.08 149.872 63.0133 149.458 63.8C149.045 64.5733 148.472 65.1667 147.738 65.58C147.018 65.9933 146.185 66.2 145.238 66.2C144.305 66.2 143.472 65.9933 142.738 65.58C142.005 65.1667 141.432 64.5733 141.018 63.8C140.605 63.0133 140.398 62.08 140.398 61C140.398 59.92 140.605 58.9933 141.018 58.22C141.432 57.4333 142.005 56.8333 142.738 56.42C143.472 56.0067 144.305 55.8 145.238 55.8ZM145.238 57.18C144.558 57.18 143.978 57.3333 143.498 57.64C143.018 57.9467 142.645 58.3867 142.378 58.96C142.125 59.52 141.998 60.2 141.998 61C141.998 61.7867 142.125 62.4667 142.378 63.04C142.645 63.6133 143.018 64.0533 143.498 64.36C143.978 64.6667 144.558 64.82 145.238 64.82C145.918 64.82 146.498 64.6667 146.978 64.36C147.458 64.0533 147.825 63.6133 148.078 63.04C148.345 62.4667 148.478 61.7867 148.478 61C148.478 60.2 148.345 59.52 148.078 58.96C147.825 58.3867 147.458 57.9467 146.978 57.64C146.498 57.3333 145.918 57.18 145.238 57.18ZM156.99 66.2C156.164 66.2 155.404 65.9933 154.71 65.58C154.017 65.1667 153.464 64.5733 153.05 63.8C152.637 63.0133 152.43 62.08 152.43 61C152.43 59.8933 152.65 58.9533 153.09 58.18C153.53 57.4067 154.11 56.82 154.83 56.42C155.55 56.0067 156.324 55.8 157.15 55.8C157.977 55.8 158.69 56.0133 159.29 56.44C159.904 56.8667 160.31 57.4333 160.51 58.14L160.31 58.28V51.4H161.91V66H160.51L160.37 63.58L160.59 63.46C160.497 64.0467 160.27 64.5467 159.91 64.96C159.564 65.36 159.13 65.6667 158.61 65.88C158.104 66.0933 157.564 66.2 156.99 66.2ZM157.15 64.8C157.79 64.8 158.344 64.64 158.81 64.32C159.29 64 159.657 63.5467 159.91 62.96C160.177 62.36 160.31 61.66 160.31 60.86C160.31 60.1 160.177 59.4467 159.91 58.9C159.657 58.3533 159.297 57.9333 158.83 57.64C158.377 57.3467 157.844 57.2 157.23 57.2C156.217 57.2 155.43 57.5467 154.87 58.24C154.31 58.9333 154.03 59.8533 154.03 61C154.03 62.1467 154.304 63.0667 154.85 63.76C155.397 64.4533 156.164 64.8 157.15 64.8ZM174.415 53.16V63.24C174.415 63.7333 174.555 64.1 174.835 64.34C175.115 64.58 175.475 64.7 175.915 64.7C176.302 64.7 176.635 64.6333 176.915 64.5C177.195 64.3667 177.449 64.1867 177.675 63.96L178.235 65.3C177.929 65.58 177.562 65.8 177.135 65.96C176.722 66.12 176.242 66.2 175.695 66.2C175.189 66.2 174.715 66.1133 174.275 65.94C173.835 65.7533 173.482 65.4667 173.215 65.08C172.962 64.68 172.829 64.16 172.815 63.52V53.6L174.415 53.16ZM178.055 56V57.38H170.815V56H178.055ZM184.574 55.8C185.521 55.8 186.354 56.0067 187.074 56.42C187.808 56.8333 188.381 57.4333 188.794 58.22C189.208 58.9933 189.414 59.92 189.414 61C189.414 62.08 189.208 63.0133 188.794 63.8C188.381 64.5733 187.808 65.1667 187.074 65.58C186.354 65.9933 185.521 66.2 184.574 66.2C183.641 66.2 182.808 65.9933 182.074 65.58C181.341 65.1667 180.768 64.5733 180.354 63.8C179.941 63.0133 179.734 62.08 179.734 61C179.734 59.92 179.941 58.9933 180.354 58.22C180.768 57.4333 181.341 56.8333 182.074 56.42C182.808 56.0067 183.641 55.8 184.574 55.8ZM184.574 57.18C183.894 57.18 183.314 57.3333 182.834 57.64C182.354 57.9467 181.981 58.3867 181.714 58.96C181.461 59.52 181.334 60.2 181.334 61C181.334 61.7867 181.461 62.4667 181.714 63.04C181.981 63.6133 182.354 64.0533 182.834 64.36C183.314 64.6667 183.894 64.82 184.574 64.82C185.254 64.82 185.834 64.6667 186.314 64.36C186.794 64.0533 187.161 63.6133 187.414 63.04C187.681 62.4667 187.814 61.7867 187.814 61C187.814 60.2 187.681 59.52 187.414 58.96C187.161 58.3867 186.794 57.9467 186.314 57.64C185.834 57.3333 185.254 57.18 184.574 57.18ZM201.212 53.16V63.24C201.212 63.7333 201.352 64.1 201.632 64.34C201.912 64.58 202.272 64.7 202.712 64.7C203.099 64.7 203.432 64.6333 203.712 64.5C203.992 64.3667 204.246 64.1867 204.472 63.96L205.032 65.3C204.726 65.58 204.359 65.8 203.932 65.96C203.519 66.12 203.039 66.2 202.492 66.2C201.986 66.2 201.512 66.1133 201.072 65.94C200.632 65.7533 200.279 65.4667 200.012 65.08C199.759 64.68 199.626 64.16 199.612 63.52V53.6L201.212 53.16ZM204.852 56V57.38H197.612V56H204.852ZM207.231 66V51.4H208.831V57.5C209.178 56.9 209.638 56.4667 210.211 56.2C210.784 55.9333 211.411 55.8 212.091 55.8C212.811 55.8 213.464 55.94 214.051 56.22C214.638 56.4867 215.104 56.9 215.451 57.46C215.811 58.02 215.991 58.7333 215.991 59.6V66H214.391V60.16C214.391 59.0533 214.151 58.2867 213.671 57.86C213.204 57.42 212.624 57.2 211.931 57.2C211.451 57.2 210.971 57.3133 210.491 57.54C210.011 57.7667 209.611 58.14 209.291 58.66C208.984 59.1667 208.831 59.8467 208.831 60.7V66H207.231ZM223.794 66.2C222.847 66.2 222.001 65.9933 221.254 65.58C220.521 65.1667 219.947 64.5733 219.534 63.8C219.121 63.0133 218.914 62.08 218.914 61C218.914 59.92 219.121 58.9933 219.534 58.22C219.947 57.4333 220.514 56.8333 221.234 56.42C221.954 56.0067 222.774 55.8 223.694 55.8C224.627 55.8 225.421 56 226.074 56.4C226.741 56.8 227.247 57.3467 227.594 58.04C227.941 58.72 228.114 59.4867 228.114 60.34C228.114 60.5667 228.107 60.7733 228.094 60.96C228.081 61.1467 228.061 61.3133 228.034 61.46H219.954V60.04H227.334L226.514 60.2C226.514 59.24 226.247 58.5 225.714 57.98C225.194 57.46 224.507 57.2 223.654 57.2C223.001 57.2 222.434 57.3533 221.954 57.66C221.487 57.9533 221.121 58.3867 220.854 58.96C220.601 59.52 220.474 60.2 220.474 61C220.474 61.7867 220.607 62.4667 220.874 63.04C221.141 63.6133 221.514 64.0533 221.994 64.36C222.487 64.6533 223.074 64.8 223.754 64.8C224.487 64.8 225.081 64.66 225.534 64.38C226.001 64.1 226.374 63.72 226.654 63.24L227.914 63.98C227.661 64.4333 227.334 64.8267 226.934 65.16C226.547 65.4933 226.087 65.7533 225.554 65.94C225.034 66.1133 224.447 66.2 223.794 66.2ZM241.662 51.3C242.009 51.3 242.336 51.34 242.642 51.42C242.949 51.5 243.189 51.6133 243.362 51.76L242.942 53.06C242.782 52.9533 242.609 52.88 242.422 52.84C242.236 52.7867 242.029 52.76 241.802 52.76C241.229 52.76 240.782 52.9 240.462 53.18C240.142 53.4467 239.982 53.88 239.982 54.48V56V56.52V66H238.382V54.32C238.382 53.88 238.449 53.4733 238.582 53.1C238.716 52.7267 238.916 52.4067 239.182 52.14C239.462 51.8733 239.809 51.6667 240.222 51.52C240.636 51.3733 241.116 51.3 241.662 51.3ZM243.322 56V57.38H236.382V56H243.322ZM246.262 54.08C245.902 54.08 245.609 53.9733 245.382 53.76C245.169 53.5333 245.062 53.24 245.062 52.88C245.062 52.52 245.169 52.2333 245.382 52.02C245.609 51.7933 245.902 51.68 246.262 51.68C246.622 51.68 246.909 51.7933 247.122 52.02C247.349 52.2333 247.462 52.52 247.462 52.88C247.462 53.24 247.349 53.5333 247.122 53.76C246.909 53.9733 246.622 54.08 246.262 54.08ZM247.062 56V66H245.462V56H247.062ZM252.306 51.4V63.46C252.306 63.9667 252.399 64.32 252.586 64.52C252.772 64.7067 253.072 64.8 253.486 64.8C253.752 64.8 253.972 64.78 254.146 64.74C254.319 64.7 254.552 64.6267 254.846 64.52L254.586 65.92C254.372 66.0133 254.139 66.08 253.886 66.12C253.632 66.1733 253.372 66.2 253.106 66.2C252.292 66.2 251.686 65.98 251.286 65.54C250.899 65.1 250.706 64.4267 250.706 63.52V51.4H252.306ZM256.899 66V56H258.299L258.399 57.56C258.759 56.9467 259.226 56.5 259.799 56.22C260.386 55.94 260.986 55.8 261.599 55.8C262.306 55.8 262.972 55.96 263.599 56.28C264.226 56.6 264.706 57.0933 265.039 57.76C265.252 57.3067 265.552 56.94 265.939 56.66C266.326 56.3667 266.746 56.1533 267.199 56.02C267.666 55.8733 268.106 55.8 268.519 55.8C269.159 55.8 269.766 55.9333 270.339 56.2C270.926 56.4667 271.406 56.88 271.779 57.44C272.152 58 272.339 58.72 272.339 59.6V66H270.739V59.76C270.739 58.8533 270.512 58.2 270.059 57.8C269.606 57.4 269.046 57.2 268.379 57.2C267.859 57.2 267.372 57.3267 266.919 57.58C266.466 57.8333 266.099 58.2067 265.819 58.7C265.552 59.1933 265.419 59.8 265.419 60.52V66H263.819V59.76C263.819 58.8533 263.592 58.2 263.139 57.8C262.686 57.4 262.126 57.2 261.459 57.2C261.019 57.2 260.566 57.32 260.099 57.56C259.646 57.7867 259.266 58.1533 258.959 58.66C258.652 59.1667 258.499 59.8333 258.499 60.66V66H256.899ZM275.725 52C276.045 52 276.312 52.0867 276.525 52.26C276.752 52.42 276.925 52.6467 277.045 52.94C277.165 53.22 277.225 53.5533 277.225 53.94C277.225 54.38 277.145 54.8133 276.985 55.24C276.839 55.6667 276.605 56.06 276.285 56.42C275.965 56.78 275.552 57.08 275.045 57.32L274.205 56.54C274.565 56.42 274.879 56.2533 275.145 56.04C275.425 55.8267 275.652 55.5867 275.825 55.32C275.999 55.0533 276.112 54.78 276.165 54.5L276.085 54.46C276.032 54.5 275.965 54.5333 275.885 54.56C275.805 54.5867 275.685 54.6 275.525 54.6C275.365 54.6 275.199 54.5533 275.025 54.46C274.865 54.3667 274.725 54.2333 274.605 54.06C274.485 53.8733 274.425 53.6333 274.425 53.34C274.425 53.1 274.485 52.88 274.605 52.68C274.725 52.4667 274.879 52.3 275.065 52.18C275.265 52.06 275.485 52 275.725 52ZM282.726 66.2C281.752 66.2 280.852 65.9933 280.026 65.58C279.212 65.1667 278.586 64.58 278.146 63.82L279.506 62.84C279.799 63.4533 280.226 63.9333 280.786 64.28C281.359 64.6267 282.046 64.8 282.846 64.8C283.552 64.8 284.106 64.6667 284.506 64.4C284.906 64.12 285.106 63.76 285.106 63.32C285.106 63.04 285.012 62.7867 284.826 62.56C284.652 62.32 284.312 62.1467 283.806 62.04L281.406 61.54C280.432 61.34 279.732 61.0067 279.306 60.54C278.892 60.0733 278.686 59.4933 278.686 58.8C278.686 58.2533 278.839 57.7533 279.146 57.3C279.466 56.8467 279.912 56.4867 280.486 56.22C281.072 55.94 281.759 55.8 282.546 55.8C283.532 55.8 284.366 55.9933 285.046 56.38C285.726 56.7667 286.232 57.3133 286.566 58.02L285.226 58.9C284.999 58.3133 284.632 57.8867 284.126 57.62C283.619 57.34 283.092 57.2 282.546 57.2C282.066 57.2 281.652 57.2667 281.306 57.4C280.972 57.5333 280.712 57.72 280.526 57.96C280.352 58.1867 280.266 58.4467 280.266 58.74C280.266 59.0333 280.366 59.3067 280.566 59.56C280.766 59.8 281.139 59.9733 281.686 60.08L284.186 60.6C285.119 60.7867 285.772 61.0933 286.146 61.52C286.519 61.9467 286.706 62.4667 286.706 63.08C286.706 63.7067 286.539 64.26 286.206 64.74C285.872 65.2067 285.406 65.5667 284.806 65.82C284.206 66.0733 283.512 66.2 282.726 66.2ZM298.458 53.16V63.24C298.458 63.7333 298.598 64.1 298.878 64.34C299.158 64.58 299.518 64.7 299.958 64.7C300.345 64.7 300.678 64.6333 300.958 64.5C301.238 64.3667 301.492 64.1867 301.718 63.96L302.278 65.3C301.972 65.58 301.605 65.8 301.178 65.96C300.765 66.12 300.285 66.2 299.738 66.2C299.232 66.2 298.758 66.1133 298.318 65.94C297.878 65.7533 297.525 65.4667 297.258 65.08C297.005 64.68 296.872 64.16 296.858 63.52V53.6L298.458 53.16ZM302.098 56V57.38H294.858V56H302.098ZM304.477 66V51.4H306.077V57.5C306.424 56.9 306.884 56.4667 307.457 56.2C308.031 55.9333 308.657 55.8 309.337 55.8C310.057 55.8 310.711 55.94 311.297 56.22C311.884 56.4867 312.351 56.9 312.697 57.46C313.057 58.02 313.237 58.7333 313.237 59.6V66H311.637V60.16C311.637 59.0533 311.397 58.2867 310.917 57.86C310.451 57.42 309.871 57.2 309.177 57.2C308.697 57.2 308.217 57.3133 307.737 57.54C307.257 57.7667 306.857 58.14 306.537 58.66C306.231 59.1667 306.077 59.8467 306.077 60.7V66H304.477ZM321.04 66.2C320.093 66.2 319.247 65.9933 318.5 65.58C317.767 65.1667 317.193 64.5733 316.78 63.8C316.367 63.0133 316.16 62.08 316.16 61C316.16 59.92 316.367 58.9933 316.78 58.22C317.193 57.4333 317.76 56.8333 318.48 56.42C319.2 56.0067 320.02 55.8 320.94 55.8C321.873 55.8 322.667 56 323.32 56.4C323.987 56.8 324.493 57.3467 324.84 58.04C325.187 58.72 325.36 59.4867 325.36 60.34C325.36 60.5667 325.353 60.7733 325.34 60.96C325.327 61.1467 325.307 61.3133 325.28 61.46H317.2V60.04H324.58L323.76 60.2C323.76 59.24 323.493 58.5 322.96 57.98C322.44 57.46 321.753 57.2 320.9 57.2C320.247 57.2 319.68 57.3533 319.2 57.66C318.733 57.9533 318.367 58.3867 318.1 58.96C317.847 59.52 317.72 60.2 317.72 61C317.72 61.7867 317.853 62.4667 318.12 63.04C318.387 63.6133 318.76 64.0533 319.24 64.36C319.733 64.6533 320.32 64.8 321 64.8C321.733 64.8 322.327 64.66 322.78 64.38C323.247 64.1 323.62 63.72 323.9 63.24L325.16 63.98C324.907 64.4333 324.58 64.8267 324.18 65.16C323.793 65.4933 323.333 65.7533 322.8 65.94C322.28 66.1133 321.693 66.2 321.04 66.2ZM328.403 66V56H329.803L329.903 57.56C330.263 56.9467 330.73 56.5 331.303 56.22C331.89 55.94 332.49 55.8 333.103 55.8C333.81 55.8 334.476 55.96 335.103 56.28C335.73 56.6 336.21 57.0933 336.543 57.76C336.756 57.3067 337.056 56.94 337.443 56.66C337.83 56.3667 338.25 56.1533 338.703 56.02C339.17 55.8733 339.61 55.8 340.023 55.8C340.663 55.8 341.27 55.9333 341.843 56.2C342.43 56.4667 342.91 56.88 343.283 57.44C343.656 58 343.843 58.72 343.843 59.6V66H342.243V59.76C342.243 58.8533 342.016 58.2 341.563 57.8C341.11 57.4 340.55 57.2 339.883 57.2C339.363 57.2 338.876 57.3267 338.423 57.58C337.97 57.8333 337.603 58.2067 337.323 58.7C337.056 59.1933 336.923 59.8 336.923 60.52V66H335.323V59.76C335.323 58.8533 335.096 58.2 334.643 57.8C334.19 57.4 333.63 57.2 332.963 57.2C332.523 57.2 332.07 57.32 331.603 57.56C331.15 57.7867 330.77 58.1533 330.463 58.66C330.156 59.1667 330.003 59.8333 330.003 60.66V66H328.403ZM351.645 66.2C350.699 66.2 349.852 65.9933 349.105 65.58C348.372 65.1667 347.799 64.5733 347.385 63.8C346.972 63.0133 346.765 62.08 346.765 61C346.765 59.92 346.972 58.9933 347.385 58.22C347.799 57.4333 348.365 56.8333 349.085 56.42C349.805 56.0067 350.625 55.8 351.545 55.8C352.479 55.8 353.272 56 353.925 56.4C354.592 56.8 355.099 57.3467 355.445 58.04C355.792 58.72 355.965 59.4867 355.965 60.34C355.965 60.5667 355.959 60.7733 355.945 60.96C355.932 61.1467 355.912 61.3133 355.885 61.46H347.805V60.04H355.185L354.365 60.2C354.365 59.24 354.099 58.5 353.565 57.98C353.045 57.46 352.359 57.2 351.505 57.2C350.852 57.2 350.285 57.3533 349.805 57.66C349.339 57.9533 348.972 58.3867 348.705 58.96C348.452 59.52 348.325 60.2 348.325 61C348.325 61.7867 348.459 62.4667 348.725 63.04C348.992 63.6133 349.365 64.0533 349.845 64.36C350.339 64.6533 350.925 64.8 351.605 64.8C352.339 64.8 352.932 64.66 353.385 64.38C353.852 64.1 354.225 63.72 354.505 63.24L355.765 63.98C355.512 64.4333 355.185 64.8267 354.785 65.16C354.399 65.4933 353.939 65.7533 353.405 65.94C352.885 66.1133 352.299 66.2 351.645 66.2ZM369.965 55.8C370.912 55.8 371.745 56.0067 372.465 56.42C373.198 56.8333 373.772 57.4333 374.185 58.22C374.598 58.9933 374.805 59.92 374.805 61C374.805 62.08 374.598 63.0133 374.185 63.8C373.772 64.5733 373.198 65.1667 372.465 65.58C371.745 65.9933 370.912 66.2 369.965 66.2C369.032 66.2 368.198 65.9933 367.465 65.58C366.732 65.1667 366.158 64.5733 365.745 63.8C365.332 63.0133 365.125 62.08 365.125 61C365.125 59.92 365.332 58.9933 365.745 58.22C366.158 57.4333 366.732 56.8333 367.465 56.42C368.198 56.0067 369.032 55.8 369.965 55.8ZM369.965 57.18C369.285 57.18 368.705 57.3333 368.225 57.64C367.745 57.9467 367.372 58.3867 367.105 58.96C366.852 59.52 366.725 60.2 366.725 61C366.725 61.7867 366.852 62.4667 367.105 63.04C367.372 63.6133 367.745 64.0533 368.225 64.36C368.705 64.6667 369.285 64.82 369.965 64.82C370.645 64.82 371.225 64.6667 371.705 64.36C372.185 64.0533 372.552 63.6133 372.805 63.04C373.072 62.4667 373.205 61.7867 373.205 61C373.205 60.2 373.072 59.52 372.805 58.96C372.552 58.3867 372.185 57.9467 371.705 57.64C371.225 57.3333 370.645 57.18 369.965 57.18ZM381.701 51.3C382.048 51.3 382.375 51.34 382.681 51.42C382.988 51.5 383.228 51.6133 383.401 51.76L382.981 53.06C382.821 52.9533 382.648 52.88 382.461 52.84C382.275 52.7867 382.068 52.76 381.841 52.76C381.268 52.76 380.821 52.9 380.501 53.18C380.181 53.4467 380.021 53.88 380.021 54.48V56V56.52V66H378.421V54.32C378.421 53.88 378.488 53.4733 378.621 53.1C378.755 52.7267 378.955 52.4067 379.221 52.14C379.501 51.8733 379.848 51.6667 380.261 51.52C380.675 51.3733 381.155 51.3 381.701 51.3ZM383.361 56V57.38H376.421V56H383.361ZM395.408 66.2C394.582 66.2 393.822 65.9933 393.128 65.58C392.435 65.1667 391.882 64.5733 391.468 63.8C391.055 63.0133 390.848 62.08 390.848 61C390.848 59.8933 391.068 58.9533 391.508 58.18C391.948 57.4067 392.528 56.82 393.248 56.42C393.968 56.0067 394.742 55.8 395.568 55.8C396.395 55.8 397.108 56.0133 397.708 56.44C398.322 56.8667 398.728 57.4333 398.928 58.14L398.728 58.28V51.4H400.328V66H398.928L398.788 63.58L399.008 63.46C398.915 64.0467 398.688 64.5467 398.328 64.96C397.982 65.36 397.548 65.6667 397.028 65.88C396.522 66.0933 395.982 66.2 395.408 66.2ZM395.568 64.8C396.208 64.8 396.762 64.64 397.228 64.32C397.708 64 398.075 63.5467 398.328 62.96C398.595 62.36 398.728 61.66 398.728 60.86C398.728 60.1 398.595 59.4467 398.328 58.9C398.075 58.3533 397.715 57.9333 397.248 57.64C396.795 57.3467 396.262 57.2 395.648 57.2C394.635 57.2 393.848 57.5467 393.288 58.24C392.728 58.9333 392.448 59.8533 392.448 61C392.448 62.1467 392.722 63.0667 393.268 63.76C393.815 64.4533 394.582 64.8 395.568 64.8ZM407.668 66.2C407.028 66.2 406.421 66.08 405.848 65.84C405.288 65.6 404.828 65.2133 404.468 64.68C404.121 64.1333 403.948 63.4267 403.948 62.56V56H405.548V62.14C405.548 63.1533 405.768 63.8533 406.208 64.24C406.648 64.6133 407.268 64.8 408.067 64.8C408.441 64.8 408.808 64.74 409.168 64.62C409.528 64.4867 409.848 64.2867 410.128 64.02C410.421 63.74 410.648 63.3867 410.808 62.96C410.981 62.5333 411.068 62.0267 411.068 61.44V56H412.668V66H411.268L411.168 64.48C410.821 65.08 410.348 65.52 409.748 65.8C409.161 66.0667 408.468 66.2 407.668 66.2ZM422.231 59.54C422.231 58.7933 422.031 58.22 421.631 57.82C421.231 57.4067 420.665 57.2 419.931 57.2C419.238 57.2 418.651 57.3533 418.171 57.66C417.691 57.9533 417.338 58.4333 417.111 59.1L415.811 58.3C416.078 57.5533 416.571 56.9533 417.291 56.5C418.011 56.0333 418.905 55.8 419.971 55.8C420.691 55.8 421.345 55.9267 421.931 56.18C422.518 56.42 422.978 56.7933 423.311 57.3C423.658 57.7933 423.831 58.4333 423.831 59.22V64.06C423.831 64.54 424.085 64.78 424.591 64.78C424.845 64.78 425.091 64.7467 425.331 64.68L425.251 65.94C424.985 66.0733 424.638 66.14 424.211 66.14C423.825 66.14 423.478 66.0667 423.171 65.92C422.865 65.7733 422.625 65.5533 422.451 65.26C422.278 64.9533 422.191 64.5733 422.191 64.12V63.92L422.591 63.98C422.431 64.5 422.158 64.9267 421.771 65.26C421.385 65.58 420.951 65.82 420.471 65.98C419.991 66.1267 419.518 66.2 419.051 66.2C418.465 66.2 417.918 66.1 417.411 65.9C416.905 65.7 416.498 65.4 416.191 65C415.898 64.5867 415.751 64.08 415.751 63.48C415.751 62.7333 415.998 62.12 416.491 61.64C416.998 61.1467 417.698 60.8133 418.591 60.64L422.551 59.86V61.18L419.331 61.84C418.678 61.9733 418.191 62.16 417.871 62.4C417.551 62.64 417.391 62.9733 417.391 63.4C417.391 63.8133 417.551 64.1533 417.871 64.42C418.205 64.6733 418.671 64.8 419.271 64.8C419.658 64.8 420.025 64.7533 420.371 64.66C420.731 64.5533 421.051 64.4 421.331 64.2C421.611 63.9867 421.831 63.7267 421.991 63.42C422.151 63.1 422.231 62.7267 422.231 62.3V59.54ZM429.239 51.4V63.46C429.239 63.9667 429.333 64.32 429.519 64.52C429.706 64.7067 430.006 64.8 430.419 64.8C430.686 64.8 430.906 64.78 431.079 64.74C431.253 64.7 431.486 64.6267 431.779 64.52L431.519 65.92C431.306 66.0133 431.073 66.08 430.819 66.12C430.566 66.1733 430.306 66.2 430.039 66.2C429.226 66.2 428.619 65.98 428.219 65.54C427.833 65.1 427.639 64.4267 427.639 63.52V51.4H429.239ZM440.746 54.08C440.386 54.08 440.093 53.9733 439.866 53.76C439.653 53.5333 439.546 53.24 439.546 52.88C439.546 52.52 439.653 52.2333 439.866 52.02C440.093 51.7933 440.386 51.68 440.746 51.68C441.106 51.68 441.393 51.7933 441.606 52.02C441.833 52.2333 441.946 52.52 441.946 52.88C441.946 53.24 441.833 53.5333 441.606 53.76C441.393 53.9733 441.106 54.08 440.746 54.08ZM441.546 56V66H439.946V56H441.546ZM449.158 66.2C448.332 66.2 447.572 65.9933 446.878 65.58C446.185 65.1667 445.632 64.5733 445.218 63.8C444.805 63.0133 444.598 62.08 444.598 61C444.598 59.8933 444.818 58.9533 445.258 58.18C445.698 57.4067 446.278 56.82 446.998 56.42C447.718 56.0067 448.492 55.8 449.318 55.8C450.145 55.8 450.858 56.0133 451.458 56.44C452.072 56.8667 452.478 57.4333 452.678 58.14L452.478 58.28V51.4H454.078V66H452.678L452.538 63.58L452.758 63.46C452.665 64.0467 452.438 64.5467 452.078 64.96C451.732 65.36 451.298 65.6667 450.778 65.88C450.272 66.0933 449.732 66.2 449.158 66.2ZM449.318 64.8C449.958 64.8 450.512 64.64 450.978 64.32C451.458 64 451.825 63.5467 452.078 62.96C452.345 62.36 452.478 61.66 452.478 60.86C452.478 60.1 452.345 59.4467 452.078 58.9C451.825 58.3533 451.465 57.9333 450.998 57.64C450.545 57.3467 450.012 57.2 449.398 57.2C448.385 57.2 447.598 57.5467 447.038 58.24C446.478 58.9333 446.198 59.8533 446.198 61C446.198 62.1467 446.472 63.0667 447.018 63.76C447.565 64.4533 448.332 64.8 449.318 64.8ZM461.978 66.2C461.031 66.2 460.184 65.9933 459.438 65.58C458.704 65.1667 458.131 64.5733 457.718 63.8C457.304 63.0133 457.098 62.08 457.098 61C457.098 59.92 457.304 58.9933 457.718 58.22C458.131 57.4333 458.698 56.8333 459.418 56.42C460.138 56.0067 460.958 55.8 461.878 55.8C462.811 55.8 463.604 56 464.258 56.4C464.924 56.8 465.431 57.3467 465.778 58.04C466.124 58.72 466.298 59.4867 466.298 60.34C466.298 60.5667 466.291 60.7733 466.278 60.96C466.264 61.1467 466.244 61.3133 466.217 61.46H458.138V60.04H465.518L464.698 60.2C464.698 59.24 464.431 58.5 463.898 57.98C463.378 57.46 462.691 57.2 461.838 57.2C461.184 57.2 460.618 57.3533 460.138 57.66C459.671 57.9533 459.304 58.3867 459.038 58.96C458.784 59.52 458.658 60.2 458.658 61C458.658 61.7867 458.791 62.4667 459.058 63.04C459.324 63.6133 459.698 64.0533 460.178 64.36C460.671 64.6533 461.258 64.8 461.938 64.8C462.671 64.8 463.264 64.66 463.718 64.38C464.184 64.1 464.558 63.72 464.838 63.24L466.098 63.98C465.844 64.4333 465.518 64.8267 465.118 65.16C464.731 65.4933 464.271 65.7533 463.738 65.94C463.218 66.1133 462.631 66.2 461.978 66.2ZM469.34 66V56H470.74L470.88 58.24L470.62 58.02C470.834 57.4867 471.12 57.06 471.48 56.74C471.84 56.4067 472.254 56.1667 472.72 56.02C473.2 55.8733 473.694 55.8 474.2 55.8C474.92 55.8 475.574 55.94 476.16 56.22C476.747 56.4867 477.214 56.9 477.56 57.46C477.92 58.02 478.1 58.7333 478.1 59.6V66H476.5V60.16C476.5 59.0533 476.26 58.2867 475.78 57.86C475.314 57.42 474.734 57.2 474.04 57.2C473.56 57.2 473.08 57.3133 472.6 57.54C472.12 57.7667 471.72 58.1333 471.4 58.64C471.094 59.1467 470.94 59.8267 470.94 60.68V66H469.34ZM483.947 53.16V63.24C483.947 63.7333 484.087 64.1 484.367 64.34C484.647 64.58 485.007 64.7 485.447 64.7C485.833 64.7 486.167 64.6333 486.447 64.5C486.727 64.3667 486.98 64.1867 487.207 63.96L487.767 65.3C487.46 65.58 487.093 65.8 486.667 65.96C486.253 66.12 485.773 66.2 485.227 66.2C484.72 66.2 484.247 66.1133 483.807 65.94C483.367 65.7533 483.013 65.4667 482.747 65.08C482.493 64.68 482.36 64.16 482.347 63.52V53.6L483.947 53.16ZM487.587 56V57.38H480.347V56H487.587ZM490.765 54.08C490.405 54.08 490.112 53.9733 489.885 53.76C489.672 53.5333 489.565 53.24 489.565 52.88C489.565 52.52 489.672 52.2333 489.885 52.02C490.112 51.7933 490.405 51.68 490.765 51.68C491.125 51.68 491.412 51.7933 491.625 52.02C491.852 52.2333 491.965 52.52 491.965 52.88C491.965 53.24 491.852 53.5333 491.625 53.76C491.412 53.9733 491.125 54.08 490.765 54.08ZM491.565 56V66H489.965V56H491.565ZM497.638 53.16V63.24C497.638 63.7333 497.778 64.1 498.058 64.34C498.338 64.58 498.698 64.7 499.138 64.7C499.525 64.7 499.858 64.6333 500.138 64.5C500.418 64.3667 500.671 64.1867 500.898 63.96L501.458 65.3C501.151 65.58 500.785 65.8 500.358 65.96C499.945 66.12 499.465 66.2 498.918 66.2C498.411 66.2 497.938 66.1133 497.498 65.94C497.058 65.7533 496.705 65.4667 496.438 65.08C496.185 64.68 496.051 64.16 496.038 63.52V53.6L497.638 53.16ZM501.278 56V57.38H494.038V56H501.278ZM511.877 56L507.177 67.68C506.924 68.3333 506.644 68.8467 506.337 69.22C506.044 69.6067 505.71 69.88 505.337 70.04C504.977 70.2133 504.557 70.3 504.077 70.3C503.624 70.3 503.204 70.2333 502.817 70.1C502.444 69.98 502.11 69.8133 501.817 69.6L502.257 68.2C502.524 68.44 502.804 68.6133 503.097 68.72C503.404 68.84 503.704 68.9 503.997 68.9C504.344 68.9 504.67 68.7933 504.977 68.58C505.284 68.3667 505.564 67.9333 505.817 67.28L506.337 65.98L505.337 63.6L502.157 56H503.977L506.477 62.52L507.097 64.3L507.817 62.32L510.157 56H511.877ZM513.285 63.6C513.672 63.6 513.985 63.72 514.225 63.96C514.465 64.2 514.585 64.5133 514.585 64.9C514.585 65.2867 514.465 65.6 514.225 65.84C513.985 66.08 513.672 66.2 513.285 66.2C512.898 66.2 512.585 66.08 512.345 65.84C512.105 65.6 511.985 65.2867 511.985 64.9C511.985 64.5133 512.105 64.2 512.345 63.96C512.585 63.72 512.898 63.6 513.285 63.6Z" fill="white"/>
</svg>
