<svg width="554" height="71" viewBox="0 0 554 71" fill="none" xmlns="http://www.w3.org/2000/svg">
<path d="M3.6 14V7.8C3.6 7.36 3.6 6.92 3.6 6.48C3.6 6.04 3.6 5.6 3.6 5.16C3.17333 5.53333 2.71333 5.86 2.22 6.14C1.72667 6.40667 1.20667 6.58 0.66 6.66L0.4 2.92C0.813333 2.88 1.22667 2.79333 1.64 2.66C2.05333 2.51333 2.44 2.34 2.8 2.14C3.17333 1.94 3.5 1.72667 3.78 1.5C4.07333 1.27333 4.29333 1.04 4.44 0.799999H8.06V14H3.6ZM15.7597 14.2C13.7597 14.2 12.2797 13.6333 11.3197 12.5C10.373 11.3667 9.89969 9.66667 9.89969 7.4C9.89969 5.13333 10.373 3.43333 11.3197 2.3C12.2797 1.16667 13.7597 0.6 15.7597 0.6C17.7597 0.6 19.233 1.16667 20.1797 2.3C21.1397 3.43333 21.6197 5.13333 21.6197 7.4C21.6197 9.66667 21.1397 11.3667 20.1797 12.5C19.233 13.6333 17.7597 14.2 15.7597 14.2ZM15.7597 10.7C16.1064 10.7 16.373 10.6067 16.5597 10.42C16.7464 10.2333 16.873 9.9 16.9397 9.42C17.0197 8.94 17.0597 8.26667 17.0597 7.4C17.0597 6.53333 17.0197 5.86 16.9397 5.38C16.873 4.9 16.7464 4.56667 16.5597 4.38C16.373 4.19333 16.1064 4.1 15.7597 4.1C15.4264 4.1 15.1597 4.19333 14.9597 4.38C14.773 4.56667 14.6397 4.9 14.5597 5.38C14.493 5.86 14.4597 6.53333 14.4597 7.4C14.4597 8.26667 14.493 8.94 14.5597 9.42C14.6397 9.9 14.773 10.2333 14.9597 10.42C15.1597 10.6067 15.4264 10.7 15.7597 10.7ZM40.7438 9.96C40.5038 10.9867 40.0904 11.8133 39.5038 12.44C38.9304 13.0667 38.2304 13.52 37.4038 13.8C36.5771 14.0667 35.6571 14.2 34.6438 14.2C33.2571 14.2 32.0571 13.9333 31.0438 13.4C30.0438 12.8667 29.2704 12.0933 28.7238 11.08C28.1904 10.0667 27.9238 8.84 27.9238 7.4C27.9238 5.96 28.1904 4.73333 28.7238 3.72C29.2704 2.70667 30.0438 1.93333 31.0438 1.4C32.0571 0.866666 33.2571 0.6 34.6438 0.6C35.6171 0.6 36.5238 0.739999 37.3638 1.02C38.2038 1.28667 38.9104 1.71333 39.4838 2.3C40.0704 2.88667 40.4571 3.65333 40.6438 4.6L36.6438 6.16C36.5371 5.29333 36.3171 4.73333 35.9838 4.48C35.6638 4.22667 35.2571 4.1 34.7638 4.1C34.3104 4.1 33.9238 4.22 33.6038 4.46C33.2971 4.68667 33.0638 5.04667 32.9038 5.54C32.7571 6.02 32.6838 6.64 32.6838 7.4C32.6838 8.14667 32.7504 8.76667 32.8838 9.26C33.0304 9.75333 33.2638 10.12 33.5838 10.36C33.9038 10.5867 34.3304 10.7 34.8638 10.7C35.3438 10.7 35.7371 10.56 36.0438 10.28C36.3504 9.98667 36.5438 9.52667 36.6238 8.9L40.7438 9.96ZM46.5389 10.58H52.5189V14H41.8789V0.799999H46.5389V10.58ZM59.8781 0.6C61.2781 0.6 62.4781 0.866666 63.4781 1.4C64.4781 1.93333 65.2448 2.70667 65.7781 3.72C66.3115 4.73333 66.5781 5.96 66.5781 7.4C66.5781 8.84 66.3115 10.0667 65.7781 11.08C65.2448 12.0933 64.4781 12.8667 63.4781 13.4C62.4781 13.9333 61.2781 14.2 59.8781 14.2C58.4915 14.2 57.2915 13.9333 56.2781 13.4C55.2781 12.8667 54.5048 12.0933 53.9581 11.08C53.4248 10.0667 53.1581 8.84 53.1581 7.4C53.1581 5.96 53.4248 4.73333 53.9581 3.72C54.5048 2.70667 55.2781 1.93333 56.2781 1.4C57.2915 0.866666 58.4915 0.6 59.8781 0.6ZM59.8781 4.1C59.4248 4.1 59.0515 4.22 58.7581 4.46C58.4781 4.68667 58.2648 5.04 58.1181 5.52C57.9848 6 57.9181 6.62667 57.9181 7.4C57.9181 8.16 57.9848 8.78667 58.1181 9.28C58.2648 9.76 58.4781 10.12 58.7581 10.36C59.0515 10.5867 59.4248 10.7 59.8781 10.7C60.3315 10.7 60.6981 10.5867 60.9781 10.36C61.2715 10.12 61.4848 9.76 61.6181 9.28C61.7515 8.78667 61.8181 8.16 61.8181 7.4C61.8181 6.62667 61.7515 6 61.6181 5.52C61.4848 5.04 61.2715 4.68667 60.9781 4.46C60.6981 4.22 60.3315 4.1 59.8781 4.1ZM81.0578 0.799999L76.5978 14H71.0578L66.5978 0.799999H71.4578L73.2778 8.02L73.9178 10.6L74.5178 8.06L76.3778 0.799999H81.0578ZM81.8984 14V0.799999H92.8584V4.22H86.5584V5.86H91.6384V9.02H86.5584V10.58H93.0984V14H81.8984ZM101.578 0.799999C103.298 0.799999 104.618 1.18667 105.538 1.96C106.458 2.72 106.918 3.73333 106.918 5C106.918 6.45333 106.465 7.54667 105.558 8.28C104.665 9.01333 103.358 9.38 101.638 9.38L101.178 9.62H98.978V14H94.418V0.799999H101.578ZM100.778 6.56C101.271 6.56 101.638 6.47333 101.878 6.3C102.131 6.11333 102.258 5.79333 102.258 5.34C102.258 4.9 102.131 4.58667 101.878 4.4C101.638 4.21333 101.271 4.12 100.778 4.12H98.978V6.56H100.778ZM103.538 7.54L107.658 14H102.598L99.518 8.22L103.538 7.54ZM119.46 4.22H113.18V6.06H118.26V9.48H113.18V14H108.52V0.799999H119.46V4.22ZM125.465 0.799999V14H120.805V0.799999H125.465ZM127.465 14V0.799999H138.425V4.22H132.125V5.86H137.205V9.02H132.125V10.58H138.665V14H127.465ZM144.644 10.58H150.624V14H139.984V0.799999H144.644V10.58ZM158.574 0.799999C160.64 0.799999 162.2 1.37333 163.254 2.52C164.307 3.66667 164.834 5.29333 164.834 7.4C164.834 9.49333 164.307 11.12 163.254 12.28C162.2 13.4267 160.64 14 158.574 14H152.094V0.799999H158.574ZM157.914 10.68C158.78 10.68 159.354 10.42 159.634 9.9C159.927 9.36667 160.074 8.53333 160.074 7.4C160.074 6.26667 159.927 5.44 159.634 4.92C159.354 4.38667 158.78 4.12 157.914 4.12H156.754V10.68H157.914ZM176.07 10.58H182.05V14H171.41V0.799999H176.07V10.58ZM196.5 14H191.74L191.14 11.48H187.58L186.96 14H182.32L186.6 0.799999H192.2L196.5 14ZM188.28 8.58H190.46L189.38 4L188.28 8.58ZM210.229 0.799999V14H205.189L202.029 8L201.309 6.38H201.269L201.349 9.1V14H197.309V0.799999H202.349L205.509 6.82L206.229 8.42H206.269L206.189 5.7V0.799999H210.229ZM212.23 14V0.799999H223.19V4.22H216.89V5.86H221.97V9.02H216.89V10.58H223.43V14H212.23ZM227.042 9.88C227.655 9.88 228.149 10.0133 228.522 10.28C228.909 10.5467 229.189 10.8933 229.362 11.32C229.549 11.7333 229.642 12.18 229.642 12.66C229.642 13.38 229.475 14.0533 229.142 14.68C228.822 15.32 228.415 15.8667 227.922 16.32C227.429 16.7867 226.942 17.12 226.462 17.32L224.722 16.14C225.095 15.9667 225.449 15.7667 225.782 15.54C226.129 15.3133 226.442 15.0667 226.722 14.8C227.002 14.5333 227.222 14.26 227.382 13.98L227.282 13.9C227.189 13.9533 227.082 13.9933 226.962 14.02C226.842 14.06 226.689 14.08 226.502 14.08C226.209 14.08 225.915 14.0133 225.622 13.88C225.329 13.7333 225.082 13.52 224.882 13.24C224.682 12.96 224.582 12.6067 224.582 12.18C224.582 11.6333 224.695 11.1933 224.922 10.86C225.162 10.5267 225.469 10.28 225.842 10.12C226.229 9.96 226.629 9.88 227.042 9.88ZM236.215 14V11.2C237.215 10.6667 238.082 10.1333 238.815 9.6C239.562 9.06667 240.175 8.54667 240.655 8.04C241.149 7.52 241.515 7.03333 241.755 6.58C241.995 6.11333 242.115 5.68667 242.115 5.3C242.115 4.98 242.035 4.7 241.875 4.46C241.715 4.22 241.435 4.1 241.035 4.1C240.582 4.1 240.249 4.28667 240.035 4.66C239.822 5.03333 239.729 5.62667 239.755 6.44L235.775 5.48C235.749 4.36 235.982 3.44 236.475 2.72C236.969 2 237.642 1.46667 238.495 1.12C239.362 0.773333 240.315 0.6 241.355 0.6C242.355 0.6 243.195 0.739999 243.875 1.02C244.569 1.28667 245.122 1.64 245.535 2.08C245.949 2.50667 246.242 2.97333 246.415 3.48C246.602 3.97333 246.695 4.44667 246.695 4.9C246.695 5.78 246.462 6.57333 245.995 7.28C245.542 7.98667 244.929 8.62 244.155 9.18C243.382 9.74 242.522 10.2467 241.575 10.7V10.74C241.855 10.7133 242.162 10.6933 242.495 10.68C242.842 10.6533 243.202 10.64 243.575 10.64C243.962 10.6267 244.342 10.62 244.715 10.62H246.775V14H236.215ZM253.885 14.2C251.885 14.2 250.405 13.6333 249.445 12.5C248.498 11.3667 248.025 9.66667 248.025 7.4C248.025 5.13333 248.498 3.43333 249.445 2.3C250.405 1.16667 251.885 0.6 253.885 0.6C255.885 0.6 257.358 1.16667 258.305 2.3C259.265 3.43333 259.745 5.13333 259.745 7.4C259.745 9.66667 259.265 11.3667 258.305 12.5C257.358 13.6333 255.885 14.2 253.885 14.2ZM253.885 10.7C254.231 10.7 254.498 10.6067 254.685 10.42C254.871 10.2333 254.998 9.9 255.065 9.42C255.145 8.94 255.185 8.26667 255.185 7.4C255.185 6.53333 255.145 5.86 255.065 5.38C254.998 4.9 254.871 4.56667 254.685 4.38C254.498 4.19333 254.231 4.1 253.885 4.1C253.551 4.1 253.285 4.19333 253.085 4.38C252.898 4.56667 252.765 4.9 252.685 5.38C252.618 5.86 252.585 6.53333 252.585 7.4C252.585 8.26667 252.618 8.94 252.685 9.42C252.765 9.9 252.898 10.2333 253.085 10.42C253.285 10.6067 253.551 10.7 253.885 10.7ZM264.069 14V7.8C264.069 7.36 264.069 6.92 264.069 6.48C264.069 6.04 264.069 5.6 264.069 5.16C263.642 5.53333 263.182 5.86 262.689 6.14C262.195 6.40667 261.675 6.58 261.129 6.66L260.869 2.92C261.282 2.88 261.695 2.79333 262.109 2.66C262.522 2.51333 262.909 2.34 263.269 2.14C263.642 1.94 263.969 1.72667 264.249 1.5C264.542 1.27333 264.762 1.04 264.909 0.799999H268.529V14H264.069ZM276.728 0.6C277.448 0.6 278.135 0.693333 278.788 0.88C279.442 1.06667 280.015 1.38 280.508 1.82C281.015 2.26 281.375 2.86 281.588 3.62L277.888 5.36C277.795 4.97333 277.628 4.67333 277.388 4.46C277.148 4.24667 276.835 4.14 276.448 4.14C276.195 4.14 275.955 4.19333 275.728 4.3C275.502 4.40667 275.302 4.56667 275.128 4.78C274.968 4.99333 274.842 5.27333 274.748 5.62C274.655 5.96667 274.608 6.38 274.608 6.86C274.608 6.91333 274.608 6.96 274.608 7C274.608 7.04 274.608 7.09333 274.608 7.16L274.628 7.36C274.788 7.06667 275.022 6.81333 275.328 6.6C275.648 6.37333 276.008 6.2 276.408 6.08C276.808 5.94667 277.208 5.88 277.608 5.88C278.382 5.88 279.075 6.03333 279.688 6.34C280.302 6.63333 280.788 7.06667 281.148 7.64C281.522 8.2 281.708 8.88667 281.708 9.7C281.708 10.62 281.488 11.42 281.048 12.1C280.622 12.7667 280.015 13.2867 279.228 13.66C278.455 14.02 277.542 14.2 276.488 14.2C275.328 14.2 274.288 13.98 273.368 13.54C272.448 13.0867 271.715 12.38 271.168 11.42C270.635 10.4467 270.368 9.17333 270.368 7.6C270.368 5.97333 270.648 4.64667 271.208 3.62C271.782 2.59333 272.548 1.83333 273.508 1.34C274.468 0.846666 275.542 0.6 276.728 0.6ZM276.408 8.7C276.195 8.7 275.995 8.74667 275.808 8.84C275.622 8.92 275.468 9.04667 275.348 9.22C275.228 9.38 275.168 9.58 275.168 9.82C275.168 10.06 275.228 10.2667 275.348 10.44C275.468 10.6 275.622 10.7267 275.808 10.82C275.995 10.9 276.195 10.94 276.408 10.94C276.795 10.94 277.088 10.8467 277.288 10.66C277.502 10.46 277.608 10.18 277.608 9.82C277.608 9.58 277.562 9.38 277.468 9.22C277.375 9.04667 277.242 8.92 277.068 8.84C276.895 8.74667 276.675 8.7 276.408 8.7ZM11.44 26.8V28.3H6.84V40H5.24V28.3H0.64V26.8H11.44ZM13.5397 40V25.4H15.1397V31.5C15.4864 30.9 15.9464 30.4667 16.5197 30.2C17.093 29.9333 17.7197 29.8 18.3997 29.8C19.1197 29.8 19.773 29.94 20.3597 30.22C20.9464 30.4867 21.413 30.9 21.7597 31.46C22.1197 32.02 22.2997 32.7333 22.2997 33.6V40H20.6997V34.16C20.6997 33.0533 20.4597 32.2867 19.9797 31.86C19.513 31.42 18.933 31.2 18.2397 31.2C17.7597 31.2 17.2797 31.3133 16.7997 31.54C16.3197 31.7667 15.9197 32.14 15.5997 32.66C15.293 33.1667 15.1397 33.8467 15.1397 34.7V40H13.5397ZM30.1025 40.2C29.1558 40.2 28.3092 39.9933 27.5625 39.58C26.8292 39.1667 26.2558 38.5733 25.8425 37.8C25.4292 37.0133 25.2225 36.08 25.2225 35C25.2225 33.92 25.4292 32.9933 25.8425 32.22C26.2558 31.4333 26.8225 30.8333 27.5425 30.42C28.2625 30.0067 29.0825 29.8 30.0025 29.8C30.9358 29.8 31.7292 30 32.3825 30.4C33.0492 30.8 33.5558 31.3467 33.9025 32.04C34.2492 32.72 34.4225 33.4867 34.4225 34.34C34.4225 34.5667 34.4158 34.7733 34.4025 34.96C34.3892 35.1467 34.3692 35.3133 34.3425 35.46H26.2625V34.04H33.6425L32.8225 34.2C32.8225 33.24 32.5558 32.5 32.0225 31.98C31.5025 31.46 30.8158 31.2 29.9625 31.2C29.3092 31.2 28.7425 31.3533 28.2625 31.66C27.7958 31.9533 27.4292 32.3867 27.1625 32.96C26.9092 33.52 26.7825 34.2 26.7825 35C26.7825 35.7867 26.9158 36.4667 27.1825 37.04C27.4492 37.6133 27.8225 38.0533 28.3025 38.36C28.7958 38.6533 29.3825 38.8 30.0625 38.8C30.7958 38.8 31.3892 38.66 31.8425 38.38C32.3092 38.1 32.6825 37.72 32.9625 37.24L34.2225 37.98C33.9692 38.4333 33.6425 38.8267 33.2425 39.16C32.8558 39.4933 32.3958 39.7533 31.8625 39.94C31.3425 40.1133 30.7558 40.2 30.1025 40.2ZM44.2819 40V25.4H45.8819V31.5C46.2285 30.9 46.6885 30.4667 47.2619 30.2C47.8352 29.9333 48.4619 29.8 49.1419 29.8C49.8619 29.8 50.5152 29.94 51.1019 30.22C51.6885 30.4867 52.1552 30.9 52.5019 31.46C52.8619 32.02 53.0419 32.7333 53.0419 33.6V40H51.4419V34.16C51.4419 33.0533 51.2019 32.2867 50.7219 31.86C50.2552 31.42 49.6752 31.2 48.9819 31.2C48.5019 31.2 48.0219 31.3133 47.5419 31.54C47.0619 31.7667 46.6619 32.14 46.3419 32.66C46.0352 33.1667 45.8819 33.8467 45.8819 34.7V40H44.2819ZM57.4647 28.08C57.1047 28.08 56.8114 27.9733 56.5847 27.76C56.3714 27.5333 56.2647 27.24 56.2647 26.88C56.2647 26.52 56.3714 26.2333 56.5847 26.02C56.8114 25.7933 57.1047 25.68 57.4647 25.68C57.8247 25.68 58.1114 25.7933 58.3247 26.02C58.5514 26.2333 58.6647 26.52 58.6647 26.88C58.6647 27.24 58.5514 27.5333 58.3247 27.76C58.1114 27.9733 57.8247 28.08 57.4647 28.08ZM58.2647 30V40H56.6647V30H58.2647ZM65.8772 40.2C65.0505 40.2 64.2905 39.9933 63.5972 39.58C62.9039 39.1667 62.3505 38.5733 61.9372 37.8C61.5239 37.0133 61.3172 36.08 61.3172 35C61.3172 33.8933 61.5372 32.9533 61.9772 32.18C62.4172 31.4067 62.9972 30.82 63.7172 30.42C64.4372 30.0067 65.2105 29.8 66.0372 29.8C66.8639 29.8 67.5772 30.0133 68.1772 30.44C68.7905 30.8667 69.1972 31.4333 69.3972 32.14L69.1972 32.28V25.4H70.7972V40H69.3972L69.2572 37.58L69.4772 37.46C69.3839 38.0467 69.1572 38.5467 68.7972 38.96C68.4505 39.36 68.0172 39.6667 67.4972 39.88C66.9905 40.0933 66.4505 40.2 65.8772 40.2ZM66.0372 38.8C66.6772 38.8 67.2305 38.64 67.6972 38.32C68.1772 38 68.5439 37.5467 68.7972 36.96C69.0639 36.36 69.1972 35.66 69.1972 34.86C69.1972 34.1 69.0639 33.4467 68.7972 32.9C68.5439 32.3533 68.1839 31.9333 67.7172 31.64C67.2639 31.3467 66.7305 31.2 66.1172 31.2C65.1039 31.2 64.3172 31.5467 63.7572 32.24C63.1972 32.9333 62.9172 33.8533 62.9172 35C62.9172 36.1467 63.1905 37.0667 63.7372 37.76C64.2839 38.4533 65.0505 38.8 66.0372 38.8ZM78.4163 40.2C77.5896 40.2 76.8296 39.9933 76.1363 39.58C75.4429 39.1667 74.8896 38.5733 74.4763 37.8C74.0629 37.0133 73.8563 36.08 73.8563 35C73.8563 33.8933 74.0763 32.9533 74.5163 32.18C74.9563 31.4067 75.5363 30.82 76.2563 30.42C76.9763 30.0067 77.7496 29.8 78.5763 29.8C79.4029 29.8 80.1163 30.0133 80.7163 30.44C81.3296 30.8667 81.7363 31.4333 81.9363 32.14L81.7363 32.28V25.4H83.3363V40H81.9363L81.7963 37.58L82.0163 37.46C81.9229 38.0467 81.6963 38.5467 81.3363 38.96C80.9896 39.36 80.5563 39.6667 80.0363 39.88C79.5296 40.0933 78.9896 40.2 78.4163 40.2ZM78.5763 38.8C79.2163 38.8 79.7696 38.64 80.2363 38.32C80.7163 38 81.0829 37.5467 81.3363 36.96C81.6029 36.36 81.7363 35.66 81.7363 34.86C81.7363 34.1 81.6029 33.4467 81.3363 32.9C81.0829 32.3533 80.7229 31.9333 80.2563 31.64C79.8029 31.3467 79.2696 31.2 78.6563 31.2C77.6429 31.2 76.8563 31.5467 76.2963 32.24C75.7363 32.9333 75.4563 33.8533 75.4563 35C75.4563 36.1467 75.7296 37.0667 76.2763 37.76C76.8229 38.4533 77.5896 38.8 78.5763 38.8ZM91.2353 40.2C90.2886 40.2 89.442 39.9933 88.6953 39.58C87.962 39.1667 87.3886 38.5733 86.9753 37.8C86.562 37.0133 86.3553 36.08 86.3553 35C86.3553 33.92 86.562 32.9933 86.9753 32.22C87.3886 31.4333 87.9553 30.8333 88.6753 30.42C89.3953 30.0067 90.2153 29.8 91.1353 29.8C92.0686 29.8 92.862 30 93.5153 30.4C94.182 30.8 94.6886 31.3467 95.0353 32.04C95.382 32.72 95.5553 33.4867 95.5553 34.34C95.5553 34.5667 95.5486 34.7733 95.5353 34.96C95.522 35.1467 95.502 35.3133 95.4753 35.46H87.3953V34.04H94.7753L93.9553 34.2C93.9553 33.24 93.6886 32.5 93.1553 31.98C92.6353 31.46 91.9486 31.2 91.0953 31.2C90.442 31.2 89.8753 31.3533 89.3953 31.66C88.9286 31.9533 88.562 32.3867 88.2953 32.96C88.042 33.52 87.9153 34.2 87.9153 35C87.9153 35.7867 88.0486 36.4667 88.3153 37.04C88.582 37.6133 88.9553 38.0533 89.4353 38.36C89.9286 38.6533 90.5153 38.8 91.1953 38.8C91.9286 38.8 92.522 38.66 92.9753 38.38C93.442 38.1 93.8153 37.72 94.0953 37.24L95.3553 37.98C95.102 38.4333 94.7753 38.8267 94.3753 39.16C93.9886 39.4933 93.5286 39.7533 92.9953 39.94C92.4753 40.1133 91.8886 40.2 91.2353 40.2ZM98.5983 40V30H99.9983L100.138 32.24L99.8783 32.02C100.092 31.4867 100.378 31.06 100.738 30.74C101.098 30.4067 101.512 30.1667 101.978 30.02C102.458 29.8733 102.952 29.8 103.458 29.8C104.178 29.8 104.832 29.94 105.418 30.22C106.005 30.4867 106.472 30.9 106.818 31.46C107.178 32.02 107.358 32.7333 107.358 33.6V40H105.758V34.16C105.758 33.0533 105.518 32.2867 105.038 31.86C104.572 31.42 103.992 31.2 103.298 31.2C102.818 31.2 102.338 31.3133 101.858 31.54C101.378 31.7667 100.978 32.1333 100.658 32.64C100.352 33.1467 100.198 33.8267 100.198 34.68V40H98.5983ZM117.798 40V30H119.098L119.318 31.64C119.598 31.0267 120.004 30.5667 120.538 30.26C121.084 29.9533 121.744 29.8 122.518 29.8C122.691 29.8 122.878 29.8133 123.078 29.84C123.291 29.8667 123.471 29.92 123.618 30L123.338 31.46C123.191 31.4067 123.031 31.3667 122.858 31.34C122.684 31.3133 122.438 31.3 122.118 31.3C121.704 31.3 121.284 31.42 120.858 31.66C120.444 31.9 120.098 32.2667 119.818 32.76C119.538 33.24 119.398 33.8533 119.398 34.6V40H117.798ZM129.789 29.8C130.736 29.8 131.569 30.0067 132.289 30.42C133.022 30.8333 133.596 31.4333 134.009 32.22C134.422 32.9933 134.629 33.92 134.629 35C134.629 36.08 134.422 37.0133 134.009 37.8C133.596 38.5733 133.022 39.1667 132.289 39.58C131.569 39.9933 130.736 40.2 129.789 40.2C128.856 40.2 128.022 39.9933 127.289 39.58C126.556 39.1667 125.982 38.5733 125.569 37.8C125.156 37.0133 124.949 36.08 124.949 35C124.949 33.92 125.156 32.9933 125.569 32.22C125.982 31.4333 126.556 30.8333 127.289 30.42C128.022 30.0067 128.856 29.8 129.789 29.8ZM129.789 31.18C129.109 31.18 128.529 31.3333 128.049 31.64C127.569 31.9467 127.196 32.3867 126.929 32.96C126.676 33.52 126.549 34.2 126.549 35C126.549 35.7867 126.676 36.4667 126.929 37.04C127.196 37.6133 127.569 38.0533 128.049 38.36C128.529 38.6667 129.109 38.82 129.789 38.82C130.469 38.82 131.049 38.6667 131.529 38.36C132.009 38.0533 132.376 37.6133 132.629 37.04C132.896 36.4667 133.029 35.7867 133.029 35C133.029 34.2 132.896 33.52 132.629 32.96C132.376 32.3867 132.009 31.9467 131.529 31.64C131.049 31.3333 130.469 31.18 129.789 31.18ZM142.541 40.2C141.981 40.2 141.461 40.1 140.981 39.9C140.501 39.7 140.088 39.42 139.741 39.06C139.395 38.7 139.135 38.2933 138.961 37.84L139.181 37.56L139.041 40H137.641V25.4H139.241V32.26L139.041 31.96C139.308 31.3333 139.755 30.82 140.381 30.42C141.021 30.0067 141.748 29.8 142.561 29.8C143.388 29.8 144.148 30.0067 144.841 30.42C145.535 30.8333 146.088 31.4267 146.501 32.2C146.915 32.9733 147.121 33.9067 147.121 35C147.121 36.08 146.908 37.0133 146.481 37.8C146.068 38.5733 145.515 39.1667 144.821 39.58C144.128 39.9933 143.368 40.2 142.541 40.2ZM142.381 38.8C143.368 38.8 144.135 38.4533 144.681 37.76C145.241 37.0667 145.521 36.1467 145.521 35C145.521 33.8533 145.248 32.9333 144.701 32.24C144.155 31.5467 143.388 31.2 142.401 31.2C141.775 31.2 141.221 31.36 140.741 31.68C140.275 32 139.908 32.4467 139.641 33.02C139.375 33.5933 139.241 34.2667 139.241 35.04C139.241 35.8 139.368 36.4667 139.621 37.04C139.888 37.6 140.255 38.0333 140.721 38.34C141.201 38.6467 141.755 38.8 142.381 38.8ZM154.32 29.8C155.267 29.8 156.1 30.0067 156.82 30.42C157.554 30.8333 158.127 31.4333 158.54 32.22C158.954 32.9933 159.16 33.92 159.16 35C159.16 36.08 158.954 37.0133 158.54 37.8C158.127 38.5733 157.554 39.1667 156.82 39.58C156.1 39.9933 155.267 40.2 154.32 40.2C153.387 40.2 152.554 39.9933 151.82 39.58C151.087 39.1667 150.514 38.5733 150.1 37.8C149.687 37.0133 149.48 36.08 149.48 35C149.48 33.92 149.687 32.9933 150.1 32.22C150.514 31.4333 151.087 30.8333 151.82 30.42C152.554 30.0067 153.387 29.8 154.32 29.8ZM154.32 31.18C153.64 31.18 153.06 31.3333 152.58 31.64C152.1 31.9467 151.727 32.3867 151.46 32.96C151.207 33.52 151.08 34.2 151.08 35C151.08 35.7867 151.207 36.4667 151.46 37.04C151.727 37.6133 152.1 38.0533 152.58 38.36C153.06 38.6667 153.64 38.82 154.32 38.82C155 38.82 155.58 38.6667 156.06 38.36C156.54 38.0533 156.907 37.6133 157.16 37.04C157.427 36.4667 157.56 35.7867 157.56 35C157.56 34.2 157.427 33.52 157.16 32.96C156.907 32.3867 156.54 31.9467 156.06 31.64C155.58 31.3333 155 31.18 154.32 31.18ZM164.357 27.16V37.24C164.357 37.7333 164.497 38.1 164.777 38.34C165.057 38.58 165.417 38.7 165.857 38.7C166.243 38.7 166.577 38.6333 166.857 38.5C167.137 38.3667 167.39 38.1867 167.617 37.96L168.177 39.3C167.87 39.58 167.503 39.8 167.077 39.96C166.663 40.12 166.183 40.2 165.637 40.2C165.13 40.2 164.657 40.1133 164.217 39.94C163.777 39.7533 163.423 39.4667 163.157 39.08C162.903 38.68 162.77 38.16 162.757 37.52V27.6L164.357 27.16ZM167.997 30V31.38H160.757V30H167.997ZM177.992 28.08C177.632 28.08 177.339 27.9733 177.112 27.76C176.899 27.5333 176.792 27.24 176.792 26.88C176.792 26.52 176.899 26.2333 177.112 26.02C177.339 25.7933 177.632 25.68 177.992 25.68C178.352 25.68 178.639 25.7933 178.852 26.02C179.079 26.2333 179.192 26.52 179.192 26.88C179.192 27.24 179.079 27.5333 178.852 27.76C178.639 27.9733 178.352 28.08 177.992 28.08ZM178.792 30V40H177.192V30H178.792ZM186.105 40.2C185.131 40.2 184.231 39.9933 183.405 39.58C182.591 39.1667 181.965 38.58 181.525 37.82L182.885 36.84C183.178 37.4533 183.605 37.9333 184.165 38.28C184.738 38.6267 185.425 38.8 186.225 38.8C186.931 38.8 187.485 38.6667 187.885 38.4C188.285 38.12 188.485 37.76 188.485 37.32C188.485 37.04 188.391 36.7867 188.205 36.56C188.031 36.32 187.691 36.1467 187.185 36.04L184.785 35.54C183.811 35.34 183.111 35.0067 182.685 34.54C182.271 34.0733 182.065 33.4933 182.065 32.8C182.065 32.2533 182.218 31.7533 182.525 31.3C182.845 30.8467 183.291 30.4867 183.865 30.22C184.451 29.94 185.138 29.8 185.925 29.8C186.911 29.8 187.745 29.9933 188.425 30.38C189.105 30.7667 189.611 31.3133 189.945 32.02L188.605 32.9C188.378 32.3133 188.011 31.8867 187.505 31.62C186.998 31.34 186.471 31.2 185.925 31.2C185.445 31.2 185.031 31.2667 184.685 31.4C184.351 31.5333 184.091 31.72 183.905 31.96C183.731 32.1867 183.645 32.4467 183.645 32.74C183.645 33.0333 183.745 33.3067 183.945 33.56C184.145 33.8 184.518 33.9733 185.065 34.08L187.565 34.6C188.498 34.7867 189.151 35.0933 189.525 35.52C189.898 35.9467 190.085 36.4667 190.085 37.08C190.085 37.7067 189.918 38.26 189.585 38.74C189.251 39.2067 188.785 39.5667 188.185 39.82C187.585 40.0733 186.891 40.2 186.105 40.2ZM201.837 27.16V37.24C201.837 37.7333 201.977 38.1 202.257 38.34C202.537 38.58 202.897 38.7 203.337 38.7C203.724 38.7 204.057 38.6333 204.337 38.5C204.617 38.3667 204.871 38.1867 205.097 37.96L205.657 39.3C205.351 39.58 204.984 39.8 204.557 39.96C204.144 40.12 203.664 40.2 203.117 40.2C202.611 40.2 202.137 40.1133 201.697 39.94C201.257 39.7533 200.904 39.4667 200.637 39.08C200.384 38.68 200.251 38.16 200.237 37.52V27.6L201.837 27.16ZM205.477 30V31.38H198.237V30H205.477ZM207.856 40V25.4H209.456V31.5C209.803 30.9 210.263 30.4667 210.836 30.2C211.409 29.9333 212.036 29.8 212.716 29.8C213.436 29.8 214.089 29.94 214.676 30.22C215.263 30.4867 215.729 30.9 216.076 31.46C216.436 32.02 216.616 32.7333 216.616 33.6V40H215.016V34.16C215.016 33.0533 214.776 32.2867 214.296 31.86C213.829 31.42 213.249 31.2 212.556 31.2C212.076 31.2 211.596 31.3133 211.116 31.54C210.636 31.7667 210.236 32.14 209.916 32.66C209.609 33.1667 209.456 33.8467 209.456 34.7V40H207.856ZM224.419 40.2C223.472 40.2 222.626 39.9933 221.879 39.58C221.146 39.1667 220.572 38.5733 220.159 37.8C219.746 37.0133 219.539 36.08 219.539 35C219.539 33.92 219.746 32.9933 220.159 32.22C220.572 31.4333 221.139 30.8333 221.859 30.42C222.579 30.0067 223.399 29.8 224.319 29.8C225.252 29.8 226.046 30 226.699 30.4C227.366 30.8 227.872 31.3467 228.219 32.04C228.566 32.72 228.739 33.4867 228.739 34.34C228.739 34.5667 228.732 34.7733 228.719 34.96C228.706 35.1467 228.686 35.3133 228.659 35.46H220.579V34.04H227.959L227.139 34.2C227.139 33.24 226.872 32.5 226.339 31.98C225.819 31.46 225.132 31.2 224.279 31.2C223.626 31.2 223.059 31.3533 222.579 31.66C222.112 31.9533 221.746 32.3867 221.479 32.96C221.226 33.52 221.099 34.2 221.099 35C221.099 35.7867 221.232 36.4667 221.499 37.04C221.766 37.6133 222.139 38.0533 222.619 38.36C223.112 38.6533 223.699 38.8 224.379 38.8C225.112 38.8 225.706 38.66 226.159 38.38C226.626 38.1 226.999 37.72 227.279 37.24L228.539 37.98C228.286 38.4333 227.959 38.8267 227.559 39.16C227.172 39.4933 226.712 39.7533 226.179 39.94C225.659 40.1133 225.072 40.2 224.419 40.2ZM240.118 25.4V37.46C240.118 37.9667 240.212 38.32 240.398 38.52C240.585 38.7067 240.885 38.8 241.298 38.8C241.565 38.8 241.785 38.78 241.958 38.74C242.132 38.7 242.365 38.6267 242.658 38.52L242.398 39.92C242.185 40.0133 241.952 40.08 241.698 40.12C241.445 40.1733 241.185 40.2 240.918 40.2C240.105 40.2 239.498 39.98 239.098 39.54C238.712 39.1 238.518 38.4267 238.518 37.52V25.4H240.118ZM248.852 29.8C249.798 29.8 250.632 30.0067 251.352 30.42C252.085 30.8333 252.658 31.4333 253.072 32.22C253.485 32.9933 253.692 33.92 253.692 35C253.692 36.08 253.485 37.0133 253.072 37.8C252.658 38.5733 252.085 39.1667 251.352 39.58C250.632 39.9933 249.798 40.2 248.852 40.2C247.918 40.2 247.085 39.9933 246.352 39.58C245.618 39.1667 245.045 38.5733 244.632 37.8C244.218 37.0133 244.012 36.08 244.012 35C244.012 33.92 244.218 32.9933 244.632 32.22C245.045 31.4333 245.618 30.8333 246.352 30.42C247.085 30.0067 247.918 29.8 248.852 29.8ZM248.852 31.18C248.172 31.18 247.592 31.3333 247.112 31.64C246.632 31.9467 246.258 32.3867 245.992 32.96C245.738 33.52 245.612 34.2 245.612 35C245.612 35.7867 245.738 36.4667 245.992 37.04C246.258 37.6133 246.632 38.0533 247.112 38.36C247.592 38.6667 248.172 38.82 248.852 38.82C249.532 38.82 250.112 38.6667 250.592 38.36C251.072 38.0533 251.438 37.6133 251.692 37.04C251.958 36.4667 252.092 35.7867 252.092 35C252.092 34.2 251.958 33.52 251.692 32.96C251.438 32.3867 251.072 31.9467 250.592 31.64C250.112 31.3333 249.532 31.18 248.852 31.18ZM265.124 28.16L265.484 29.58C265.47 29.58 265.45 29.58 265.424 29.58C265.397 29.58 265.37 29.58 265.344 29.58C264.69 29.58 264.184 29.7133 263.824 29.98C263.477 30.2333 263.304 30.6467 263.304 31.22L262.324 30.72C262.324 30.2 262.444 29.7467 262.684 29.36C262.924 28.9733 263.25 28.68 263.664 28.48C264.077 28.2667 264.53 28.16 265.024 28.16C265.037 28.16 265.05 28.16 265.064 28.16C265.09 28.16 265.11 28.16 265.124 28.16ZM262.084 38.72C263.03 38.72 263.77 38.94 264.304 39.38C264.837 39.8067 265.104 40.38 265.104 41.1C265.104 41.7533 264.884 42.32 264.444 42.8C264.017 43.28 263.437 43.6467 262.704 43.9C261.984 44.1667 261.17 44.3 260.264 44.3C258.69 44.3 257.51 44.0333 256.724 43.5C255.95 42.9667 255.564 42.3267 255.564 41.58C255.564 41.0467 255.737 40.5667 256.084 40.14C256.444 39.7267 257.044 39.4933 257.884 39.44L257.744 39.74C257.29 39.62 256.904 39.42 256.584 39.14C256.277 38.8467 256.124 38.4267 256.124 37.88C256.124 37.3333 256.324 36.8667 256.724 36.48C257.137 36.08 257.744 35.8333 258.544 35.74L259.604 36.28H259.404C258.75 36.3467 258.284 36.5133 258.004 36.78C257.737 37.0333 257.604 37.3133 257.604 37.62C257.604 37.9933 257.737 38.2733 258.004 38.46C258.284 38.6333 258.67 38.72 259.164 38.72H262.084ZM260.244 42.96C261.017 42.96 261.65 42.88 262.144 42.72C262.65 42.56 263.024 42.3533 263.264 42.1C263.504 41.8467 263.624 41.5733 263.624 41.28C263.624 40.92 263.477 40.6333 263.184 40.42C262.904 40.2067 262.39 40.1 261.644 40.1H258.564C258.137 40.1 257.777 40.2067 257.484 40.42C257.19 40.6467 257.044 40.9533 257.044 41.34C257.044 41.8333 257.324 42.2267 257.884 42.52C258.457 42.8133 259.244 42.96 260.244 42.96ZM260.104 29.8C260.904 29.8 261.61 29.9467 262.224 30.24C262.85 30.52 263.337 30.9133 263.684 31.42C264.03 31.9267 264.204 32.5133 264.204 33.18C264.204 33.8333 264.03 34.42 263.684 34.94C263.337 35.4467 262.85 35.8467 262.224 36.14C261.61 36.42 260.904 36.56 260.104 36.56C258.784 36.56 257.77 36.2467 257.064 35.62C256.357 34.98 256.004 34.1667 256.004 33.18C256.004 32.5133 256.177 31.9267 256.524 31.42C256.884 30.9133 257.37 30.52 257.984 30.24C258.597 29.9467 259.304 29.8 260.104 29.8ZM260.104 31.1C259.41 31.1 258.83 31.2933 258.364 31.68C257.897 32.0533 257.664 32.5533 257.664 33.18C257.664 33.7933 257.897 34.2933 258.364 34.68C258.83 35.0667 259.41 35.26 260.104 35.26C260.797 35.26 261.377 35.0667 261.844 34.68C262.31 34.2933 262.544 33.7933 262.544 33.18C262.544 32.5533 262.31 32.0533 261.844 31.68C261.377 31.2933 260.797 31.1 260.104 31.1ZM271.488 29.8C272.435 29.8 273.268 30.0067 273.988 30.42C274.722 30.8333 275.295 31.4333 275.708 32.22C276.122 32.9933 276.328 33.92 276.328 35C276.328 36.08 276.122 37.0133 275.708 37.8C275.295 38.5733 274.722 39.1667 273.988 39.58C273.268 39.9933 272.435 40.2 271.488 40.2C270.555 40.2 269.722 39.9933 268.988 39.58C268.255 39.1667 267.682 38.5733 267.268 37.8C266.855 37.0133 266.648 36.08 266.648 35C266.648 33.92 266.855 32.9933 267.268 32.22C267.682 31.4333 268.255 30.8333 268.988 30.42C269.722 30.0067 270.555 29.8 271.488 29.8ZM271.488 31.18C270.808 31.18 270.228 31.3333 269.748 31.64C269.268 31.9467 268.895 32.3867 268.628 32.96C268.375 33.52 268.248 34.2 268.248 35C268.248 35.7867 268.375 36.4667 268.628 37.04C268.895 37.6133 269.268 38.0533 269.748 38.36C270.228 38.6667 270.808 38.82 271.488 38.82C272.168 38.82 272.748 38.6667 273.228 38.36C273.708 38.0533 274.075 37.6133 274.328 37.04C274.595 36.4667 274.728 35.7867 274.728 35C274.728 34.2 274.595 33.52 274.328 32.96C274.075 32.3867 273.708 31.9467 273.228 31.64C272.748 31.3333 272.168 31.18 271.488 31.18ZM290.297 29.8C291.244 29.8 292.077 30.0067 292.797 30.42C293.53 30.8333 294.104 31.4333 294.517 32.22C294.93 32.9933 295.137 33.92 295.137 35C295.137 36.08 294.93 37.0133 294.517 37.8C294.104 38.5733 293.53 39.1667 292.797 39.58C292.077 39.9933 291.244 40.2 290.297 40.2C289.364 40.2 288.53 39.9933 287.797 39.58C287.064 39.1667 286.49 38.5733 286.077 37.8C285.664 37.0133 285.457 36.08 285.457 35C285.457 33.92 285.664 32.9933 286.077 32.22C286.49 31.4333 287.064 30.8333 287.797 30.42C288.53 30.0067 289.364 29.8 290.297 29.8ZM290.297 31.18C289.617 31.18 289.037 31.3333 288.557 31.64C288.077 31.9467 287.704 32.3867 287.437 32.96C287.184 33.52 287.057 34.2 287.057 35C287.057 35.7867 287.184 36.4667 287.437 37.04C287.704 37.6133 288.077 38.0533 288.557 38.36C289.037 38.6667 289.617 38.82 290.297 38.82C290.977 38.82 291.557 38.6667 292.037 38.36C292.517 38.0533 292.884 37.6133 293.137 37.04C293.404 36.4667 293.537 35.7867 293.537 35C293.537 34.2 293.404 33.52 293.137 32.96C292.884 32.3867 292.517 31.9467 292.037 31.64C291.557 31.3333 290.977 31.18 290.297 31.18ZM302.033 25.3C302.38 25.3 302.707 25.34 303.013 25.42C303.32 25.5 303.56 25.6133 303.733 25.76L303.313 27.06C303.153 26.9533 302.98 26.88 302.793 26.84C302.607 26.7867 302.4 26.76 302.173 26.76C301.6 26.76 301.153 26.9 300.833 27.18C300.513 27.4467 300.353 27.88 300.353 28.48V30V30.52V40H298.753V28.32C298.753 27.88 298.82 27.4733 298.953 27.1C299.087 26.7267 299.287 26.4067 299.553 26.14C299.833 25.8733 300.18 25.6667 300.593 25.52C301.007 25.3733 301.487 25.3 302.033 25.3ZM303.693 30V31.38H296.753V30H303.693ZM312.54 31.32C312.234 31.32 311.967 31.24 311.74 31.08C311.514 30.9067 311.34 30.6733 311.22 30.38C311.1 30.0867 311.04 29.7533 311.04 29.38C311.04 28.9267 311.114 28.4933 311.26 28.08C311.42 27.6533 311.66 27.26 311.98 26.9C312.3 26.54 312.714 26.24 313.22 26L314.06 26.78C313.7 26.9 313.38 27.0667 313.1 27.28C312.834 27.4933 312.614 27.7333 312.44 28C312.28 28.2667 312.167 28.54 312.1 28.82L312.18 28.86C312.234 28.82 312.3 28.7867 312.38 28.76C312.46 28.7333 312.58 28.72 312.74 28.72C312.9 28.72 313.067 28.7667 313.24 28.86C313.414 28.9533 313.554 29.0933 313.66 29.28C313.78 29.4533 313.84 29.6867 313.84 29.98C313.84 30.22 313.78 30.44 313.66 30.64C313.554 30.84 313.4 31.0067 313.2 31.14C313 31.26 312.78 31.32 312.54 31.32ZM316.3 31.32C315.994 31.32 315.727 31.24 315.5 31.08C315.274 30.9067 315.1 30.6733 314.98 30.38C314.86 30.0867 314.8 29.7533 314.8 29.38C314.8 28.9267 314.874 28.4933 315.02 28.08C315.18 27.6533 315.42 27.26 315.74 26.9C316.06 26.54 316.474 26.24 316.98 26L317.82 26.78C317.46 26.9 317.14 27.0667 316.86 27.28C316.594 27.4933 316.374 27.7333 316.2 28C316.04 28.2667 315.927 28.54 315.86 28.82L315.94 28.86C315.994 28.82 316.06 28.7867 316.14 28.76C316.22 28.7333 316.34 28.72 316.5 28.72C316.66 28.72 316.827 28.7667 317 28.86C317.174 28.9533 317.314 29.0933 317.42 29.28C317.54 29.4533 317.6 29.6867 317.6 29.98C317.6 30.22 317.54 30.44 317.42 30.64C317.314 30.84 317.16 31.0067 316.96 31.14C316.76 31.26 316.54 31.32 316.3 31.32ZM321.008 40V26.8H325.708C327.268 26.8 328.408 27.1267 329.128 27.78C329.848 28.4333 330.208 29.32 330.208 30.44C330.208 31.1067 330.014 31.7133 329.628 32.26C329.241 32.7933 328.694 33.1333 327.988 33.28V33.3C328.774 33.4467 329.394 33.8067 329.848 34.38C330.314 34.94 330.548 35.58 330.548 36.3C330.548 37.42 330.128 38.32 329.288 39C328.448 39.6667 327.248 40 325.688 40H321.008ZM322.608 38.5H326.068C327.014 38.5 327.714 38.3067 328.168 37.92C328.634 37.5333 328.868 36.9933 328.868 36.3C328.868 35.5933 328.634 35.0533 328.168 34.68C327.714 34.2933 327.014 34.1 326.068 34.1H322.608V38.5ZM322.608 32.6H325.728C327.594 32.6 328.528 31.88 328.528 30.44C328.528 29.0133 327.594 28.3 325.728 28.3H322.608V32.6ZM339.614 33.54C339.614 32.7933 339.414 32.22 339.014 31.82C338.614 31.4067 338.047 31.2 337.314 31.2C336.621 31.2 336.034 31.3533 335.554 31.66C335.074 31.9533 334.721 32.4333 334.494 33.1L333.194 32.3C333.461 31.5533 333.954 30.9533 334.674 30.5C335.394 30.0333 336.287 29.8 337.354 29.8C338.074 29.8 338.727 29.9267 339.314 30.18C339.901 30.42 340.361 30.7933 340.694 31.3C341.041 31.7933 341.214 32.4333 341.214 33.22V38.06C341.214 38.54 341.467 38.78 341.974 38.78C342.227 38.78 342.474 38.7467 342.714 38.68L342.634 39.94C342.367 40.0733 342.021 40.14 341.594 40.14C341.207 40.14 340.861 40.0667 340.554 39.92C340.247 39.7733 340.007 39.5533 339.834 39.26C339.661 38.9533 339.574 38.5733 339.574 38.12V37.92L339.974 37.98C339.814 38.5 339.541 38.9267 339.154 39.26C338.767 39.58 338.334 39.82 337.854 39.98C337.374 40.1267 336.901 40.2 336.434 40.2C335.847 40.2 335.301 40.1 334.794 39.9C334.287 39.7 333.881 39.4 333.574 39C333.281 38.5867 333.134 38.08 333.134 37.48C333.134 36.7333 333.381 36.12 333.874 35.64C334.381 35.1467 335.081 34.8133 335.974 34.64L339.934 33.86V35.18L336.714 35.84C336.061 35.9733 335.574 36.16 335.254 36.4C334.934 36.64 334.774 36.9733 334.774 37.4C334.774 37.8133 334.934 38.1533 335.254 38.42C335.587 38.6733 336.054 38.8 336.654 38.8C337.041 38.8 337.407 38.7533 337.754 38.66C338.114 38.5533 338.434 38.4 338.714 38.2C338.994 37.9867 339.214 37.7267 339.374 37.42C339.534 37.1 339.614 36.7267 339.614 36.3V33.54ZM349.002 40.2C348.176 40.2 347.416 39.9933 346.722 39.58C346.029 39.1667 345.476 38.5733 345.062 37.8C344.649 37.0133 344.442 36.08 344.442 35C344.442 33.8933 344.662 32.9533 345.102 32.18C345.542 31.4067 346.122 30.82 346.842 30.42C347.562 30.0067 348.336 29.8 349.162 29.8C349.989 29.8 350.702 30.0133 351.302 30.44C351.916 30.8667 352.322 31.4333 352.522 32.14L352.322 32.28V25.4H353.922V40H352.522L352.382 37.58L352.602 37.46C352.509 38.0467 352.282 38.5467 351.922 38.96C351.576 39.36 351.142 39.6667 350.622 39.88C350.116 40.0933 349.576 40.2 349.002 40.2ZM349.162 38.8C349.802 38.8 350.356 38.64 350.822 38.32C351.302 38 351.669 37.5467 351.922 36.96C352.189 36.36 352.322 35.66 352.322 34.86C352.322 34.1 352.189 33.4467 351.922 32.9C351.669 32.3533 351.309 31.9333 350.842 31.64C350.389 31.3467 349.856 31.2 349.242 31.2C348.229 31.2 347.442 31.5467 346.882 32.24C346.322 32.9333 346.042 33.8533 346.042 35C346.042 36.1467 346.316 37.0667 346.862 37.76C347.409 38.4533 348.176 38.8 349.162 38.8ZM369.758 26.8C371.104 26.8 372.184 27.1467 372.998 27.84C373.811 28.5333 374.218 29.4733 374.218 30.66C374.218 31.8467 373.804 32.7733 372.978 33.44C372.164 34.0933 371.084 34.42 369.738 34.42L369.598 34.52H366.358V40H364.758V26.8H369.758ZM369.738 33.02C370.684 33.02 371.384 32.8267 371.838 32.44C372.304 32.04 372.538 31.4467 372.538 30.66C372.538 29.8733 372.304 29.2867 371.838 28.9C371.384 28.5 370.684 28.3 369.738 28.3H366.358V33.02H369.738ZM370.658 33.34L375.018 40H373.118L369.318 34.22L370.658 33.34ZM381.566 29.8C382.513 29.8 383.346 30.0067 384.066 30.42C384.8 30.8333 385.373 31.4333 385.786 32.22C386.2 32.9933 386.406 33.92 386.406 35C386.406 36.08 386.2 37.0133 385.786 37.8C385.373 38.5733 384.8 39.1667 384.066 39.58C383.346 39.9933 382.513 40.2 381.566 40.2C380.633 40.2 379.8 39.9933 379.066 39.58C378.333 39.1667 377.76 38.5733 377.346 37.8C376.933 37.0133 376.726 36.08 376.726 35C376.726 33.92 376.933 32.9933 377.346 32.22C377.76 31.4333 378.333 30.8333 379.066 30.42C379.8 30.0067 380.633 29.8 381.566 29.8ZM381.566 31.18C380.886 31.18 380.306 31.3333 379.826 31.64C379.346 31.9467 378.973 32.3867 378.706 32.96C378.453 33.52 378.326 34.2 378.326 35C378.326 35.7867 378.453 36.4667 378.706 37.04C378.973 37.6133 379.346 38.0533 379.826 38.36C380.306 38.6667 380.886 38.82 381.566 38.82C382.246 38.82 382.826 38.6667 383.306 38.36C383.786 38.0533 384.153 37.6133 384.406 37.04C384.673 36.4667 384.806 35.7867 384.806 35C384.806 34.2 384.673 33.52 384.406 32.96C384.153 32.3867 383.786 31.9467 383.306 31.64C382.826 31.3333 382.246 31.18 381.566 31.18ZM394.319 40.2C393.759 40.2 393.239 40.1 392.759 39.9C392.279 39.7 391.865 39.42 391.519 39.06C391.172 38.7 390.912 38.2933 390.739 37.84L390.959 37.56L390.819 40H389.419V25.4H391.019V32.26L390.819 31.96C391.085 31.3333 391.532 30.82 392.159 30.42C392.799 30.0067 393.525 29.8 394.339 29.8C395.165 29.8 395.925 30.0067 396.619 30.42C397.312 30.8333 397.865 31.4267 398.279 32.2C398.692 32.9733 398.899 33.9067 398.899 35C398.899 36.08 398.685 37.0133 398.259 37.8C397.845 38.5733 397.292 39.1667 396.599 39.58C395.905 39.9933 395.145 40.2 394.319 40.2ZM394.159 38.8C395.145 38.8 395.912 38.4533 396.459 37.76C397.019 37.0667 397.299 36.1467 397.299 35C397.299 33.8533 397.025 32.9333 396.479 32.24C395.932 31.5467 395.165 31.2 394.179 31.2C393.552 31.2 392.999 31.36 392.519 31.68C392.052 32 391.685 32.4467 391.419 33.02C391.152 33.5933 391.019 34.2667 391.019 35.04C391.019 35.8 391.145 36.4667 391.399 37.04C391.665 37.6 392.032 38.0333 392.499 38.34C392.979 38.6467 393.532 38.8 394.159 38.8ZM406.098 29.8C407.044 29.8 407.878 30.0067 408.598 30.42C409.331 30.8333 409.904 31.4333 410.318 32.22C410.731 32.9933 410.938 33.92 410.938 35C410.938 36.08 410.731 37.0133 410.318 37.8C409.904 38.5733 409.331 39.1667 408.598 39.58C407.878 39.9933 407.044 40.2 406.098 40.2C405.164 40.2 404.331 39.9933 403.598 39.58C402.864 39.1667 402.291 38.5733 401.878 37.8C401.464 37.0133 401.258 36.08 401.258 35C401.258 33.92 401.464 32.9933 401.878 32.22C402.291 31.4333 402.864 30.8333 403.598 30.42C404.331 30.0067 405.164 29.8 406.098 29.8ZM406.098 31.18C405.418 31.18 404.838 31.3333 404.358 31.64C403.878 31.9467 403.504 32.3867 403.238 32.96C402.984 33.52 402.858 34.2 402.858 35C402.858 35.7867 402.984 36.4667 403.238 37.04C403.504 37.6133 403.878 38.0533 404.358 38.36C404.838 38.6667 405.418 38.82 406.098 38.82C406.778 38.82 407.358 38.6667 407.838 38.36C408.318 38.0533 408.684 37.6133 408.938 37.04C409.204 36.4667 409.338 35.7867 409.338 35C409.338 34.2 409.204 33.52 408.938 32.96C408.684 32.3867 408.318 31.9467 407.838 31.64C407.358 31.3333 406.778 31.18 406.098 31.18ZM416.134 27.16V37.24C416.134 37.7333 416.274 38.1 416.554 38.34C416.834 38.58 417.194 38.7 417.634 38.7C418.021 38.7 418.354 38.6333 418.634 38.5C418.914 38.3667 419.167 38.1867 419.394 37.96L419.954 39.3C419.647 39.58 419.281 39.8 418.854 39.96C418.441 40.12 417.961 40.2 417.414 40.2C416.907 40.2 416.434 40.1133 415.994 39.94C415.554 39.7533 415.201 39.4667 414.934 39.08C414.681 38.68 414.547 38.16 414.534 37.52V27.6L416.134 27.16ZM419.774 30V31.38H412.534V30H419.774ZM433.929 26.8C434.823 26.8 435.596 26.9667 436.249 27.3C436.916 27.62 437.436 28.08 437.809 28.68C438.183 29.28 438.369 29.9933 438.369 30.82C438.369 31.6467 438.183 32.36 437.809 32.96C437.436 33.56 436.916 34.0267 436.249 34.36C435.596 34.68 434.823 34.84 433.929 34.84H430.869V40H429.269V26.8H433.929ZM433.689 33.34C434.729 33.34 435.489 33.1267 435.969 32.7C436.449 32.26 436.689 31.6333 436.689 30.82C436.689 29.9933 436.449 29.3667 435.969 28.94C435.489 28.5133 434.729 28.3 433.689 28.3H430.869V33.34H433.689ZM441.176 40V30H442.476L442.696 31.64C442.976 31.0267 443.383 30.5667 443.916 30.26C444.463 29.9533 445.123 29.8 445.896 29.8C446.07 29.8 446.256 29.8133 446.456 29.84C446.67 29.8667 446.85 29.92 446.996 30L446.716 31.46C446.57 31.4067 446.41 31.3667 446.236 31.34C446.063 31.3133 445.816 31.3 445.496 31.3C445.083 31.3 444.663 31.42 444.236 31.66C443.823 31.9 443.476 32.2667 443.196 32.76C442.916 33.24 442.776 33.8533 442.776 34.6V40H441.176ZM453.168 29.8C454.115 29.8 454.948 30.0067 455.668 30.42C456.401 30.8333 456.975 31.4333 457.388 32.22C457.801 32.9933 458.008 33.92 458.008 35C458.008 36.08 457.801 37.0133 457.388 37.8C456.975 38.5733 456.401 39.1667 455.668 39.58C454.948 39.9933 454.115 40.2 453.168 40.2C452.235 40.2 451.401 39.9933 450.668 39.58C449.935 39.1667 449.361 38.5733 448.948 37.8C448.535 37.0133 448.328 36.08 448.328 35C448.328 33.92 448.535 32.9933 448.948 32.22C449.361 31.4333 449.935 30.8333 450.668 30.42C451.401 30.0067 452.235 29.8 453.168 29.8ZM453.168 31.18C452.488 31.18 451.908 31.3333 451.428 31.64C450.948 31.9467 450.575 32.3867 450.308 32.96C450.055 33.52 449.928 34.2 449.928 35C449.928 35.7867 450.055 36.4667 450.308 37.04C450.575 37.6133 450.948 38.0533 451.428 38.36C451.908 38.6667 452.488 38.82 453.168 38.82C453.848 38.82 454.428 38.6667 454.908 38.36C455.388 38.0533 455.755 37.6133 456.008 37.04C456.275 36.4667 456.408 35.7867 456.408 35C456.408 34.2 456.275 33.52 456.008 32.96C455.755 32.3867 455.388 31.9467 454.908 31.64C454.428 31.3333 453.848 31.18 453.168 31.18ZM464.92 40.2C464.093 40.2 463.333 39.9933 462.64 39.58C461.947 39.1667 461.393 38.5733 460.98 37.8C460.567 37.0133 460.36 36.08 460.36 35C460.36 33.8933 460.58 32.9533 461.02 32.18C461.46 31.4067 462.04 30.82 462.76 30.42C463.48 30.0067 464.253 29.8 465.08 29.8C465.907 29.8 466.62 30.0133 467.22 30.44C467.833 30.8667 468.24 31.4333 468.44 32.14L468.24 32.28V25.4H469.84V40H468.44L468.3 37.58L468.52 37.46C468.427 38.0467 468.2 38.5467 467.84 38.96C467.493 39.36 467.06 39.6667 466.54 39.88C466.033 40.0933 465.493 40.2 464.92 40.2ZM465.08 38.8C465.72 38.8 466.273 38.64 466.74 38.32C467.22 38 467.587 37.5467 467.84 36.96C468.107 36.36 468.24 35.66 468.24 34.86C468.24 34.1 468.107 33.4467 467.84 32.9C467.587 32.3533 467.227 31.9333 466.76 31.64C466.307 31.3467 465.773 31.2 465.16 31.2C464.147 31.2 463.36 31.5467 462.8 32.24C462.24 32.9333 461.96 33.8533 461.96 35C461.96 36.1467 462.233 37.0667 462.78 37.76C463.327 38.4533 464.093 38.8 465.08 38.8ZM477.179 40.2C476.539 40.2 475.933 40.08 475.359 39.84C474.799 39.6 474.339 39.2133 473.979 38.68C473.633 38.1333 473.459 37.4267 473.459 36.56V30H475.059V36.14C475.059 37.1533 475.279 37.8533 475.719 38.24C476.159 38.6133 476.779 38.8 477.579 38.8C477.953 38.8 478.319 38.74 478.679 38.62C479.039 38.4867 479.359 38.2867 479.639 38.02C479.933 37.74 480.159 37.3867 480.319 36.96C480.493 36.5333 480.579 36.0267 480.579 35.44V30H482.179V40H480.779L480.679 38.48C480.333 39.08 479.859 39.52 479.259 39.8C478.673 40.0667 477.979 40.2 477.179 40.2ZM490.043 29.8C490.736 29.8 491.343 29.9067 491.863 30.12C492.396 30.3333 492.856 30.64 493.243 31.04C493.63 31.44 493.943 31.9133 494.183 32.46L492.663 33.18C492.45 32.54 492.123 32.0533 491.683 31.72C491.256 31.3733 490.696 31.2 490.003 31.2C489.336 31.2 488.763 31.3533 488.283 31.66C487.803 31.9533 487.436 32.3867 487.183 32.96C486.93 33.52 486.803 34.2 486.803 35C486.803 35.7867 486.93 36.4667 487.183 37.04C487.436 37.6133 487.803 38.0533 488.283 38.36C488.763 38.6533 489.336 38.8 490.003 38.8C490.523 38.8 490.97 38.72 491.343 38.56C491.73 38.4 492.043 38.1667 492.283 37.86C492.536 37.5533 492.71 37.18 492.803 36.74L494.283 37.26C494.056 37.8733 493.743 38.4 493.343 38.84C492.956 39.28 492.483 39.62 491.923 39.86C491.376 40.0867 490.75 40.2 490.043 40.2C489.11 40.2 488.276 39.9933 487.543 39.58C486.81 39.1667 486.236 38.5733 485.823 37.8C485.41 37.0133 485.203 36.08 485.203 35C485.203 33.92 485.41 32.9933 485.823 32.22C486.236 31.4333 486.81 30.8333 487.543 30.42C488.276 30.0067 489.11 29.8 490.043 29.8ZM499.454 27.16V37.24C499.454 37.7333 499.594 38.1 499.874 38.34C500.154 38.58 500.514 38.7 500.954 38.7C501.341 38.7 501.674 38.6333 501.954 38.5C502.234 38.3667 502.488 38.1867 502.714 37.96L503.274 39.3C502.968 39.58 502.601 39.8 502.174 39.96C501.761 40.12 501.281 40.2 500.734 40.2C500.228 40.2 499.754 40.1133 499.314 39.94C498.874 39.7533 498.521 39.4667 498.254 39.08C498.001 38.68 497.868 38.16 497.854 37.52V27.6L499.454 27.16ZM503.094 30V31.38H495.854V30H503.094ZM506.273 28.08C505.913 28.08 505.62 27.9733 505.393 27.76C505.18 27.5333 505.073 27.24 505.073 26.88C505.073 26.52 505.18 26.2333 505.393 26.02C505.62 25.7933 505.913 25.68 506.273 25.68C506.633 25.68 506.92 25.7933 507.133 26.02C507.36 26.2333 507.473 26.52 507.473 26.88C507.473 27.24 507.36 27.5333 507.133 27.76C506.92 27.9733 506.633 28.08 506.273 28.08ZM507.073 30V40H505.473V30H507.073ZM514.926 29.8C515.872 29.8 516.706 30.0067 517.426 30.42C518.159 30.8333 518.732 31.4333 519.146 32.22C519.559 32.9933 519.766 33.92 519.766 35C519.766 36.08 519.559 37.0133 519.146 37.8C518.732 38.5733 518.159 39.1667 517.426 39.58C516.706 39.9933 515.872 40.2 514.926 40.2C513.992 40.2 513.159 39.9933 512.426 39.58C511.692 39.1667 511.119 38.5733 510.706 37.8C510.292 37.0133 510.086 36.08 510.086 35C510.086 33.92 510.292 32.9933 510.706 32.22C511.119 31.4333 511.692 30.8333 512.426 30.42C513.159 30.0067 513.992 29.8 514.926 29.8ZM514.926 31.18C514.246 31.18 513.666 31.3333 513.186 31.64C512.706 31.9467 512.332 32.3867 512.066 32.96C511.812 33.52 511.686 34.2 511.686 35C511.686 35.7867 511.812 36.4667 512.066 37.04C512.332 37.6133 512.706 38.0533 513.186 38.36C513.666 38.6667 514.246 38.82 514.926 38.82C515.606 38.82 516.186 38.6667 516.666 38.36C517.146 38.0533 517.512 37.6133 517.766 37.04C518.032 36.4667 518.166 35.7867 518.166 35C518.166 34.2 518.032 33.52 517.766 32.96C517.512 32.3867 517.146 31.9467 516.666 31.64C516.186 31.3333 515.606 31.18 514.926 31.18ZM522.778 40V30H524.178L524.318 32.24L524.058 32.02C524.271 31.4867 524.558 31.06 524.918 30.74C525.278 30.4067 525.691 30.1667 526.158 30.02C526.638 29.8733 527.131 29.8 527.638 29.8C528.358 29.8 529.011 29.94 529.598 30.22C530.185 30.4867 530.651 30.9 530.998 31.46C531.358 32.02 531.538 32.7333 531.538 33.6V40H529.938V34.16C529.938 33.0533 529.698 32.2867 529.218 31.86C528.751 31.42 528.171 31.2 527.478 31.2C526.998 31.2 526.518 31.3133 526.038 31.54C525.558 31.7667 525.158 32.1333 524.838 32.64C524.531 33.1467 524.378 33.8267 524.378 34.68V40H522.778ZM538.761 40.2C537.787 40.2 536.887 39.9933 536.061 39.58C535.247 39.1667 534.621 38.58 534.181 37.82L535.541 36.84C535.834 37.4533 536.261 37.9333 536.821 38.28C537.394 38.6267 538.081 38.8 538.881 38.8C539.587 38.8 540.141 38.6667 540.541 38.4C540.941 38.12 541.141 37.76 541.141 37.32C541.141 37.04 541.047 36.7867 540.861 36.56C540.687 36.32 540.347 36.1467 539.841 36.04L537.441 35.54C536.467 35.34 535.767 35.0067 535.341 34.54C534.927 34.0733 534.721 33.4933 534.721 32.8C534.721 32.2533 534.874 31.7533 535.181 31.3C535.501 30.8467 535.947 30.4867 536.521 30.22C537.107 29.94 537.794 29.8 538.581 29.8C539.567 29.8 540.401 29.9933 541.081 30.38C541.761 30.7667 542.267 31.3133 542.601 32.02L541.261 32.9C541.034 32.3133 540.667 31.8867 540.161 31.62C539.654 31.34 539.127 31.2 538.581 31.2C538.101 31.2 537.687 31.2667 537.341 31.4C537.007 31.5333 536.747 31.72 536.561 31.96C536.387 32.1867 536.301 32.4467 536.301 32.74C536.301 33.0333 536.401 33.3067 536.601 33.56C536.801 33.8 537.174 33.9733 537.721 34.08L540.221 34.6C541.154 34.7867 541.807 35.0933 542.181 35.52C542.554 35.9467 542.741 36.4667 542.741 37.08C542.741 37.7067 542.574 38.26 542.241 38.74C541.907 39.2067 541.441 39.5667 540.841 39.82C540.241 40.0733 539.547 40.2 538.761 40.2ZM545.765 26C546.085 26 546.351 26.0867 546.565 26.26C546.791 26.42 546.965 26.6467 547.085 26.94C547.205 27.22 547.265 27.5533 547.265 27.94C547.265 28.38 547.185 28.8133 547.025 29.24C546.878 29.6667 546.645 30.06 546.325 30.42C546.005 30.78 545.591 31.08 545.085 31.32L544.245 30.54C544.605 30.42 544.918 30.2533 545.185 30.04C545.465 29.8267 545.691 29.5867 545.865 29.32C546.038 29.0533 546.151 28.78 546.205 28.5L546.125 28.46C546.071 28.5 546.005 28.5333 545.925 28.56C545.845 28.5867 545.725 28.6 545.565 28.6C545.405 28.6 545.238 28.5533 545.065 28.46C544.905 28.3667 544.765 28.2333 544.645 28.06C544.525 27.8733 544.465 27.6333 544.465 27.34C544.465 27.1 544.525 26.88 544.645 26.68C544.765 26.4667 544.918 26.3 545.105 26.18C545.305 26.06 545.525 26 545.765 26ZM549.525 26C549.845 26 550.111 26.0867 550.325 26.26C550.551 26.42 550.725 26.6467 550.845 26.94C550.965 27.22 551.025 27.5533 551.025 27.94C551.025 28.38 550.945 28.8133 550.785 29.24C550.638 29.6667 550.405 30.06 550.085 30.42C549.765 30.78 549.351 31.08 548.845 31.32L548.005 30.54C548.365 30.42 548.678 30.2533 548.945 30.04C549.225 29.8267 549.451 29.5867 549.625 29.32C549.798 29.0533 549.911 28.78 549.965 28.5L549.885 28.46C549.831 28.5 549.765 28.5333 549.685 28.56C549.605 28.5867 549.485 28.6 549.325 28.6C549.165 28.6 548.998 28.5533 548.825 28.46C548.665 28.3667 548.525 28.2333 548.405 28.06C548.285 27.8733 548.225 27.6333 548.225 27.34C548.225 27.1 548.285 26.88 548.405 26.68C548.525 26.4667 548.678 26.3 548.865 26.18C549.065 26.06 549.285 26 549.525 26ZM552.015 37.6C552.335 37.6 552.602 37.6867 552.815 37.86C553.042 38.02 553.215 38.2467 553.335 38.54C553.455 38.82 553.515 39.1533 553.515 39.54C553.515 39.98 553.435 40.4133 553.275 40.84C553.129 41.2667 552.895 41.66 552.575 42.02C552.255 42.38 551.842 42.68 551.335 42.92L550.495 42.14C550.855 42.02 551.169 41.8533 551.435 41.64C551.715 41.4267 551.942 41.1867 552.115 40.92C552.289 40.6533 552.402 40.38 552.455 40.1L552.375 40.06C552.322 40.1 552.255 40.1333 552.175 40.16C552.095 40.1867 551.975 40.2 551.815 40.2C551.655 40.2 551.489 40.1533 551.315 40.06C551.155 39.9667 551.015 39.8333 550.895 39.66C550.775 39.4733 550.715 39.2333 550.715 38.94C550.715 38.7 550.775 38.48 550.895 38.28C551.015 38.0667 551.169 37.9 551.355 37.78C551.555 37.66 551.775 37.6 552.015 37.6ZM6 55.8C6.94667 55.8 7.78 56.0067 8.5 56.42C9.23333 56.8333 9.80667 57.4333 10.22 58.22C10.6333 58.9933 10.84 59.92 10.84 61C10.84 62.08 10.6333 63.0133 10.22 63.8C9.80667 64.5733 9.23333 65.1667 8.5 65.58C7.78 65.9933 6.94667 66.2 6 66.2C5.06667 66.2 4.23333 65.9933 3.5 65.58C2.76667 65.1667 2.19333 64.5733 1.78 63.8C1.36667 63.0133 1.16 62.08 1.16 61C1.16 59.92 1.36667 58.9933 1.78 58.22C2.19333 57.4333 2.76667 56.8333 3.5 56.42C4.23333 56.0067 5.06667 55.8 6 55.8ZM6 57.18C5.32 57.18 4.74 57.3333 4.26 57.64C3.78 57.9467 3.40667 58.3867 3.14 58.96C2.88667 59.52 2.76 60.2 2.76 61C2.76 61.7867 2.88667 62.4667 3.14 63.04C3.40667 63.6133 3.78 64.0533 4.26 64.36C4.74 64.6667 5.32 64.82 6 64.82C6.68 64.82 7.26 64.6667 7.74 64.36C8.22 64.0533 8.58667 63.6133 8.84 63.04C9.10667 62.4667 9.24 61.7867 9.24 61C9.24 60.2 9.10667 59.52 8.84 58.96C8.58667 58.3867 8.22 57.9467 7.74 57.64C7.26 57.3333 6.68 57.18 6 57.18ZM13.8522 66V56H15.2522L15.3922 58.24L15.1322 58.02C15.3455 57.4867 15.6322 57.06 15.9922 56.74C16.3522 56.4067 16.7655 56.1667 17.2322 56.02C17.7122 55.8733 18.2055 55.8 18.7122 55.8C19.4322 55.8 20.0855 55.94 20.6722 56.22C21.2589 56.4867 21.7255 56.9 22.0722 57.46C22.4322 58.02 22.6122 58.7333 22.6122 59.6V66H21.0122V60.16C21.0122 59.0533 20.7722 58.2867 20.2922 57.86C19.8255 57.42 19.2455 57.2 18.5522 57.2C18.0722 57.2 17.5922 57.3133 17.1122 57.54C16.6322 57.7667 16.2322 58.1333 15.9122 58.64C15.6055 59.1467 15.4522 59.8267 15.4522 60.68V66H13.8522ZM30.415 66.2C29.4683 66.2 28.6217 65.9933 27.875 65.58C27.1417 65.1667 26.5683 64.5733 26.155 63.8C25.7417 63.0133 25.535 62.08 25.535 61C25.535 59.92 25.7417 58.9933 26.155 58.22C26.5683 57.4333 27.135 56.8333 27.855 56.42C28.575 56.0067 29.395 55.8 30.315 55.8C31.2483 55.8 32.0417 56 32.695 56.4C33.3617 56.8 33.8683 57.3467 34.215 58.04C34.5617 58.72 34.735 59.4867 34.735 60.34C34.735 60.5667 34.7283 60.7733 34.715 60.96C34.7017 61.1467 34.6817 61.3133 34.655 61.46H26.575V60.04H33.955L33.135 60.2C33.135 59.24 32.8683 58.5 32.335 57.98C31.815 57.46 31.1283 57.2 30.275 57.2C29.6217 57.2 29.055 57.3533 28.575 57.66C28.1083 57.9533 27.7417 58.3867 27.475 58.96C27.2217 59.52 27.095 60.2 27.095 61C27.095 61.7867 27.2283 62.4667 27.495 63.04C27.7617 63.6133 28.135 64.0533 28.615 64.36C29.1083 64.6533 29.695 64.8 30.375 64.8C31.1083 64.8 31.7017 64.66 32.155 64.38C32.6217 64.1 32.995 63.72 33.275 63.24L34.535 63.98C34.2817 64.4333 33.955 64.8267 33.555 65.16C33.1683 65.4933 32.7083 65.7533 32.175 65.94C31.655 66.1133 31.0683 66.2 30.415 66.2ZM48.7344 55.8C49.681 55.8 50.5144 56.0067 51.2344 56.42C51.9677 56.8333 52.541 57.4333 52.9544 58.22C53.3677 58.9933 53.5744 59.92 53.5744 61C53.5744 62.08 53.3677 63.0133 52.9544 63.8C52.541 64.5733 51.9677 65.1667 51.2344 65.58C50.5144 65.9933 49.681 66.2 48.7344 66.2C47.801 66.2 46.9677 65.9933 46.2344 65.58C45.501 65.1667 44.9277 64.5733 44.5144 63.8C44.101 63.0133 43.8944 62.08 43.8944 61C43.8944 59.92 44.101 58.9933 44.5144 58.22C44.9277 57.4333 45.501 56.8333 46.2344 56.42C46.9677 56.0067 47.801 55.8 48.7344 55.8ZM48.7344 57.18C48.0544 57.18 47.4744 57.3333 46.9944 57.64C46.5144 57.9467 46.141 58.3867 45.8744 58.96C45.621 59.52 45.4944 60.2 45.4944 61C45.4944 61.7867 45.621 62.4667 45.8744 63.04C46.141 63.6133 46.5144 64.0533 46.9944 64.36C47.4744 64.6667 48.0544 64.82 48.7344 64.82C49.4144 64.82 49.9944 64.6667 50.4744 64.36C50.9544 64.0533 51.321 63.6133 51.5744 63.04C51.841 62.4667 51.9744 61.7867 51.9744 61C51.9744 60.2 51.841 59.52 51.5744 58.96C51.321 58.3867 50.9544 57.9467 50.4744 57.64C49.9944 57.3333 49.4144 57.18 48.7344 57.18ZM60.4708 51.3C60.8174 51.3 61.1441 51.34 61.4508 51.42C61.7574 51.5 61.9974 51.6133 62.1708 51.76L61.7508 53.06C61.5908 52.9533 61.4174 52.88 61.2308 52.84C61.0441 52.7867 60.8374 52.76 60.6108 52.76C60.0374 52.76 59.5908 52.9 59.2708 53.18C58.9508 53.4467 58.7908 53.88 58.7908 54.48V56V56.52V66H57.1908V54.32C57.1908 53.88 57.2574 53.4733 57.3908 53.1C57.5241 52.7267 57.7241 52.4067 57.9908 52.14C58.2708 51.8733 58.6174 51.6667 59.0308 51.52C59.4441 51.3733 59.9241 51.3 60.4708 51.3ZM62.1308 56V57.38H55.1908V56H62.1308ZM72.2473 53.16V63.24C72.2473 63.7333 72.3873 64.1 72.6673 64.34C72.9473 64.58 73.3073 64.7 73.7473 64.7C74.134 64.7 74.4673 64.6333 74.7473 64.5C75.0273 64.3667 75.2807 64.1867 75.5073 63.96L76.0673 65.3C75.7607 65.58 75.394 65.8 74.9673 65.96C74.554 66.12 74.074 66.2 73.5273 66.2C73.0207 66.2 72.5473 66.1133 72.1073 65.94C71.6673 65.7533 71.314 65.4667 71.0473 65.08C70.794 64.68 70.6607 64.16 70.6473 63.52V53.6L72.2473 53.16ZM75.8873 56V57.38H68.6473V56H75.8873ZM78.2663 66V51.4H79.8663V57.5C80.2129 56.9 80.6729 56.4667 81.2463 56.2C81.8196 55.9333 82.4463 55.8 83.1263 55.8C83.8463 55.8 84.4996 55.94 85.0863 56.22C85.6729 56.4867 86.1396 56.9 86.4863 57.46C86.8463 58.02 87.0263 58.7333 87.0263 59.6V66H85.4263V60.16C85.4263 59.0533 85.1863 58.2867 84.7063 57.86C84.2396 57.42 83.6596 57.2 82.9663 57.2C82.4863 57.2 82.0063 57.3133 81.5263 57.54C81.0463 57.7667 80.6463 58.14 80.3263 58.66C80.0196 59.1667 79.8663 59.8467 79.8663 60.7V66H78.2663ZM94.8291 66.2C93.8824 66.2 93.0357 65.9933 92.2891 65.58C91.5557 65.1667 90.9824 64.5733 90.5691 63.8C90.1557 63.0133 89.9491 62.08 89.9491 61C89.9491 59.92 90.1557 58.9933 90.5691 58.22C90.9824 57.4333 91.5491 56.8333 92.2691 56.42C92.9891 56.0067 93.8091 55.8 94.7291 55.8C95.6624 55.8 96.4557 56 97.1091 56.4C97.7757 56.8 98.2824 57.3467 98.6291 58.04C98.9757 58.72 99.1491 59.4867 99.1491 60.34C99.1491 60.5667 99.1424 60.7733 99.1291 60.96C99.1157 61.1467 99.0957 61.3133 99.0691 61.46H90.9891V60.04H98.3691L97.5491 60.2C97.5491 59.24 97.2824 58.5 96.7491 57.98C96.2291 57.46 95.5424 57.2 94.6891 57.2C94.0357 57.2 93.4691 57.3533 92.9891 57.66C92.5224 57.9533 92.1557 58.3867 91.8891 58.96C91.6357 59.52 91.5091 60.2 91.5091 61C91.5091 61.7867 91.6424 62.4667 91.9091 63.04C92.1757 63.6133 92.5491 64.0533 93.0291 64.36C93.5224 64.6533 94.1091 64.8 94.7891 64.8C95.5224 64.8 96.1157 64.66 96.5691 64.38C97.0357 64.1 97.4091 63.72 97.6891 63.24L98.9491 63.98C98.6957 64.4333 98.3691 64.8267 97.9691 65.16C97.5824 65.4933 97.1224 65.7533 96.5891 65.94C96.0691 66.1133 95.4824 66.2 94.8291 66.2ZM109.008 70.2V56H110.408L110.548 58.44L110.328 58.16C110.502 57.6933 110.762 57.2867 111.108 56.94C111.455 56.58 111.875 56.3 112.368 56.1C112.862 55.9 113.395 55.8 113.968 55.8C114.782 55.8 115.528 56.0067 116.208 56.42C116.902 56.8333 117.455 57.4267 117.868 58.2C118.282 58.9733 118.488 59.9067 118.488 61C118.488 62.08 118.275 63.0133 117.848 63.8C117.435 64.5733 116.882 65.1667 116.188 65.58C115.495 65.9933 114.735 66.2 113.908 66.2C113.082 66.2 112.355 66 111.728 65.6C111.115 65.1867 110.675 64.6667 110.408 64.04L110.608 63.74V70.2H109.008ZM113.748 64.8C114.735 64.8 115.502 64.4533 116.048 63.76C116.608 63.0667 116.888 62.1467 116.888 61C116.888 59.8533 116.615 58.9333 116.068 58.24C115.535 57.5467 114.782 57.2 113.808 57.2C113.168 57.2 112.608 57.36 112.128 57.68C111.648 57.9867 111.275 58.4267 111.008 59C110.742 59.56 110.608 60.2267 110.608 61C110.608 61.76 110.735 62.4267 110.988 63C111.255 63.5733 111.622 64.02 112.088 64.34C112.568 64.6467 113.122 64.8 113.748 64.8ZM121.548 66V56H122.848L123.068 57.64C123.348 57.0267 123.754 56.5667 124.288 56.26C124.834 55.9533 125.494 55.8 126.268 55.8C126.441 55.8 126.628 55.8133 126.828 55.84C127.041 55.8667 127.221 55.92 127.368 56L127.088 57.46C126.941 57.4067 126.781 57.3667 126.608 57.34C126.434 57.3133 126.188 57.3 125.868 57.3C125.454 57.3 125.034 57.42 124.608 57.66C124.194 57.9 123.848 58.2667 123.568 58.76C123.288 59.24 123.148 59.8533 123.148 60.6V66H121.548ZM133.539 55.8C134.486 55.8 135.319 56.0067 136.039 56.42C136.772 56.8333 137.346 57.4333 137.759 58.22C138.172 58.9933 138.379 59.92 138.379 61C138.379 62.08 138.172 63.0133 137.759 63.8C137.346 64.5733 136.772 65.1667 136.039 65.58C135.319 65.9933 134.486 66.2 133.539 66.2C132.606 66.2 131.772 65.9933 131.039 65.58C130.306 65.1667 129.732 64.5733 129.319 63.8C128.906 63.0133 128.699 62.08 128.699 61C128.699 59.92 128.906 58.9933 129.319 58.22C129.732 57.4333 130.306 56.8333 131.039 56.42C131.772 56.0067 132.606 55.8 133.539 55.8ZM133.539 57.18C132.859 57.18 132.279 57.3333 131.799 57.64C131.319 57.9467 130.946 58.3867 130.679 58.96C130.426 59.52 130.299 60.2 130.299 61C130.299 61.7867 130.426 62.4667 130.679 63.04C130.946 63.6133 131.319 64.0533 131.799 64.36C132.279 64.6667 132.859 64.82 133.539 64.82C134.219 64.82 134.799 64.6667 135.279 64.36C135.759 64.0533 136.126 63.6133 136.379 63.04C136.646 62.4667 136.779 61.7867 136.779 61C136.779 60.2 136.646 59.52 136.379 58.96C136.126 58.3867 135.759 57.9467 135.279 57.64C134.799 57.3333 134.219 57.18 133.539 57.18ZM145.291 66.2C144.465 66.2 143.705 65.9933 143.011 65.58C142.318 65.1667 141.765 64.5733 141.351 63.8C140.938 63.0133 140.731 62.08 140.731 61C140.731 59.8933 140.951 58.9533 141.391 58.18C141.831 57.4067 142.411 56.82 143.131 56.42C143.851 56.0067 144.625 55.8 145.451 55.8C146.278 55.8 146.991 56.0133 147.591 56.44C148.205 56.8667 148.611 57.4333 148.811 58.14L148.611 58.28V51.4H150.211V66H148.811L148.671 63.58L148.891 63.46C148.798 64.0467 148.571 64.5467 148.211 64.96C147.865 65.36 147.431 65.6667 146.911 65.88C146.405 66.0933 145.865 66.2 145.291 66.2ZM145.451 64.8C146.091 64.8 146.645 64.64 147.111 64.32C147.591 64 147.958 63.5467 148.211 62.96C148.478 62.36 148.611 61.66 148.611 60.86C148.611 60.1 148.478 59.4467 148.211 58.9C147.958 58.3533 147.598 57.9333 147.131 57.64C146.678 57.3467 146.145 57.2 145.531 57.2C144.518 57.2 143.731 57.5467 143.171 58.24C142.611 58.9333 142.331 59.8533 142.331 61C142.331 62.1467 142.605 63.0667 143.151 63.76C143.698 64.4533 144.465 64.8 145.451 64.8ZM157.55 66.2C156.91 66.2 156.304 66.08 155.73 65.84C155.17 65.6 154.71 65.2133 154.35 64.68C154.004 64.1333 153.83 63.4267 153.83 62.56V56H155.43V62.14C155.43 63.1533 155.65 63.8533 156.09 64.24C156.53 64.6133 157.15 64.8 157.95 64.8C158.324 64.8 158.69 64.74 159.05 64.62C159.41 64.4867 159.73 64.2867 160.01 64.02C160.304 63.74 160.53 63.3867 160.69 62.96C160.864 62.5333 160.95 62.0267 160.95 61.44V56H162.55V66H161.15L161.05 64.48C160.704 65.08 160.23 65.52 159.63 65.8C159.044 66.0667 158.35 66.2 157.55 66.2ZM170.414 55.8C171.107 55.8 171.714 55.9067 172.234 56.12C172.767 56.3333 173.227 56.64 173.614 57.04C174.001 57.44 174.314 57.9133 174.554 58.46L173.034 59.18C172.821 58.54 172.494 58.0533 172.054 57.72C171.627 57.3733 171.067 57.2 170.374 57.2C169.707 57.2 169.134 57.3533 168.654 57.66C168.174 57.9533 167.807 58.3867 167.554 58.96C167.301 59.52 167.174 60.2 167.174 61C167.174 61.7867 167.301 62.4667 167.554 63.04C167.807 63.6133 168.174 64.0533 168.654 64.36C169.134 64.6533 169.707 64.8 170.374 64.8C170.894 64.8 171.341 64.72 171.714 64.56C172.101 64.4 172.414 64.1667 172.654 63.86C172.907 63.5533 173.081 63.18 173.174 62.74L174.654 63.26C174.427 63.8733 174.114 64.4 173.714 64.84C173.327 65.28 172.854 65.62 172.294 65.86C171.747 66.0867 171.121 66.2 170.414 66.2C169.481 66.2 168.647 65.9933 167.914 65.58C167.181 65.1667 166.607 64.5733 166.194 63.8C165.781 63.0133 165.574 62.08 165.574 61C165.574 59.92 165.781 58.9933 166.194 58.22C166.607 57.4333 167.181 56.8333 167.914 56.42C168.647 56.0067 169.481 55.8 170.414 55.8ZM179.825 53.16V63.24C179.825 63.7333 179.965 64.1 180.245 64.34C180.525 64.58 180.885 64.7 181.325 64.7C181.712 64.7 182.045 64.6333 182.325 64.5C182.605 64.3667 182.859 64.1867 183.085 63.96L183.645 65.3C183.339 65.58 182.972 65.8 182.545 65.96C182.132 66.12 181.652 66.2 181.105 66.2C180.599 66.2 180.125 66.1133 179.685 65.94C179.245 65.7533 178.892 65.4667 178.625 65.08C178.372 64.68 178.239 64.16 178.225 63.52V53.6L179.825 53.16ZM183.465 56V57.38H176.225V56H183.465ZM186.644 54.08C186.284 54.08 185.991 53.9733 185.764 53.76C185.551 53.5333 185.444 53.24 185.444 52.88C185.444 52.52 185.551 52.2333 185.764 52.02C185.991 51.7933 186.284 51.68 186.644 51.68C187.004 51.68 187.291 51.7933 187.504 52.02C187.731 52.2333 187.844 52.52 187.844 52.88C187.844 53.24 187.731 53.5333 187.504 53.76C187.291 53.9733 187.004 54.08 186.644 54.08ZM187.444 56V66H185.844V56H187.444ZM195.297 55.8C196.244 55.8 197.077 56.0067 197.797 56.42C198.53 56.8333 199.104 57.4333 199.517 58.22C199.93 58.9933 200.137 59.92 200.137 61C200.137 62.08 199.93 63.0133 199.517 63.8C199.104 64.5733 198.53 65.1667 197.797 65.58C197.077 65.9933 196.244 66.2 195.297 66.2C194.364 66.2 193.53 65.9933 192.797 65.58C192.064 65.1667 191.49 64.5733 191.077 63.8C190.664 63.0133 190.457 62.08 190.457 61C190.457 59.92 190.664 58.9933 191.077 58.22C191.49 57.4333 192.064 56.8333 192.797 56.42C193.53 56.0067 194.364 55.8 195.297 55.8ZM195.297 57.18C194.617 57.18 194.037 57.3333 193.557 57.64C193.077 57.9467 192.704 58.3867 192.437 58.96C192.184 59.52 192.057 60.2 192.057 61C192.057 61.7867 192.184 62.4667 192.437 63.04C192.704 63.6133 193.077 64.0533 193.557 64.36C194.037 64.6667 194.617 64.82 195.297 64.82C195.977 64.82 196.557 64.6667 197.037 64.36C197.517 64.0533 197.884 63.6133 198.137 63.04C198.404 62.4667 198.537 61.7867 198.537 61C198.537 60.2 198.404 59.52 198.137 58.96C197.884 58.3867 197.517 57.9467 197.037 57.64C196.557 57.3333 195.977 57.18 195.297 57.18ZM203.149 66V56H204.549L204.689 58.24L204.429 58.02C204.642 57.4867 204.929 57.06 205.289 56.74C205.649 56.4067 206.062 56.1667 206.529 56.02C207.009 55.8733 207.502 55.8 208.009 55.8C208.729 55.8 209.382 55.94 209.969 56.22C210.556 56.4867 211.022 56.9 211.369 57.46C211.729 58.02 211.909 58.7333 211.909 59.6V66H210.309V60.16C210.309 59.0533 210.069 58.2867 209.589 57.86C209.122 57.42 208.542 57.2 207.849 57.2C207.369 57.2 206.889 57.3133 206.409 57.54C205.929 57.7667 205.529 58.1333 205.209 58.64C204.902 59.1467 204.749 59.8267 204.749 60.68V66H203.149ZM226.488 55.8C227.182 55.8 227.788 55.9067 228.308 56.12C228.842 56.3333 229.302 56.64 229.688 57.04C230.075 57.44 230.388 57.9133 230.628 58.46L229.108 59.18C228.895 58.54 228.568 58.0533 228.128 57.72C227.702 57.3733 227.142 57.2 226.448 57.2C225.782 57.2 225.208 57.3533 224.728 57.66C224.248 57.9533 223.882 58.3867 223.628 58.96C223.375 59.52 223.248 60.2 223.248 61C223.248 61.7867 223.375 62.4667 223.628 63.04C223.882 63.6133 224.248 64.0533 224.728 64.36C225.208 64.6533 225.782 64.8 226.448 64.8C226.968 64.8 227.415 64.72 227.788 64.56C228.175 64.4 228.488 64.1667 228.728 63.86C228.982 63.5533 229.155 63.18 229.248 62.74L230.728 63.26C230.502 63.8733 230.188 64.4 229.788 64.84C229.402 65.28 228.928 65.62 228.368 65.86C227.822 66.0867 227.195 66.2 226.488 66.2C225.555 66.2 224.722 65.9933 223.988 65.58C223.255 65.1667 222.682 64.5733 222.268 63.8C221.855 63.0133 221.648 62.08 221.648 61C221.648 59.92 221.855 58.9933 222.268 58.22C222.682 57.4333 223.255 56.8333 223.988 56.42C224.722 56.0067 225.555 55.8 226.488 55.8ZM237.68 55.8C238.626 55.8 239.46 56.0067 240.18 56.42C240.913 56.8333 241.486 57.4333 241.9 58.22C242.313 58.9933 242.52 59.92 242.52 61C242.52 62.08 242.313 63.0133 241.9 63.8C241.486 64.5733 240.913 65.1667 240.18 65.58C239.46 65.9933 238.626 66.2 237.68 66.2C236.746 66.2 235.913 65.9933 235.18 65.58C234.446 65.1667 233.873 64.5733 233.46 63.8C233.046 63.0133 232.84 62.08 232.84 61C232.84 59.92 233.046 58.9933 233.46 58.22C233.873 57.4333 234.446 56.8333 235.18 56.42C235.913 56.0067 236.746 55.8 237.68 55.8ZM237.68 57.18C237 57.18 236.42 57.3333 235.94 57.64C235.46 57.9467 235.086 58.3867 234.82 58.96C234.566 59.52 234.44 60.2 234.44 61C234.44 61.7867 234.566 62.4667 234.82 63.04C235.086 63.6133 235.46 64.0533 235.94 64.36C236.42 64.6667 237 64.82 237.68 64.82C238.36 64.82 238.94 64.6667 239.42 64.36C239.9 64.0533 240.266 63.6133 240.52 63.04C240.786 62.4667 240.92 61.7867 240.92 61C240.92 60.2 240.786 59.52 240.52 58.96C240.266 58.3867 239.9 57.9467 239.42 57.64C238.94 57.3333 238.36 57.18 237.68 57.18ZM245.532 66V56H246.932L247.032 57.56C247.392 56.9467 247.859 56.5 248.432 56.22C249.019 55.94 249.619 55.8 250.232 55.8C250.939 55.8 251.605 55.96 252.232 56.28C252.859 56.6 253.339 57.0933 253.672 57.76C253.885 57.3067 254.185 56.94 254.572 56.66C254.959 56.3667 255.379 56.1533 255.832 56.02C256.299 55.8733 256.739 55.8 257.152 55.8C257.792 55.8 258.399 55.9333 258.972 56.2C259.559 56.4667 260.039 56.88 260.412 57.44C260.785 58 260.972 58.72 260.972 59.6V66H259.372V59.76C259.372 58.8533 259.145 58.2 258.692 57.8C258.239 57.4 257.679 57.2 257.012 57.2C256.492 57.2 256.005 57.3267 255.552 57.58C255.099 57.8333 254.732 58.2067 254.452 58.7C254.185 59.1933 254.052 59.8 254.052 60.52V66H252.452V59.76C252.452 58.8533 252.225 58.2 251.772 57.8C251.319 57.4 250.759 57.2 250.092 57.2C249.652 57.2 249.199 57.32 248.732 57.56C248.279 57.7867 247.899 58.1533 247.592 58.66C247.285 59.1667 247.132 59.8333 247.132 60.66V66H245.532ZM264.594 70.2V56H265.994L266.134 58.44L265.914 58.16C266.088 57.6933 266.348 57.2867 266.694 56.94C267.041 56.58 267.461 56.3 267.954 56.1C268.448 55.9 268.981 55.8 269.554 55.8C270.368 55.8 271.114 56.0067 271.794 56.42C272.488 56.8333 273.041 57.4267 273.454 58.2C273.868 58.9733 274.074 59.9067 274.074 61C274.074 62.08 273.861 63.0133 273.434 63.8C273.021 64.5733 272.468 65.1667 271.774 65.58C271.081 65.9933 270.321 66.2 269.494 66.2C268.668 66.2 267.941 66 267.314 65.6C266.701 65.1867 266.261 64.6667 265.994 64.04L266.194 63.74V70.2H264.594ZM269.334 64.8C270.321 64.8 271.088 64.4533 271.634 63.76C272.194 63.0667 272.474 62.1467 272.474 61C272.474 59.8533 272.201 58.9333 271.654 58.24C271.121 57.5467 270.368 57.2 269.394 57.2C268.754 57.2 268.194 57.36 267.714 57.68C267.234 57.9867 266.861 58.4267 266.594 59C266.328 59.56 266.194 60.2267 266.194 61C266.194 61.76 266.321 62.4267 266.574 63C266.841 63.5733 267.208 64.02 267.674 64.34C268.154 64.6467 268.708 64.8 269.334 64.8ZM282.973 59.54C282.973 58.7933 282.773 58.22 282.373 57.82C281.973 57.4067 281.407 57.2 280.673 57.2C279.98 57.2 279.393 57.3533 278.913 57.66C278.433 57.9533 278.08 58.4333 277.853 59.1L276.553 58.3C276.82 57.5533 277.313 56.9533 278.033 56.5C278.753 56.0333 279.647 55.8 280.713 55.8C281.433 55.8 282.087 55.9267 282.673 56.18C283.26 56.42 283.72 56.7933 284.053 57.3C284.4 57.7933 284.573 58.4333 284.573 59.22V64.06C284.573 64.54 284.827 64.78 285.333 64.78C285.587 64.78 285.833 64.7467 286.073 64.68L285.993 65.94C285.727 66.0733 285.38 66.14 284.953 66.14C284.567 66.14 284.22 66.0667 283.913 65.92C283.607 65.7733 283.367 65.5533 283.193 65.26C283.02 64.9533 282.933 64.5733 282.933 64.12V63.92L283.333 63.98C283.173 64.5 282.9 64.9267 282.513 65.26C282.127 65.58 281.693 65.82 281.213 65.98C280.733 66.1267 280.26 66.2 279.793 66.2C279.207 66.2 278.66 66.1 278.153 65.9C277.647 65.7 277.24 65.4 276.933 65C276.64 64.5867 276.493 64.08 276.493 63.48C276.493 62.7333 276.74 62.12 277.233 61.64C277.74 61.1467 278.44 60.8133 279.333 60.64L283.293 59.86V61.18L280.073 61.84C279.42 61.9733 278.933 62.16 278.613 62.4C278.293 62.64 278.133 62.9733 278.133 63.4C278.133 63.8133 278.293 64.1533 278.613 64.42C278.947 64.6733 279.413 64.8 280.013 64.8C280.4 64.8 280.767 64.7533 281.113 64.66C281.473 64.5533 281.793 64.4 282.073 64.2C282.353 63.9867 282.573 63.7267 282.733 63.42C282.893 63.1 282.973 62.7267 282.973 62.3V59.54ZM288.462 66V56H289.862L290.002 58.24L289.742 58.02C289.955 57.4867 290.242 57.06 290.602 56.74C290.962 56.4067 291.375 56.1667 291.842 56.02C292.322 55.8733 292.815 55.8 293.322 55.8C294.042 55.8 294.695 55.94 295.282 56.22C295.868 56.4867 296.335 56.9 296.682 57.46C297.042 58.02 297.222 58.7333 297.222 59.6V66H295.622V60.16C295.622 59.0533 295.382 58.2867 294.902 57.86C294.435 57.42 293.855 57.2 293.162 57.2C292.682 57.2 292.202 57.3133 291.722 57.54C291.242 57.7667 290.842 58.1333 290.522 58.64C290.215 59.1467 290.062 59.8267 290.062 60.68V66H288.462ZM301.644 54.08C301.284 54.08 300.991 53.9733 300.764 53.76C300.551 53.5333 300.444 53.24 300.444 52.88C300.444 52.52 300.551 52.2333 300.764 52.02C300.991 51.7933 301.284 51.68 301.644 51.68C302.004 51.68 302.291 51.7933 302.504 52.02C302.731 52.2333 302.844 52.52 302.844 52.88C302.844 53.24 302.731 53.5333 302.504 53.76C302.291 53.9733 302.004 54.08 301.644 54.08ZM302.444 56V66H300.844V56H302.444ZM310.337 66.2C309.39 66.2 308.544 65.9933 307.797 65.58C307.064 65.1667 306.49 64.5733 306.077 63.8C305.664 63.0133 305.457 62.08 305.457 61C305.457 59.92 305.664 58.9933 306.077 58.22C306.49 57.4333 307.057 56.8333 307.777 56.42C308.497 56.0067 309.317 55.8 310.237 55.8C311.17 55.8 311.964 56 312.617 56.4C313.284 56.8 313.79 57.3467 314.137 58.04C314.484 58.72 314.657 59.4867 314.657 60.34C314.657 60.5667 314.65 60.7733 314.637 60.96C314.624 61.1467 314.604 61.3133 314.577 61.46H306.497V60.04H313.877L313.057 60.2C313.057 59.24 312.79 58.5 312.257 57.98C311.737 57.46 311.05 57.2 310.197 57.2C309.544 57.2 308.977 57.3533 308.497 57.66C308.03 57.9533 307.664 58.3867 307.397 58.96C307.144 59.52 307.017 60.2 307.017 61C307.017 61.7867 307.15 62.4667 307.417 63.04C307.684 63.6133 308.057 64.0533 308.537 64.36C309.03 64.6533 309.617 64.8 310.297 64.8C311.03 64.8 311.624 64.66 312.077 64.38C312.544 64.1 312.917 63.72 313.197 63.24L314.457 63.98C314.204 64.4333 313.877 64.8267 313.477 65.16C313.09 65.4933 312.63 65.7533 312.097 65.94C311.577 66.1133 310.99 66.2 310.337 66.2ZM321.3 66.2C320.327 66.2 319.427 65.9933 318.6 65.58C317.787 65.1667 317.16 64.58 316.72 63.82L318.08 62.84C318.373 63.4533 318.8 63.9333 319.36 64.28C319.933 64.6267 320.62 64.8 321.42 64.8C322.127 64.8 322.68 64.6667 323.08 64.4C323.48 64.12 323.68 63.76 323.68 63.32C323.68 63.04 323.587 62.7867 323.4 62.56C323.227 62.32 322.887 62.1467 322.38 62.04L319.98 61.54C319.007 61.34 318.307 61.0067 317.88 60.54C317.467 60.0733 317.26 59.4933 317.26 58.8C317.26 58.2533 317.413 57.7533 317.72 57.3C318.04 56.8467 318.487 56.4867 319.06 56.22C319.647 55.94 320.333 55.8 321.12 55.8C322.107 55.8 322.94 55.9933 323.62 56.38C324.3 56.7667 324.807 57.3133 325.14 58.02L323.8 58.9C323.573 58.3133 323.207 57.8867 322.7 57.62C322.193 57.34 321.667 57.2 321.12 57.2C320.64 57.2 320.227 57.2667 319.88 57.4C319.547 57.5333 319.287 57.72 319.1 57.96C318.927 58.1867 318.84 58.4467 318.84 58.74C318.84 59.0333 318.94 59.3067 319.14 59.56C319.34 59.8 319.713 59.9733 320.26 60.08L322.76 60.6C323.693 60.7867 324.347 61.0933 324.72 61.52C325.093 61.9467 325.28 62.4667 325.28 63.08C325.28 63.7067 325.113 64.26 324.78 64.74C324.447 65.2067 323.98 65.5667 323.38 65.82C322.78 66.0733 322.087 66.2 321.3 66.2ZM339.963 66.2C339.403 66.2 338.883 66.1 338.403 65.9C337.923 65.7 337.51 65.42 337.163 65.06C336.816 64.7 336.556 64.2933 336.383 63.84L336.603 63.56L336.463 66H335.063V51.4H336.663V58.26L336.463 57.96C336.73 57.3333 337.176 56.82 337.803 56.42C338.443 56.0067 339.17 55.8 339.983 55.8C340.81 55.8 341.57 56.0067 342.263 56.42C342.956 56.8333 343.51 57.4267 343.923 58.2C344.336 58.9733 344.543 59.9067 344.543 61C344.543 62.08 344.33 63.0133 343.903 63.8C343.49 64.5733 342.936 65.1667 342.243 65.58C341.55 65.9933 340.79 66.2 339.963 66.2ZM339.803 64.8C340.79 64.8 341.556 64.4533 342.103 63.76C342.663 63.0667 342.943 62.1467 342.943 61C342.943 59.8533 342.67 58.9333 342.123 58.24C341.576 57.5467 340.81 57.2 339.823 57.2C339.196 57.2 338.643 57.36 338.163 57.68C337.696 58 337.33 58.4467 337.063 59.02C336.796 59.5933 336.663 60.2667 336.663 61.04C336.663 61.8 336.79 62.4667 337.043 63.04C337.31 63.6 337.676 64.0333 338.143 64.34C338.623 64.6467 339.176 64.8 339.803 64.8ZM351.782 66.2C350.836 66.2 349.989 65.9933 349.242 65.58C348.509 65.1667 347.936 64.5733 347.522 63.8C347.109 63.0133 346.902 62.08 346.902 61C346.902 59.92 347.109 58.9933 347.522 58.22C347.936 57.4333 348.502 56.8333 349.222 56.42C349.942 56.0067 350.762 55.8 351.682 55.8C352.616 55.8 353.409 56 354.062 56.4C354.729 56.8 355.236 57.3467 355.582 58.04C355.929 58.72 356.102 59.4867 356.102 60.34C356.102 60.5667 356.096 60.7733 356.082 60.96C356.069 61.1467 356.049 61.3133 356.022 61.46H347.942V60.04H355.322L354.502 60.2C354.502 59.24 354.236 58.5 353.702 57.98C353.182 57.46 352.496 57.2 351.642 57.2C350.989 57.2 350.422 57.3533 349.942 57.66C349.476 57.9533 349.109 58.3867 348.842 58.96C348.589 59.52 348.462 60.2 348.462 61C348.462 61.7867 348.596 62.4667 348.862 63.04C349.129 63.6133 349.502 64.0533 349.982 64.36C350.476 64.6533 351.062 64.8 351.742 64.8C352.476 64.8 353.069 64.66 353.522 64.38C353.989 64.1 354.362 63.72 354.642 63.24L355.902 63.98C355.649 64.4333 355.322 64.8267 354.922 65.16C354.536 65.4933 354.076 65.7533 353.542 65.94C353.022 66.1133 352.436 66.2 351.782 66.2ZM359.145 66V51.4H360.745V57.5C361.092 56.9 361.552 56.4667 362.125 56.2C362.698 55.9333 363.325 55.8 364.005 55.8C364.725 55.8 365.378 55.94 365.965 56.22C366.552 56.4867 367.018 56.9 367.365 57.46C367.725 58.02 367.905 58.7333 367.905 59.6V66H366.305V60.16C366.305 59.0533 366.065 58.2867 365.585 57.86C365.118 57.42 364.538 57.2 363.845 57.2C363.365 57.2 362.885 57.3133 362.405 57.54C361.925 57.7667 361.525 58.14 361.205 58.66C360.898 59.1667 360.745 59.8467 360.745 60.7V66H359.145ZM372.328 54.08C371.968 54.08 371.675 53.9733 371.448 53.76C371.235 53.5333 371.128 53.24 371.128 52.88C371.128 52.52 371.235 52.2333 371.448 52.02C371.675 51.7933 371.968 51.68 372.328 51.68C372.688 51.68 372.975 51.7933 373.188 52.02C373.415 52.2333 373.528 52.52 373.528 52.88C373.528 53.24 373.415 53.5333 373.188 53.76C372.975 53.9733 372.688 54.08 372.328 54.08ZM373.128 56V66H371.528V56H373.128ZM376.84 66V56H378.24L378.38 58.24L378.12 58.02C378.334 57.4867 378.62 57.06 378.98 56.74C379.34 56.4067 379.754 56.1667 380.22 56.02C380.7 55.8733 381.194 55.8 381.7 55.8C382.42 55.8 383.074 55.94 383.66 56.22C384.247 56.4867 384.714 56.9 385.06 57.46C385.42 58.02 385.6 58.7333 385.6 59.6V66H384V60.16C384 59.0533 383.76 58.2867 383.28 57.86C382.814 57.42 382.234 57.2 381.54 57.2C381.06 57.2 380.58 57.3133 380.1 57.54C379.62 57.7667 379.22 58.1333 378.9 58.64C378.594 59.1467 378.44 59.8267 378.44 60.68V66H376.84ZM393.123 66.2C392.297 66.2 391.537 65.9933 390.843 65.58C390.15 65.1667 389.597 64.5733 389.183 63.8C388.77 63.0133 388.563 62.08 388.563 61C388.563 59.8933 388.783 58.9533 389.223 58.18C389.663 57.4067 390.243 56.82 390.963 56.42C391.683 56.0067 392.457 55.8 393.283 55.8C394.11 55.8 394.823 56.0133 395.423 56.44C396.037 56.8667 396.443 57.4333 396.643 58.14L396.443 58.28V51.4H398.043V66H396.643L396.503 63.58L396.723 63.46C396.63 64.0467 396.403 64.5467 396.043 64.96C395.697 65.36 395.263 65.6667 394.743 65.88C394.237 66.0933 393.697 66.2 393.123 66.2ZM393.283 64.8C393.923 64.8 394.477 64.64 394.943 64.32C395.423 64 395.79 63.5467 396.043 62.96C396.31 62.36 396.443 61.66 396.443 60.86C396.443 60.1 396.31 59.4467 396.043 58.9C395.79 58.3533 395.43 57.9333 394.963 57.64C394.51 57.3467 393.977 57.2 393.363 57.2C392.35 57.2 391.563 57.5467 391.003 58.24C390.443 58.9333 390.163 59.8533 390.163 61C390.163 62.1467 390.437 63.0667 390.983 63.76C391.53 64.4533 392.297 64.8 393.283 64.8ZM410.548 53.16V63.24C410.548 63.7333 410.688 64.1 410.968 64.34C411.248 64.58 411.608 64.7 412.048 64.7C412.435 64.7 412.768 64.6333 413.048 64.5C413.328 64.3667 413.581 64.1867 413.808 63.96L414.368 65.3C414.061 65.58 413.695 65.8 413.268 65.96C412.855 66.12 412.375 66.2 411.828 66.2C411.321 66.2 410.848 66.1133 410.408 65.94C409.968 65.7533 409.615 65.4667 409.348 65.08C409.095 64.68 408.961 64.16 408.948 63.52V53.6L410.548 53.16ZM414.188 56V57.38H406.948V56H414.188ZM416.567 66V51.4H418.167V57.5C418.514 56.9 418.974 56.4667 419.547 56.2C420.12 55.9333 420.747 55.8 421.427 55.8C422.147 55.8 422.8 55.94 423.387 56.22C423.974 56.4867 424.44 56.9 424.787 57.46C425.147 58.02 425.327 58.7333 425.327 59.6V66H423.727V60.16C423.727 59.0533 423.487 58.2867 423.007 57.86C422.54 57.42 421.96 57.2 421.267 57.2C420.787 57.2 420.307 57.3133 419.827 57.54C419.347 57.7667 418.947 58.14 418.627 58.66C418.32 59.1667 418.167 59.8467 418.167 60.7V66H416.567ZM433.13 66.2C432.183 66.2 431.337 65.9933 430.59 65.58C429.857 65.1667 429.283 64.5733 428.87 63.8C428.457 63.0133 428.25 62.08 428.25 61C428.25 59.92 428.457 58.9933 428.87 58.22C429.283 57.4333 429.85 56.8333 430.57 56.42C431.29 56.0067 432.11 55.8 433.03 55.8C433.963 55.8 434.757 56 435.41 56.4C436.077 56.8 436.583 57.3467 436.93 58.04C437.277 58.72 437.45 59.4867 437.45 60.34C437.45 60.5667 437.443 60.7733 437.43 60.96C437.417 61.1467 437.397 61.3133 437.37 61.46H429.29V60.04H436.67L435.85 60.2C435.85 59.24 435.583 58.5 435.05 57.98C434.53 57.46 433.843 57.2 432.99 57.2C432.337 57.2 431.77 57.3533 431.29 57.66C430.823 57.9533 430.457 58.3867 430.19 58.96C429.937 59.52 429.81 60.2 429.81 61C429.81 61.7867 429.943 62.4667 430.21 63.04C430.477 63.6133 430.85 64.0533 431.33 64.36C431.823 64.6533 432.41 64.8 433.09 64.8C433.823 64.8 434.417 64.66 434.87 64.38C435.337 64.1 435.71 63.72 435.99 63.24L437.25 63.98C436.997 64.4333 436.67 64.8267 436.27 65.16C435.883 65.4933 435.423 65.7533 434.89 65.94C434.37 66.1133 433.783 66.2 433.13 66.2ZM450.998 51.3C451.345 51.3 451.671 51.34 451.978 51.42C452.285 51.5 452.525 51.6133 452.698 51.76L452.278 53.06C452.118 52.9533 451.945 52.88 451.758 52.84C451.571 52.7867 451.365 52.76 451.138 52.76C450.565 52.76 450.118 52.9 449.798 53.18C449.478 53.4467 449.318 53.88 449.318 54.48V56V56.52V66H447.718V54.32C447.718 53.88 447.785 53.4733 447.918 53.1C448.051 52.7267 448.251 52.4067 448.518 52.14C448.798 51.8733 449.145 51.6667 449.558 51.52C449.971 51.3733 450.451 51.3 450.998 51.3ZM452.658 56V57.38H445.718V56H452.658ZM455.598 54.08C455.238 54.08 454.945 53.9733 454.718 53.76C454.505 53.5333 454.398 53.24 454.398 52.88C454.398 52.52 454.505 52.2333 454.718 52.02C454.945 51.7933 455.238 51.68 455.598 51.68C455.958 51.68 456.245 51.7933 456.458 52.02C456.685 52.2333 456.798 52.52 456.798 52.88C456.798 53.24 456.685 53.5333 456.458 53.76C456.245 53.9733 455.958 54.08 455.598 54.08ZM456.398 56V66H454.798V56H456.398ZM461.642 51.4V63.46C461.642 63.9667 461.735 64.32 461.922 64.52C462.108 64.7067 462.408 64.8 462.822 64.8C463.088 64.8 463.308 64.78 463.482 64.74C463.655 64.7 463.888 64.6267 464.182 64.52L463.922 65.92C463.708 66.0133 463.475 66.08 463.222 66.12C462.968 66.1733 462.708 66.2 462.442 66.2C461.628 66.2 461.022 65.98 460.622 65.54C460.235 65.1 460.042 64.4267 460.042 63.52V51.4H461.642ZM466.235 66V56H467.635L467.735 57.56C468.095 56.9467 468.562 56.5 469.135 56.22C469.722 55.94 470.322 55.8 470.935 55.8C471.642 55.8 472.308 55.96 472.935 56.28C473.562 56.6 474.042 57.0933 474.375 57.76C474.588 57.3067 474.888 56.94 475.275 56.66C475.662 56.3667 476.082 56.1533 476.535 56.02C477.002 55.8733 477.442 55.8 477.855 55.8C478.495 55.8 479.102 55.9333 479.675 56.2C480.262 56.4667 480.742 56.88 481.115 57.44C481.488 58 481.675 58.72 481.675 59.6V66H480.075V59.76C480.075 58.8533 479.848 58.2 479.395 57.8C478.942 57.4 478.382 57.2 477.715 57.2C477.195 57.2 476.708 57.3267 476.255 57.58C475.802 57.8333 475.435 58.2067 475.155 58.7C474.888 59.1933 474.755 59.8 474.755 60.52V66H473.155V59.76C473.155 58.8533 472.928 58.2 472.475 57.8C472.022 57.4 471.462 57.2 470.795 57.2C470.355 57.2 469.902 57.32 469.435 57.56C468.982 57.7867 468.602 58.1533 468.295 58.66C467.988 59.1667 467.835 59.8333 467.835 60.66V66H466.235ZM486.098 63.6C486.484 63.6 486.798 63.72 487.038 63.96C487.278 64.2 487.398 64.5133 487.398 64.9C487.398 65.2867 487.278 65.6 487.038 65.84C486.798 66.08 486.484 66.2 486.098 66.2C485.711 66.2 485.398 66.08 485.158 65.84C484.918 65.6 484.798 65.2867 484.798 64.9C484.798 64.5133 484.918 64.2 485.158 63.96C485.398 63.72 485.711 63.6 486.098 63.6Z" fill="white"/>
</svg>
