<svg width="577" height="71" viewBox="0 0 577 71" fill="none" xmlns="http://www.w3.org/2000/svg">
<path d="M13.32 0.799999V4.22H9.2V14H4.54V4.22H0.4V0.799999H13.32ZM27.6509 0.799999V14H22.9909V0.799999H27.6509ZM19.3709 0.799999V14H14.7109V0.799999H19.3709ZM25.5709 5.66V9.08H16.9509V5.66H25.5709ZM29.6523 14V0.799999H40.6123V4.22H34.3123V5.86H39.3923V9.02H34.3123V10.58H40.8523V14H29.6523ZM53.6519 0.799999C55.7185 0.799999 57.2785 1.37333 58.3319 2.52C59.3852 3.66667 59.9119 5.29333 59.9119 7.4C59.9119 9.49333 59.3852 11.12 58.3319 12.28C57.2785 13.4267 55.7185 14 53.6519 14H47.1719V0.799999H53.6519ZM52.9919 10.68C53.8585 10.68 54.4319 10.42 54.7119 9.9C55.0052 9.36667 55.1519 8.53333 55.1519 7.4C55.1519 6.26667 55.0052 5.44 54.7119 4.92C54.4319 4.38667 53.8585 4.12 52.9919 4.12H51.8319V10.68H52.9919ZM73.9409 14H69.1809L68.5809 11.48H65.0209L64.4009 14H59.7609L64.0409 0.799999H69.6409L73.9409 14ZM65.7209 8.58H67.9009L66.8209 4L65.7209 8.58ZM81.91 0.799999C83.63 0.799999 84.95 1.18667 85.87 1.96C86.79 2.72 87.25 3.73333 87.25 5C87.25 6.45333 86.7967 7.54667 85.89 8.28C84.9967 9.01333 83.69 9.38 81.97 9.38L81.51 9.62H79.31V14H74.75V0.799999H81.91ZM81.11 6.56C81.6033 6.56 81.97 6.47333 82.21 6.3C82.4633 6.11333 82.59 5.79333 82.59 5.34C82.59 4.9 82.4633 4.58667 82.21 4.4C81.97 4.21333 81.6033 4.12 81.11 4.12H79.31V6.56H81.11ZM83.87 7.54L87.99 14H82.93L79.85 8.22L83.87 7.54ZM101.912 0.799999L95.4316 9.22L95.2316 8.2L92.3316 12.16L91.2516 8.94L96.9516 0.799999H101.912ZM93.5116 0.799999V14H88.8516V0.799999H93.5116ZM97.1916 4.82L102.272 14H97.0516L93.7716 7.4L97.1916 4.82ZM121.248 0.799999L114.768 9.22L114.568 8.2L111.668 12.16L110.588 8.94L116.288 0.799999H121.248ZM112.848 0.799999V14H108.188V0.799999H112.848ZM116.528 4.82L121.608 14H116.388L113.108 7.4L116.528 4.82ZM135.443 0.799999V14H130.403L127.243 8L126.523 6.38H126.483L126.563 9.1V14H122.523V0.799999H127.563L130.723 6.82L131.443 8.42H131.483L131.403 5.7V0.799999H135.443ZM142.105 0.799999V14H137.445V0.799999H142.105ZM149.665 14.2C148.532 14.2 147.512 13.9533 146.605 13.46C145.699 12.9533 144.985 12.2 144.465 11.2C143.945 10.1867 143.685 8.93333 143.685 7.44C143.685 6 143.952 4.77333 144.485 3.76C145.032 2.73333 145.819 1.95333 146.845 1.42C147.872 0.873333 149.099 0.6 150.525 0.6C152.152 0.6 153.452 0.886666 154.425 1.46C155.412 2.03333 156.165 2.95333 156.685 4.22L152.345 5.78C152.252 5.15333 152.045 4.72 151.725 4.48C151.419 4.22667 151.032 4.1 150.565 4.1C150.059 4.1 149.645 4.22 149.325 4.46C149.019 4.7 148.792 5.06667 148.645 5.56C148.512 6.04 148.445 6.65333 148.445 7.4C148.445 8.22667 148.532 8.89333 148.705 9.4C148.892 9.90667 149.165 10.2733 149.525 10.5C149.899 10.7133 150.365 10.82 150.925 10.82C151.192 10.82 151.432 10.7933 151.645 10.74C151.872 10.6867 152.065 10.6067 152.225 10.5C152.399 10.38 152.525 10.2333 152.605 10.06C152.699 9.88667 152.745 9.68 152.745 9.44V9.42H150.525V6.56H156.645V14H153.565L153.185 10.46L153.905 11.24C153.679 12.1867 153.205 12.92 152.485 13.44C151.779 13.9467 150.839 14.2 149.665 14.2ZM171.479 0.799999V14H166.819V0.799999H171.479ZM163.199 0.799999V14H158.539V0.799999H163.199ZM169.399 5.66V9.08H160.779V5.66H169.399ZM185.8 0.799999V4.22H181.68V14H177.02V4.22H172.88V0.799999H185.8ZM186.28 9.88C186.894 9.88 187.387 10.0133 187.76 10.28C188.147 10.5467 188.427 10.8933 188.6 11.32C188.787 11.7333 188.88 12.18 188.88 12.66C188.88 13.38 188.714 14.0533 188.38 14.68C188.06 15.32 187.654 15.8667 187.16 16.32C186.667 16.7867 186.18 17.12 185.7 17.32L183.96 16.14C184.334 15.9667 184.687 15.7667 185.02 15.54C185.367 15.3133 185.68 15.0667 185.96 14.8C186.24 14.5333 186.46 14.26 186.62 13.98L186.52 13.9C186.427 13.9533 186.32 13.9933 186.2 14.02C186.08 14.06 185.927 14.08 185.74 14.08C185.447 14.08 185.154 14.0133 184.86 13.88C184.567 13.7333 184.32 13.52 184.12 13.24C183.92 12.96 183.82 12.6067 183.82 12.18C183.82 11.6333 183.934 11.1933 184.16 10.86C184.4 10.5267 184.707 10.28 185.08 10.12C185.467 9.96 185.867 9.88 186.28 9.88ZM195.454 14V11.2C196.454 10.6667 197.32 10.1333 198.054 9.6C198.8 9.06667 199.414 8.54667 199.894 8.04C200.387 7.52 200.754 7.03333 200.994 6.58C201.234 6.11333 201.354 5.68667 201.354 5.3C201.354 4.98 201.274 4.7 201.114 4.46C200.954 4.22 200.674 4.1 200.274 4.1C199.82 4.1 199.487 4.28667 199.274 4.66C199.06 5.03333 198.967 5.62667 198.994 6.44L195.014 5.48C194.987 4.36 195.22 3.44 195.714 2.72C196.207 2 196.88 1.46667 197.734 1.12C198.6 0.773333 199.554 0.6 200.594 0.6C201.594 0.6 202.434 0.739999 203.114 1.02C203.807 1.28667 204.36 1.64 204.774 2.08C205.187 2.50667 205.48 2.97333 205.654 3.48C205.84 3.97333 205.934 4.44667 205.934 4.9C205.934 5.78 205.7 6.57333 205.234 7.28C204.78 7.98667 204.167 8.62 203.394 9.18C202.62 9.74 201.76 10.2467 200.814 10.7V10.74C201.094 10.7133 201.4 10.6933 201.734 10.68C202.08 10.6533 202.44 10.64 202.814 10.64C203.2 10.6267 203.58 10.62 203.954 10.62H206.014V14H195.454ZM213.123 14.2C211.123 14.2 209.643 13.6333 208.683 12.5C207.736 11.3667 207.263 9.66667 207.263 7.4C207.263 5.13333 207.736 3.43333 208.683 2.3C209.643 1.16667 211.123 0.6 213.123 0.6C215.123 0.6 216.596 1.16667 217.543 2.3C218.503 3.43333 218.983 5.13333 218.983 7.4C218.983 9.66667 218.503 11.3667 217.543 12.5C216.596 13.6333 215.123 14.2 213.123 14.2ZM213.123 10.7C213.47 10.7 213.736 10.6067 213.923 10.42C214.11 10.2333 214.236 9.9 214.303 9.42C214.383 8.94 214.423 8.26667 214.423 7.4C214.423 6.53333 214.383 5.86 214.303 5.38C214.236 4.9 214.11 4.56667 213.923 4.38C213.736 4.19333 213.47 4.1 213.123 4.1C212.79 4.1 212.523 4.19333 212.323 4.38C212.136 4.56667 212.003 4.9 211.923 5.38C211.856 5.86 211.823 6.53333 211.823 7.4C211.823 8.26667 211.856 8.94 211.923 9.42C212.003 9.9 212.136 10.2333 212.323 10.42C212.523 10.6067 212.79 10.7 213.123 10.7ZM226.287 14.2C224.287 14.2 222.807 13.6333 221.847 12.5C220.9 11.3667 220.427 9.66667 220.427 7.4C220.427 5.13333 220.9 3.43333 221.847 2.3C222.807 1.16667 224.287 0.6 226.287 0.6C228.287 0.6 229.76 1.16667 230.707 2.3C231.667 3.43333 232.147 5.13333 232.147 7.4C232.147 9.66667 231.667 11.3667 230.707 12.5C229.76 13.6333 228.287 14.2 226.287 14.2ZM226.287 10.7C226.634 10.7 226.9 10.6067 227.087 10.42C227.274 10.2333 227.4 9.9 227.467 9.42C227.547 8.94 227.587 8.26667 227.587 7.4C227.587 6.53333 227.547 5.86 227.467 5.38C227.4 4.9 227.274 4.56667 227.087 4.38C226.9 4.19333 226.634 4.1 226.287 4.1C225.954 4.1 225.687 4.19333 225.487 4.38C225.3 4.56667 225.167 4.9 225.087 5.38C225.02 5.86 224.987 6.53333 224.987 7.4C224.987 8.26667 225.02 8.94 225.087 9.42C225.167 9.9 225.3 10.2333 225.487 10.42C225.687 10.6067 225.954 10.7 226.287 10.7ZM239.211 0.659999C240.304 0.659999 241.251 0.813332 242.051 1.12C242.864 1.41333 243.491 1.84 243.931 2.4C244.384 2.94667 244.611 3.60667 244.611 4.38C244.611 5.1 244.431 5.71333 244.071 6.22C243.711 6.72667 243.158 7.11333 242.411 7.38V7.4C243.238 7.65333 243.864 8.02 244.291 8.5C244.731 8.96667 244.951 9.59333 244.951 10.38C244.951 11.1533 244.724 11.8267 244.271 12.4C243.818 12.96 243.164 13.4 242.311 13.72C241.458 14.04 240.424 14.2 239.211 14.2C237.998 14.2 236.964 14.04 236.111 13.72C235.258 13.4 234.604 12.96 234.151 12.4C233.698 11.8267 233.471 11.1533 233.471 10.38C233.471 9.59333 233.691 8.96667 234.131 8.5C234.571 8.02 235.198 7.65333 236.011 7.4V7.38C235.278 7.11333 234.724 6.72667 234.351 6.22C233.991 5.71333 233.811 5.1 233.811 4.38C233.811 3.60667 234.031 2.94667 234.471 2.4C234.924 1.84 235.558 1.41333 236.371 1.12C237.184 0.813332 238.131 0.659999 239.211 0.659999ZM239.211 3.82C238.838 3.82 238.538 3.92 238.311 4.12C238.098 4.32 237.991 4.59333 237.991 4.94C237.991 5.28667 238.098 5.56 238.311 5.76C238.538 5.96 238.844 6.06 239.231 6.06C239.604 6.06 239.898 5.96 240.111 5.76C240.324 5.56 240.431 5.28667 240.431 4.94C240.431 4.59333 240.324 4.32 240.111 4.12C239.898 3.92 239.598 3.82 239.211 3.82ZM239.211 11.04C239.491 11.04 239.724 11 239.911 10.92C240.111 10.8267 240.258 10.6933 240.351 10.52C240.458 10.3467 240.511 10.1467 240.511 9.92C240.511 9.68 240.458 9.48 240.351 9.32C240.258 9.14667 240.111 9.02 239.911 8.94C239.724 8.84667 239.491 8.8 239.211 8.8C238.944 8.8 238.711 8.84667 238.511 8.94C238.311 9.02 238.158 9.14667 238.051 9.32C237.958 9.48 237.911 9.68 237.911 9.92C237.911 10.1467 237.958 10.3467 238.051 10.52C238.158 10.6933 238.311 10.8267 238.511 10.92C238.711 11 238.944 11.04 239.211 11.04ZM7.16 26.8C8.50667 26.8 9.58667 27.1467 10.4 27.84C11.2133 28.5333 11.62 29.4733 11.62 30.66C11.62 31.8467 11.2067 32.7733 10.38 33.44C9.56667 34.0933 8.48667 34.42 7.14 34.42L7 34.52H3.76V40H2.16V26.8H7.16ZM7.14 33.02C8.08667 33.02 8.78667 32.8267 9.24 32.44C9.70667 32.04 9.94 31.4467 9.94 30.66C9.94 29.8733 9.70667 29.2867 9.24 28.9C8.78667 28.5 8.08667 28.3 7.14 28.3H3.76V33.02H7.14ZM8.06 33.34L12.42 40H10.52L6.72 34.22L8.06 33.34ZM18.9688 29.8C19.9154 29.8 20.7488 30.0067 21.4688 30.42C22.2021 30.8333 22.7754 31.4333 23.1888 32.22C23.6021 32.9933 23.8088 33.92 23.8088 35C23.8088 36.08 23.6021 37.0133 23.1888 37.8C22.7754 38.5733 22.2021 39.1667 21.4688 39.58C20.7488 39.9933 19.9154 40.2 18.9688 40.2C18.0354 40.2 17.2021 39.9933 16.4688 39.58C15.7354 39.1667 15.1621 38.5733 14.7488 37.8C14.3354 37.0133 14.1288 36.08 14.1288 35C14.1288 33.92 14.3354 32.9933 14.7488 32.22C15.1621 31.4333 15.7354 30.8333 16.4688 30.42C17.2021 30.0067 18.0354 29.8 18.9688 29.8ZM18.9688 31.18C18.2888 31.18 17.7088 31.3333 17.2288 31.64C16.7488 31.9467 16.3754 32.3867 16.1088 32.96C15.8554 33.52 15.7288 34.2 15.7288 35C15.7288 35.7867 15.8554 36.4667 16.1088 37.04C16.3754 37.6133 16.7488 38.0533 17.2288 38.36C17.7088 38.6667 18.2888 38.82 18.9688 38.82C19.6488 38.82 20.2288 38.6667 20.7088 38.36C21.1888 38.0533 21.5554 37.6133 21.8088 37.04C22.0754 36.4667 22.2088 35.7867 22.2088 35C22.2088 34.2 22.0754 33.52 21.8088 32.96C21.5554 32.3867 21.1888 31.9467 20.7088 31.64C20.2288 31.3333 19.6488 31.18 18.9688 31.18ZM29.0052 27.16V37.24C29.0052 37.7333 29.1452 38.1 29.4252 38.34C29.7052 38.58 30.0652 38.7 30.5052 38.7C30.8918 38.7 31.2252 38.6333 31.5052 38.5C31.7852 38.3667 32.0385 38.1867 32.2652 37.96L32.8252 39.3C32.5185 39.58 32.1518 39.8 31.7252 39.96C31.3118 40.12 30.8318 40.2 30.2852 40.2C29.7785 40.2 29.3052 40.1133 28.8652 39.94C28.4252 39.7533 28.0718 39.4667 27.8052 39.08C27.5518 38.68 27.4185 38.16 27.4052 37.52V27.6L29.0052 27.16ZM32.6452 30V31.38H25.4052V30H32.6452ZM40.8641 33.54C40.8641 32.7933 40.6641 32.22 40.2641 31.82C39.8641 31.4067 39.2974 31.2 38.5641 31.2C37.8707 31.2 37.2841 31.3533 36.8041 31.66C36.3241 31.9533 35.9707 32.4333 35.7441 33.1L34.4441 32.3C34.7107 31.5533 35.2041 30.9533 35.9241 30.5C36.6441 30.0333 37.5374 29.8 38.6041 29.8C39.3241 29.8 39.9774 29.9267 40.5641 30.18C41.1507 30.42 41.6107 30.7933 41.9441 31.3C42.2907 31.7933 42.4641 32.4333 42.4641 33.22V38.06C42.4641 38.54 42.7174 38.78 43.2241 38.78C43.4774 38.78 43.7241 38.7467 43.9641 38.68L43.8841 39.94C43.6174 40.0733 43.2707 40.14 42.8441 40.14C42.4574 40.14 42.1107 40.0667 41.8041 39.92C41.4974 39.7733 41.2574 39.5533 41.0841 39.26C40.9107 38.9533 40.8241 38.5733 40.8241 38.12V37.92L41.2241 37.98C41.0641 38.5 40.7907 38.9267 40.4041 39.26C40.0174 39.58 39.5841 39.82 39.1041 39.98C38.6241 40.1267 38.1507 40.2 37.6841 40.2C37.0974 40.2 36.5507 40.1 36.0441 39.9C35.5374 39.7 35.1307 39.4 34.8241 39C34.5307 38.5867 34.3841 38.08 34.3841 37.48C34.3841 36.7333 34.6307 36.12 35.1241 35.64C35.6307 35.1467 36.3307 34.8133 37.2241 34.64L41.1841 33.86V35.18L37.9641 35.84C37.3107 35.9733 36.8241 36.16 36.5041 36.4C36.1841 36.64 36.0241 36.9733 36.0241 37.4C36.0241 37.8133 36.1841 38.1533 36.5041 38.42C36.8374 38.6733 37.3041 38.8 37.9041 38.8C38.2907 38.8 38.6574 38.7533 39.0041 38.66C39.3641 38.5533 39.6841 38.4 39.9641 38.2C40.2441 37.9867 40.4641 37.7267 40.6241 37.42C40.7841 37.1 40.8641 36.7267 40.8641 36.3V33.54ZM48.3216 27.16V37.24C48.3216 37.7333 48.4616 38.1 48.7416 38.34C49.0216 38.58 49.3816 38.7 49.8216 38.7C50.2082 38.7 50.5416 38.6333 50.8216 38.5C51.1016 38.3667 51.3549 38.1867 51.5816 37.96L52.1416 39.3C51.8349 39.58 51.4682 39.8 51.0416 39.96C50.6282 40.12 50.1482 40.2 49.6016 40.2C49.0949 40.2 48.6216 40.1133 48.1816 39.94C47.7416 39.7533 47.3882 39.4667 47.1216 39.08C46.8682 38.68 46.7349 38.16 46.7216 37.52V27.6L48.3216 27.16ZM51.9616 30V31.38H44.7216V30H51.9616ZM55.1405 28.08C54.7805 28.08 54.4871 27.9733 54.2605 27.76C54.0471 27.5333 53.9405 27.24 53.9405 26.88C53.9405 26.52 54.0471 26.2333 54.2605 26.02C54.4871 25.7933 54.7805 25.68 55.1405 25.68C55.5005 25.68 55.7871 25.7933 56.0005 26.02C56.2271 26.2333 56.3405 26.52 56.3405 26.88C56.3405 27.24 56.2271 27.5333 56.0005 27.76C55.7871 27.9733 55.5005 28.08 55.1405 28.08ZM55.9405 30V40H54.3405V30H55.9405ZM59.653 40V30H61.053L61.193 32.24L60.933 32.02C61.1463 31.4867 61.433 31.06 61.793 30.74C62.153 30.4067 62.5663 30.1667 63.033 30.02C63.513 29.8733 64.0063 29.8 64.513 29.8C65.233 29.8 65.8863 29.94 66.473 30.22C67.0596 30.4867 67.5263 30.9 67.873 31.46C68.233 32.02 68.413 32.7333 68.413 33.6V40H66.813V34.16C66.813 33.0533 66.573 32.2867 66.093 31.86C65.6263 31.42 65.0463 31.2 64.353 31.2C63.873 31.2 63.393 31.3133 62.913 31.54C62.433 31.7667 62.033 32.1333 61.713 32.64C61.4063 33.1467 61.253 33.8267 61.253 34.68V40H59.653ZM80.4558 28.16L80.8158 29.58C80.8024 29.58 80.7824 29.58 80.7558 29.58C80.7291 29.58 80.7024 29.58 80.6758 29.58C80.0224 29.58 79.5158 29.7133 79.1558 29.98C78.8091 30.2333 78.6358 30.6467 78.6358 31.22L77.6558 30.72C77.6558 30.2 77.7758 29.7467 78.0158 29.36C78.2558 28.9733 78.5824 28.68 78.9958 28.48C79.4091 28.2667 79.8624 28.16 80.3558 28.16C80.3691 28.16 80.3824 28.16 80.3958 28.16C80.4224 28.16 80.4424 28.16 80.4558 28.16ZM77.4158 38.72C78.3624 38.72 79.1024 38.94 79.6358 39.38C80.1691 39.8067 80.4358 40.38 80.4358 41.1C80.4358 41.7533 80.2158 42.32 79.7758 42.8C79.3491 43.28 78.7691 43.6467 78.0358 43.9C77.3158 44.1667 76.5024 44.3 75.5958 44.3C74.0224 44.3 72.8424 44.0333 72.0558 43.5C71.2824 42.9667 70.8958 42.3267 70.8958 41.58C70.8958 41.0467 71.0691 40.5667 71.4158 40.14C71.7758 39.7267 72.3758 39.4933 73.2158 39.44L73.0758 39.74C72.6224 39.62 72.2358 39.42 71.9158 39.14C71.6091 38.8467 71.4558 38.4267 71.4558 37.88C71.4558 37.3333 71.6558 36.8667 72.0558 36.48C72.4691 36.08 73.0758 35.8333 73.8758 35.74L74.9358 36.28H74.7358C74.0824 36.3467 73.6158 36.5133 73.3358 36.78C73.0691 37.0333 72.9358 37.3133 72.9358 37.62C72.9358 37.9933 73.0691 38.2733 73.3358 38.46C73.6158 38.6333 74.0024 38.72 74.4958 38.72H77.4158ZM75.5758 42.96C76.3491 42.96 76.9824 42.88 77.4758 42.72C77.9824 42.56 78.3558 42.3533 78.5958 42.1C78.8358 41.8467 78.9558 41.5733 78.9558 41.28C78.9558 40.92 78.8091 40.6333 78.5158 40.42C78.2358 40.2067 77.7224 40.1 76.9758 40.1H73.8958C73.4691 40.1 73.1091 40.2067 72.8158 40.42C72.5224 40.6467 72.3758 40.9533 72.3758 41.34C72.3758 41.8333 72.6558 42.2267 73.2158 42.52C73.7891 42.8133 74.5758 42.96 75.5758 42.96ZM75.4358 29.8C76.2358 29.8 76.9424 29.9467 77.5558 30.24C78.1824 30.52 78.6691 30.9133 79.0158 31.42C79.3624 31.9267 79.5358 32.5133 79.5358 33.18C79.5358 33.8333 79.3624 34.42 79.0158 34.94C78.6691 35.4467 78.1824 35.8467 77.5558 36.14C76.9424 36.42 76.2358 36.56 75.4358 36.56C74.1158 36.56 73.1024 36.2467 72.3958 35.62C71.6891 34.98 71.3358 34.1667 71.3358 33.18C71.3358 32.5133 71.5091 31.9267 71.8558 31.42C72.2158 30.9133 72.7024 30.52 73.3158 30.24C73.9291 29.9467 74.6358 29.8 75.4358 29.8ZM75.4358 31.1C74.7424 31.1 74.1624 31.2933 73.6958 31.68C73.2291 32.0533 72.9958 32.5533 72.9958 33.18C72.9958 33.7933 73.2291 34.2933 73.6958 34.68C74.1624 35.0667 74.7424 35.26 75.4358 35.26C76.1291 35.26 76.7091 35.0667 77.1758 34.68C77.6424 34.2933 77.8758 33.7933 77.8758 33.18C77.8758 32.5533 77.6424 32.0533 77.1758 31.68C76.7091 31.2933 76.1291 31.1 75.4358 31.1ZM91.4661 27.16V37.24C91.4661 37.7333 91.6061 38.1 91.8861 38.34C92.1661 38.58 92.5261 38.7 92.9661 38.7C93.3528 38.7 93.6861 38.6333 93.9661 38.5C94.2461 38.3667 94.4994 38.1867 94.7261 37.96L95.2861 39.3C94.9794 39.58 94.6128 39.8 94.1861 39.96C93.7728 40.12 93.2928 40.2 92.7461 40.2C92.2394 40.2 91.7661 40.1133 91.3261 39.94C90.8861 39.7533 90.5328 39.4667 90.2661 39.08C90.0128 38.68 89.8794 38.16 89.8661 37.52V27.6L91.4661 27.16ZM95.1061 30V31.38H87.8661V30H95.1061ZM97.485 40V25.4H99.085V31.5C99.4317 30.9 99.8917 30.4667 100.465 30.2C101.038 29.9333 101.665 29.8 102.345 29.8C103.065 29.8 103.718 29.94 104.305 30.22C104.892 30.4867 105.358 30.9 105.705 31.46C106.065 32.02 106.245 32.7333 106.245 33.6V40H104.645V34.16C104.645 33.0533 104.405 32.2867 103.925 31.86C103.458 31.42 102.878 31.2 102.185 31.2C101.705 31.2 101.225 31.3133 100.745 31.54C100.265 31.7667 99.865 32.14 99.545 32.66C99.2383 33.1667 99.085 33.8467 99.085 34.7V40H97.485ZM114.048 40.2C113.101 40.2 112.254 39.9933 111.508 39.58C110.774 39.1667 110.201 38.5733 109.788 37.8C109.374 37.0133 109.168 36.08 109.168 35C109.168 33.92 109.374 32.9933 109.788 32.22C110.201 31.4333 110.768 30.8333 111.488 30.42C112.208 30.0067 113.028 29.8 113.948 29.8C114.881 29.8 115.674 30 116.328 30.4C116.994 30.8 117.501 31.3467 117.848 32.04C118.194 32.72 118.368 33.4867 118.368 34.34C118.368 34.5667 118.361 34.7733 118.348 34.96C118.334 35.1467 118.314 35.3133 118.288 35.46H110.208V34.04H117.588L116.768 34.2C116.768 33.24 116.501 32.5 115.968 31.98C115.448 31.46 114.761 31.2 113.908 31.2C113.254 31.2 112.688 31.3533 112.208 31.66C111.741 31.9533 111.374 32.3867 111.108 32.96C110.854 33.52 110.728 34.2 110.728 35C110.728 35.7867 110.861 36.4667 111.128 37.04C111.394 37.6133 111.768 38.0533 112.248 38.36C112.741 38.6533 113.328 38.8 114.008 38.8C114.741 38.8 115.334 38.66 115.788 38.38C116.254 38.1 116.628 37.72 116.908 37.24L118.168 37.98C117.914 38.4333 117.588 38.8267 117.188 39.16C116.801 39.4933 116.341 39.7533 115.808 39.94C115.288 40.1133 114.701 40.2 114.048 40.2ZM128.227 44.2V30H129.627L129.767 32.44L129.547 32.16C129.721 31.6933 129.981 31.2867 130.327 30.94C130.674 30.58 131.094 30.3 131.587 30.1C132.081 29.9 132.614 29.8 133.187 29.8C134.001 29.8 134.747 30.0067 135.427 30.42C136.121 30.8333 136.674 31.4267 137.087 32.2C137.501 32.9733 137.707 33.9067 137.707 35C137.707 36.08 137.494 37.0133 137.067 37.8C136.654 38.5733 136.101 39.1667 135.407 39.58C134.714 39.9933 133.954 40.2 133.127 40.2C132.301 40.2 131.574 40 130.947 39.6C130.334 39.1867 129.894 38.6667 129.627 38.04L129.827 37.74V44.2H128.227ZM132.967 38.8C133.954 38.8 134.721 38.4533 135.267 37.76C135.827 37.0667 136.107 36.1467 136.107 35C136.107 33.8533 135.834 32.9333 135.287 32.24C134.754 31.5467 134.001 31.2 133.027 31.2C132.387 31.2 131.827 31.36 131.347 31.68C130.867 31.9867 130.494 32.4267 130.227 33C129.961 33.56 129.827 34.2267 129.827 35C129.827 35.76 129.954 36.4267 130.207 37C130.474 37.5733 130.841 38.02 131.307 38.34C131.787 38.6467 132.341 38.8 132.967 38.8ZM144.906 29.8C145.853 29.8 146.686 30.0067 147.406 30.42C148.14 30.8333 148.713 31.4333 149.126 32.22C149.54 32.9933 149.746 33.92 149.746 35C149.746 36.08 149.54 37.0133 149.126 37.8C148.713 38.5733 148.14 39.1667 147.406 39.58C146.686 39.9933 145.853 40.2 144.906 40.2C143.973 40.2 143.14 39.9933 142.406 39.58C141.673 39.1667 141.1 38.5733 140.686 37.8C140.273 37.0133 140.066 36.08 140.066 35C140.066 33.92 140.273 32.9933 140.686 32.22C141.1 31.4333 141.673 30.8333 142.406 30.42C143.14 30.0067 143.973 29.8 144.906 29.8ZM144.906 31.18C144.226 31.18 143.646 31.3333 143.166 31.64C142.686 31.9467 142.313 32.3867 142.046 32.96C141.793 33.52 141.666 34.2 141.666 35C141.666 35.7867 141.793 36.4667 142.046 37.04C142.313 37.6133 142.686 38.0533 143.166 38.36C143.646 38.6667 144.226 38.82 144.906 38.82C145.586 38.82 146.166 38.6667 146.646 38.36C147.126 38.0533 147.493 37.6133 147.746 37.04C148.013 36.4667 148.146 35.7867 148.146 35C148.146 34.2 148.013 33.52 147.746 32.96C147.493 32.3867 147.126 31.9467 146.646 31.64C146.166 31.3333 145.586 31.18 144.906 31.18ZM156.358 40.2C155.385 40.2 154.485 39.9933 153.658 39.58C152.845 39.1667 152.218 38.58 151.778 37.82L153.138 36.84C153.432 37.4533 153.858 37.9333 154.418 38.28C154.992 38.6267 155.678 38.8 156.478 38.8C157.185 38.8 157.738 38.6667 158.138 38.4C158.538 38.12 158.738 37.76 158.738 37.32C158.738 37.04 158.645 36.7867 158.458 36.56C158.285 36.32 157.945 36.1467 157.438 36.04L155.038 35.54C154.065 35.34 153.365 35.0067 152.938 34.54C152.525 34.0733 152.318 33.4933 152.318 32.8C152.318 32.2533 152.472 31.7533 152.778 31.3C153.098 30.8467 153.545 30.4867 154.118 30.22C154.705 29.94 155.392 29.8 156.178 29.8C157.165 29.8 157.998 29.9933 158.678 30.38C159.358 30.7667 159.865 31.3133 160.198 32.02L158.858 32.9C158.632 32.3133 158.265 31.8867 157.758 31.62C157.252 31.34 156.725 31.2 156.178 31.2C155.698 31.2 155.285 31.2667 154.938 31.4C154.605 31.5333 154.345 31.72 154.158 31.96C153.985 32.1867 153.898 32.4467 153.898 32.74C153.898 33.0333 153.998 33.3067 154.198 33.56C154.398 33.8 154.772 33.9733 155.318 34.08L157.818 34.6C158.752 34.7867 159.405 35.0933 159.778 35.52C160.152 35.9467 160.338 36.4667 160.338 37.08C160.338 37.7067 160.172 38.26 159.838 38.74C159.505 39.2067 159.038 39.5667 158.438 39.82C157.838 40.0733 157.145 40.2 156.358 40.2ZM165.665 27.16V37.24C165.665 37.7333 165.805 38.1 166.085 38.34C166.365 38.58 166.725 38.7 167.165 38.7C167.552 38.7 167.885 38.6333 168.165 38.5C168.445 38.3667 168.699 38.1867 168.925 37.96L169.485 39.3C169.179 39.58 168.812 39.8 168.385 39.96C167.972 40.12 167.492 40.2 166.945 40.2C166.439 40.2 165.965 40.1133 165.525 39.94C165.085 39.7533 164.732 39.4667 164.465 39.08C164.212 38.68 164.079 38.16 164.065 37.52V27.6L165.665 27.16ZM169.305 30V31.38H162.065V30H169.305ZM175.864 40.2C174.918 40.2 174.071 39.9933 173.324 39.58C172.591 39.1667 172.018 38.5733 171.604 37.8C171.191 37.0133 170.984 36.08 170.984 35C170.984 33.92 171.191 32.9933 171.604 32.22C172.018 31.4333 172.584 30.8333 173.304 30.42C174.024 30.0067 174.844 29.8 175.764 29.8C176.698 29.8 177.491 30 178.144 30.4C178.811 30.8 179.318 31.3467 179.664 32.04C180.011 32.72 180.184 33.4867 180.184 34.34C180.184 34.5667 180.178 34.7733 180.164 34.96C180.151 35.1467 180.131 35.3133 180.104 35.46H172.024V34.04H179.404L178.584 34.2C178.584 33.24 178.318 32.5 177.784 31.98C177.264 31.46 176.578 31.2 175.724 31.2C175.071 31.2 174.504 31.3533 174.024 31.66C173.558 31.9533 173.191 32.3867 172.924 32.96C172.671 33.52 172.544 34.2 172.544 35C172.544 35.7867 172.678 36.4667 172.944 37.04C173.211 37.6133 173.584 38.0533 174.064 38.36C174.558 38.6533 175.144 38.8 175.824 38.8C176.558 38.8 177.151 38.66 177.604 38.38C178.071 38.1 178.444 37.72 178.724 37.24L179.984 37.98C179.731 38.4333 179.404 38.8267 179.004 39.16C178.618 39.4933 178.158 39.7533 177.624 39.94C177.104 40.1133 176.518 40.2 175.864 40.2ZM183.227 40V30H184.527L184.747 31.64C185.027 31.0267 185.434 30.5667 185.967 30.26C186.514 29.9533 187.174 29.8 187.947 29.8C188.121 29.8 188.307 29.8133 188.507 29.84C188.721 29.8667 188.901 29.92 189.047 30L188.767 31.46C188.621 31.4067 188.461 31.3667 188.287 31.34C188.114 31.3133 187.867 31.3 187.547 31.3C187.134 31.3 186.714 31.42 186.287 31.66C185.874 31.9 185.527 32.2667 185.247 32.76C184.967 33.24 184.827 33.8533 184.827 34.6V40H183.227ZM201.819 26.6C202.926 26.6 203.859 26.8933 204.619 27.48C205.379 28.0533 205.952 28.8533 206.339 29.88C206.726 30.8933 206.919 32.0667 206.919 33.4C206.919 34.88 206.726 36.1267 206.339 37.14C205.952 38.14 205.379 38.9 204.619 39.42C203.872 39.94 202.946 40.2 201.839 40.2C200.746 40.2 199.806 39.9467 199.019 39.44C198.232 38.9333 197.646 38.1933 197.259 37.22L198.839 36.38C199.052 37.0733 199.399 37.6333 199.879 38.06C200.372 38.4867 201.046 38.7 201.899 38.7C202.592 38.7 203.166 38.5667 203.619 38.3C204.086 38.02 204.452 37.6267 204.719 37.12C204.986 36.6 205.172 35.98 205.279 35.26C205.399 34.54 205.459 33.74 205.459 32.86C205.459 32.8333 205.459 32.8067 205.459 32.78C205.459 32.74 205.459 32.7067 205.459 32.68H205.379C205.219 33.28 204.939 33.7667 204.539 34.14C204.139 34.5 203.686 34.76 203.179 34.92C202.686 35.08 202.192 35.16 201.699 35.16C200.832 35.16 200.066 34.9933 199.399 34.66C198.732 34.3133 198.212 33.8333 197.839 33.22C197.466 32.6067 197.279 31.88 197.279 31.04C197.279 30.1333 197.459 29.3533 197.819 28.7C198.179 28.0333 198.699 27.52 199.379 27.16C200.059 26.7867 200.872 26.6 201.819 26.6ZM201.839 28.14C200.906 28.14 200.192 28.4 199.699 28.92C199.206 29.4267 198.959 30.14 198.959 31.06C198.959 31.8467 199.219 32.4733 199.739 32.94C200.259 33.3933 200.959 33.62 201.839 33.62C202.412 33.62 202.912 33.5067 203.339 33.28C203.779 33.04 204.119 32.72 204.359 32.32C204.599 31.9067 204.719 31.4333 204.719 30.9C204.719 30.34 204.599 29.8533 204.359 29.44C204.119 29.0267 203.779 28.7067 203.339 28.48C202.912 28.2533 202.412 28.14 201.839 28.14ZM214.443 40.2C212.949 40.2 211.756 39.62 210.863 38.46C209.969 37.3 209.523 35.6133 209.523 33.4C209.523 31.1867 209.969 29.5 210.863 28.34C211.756 27.18 212.949 26.6 214.443 26.6C215.949 26.6 217.143 27.18 218.023 28.34C218.916 29.5 219.363 31.1867 219.363 33.4C219.363 35.6133 218.916 37.3 218.023 38.46C217.143 39.62 215.949 40.2 214.443 40.2ZM214.443 38.76C215.149 38.76 215.743 38.56 216.223 38.16C216.716 37.7467 217.083 37.14 217.323 36.34C217.576 35.54 217.703 34.56 217.703 33.4C217.703 32.24 217.576 31.26 217.323 30.46C217.083 29.66 216.716 29.06 216.223 28.66C215.743 28.2467 215.149 28.04 214.443 28.04C213.736 28.04 213.136 28.2467 212.643 28.66C212.163 29.06 211.796 29.66 211.543 30.46C211.303 31.26 211.183 32.24 211.183 33.4C211.183 34.56 211.303 35.54 211.543 36.34C211.796 37.14 212.163 37.7467 212.643 38.16C213.136 38.56 213.736 38.76 214.443 38.76ZM233.24 40.2C232.414 40.2 231.654 39.9933 230.96 39.58C230.267 39.1667 229.714 38.5733 229.3 37.8C228.887 37.0133 228.68 36.08 228.68 35C228.68 33.8933 228.9 32.9533 229.34 32.18C229.78 31.4067 230.36 30.82 231.08 30.42C231.8 30.0067 232.574 29.8 233.4 29.8C234.227 29.8 234.94 30.0133 235.54 30.44C236.154 30.8667 236.56 31.4333 236.76 32.14L236.56 32.28V25.4H238.16V40H236.76L236.62 37.58L236.84 37.46C236.747 38.0467 236.52 38.5467 236.16 38.96C235.814 39.36 235.38 39.6667 234.86 39.88C234.354 40.0933 233.814 40.2 233.24 40.2ZM233.4 38.8C234.04 38.8 234.594 38.64 235.06 38.32C235.54 38 235.907 37.5467 236.16 36.96C236.427 36.36 236.56 35.66 236.56 34.86C236.56 34.1 236.427 33.4467 236.16 32.9C235.907 32.3533 235.547 31.9333 235.08 31.64C234.627 31.3467 234.094 31.2 233.48 31.2C232.467 31.2 231.68 31.5467 231.12 32.24C230.56 32.9333 230.28 33.8533 230.28 35C230.28 36.1467 230.554 37.0667 231.1 37.76C231.647 38.4533 232.414 38.8 233.4 38.8ZM246.06 40.2C245.113 40.2 244.266 39.9933 243.52 39.58C242.786 39.1667 242.213 38.5733 241.8 37.8C241.386 37.0133 241.18 36.08 241.18 35C241.18 33.92 241.386 32.9933 241.8 32.22C242.213 31.4333 242.78 30.8333 243.5 30.42C244.22 30.0067 245.04 29.8 245.96 29.8C246.893 29.8 247.686 30 248.34 30.4C249.006 30.8 249.513 31.3467 249.86 32.04C250.206 32.72 250.38 33.4867 250.38 34.34C250.38 34.5667 250.373 34.7733 250.36 34.96C250.346 35.1467 250.326 35.3133 250.3 35.46H242.22V34.04H249.6L248.78 34.2C248.78 33.24 248.513 32.5 247.98 31.98C247.46 31.46 246.773 31.2 245.92 31.2C245.266 31.2 244.7 31.3533 244.22 31.66C243.753 31.9533 243.386 32.3867 243.12 32.96C242.866 33.52 242.74 34.2 242.74 35C242.74 35.7867 242.873 36.4667 243.14 37.04C243.406 37.6133 243.78 38.0533 244.26 38.36C244.753 38.6533 245.34 38.8 246.02 38.8C246.753 38.8 247.346 38.66 247.8 38.38C248.266 38.1 248.64 37.72 248.92 37.24L250.18 37.98C249.926 38.4333 249.6 38.8267 249.2 39.16C248.813 39.4933 248.353 39.7533 247.82 39.94C247.3 40.1133 246.713 40.2 246.06 40.2ZM261.842 28.16L262.203 29.58C262.189 29.58 262.169 29.58 262.143 29.58C262.116 29.58 262.089 29.58 262.063 29.58C261.409 29.58 260.903 29.7133 260.543 29.98C260.196 30.2333 260.023 30.6467 260.023 31.22L259.043 30.72C259.043 30.2 259.163 29.7467 259.403 29.36C259.643 28.9733 259.969 28.68 260.383 28.48C260.796 28.2667 261.249 28.16 261.743 28.16C261.756 28.16 261.769 28.16 261.783 28.16C261.809 28.16 261.829 28.16 261.842 28.16ZM258.803 38.72C259.749 38.72 260.489 38.94 261.023 39.38C261.556 39.8067 261.823 40.38 261.823 41.1C261.823 41.7533 261.603 42.32 261.163 42.8C260.736 43.28 260.156 43.6467 259.423 43.9C258.703 44.1667 257.889 44.3 256.983 44.3C255.409 44.3 254.229 44.0333 253.443 43.5C252.669 42.9667 252.283 42.3267 252.283 41.58C252.283 41.0467 252.456 40.5667 252.803 40.14C253.163 39.7267 253.763 39.4933 254.603 39.44L254.463 39.74C254.009 39.62 253.623 39.42 253.303 39.14C252.996 38.8467 252.843 38.4267 252.843 37.88C252.843 37.3333 253.043 36.8667 253.443 36.48C253.856 36.08 254.463 35.8333 255.263 35.74L256.323 36.28H256.123C255.469 36.3467 255.003 36.5133 254.723 36.78C254.456 37.0333 254.323 37.3133 254.323 37.62C254.323 37.9933 254.456 38.2733 254.723 38.46C255.003 38.6333 255.389 38.72 255.883 38.72H258.803ZM256.963 42.96C257.736 42.96 258.369 42.88 258.863 42.72C259.369 42.56 259.743 42.3533 259.983 42.1C260.223 41.8467 260.343 41.5733 260.343 41.28C260.343 40.92 260.196 40.6333 259.903 40.42C259.623 40.2067 259.109 40.1 258.363 40.1H255.283C254.856 40.1 254.496 40.2067 254.202 40.42C253.909 40.6467 253.763 40.9533 253.763 41.34C253.763 41.8333 254.043 42.2267 254.603 42.52C255.176 42.8133 255.963 42.96 256.963 42.96ZM256.823 29.8C257.623 29.8 258.329 29.9467 258.943 30.24C259.569 30.52 260.056 30.9133 260.403 31.42C260.749 31.9267 260.923 32.5133 260.923 33.18C260.923 33.8333 260.749 34.42 260.403 34.94C260.056 35.4467 259.569 35.8467 258.943 36.14C258.329 36.42 257.623 36.56 256.823 36.56C255.503 36.56 254.489 36.2467 253.783 35.62C253.076 34.98 252.723 34.1667 252.723 33.18C252.723 32.5133 252.896 31.9267 253.243 31.42C253.603 30.9133 254.089 30.52 254.703 30.24C255.316 29.9467 256.023 29.8 256.823 29.8ZM256.823 31.1C256.129 31.1 255.549 31.2933 255.083 31.68C254.616 32.0533 254.383 32.5533 254.383 33.18C254.383 33.7933 254.616 34.2933 255.083 34.68C255.549 35.0667 256.129 35.26 256.823 35.26C257.516 35.26 258.096 35.0667 258.563 34.68C259.029 34.2933 259.263 33.7933 259.263 33.18C259.263 32.5533 259.029 32.0533 258.563 31.68C258.096 31.2933 257.516 31.1 256.823 31.1ZM264.067 40V30H265.367L265.587 31.64C265.867 31.0267 266.274 30.5667 266.807 30.26C267.354 29.9533 268.014 29.8 268.787 29.8C268.96 29.8 269.147 29.8133 269.347 29.84C269.56 29.8667 269.74 29.92 269.887 30L269.607 31.46C269.46 31.4067 269.3 31.3667 269.127 31.34C268.954 31.3133 268.707 31.3 268.387 31.3C267.974 31.3 267.554 31.42 267.127 31.66C266.714 31.9 266.367 32.2667 266.087 32.76C265.807 33.24 265.667 33.8533 265.667 34.6V40H264.067ZM276.099 40.2C275.152 40.2 274.305 39.9933 273.559 39.58C272.825 39.1667 272.252 38.5733 271.839 37.8C271.425 37.0133 271.219 36.08 271.219 35C271.219 33.92 271.425 32.9933 271.839 32.22C272.252 31.4333 272.819 30.8333 273.539 30.42C274.259 30.0067 275.079 29.8 275.999 29.8C276.932 29.8 277.725 30 278.379 30.4C279.045 30.8 279.552 31.3467 279.899 32.04C280.245 32.72 280.419 33.4867 280.419 34.34C280.419 34.5667 280.412 34.7733 280.399 34.96C280.385 35.1467 280.365 35.3133 280.339 35.46H272.259V34.04H279.639L278.819 34.2C278.819 33.24 278.552 32.5 278.019 31.98C277.499 31.46 276.812 31.2 275.959 31.2C275.305 31.2 274.739 31.3533 274.259 31.66C273.792 31.9533 273.425 32.3867 273.159 32.96C272.905 33.52 272.779 34.2 272.779 35C272.779 35.7867 272.912 36.4667 273.179 37.04C273.445 37.6133 273.819 38.0533 274.299 38.36C274.792 38.6533 275.379 38.8 276.059 38.8C276.792 38.8 277.385 38.66 277.839 38.38C278.305 38.1 278.679 37.72 278.959 37.24L280.219 37.98C279.965 38.4333 279.639 38.8267 279.239 39.16C278.852 39.4933 278.392 39.7533 277.859 39.94C277.339 40.1133 276.752 40.2 276.099 40.2ZM287.642 40.2C286.695 40.2 285.848 39.9933 285.102 39.58C284.368 39.1667 283.795 38.5733 283.382 37.8C282.968 37.0133 282.762 36.08 282.762 35C282.762 33.92 282.968 32.9933 283.382 32.22C283.795 31.4333 284.362 30.8333 285.082 30.42C285.802 30.0067 286.622 29.8 287.542 29.8C288.475 29.8 289.268 30 289.922 30.4C290.588 30.8 291.095 31.3467 291.442 32.04C291.788 32.72 291.962 33.4867 291.962 34.34C291.962 34.5667 291.955 34.7733 291.942 34.96C291.928 35.1467 291.908 35.3133 291.882 35.46H283.802V34.04H291.182L290.362 34.2C290.362 33.24 290.095 32.5 289.562 31.98C289.042 31.46 288.355 31.2 287.502 31.2C286.848 31.2 286.282 31.3533 285.802 31.66C285.335 31.9533 284.968 32.3867 284.702 32.96C284.448 33.52 284.322 34.2 284.322 35C284.322 35.7867 284.455 36.4667 284.722 37.04C284.988 37.6133 285.362 38.0533 285.842 38.36C286.335 38.6533 286.922 38.8 287.602 38.8C288.335 38.8 288.928 38.66 289.382 38.38C289.848 38.1 290.222 37.72 290.502 37.24L291.762 37.98C291.508 38.4333 291.182 38.8267 290.782 39.16C290.395 39.4933 289.935 39.7533 289.402 39.94C288.882 40.1133 288.295 40.2 287.642 40.2ZM298.605 40.2C297.631 40.2 296.731 39.9933 295.905 39.58C295.091 39.1667 294.465 38.58 294.025 37.82L295.385 36.84C295.678 37.4533 296.105 37.9333 296.665 38.28C297.238 38.6267 297.925 38.8 298.725 38.8C299.431 38.8 299.985 38.6667 300.385 38.4C300.785 38.12 300.985 37.76 300.985 37.32C300.985 37.04 300.891 36.7867 300.705 36.56C300.531 36.32 300.191 36.1467 299.685 36.04L297.285 35.54C296.311 35.34 295.611 35.0067 295.185 34.54C294.771 34.0733 294.565 33.4933 294.565 32.8C294.565 32.2533 294.718 31.7533 295.025 31.3C295.345 30.8467 295.791 30.4867 296.365 30.22C296.951 29.94 297.638 29.8 298.425 29.8C299.411 29.8 300.245 29.9933 300.925 30.38C301.605 30.7667 302.111 31.3133 302.445 32.02L301.105 32.9C300.878 32.3133 300.511 31.8867 300.005 31.62C299.498 31.34 298.971 31.2 298.425 31.2C297.945 31.2 297.531 31.2667 297.185 31.4C296.851 31.5333 296.591 31.72 296.405 31.96C296.231 32.1867 296.145 32.4467 296.145 32.74C296.145 33.0333 296.245 33.3067 296.445 33.56C296.645 33.8 297.018 33.9733 297.565 34.08L300.065 34.6C300.998 34.7867 301.651 35.0933 302.025 35.52C302.398 35.9467 302.585 36.4667 302.585 37.08C302.585 37.7067 302.418 38.26 302.085 38.74C301.751 39.2067 301.285 39.5667 300.685 39.82C300.085 40.0733 299.391 40.2 298.605 40.2ZM312.368 40V30H313.668L313.888 31.64C314.168 31.0267 314.574 30.5667 315.108 30.26C315.654 29.9533 316.314 29.8 317.088 29.8C317.261 29.8 317.448 29.8133 317.648 29.84C317.861 29.8667 318.041 29.92 318.188 30L317.908 31.46C317.761 31.4067 317.601 31.3667 317.428 31.34C317.254 31.3133 317.008 31.3 316.688 31.3C316.274 31.3 315.854 31.42 315.428 31.66C315.014 31.9 314.668 32.2667 314.388 32.76C314.108 33.24 313.968 33.8533 313.968 34.6V40H312.368ZM324.399 40.2C323.453 40.2 322.606 39.9933 321.859 39.58C321.126 39.1667 320.553 38.5733 320.139 37.8C319.726 37.0133 319.519 36.08 319.519 35C319.519 33.92 319.726 32.9933 320.139 32.22C320.553 31.4333 321.119 30.8333 321.839 30.42C322.559 30.0067 323.379 29.8 324.299 29.8C325.233 29.8 326.026 30 326.679 30.4C327.346 30.8 327.853 31.3467 328.199 32.04C328.546 32.72 328.719 33.4867 328.719 34.34C328.719 34.5667 328.713 34.7733 328.699 34.96C328.686 35.1467 328.666 35.3133 328.639 35.46H320.559V34.04H327.939L327.119 34.2C327.119 33.24 326.853 32.5 326.319 31.98C325.799 31.46 325.113 31.2 324.259 31.2C323.606 31.2 323.039 31.3533 322.559 31.66C322.093 31.9533 321.726 32.3867 321.459 32.96C321.206 33.52 321.079 34.2 321.079 35C321.079 35.7867 321.213 36.4667 321.479 37.04C321.746 37.6133 322.119 38.0533 322.599 38.36C323.093 38.6533 323.679 38.8 324.359 38.8C325.093 38.8 325.686 38.66 326.139 38.38C326.606 38.1 326.979 37.72 327.259 37.24L328.519 37.98C328.266 38.4333 327.939 38.8267 327.539 39.16C327.153 39.4933 326.693 39.7533 326.159 39.94C325.639 40.1133 325.053 40.2 324.399 40.2ZM338.109 30H339.789L335.629 40H334.029L329.869 30H331.689L334.849 38.38L338.109 30ZM346.06 40.2C345.113 40.2 344.266 39.9933 343.52 39.58C342.786 39.1667 342.213 38.5733 341.8 37.8C341.386 37.0133 341.18 36.08 341.18 35C341.18 33.92 341.386 32.9933 341.8 32.22C342.213 31.4333 342.78 30.8333 343.5 30.42C344.22 30.0067 345.04 29.8 345.96 29.8C346.893 29.8 347.686 30 348.34 30.4C349.006 30.8 349.513 31.3467 349.86 32.04C350.206 32.72 350.38 33.4867 350.38 34.34C350.38 34.5667 350.373 34.7733 350.36 34.96C350.346 35.1467 350.326 35.3133 350.3 35.46H342.22V34.04H349.6L348.78 34.2C348.78 33.24 348.513 32.5 347.98 31.98C347.46 31.46 346.773 31.2 345.92 31.2C345.266 31.2 344.7 31.3533 344.22 31.66C343.753 31.9533 343.386 32.3867 343.12 32.96C342.866 33.52 342.74 34.2 342.74 35C342.74 35.7867 342.873 36.4667 343.14 37.04C343.406 37.6133 343.78 38.0533 344.26 38.36C344.753 38.6533 345.34 38.8 346.02 38.8C346.753 38.8 347.346 38.66 347.8 38.38C348.266 38.1 348.64 37.72 348.92 37.24L350.18 37.98C349.926 38.4333 349.6 38.8267 349.2 39.16C348.813 39.4933 348.353 39.7533 347.82 39.94C347.3 40.1133 346.713 40.2 346.06 40.2ZM359.263 33.54C359.263 32.7933 359.063 32.22 358.663 31.82C358.263 31.4067 357.696 31.2 356.963 31.2C356.269 31.2 355.683 31.3533 355.203 31.66C354.723 31.9533 354.369 32.4333 354.143 33.1L352.843 32.3C353.109 31.5533 353.603 30.9533 354.323 30.5C355.043 30.0333 355.936 29.8 357.003 29.8C357.723 29.8 358.376 29.9267 358.963 30.18C359.549 30.42 360.009 30.7933 360.343 31.3C360.689 31.7933 360.863 32.4333 360.863 33.22V38.06C360.863 38.54 361.116 38.78 361.623 38.78C361.876 38.78 362.123 38.7467 362.363 38.68L362.283 39.94C362.016 40.0733 361.669 40.14 361.243 40.14C360.856 40.14 360.509 40.0667 360.203 39.92C359.896 39.7733 359.656 39.5533 359.483 39.26C359.309 38.9533 359.223 38.5733 359.223 38.12V37.92L359.623 37.98C359.463 38.5 359.189 38.9267 358.803 39.26C358.416 39.58 357.983 39.82 357.503 39.98C357.023 40.1267 356.549 40.2 356.083 40.2C355.496 40.2 354.949 40.1 354.443 39.9C353.936 39.7 353.529 39.4 353.223 39C352.929 38.5867 352.783 38.08 352.783 37.48C352.783 36.7333 353.029 36.12 353.523 35.64C354.029 35.1467 354.729 34.8133 355.623 34.64L359.583 33.86V35.18L356.363 35.84C355.709 35.9733 355.223 36.16 354.903 36.4C354.583 36.64 354.423 36.9733 354.423 37.4C354.423 37.8133 354.583 38.1533 354.903 38.42C355.236 38.6733 355.703 38.8 356.303 38.8C356.689 38.8 357.056 38.7533 357.403 38.66C357.763 38.5533 358.083 38.4 358.363 38.2C358.643 37.9867 358.863 37.7267 359.023 37.42C359.183 37.1 359.263 36.7267 359.263 36.3V33.54ZM366.271 25.4V37.46C366.271 37.9667 366.364 38.32 366.551 38.52C366.737 38.7067 367.037 38.8 367.451 38.8C367.717 38.8 367.937 38.78 368.111 38.74C368.284 38.7 368.517 38.6267 368.811 38.52L368.551 39.92C368.337 40.0133 368.104 40.08 367.851 40.12C367.597 40.1733 367.337 40.2 367.071 40.2C366.257 40.2 365.651 39.98 365.251 39.54C364.864 39.1 364.671 38.4267 364.671 37.52V25.4H366.271ZM374.464 40.2C373.491 40.2 372.591 39.9933 371.764 39.58C370.951 39.1667 370.324 38.58 369.884 37.82L371.244 36.84C371.537 37.4533 371.964 37.9333 372.524 38.28C373.097 38.6267 373.784 38.8 374.584 38.8C375.291 38.8 375.844 38.6667 376.244 38.4C376.644 38.12 376.844 37.76 376.844 37.32C376.844 37.04 376.751 36.7867 376.564 36.56C376.391 36.32 376.051 36.1467 375.544 36.04L373.144 35.54C372.171 35.34 371.471 35.0067 371.044 34.54C370.631 34.0733 370.424 33.4933 370.424 32.8C370.424 32.2533 370.577 31.7533 370.884 31.3C371.204 30.8467 371.651 30.4867 372.224 30.22C372.811 29.94 373.497 29.8 374.284 29.8C375.271 29.8 376.104 29.9933 376.784 30.38C377.464 30.7667 377.971 31.3133 378.304 32.02L376.964 32.9C376.737 32.3133 376.371 31.8867 375.864 31.62C375.357 31.34 374.831 31.2 374.284 31.2C373.804 31.2 373.391 31.2667 373.044 31.4C372.711 31.5333 372.451 31.72 372.264 31.96C372.091 32.1867 372.004 32.4467 372.004 32.74C372.004 33.0333 372.104 33.3067 372.304 33.56C372.504 33.8 372.877 33.9733 373.424 34.08L375.924 34.6C376.857 34.7867 377.511 35.0933 377.884 35.52C378.257 35.9467 378.444 36.4667 378.444 37.08C378.444 37.7067 378.277 38.26 377.944 38.74C377.611 39.2067 377.144 39.5667 376.544 39.82C375.944 40.0733 375.251 40.2 374.464 40.2ZM390.197 27.16V37.24C390.197 37.7333 390.337 38.1 390.617 38.34C390.897 38.58 391.257 38.7 391.697 38.7C392.083 38.7 392.417 38.6333 392.697 38.5C392.977 38.3667 393.23 38.1867 393.457 37.96L394.017 39.3C393.71 39.58 393.343 39.8 392.917 39.96C392.503 40.12 392.023 40.2 391.477 40.2C390.97 40.2 390.497 40.1133 390.057 39.94C389.617 39.7533 389.263 39.4667 388.997 39.08C388.743 38.68 388.61 38.16 388.597 37.52V27.6L390.197 27.16ZM393.837 30V31.38H386.597V30H393.837ZM396.215 40V25.4H397.815V31.5C398.162 30.9 398.622 30.4667 399.195 30.2C399.769 29.9333 400.395 29.8 401.075 29.8C401.795 29.8 402.449 29.94 403.035 30.22C403.622 30.4867 404.089 30.9 404.435 31.46C404.795 32.02 404.975 32.7333 404.975 33.6V40H403.375V34.16C403.375 33.0533 403.135 32.2867 402.655 31.86C402.189 31.42 401.609 31.2 400.915 31.2C400.435 31.2 399.955 31.3133 399.475 31.54C398.995 31.7667 398.595 32.14 398.275 32.66C397.969 33.1667 397.815 33.8467 397.815 34.7V40H396.215ZM412.778 40.2C411.832 40.2 410.985 39.9933 410.238 39.58C409.505 39.1667 408.932 38.5733 408.518 37.8C408.105 37.0133 407.898 36.08 407.898 35C407.898 33.92 408.105 32.9933 408.518 32.22C408.932 31.4333 409.498 30.8333 410.218 30.42C410.938 30.0067 411.758 29.8 412.678 29.8C413.612 29.8 414.405 30 415.058 30.4C415.725 30.8 416.232 31.3467 416.578 32.04C416.925 32.72 417.098 33.4867 417.098 34.34C417.098 34.5667 417.092 34.7733 417.078 34.96C417.065 35.1467 417.045 35.3133 417.018 35.46H408.938V34.04H416.318L415.498 34.2C415.498 33.24 415.232 32.5 414.698 31.98C414.178 31.46 413.492 31.2 412.638 31.2C411.985 31.2 411.418 31.3533 410.938 31.66C410.472 31.9533 410.105 32.3867 409.838 32.96C409.585 33.52 409.458 34.2 409.458 35C409.458 35.7867 409.592 36.4667 409.858 37.04C410.125 37.6133 410.498 38.0533 410.978 38.36C411.472 38.6533 412.058 38.8 412.738 38.8C413.472 38.8 414.065 38.66 414.518 38.38C414.985 38.1 415.358 37.72 415.638 37.24L416.898 37.98C416.645 38.4333 416.318 38.8267 415.918 39.16C415.532 39.4933 415.072 39.7533 414.538 39.94C414.018 40.1133 413.432 40.2 412.778 40.2ZM426.958 44.2V30H428.358L428.498 32.44L428.278 32.16C428.451 31.6933 428.711 31.2867 429.058 30.94C429.404 30.58 429.824 30.3 430.318 30.1C430.811 29.9 431.344 29.8 431.918 29.8C432.731 29.8 433.478 30.0067 434.158 30.42C434.851 30.8333 435.404 31.4267 435.818 32.2C436.231 32.9733 436.438 33.9067 436.438 35C436.438 36.08 436.224 37.0133 435.798 37.8C435.384 38.5733 434.831 39.1667 434.138 39.58C433.444 39.9933 432.684 40.2 431.858 40.2C431.031 40.2 430.304 40 429.678 39.6C429.064 39.1867 428.624 38.6667 428.358 38.04L428.558 37.74V44.2H426.958ZM431.698 38.8C432.684 38.8 433.451 38.4533 433.998 37.76C434.558 37.0667 434.838 36.1467 434.838 35C434.838 33.8533 434.564 32.9333 434.018 32.24C433.484 31.5467 432.731 31.2 431.758 31.2C431.118 31.2 430.558 31.36 430.078 31.68C429.598 31.9867 429.224 32.4267 428.958 33C428.691 33.56 428.558 34.2267 428.558 35C428.558 35.76 428.684 36.4267 428.938 37C429.204 37.5733 429.571 38.02 430.038 38.34C430.518 38.6467 431.071 38.8 431.698 38.8ZM439.497 40V25.4H441.097V31.5C441.443 30.9 441.903 30.4667 442.477 30.2C443.05 29.9333 443.677 29.8 444.357 29.8C445.077 29.8 445.73 29.94 446.317 30.22C446.903 30.4867 447.37 30.9 447.717 31.46C448.077 32.02 448.257 32.7333 448.257 33.6V40H446.657V34.16C446.657 33.0533 446.417 32.2867 445.937 31.86C445.47 31.42 444.89 31.2 444.197 31.2C443.717 31.2 443.237 31.3133 442.757 31.54C442.277 31.7667 441.877 32.14 441.557 32.66C441.25 33.1667 441.097 33.8467 441.097 34.7V40H439.497ZM451.88 40V30H453.18L453.4 31.64C453.68 31.0267 454.086 30.5667 454.62 30.26C455.166 29.9533 455.826 29.8 456.6 29.8C456.773 29.8 456.96 29.8133 457.16 29.84C457.373 29.8667 457.553 29.92 457.7 30L457.42 31.46C457.273 31.4067 457.113 31.3667 456.94 31.34C456.766 31.3133 456.52 31.3 456.2 31.3C455.786 31.3 455.366 31.42 454.94 31.66C454.526 31.9 454.18 32.2667 453.9 32.76C453.62 33.24 453.48 33.8533 453.48 34.6V40H451.88ZM465.61 33.54C465.61 32.7933 465.41 32.22 465.01 31.82C464.61 31.4067 464.043 31.2 463.31 31.2C462.617 31.2 462.03 31.3533 461.55 31.66C461.07 31.9533 460.717 32.4333 460.49 33.1L459.19 32.3C459.457 31.5533 459.95 30.9533 460.67 30.5C461.39 30.0333 462.283 29.8 463.35 29.8C464.07 29.8 464.723 29.9267 465.31 30.18C465.897 30.42 466.357 30.7933 466.69 31.3C467.037 31.7933 467.21 32.4333 467.21 33.22V38.06C467.21 38.54 467.463 38.78 467.97 38.78C468.223 38.78 468.47 38.7467 468.71 38.68L468.63 39.94C468.363 40.0733 468.017 40.14 467.59 40.14C467.203 40.14 466.857 40.0667 466.55 39.92C466.243 39.7733 466.003 39.5533 465.83 39.26C465.657 38.9533 465.57 38.5733 465.57 38.12V37.92L465.97 37.98C465.81 38.5 465.537 38.9267 465.15 39.26C464.763 39.58 464.33 39.82 463.85 39.98C463.37 40.1267 462.897 40.2 462.43 40.2C461.843 40.2 461.297 40.1 460.79 39.9C460.283 39.7 459.877 39.4 459.57 39C459.277 38.5867 459.13 38.08 459.13 37.48C459.13 36.7333 459.377 36.12 459.87 35.64C460.377 35.1467 461.077 34.8133 461.97 34.64L465.93 33.86V35.18L462.71 35.84C462.057 35.9733 461.57 36.16 461.25 36.4C460.93 36.64 460.77 36.9733 460.77 37.4C460.77 37.8133 460.93 38.1533 461.25 38.42C461.583 38.6733 462.05 38.8 462.65 38.8C463.037 38.8 463.403 38.7533 463.75 38.66C464.11 38.5533 464.43 38.4 464.71 38.2C464.99 37.9867 465.21 37.7267 465.37 37.42C465.53 37.1 465.61 36.7267 465.61 36.3V33.54ZM474.698 40.2C473.725 40.2 472.825 39.9933 471.998 39.58C471.185 39.1667 470.558 38.58 470.118 37.82L471.478 36.84C471.772 37.4533 472.198 37.9333 472.758 38.28C473.332 38.6267 474.018 38.8 474.818 38.8C475.525 38.8 476.078 38.6667 476.478 38.4C476.878 38.12 477.078 37.76 477.078 37.32C477.078 37.04 476.985 36.7867 476.798 36.56C476.625 36.32 476.285 36.1467 475.778 36.04L473.378 35.54C472.405 35.34 471.705 35.0067 471.278 34.54C470.865 34.0733 470.658 33.4933 470.658 32.8C470.658 32.2533 470.812 31.7533 471.118 31.3C471.438 30.8467 471.885 30.4867 472.458 30.22C473.045 29.94 473.732 29.8 474.518 29.8C475.505 29.8 476.338 29.9933 477.018 30.38C477.698 30.7667 478.205 31.3133 478.538 32.02L477.198 32.9C476.972 32.3133 476.605 31.8867 476.098 31.62C475.592 31.34 475.065 31.2 474.518 31.2C474.038 31.2 473.625 31.2667 473.278 31.4C472.945 31.5333 472.685 31.72 472.498 31.96C472.325 32.1867 472.238 32.4467 472.238 32.74C472.238 33.0333 472.338 33.3067 472.538 33.56C472.738 33.8 473.112 33.9733 473.658 34.08L476.158 34.6C477.092 34.7867 477.745 35.0933 478.118 35.52C478.492 35.9467 478.678 36.4667 478.678 37.08C478.678 37.7067 478.512 38.26 478.178 38.74C477.845 39.2067 477.378 39.5667 476.778 39.82C476.178 40.0733 475.485 40.2 474.698 40.2ZM485.825 40.2C484.878 40.2 484.032 39.9933 483.285 39.58C482.552 39.1667 481.978 38.5733 481.565 37.8C481.152 37.0133 480.945 36.08 480.945 35C480.945 33.92 481.152 32.9933 481.565 32.22C481.978 31.4333 482.545 30.8333 483.265 30.42C483.985 30.0067 484.805 29.8 485.725 29.8C486.658 29.8 487.452 30 488.105 30.4C488.772 30.8 489.278 31.3467 489.625 32.04C489.972 32.72 490.145 33.4867 490.145 34.34C490.145 34.5667 490.138 34.7733 490.125 34.96C490.112 35.1467 490.092 35.3133 490.065 35.46H481.985V34.04H489.365L488.545 34.2C488.545 33.24 488.278 32.5 487.745 31.98C487.225 31.46 486.538 31.2 485.685 31.2C485.032 31.2 484.465 31.3533 483.985 31.66C483.518 31.9533 483.152 32.3867 482.885 32.96C482.632 33.52 482.505 34.2 482.505 35C482.505 35.7867 482.638 36.4667 482.905 37.04C483.172 37.6133 483.545 38.0533 484.025 38.36C484.518 38.6533 485.105 38.8 485.785 38.8C486.518 38.8 487.112 38.66 487.565 38.38C488.032 38.1 488.405 37.72 488.685 37.24L489.945 37.98C489.692 38.4333 489.365 38.8267 488.965 39.16C488.578 39.4933 488.118 39.7533 487.585 39.94C487.065 40.1133 486.478 40.2 485.825 40.2ZM504.925 26.2L504.405 31.14H503.165V26.2H504.925ZM501.545 26.2L501.025 31.14H499.785V26.2H501.545ZM516.86 40H515.16L513.76 36.34H507.78L506.38 40H504.7L509.84 26.8H511.74L516.86 40ZM508.36 34.84H513.18L510.76 28.34L508.36 34.84ZM534.292 26.8V28.3H529.692V40H528.092V28.3H523.492V26.8H534.292ZM540.61 33.54C540.61 32.7933 540.41 32.22 540.01 31.82C539.61 31.4067 539.043 31.2 538.31 31.2C537.617 31.2 537.03 31.3533 536.55 31.66C536.07 31.9533 535.717 32.4333 535.49 33.1L534.19 32.3C534.457 31.5533 534.95 30.9533 535.67 30.5C536.39 30.0333 537.283 29.8 538.35 29.8C539.07 29.8 539.723 29.9267 540.31 30.18C540.897 30.42 541.357 30.7933 541.69 31.3C542.037 31.7933 542.21 32.4333 542.21 33.22V38.06C542.21 38.54 542.463 38.78 542.97 38.78C543.223 38.78 543.47 38.7467 543.71 38.68L543.63 39.94C543.363 40.0733 543.017 40.14 542.59 40.14C542.203 40.14 541.857 40.0667 541.55 39.92C541.243 39.7733 541.003 39.5533 540.83 39.26C540.657 38.9533 540.57 38.5733 540.57 38.12V37.92L540.97 37.98C540.81 38.5 540.537 38.9267 540.15 39.26C539.763 39.58 539.33 39.82 538.85 39.98C538.37 40.1267 537.897 40.2 537.43 40.2C536.843 40.2 536.297 40.1 535.79 39.9C535.283 39.7 534.877 39.4 534.57 39C534.277 38.5867 534.13 38.08 534.13 37.48C534.13 36.7333 534.377 36.12 534.87 35.64C535.377 35.1467 536.077 34.8133 536.97 34.64L540.93 33.86V35.18L537.71 35.84C537.057 35.9733 536.57 36.16 536.25 36.4C535.93 36.64 535.77 36.9733 535.77 37.4C535.77 37.8133 535.93 38.1533 536.25 38.42C536.583 38.6733 537.05 38.8 537.65 38.8C538.037 38.8 538.403 38.7533 538.75 38.66C539.11 38.5533 539.43 38.4 539.71 38.2C539.99 37.9867 540.21 37.7267 540.37 37.42C540.53 37.1 540.61 36.7267 540.61 36.3V33.54ZM549.698 40.2C548.725 40.2 547.825 39.9933 546.998 39.58C546.185 39.1667 545.558 38.58 545.118 37.82L546.478 36.84C546.772 37.4533 547.198 37.9333 547.758 38.28C548.332 38.6267 549.018 38.8 549.818 38.8C550.525 38.8 551.078 38.6667 551.478 38.4C551.878 38.12 552.078 37.76 552.078 37.32C552.078 37.04 551.985 36.7867 551.798 36.56C551.625 36.32 551.285 36.1467 550.778 36.04L548.378 35.54C547.405 35.34 546.705 35.0067 546.278 34.54C545.865 34.0733 545.658 33.4933 545.658 32.8C545.658 32.2533 545.812 31.7533 546.118 31.3C546.438 30.8467 546.885 30.4867 547.458 30.22C548.045 29.94 548.732 29.8 549.518 29.8C550.505 29.8 551.338 29.9933 552.018 30.38C552.698 30.7667 553.205 31.3133 553.538 32.02L552.198 32.9C551.972 32.3133 551.605 31.8867 551.098 31.62C550.592 31.34 550.065 31.2 549.518 31.2C549.038 31.2 548.625 31.2667 548.278 31.4C547.945 31.5333 547.685 31.72 547.498 31.96C547.325 32.1867 547.238 32.4467 547.238 32.74C547.238 33.0333 547.338 33.3067 547.538 33.56C547.738 33.8 548.112 33.9733 548.658 34.08L551.158 34.6C552.092 34.7867 552.745 35.0933 553.118 35.52C553.492 35.9467 553.678 36.4667 553.678 37.08C553.678 37.7067 553.512 38.26 553.178 38.74C552.845 39.2067 552.378 39.5667 551.778 39.82C551.178 40.0733 550.485 40.2 549.698 40.2ZM559.005 27.16V37.24C559.005 37.7333 559.145 38.1 559.425 38.34C559.705 38.58 560.065 38.7 560.505 38.7C560.892 38.7 561.225 38.6333 561.505 38.5C561.785 38.3667 562.038 38.1867 562.265 37.96L562.825 39.3C562.518 39.58 562.152 39.8 561.725 39.96C561.312 40.12 560.832 40.2 560.285 40.2C559.778 40.2 559.305 40.1133 558.865 39.94C558.425 39.7533 558.072 39.4667 557.805 39.08C557.552 38.68 557.418 38.16 557.405 37.52V27.6L559.005 27.16ZM562.645 30V31.38H555.405V30H562.645ZM569.204 40.2C568.257 40.2 567.411 39.9933 566.664 39.58C565.931 39.1667 565.357 38.5733 564.944 37.8C564.531 37.0133 564.324 36.08 564.324 35C564.324 33.92 564.531 32.9933 564.944 32.22C565.357 31.4333 565.924 30.8333 566.644 30.42C567.364 30.0067 568.184 29.8 569.104 29.8C570.037 29.8 570.831 30 571.484 30.4C572.151 30.8 572.657 31.3467 573.004 32.04C573.351 32.72 573.524 33.4867 573.524 34.34C573.524 34.5667 573.517 34.7733 573.504 34.96C573.491 35.1467 573.471 35.3133 573.444 35.46H565.364V34.04H572.744L571.924 34.2C571.924 33.24 571.657 32.5 571.124 31.98C570.604 31.46 569.917 31.2 569.064 31.2C568.411 31.2 567.844 31.3533 567.364 31.66C566.897 31.9533 566.531 32.3867 566.264 32.96C566.011 33.52 565.884 34.2 565.884 35C565.884 35.7867 566.017 36.4667 566.284 37.04C566.551 37.6133 566.924 38.0533 567.404 38.36C567.897 38.6533 568.484 38.8 569.164 38.8C569.897 38.8 570.491 38.66 570.944 38.38C571.411 38.1 571.784 37.72 572.064 37.24L573.324 37.98C573.071 38.4333 572.744 38.8267 572.344 39.16C571.957 39.4933 571.497 39.7533 570.964 39.94C570.444 40.1133 569.857 40.2 569.204 40.2ZM5.92 51.3C6.26667 51.3 6.59333 51.34 6.9 51.42C7.20667 51.5 7.44667 51.6133 7.62 51.76L7.2 53.06C7.04 52.9533 6.86667 52.88 6.68 52.84C6.49333 52.7867 6.28667 52.76 6.06 52.76C5.48667 52.76 5.04 52.9 4.72 53.18C4.4 53.4467 4.24 53.88 4.24 54.48V56V56.52V66H2.64V54.32C2.64 53.88 2.70667 53.4733 2.84 53.1C2.97333 52.7267 3.17333 52.4067 3.44 52.14C3.72 51.8733 4.06667 51.6667 4.48 51.52C4.89333 51.3733 5.37333 51.3 5.92 51.3ZM7.58 56V57.38H0.64V56H7.58ZM13.5781 55.8C14.5248 55.8 15.3581 56.0067 16.0781 56.42C16.8115 56.8333 17.3848 57.4333 17.7981 58.22C18.2115 58.9933 18.4181 59.92 18.4181 61C18.4181 62.08 18.2115 63.0133 17.7981 63.8C17.3848 64.5733 16.8115 65.1667 16.0781 65.58C15.3581 65.9933 14.5248 66.2 13.5781 66.2C12.6448 66.2 11.8115 65.9933 11.0781 65.58C10.3448 65.1667 9.77146 64.5733 9.35813 63.8C8.94479 63.0133 8.73813 62.08 8.73813 61C8.73813 59.92 8.94479 58.9933 9.35813 58.22C9.77146 57.4333 10.3448 56.8333 11.0781 56.42C11.8115 56.0067 12.6448 55.8 13.5781 55.8ZM13.5781 57.18C12.8981 57.18 12.3181 57.3333 11.8381 57.64C11.3581 57.9467 10.9848 58.3867 10.7181 58.96C10.4648 59.52 10.3381 60.2 10.3381 61C10.3381 61.7867 10.4648 62.4667 10.7181 63.04C10.9848 63.6133 11.3581 64.0533 11.8381 64.36C12.3181 64.6667 12.8981 64.82 13.5781 64.82C14.2581 64.82 14.8381 64.6667 15.3181 64.36C15.7981 64.0533 16.1648 63.6133 16.4181 63.04C16.6848 62.4667 16.8181 61.7867 16.8181 61C16.8181 60.2 16.6848 59.52 16.4181 58.96C16.1648 58.3867 15.7981 57.9467 15.3181 57.64C14.8381 57.3333 14.2581 57.18 13.5781 57.18ZM21.4303 66V56H22.7303L22.9503 57.64C23.2303 57.0267 23.637 56.5667 24.1703 56.26C24.717 55.9533 25.377 55.8 26.1503 55.8C26.3236 55.8 26.5103 55.8133 26.7103 55.84C26.9236 55.8667 27.1036 55.92 27.2503 56L26.9703 57.46C26.8236 57.4067 26.6636 57.3667 26.4903 57.34C26.317 57.3133 26.0703 57.3 25.7503 57.3C25.337 57.3 24.917 57.42 24.4903 57.66C24.077 57.9 23.7303 58.2667 23.4503 58.76C23.1703 59.24 23.0303 59.8533 23.0303 60.6V66H21.4303ZM37.9114 53.16V63.24C37.9114 63.7333 38.0514 64.1 38.3314 64.34C38.6114 64.58 38.9714 64.7 39.4114 64.7C39.7981 64.7 40.1314 64.6333 40.4114 64.5C40.6914 64.3667 40.9447 64.1867 41.1714 63.96L41.7314 65.3C41.4247 65.58 41.0581 65.8 40.6314 65.96C40.2181 66.12 39.7381 66.2 39.1914 66.2C38.6847 66.2 38.2114 66.1133 37.7714 65.94C37.3314 65.7533 36.9781 65.4667 36.7114 65.08C36.4581 64.68 36.3247 64.16 36.3114 63.52V53.6L37.9114 53.16ZM41.5514 56V57.38H34.3114V56H41.5514ZM43.9303 66V51.4H45.5303V57.5C45.877 56.9 46.337 56.4667 46.9103 56.2C47.4836 55.9333 48.1103 55.8 48.7903 55.8C49.5103 55.8 50.1636 55.94 50.7503 56.22C51.337 56.4867 51.8036 56.9 52.1503 57.46C52.5103 58.02 52.6903 58.7333 52.6903 59.6V66H51.0903V60.16C51.0903 59.0533 50.8503 58.2867 50.3703 57.86C49.9036 57.42 49.3236 57.2 48.6303 57.2C48.1503 57.2 47.6703 57.3133 47.1903 57.54C46.7103 57.7667 46.3103 58.14 45.9903 58.66C45.6836 59.1667 45.5303 59.8467 45.5303 60.7V66H43.9303ZM60.4931 66.2C59.5465 66.2 58.6998 65.9933 57.9531 65.58C57.2198 65.1667 56.6465 64.5733 56.2331 63.8C55.8198 63.0133 55.6131 62.08 55.6131 61C55.6131 59.92 55.8198 58.9933 56.2331 58.22C56.6465 57.4333 57.2131 56.8333 57.9331 56.42C58.6531 56.0067 59.4731 55.8 60.3931 55.8C61.3265 55.8 62.1198 56 62.7731 56.4C63.4398 56.8 63.9465 57.3467 64.2931 58.04C64.6398 58.72 64.8131 59.4867 64.8131 60.34C64.8131 60.5667 64.8065 60.7733 64.7931 60.96C64.7798 61.1467 64.7598 61.3133 64.7331 61.46H56.6531V60.04H64.0331L63.2131 60.2C63.2131 59.24 62.9465 58.5 62.4131 57.98C61.8931 57.46 61.2065 57.2 60.3531 57.2C59.6998 57.2 59.1331 57.3533 58.6531 57.66C58.1865 57.9533 57.8198 58.3867 57.5531 58.96C57.2998 59.52 57.1731 60.2 57.1731 61C57.1731 61.7867 57.3065 62.4667 57.5731 63.04C57.8398 63.6133 58.2131 64.0533 58.6931 64.36C59.1865 64.6533 59.7731 64.8 60.4531 64.8C61.1865 64.8 61.7798 64.66 62.2331 64.38C62.6998 64.1 63.0731 63.72 63.3531 63.24L64.6131 63.98C64.3598 64.4333 64.0331 64.8267 63.6331 65.16C63.2465 65.4933 62.7865 65.7533 62.2531 65.94C61.7331 66.1133 61.1465 66.2 60.4931 66.2ZM83.7056 52.8V54.3H79.1056V66H77.5056V54.3H72.9056V52.8H83.7056ZM85.8053 66V51.4H87.4053V57.5C87.752 56.9 88.212 56.4667 88.7853 56.2C89.3586 55.9333 89.9853 55.8 90.6653 55.8C91.3853 55.8 92.0386 55.94 92.6253 56.22C93.212 56.4867 93.6786 56.9 94.0253 57.46C94.3853 58.02 94.5653 58.7333 94.5653 59.6V66H92.9653V60.16C92.9653 59.0533 92.7253 58.2867 92.2453 57.86C91.7786 57.42 91.1986 57.2 90.5053 57.2C90.0253 57.2 89.5453 57.3133 89.0653 57.54C88.5853 57.7667 88.1853 58.14 87.8653 58.66C87.5586 59.1667 87.4053 59.8467 87.4053 60.7V66H85.8053ZM102.368 66.2C101.421 66.2 100.575 65.9933 99.8281 65.58C99.0948 65.1667 98.5215 64.5733 98.1081 63.8C97.6948 63.0133 97.4881 62.08 97.4881 61C97.4881 59.92 97.6948 58.9933 98.1081 58.22C98.5215 57.4333 99.0881 56.8333 99.8081 56.42C100.528 56.0067 101.348 55.8 102.268 55.8C103.201 55.8 103.995 56 104.648 56.4C105.315 56.8 105.821 57.3467 106.168 58.04C106.515 58.72 106.688 59.4867 106.688 60.34C106.688 60.5667 106.681 60.7733 106.668 60.96C106.655 61.1467 106.635 61.3133 106.608 61.46H98.5281V60.04H105.908L105.088 60.2C105.088 59.24 104.821 58.5 104.288 57.98C103.768 57.46 103.081 57.2 102.228 57.2C101.575 57.2 101.008 57.3533 100.528 57.66C100.061 57.9533 99.6948 58.3867 99.4281 58.96C99.1748 59.52 99.0481 60.2 99.0481 61C99.0481 61.7867 99.1815 62.4667 99.4481 63.04C99.7148 63.6133 100.088 64.0533 100.568 64.36C101.061 64.6533 101.648 64.8 102.328 64.8C103.061 64.8 103.655 64.66 104.108 64.38C104.575 64.1 104.948 63.72 105.228 63.24L106.488 63.98C106.235 64.4333 105.908 64.8267 105.508 65.16C105.121 65.4933 104.661 65.7533 104.128 65.94C103.608 66.1133 103.021 66.2 102.368 66.2ZM115.571 59.54C115.571 58.7933 115.371 58.22 114.971 57.82C114.571 57.4067 114.004 57.2 113.271 57.2C112.578 57.2 111.991 57.3533 111.511 57.66C111.031 57.9533 110.678 58.4333 110.451 59.1L109.151 58.3C109.418 57.5533 109.911 56.9533 110.631 56.5C111.351 56.0333 112.244 55.8 113.311 55.8C114.031 55.8 114.684 55.9267 115.271 56.18C115.858 56.42 116.318 56.7933 116.651 57.3C116.998 57.7933 117.171 58.4333 117.171 59.22V64.06C117.171 64.54 117.424 64.78 117.931 64.78C118.184 64.78 118.431 64.7467 118.671 64.68L118.591 65.94C118.324 66.0733 117.978 66.14 117.551 66.14C117.164 66.14 116.818 66.0667 116.511 65.92C116.204 65.7733 115.964 65.5533 115.791 65.26C115.618 64.9533 115.531 64.5733 115.531 64.12V63.92L115.931 63.98C115.771 64.5 115.498 64.9267 115.111 65.26C114.724 65.58 114.291 65.82 113.811 65.98C113.331 66.1267 112.858 66.2 112.391 66.2C111.804 66.2 111.258 66.1 110.751 65.9C110.244 65.7 109.838 65.4 109.531 65C109.238 64.5867 109.091 64.08 109.091 63.48C109.091 62.7333 109.338 62.12 109.831 61.64C110.338 61.1467 111.038 60.8133 111.931 60.64L115.891 59.86V61.18L112.671 61.84C112.018 61.9733 111.531 62.16 111.211 62.4C110.891 62.64 110.731 62.9733 110.731 63.4C110.731 63.8133 110.891 64.1533 111.211 64.42C111.544 64.6733 112.011 64.8 112.611 64.8C112.998 64.8 113.364 64.7533 113.711 64.66C114.071 64.5533 114.391 64.4 114.671 64.2C114.951 63.9867 115.171 63.7267 115.331 63.42C115.491 63.1 115.571 62.7267 115.571 62.3V59.54ZM123.029 53.16V63.24C123.029 63.7333 123.169 64.1 123.449 64.34C123.729 64.58 124.089 64.7 124.529 64.7C124.915 64.7 125.249 64.6333 125.529 64.5C125.809 64.3667 126.062 64.1867 126.289 63.96L126.849 65.3C126.542 65.58 126.175 65.8 125.749 65.96C125.335 66.12 124.855 66.2 124.309 66.2C123.802 66.2 123.329 66.1133 122.889 65.94C122.449 65.7533 122.095 65.4667 121.829 65.08C121.575 64.68 121.442 64.16 121.429 63.52V53.6L123.029 53.16ZM126.669 56V57.38H119.429V56H126.669ZM129.048 66V56H130.348L130.568 57.64C130.848 57.0267 131.254 56.5667 131.788 56.26C132.334 55.9533 132.994 55.8 133.768 55.8C133.941 55.8 134.128 55.8133 134.328 55.84C134.541 55.8667 134.721 55.92 134.868 56L134.588 57.46C134.441 57.4067 134.281 57.3667 134.108 57.34C133.934 57.3133 133.688 57.3 133.368 57.3C132.954 57.3 132.534 57.42 132.108 57.66C131.694 57.9 131.348 58.2667 131.068 58.76C130.788 59.24 130.648 59.8533 130.648 60.6V66H129.048ZM138.012 54.08C137.652 54.08 137.358 53.9733 137.132 53.76C136.918 53.5333 136.812 53.24 136.812 52.88C136.812 52.52 136.918 52.2333 137.132 52.02C137.358 51.7933 137.652 51.68 138.012 51.68C138.372 51.68 138.658 51.7933 138.872 52.02C139.098 52.2333 139.212 52.52 139.212 52.88C139.212 53.24 139.098 53.5333 138.872 53.76C138.658 53.9733 138.372 54.08 138.012 54.08ZM138.812 56V66H137.212V56H138.812ZM146.664 55.8C147.357 55.8 147.964 55.9067 148.484 56.12C149.017 56.3333 149.477 56.64 149.864 57.04C150.251 57.44 150.564 57.9133 150.804 58.46L149.284 59.18C149.071 58.54 148.744 58.0533 148.304 57.72C147.877 57.3733 147.317 57.2 146.624 57.2C145.957 57.2 145.384 57.3533 144.904 57.66C144.424 57.9533 144.057 58.3867 143.804 58.96C143.551 59.52 143.424 60.2 143.424 61C143.424 61.7867 143.551 62.4667 143.804 63.04C144.057 63.6133 144.424 64.0533 144.904 64.36C145.384 64.6533 145.957 64.8 146.624 64.8C147.144 64.8 147.591 64.72 147.964 64.56C148.351 64.4 148.664 64.1667 148.904 63.86C149.157 63.5533 149.331 63.18 149.424 62.74L150.904 63.26C150.677 63.8733 150.364 64.4 149.964 64.84C149.577 65.28 149.104 65.62 148.544 65.86C147.997 66.0867 147.371 66.2 146.664 66.2C145.731 66.2 144.897 65.9933 144.164 65.58C143.431 65.1667 142.857 64.5733 142.444 63.8C142.031 63.0133 141.824 62.08 141.824 61C141.824 59.92 142.031 58.9933 142.444 58.22C142.857 57.4333 143.431 56.8333 144.164 56.42C144.897 56.0067 145.731 55.8 146.664 55.8ZM159.555 59.54C159.555 58.7933 159.355 58.22 158.955 57.82C158.555 57.4067 157.989 57.2 157.255 57.2C156.562 57.2 155.975 57.3533 155.495 57.66C155.015 57.9533 154.662 58.4333 154.435 59.1L153.135 58.3C153.402 57.5533 153.895 56.9533 154.615 56.5C155.335 56.0333 156.229 55.8 157.295 55.8C158.015 55.8 158.669 55.9267 159.255 56.18C159.842 56.42 160.302 56.7933 160.635 57.3C160.982 57.7933 161.155 58.4333 161.155 59.22V64.06C161.155 64.54 161.409 64.78 161.915 64.78C162.169 64.78 162.415 64.7467 162.655 64.68L162.575 65.94C162.309 66.0733 161.962 66.14 161.535 66.14C161.149 66.14 160.802 66.0667 160.495 65.92C160.189 65.7733 159.949 65.5533 159.775 65.26C159.602 64.9533 159.515 64.5733 159.515 64.12V63.92L159.915 63.98C159.755 64.5 159.482 64.9267 159.095 65.26C158.709 65.58 158.275 65.82 157.795 65.98C157.315 66.1267 156.842 66.2 156.375 66.2C155.789 66.2 155.242 66.1 154.735 65.9C154.229 65.7 153.822 65.4 153.515 65C153.222 64.5867 153.075 64.08 153.075 63.48C153.075 62.7333 153.322 62.12 153.815 61.64C154.322 61.1467 155.022 60.8133 155.915 60.64L159.875 59.86V61.18L156.655 61.84C156.002 61.9733 155.515 62.16 155.195 62.4C154.875 62.64 154.715 62.9733 154.715 63.4C154.715 63.8133 154.875 64.1533 155.195 64.42C155.529 64.6733 155.995 64.8 156.595 64.8C156.982 64.8 157.349 64.7533 157.695 64.66C158.055 64.5533 158.375 64.4 158.655 64.2C158.935 63.9867 159.155 63.7267 159.315 63.42C159.475 63.1 159.555 62.7267 159.555 62.3V59.54ZM166.564 51.4V63.46C166.564 63.9667 166.657 64.32 166.844 64.52C167.03 64.7067 167.33 64.8 167.744 64.8C168.01 64.8 168.23 64.78 168.404 64.74C168.577 64.7 168.81 64.6267 169.104 64.52L168.844 65.92C168.63 66.0133 168.397 66.08 168.144 66.12C167.89 66.1733 167.63 66.2 167.364 66.2C166.55 66.2 165.944 65.98 165.544 65.54C165.157 65.1 164.964 64.4267 164.964 63.52V51.4H166.564ZM175.608 52.2L175.088 57.14H173.848V52.2H175.608ZM172.228 52.2L171.708 57.14H170.468V52.2H172.228ZM177.172 63.6C177.492 63.6 177.758 63.6867 177.972 63.86C178.198 64.02 178.372 64.2467 178.492 64.54C178.612 64.82 178.672 65.1533 178.672 65.54C178.672 65.98 178.592 66.4133 178.432 66.84C178.285 67.2667 178.052 67.66 177.732 68.02C177.412 68.38 176.998 68.68 176.492 68.92L175.652 68.14C176.012 68.02 176.325 67.8533 176.592 67.64C176.872 67.4267 177.098 67.1867 177.272 66.92C177.445 66.6533 177.558 66.38 177.612 66.1L177.532 66.06C177.478 66.1 177.412 66.1333 177.332 66.16C177.252 66.1867 177.132 66.2 176.972 66.2C176.812 66.2 176.645 66.1533 176.472 66.06C176.312 65.9667 176.172 65.8333 176.052 65.66C175.932 65.4733 175.872 65.2333 175.872 64.94C175.872 64.7 175.932 64.48 176.052 64.28C176.172 64.0667 176.325 63.9 176.512 63.78C176.712 63.66 176.932 63.6 177.172 63.6ZM194.341 59.54C194.341 58.7933 194.141 58.22 193.741 57.82C193.341 57.4067 192.774 57.2 192.041 57.2C191.347 57.2 190.761 57.3533 190.281 57.66C189.801 57.9533 189.447 58.4333 189.221 59.1L187.921 58.3C188.187 57.5533 188.681 56.9533 189.401 56.5C190.121 56.0333 191.014 55.8 192.081 55.8C192.801 55.8 193.454 55.9267 194.041 56.18C194.627 56.42 195.087 56.7933 195.421 57.3C195.767 57.7933 195.941 58.4333 195.941 59.22V64.06C195.941 64.54 196.194 64.78 196.701 64.78C196.954 64.78 197.201 64.7467 197.441 64.68L197.361 65.94C197.094 66.0733 196.747 66.14 196.321 66.14C195.934 66.14 195.587 66.0667 195.281 65.92C194.974 65.7733 194.734 65.5533 194.561 65.26C194.387 64.9533 194.301 64.5733 194.301 64.12V63.92L194.701 63.98C194.541 64.5 194.267 64.9267 193.881 65.26C193.494 65.58 193.061 65.82 192.581 65.98C192.101 66.1267 191.627 66.2 191.161 66.2C190.574 66.2 190.027 66.1 189.521 65.9C189.014 65.7 188.607 65.4 188.301 65C188.007 64.5867 187.861 64.08 187.861 63.48C187.861 62.7333 188.107 62.12 188.601 61.64C189.107 61.1467 189.807 60.8133 190.701 60.64L194.661 59.86V61.18L191.441 61.84C190.787 61.9733 190.301 62.16 189.981 62.4C189.661 62.64 189.501 62.9733 189.501 63.4C189.501 63.8133 189.661 64.1533 189.981 64.42C190.314 64.6733 190.781 64.8 191.381 64.8C191.767 64.8 192.134 64.7533 192.481 64.66C192.841 64.5533 193.161 64.4 193.441 64.2C193.721 63.9867 193.941 63.7267 194.101 63.42C194.261 63.1 194.341 62.7267 194.341 62.3V59.54ZM213.396 70.2V63.26L213.676 63.46C213.583 64.0467 213.356 64.5467 212.996 64.96C212.65 65.36 212.216 65.6667 211.696 65.88C211.19 66.0933 210.65 66.2 210.076 66.2C209.25 66.2 208.49 65.9933 207.796 65.58C207.103 65.1667 206.55 64.5733 206.136 63.8C205.723 63.0133 205.516 62.08 205.516 61C205.516 59.8933 205.736 58.9533 206.176 58.18C206.616 57.4067 207.196 56.82 207.916 56.42C208.636 56.0067 209.41 55.8 210.236 55.8C210.796 55.8 211.316 55.9067 211.796 56.12C212.276 56.32 212.683 56.6133 213.016 57C213.363 57.3733 213.59 57.82 213.696 58.34H213.456L213.596 56H214.996V70.2H213.396ZM210.236 64.8C210.863 64.8 211.41 64.6467 211.876 64.34C212.356 64.02 212.73 63.5733 212.996 63C213.263 62.4133 213.396 61.7267 213.396 60.94C213.396 60.14 213.263 59.4667 212.996 58.92C212.743 58.36 212.383 57.9333 211.916 57.64C211.45 57.3467 210.903 57.2 210.276 57.2C209.29 57.2 208.516 57.5467 207.956 58.24C207.396 58.9333 207.116 59.8533 207.116 61C207.116 62.1467 207.39 63.0667 207.936 63.76C208.483 64.4533 209.25 64.8 210.236 64.8ZM222.335 66.2C221.695 66.2 221.089 66.08 220.515 65.84C219.955 65.6 219.495 65.2133 219.135 64.68C218.789 64.1333 218.615 63.4267 218.615 62.56V56H220.215V62.14C220.215 63.1533 220.435 63.8533 220.875 64.24C221.315 64.6133 221.935 64.8 222.735 64.8C223.109 64.8 223.475 64.74 223.835 64.62C224.195 64.4867 224.515 64.2867 224.795 64.02C225.089 63.74 225.315 63.3867 225.475 62.96C225.649 62.5333 225.735 62.0267 225.735 61.44V56H227.335V66H225.935L225.835 64.48C225.489 65.08 225.015 65.52 224.415 65.8C223.829 66.0667 223.135 66.2 222.335 66.2ZM235.199 55.8C236.146 55.8 236.979 56.0067 237.699 56.42C238.433 56.8333 239.006 57.4333 239.419 58.22C239.833 58.9933 240.039 59.92 240.039 61C240.039 62.08 239.833 63.0133 239.419 63.8C239.006 64.5733 238.433 65.1667 237.699 65.58C236.979 65.9933 236.146 66.2 235.199 66.2C234.266 66.2 233.433 65.9933 232.699 65.58C231.966 65.1667 231.393 64.5733 230.979 63.8C230.566 63.0133 230.359 62.08 230.359 61C230.359 59.92 230.566 58.9933 230.979 58.22C231.393 57.4333 231.966 56.8333 232.699 56.42C233.433 56.0067 234.266 55.8 235.199 55.8ZM235.199 57.18C234.519 57.18 233.939 57.3333 233.459 57.64C232.979 57.9467 232.606 58.3867 232.339 58.96C232.086 59.52 231.959 60.2 231.959 61C231.959 61.7867 232.086 62.4667 232.339 63.04C232.606 63.6133 232.979 64.0533 233.459 64.36C233.939 64.6667 234.519 64.82 235.199 64.82C235.879 64.82 236.459 64.6667 236.939 64.36C237.419 64.0533 237.786 63.6133 238.039 63.04C238.306 62.4667 238.439 61.7867 238.439 61C238.439 60.2 238.306 59.52 238.039 58.96C237.786 58.3867 237.419 57.9467 236.939 57.64C236.459 57.3333 235.879 57.18 235.199 57.18ZM245.236 53.16V63.24C245.236 63.7333 245.376 64.1 245.656 64.34C245.936 64.58 246.296 64.7 246.736 64.7C247.122 64.7 247.456 64.6333 247.736 64.5C248.016 64.3667 248.269 64.1867 248.496 63.96L249.056 65.3C248.749 65.58 248.382 65.8 247.956 65.96C247.542 66.12 247.062 66.2 246.516 66.2C246.009 66.2 245.536 66.1133 245.096 65.94C244.656 65.7533 244.302 65.4667 244.036 65.08C243.782 64.68 243.649 64.16 243.636 63.52V53.6L245.236 53.16ZM248.876 56V57.38H241.636V56H248.876ZM255.435 66.2C254.488 66.2 253.641 65.9933 252.895 65.58C252.161 65.1667 251.588 64.5733 251.175 63.8C250.761 63.0133 250.555 62.08 250.555 61C250.555 59.92 250.761 58.9933 251.175 58.22C251.588 57.4333 252.155 56.8333 252.875 56.42C253.595 56.0067 254.415 55.8 255.335 55.8C256.268 55.8 257.061 56 257.715 56.4C258.381 56.8 258.888 57.3467 259.235 58.04C259.581 58.72 259.755 59.4867 259.755 60.34C259.755 60.5667 259.748 60.7733 259.735 60.96C259.721 61.1467 259.701 61.3133 259.675 61.46H251.595V60.04H258.975L258.155 60.2C258.155 59.24 257.888 58.5 257.355 57.98C256.835 57.46 256.148 57.2 255.295 57.2C254.641 57.2 254.075 57.3533 253.595 57.66C253.128 57.9533 252.761 58.3867 252.495 58.96C252.241 59.52 252.115 60.2 252.115 61C252.115 61.7867 252.248 62.4667 252.515 63.04C252.781 63.6133 253.155 64.0533 253.635 64.36C254.128 64.6533 254.715 64.8 255.395 64.8C256.128 64.8 256.721 64.66 257.175 64.38C257.641 64.1 258.015 63.72 258.295 63.24L259.555 63.98C259.301 64.4333 258.975 64.8267 258.575 65.16C258.188 65.4933 257.728 65.7533 257.195 65.94C256.675 66.1133 256.088 66.2 255.435 66.2ZM273.303 51.3C273.649 51.3 273.976 51.34 274.283 51.42C274.589 51.5 274.829 51.6133 275.003 51.76L274.583 53.06C274.423 52.9533 274.249 52.88 274.063 52.84C273.876 52.7867 273.669 52.76 273.443 52.76C272.869 52.76 272.423 52.9 272.103 53.18C271.783 53.4467 271.623 53.88 271.623 54.48V56V56.52V66H270.023V54.32C270.023 53.88 270.089 53.4733 270.223 53.1C270.356 52.7267 270.556 52.4067 270.823 52.14C271.103 51.8733 271.449 51.6667 271.863 51.52C272.276 51.3733 272.756 51.3 273.303 51.3ZM274.963 56V57.38H268.023V56H274.963ZM277.094 66V56H278.394L278.614 57.64C278.894 57.0267 279.301 56.5667 279.834 56.26C280.381 55.9533 281.041 55.8 281.814 55.8C281.988 55.8 282.174 55.8133 282.374 55.84C282.588 55.8667 282.768 55.92 282.914 56L282.634 57.46C282.488 57.4067 282.328 57.3667 282.154 57.34C281.981 57.3133 281.734 57.3 281.414 57.3C281.001 57.3 280.581 57.42 280.154 57.66C279.741 57.9 279.394 58.2667 279.114 58.76C278.834 59.24 278.694 59.8533 278.694 60.6V66H277.094ZM289.086 55.8C290.033 55.8 290.866 56.0067 291.586 56.42C292.319 56.8333 292.893 57.4333 293.306 58.22C293.719 58.9933 293.926 59.92 293.926 61C293.926 62.08 293.719 63.0133 293.306 63.8C292.893 64.5733 292.319 65.1667 291.586 65.58C290.866 65.9933 290.033 66.2 289.086 66.2C288.153 66.2 287.319 65.9933 286.586 65.58C285.853 65.1667 285.279 64.5733 284.866 63.8C284.453 63.0133 284.246 62.08 284.246 61C284.246 59.92 284.453 58.9933 284.866 58.22C285.279 57.4333 285.853 56.8333 286.586 56.42C287.319 56.0067 288.153 55.8 289.086 55.8ZM289.086 57.18C288.406 57.18 287.826 57.3333 287.346 57.64C286.866 57.9467 286.493 58.3867 286.226 58.96C285.973 59.52 285.846 60.2 285.846 61C285.846 61.7867 285.973 62.4667 286.226 63.04C286.493 63.6133 286.866 64.0533 287.346 64.36C287.826 64.6667 288.406 64.82 289.086 64.82C289.766 64.82 290.346 64.6667 290.826 64.36C291.306 64.0533 291.673 63.6133 291.926 63.04C292.193 62.4667 292.326 61.7867 292.326 61C292.326 60.2 292.193 59.52 291.926 58.96C291.673 58.3867 291.306 57.9467 290.826 57.64C290.346 57.3333 289.766 57.18 289.086 57.18ZM296.938 66V56H298.338L298.438 57.56C298.798 56.9467 299.265 56.5 299.838 56.22C300.425 55.94 301.025 55.8 301.638 55.8C302.345 55.8 303.011 55.96 303.638 56.28C304.265 56.6 304.745 57.0933 305.078 57.76C305.291 57.3067 305.591 56.94 305.978 56.66C306.365 56.3667 306.785 56.1533 307.238 56.02C307.705 55.8733 308.145 55.8 308.558 55.8C309.198 55.8 309.805 55.9333 310.378 56.2C310.965 56.4667 311.445 56.88 311.818 57.44C312.191 58 312.378 58.72 312.378 59.6V66H310.778V59.76C310.778 58.8533 310.551 58.2 310.098 57.8C309.645 57.4 309.085 57.2 308.418 57.2C307.898 57.2 307.411 57.3267 306.958 57.58C306.505 57.8333 306.138 58.2067 305.858 58.7C305.591 59.1933 305.458 59.8 305.458 60.52V66H303.858V59.76C303.858 58.8533 303.631 58.2 303.178 57.8C302.725 57.4 302.165 57.2 301.498 57.2C301.058 57.2 300.605 57.32 300.138 57.56C299.685 57.7867 299.305 58.1533 298.998 58.66C298.691 59.1667 298.538 59.8333 298.538 60.66V66H296.938ZM324.786 53.16V63.24C324.786 63.7333 324.926 64.1 325.206 64.34C325.486 64.58 325.846 64.7 326.286 64.7C326.673 64.7 327.006 64.6333 327.286 64.5C327.566 64.3667 327.82 64.1867 328.046 63.96L328.606 65.3C328.3 65.58 327.933 65.8 327.506 65.96C327.093 66.12 326.613 66.2 326.066 66.2C325.56 66.2 325.086 66.1133 324.646 65.94C324.206 65.7533 323.853 65.4667 323.586 65.08C323.333 64.68 323.2 64.16 323.186 63.52V53.6L324.786 53.16ZM328.426 56V57.38H321.186V56H328.426ZM330.805 66V51.4H332.405V57.5C332.752 56.9 333.212 56.4667 333.785 56.2C334.359 55.9333 334.985 55.8 335.665 55.8C336.385 55.8 337.039 55.94 337.625 56.22C338.212 56.4867 338.679 56.9 339.025 57.46C339.385 58.02 339.565 58.7333 339.565 59.6V66H337.965V60.16C337.965 59.0533 337.725 58.2867 337.245 57.86C336.779 57.42 336.199 57.2 335.505 57.2C335.025 57.2 334.545 57.3133 334.065 57.54C333.585 57.7667 333.185 58.14 332.865 58.66C332.559 59.1667 332.405 59.8467 332.405 60.7V66H330.805ZM347.368 66.2C346.421 66.2 345.575 65.9933 344.828 65.58C344.095 65.1667 343.521 64.5733 343.108 63.8C342.695 63.0133 342.488 62.08 342.488 61C342.488 59.92 342.695 58.9933 343.108 58.22C343.521 57.4333 344.088 56.8333 344.808 56.42C345.528 56.0067 346.348 55.8 347.268 55.8C348.201 55.8 348.995 56 349.648 56.4C350.315 56.8 350.821 57.3467 351.168 58.04C351.515 58.72 351.688 59.4867 351.688 60.34C351.688 60.5667 351.681 60.7733 351.668 60.96C351.655 61.1467 351.635 61.3133 351.608 61.46H343.528V60.04H350.908L350.088 60.2C350.088 59.24 349.821 58.5 349.288 57.98C348.768 57.46 348.081 57.2 347.228 57.2C346.575 57.2 346.008 57.3533 345.528 57.66C345.061 57.9533 344.695 58.3867 344.428 58.96C344.175 59.52 344.048 60.2 344.048 61C344.048 61.7867 344.181 62.4667 344.448 63.04C344.715 63.6133 345.088 64.0533 345.568 64.36C346.061 64.6533 346.648 64.8 347.328 64.8C348.061 64.8 348.655 64.66 349.108 64.38C349.575 64.1 349.948 63.72 350.228 63.24L351.488 63.98C351.235 64.4333 350.908 64.8267 350.508 65.16C350.121 65.4933 349.661 65.7533 349.128 65.94C348.608 66.1133 348.021 66.2 347.368 66.2ZM361.548 70.2V56H362.948L363.088 58.44L362.868 58.16C363.041 57.6933 363.301 57.2867 363.648 56.94C363.994 56.58 364.414 56.3 364.908 56.1C365.401 55.9 365.934 55.8 366.508 55.8C367.321 55.8 368.068 56.0067 368.748 56.42C369.441 56.8333 369.994 57.4267 370.408 58.2C370.821 58.9733 371.028 59.9067 371.028 61C371.028 62.08 370.814 63.0133 370.388 63.8C369.974 64.5733 369.421 65.1667 368.728 65.58C368.034 65.9933 367.274 66.2 366.448 66.2C365.621 66.2 364.894 66 364.268 65.6C363.654 65.1867 363.214 64.6667 362.948 64.04L363.148 63.74V70.2H361.548ZM366.288 64.8C367.274 64.8 368.041 64.4533 368.588 63.76C369.148 63.0667 369.428 62.1467 369.428 61C369.428 59.8533 369.154 58.9333 368.608 58.24C368.074 57.5467 367.321 57.2 366.348 57.2C365.708 57.2 365.148 57.36 364.668 57.68C364.188 57.9867 363.814 58.4267 363.548 59C363.281 59.56 363.148 60.2267 363.148 61C363.148 61.76 363.274 62.4267 363.528 63C363.794 63.5733 364.161 64.02 364.628 64.34C365.108 64.6467 365.661 64.8 366.288 64.8ZM374.087 66V56H375.387L375.607 57.64C375.887 57.0267 376.293 56.5667 376.827 56.26C377.373 55.9533 378.033 55.8 378.807 55.8C378.98 55.8 379.167 55.8133 379.367 55.84C379.58 55.8667 379.76 55.92 379.907 56L379.627 57.46C379.48 57.4067 379.32 57.3667 379.147 57.34C378.973 57.3133 378.727 57.3 378.407 57.3C377.993 57.3 377.573 57.42 377.147 57.66C376.733 57.9 376.387 58.2667 376.107 58.76C375.827 59.24 375.687 59.8533 375.687 60.6V66H374.087ZM386.118 66.2C385.171 66.2 384.325 65.9933 383.578 65.58C382.845 65.1667 382.271 64.5733 381.858 63.8C381.445 63.0133 381.238 62.08 381.238 61C381.238 59.92 381.445 58.9933 381.858 58.22C382.271 57.4333 382.838 56.8333 383.558 56.42C384.278 56.0067 385.098 55.8 386.018 55.8C386.951 55.8 387.745 56 388.398 56.4C389.065 56.8 389.571 57.3467 389.918 58.04C390.265 58.72 390.438 59.4867 390.438 60.34C390.438 60.5667 390.431 60.7733 390.418 60.96C390.405 61.1467 390.385 61.3133 390.358 61.46H382.278V60.04H389.658L388.838 60.2C388.838 59.24 388.571 58.5 388.038 57.98C387.518 57.46 386.831 57.2 385.978 57.2C385.325 57.2 384.758 57.3533 384.278 57.66C383.811 57.9533 383.445 58.3867 383.178 58.96C382.925 59.52 382.798 60.2 382.798 61C382.798 61.7867 382.931 62.4667 383.198 63.04C383.465 63.6133 383.838 64.0533 384.318 64.36C384.811 64.6533 385.398 64.8 386.078 64.8C386.811 64.8 387.405 64.66 387.858 64.38C388.325 64.1 388.698 63.72 388.978 63.24L390.238 63.98C389.985 64.4333 389.658 64.8267 389.258 65.16C388.871 65.4933 388.411 65.7533 387.878 65.94C387.358 66.1133 386.771 66.2 386.118 66.2ZM399.828 56H401.508L397.348 66H395.748L391.588 56H393.408L396.568 64.38L399.828 56ZM404.398 54.08C404.038 54.08 403.745 53.9733 403.518 53.76C403.305 53.5333 403.198 53.24 403.198 52.88C403.198 52.52 403.305 52.2333 403.518 52.02C403.745 51.7933 404.038 51.68 404.398 51.68C404.758 51.68 405.045 51.7933 405.258 52.02C405.485 52.2333 405.598 52.52 405.598 52.88C405.598 53.24 405.485 53.5333 405.258 53.76C405.045 53.9733 404.758 54.08 404.398 54.08ZM405.198 56V66H403.598V56H405.198ZM413.051 55.8C413.997 55.8 414.831 56.0067 415.551 56.42C416.284 56.8333 416.857 57.4333 417.271 58.22C417.684 58.9933 417.891 59.92 417.891 61C417.891 62.08 417.684 63.0133 417.271 63.8C416.857 64.5733 416.284 65.1667 415.551 65.58C414.831 65.9933 413.997 66.2 413.051 66.2C412.117 66.2 411.284 65.9933 410.551 65.58C409.817 65.1667 409.244 64.5733 408.831 63.8C408.417 63.0133 408.211 62.08 408.211 61C408.211 59.92 408.417 58.9933 408.831 58.22C409.244 57.4333 409.817 56.8333 410.551 56.42C411.284 56.0067 412.117 55.8 413.051 55.8ZM413.051 57.18C412.371 57.18 411.791 57.3333 411.311 57.64C410.831 57.9467 410.457 58.3867 410.191 58.96C409.937 59.52 409.811 60.2 409.811 61C409.811 61.7867 409.937 62.4667 410.191 63.04C410.457 63.6133 410.831 64.0533 411.311 64.36C411.791 64.6667 412.371 64.82 413.051 64.82C413.731 64.82 414.311 64.6667 414.791 64.36C415.271 64.0533 415.637 63.6133 415.891 63.04C416.157 62.4667 416.291 61.7867 416.291 61C416.291 60.2 416.157 59.52 415.891 58.96C415.637 58.3867 415.271 57.9467 414.791 57.64C414.311 57.3333 413.731 57.18 413.051 57.18ZM424.523 66.2C423.883 66.2 423.276 66.08 422.703 65.84C422.143 65.6 421.683 65.2133 421.323 64.68C420.976 64.1333 420.803 63.4267 420.803 62.56V56H422.403V62.14C422.403 63.1533 422.623 63.8533 423.063 64.24C423.503 64.6133 424.123 64.8 424.923 64.8C425.296 64.8 425.663 64.74 426.023 64.62C426.383 64.4867 426.703 64.2867 426.983 64.02C427.276 63.74 427.503 63.3867 427.663 62.96C427.836 62.5333 427.923 62.0267 427.923 61.44V56H429.523V66H428.123L428.023 64.48C427.676 65.08 427.203 65.52 426.603 65.8C426.016 66.0667 425.323 66.2 424.523 66.2ZM436.847 66.2C435.873 66.2 434.973 65.9933 434.147 65.58C433.333 65.1667 432.707 64.58 432.267 63.82L433.627 62.84C433.92 63.4533 434.347 63.9333 434.907 64.28C435.48 64.6267 436.167 64.8 436.967 64.8C437.673 64.8 438.227 64.6667 438.627 64.4C439.027 64.12 439.227 63.76 439.227 63.32C439.227 63.04 439.133 62.7867 438.947 62.56C438.773 62.32 438.433 62.1467 437.927 62.04L435.527 61.54C434.553 61.34 433.853 61.0067 433.427 60.54C433.013 60.0733 432.807 59.4933 432.807 58.8C432.807 58.2533 432.96 57.7533 433.267 57.3C433.587 56.8467 434.033 56.4867 434.607 56.22C435.193 55.94 435.88 55.8 436.667 55.8C437.653 55.8 438.487 55.9933 439.167 56.38C439.847 56.7667 440.353 57.3133 440.687 58.02L439.347 58.9C439.12 58.3133 438.753 57.8867 438.247 57.62C437.74 57.34 437.213 57.2 436.667 57.2C436.187 57.2 435.773 57.2667 435.427 57.4C435.093 57.5333 434.833 57.72 434.647 57.96C434.473 58.1867 434.387 58.4467 434.387 58.74C434.387 59.0333 434.487 59.3067 434.687 59.56C434.887 59.8 435.26 59.9733 435.807 60.08L438.307 60.6C439.24 60.7867 439.893 61.0933 440.267 61.52C440.64 61.9467 440.827 62.4667 440.827 63.08C440.827 63.7067 440.66 64.26 440.327 64.74C439.993 65.2067 439.527 65.5667 438.927 65.82C438.327 66.0733 437.633 66.2 436.847 66.2ZM454.299 51.3C454.646 51.3 454.972 51.34 455.279 51.42C455.586 51.5 455.826 51.6133 455.999 51.76L455.579 53.06C455.419 52.9533 455.246 52.88 455.059 52.84C454.872 52.7867 454.666 52.76 454.439 52.76C453.866 52.76 453.419 52.9 453.099 53.18C452.779 53.4467 452.619 53.88 452.619 54.48V56V56.52V66H451.019V54.32C451.019 53.88 451.086 53.4733 451.219 53.1C451.352 52.7267 451.552 52.4067 451.819 52.14C452.099 51.8733 452.446 51.6667 452.859 51.52C453.272 51.3733 453.752 51.3 454.299 51.3ZM455.959 56V57.38H449.019V56H455.959ZM458.899 54.08C458.539 54.08 458.246 53.9733 458.019 53.76C457.806 53.5333 457.699 53.24 457.699 52.88C457.699 52.52 457.806 52.2333 458.019 52.02C458.246 51.7933 458.539 51.68 458.899 51.68C459.259 51.68 459.546 51.7933 459.759 52.02C459.986 52.2333 460.099 52.52 460.099 52.88C460.099 53.24 459.986 53.5333 459.759 53.76C459.546 53.9733 459.259 54.08 458.899 54.08ZM459.699 56V66H458.099V56H459.699ZM464.943 51.4V63.46C464.943 63.9667 465.036 64.32 465.223 64.52C465.409 64.7067 465.709 64.8 466.123 64.8C466.389 64.8 466.609 64.78 466.783 64.74C466.956 64.7 467.189 64.6267 467.483 64.52L467.223 65.92C467.009 66.0133 466.776 66.08 466.523 66.12C466.269 66.1733 466.009 66.2 465.743 66.2C464.929 66.2 464.323 65.98 463.923 65.54C463.536 65.1 463.343 64.4267 463.343 63.52V51.4H464.943ZM469.536 66V56H470.936L471.036 57.56C471.396 56.9467 471.862 56.5 472.436 56.22C473.022 55.94 473.622 55.8 474.236 55.8C474.942 55.8 475.609 55.96 476.236 56.28C476.862 56.6 477.342 57.0933 477.676 57.76C477.889 57.3067 478.189 56.94 478.576 56.66C478.962 56.3667 479.382 56.1533 479.836 56.02C480.302 55.8733 480.742 55.8 481.156 55.8C481.796 55.8 482.402 55.9333 482.976 56.2C483.562 56.4667 484.042 56.88 484.416 57.44C484.789 58 484.976 58.72 484.976 59.6V66H483.376V59.76C483.376 58.8533 483.149 58.2 482.696 57.8C482.242 57.4 481.682 57.2 481.016 57.2C480.496 57.2 480.009 57.3267 479.556 57.58C479.102 57.8333 478.736 58.2067 478.456 58.7C478.189 59.1933 478.056 59.8 478.056 60.52V66H476.456V59.76C476.456 58.8533 476.229 58.2 475.776 57.8C475.322 57.4 474.762 57.2 474.096 57.2C473.656 57.2 473.202 57.32 472.736 57.56C472.282 57.7867 471.902 58.1533 471.596 58.66C471.289 59.1667 471.136 59.8333 471.136 60.66V66H469.536ZM488.362 52C488.682 52 488.949 52.0867 489.162 52.26C489.389 52.42 489.562 52.6467 489.682 52.94C489.802 53.22 489.862 53.5533 489.862 53.94C489.862 54.38 489.782 54.8133 489.622 55.24C489.476 55.6667 489.242 56.06 488.922 56.42C488.602 56.78 488.189 57.08 487.682 57.32L486.842 56.54C487.202 56.42 487.516 56.2533 487.782 56.04C488.062 55.8267 488.289 55.5867 488.462 55.32C488.636 55.0533 488.749 54.78 488.802 54.5L488.722 54.46C488.669 54.5 488.602 54.5333 488.522 54.56C488.442 54.5867 488.322 54.6 488.162 54.6C488.002 54.6 487.836 54.5533 487.662 54.46C487.502 54.3667 487.362 54.2333 487.242 54.06C487.122 53.8733 487.062 53.6333 487.062 53.34C487.062 53.1 487.122 52.88 487.242 52.68C487.362 52.4667 487.516 52.3 487.702 52.18C487.902 52.06 488.122 52 488.362 52ZM495.362 66.2C494.389 66.2 493.489 65.9933 492.662 65.58C491.849 65.1667 491.222 64.58 490.782 63.82L492.142 62.84C492.436 63.4533 492.862 63.9333 493.422 64.28C493.996 64.6267 494.682 64.8 495.482 64.8C496.189 64.8 496.742 64.6667 497.142 64.4C497.542 64.12 497.742 63.76 497.742 63.32C497.742 63.04 497.649 62.7867 497.462 62.56C497.289 62.32 496.949 62.1467 496.442 62.04L494.042 61.54C493.069 61.34 492.369 61.0067 491.942 60.54C491.529 60.0733 491.322 59.4933 491.322 58.8C491.322 58.2533 491.476 57.7533 491.782 57.3C492.102 56.8467 492.549 56.4867 493.122 56.22C493.709 55.94 494.396 55.8 495.182 55.8C496.169 55.8 497.002 55.9933 497.682 56.38C498.362 56.7667 498.869 57.3133 499.202 58.02L497.862 58.9C497.636 58.3133 497.269 57.8867 496.762 57.62C496.256 57.34 495.729 57.2 495.182 57.2C494.702 57.2 494.289 57.2667 493.942 57.4C493.609 57.5333 493.349 57.72 493.162 57.96C492.989 58.1867 492.902 58.4467 492.902 58.74C492.902 59.0333 493.002 59.3067 493.202 59.56C493.402 59.8 493.776 59.9733 494.322 60.08L496.822 60.6C497.756 60.7867 498.409 61.0933 498.782 61.52C499.156 61.9467 499.342 62.4667 499.342 63.08C499.342 63.7067 499.176 64.26 498.842 64.74C498.509 65.2067 498.042 65.5667 497.442 65.82C496.842 66.0733 496.149 66.2 495.362 66.2ZM513.306 66.2C512.359 66.2 511.512 65.9933 510.766 65.58C510.032 65.1667 509.459 64.5733 509.046 63.8C508.632 63.0133 508.426 62.08 508.426 61C508.426 59.92 508.632 58.9933 509.046 58.22C509.459 57.4333 510.026 56.8333 510.746 56.42C511.466 56.0067 512.286 55.8 513.206 55.8C514.139 55.8 514.932 56 515.586 56.4C516.252 56.8 516.759 57.3467 517.106 58.04C517.452 58.72 517.626 59.4867 517.626 60.34C517.626 60.5667 517.619 60.7733 517.606 60.96C517.592 61.1467 517.572 61.3133 517.546 61.46H509.466V60.04H516.846L516.026 60.2C516.026 59.24 515.759 58.5 515.226 57.98C514.706 57.46 514.019 57.2 513.166 57.2C512.512 57.2 511.946 57.3533 511.466 57.66C510.999 57.9533 510.632 58.3867 510.366 58.96C510.112 59.52 509.986 60.2 509.986 61C509.986 61.7867 510.119 62.4667 510.386 63.04C510.652 63.6133 511.026 64.0533 511.506 64.36C511.999 64.6533 512.586 64.8 513.266 64.8C513.999 64.8 514.592 64.66 515.046 64.38C515.512 64.1 515.886 63.72 516.166 63.24L517.426 63.98C517.172 64.4333 516.846 64.8267 516.446 65.16C516.059 65.4933 515.599 65.7533 515.066 65.94C514.546 66.1133 513.959 66.2 513.306 66.2ZM520.669 66V56H522.069L522.209 58.24L521.949 58.02C522.162 57.4867 522.449 57.06 522.809 56.74C523.169 56.4067 523.582 56.1667 524.049 56.02C524.529 55.8733 525.022 55.8 525.529 55.8C526.249 55.8 526.902 55.94 527.489 56.22C528.075 56.4867 528.542 56.9 528.889 57.46C529.249 58.02 529.429 58.7333 529.429 59.6V66H527.829V60.16C527.829 59.0533 527.589 58.2867 527.109 57.86C526.642 57.42 526.062 57.2 525.369 57.2C524.889 57.2 524.409 57.3133 523.929 57.54C523.449 57.7667 523.049 58.1333 522.729 58.64C522.422 59.1467 522.269 59.8267 522.269 60.68V66H520.669ZM536.951 66.2C536.125 66.2 535.365 65.9933 534.671 65.58C533.978 65.1667 533.425 64.5733 533.011 63.8C532.598 63.0133 532.391 62.08 532.391 61C532.391 59.8933 532.611 58.9533 533.051 58.18C533.491 57.4067 534.071 56.82 534.791 56.42C535.511 56.0067 536.285 55.8 537.111 55.8C537.938 55.8 538.651 56.0133 539.251 56.44C539.865 56.8667 540.271 57.4333 540.471 58.14L540.271 58.28V51.4H541.871V66H540.471L540.331 63.58L540.551 63.46C540.458 64.0467 540.231 64.5467 539.871 64.96C539.525 65.36 539.091 65.6667 538.571 65.88C538.065 66.0933 537.525 66.2 536.951 66.2ZM537.111 64.8C537.751 64.8 538.305 64.64 538.771 64.32C539.251 64 539.618 63.5467 539.871 62.96C540.138 62.36 540.271 61.66 540.271 60.86C540.271 60.1 540.138 59.4467 539.871 58.9C539.618 58.3533 539.258 57.9333 538.791 57.64C538.338 57.3467 537.805 57.2 537.191 57.2C536.178 57.2 535.391 57.5467 534.831 58.24C534.271 58.9333 533.991 59.8533 533.991 61C533.991 62.1467 534.265 63.0667 534.811 63.76C535.358 64.4533 536.125 64.8 537.111 64.8ZM546.39 54.08C546.03 54.08 545.737 53.9733 545.51 53.76C545.297 53.5333 545.19 53.24 545.19 52.88C545.19 52.52 545.297 52.2333 545.51 52.02C545.737 51.7933 546.03 51.68 546.39 51.68C546.75 51.68 547.037 51.7933 547.25 52.02C547.477 52.2333 547.59 52.52 547.59 52.88C547.59 53.24 547.477 53.5333 547.25 53.76C547.037 53.9733 546.75 54.08 546.39 54.08ZM547.19 56V66H545.59V56H547.19ZM550.903 66V56H552.303L552.443 58.24L552.183 58.02C552.396 57.4867 552.683 57.06 553.043 56.74C553.403 56.4067 553.816 56.1667 554.283 56.02C554.763 55.8733 555.256 55.8 555.763 55.8C556.483 55.8 557.136 55.94 557.723 56.22C558.31 56.4867 558.776 56.9 559.123 57.46C559.483 58.02 559.663 58.7333 559.663 59.6V66H558.063V60.16C558.063 59.0533 557.823 58.2867 557.343 57.86C556.876 57.42 556.296 57.2 555.603 57.2C555.123 57.2 554.643 57.3133 554.163 57.54C553.683 57.7667 553.283 58.1333 552.963 58.64C552.656 59.1467 552.503 59.8267 552.503 60.68V66H550.903ZM571.706 54.16L572.066 55.58C572.052 55.58 572.032 55.58 572.006 55.58C571.979 55.58 571.952 55.58 571.926 55.58C571.272 55.58 570.766 55.7133 570.406 55.98C570.059 56.2333 569.886 56.6467 569.886 57.22L568.906 56.72C568.906 56.2 569.026 55.7467 569.266 55.36C569.506 54.9733 569.832 54.68 570.246 54.48C570.659 54.2667 571.112 54.16 571.606 54.16C571.619 54.16 571.632 54.16 571.646 54.16C571.672 54.16 571.692 54.16 571.706 54.16ZM568.666 64.72C569.612 64.72 570.352 64.94 570.886 65.38C571.419 65.8067 571.686 66.38 571.686 67.1C571.686 67.7533 571.466 68.32 571.026 68.8C570.599 69.28 570.019 69.6467 569.286 69.9C568.566 70.1667 567.752 70.3 566.846 70.3C565.272 70.3 564.092 70.0333 563.306 69.5C562.532 68.9667 562.146 68.3267 562.146 67.58C562.146 67.0467 562.319 66.5667 562.666 66.14C563.026 65.7267 563.626 65.4933 564.466 65.44L564.326 65.74C563.872 65.62 563.486 65.42 563.166 65.14C562.859 64.8467 562.706 64.4267 562.706 63.88C562.706 63.3333 562.906 62.8667 563.306 62.48C563.719 62.08 564.326 61.8333 565.126 61.74L566.186 62.28H565.986C565.332 62.3467 564.866 62.5133 564.586 62.78C564.319 63.0333 564.186 63.3133 564.186 63.62C564.186 63.9933 564.319 64.2733 564.586 64.46C564.866 64.6333 565.252 64.72 565.746 64.72H568.666ZM566.826 68.96C567.599 68.96 568.232 68.88 568.726 68.72C569.232 68.56 569.606 68.3533 569.846 68.1C570.086 67.8467 570.206 67.5733 570.206 67.28C570.206 66.92 570.059 66.6333 569.766 66.42C569.486 66.2067 568.972 66.1 568.226 66.1H565.146C564.719 66.1 564.359 66.2067 564.066 66.42C563.772 66.6467 563.626 66.9533 563.626 67.34C563.626 67.8333 563.906 68.2267 564.466 68.52C565.039 68.8133 565.826 68.96 566.826 68.96ZM566.686 55.8C567.486 55.8 568.192 55.9467 568.806 56.24C569.432 56.52 569.919 56.9133 570.266 57.42C570.612 57.9267 570.786 58.5133 570.786 59.18C570.786 59.8333 570.612 60.42 570.266 60.94C569.919 61.4467 569.432 61.8467 568.806 62.14C568.192 62.42 567.486 62.56 566.686 62.56C565.366 62.56 564.352 62.2467 563.646 61.62C562.939 60.98 562.586 60.1667 562.586 59.18C562.586 58.5133 562.759 57.9267 563.106 57.42C563.466 56.9133 563.952 56.52 564.566 56.24C565.179 55.9467 565.886 55.8 566.686 55.8ZM566.686 57.1C565.992 57.1 565.412 57.2933 564.946 57.68C564.479 58.0533 564.246 58.5533 564.246 59.18C564.246 59.7933 564.479 60.2933 564.946 60.68C565.412 61.0667 565.992 61.26 566.686 61.26C567.379 61.26 567.959 61.0667 568.426 60.68C568.892 60.2933 569.126 59.7933 569.126 59.18C569.126 58.5533 568.892 58.0533 568.426 57.68C567.959 57.2933 567.379 57.1 566.686 57.1ZM574.73 63.6C575.117 63.6 575.43 63.72 575.67 63.96C575.91 64.2 576.03 64.5133 576.03 64.9C576.03 65.2867 575.91 65.6 575.67 65.84C575.43 66.08 575.117 66.2 574.73 66.2C574.344 66.2 574.03 66.08 573.79 65.84C573.55 65.6 573.43 65.2867 573.43 64.9C573.43 64.5133 573.55 64.2 573.79 63.96C574.03 63.72 574.344 63.6 574.73 63.6Z" fill="white"/>
</svg>
