<svg width="435" height="67" viewBox="0 0 435 67" fill="none" xmlns="http://www.w3.org/2000/svg">
<path d="M13.4 9.96C13.16 10.9867 12.7467 11.8133 12.16 12.44C11.5867 13.0667 10.8867 13.52 10.06 13.8C9.23333 14.0667 8.31333 14.2 7.3 14.2C5.91333 14.2 4.71333 13.9333 3.7 13.4C2.7 12.8667 1.92667 12.0933 1.38 11.08C0.846667 10.0667 0.58 8.84 0.58 7.4C0.58 5.96 0.846667 4.73333 1.38 3.72C1.92667 2.70667 2.7 1.93333 3.7 1.4C4.71333 0.866666 5.91333 0.6 7.3 0.6C8.27333 0.6 9.18 0.739999 10.02 1.02C10.86 1.28667 11.5667 1.71333 12.14 2.3C12.7267 2.88667 13.1133 3.65333 13.3 4.6L9.3 6.16C9.19333 5.29333 8.97333 4.73333 8.64 4.48C8.32 4.22667 7.91333 4.1 7.42 4.1C6.96667 4.1 6.58 4.22 6.26 4.46C5.95333 4.68667 5.72 5.04667 5.56 5.54C5.41333 6.02 5.34 6.64 5.34 7.4C5.34 8.14667 5.40667 8.76667 5.54 9.26C5.68667 9.75333 5.92 10.12 6.24 10.36C6.56 10.5867 6.98667 10.7 7.52 10.7C8 10.7 8.39333 10.56 8.7 10.28C9.00667 9.98667 9.2 9.52667 9.28 8.9L13.4 9.96ZM27.5152 14H22.7552L22.1552 11.48H18.5952L17.9752 14H13.3352L17.6152 0.799999H23.2152L27.5152 14ZM19.2952 8.58H21.4752L20.3952 4L19.2952 8.58ZM35.3242 0.799999C36.5109 0.799999 37.5176 0.98 38.3442 1.34C39.1709 1.7 39.7976 2.22667 40.2242 2.92C40.6509 3.61333 40.8642 4.46 40.8642 5.46C40.8642 6.46 40.6509 7.30667 40.2242 8C39.7976 8.69333 39.1709 9.22 38.3442 9.58C37.5176 9.94 36.5109 10.12 35.3242 10.12H32.9842V14H28.3242V0.799999H35.3242ZM34.5642 6.82C35.0709 6.82 35.4709 6.71333 35.7642 6.5C36.0576 6.27333 36.2042 5.92667 36.2042 5.46C36.2042 4.99333 36.0576 4.65333 35.7642 4.44C35.4709 4.21333 35.0709 4.1 34.5642 4.1H32.9842V6.82H34.5642ZM54.3747 0.799999V4.22H50.2547V14H45.5947V4.22H41.4547V0.799999H54.3747ZM67.1831 14H62.4231L61.8231 11.48H58.2631L57.6431 14H53.0031L57.2831 0.799999H62.8831L67.1831 14ZM58.9631 8.58H61.1431L60.0631 4L58.9631 8.58ZM72.6522 0.799999V14H67.9922V0.799999H72.6522ZM87.5723 0.799999V14H82.5323L79.3723 8L78.6523 6.38H78.6123L78.6923 9.1V14H74.6523V0.799999H79.6923L82.8523 6.82L83.5723 8.42H83.6123L83.5323 5.7V0.799999H87.5723ZM111.534 0.799999V14H107.474V9.42L107.534 4.98H107.474L104.914 14H101.194L98.6742 4.98H98.5942L98.6542 9.42V14H94.5742V0.799999H101.094L102.614 6.66L103.194 9.12H103.234L103.814 6.66L105.334 0.799999H111.534ZM126.519 14H121.759L121.159 11.48H117.599L116.979 14H112.339L116.619 0.799999H122.219L126.519 14ZM118.299 8.58H120.479L119.399 4L118.299 8.58ZM134.488 0.799999C136.208 0.799999 137.528 1.18667 138.448 1.96C139.368 2.72 139.828 3.73333 139.828 5C139.828 6.45333 139.375 7.54667 138.468 8.28C137.575 9.01333 136.268 9.38 134.548 9.38L134.088 9.62H131.888V14H127.328V0.799999H134.488ZM133.688 6.56C134.181 6.56 134.548 6.47333 134.788 6.3C135.041 6.11333 135.168 5.79333 135.168 5.34C135.168 4.9 135.041 4.58667 134.788 4.4C134.548 4.21333 134.181 4.12 133.688 4.12H131.888V6.56H133.688ZM136.448 7.54L140.568 14H135.508L132.428 8.22L136.448 7.54ZM154.73 0.799999L150.27 14H144.73L140.27 0.799999H145.13L146.95 8.02L147.59 10.6L148.19 8.06L150.05 0.799999H154.73ZM155.57 14V0.799999H166.53V4.22H160.23V5.86H165.31V9.02H160.23V10.58H166.77V14H155.57ZM172.75 10.58H178.73V14H168.09V0.799999H172.75V10.58ZM182.511 9.88C183.124 9.88 183.617 10.0133 183.991 10.28C184.377 10.5467 184.657 10.8933 184.831 11.32C185.017 11.7333 185.111 12.18 185.111 12.66C185.111 13.38 184.944 14.0533 184.611 14.68C184.291 15.32 183.884 15.8667 183.391 16.32C182.897 16.7867 182.411 17.12 181.931 17.32L180.191 16.14C180.564 15.9667 180.917 15.7667 181.251 15.54C181.597 15.3133 181.911 15.0667 182.191 14.8C182.471 14.5333 182.691 14.26 182.851 13.98L182.751 13.9C182.657 13.9533 182.551 13.9933 182.431 14.02C182.311 14.06 182.157 14.08 181.971 14.08C181.677 14.08 181.384 14.0133 181.091 13.88C180.797 13.7333 180.551 13.52 180.351 13.24C180.151 12.96 180.051 12.6067 180.051 12.18C180.051 11.6333 180.164 11.1933 180.391 10.86C180.631 10.5267 180.937 10.28 181.311 10.12C181.697 9.96 182.097 9.88 182.511 9.88ZM191.684 14V11.2C192.684 10.6667 193.551 10.1333 194.284 9.6C195.031 9.06667 195.644 8.54667 196.124 8.04C196.617 7.52 196.984 7.03333 197.224 6.58C197.464 6.11333 197.584 5.68667 197.584 5.3C197.584 4.98 197.504 4.7 197.344 4.46C197.184 4.22 196.904 4.1 196.504 4.1C196.051 4.1 195.717 4.28667 195.504 4.66C195.291 5.03333 195.197 5.62667 195.224 6.44L191.244 5.48C191.217 4.36 191.451 3.44 191.944 2.72C192.437 2 193.111 1.46667 193.964 1.12C194.831 0.773333 195.784 0.6 196.824 0.6C197.824 0.6 198.664 0.739999 199.344 1.02C200.037 1.28667 200.591 1.64 201.004 2.08C201.417 2.50667 201.711 2.97333 201.884 3.48C202.071 3.97333 202.164 4.44667 202.164 4.9C202.164 5.78 201.931 6.57333 201.464 7.28C201.011 7.98667 200.397 8.62 199.624 9.18C198.851 9.74 197.991 10.2467 197.044 10.7V10.74C197.324 10.7133 197.631 10.6933 197.964 10.68C198.311 10.6533 198.671 10.64 199.044 10.64C199.431 10.6267 199.811 10.62 200.184 10.62H202.244V14H191.684ZM209.353 14.2C207.353 14.2 205.873 13.6333 204.913 12.5C203.967 11.3667 203.493 9.66667 203.493 7.4C203.493 5.13333 203.967 3.43333 204.913 2.3C205.873 1.16667 207.353 0.6 209.353 0.6C211.353 0.6 212.827 1.16667 213.773 2.3C214.733 3.43333 215.213 5.13333 215.213 7.4C215.213 9.66667 214.733 11.3667 213.773 12.5C212.827 13.6333 211.353 14.2 209.353 14.2ZM209.353 10.7C209.7 10.7 209.967 10.6067 210.153 10.42C210.34 10.2333 210.467 9.9 210.533 9.42C210.613 8.94 210.653 8.26667 210.653 7.4C210.653 6.53333 210.613 5.86 210.533 5.38C210.467 4.9 210.34 4.56667 210.153 4.38C209.967 4.19333 209.7 4.1 209.353 4.1C209.02 4.1 208.753 4.19333 208.553 4.38C208.367 4.56667 208.233 4.9 208.153 5.38C208.087 5.86 208.053 6.53333 208.053 7.4C208.053 8.26667 208.087 8.94 208.153 9.42C208.233 9.9 208.367 10.2333 208.553 10.42C208.753 10.6067 209.02 10.7 209.353 10.7ZM219.538 14V7.8C219.538 7.36 219.538 6.92 219.538 6.48C219.538 6.04 219.538 5.6 219.538 5.16C219.111 5.53333 218.651 5.86 218.158 6.14C217.664 6.40667 217.144 6.58 216.597 6.66L216.338 2.92C216.751 2.88 217.164 2.79333 217.578 2.66C217.991 2.51333 218.378 2.34 218.738 2.14C219.111 1.94 219.438 1.72667 219.718 1.5C220.011 1.27333 220.231 1.04 220.378 0.799999H223.998V14H219.538ZM230.917 0.6C232.197 0.6 233.264 0.84 234.117 1.32C234.984 1.78667 235.631 2.51333 236.057 3.5C236.497 4.48667 236.717 5.76 236.717 7.32C236.717 9 236.451 10.3467 235.917 11.36C235.397 12.36 234.697 13.0867 233.817 13.54C232.937 13.98 231.971 14.2 230.917 14.2C229.731 14.2 228.691 13.9867 227.797 13.56C226.917 13.12 226.257 12.3933 225.817 11.38L229.897 9.92C229.951 10.2267 230.064 10.46 230.237 10.62C230.411 10.78 230.651 10.86 230.957 10.86C231.197 10.86 231.417 10.8133 231.617 10.72C231.817 10.6267 231.991 10.4867 232.137 10.3C232.284 10.1133 232.397 9.87333 232.477 9.58C232.557 9.28667 232.597 8.93333 232.597 8.52C232.597 8.45333 232.597 8.39333 232.597 8.34C232.597 8.27333 232.597 8.19333 232.597 8.1H232.537C232.404 8.36667 232.191 8.59333 231.897 8.78C231.617 8.96667 231.291 9.11333 230.917 9.22C230.544 9.31333 230.137 9.36 229.697 9.36C228.897 9.36 228.184 9.19333 227.557 8.86C226.931 8.51333 226.437 8.03333 226.077 7.42C225.717 6.79333 225.537 6.06667 225.537 5.24C225.537 4.26667 225.764 3.44 226.217 2.76C226.684 2.06667 227.317 1.53333 228.117 1.16C228.931 0.786666 229.864 0.6 230.917 0.6ZM230.917 3.98C230.571 3.98 230.277 4.08 230.037 4.28C229.811 4.46667 229.697 4.74 229.697 5.1C229.697 5.46 229.811 5.74 230.037 5.94C230.277 6.12667 230.571 6.22 230.917 6.22C231.131 6.22 231.331 6.18 231.517 6.1C231.704 6.00667 231.851 5.88 231.957 5.72C232.077 5.54667 232.137 5.34 232.137 5.1C232.137 4.86 232.077 4.66 231.957 4.5C231.851 4.32667 231.704 4.2 231.517 4.12C231.331 4.02667 231.131 3.98 230.917 3.98ZM2.16 40V26.8H6.86C8.42 26.8 9.56 27.1267 10.28 27.78C11 28.4333 11.36 29.32 11.36 30.44C11.36 31.1067 11.1667 31.7133 10.78 32.26C10.3933 32.7933 9.84667 33.1333 9.14 33.28V33.3C9.92667 33.4467 10.5467 33.8067 11 34.38C11.4667 34.94 11.7 35.58 11.7 36.3C11.7 37.42 11.28 38.32 10.44 39C9.6 39.6667 8.4 40 6.84 40H2.16ZM3.76 38.5H7.22C8.16667 38.5 8.86667 38.3067 9.32 37.92C9.78667 37.5333 10.02 36.9933 10.02 36.3C10.02 35.5933 9.78667 35.0533 9.32 34.68C8.86667 34.2933 8.16667 34.1 7.22 34.1H3.76V38.5ZM3.76 32.6H6.88C8.74667 32.6 9.68 31.88 9.68 30.44C9.68 29.0133 8.74667 28.3 6.88 28.3H3.76V32.6ZM14.9264 40V30H16.2264L16.4464 31.64C16.7264 31.0267 17.1331 30.5667 17.6664 30.26C18.2131 29.9533 18.8731 29.8 19.6464 29.8C19.8197 29.8 20.0064 29.8133 20.2064 29.84C20.4197 29.8667 20.5997 29.92 20.7464 30L20.4664 31.46C20.3197 31.4067 20.1597 31.3667 19.9864 31.34C19.8131 31.3133 19.5664 31.3 19.2464 31.3C18.8331 31.3 18.4131 31.42 17.9864 31.66C17.5731 31.9 17.2264 32.2667 16.9464 32.76C16.6664 33.24 16.5264 33.8533 16.5264 34.6V40H14.9264ZM23.8905 28.08C23.5305 28.08 23.2371 27.9733 23.0105 27.76C22.7971 27.5333 22.6905 27.24 22.6905 26.88C22.6905 26.52 22.7971 26.2333 23.0105 26.02C23.2371 25.7933 23.5305 25.68 23.8905 25.68C24.2505 25.68 24.5371 25.7933 24.7505 26.02C24.9771 26.2333 25.0905 26.52 25.0905 26.88C25.0905 27.24 24.9771 27.5333 24.7505 27.76C24.5371 27.9733 24.2505 28.08 23.8905 28.08ZM24.6905 30V40H23.0905V30H24.6905ZM36.823 28.16L37.183 29.58C37.1696 29.58 37.1496 29.58 37.123 29.58C37.0963 29.58 37.0696 29.58 37.043 29.58C36.3896 29.58 35.883 29.7133 35.523 29.98C35.1763 30.2333 35.003 30.6467 35.003 31.22L34.023 30.72C34.023 30.2 34.143 29.7467 34.383 29.36C34.623 28.9733 34.9496 28.68 35.363 28.48C35.7763 28.2667 36.2296 28.16 36.723 28.16C36.7363 28.16 36.7496 28.16 36.763 28.16C36.7896 28.16 36.8096 28.16 36.823 28.16ZM33.783 38.72C34.7296 38.72 35.4696 38.94 36.003 39.38C36.5363 39.8067 36.803 40.38 36.803 41.1C36.803 41.7533 36.583 42.32 36.143 42.8C35.7163 43.28 35.1363 43.6467 34.403 43.9C33.683 44.1667 32.8696 44.3 31.963 44.3C30.3896 44.3 29.2096 44.0333 28.423 43.5C27.6496 42.9667 27.263 42.3267 27.263 41.58C27.263 41.0467 27.4363 40.5667 27.783 40.14C28.143 39.7267 28.743 39.4933 29.583 39.44L29.443 39.74C28.9896 39.62 28.603 39.42 28.283 39.14C27.9763 38.8467 27.823 38.4267 27.823 37.88C27.823 37.3333 28.023 36.8667 28.423 36.48C28.8363 36.08 29.443 35.8333 30.243 35.74L31.303 36.28H31.103C30.4496 36.3467 29.983 36.5133 29.703 36.78C29.4363 37.0333 29.303 37.3133 29.303 37.62C29.303 37.9933 29.4363 38.2733 29.703 38.46C29.983 38.6333 30.3696 38.72 30.863 38.72H33.783ZM31.943 42.96C32.7163 42.96 33.3496 42.88 33.843 42.72C34.3496 42.56 34.723 42.3533 34.963 42.1C35.203 41.8467 35.323 41.5733 35.323 41.28C35.323 40.92 35.1763 40.6333 34.883 40.42C34.603 40.2067 34.0896 40.1 33.343 40.1H30.263C29.8363 40.1 29.4763 40.2067 29.183 40.42C28.8896 40.6467 28.743 40.9533 28.743 41.34C28.743 41.8333 29.023 42.2267 29.583 42.52C30.1563 42.8133 30.943 42.96 31.943 42.96ZM31.803 29.8C32.603 29.8 33.3096 29.9467 33.923 30.24C34.5496 30.52 35.0363 30.9133 35.383 31.42C35.7296 31.9267 35.903 32.5133 35.903 33.18C35.903 33.8333 35.7296 34.42 35.383 34.94C35.0363 35.4467 34.5496 35.8467 33.923 36.14C33.3096 36.42 32.603 36.56 31.803 36.56C30.483 36.56 29.4696 36.2467 28.763 35.62C28.0563 34.98 27.703 34.1667 27.703 33.18C27.703 32.5133 27.8763 31.9267 28.223 31.42C28.583 30.9133 29.0696 30.52 29.683 30.24C30.2963 29.9467 31.003 29.8 31.803 29.8ZM31.803 31.1C31.1096 31.1 30.5296 31.2933 30.063 31.68C29.5963 32.0533 29.363 32.5533 29.363 33.18C29.363 33.7933 29.5963 34.2933 30.063 34.68C30.5296 35.0667 31.1096 35.26 31.803 35.26C32.4963 35.26 33.0763 35.0667 33.543 34.68C34.0096 34.2933 34.243 33.7933 34.243 33.18C34.243 32.5533 34.0096 32.0533 33.543 31.68C33.0763 31.2933 32.4963 31.1 31.803 31.1ZM39.0475 40V25.4H40.6475V31.5C40.9942 30.9 41.4542 30.4667 42.0275 30.2C42.6008 29.9333 43.2275 29.8 43.9075 29.8C44.6275 29.8 45.2808 29.94 45.8675 30.22C46.4542 30.4867 46.9208 30.9 47.2675 31.46C47.6275 32.02 47.8075 32.7333 47.8075 33.6V40H46.2075V34.16C46.2075 33.0533 45.9675 32.2867 45.4875 31.86C45.0208 31.42 44.4408 31.2 43.7475 31.2C43.2675 31.2 42.7875 31.3133 42.3075 31.54C41.8275 31.7667 41.4275 32.14 41.1075 32.66C40.8008 33.1667 40.6475 33.8467 40.6475 34.7V40H39.0475ZM53.6536 27.16V37.24C53.6536 37.7333 53.7936 38.1 54.0736 38.34C54.3536 38.58 54.7136 38.7 55.1536 38.7C55.5403 38.7 55.8736 38.6333 56.1536 38.5C56.4336 38.3667 56.6869 38.1867 56.9136 37.96L57.4736 39.3C57.1669 39.58 56.8003 39.8 56.3736 39.96C55.9603 40.12 55.4803 40.2 54.9336 40.2C54.4269 40.2 53.9536 40.1133 53.5136 39.94C53.0736 39.7533 52.7203 39.4667 52.4536 39.08C52.2003 38.68 52.0669 38.16 52.0536 37.52V27.6L53.6536 27.16ZM57.2936 30V31.38H50.0536V30H57.2936ZM63.8525 40.2C62.9058 40.2 62.0592 39.9933 61.3125 39.58C60.5792 39.1667 60.0058 38.5733 59.5925 37.8C59.1792 37.0133 58.9725 36.08 58.9725 35C58.9725 33.92 59.1792 32.9933 59.5925 32.22C60.0058 31.4333 60.5725 30.8333 61.2925 30.42C62.0125 30.0067 62.8325 29.8 63.7525 29.8C64.6858 29.8 65.4792 30 66.1325 30.4C66.7992 30.8 67.3058 31.3467 67.6525 32.04C67.9992 32.72 68.1725 33.4867 68.1725 34.34C68.1725 34.5667 68.1658 34.7733 68.1525 34.96C68.1392 35.1467 68.1192 35.3133 68.0925 35.46H60.0125V34.04H67.3925L66.5725 34.2C66.5725 33.24 66.3058 32.5 65.7725 31.98C65.2525 31.46 64.5658 31.2 63.7125 31.2C63.0592 31.2 62.4925 31.3533 62.0125 31.66C61.5458 31.9533 61.1792 32.3867 60.9125 32.96C60.6592 33.52 60.5325 34.2 60.5325 35C60.5325 35.7867 60.6658 36.4667 60.9325 37.04C61.1992 37.6133 61.5725 38.0533 62.0525 38.36C62.5458 38.6533 63.1325 38.8 63.8125 38.8C64.5458 38.8 65.1392 38.66 65.5925 38.38C66.0592 38.1 66.4325 37.72 66.7125 37.24L67.9725 37.98C67.7192 38.4333 67.3925 38.8267 66.9925 39.16C66.6058 39.4933 66.1458 39.7533 65.6125 39.94C65.0925 40.1133 64.5058 40.2 63.8525 40.2ZM71.2155 40V30H72.6155L72.7555 32.24L72.4955 32.02C72.7088 31.4867 72.9955 31.06 73.3555 30.74C73.7155 30.4067 74.1288 30.1667 74.5955 30.02C75.0755 29.8733 75.5688 29.8 76.0755 29.8C76.7955 29.8 77.4488 29.94 78.0355 30.22C78.6221 30.4867 79.0888 30.9 79.4355 31.46C79.7955 32.02 79.9755 32.7333 79.9755 33.6V40H78.3755V34.16C78.3755 33.0533 78.1355 32.2867 77.6555 31.86C77.1888 31.42 76.6088 31.2 75.9155 31.2C75.4355 31.2 74.9555 31.3133 74.4755 31.54C73.9955 31.7667 73.5955 32.1333 73.2755 32.64C72.9688 33.1467 72.8155 33.8267 72.8155 34.68V40H71.2155ZM84.3983 28.08C84.0383 28.08 83.7449 27.9733 83.5183 27.76C83.3049 27.5333 83.1983 27.24 83.1983 26.88C83.1983 26.52 83.3049 26.2333 83.5183 26.02C83.7449 25.7933 84.0383 25.68 84.3983 25.68C84.7583 25.68 85.0449 25.7933 85.2583 26.02C85.4849 26.2333 85.5983 26.52 85.5983 26.88C85.5983 27.24 85.4849 27.5333 85.2583 27.76C85.0449 27.9733 84.7583 28.08 84.3983 28.08ZM85.1983 30V40H83.5983V30H85.1983ZM88.9108 40V30H90.3108L90.4508 32.24L90.1908 32.02C90.4041 31.4867 90.6908 31.06 91.0508 30.74C91.4108 30.4067 91.8241 30.1667 92.2908 30.02C92.7708 29.8733 93.2641 29.8 93.7708 29.8C94.4908 29.8 95.1441 29.94 95.7308 30.22C96.3174 30.4867 96.7841 30.9 97.1308 31.46C97.4908 32.02 97.6708 32.7333 97.6708 33.6V40H96.0708V34.16C96.0708 33.0533 95.8308 32.2867 95.3508 31.86C94.8841 31.42 94.3041 31.2 93.6108 31.2C93.1308 31.2 92.6508 31.3133 92.1708 31.54C91.6908 31.7667 91.2908 32.1333 90.9708 32.64C90.6641 33.1467 90.5108 33.8267 90.5108 34.68V40H88.9108ZM109.714 28.16L110.074 29.58C110.06 29.58 110.04 29.58 110.014 29.58C109.987 29.58 109.96 29.58 109.934 29.58C109.28 29.58 108.774 29.7133 108.414 29.98C108.067 30.2333 107.894 30.6467 107.894 31.22L106.914 30.72C106.914 30.2 107.034 29.7467 107.274 29.36C107.514 28.9733 107.84 28.68 108.254 28.48C108.667 28.2667 109.12 28.16 109.614 28.16C109.627 28.16 109.64 28.16 109.654 28.16C109.68 28.16 109.7 28.16 109.714 28.16ZM106.674 38.72C107.62 38.72 108.36 38.94 108.894 39.38C109.427 39.8067 109.694 40.38 109.694 41.1C109.694 41.7533 109.474 42.32 109.034 42.8C108.607 43.28 108.027 43.6467 107.294 43.9C106.574 44.1667 105.76 44.3 104.854 44.3C103.28 44.3 102.1 44.0333 101.314 43.5C100.54 42.9667 100.154 42.3267 100.154 41.58C100.154 41.0467 100.327 40.5667 100.674 40.14C101.034 39.7267 101.634 39.4933 102.474 39.44L102.334 39.74C101.88 39.62 101.494 39.42 101.174 39.14C100.867 38.8467 100.714 38.4267 100.714 37.88C100.714 37.3333 100.914 36.8667 101.314 36.48C101.727 36.08 102.334 35.8333 103.134 35.74L104.194 36.28H103.994C103.34 36.3467 102.874 36.5133 102.594 36.78C102.327 37.0333 102.194 37.3133 102.194 37.62C102.194 37.9933 102.327 38.2733 102.594 38.46C102.874 38.6333 103.26 38.72 103.754 38.72H106.674ZM104.834 42.96C105.607 42.96 106.24 42.88 106.734 42.72C107.24 42.56 107.614 42.3533 107.854 42.1C108.094 41.8467 108.214 41.5733 108.214 41.28C108.214 40.92 108.067 40.6333 107.774 40.42C107.494 40.2067 106.98 40.1 106.234 40.1H103.154C102.727 40.1 102.367 40.2067 102.074 40.42C101.78 40.6467 101.634 40.9533 101.634 41.34C101.634 41.8333 101.914 42.2267 102.474 42.52C103.047 42.8133 103.834 42.96 104.834 42.96ZM104.694 29.8C105.494 29.8 106.2 29.9467 106.814 30.24C107.44 30.52 107.927 30.9133 108.274 31.42C108.62 31.9267 108.794 32.5133 108.794 33.18C108.794 33.8333 108.62 34.42 108.274 34.94C107.927 35.4467 107.44 35.8467 106.814 36.14C106.2 36.42 105.494 36.56 104.694 36.56C103.374 36.56 102.36 36.2467 101.654 35.62C100.947 34.98 100.594 34.1667 100.594 33.18C100.594 32.5133 100.767 31.9267 101.114 31.42C101.474 30.9133 101.96 30.52 102.574 30.24C103.187 29.9467 103.894 29.8 104.694 29.8ZM104.694 31.1C104 31.1 103.42 31.2933 102.954 31.68C102.487 32.0533 102.254 32.5533 102.254 33.18C102.254 33.7933 102.487 34.2933 102.954 34.68C103.42 35.0667 104 35.26 104.694 35.26C105.387 35.26 105.967 35.0667 106.434 34.68C106.9 34.2933 107.134 33.7933 107.134 33.18C107.134 32.5533 106.9 32.0533 106.434 31.68C105.967 31.2933 105.387 31.1 104.694 31.1ZM120.724 27.16V37.24C120.724 37.7333 120.864 38.1 121.144 38.34C121.424 38.58 121.784 38.7 122.224 38.7C122.611 38.7 122.944 38.6333 123.224 38.5C123.504 38.3667 123.757 38.1867 123.984 37.96L124.544 39.3C124.237 39.58 123.871 39.8 123.444 39.96C123.031 40.12 122.551 40.2 122.004 40.2C121.497 40.2 121.024 40.1133 120.584 39.94C120.144 39.7533 119.791 39.4667 119.524 39.08C119.271 38.68 119.137 38.16 119.124 37.52V27.6L120.724 27.16ZM124.364 30V31.38H117.124V30H124.364ZM126.743 40V25.4H128.343V31.5C128.689 30.9 129.149 30.4667 129.723 30.2C130.296 29.9333 130.923 29.8 131.603 29.8C132.323 29.8 132.976 29.94 133.563 30.22C134.149 30.4867 134.616 30.9 134.963 31.46C135.323 32.02 135.503 32.7333 135.503 33.6V40H133.903V34.16C133.903 33.0533 133.663 32.2867 133.183 31.86C132.716 31.42 132.136 31.2 131.443 31.2C130.963 31.2 130.483 31.3133 130.003 31.54C129.523 31.7667 129.123 32.14 128.803 32.66C128.496 33.1667 128.343 33.8467 128.343 34.7V40H126.743ZM143.306 40.2C142.359 40.2 141.512 39.9933 140.766 39.58C140.032 39.1667 139.459 38.5733 139.046 37.8C138.632 37.0133 138.426 36.08 138.426 35C138.426 33.92 138.632 32.9933 139.046 32.22C139.459 31.4333 140.026 30.8333 140.746 30.42C141.466 30.0067 142.286 29.8 143.206 29.8C144.139 29.8 144.932 30 145.586 30.4C146.252 30.8 146.759 31.3467 147.106 32.04C147.452 32.72 147.626 33.4867 147.626 34.34C147.626 34.5667 147.619 34.7733 147.606 34.96C147.592 35.1467 147.572 35.3133 147.546 35.46H139.466V34.04H146.846L146.026 34.2C146.026 33.24 145.759 32.5 145.226 31.98C144.706 31.46 144.019 31.2 143.166 31.2C142.512 31.2 141.946 31.3533 141.466 31.66C140.999 31.9533 140.632 32.3867 140.366 32.96C140.112 33.52 139.986 34.2 139.986 35C139.986 35.7867 140.119 36.4667 140.386 37.04C140.652 37.6133 141.026 38.0533 141.506 38.36C141.999 38.6533 142.586 38.8 143.266 38.8C143.999 38.8 144.592 38.66 145.046 38.38C145.512 38.1 145.886 37.72 146.166 37.24L147.426 37.98C147.172 38.4333 146.846 38.8267 146.446 39.16C146.059 39.4933 145.599 39.7533 145.066 39.94C144.546 40.1133 143.959 40.2 143.306 40.2ZM157.485 44.2V30H158.885L159.025 32.44L158.805 32.16C158.978 31.6933 159.238 31.2867 159.585 30.94C159.932 30.58 160.352 30.3 160.845 30.1C161.338 29.9 161.872 29.8 162.445 29.8C163.258 29.8 164.005 30.0067 164.685 30.42C165.378 30.8333 165.932 31.4267 166.345 32.2C166.758 32.9733 166.965 33.9067 166.965 35C166.965 36.08 166.752 37.0133 166.325 37.8C165.912 38.5733 165.358 39.1667 164.665 39.58C163.972 39.9933 163.212 40.2 162.385 40.2C161.558 40.2 160.832 40 160.205 39.6C159.592 39.1867 159.152 38.6667 158.885 38.04L159.085 37.74V44.2H157.485ZM162.225 38.8C163.212 38.8 163.978 38.4533 164.525 37.76C165.085 37.0667 165.365 36.1467 165.365 35C165.365 33.8533 165.092 32.9333 164.545 32.24C164.012 31.5467 163.258 31.2 162.285 31.2C161.645 31.2 161.085 31.36 160.605 31.68C160.125 31.9867 159.752 32.4267 159.485 33C159.218 33.56 159.085 34.2267 159.085 35C159.085 35.76 159.212 36.4267 159.465 37C159.732 37.5733 160.098 38.02 160.565 38.34C161.045 38.6467 161.598 38.8 162.225 38.8ZM174.164 29.8C175.111 29.8 175.944 30.0067 176.664 30.42C177.397 30.8333 177.971 31.4333 178.384 32.22C178.797 32.9933 179.004 33.92 179.004 35C179.004 36.08 178.797 37.0133 178.384 37.8C177.971 38.5733 177.397 39.1667 176.664 39.58C175.944 39.9933 175.111 40.2 174.164 40.2C173.231 40.2 172.397 39.9933 171.664 39.58C170.931 39.1667 170.357 38.5733 169.944 37.8C169.531 37.0133 169.324 36.08 169.324 35C169.324 33.92 169.531 32.9933 169.944 32.22C170.357 31.4333 170.931 30.8333 171.664 30.42C172.397 30.0067 173.231 29.8 174.164 29.8ZM174.164 31.18C173.484 31.18 172.904 31.3333 172.424 31.64C171.944 31.9467 171.571 32.3867 171.304 32.96C171.051 33.52 170.924 34.2 170.924 35C170.924 35.7867 171.051 36.4667 171.304 37.04C171.571 37.6133 171.944 38.0533 172.424 38.36C172.904 38.6667 173.484 38.82 174.164 38.82C174.844 38.82 175.424 38.6667 175.904 38.36C176.384 38.0533 176.751 37.6133 177.004 37.04C177.271 36.4667 177.404 35.7867 177.404 35C177.404 34.2 177.271 33.52 177.004 32.96C176.751 32.3867 176.384 31.9467 175.904 31.64C175.424 31.3333 174.844 31.18 174.164 31.18ZM185.616 40.2C184.643 40.2 183.743 39.9933 182.916 39.58C182.103 39.1667 181.476 38.58 181.036 37.82L182.396 36.84C182.69 37.4533 183.116 37.9333 183.676 38.28C184.25 38.6267 184.936 38.8 185.736 38.8C186.443 38.8 186.996 38.6667 187.396 38.4C187.796 38.12 187.996 37.76 187.996 37.32C187.996 37.04 187.903 36.7867 187.716 36.56C187.543 36.32 187.203 36.1467 186.696 36.04L184.296 35.54C183.323 35.34 182.623 35.0067 182.196 34.54C181.783 34.0733 181.576 33.4933 181.576 32.8C181.576 32.2533 181.73 31.7533 182.036 31.3C182.356 30.8467 182.803 30.4867 183.376 30.22C183.963 29.94 184.65 29.8 185.436 29.8C186.423 29.8 187.256 29.9933 187.936 30.38C188.616 30.7667 189.123 31.3133 189.456 32.02L188.116 32.9C187.89 32.3133 187.523 31.8867 187.016 31.62C186.51 31.34 185.983 31.2 185.436 31.2C184.956 31.2 184.543 31.2667 184.196 31.4C183.863 31.5333 183.603 31.72 183.416 31.96C183.243 32.1867 183.156 32.4467 183.156 32.74C183.156 33.0333 183.256 33.3067 183.456 33.56C183.656 33.8 184.03 33.9733 184.576 34.08L187.076 34.6C188.01 34.7867 188.663 35.0933 189.036 35.52C189.41 35.9467 189.596 36.4667 189.596 37.08C189.596 37.7067 189.43 38.26 189.096 38.74C188.763 39.2067 188.296 39.5667 187.696 39.82C187.096 40.0733 186.403 40.2 185.616 40.2ZM194.923 27.16V37.24C194.923 37.7333 195.063 38.1 195.343 38.34C195.623 38.58 195.983 38.7 196.423 38.7C196.81 38.7 197.143 38.6333 197.423 38.5C197.703 38.3667 197.956 38.1867 198.183 37.96L198.743 39.3C198.436 39.58 198.07 39.8 197.643 39.96C197.23 40.12 196.75 40.2 196.203 40.2C195.696 40.2 195.223 40.1133 194.783 39.94C194.343 39.7533 193.99 39.4667 193.723 39.08C193.47 38.68 193.336 38.16 193.323 37.52V27.6L194.923 27.16ZM198.563 30V31.38H191.323V30H198.563ZM205.122 40.2C204.175 40.2 203.329 39.9933 202.582 39.58C201.849 39.1667 201.275 38.5733 200.862 37.8C200.449 37.0133 200.242 36.08 200.242 35C200.242 33.92 200.449 32.9933 200.862 32.22C201.275 31.4333 201.842 30.8333 202.562 30.42C203.282 30.0067 204.102 29.8 205.022 29.8C205.955 29.8 206.749 30 207.402 30.4C208.069 30.8 208.575 31.3467 208.922 32.04C209.269 32.72 209.442 33.4867 209.442 34.34C209.442 34.5667 209.435 34.7733 209.422 34.96C209.409 35.1467 209.389 35.3133 209.362 35.46H201.282V34.04H208.662L207.842 34.2C207.842 33.24 207.575 32.5 207.042 31.98C206.522 31.46 205.835 31.2 204.982 31.2C204.329 31.2 203.762 31.3533 203.282 31.66C202.815 31.9533 202.449 32.3867 202.182 32.96C201.929 33.52 201.802 34.2 201.802 35C201.802 35.7867 201.935 36.4667 202.202 37.04C202.469 37.6133 202.842 38.0533 203.322 38.36C203.815 38.6533 204.402 38.8 205.082 38.8C205.815 38.8 206.409 38.66 206.862 38.38C207.329 38.1 207.702 37.72 207.982 37.24L209.242 37.98C208.989 38.4333 208.662 38.8267 208.262 39.16C207.875 39.4933 207.415 39.7533 206.882 39.94C206.362 40.1133 205.775 40.2 205.122 40.2ZM212.485 40V30H213.785L214.005 31.64C214.285 31.0267 214.692 30.5667 215.225 30.26C215.772 29.9533 216.432 29.8 217.205 29.8C217.378 29.8 217.565 29.8133 217.765 29.84C217.978 29.8667 218.158 29.92 218.305 30L218.025 31.46C217.878 31.4067 217.718 31.3667 217.545 31.34C217.372 31.3133 217.125 31.3 216.805 31.3C216.392 31.3 215.972 31.42 215.545 31.66C215.132 31.9 214.785 32.2667 214.505 32.76C214.225 33.24 214.085 33.8533 214.085 34.6V40H212.485ZM226.997 40V30H228.297L228.517 31.64C228.797 31.0267 229.203 30.5667 229.737 30.26C230.283 29.9533 230.943 29.8 231.717 29.8C231.89 29.8 232.077 29.8133 232.277 29.84C232.49 29.8667 232.67 29.92 232.817 30L232.537 31.46C232.39 31.4067 232.23 31.3667 232.057 31.34C231.883 31.3133 231.637 31.3 231.317 31.3C230.903 31.3 230.483 31.42 230.057 31.66C229.643 31.9 229.297 32.2667 229.017 32.76C228.737 33.24 228.597 33.8533 228.597 34.6V40H226.997ZM239.028 40.2C238.082 40.2 237.235 39.9933 236.488 39.58C235.755 39.1667 235.182 38.5733 234.768 37.8C234.355 37.0133 234.148 36.08 234.148 35C234.148 33.92 234.355 32.9933 234.768 32.22C235.182 31.4333 235.748 30.8333 236.468 30.42C237.188 30.0067 238.008 29.8 238.928 29.8C239.862 29.8 240.655 30 241.308 30.4C241.975 30.8 242.482 31.3467 242.828 32.04C243.175 32.72 243.348 33.4867 243.348 34.34C243.348 34.5667 243.342 34.7733 243.328 34.96C243.315 35.1467 243.295 35.3133 243.268 35.46H235.188V34.04H242.568L241.748 34.2C241.748 33.24 241.482 32.5 240.948 31.98C240.428 31.46 239.742 31.2 238.888 31.2C238.235 31.2 237.668 31.3533 237.188 31.66C236.722 31.9533 236.355 32.3867 236.088 32.96C235.835 33.52 235.708 34.2 235.708 35C235.708 35.7867 235.842 36.4667 236.108 37.04C236.375 37.6133 236.748 38.0533 237.228 38.36C237.722 38.6533 238.308 38.8 238.988 38.8C239.722 38.8 240.315 38.66 240.768 38.38C241.235 38.1 241.608 37.72 241.888 37.24L243.148 37.98C242.895 38.4333 242.568 38.8267 242.168 39.16C241.782 39.4933 241.322 39.7533 240.788 39.94C240.268 40.1133 239.682 40.2 239.028 40.2ZM252.738 30H254.418L250.258 40H248.658L244.498 30H246.318L249.478 38.38L252.738 30ZM260.688 40.2C259.742 40.2 258.895 39.9933 258.148 39.58C257.415 39.1667 256.842 38.5733 256.428 37.8C256.015 37.0133 255.808 36.08 255.808 35C255.808 33.92 256.015 32.9933 256.428 32.22C256.842 31.4333 257.408 30.8333 258.128 30.42C258.848 30.0067 259.668 29.8 260.588 29.8C261.522 29.8 262.315 30 262.968 30.4C263.635 30.8 264.142 31.3467 264.488 32.04C264.835 32.72 265.008 33.4867 265.008 34.34C265.008 34.5667 265.002 34.7733 264.988 34.96C264.975 35.1467 264.955 35.3133 264.928 35.46H256.848V34.04H264.228L263.408 34.2C263.408 33.24 263.142 32.5 262.608 31.98C262.088 31.46 261.402 31.2 260.548 31.2C259.895 31.2 259.328 31.3533 258.848 31.66C258.382 31.9533 258.015 32.3867 257.748 32.96C257.495 33.52 257.368 34.2 257.368 35C257.368 35.7867 257.502 36.4667 257.768 37.04C258.035 37.6133 258.408 38.0533 258.888 38.36C259.382 38.6533 259.968 38.8 260.648 38.8C261.382 38.8 261.975 38.66 262.428 38.38C262.895 38.1 263.268 37.72 263.548 37.24L264.808 37.98C264.555 38.4333 264.228 38.8267 263.828 39.16C263.442 39.4933 262.982 39.7533 262.448 39.94C261.928 40.1133 261.342 40.2 260.688 40.2ZM273.891 33.54C273.891 32.7933 273.691 32.22 273.291 31.82C272.891 31.4067 272.325 31.2 271.591 31.2C270.898 31.2 270.311 31.3533 269.831 31.66C269.351 31.9533 268.998 32.4333 268.771 33.1L267.471 32.3C267.738 31.5533 268.231 30.9533 268.951 30.5C269.671 30.0333 270.565 29.8 271.631 29.8C272.351 29.8 273.005 29.9267 273.591 30.18C274.178 30.42 274.638 30.7933 274.971 31.3C275.318 31.7933 275.491 32.4333 275.491 33.22V38.06C275.491 38.54 275.745 38.78 276.251 38.78C276.505 38.78 276.751 38.7467 276.991 38.68L276.911 39.94C276.645 40.0733 276.298 40.14 275.871 40.14C275.485 40.14 275.138 40.0667 274.831 39.92C274.525 39.7733 274.285 39.5533 274.111 39.26C273.938 38.9533 273.851 38.5733 273.851 38.12V37.92L274.251 37.98C274.091 38.5 273.818 38.9267 273.431 39.26C273.045 39.58 272.611 39.82 272.131 39.98C271.651 40.1267 271.178 40.2 270.711 40.2C270.125 40.2 269.578 40.1 269.071 39.9C268.565 39.7 268.158 39.4 267.851 39C267.558 38.5867 267.411 38.08 267.411 37.48C267.411 36.7333 267.658 36.12 268.151 35.64C268.658 35.1467 269.358 34.8133 270.251 34.64L274.211 33.86V35.18L270.991 35.84C270.338 35.9733 269.851 36.16 269.531 36.4C269.211 36.64 269.051 36.9733 269.051 37.4C269.051 37.8133 269.211 38.1533 269.531 38.42C269.865 38.6733 270.331 38.8 270.931 38.8C271.318 38.8 271.685 38.7533 272.031 38.66C272.391 38.5533 272.711 38.4 272.991 38.2C273.271 37.9867 273.491 37.7267 273.651 37.42C273.811 37.1 273.891 36.7267 273.891 36.3V33.54ZM280.9 25.4V37.46C280.9 37.9667 280.993 38.32 281.18 38.52C281.366 38.7067 281.666 38.8 282.08 38.8C282.346 38.8 282.566 38.78 282.74 38.74C282.913 38.7 283.146 38.6267 283.44 38.52L283.18 39.92C282.966 40.0133 282.733 40.08 282.48 40.12C282.226 40.1733 281.966 40.2 281.7 40.2C280.886 40.2 280.28 39.98 279.88 39.54C279.493 39.1 279.3 38.4267 279.3 37.52V25.4H280.9ZM289.093 40.2C288.119 40.2 287.219 39.9933 286.393 39.58C285.579 39.1667 284.953 38.58 284.513 37.82L285.873 36.84C286.166 37.4533 286.593 37.9333 287.153 38.28C287.726 38.6267 288.413 38.8 289.213 38.8C289.919 38.8 290.473 38.6667 290.873 38.4C291.273 38.12 291.473 37.76 291.473 37.32C291.473 37.04 291.379 36.7867 291.193 36.56C291.019 36.32 290.679 36.1467 290.173 36.04L287.773 35.54C286.799 35.34 286.099 35.0067 285.673 34.54C285.259 34.0733 285.053 33.4933 285.053 32.8C285.053 32.2533 285.206 31.7533 285.513 31.3C285.833 30.8467 286.279 30.4867 286.853 30.22C287.439 29.94 288.126 29.8 288.913 29.8C289.899 29.8 290.733 29.9933 291.413 30.38C292.093 30.7667 292.599 31.3133 292.933 32.02L291.593 32.9C291.366 32.3133 290.999 31.8867 290.493 31.62C289.986 31.34 289.459 31.2 288.913 31.2C288.433 31.2 288.019 31.2667 287.673 31.4C287.339 31.5333 287.079 31.72 286.893 31.96C286.719 32.1867 286.633 32.4467 286.633 32.74C286.633 33.0333 286.733 33.3067 286.933 33.56C287.133 33.8 287.506 33.9733 288.053 34.08L290.553 34.6C291.486 34.7867 292.139 35.0933 292.513 35.52C292.886 35.9467 293.073 36.4667 293.073 37.08C293.073 37.7067 292.906 38.26 292.573 38.74C292.239 39.2067 291.773 39.5667 291.173 39.82C290.573 40.0733 289.879 40.2 289.093 40.2ZM308.476 40.2C307.223 40.2 306.136 39.9267 305.216 39.38C304.309 38.82 303.603 38.0333 303.096 37.02C302.603 36.0067 302.356 34.8 302.356 33.4C302.356 32 302.616 30.7933 303.136 29.78C303.669 28.7667 304.409 27.9867 305.356 27.44C306.303 26.88 307.389 26.6 308.616 26.6C309.923 26.6 310.983 26.8467 311.796 27.34C312.623 27.8333 313.289 28.5933 313.796 29.62L312.336 30.42C312.043 29.66 311.576 29.0867 310.936 28.7C310.309 28.3 309.536 28.1 308.616 28.1C307.723 28.1 306.929 28.3133 306.236 28.74C305.556 29.1533 305.016 29.76 304.616 30.56C304.229 31.3467 304.036 32.2933 304.036 33.4C304.036 34.5067 304.203 35.46 304.536 36.26C304.883 37.0467 305.389 37.6533 306.056 38.08C306.736 38.4933 307.563 38.7 308.536 38.7C309.083 38.7 309.589 38.6333 310.056 38.5C310.536 38.3533 310.949 38.14 311.296 37.86C311.656 37.58 311.936 37.2267 312.136 36.8C312.336 36.3733 312.436 35.8733 312.436 35.3V34.84H308.236V33.34H313.896V40H312.636L312.556 37.54L312.896 37.6C312.549 38.4267 312.003 39.0667 311.256 39.52C310.509 39.9733 309.583 40.2 308.476 40.2ZM321.469 29.8C322.415 29.8 323.249 30.0067 323.969 30.42C324.702 30.8333 325.275 31.4333 325.689 32.22C326.102 32.9933 326.309 33.92 326.309 35C326.309 36.08 326.102 37.0133 325.689 37.8C325.275 38.5733 324.702 39.1667 323.969 39.58C323.249 39.9933 322.415 40.2 321.469 40.2C320.535 40.2 319.702 39.9933 318.969 39.58C318.235 39.1667 317.662 38.5733 317.249 37.8C316.835 37.0133 316.629 36.08 316.629 35C316.629 33.92 316.835 32.9933 317.249 32.22C317.662 31.4333 318.235 30.8333 318.969 30.42C319.702 30.0067 320.535 29.8 321.469 29.8ZM321.469 31.18C320.789 31.18 320.209 31.3333 319.729 31.64C319.249 31.9467 318.875 32.3867 318.609 32.96C318.355 33.52 318.229 34.2 318.229 35C318.229 35.7867 318.355 36.4667 318.609 37.04C318.875 37.6133 319.249 38.0533 319.729 38.36C320.209 38.6667 320.789 38.82 321.469 38.82C322.149 38.82 322.729 38.6667 323.209 38.36C323.689 38.0533 324.055 37.6133 324.309 37.04C324.575 36.4667 324.709 35.7867 324.709 35C324.709 34.2 324.575 33.52 324.309 32.96C324.055 32.3867 323.689 31.9467 323.209 31.64C322.729 31.3333 322.149 31.18 321.469 31.18ZM333.461 29.8C334.408 29.8 335.241 30.0067 335.961 30.42C336.694 30.8333 337.268 31.4333 337.681 32.22C338.094 32.9933 338.301 33.92 338.301 35C338.301 36.08 338.094 37.0133 337.681 37.8C337.268 38.5733 336.694 39.1667 335.961 39.58C335.241 39.9933 334.408 40.2 333.461 40.2C332.528 40.2 331.694 39.9933 330.961 39.58C330.228 39.1667 329.654 38.5733 329.241 37.8C328.828 37.0133 328.621 36.08 328.621 35C328.621 33.92 328.828 32.9933 329.241 32.22C329.654 31.4333 330.228 30.8333 330.961 30.42C331.694 30.0067 332.528 29.8 333.461 29.8ZM333.461 31.18C332.781 31.18 332.201 31.3333 331.721 31.64C331.241 31.9467 330.868 32.3867 330.601 32.96C330.348 33.52 330.221 34.2 330.221 35C330.221 35.7867 330.348 36.4667 330.601 37.04C330.868 37.6133 331.241 38.0533 331.721 38.36C332.201 38.6667 332.781 38.82 333.461 38.82C334.141 38.82 334.721 38.6667 335.201 38.36C335.681 38.0533 336.048 37.6133 336.301 37.04C336.568 36.4667 336.701 35.7867 336.701 35C336.701 34.2 336.568 33.52 336.301 32.96C336.048 32.3867 335.681 31.9467 335.201 31.64C334.721 31.3333 334.141 31.18 333.461 31.18ZM344.913 40.2C343.94 40.2 343.04 39.9933 342.213 39.58C341.4 39.1667 340.773 38.58 340.333 37.82L341.693 36.84C341.986 37.4533 342.413 37.9333 342.973 38.28C343.546 38.6267 344.233 38.8 345.033 38.8C345.74 38.8 346.293 38.6667 346.693 38.4C347.093 38.12 347.293 37.76 347.293 37.32C347.293 37.04 347.2 36.7867 347.013 36.56C346.84 36.32 346.5 36.1467 345.993 36.04L343.593 35.54C342.62 35.34 341.92 35.0067 341.493 34.54C341.08 34.0733 340.873 33.4933 340.873 32.8C340.873 32.2533 341.026 31.7533 341.333 31.3C341.653 30.8467 342.1 30.4867 342.673 30.22C343.26 29.94 343.946 29.8 344.733 29.8C345.72 29.8 346.553 29.9933 347.233 30.38C347.913 30.7667 348.42 31.3133 348.753 32.02L347.413 32.9C347.186 32.3133 346.82 31.8867 346.313 31.62C345.806 31.34 345.28 31.2 344.733 31.2C344.253 31.2 343.84 31.2667 343.493 31.4C343.16 31.5333 342.9 31.72 342.713 31.96C342.54 32.1867 342.453 32.4467 342.453 32.74C342.453 33.0333 342.553 33.3067 342.753 33.56C342.953 33.8 343.326 33.9733 343.873 34.08L346.373 34.6C347.306 34.7867 347.96 35.0933 348.333 35.52C348.706 35.9467 348.893 36.4667 348.893 37.08C348.893 37.7067 348.726 38.26 348.393 38.74C348.06 39.2067 347.593 39.5667 346.993 39.82C346.393 40.0733 345.7 40.2 344.913 40.2ZM356.04 40.2C355.093 40.2 354.247 39.9933 353.5 39.58C352.767 39.1667 352.193 38.5733 351.78 37.8C351.367 37.0133 351.16 36.08 351.16 35C351.16 33.92 351.367 32.9933 351.78 32.22C352.193 31.4333 352.76 30.8333 353.48 30.42C354.2 30.0067 355.02 29.8 355.94 29.8C356.873 29.8 357.667 30 358.32 30.4C358.987 30.8 359.493 31.3467 359.84 32.04C360.187 32.72 360.36 33.4867 360.36 34.34C360.36 34.5667 360.353 34.7733 360.34 34.96C360.327 35.1467 360.307 35.3133 360.28 35.46H352.2V34.04H359.58L358.76 34.2C358.76 33.24 358.493 32.5 357.96 31.98C357.44 31.46 356.753 31.2 355.9 31.2C355.247 31.2 354.68 31.3533 354.2 31.66C353.733 31.9533 353.367 32.3867 353.1 32.96C352.847 33.52 352.72 34.2 352.72 35C352.72 35.7867 352.853 36.4667 353.12 37.04C353.387 37.6133 353.76 38.0533 354.24 38.36C354.733 38.6533 355.32 38.8 356 38.8C356.733 38.8 357.327 38.66 357.78 38.38C358.247 38.1 358.62 37.72 358.9 37.24L360.16 37.98C359.907 38.4333 359.58 38.8267 359.18 39.16C358.793 39.4933 358.333 39.7533 357.8 39.94C357.28 40.1133 356.693 40.2 356.04 40.2ZM363.421 26C363.741 26 364.007 26.0867 364.221 26.26C364.447 26.42 364.621 26.6467 364.741 26.94C364.861 27.22 364.921 27.5533 364.921 27.94C364.921 28.38 364.841 28.8133 364.681 29.24C364.534 29.6667 364.301 30.06 363.981 30.42C363.661 30.78 363.247 31.08 362.741 31.32L361.901 30.54C362.261 30.42 362.574 30.2533 362.841 30.04C363.121 29.8267 363.347 29.5867 363.521 29.32C363.694 29.0533 363.807 28.78 363.861 28.5L363.781 28.46C363.727 28.5 363.661 28.5333 363.581 28.56C363.501 28.5867 363.381 28.6 363.221 28.6C363.061 28.6 362.894 28.5533 362.721 28.46C362.561 28.3667 362.421 28.2333 362.301 28.06C362.181 27.8733 362.121 27.6333 362.121 27.34C362.121 27.1 362.181 26.88 362.301 26.68C362.421 26.4667 362.574 26.3 362.761 26.18C362.961 26.06 363.181 26 363.421 26ZM370.421 40.2C369.448 40.2 368.548 39.9933 367.721 39.58C366.908 39.1667 366.281 38.58 365.841 37.82L367.201 36.84C367.494 37.4533 367.921 37.9333 368.481 38.28C369.054 38.6267 369.741 38.8 370.541 38.8C371.248 38.8 371.801 38.6667 372.201 38.4C372.601 38.12 372.801 37.76 372.801 37.32C372.801 37.04 372.708 36.7867 372.521 36.56C372.348 36.32 372.008 36.1467 371.501 36.04L369.101 35.54C368.128 35.34 367.428 35.0067 367.001 34.54C366.588 34.0733 366.381 33.4933 366.381 32.8C366.381 32.2533 366.534 31.7533 366.841 31.3C367.161 30.8467 367.608 30.4867 368.181 30.22C368.768 29.94 369.454 29.8 370.241 29.8C371.228 29.8 372.061 29.9933 372.741 30.38C373.421 30.7667 373.928 31.3133 374.261 32.02L372.921 32.9C372.694 32.3133 372.328 31.8867 371.821 31.62C371.314 31.34 370.788 31.2 370.241 31.2C369.761 31.2 369.348 31.2667 369.001 31.4C368.668 31.5333 368.408 31.72 368.221 31.96C368.048 32.1867 367.961 32.4467 367.961 32.74C367.961 33.0333 368.061 33.3067 368.261 33.56C368.461 33.8 368.834 33.9733 369.381 34.08L371.881 34.6C372.814 34.7867 373.468 35.0933 373.841 35.52C374.214 35.9467 374.401 36.4667 374.401 37.08C374.401 37.7067 374.234 38.26 373.901 38.74C373.568 39.2067 373.101 39.5667 372.501 39.82C371.901 40.0733 371.208 40.2 370.421 40.2ZM386.154 27.16V37.24C386.154 37.7333 386.294 38.1 386.574 38.34C386.854 38.58 387.214 38.7 387.654 38.7C388.04 38.7 388.374 38.6333 388.654 38.5C388.934 38.3667 389.187 38.1867 389.414 37.96L389.974 39.3C389.667 39.58 389.3 39.8 388.874 39.96C388.46 40.12 387.98 40.2 387.434 40.2C386.927 40.2 386.454 40.1133 386.014 39.94C385.574 39.7533 385.22 39.4667 384.954 39.08C384.7 38.68 384.567 38.16 384.554 37.52V27.6L386.154 27.16ZM389.794 30V31.38H382.554V30H389.794ZM398.013 33.54C398.013 32.7933 397.813 32.22 397.413 31.82C397.013 31.4067 396.446 31.2 395.713 31.2C395.019 31.2 394.433 31.3533 393.953 31.66C393.473 31.9533 393.119 32.4333 392.893 33.1L391.593 32.3C391.859 31.5533 392.353 30.9533 393.073 30.5C393.793 30.0333 394.686 29.8 395.753 29.8C396.473 29.8 397.126 29.9267 397.713 30.18C398.299 30.42 398.759 30.7933 399.093 31.3C399.439 31.7933 399.613 32.4333 399.613 33.22V38.06C399.613 38.54 399.866 38.78 400.373 38.78C400.626 38.78 400.873 38.7467 401.113 38.68L401.033 39.94C400.766 40.0733 400.419 40.14 399.993 40.14C399.606 40.14 399.259 40.0667 398.953 39.92C398.646 39.7733 398.406 39.5533 398.233 39.26C398.059 38.9533 397.973 38.5733 397.973 38.12V37.92L398.373 37.98C398.213 38.5 397.939 38.9267 397.553 39.26C397.166 39.58 396.733 39.82 396.253 39.98C395.773 40.1267 395.299 40.2 394.833 40.2C394.246 40.2 393.699 40.1 393.193 39.9C392.686 39.7 392.279 39.4 391.973 39C391.679 38.5867 391.533 38.08 391.533 37.48C391.533 36.7333 391.779 36.12 392.273 35.64C392.779 35.1467 393.479 34.8133 394.373 34.64L398.333 33.86V35.18L395.113 35.84C394.459 35.9733 393.973 36.16 393.653 36.4C393.333 36.64 393.173 36.9733 393.173 37.4C393.173 37.8133 393.333 38.1533 393.653 38.42C393.986 38.6733 394.453 38.8 395.053 38.8C395.439 38.8 395.806 38.7533 396.153 38.66C396.513 38.5533 396.833 38.4 397.113 38.2C397.393 37.9867 397.613 37.7267 397.773 37.42C397.933 37.1 398.013 36.7267 398.013 36.3V33.54ZM404.301 28.08C403.941 28.08 403.647 27.9733 403.421 27.76C403.207 27.5333 403.101 27.24 403.101 26.88C403.101 26.52 403.207 26.2333 403.421 26.02C403.647 25.7933 403.941 25.68 404.301 25.68C404.661 25.68 404.947 25.7933 405.161 26.02C405.387 26.2333 405.501 26.52 405.501 26.88C405.501 27.24 405.387 27.5333 405.161 27.76C404.947 27.9733 404.661 28.08 404.301 28.08ZM405.101 30V40H403.501V30H405.101ZM410.333 25.4V37.46C410.333 37.9667 410.426 38.32 410.613 38.52C410.8 38.7067 411.1 38.8 411.513 38.8C411.78 38.8 412 38.78 412.173 38.74C412.346 38.7 412.58 38.6267 412.873 38.52L412.613 39.92C412.4 40.0133 412.166 40.08 411.913 40.12C411.66 40.1733 411.4 40.2 411.133 40.2C410.32 40.2 409.713 39.98 409.313 39.54C408.926 39.1 408.733 38.4267 408.733 37.52V25.4H410.333ZM415.726 37.6C416.046 37.6 416.313 37.6867 416.526 37.86C416.753 38.02 416.926 38.2467 417.046 38.54C417.166 38.82 417.226 39.1533 417.226 39.54C417.226 39.98 417.146 40.4133 416.986 40.84C416.84 41.2667 416.606 41.66 416.286 42.02C415.966 42.38 415.553 42.68 415.046 42.92L414.206 42.14C414.566 42.02 414.88 41.8533 415.146 41.64C415.426 41.4267 415.653 41.1867 415.826 40.92C416 40.6533 416.113 40.38 416.166 40.1L416.086 40.06C416.033 40.1 415.966 40.1333 415.886 40.16C415.806 40.1867 415.686 40.2 415.526 40.2C415.366 40.2 415.2 40.1533 415.026 40.06C414.866 39.9667 414.726 39.8333 414.606 39.66C414.486 39.4733 414.426 39.2333 414.426 38.94C414.426 38.7 414.486 38.48 414.606 38.28C414.726 38.0667 414.88 37.9 415.066 37.78C415.266 37.66 415.486 37.6 415.726 37.6ZM4.22 53.16V63.24C4.22 63.7333 4.36 64.1 4.64 64.34C4.92 64.58 5.28 64.7 5.72 64.7C6.10667 64.7 6.44 64.6333 6.72 64.5C7 64.3667 7.25333 64.1867 7.48 63.96L8.04 65.3C7.73333 65.58 7.36667 65.8 6.94 65.96C6.52667 66.12 6.04667 66.2 5.5 66.2C4.99333 66.2 4.52 66.1133 4.08 65.94C3.64 65.7533 3.28667 65.4667 3.02 65.08C2.76667 64.68 2.63333 64.16 2.62 63.52V53.6L4.22 53.16ZM7.86 56V57.38H0.62V56H7.86ZM10.2389 66V51.4H11.8389V57.5C12.1856 56.9 12.6456 56.4667 13.2189 56.2C13.7922 55.9333 14.4189 55.8 15.0989 55.8C15.8189 55.8 16.4722 55.94 17.0589 56.22C17.6456 56.4867 18.1122 56.9 18.4589 57.46C18.8189 58.02 18.9989 58.7333 18.9989 59.6V66H17.3989V60.16C17.3989 59.0533 17.1589 58.2867 16.6789 57.86C16.2122 57.42 15.6322 57.2 14.9389 57.2C14.4589 57.2 13.9789 57.3133 13.4989 57.54C13.0189 57.7667 12.6189 58.14 12.2989 58.66C11.9922 59.1667 11.8389 59.8467 11.8389 60.7V66H10.2389ZM26.8017 66.2C25.8551 66.2 25.0084 65.9933 24.2617 65.58C23.5284 65.1667 22.9551 64.5733 22.5417 63.8C22.1284 63.0133 21.9217 62.08 21.9217 61C21.9217 59.92 22.1284 58.9933 22.5417 58.22C22.9551 57.4333 23.5217 56.8333 24.2417 56.42C24.9617 56.0067 25.7817 55.8 26.7017 55.8C27.6351 55.8 28.4284 56 29.0817 56.4C29.7484 56.8 30.2551 57.3467 30.6017 58.04C30.9484 58.72 31.1217 59.4867 31.1217 60.34C31.1217 60.5667 31.1151 60.7733 31.1017 60.96C31.0884 61.1467 31.0684 61.3133 31.0417 61.46H22.9617V60.04H30.3417L29.5217 60.2C29.5217 59.24 29.2551 58.5 28.7217 57.98C28.2017 57.46 27.5151 57.2 26.6617 57.2C26.0084 57.2 25.4417 57.3533 24.9617 57.66C24.4951 57.9533 24.1284 58.3867 23.8617 58.96C23.6084 59.52 23.4817 60.2 23.4817 61C23.4817 61.7867 23.6151 62.4667 23.8817 63.04C24.1484 63.6133 24.5217 64.0533 25.0017 64.36C25.4951 64.6533 26.0817 64.8 26.7617 64.8C27.4951 64.8 28.0884 64.66 28.5417 64.38C29.0084 64.1 29.3817 63.72 29.6617 63.24L30.9217 63.98C30.6684 64.4333 30.3417 64.8267 29.9417 65.16C29.5551 65.4933 29.0951 65.7533 28.5617 65.94C28.0417 66.1133 27.4551 66.2 26.8017 66.2ZM45.1211 55.8C45.8144 55.8 46.4211 55.9067 46.9411 56.12C47.4744 56.3333 47.9344 56.64 48.3211 57.04C48.7078 57.44 49.0211 57.9133 49.2611 58.46L47.7411 59.18C47.5278 58.54 47.2011 58.0533 46.7611 57.72C46.3344 57.3733 45.7744 57.2 45.0811 57.2C44.4144 57.2 43.8411 57.3533 43.3611 57.66C42.8811 57.9533 42.5144 58.3867 42.2611 58.96C42.0078 59.52 41.8811 60.2 41.8811 61C41.8811 61.7867 42.0078 62.4667 42.2611 63.04C42.5144 63.6133 42.8811 64.0533 43.3611 64.36C43.8411 64.6533 44.4144 64.8 45.0811 64.8C45.6011 64.8 46.0478 64.72 46.4211 64.56C46.8078 64.4 47.1211 64.1667 47.3611 63.86C47.6144 63.5533 47.7878 63.18 47.8811 62.74L49.3611 63.26C49.1344 63.8733 48.8211 64.4 48.4211 64.84C48.0344 65.28 47.5611 65.62 47.0011 65.86C46.4544 66.0867 45.8278 66.2 45.1211 66.2C44.1878 66.2 43.3544 65.9933 42.6211 65.58C41.8878 65.1667 41.3144 64.5733 40.9011 63.8C40.4878 63.0133 40.2811 62.08 40.2811 61C40.2811 59.92 40.4878 58.9933 40.9011 58.22C41.3144 57.4333 41.8878 56.8333 42.6211 56.42C43.3544 56.0067 44.1878 55.8 45.1211 55.8ZM58.0125 59.54C58.0125 58.7933 57.8125 58.22 57.4125 57.82C57.0125 57.4067 56.4458 57.2 55.7125 57.2C55.0192 57.2 54.4325 57.3533 53.9525 57.66C53.4725 57.9533 53.1192 58.4333 52.8925 59.1L51.5925 58.3C51.8592 57.5533 52.3525 56.9533 53.0725 56.5C53.7925 56.0333 54.6858 55.8 55.7525 55.8C56.4725 55.8 57.1258 55.9267 57.7125 56.18C58.2992 56.42 58.7592 56.7933 59.0925 57.3C59.4392 57.7933 59.6125 58.4333 59.6125 59.22V64.06C59.6125 64.54 59.8658 64.78 60.3725 64.78C60.6258 64.78 60.8725 64.7467 61.1125 64.68L61.0325 65.94C60.7658 66.0733 60.4192 66.14 59.9925 66.14C59.6058 66.14 59.2592 66.0667 58.9525 65.92C58.6458 65.7733 58.4058 65.5533 58.2325 65.26C58.0592 64.9533 57.9725 64.5733 57.9725 64.12V63.92L58.3725 63.98C58.2125 64.5 57.9392 64.9267 57.5525 65.26C57.1658 65.58 56.7325 65.82 56.2525 65.98C55.7725 66.1267 55.2992 66.2 54.8325 66.2C54.2458 66.2 53.6992 66.1 53.1925 65.9C52.6858 65.7 52.2792 65.4 51.9725 65C51.6792 64.5867 51.5325 64.08 51.5325 63.48C51.5325 62.7333 51.7792 62.12 52.2725 61.64C52.7792 61.1467 53.4792 60.8133 54.3725 60.64L58.3325 59.86V61.18L55.1125 61.84C54.4592 61.9733 53.9725 62.16 53.6525 62.4C53.3325 62.64 53.1725 62.9733 53.1725 63.4C53.1725 63.8133 53.3325 64.1533 53.6525 64.42C53.9858 64.6733 54.4525 64.8 55.0525 64.8C55.4392 64.8 55.8058 64.7533 56.1525 64.66C56.5125 64.5533 56.8325 64.4 57.1125 64.2C57.3925 63.9867 57.6125 63.7267 57.7725 63.42C57.9325 63.1 58.0125 62.7267 58.0125 62.3V59.54ZM65.47 53.16V63.24C65.47 63.7333 65.61 64.1 65.89 64.34C66.17 64.58 66.53 64.7 66.97 64.7C67.3567 64.7 67.69 64.6333 67.97 64.5C68.25 64.3667 68.5033 64.1867 68.73 63.96L69.29 65.3C68.9833 65.58 68.6167 65.8 68.19 65.96C67.7767 66.12 67.2967 66.2 66.75 66.2C66.2433 66.2 65.77 66.1133 65.33 65.94C64.89 65.7533 64.5367 65.4667 64.27 65.08C64.0167 64.68 63.8833 64.16 63.87 63.52V53.6L65.47 53.16ZM69.11 56V57.38H61.87V56H69.11ZM82.4453 55.8C83.392 55.8 84.2253 56.0067 84.9453 56.42C85.6786 56.8333 86.252 57.4333 86.6653 58.22C87.0786 58.9933 87.2853 59.92 87.2853 61C87.2853 62.08 87.0786 63.0133 86.6653 63.8C86.252 64.5733 85.6786 65.1667 84.9453 65.58C84.2253 65.9933 83.392 66.2 82.4453 66.2C81.512 66.2 80.6786 65.9933 79.9453 65.58C79.212 65.1667 78.6386 64.5733 78.2253 63.8C77.812 63.0133 77.6053 62.08 77.6053 61C77.6053 59.92 77.812 58.9933 78.2253 58.22C78.6386 57.4333 79.212 56.8333 79.9453 56.42C80.6786 56.0067 81.512 55.8 82.4453 55.8ZM82.4453 57.18C81.7653 57.18 81.1853 57.3333 80.7053 57.64C80.2253 57.9467 79.852 58.3867 79.5853 58.96C79.332 59.52 79.2053 60.2 79.2053 61C79.2053 61.7867 79.332 62.4667 79.5853 63.04C79.852 63.6133 80.2253 64.0533 80.7053 64.36C81.1853 64.6667 81.7653 64.82 82.4453 64.82C83.1253 64.82 83.7053 64.6667 84.1853 64.36C84.6653 64.0533 85.032 63.6133 85.2853 63.04C85.552 62.4667 85.6853 61.7867 85.6853 61C85.6853 60.2 85.552 59.52 85.2853 58.96C85.032 58.3867 84.6653 57.9467 84.1853 57.64C83.7053 57.3333 83.1253 57.18 82.4453 57.18ZM94.1817 51.3C94.5284 51.3 94.8551 51.34 95.1617 51.42C95.4684 51.5 95.7084 51.6133 95.8817 51.76L95.4617 53.06C95.3017 52.9533 95.1284 52.88 94.9417 52.84C94.7551 52.7867 94.5484 52.76 94.3217 52.76C93.7484 52.76 93.3017 52.9 92.9817 53.18C92.6617 53.4467 92.5017 53.88 92.5017 54.48V56V56.52V66H90.9017V54.32C90.9017 53.88 90.9684 53.4733 91.1017 53.1C91.2351 52.7267 91.4351 52.4067 91.7017 52.14C91.9817 51.8733 92.3284 51.6667 92.7417 51.52C93.1551 51.3733 93.6351 51.3 94.1817 51.3ZM95.8417 56V57.38H88.9017V56H95.8417ZM105.958 53.16V63.24C105.958 63.7333 106.098 64.1 106.378 64.34C106.658 64.58 107.018 64.7 107.458 64.7C107.845 64.7 108.178 64.6333 108.458 64.5C108.738 64.3667 108.992 64.1867 109.218 63.96L109.778 65.3C109.472 65.58 109.105 65.8 108.678 65.96C108.265 66.12 107.785 66.2 107.238 66.2C106.732 66.2 106.258 66.1133 105.818 65.94C105.378 65.7533 105.025 65.4667 104.758 65.08C104.505 64.68 104.372 64.16 104.358 63.52V53.6L105.958 53.16ZM109.598 56V57.38H102.358V56H109.598ZM111.977 66V51.4H113.577V57.5C113.924 56.9 114.384 56.4667 114.957 56.2C115.531 55.9333 116.157 55.8 116.837 55.8C117.557 55.8 118.211 55.94 118.797 56.22C119.384 56.4867 119.851 56.9 120.197 57.46C120.557 58.02 120.737 58.7333 120.737 59.6V66H119.137V60.16C119.137 59.0533 118.897 58.2867 118.417 57.86C117.951 57.42 117.371 57.2 116.677 57.2C116.197 57.2 115.717 57.3133 115.237 57.54C114.757 57.7667 114.357 58.14 114.037 58.66C113.731 59.1667 113.577 59.8467 113.577 60.7V66H111.977ZM128.54 66.2C127.593 66.2 126.747 65.9933 126 65.58C125.267 65.1667 124.693 64.5733 124.28 63.8C123.867 63.0133 123.66 62.08 123.66 61C123.66 59.92 123.867 58.9933 124.28 58.22C124.693 57.4333 125.26 56.8333 125.98 56.42C126.7 56.0067 127.52 55.8 128.44 55.8C129.373 55.8 130.167 56 130.82 56.4C131.487 56.8 131.993 57.3467 132.34 58.04C132.687 58.72 132.86 59.4867 132.86 60.34C132.86 60.5667 132.853 60.7733 132.84 60.96C132.827 61.1467 132.807 61.3133 132.78 61.46H124.7V60.04H132.08L131.26 60.2C131.26 59.24 130.993 58.5 130.46 57.98C129.94 57.46 129.253 57.2 128.4 57.2C127.747 57.2 127.18 57.3533 126.7 57.66C126.233 57.9533 125.867 58.3867 125.6 58.96C125.347 59.52 125.22 60.2 125.22 61C125.22 61.7867 125.353 62.4667 125.62 63.04C125.887 63.6133 126.26 64.0533 126.74 64.36C127.233 64.6533 127.82 64.8 128.5 64.8C129.233 64.8 129.827 64.66 130.28 64.38C130.747 64.1 131.12 63.72 131.4 63.24L132.66 63.98C132.407 64.4333 132.08 64.8267 131.68 65.16C131.293 65.4933 130.833 65.7533 130.3 65.94C129.78 66.1133 129.193 66.2 128.54 66.2ZM142.719 66V56H144.119L144.219 57.56C144.579 56.9467 145.046 56.5 145.619 56.22C146.206 55.94 146.806 55.8 147.419 55.8C148.126 55.8 148.793 55.96 149.419 56.28C150.046 56.6 150.526 57.0933 150.859 57.76C151.073 57.3067 151.373 56.94 151.759 56.66C152.146 56.3667 152.566 56.1533 153.019 56.02C153.486 55.8733 153.926 55.8 154.339 55.8C154.979 55.8 155.586 55.9333 156.159 56.2C156.746 56.4667 157.226 56.88 157.599 57.44C157.973 58 158.159 58.72 158.159 59.6V66H156.559V59.76C156.559 58.8533 156.333 58.2 155.879 57.8C155.426 57.4 154.866 57.2 154.199 57.2C153.679 57.2 153.193 57.3267 152.739 57.58C152.286 57.8333 151.919 58.2067 151.639 58.7C151.373 59.1933 151.239 59.8 151.239 60.52V66H149.639V59.76C149.639 58.8533 149.413 58.2 148.959 57.8C148.506 57.4 147.946 57.2 147.279 57.2C146.839 57.2 146.386 57.32 145.919 57.56C145.466 57.7867 145.086 58.1533 144.779 58.66C144.473 59.1667 144.319 59.8333 144.319 60.66V66H142.719ZM167.622 59.54C167.622 58.7933 167.422 58.22 167.022 57.82C166.622 57.4067 166.055 57.2 165.322 57.2C164.629 57.2 164.042 57.3533 163.562 57.66C163.082 57.9533 162.729 58.4333 162.502 59.1L161.202 58.3C161.469 57.5533 161.962 56.9533 162.682 56.5C163.402 56.0333 164.295 55.8 165.362 55.8C166.082 55.8 166.735 55.9267 167.322 56.18C167.909 56.42 168.369 56.7933 168.702 57.3C169.049 57.7933 169.222 58.4333 169.222 59.22V64.06C169.222 64.54 169.475 64.78 169.982 64.78C170.235 64.78 170.482 64.7467 170.722 64.68L170.642 65.94C170.375 66.0733 170.029 66.14 169.602 66.14C169.215 66.14 168.869 66.0667 168.562 65.92C168.255 65.7733 168.015 65.5533 167.842 65.26C167.669 64.9533 167.582 64.5733 167.582 64.12V63.92L167.982 63.98C167.822 64.5 167.549 64.9267 167.162 65.26C166.775 65.58 166.342 65.82 165.862 65.98C165.382 66.1267 164.909 66.2 164.442 66.2C163.855 66.2 163.309 66.1 162.802 65.9C162.295 65.7 161.889 65.4 161.582 65C161.289 64.5867 161.142 64.08 161.142 63.48C161.142 62.7333 161.389 62.12 161.882 61.64C162.389 61.1467 163.089 60.8133 163.982 60.64L167.942 59.86V61.18L164.722 61.84C164.069 61.9733 163.582 62.16 163.262 62.4C162.942 62.64 162.782 62.9733 162.782 63.4C162.782 63.8133 162.942 64.1533 163.262 64.42C163.595 64.6733 164.062 64.8 164.662 64.8C165.049 64.8 165.415 64.7533 165.762 64.66C166.122 64.5533 166.442 64.4 166.722 64.2C167.002 63.9867 167.222 63.7267 167.382 63.42C167.542 63.1 167.622 62.7267 167.622 62.3V59.54ZM173.91 54.08C173.55 54.08 173.257 53.9733 173.03 53.76C172.817 53.5333 172.71 53.24 172.71 52.88C172.71 52.52 172.817 52.2333 173.03 52.02C173.257 51.7933 173.55 51.68 173.91 51.68C174.27 51.68 174.557 51.7933 174.77 52.02C174.997 52.2333 175.11 52.52 175.11 52.88C175.11 53.24 174.997 53.5333 174.77 53.76C174.557 53.9733 174.27 54.08 173.91 54.08ZM174.71 56V66H173.11V56H174.71ZM178.423 66V56H179.823L179.963 58.24L179.703 58.02C179.916 57.4867 180.203 57.06 180.563 56.74C180.923 56.4067 181.336 56.1667 181.803 56.02C182.283 55.8733 182.776 55.8 183.283 55.8C184.003 55.8 184.656 55.94 185.243 56.22C185.829 56.4867 186.296 56.9 186.643 57.46C187.003 58.02 187.183 58.7333 187.183 59.6V66H185.583V60.16C185.583 59.0533 185.343 58.2867 184.863 57.86C184.396 57.42 183.816 57.2 183.123 57.2C182.643 57.2 182.163 57.3133 181.683 57.54C181.203 57.7667 180.803 58.1333 180.483 58.64C180.176 59.1467 180.023 59.8267 180.023 60.68V66H178.423ZM201.762 55.8C202.455 55.8 203.062 55.9067 203.582 56.12C204.115 56.3333 204.575 56.64 204.962 57.04C205.348 57.44 205.662 57.9133 205.902 58.46L204.382 59.18C204.168 58.54 203.842 58.0533 203.402 57.72C202.975 57.3733 202.415 57.2 201.722 57.2C201.055 57.2 200.482 57.3533 200.002 57.66C199.522 57.9533 199.155 58.3867 198.902 58.96C198.648 59.52 198.522 60.2 198.522 61C198.522 61.7867 198.648 62.4667 198.902 63.04C199.155 63.6133 199.522 64.0533 200.002 64.36C200.482 64.6533 201.055 64.8 201.722 64.8C202.242 64.8 202.688 64.72 203.062 64.56C203.448 64.4 203.762 64.1667 204.002 63.86C204.255 63.5533 204.428 63.18 204.522 62.74L206.002 63.26C205.775 63.8733 205.462 64.4 205.062 64.84C204.675 65.28 204.202 65.62 203.642 65.86C203.095 66.0867 202.468 66.2 201.762 66.2C200.828 66.2 199.995 65.9933 199.262 65.58C198.528 65.1667 197.955 64.5733 197.542 63.8C197.128 63.0133 196.922 62.08 196.922 61C196.922 59.92 197.128 58.9933 197.542 58.22C197.955 57.4333 198.528 56.8333 199.262 56.42C199.995 56.0067 200.828 55.8 201.762 55.8ZM208.813 66V51.4H210.413V57.5C210.76 56.9 211.22 56.4667 211.793 56.2C212.366 55.9333 212.993 55.8 213.673 55.8C214.393 55.8 215.046 55.94 215.633 56.22C216.22 56.4867 216.686 56.9 217.033 57.46C217.393 58.02 217.573 58.7333 217.573 59.6V66H215.973V60.16C215.973 59.0533 215.733 58.2867 215.253 57.86C214.786 57.42 214.206 57.2 213.513 57.2C213.033 57.2 212.553 57.3133 212.073 57.54C211.593 57.7667 211.193 58.14 210.873 58.66C210.566 59.1667 210.413 59.8467 210.413 60.7V66H208.813ZM227.036 59.54C227.036 58.7933 226.836 58.22 226.436 57.82C226.036 57.4067 225.469 57.2 224.736 57.2C224.043 57.2 223.456 57.3533 222.976 57.66C222.496 57.9533 222.143 58.4333 221.916 59.1L220.616 58.3C220.883 57.5533 221.376 56.9533 222.096 56.5C222.816 56.0333 223.709 55.8 224.776 55.8C225.496 55.8 226.149 55.9267 226.736 56.18C227.323 56.42 227.783 56.7933 228.116 57.3C228.463 57.7933 228.636 58.4333 228.636 59.22V64.06C228.636 64.54 228.889 64.78 229.396 64.78C229.649 64.78 229.896 64.7467 230.136 64.68L230.056 65.94C229.789 66.0733 229.443 66.14 229.016 66.14C228.629 66.14 228.283 66.0667 227.976 65.92C227.669 65.7733 227.429 65.5533 227.256 65.26C227.083 64.9533 226.996 64.5733 226.996 64.12V63.92L227.396 63.98C227.236 64.5 226.963 64.9267 226.576 65.26C226.189 65.58 225.756 65.82 225.276 65.98C224.796 66.1267 224.323 66.2 223.856 66.2C223.269 66.2 222.723 66.1 222.216 65.9C221.709 65.7 221.303 65.4 220.996 65C220.703 64.5867 220.556 64.08 220.556 63.48C220.556 62.7333 220.803 62.12 221.296 61.64C221.803 61.1467 222.503 60.8133 223.396 60.64L227.356 59.86V61.18L224.136 61.84C223.483 61.9733 222.996 62.16 222.676 62.4C222.356 62.64 222.196 62.9733 222.196 63.4C222.196 63.8133 222.356 64.1533 222.676 64.42C223.009 64.6733 223.476 64.8 224.076 64.8C224.463 64.8 224.829 64.7533 225.176 64.66C225.536 64.5533 225.856 64.4 226.136 64.2C226.416 63.9867 226.636 63.7267 226.796 63.42C226.956 63.1 227.036 62.7267 227.036 62.3V59.54ZM232.524 66V56H233.824L234.044 57.64C234.324 57.0267 234.731 56.5667 235.264 56.26C235.811 55.9533 236.471 55.8 237.244 55.8C237.417 55.8 237.604 55.8133 237.804 55.84C238.017 55.8667 238.197 55.92 238.344 56L238.064 57.46C237.917 57.4067 237.757 57.3667 237.584 57.34C237.411 57.3133 237.164 57.3 236.844 57.3C236.431 57.3 236.011 57.42 235.584 57.66C235.171 57.9 234.824 58.2667 234.544 58.76C234.264 59.24 234.124 59.8533 234.124 60.6V66H232.524ZM246.255 59.54C246.255 58.7933 246.055 58.22 245.655 57.82C245.255 57.4067 244.688 57.2 243.955 57.2C243.261 57.2 242.675 57.3533 242.195 57.66C241.715 57.9533 241.361 58.4333 241.135 59.1L239.835 58.3C240.101 57.5533 240.595 56.9533 241.315 56.5C242.035 56.0333 242.928 55.8 243.995 55.8C244.715 55.8 245.368 55.9267 245.955 56.18C246.541 56.42 247.001 56.7933 247.335 57.3C247.681 57.7933 247.855 58.4333 247.855 59.22V64.06C247.855 64.54 248.108 64.78 248.615 64.78C248.868 64.78 249.115 64.7467 249.355 64.68L249.275 65.94C249.008 66.0733 248.661 66.14 248.235 66.14C247.848 66.14 247.501 66.0667 247.195 65.92C246.888 65.7733 246.648 65.5533 246.475 65.26C246.301 64.9533 246.215 64.5733 246.215 64.12V63.92L246.615 63.98C246.455 64.5 246.181 64.9267 245.795 65.26C245.408 65.58 244.975 65.82 244.495 65.98C244.015 66.1267 243.541 66.2 243.075 66.2C242.488 66.2 241.941 66.1 241.435 65.9C240.928 65.7 240.521 65.4 240.215 65C239.921 64.5867 239.775 64.08 239.775 63.48C239.775 62.7333 240.021 62.12 240.515 61.64C241.021 61.1467 241.721 60.8133 242.615 60.64L246.575 59.86V61.18L243.355 61.84C242.701 61.9733 242.215 62.16 241.895 62.4C241.575 62.64 241.415 62.9733 241.415 63.4C241.415 63.8133 241.575 64.1533 241.895 64.42C242.228 64.6733 242.695 64.8 243.295 64.8C243.681 64.8 244.048 64.7533 244.395 64.66C244.755 64.5533 245.075 64.4 245.355 64.2C245.635 63.9867 245.855 63.7267 246.015 63.42C246.175 63.1 246.255 62.7267 246.255 62.3V59.54ZM255.883 55.8C256.576 55.8 257.183 55.9067 257.703 56.12C258.236 56.3333 258.696 56.64 259.083 57.04C259.469 57.44 259.783 57.9133 260.023 58.46L258.503 59.18C258.289 58.54 257.963 58.0533 257.523 57.72C257.096 57.3733 256.536 57.2 255.843 57.2C255.176 57.2 254.603 57.3533 254.123 57.66C253.643 57.9533 253.276 58.3867 253.023 58.96C252.769 59.52 252.643 60.2 252.643 61C252.643 61.7867 252.769 62.4667 253.023 63.04C253.276 63.6133 253.643 64.0533 254.123 64.36C254.603 64.6533 255.176 64.8 255.843 64.8C256.363 64.8 256.809 64.72 257.183 64.56C257.569 64.4 257.883 64.1667 258.123 63.86C258.376 63.5533 258.549 63.18 258.643 62.74L260.123 63.26C259.896 63.8733 259.583 64.4 259.183 64.84C258.796 65.28 258.323 65.62 257.763 65.86C257.216 66.0867 256.589 66.2 255.883 66.2C254.949 66.2 254.116 65.9933 253.383 65.58C252.649 65.1667 252.076 64.5733 251.663 63.8C251.249 63.0133 251.043 62.08 251.043 61C251.043 59.92 251.249 58.9933 251.663 58.22C252.076 57.4333 252.649 56.8333 253.383 56.42C254.116 56.0067 254.949 55.8 255.883 55.8ZM265.294 53.16V63.24C265.294 63.7333 265.434 64.1 265.714 64.34C265.994 64.58 266.354 64.7 266.794 64.7C267.181 64.7 267.514 64.6333 267.794 64.5C268.074 64.3667 268.328 64.1867 268.554 63.96L269.114 65.3C268.808 65.58 268.441 65.8 268.014 65.96C267.601 66.12 267.121 66.2 266.574 66.2C266.068 66.2 265.594 66.1133 265.154 65.94C264.714 65.7533 264.361 65.4667 264.094 65.08C263.841 64.68 263.708 64.16 263.694 63.52V53.6L265.294 53.16ZM268.934 56V57.38H261.694V56H268.934ZM275.493 66.2C274.546 66.2 273.7 65.9933 272.953 65.58C272.22 65.1667 271.646 64.5733 271.233 63.8C270.82 63.0133 270.613 62.08 270.613 61C270.613 59.92 270.82 58.9933 271.233 58.22C271.646 57.4333 272.213 56.8333 272.933 56.42C273.653 56.0067 274.473 55.8 275.393 55.8C276.326 55.8 277.12 56 277.773 56.4C278.44 56.8 278.946 57.3467 279.293 58.04C279.64 58.72 279.813 59.4867 279.813 60.34C279.813 60.5667 279.806 60.7733 279.793 60.96C279.78 61.1467 279.76 61.3133 279.733 61.46H271.653V60.04H279.033L278.213 60.2C278.213 59.24 277.946 58.5 277.413 57.98C276.893 57.46 276.206 57.2 275.353 57.2C274.7 57.2 274.133 57.3533 273.653 57.66C273.186 57.9533 272.82 58.3867 272.553 58.96C272.3 59.52 272.173 60.2 272.173 61C272.173 61.7867 272.306 62.4667 272.573 63.04C272.84 63.6133 273.213 64.0533 273.693 64.36C274.186 64.6533 274.773 64.8 275.453 64.8C276.186 64.8 276.78 64.66 277.233 64.38C277.7 64.1 278.073 63.72 278.353 63.24L279.613 63.98C279.36 64.4333 279.033 64.8267 278.633 65.16C278.246 65.4933 277.786 65.7533 277.253 65.94C276.733 66.1133 276.146 66.2 275.493 66.2ZM282.856 66V56H284.156L284.376 57.64C284.656 57.0267 285.063 56.5667 285.596 56.26C286.143 55.9533 286.803 55.8 287.576 55.8C287.749 55.8 287.936 55.8133 288.136 55.84C288.349 55.8667 288.529 55.92 288.676 56L288.396 57.46C288.249 57.4067 288.089 57.3667 287.916 57.34C287.743 57.3133 287.496 57.3 287.176 57.3C286.763 57.3 286.343 57.42 285.916 57.66C285.503 57.9 285.156 58.2667 284.876 58.76C284.596 59.24 284.456 59.8533 284.456 60.6V66H282.856ZM308.308 62.62C308.028 63.3667 307.628 64.0133 307.108 64.56C306.588 65.0933 305.974 65.5 305.268 65.78C304.574 66.06 303.814 66.2 302.988 66.2C301.734 66.2 300.648 65.9267 299.728 65.38C298.821 64.82 298.114 64.0333 297.608 63.02C297.114 62.0067 296.868 60.8 296.868 59.4C296.868 58 297.114 56.7933 297.608 55.78C298.114 54.7667 298.821 53.9867 299.728 53.44C300.648 52.88 301.721 52.6 302.948 52.6C303.801 52.6 304.561 52.72 305.228 52.96C305.894 53.1867 306.461 53.5333 306.928 54C307.408 54.4533 307.788 55.0133 308.068 55.68L306.488 56.42C306.194 55.66 305.768 55.0867 305.208 54.7C304.661 54.3 303.948 54.1 303.068 54.1C302.174 54.1 301.388 54.3133 300.708 54.74C300.028 55.1533 299.494 55.7533 299.108 56.54C298.734 57.3267 298.548 58.28 298.548 59.4C298.548 60.5067 298.728 61.46 299.088 62.26C299.448 63.0467 299.961 63.6533 300.628 64.08C301.294 64.4933 302.081 64.7 302.988 64.7C303.868 64.7 304.634 64.48 305.288 64.04C305.941 63.5867 306.414 62.9133 306.708 62.02L308.308 62.62ZM316.919 59.54C316.919 58.7933 316.719 58.22 316.319 57.82C315.919 57.4067 315.352 57.2 314.619 57.2C313.925 57.2 313.339 57.3533 312.859 57.66C312.379 57.9533 312.025 58.4333 311.799 59.1L310.499 58.3C310.765 57.5533 311.259 56.9533 311.979 56.5C312.699 56.0333 313.592 55.8 314.659 55.8C315.379 55.8 316.032 55.9267 316.619 56.18C317.205 56.42 317.665 56.7933 317.999 57.3C318.345 57.7933 318.519 58.4333 318.519 59.22V64.06C318.519 64.54 318.772 64.78 319.279 64.78C319.532 64.78 319.779 64.7467 320.019 64.68L319.939 65.94C319.672 66.0733 319.325 66.14 318.899 66.14C318.512 66.14 318.165 66.0667 317.859 65.92C317.552 65.7733 317.312 65.5533 317.139 65.26C316.965 64.9533 316.879 64.5733 316.879 64.12V63.92L317.279 63.98C317.119 64.5 316.845 64.9267 316.459 65.26C316.072 65.58 315.639 65.82 315.159 65.98C314.679 66.1267 314.205 66.2 313.739 66.2C313.152 66.2 312.605 66.1 312.099 65.9C311.592 65.7 311.185 65.4 310.879 65C310.585 64.5867 310.439 64.08 310.439 63.48C310.439 62.7333 310.685 62.12 311.179 61.64C311.685 61.1467 312.385 60.8133 313.279 60.64L317.239 59.86V61.18L314.019 61.84C313.365 61.9733 312.879 62.16 312.559 62.4C312.239 62.64 312.079 62.9733 312.079 63.4C312.079 63.8133 312.239 64.1533 312.559 64.42C312.892 64.6733 313.359 64.8 313.959 64.8C314.345 64.8 314.712 64.7533 315.059 64.66C315.419 64.5533 315.739 64.4 316.019 64.2C316.299 63.9867 316.519 63.7267 316.679 63.42C316.839 63.1 316.919 62.7267 316.919 62.3V59.54ZM322.407 66V56H323.707L323.927 57.64C324.207 57.0267 324.614 56.5667 325.147 56.26C325.694 55.9533 326.354 55.8 327.127 55.8C327.3 55.8 327.487 55.8133 327.687 55.84C327.9 55.8667 328.08 55.92 328.227 56L327.947 57.46C327.8 57.4067 327.64 57.3667 327.467 57.34C327.294 57.3133 327.047 57.3 326.727 57.3C326.314 57.3 325.894 57.42 325.467 57.66C325.054 57.9 324.707 58.2667 324.427 58.76C324.147 59.24 324.007 59.8533 324.007 60.6V66H322.407ZM334.398 55.8C335.345 55.8 336.178 56.0067 336.898 56.42C337.632 56.8333 338.205 57.4333 338.618 58.22C339.032 58.9933 339.238 59.92 339.238 61C339.238 62.08 339.032 63.0133 338.618 63.8C338.205 64.5733 337.632 65.1667 336.898 65.58C336.178 65.9933 335.345 66.2 334.398 66.2C333.465 66.2 332.632 65.9933 331.898 65.58C331.165 65.1667 330.592 64.5733 330.178 63.8C329.765 63.0133 329.558 62.08 329.558 61C329.558 59.92 329.765 58.9933 330.178 58.22C330.592 57.4333 331.165 56.8333 331.898 56.42C332.632 56.0067 333.465 55.8 334.398 55.8ZM334.398 57.18C333.718 57.18 333.138 57.3333 332.658 57.64C332.178 57.9467 331.805 58.3867 331.538 58.96C331.285 59.52 331.158 60.2 331.158 61C331.158 61.7867 331.285 62.4667 331.538 63.04C331.805 63.6133 332.178 64.0533 332.658 64.36C333.138 64.6667 333.718 64.82 334.398 64.82C335.078 64.82 335.658 64.6667 336.138 64.36C336.618 64.0533 336.985 63.6133 337.238 63.04C337.505 62.4667 337.638 61.7867 337.638 61C337.638 60.2 337.505 59.52 337.238 58.96C336.985 58.3867 336.618 57.9467 336.138 57.64C335.658 57.3333 335.078 57.18 334.398 57.18ZM343.771 51.4V63.46C343.771 63.9667 343.864 64.32 344.051 64.52C344.237 64.7067 344.537 64.8 344.951 64.8C345.217 64.8 345.437 64.78 345.611 64.74C345.784 64.7 346.017 64.6267 346.311 64.52L346.051 65.92C345.837 66.0133 345.604 66.08 345.351 66.12C345.097 66.1733 344.837 66.2 344.571 66.2C343.757 66.2 343.151 65.98 342.751 65.54C342.364 65.1 342.171 64.4267 342.171 63.52V51.4H343.771ZM359.037 52.8C361.104 52.8 362.724 53.3733 363.897 54.52C365.084 55.6533 365.677 57.28 365.677 59.4C365.677 61.52 365.084 63.1533 363.897 64.3C362.724 65.4333 361.104 66 359.037 66H354.777V52.8H359.037ZM359.197 64.5C360.704 64.5 361.877 64.0533 362.717 63.16C363.571 62.2533 363.997 61 363.997 59.4C363.997 57.8 363.571 56.5533 362.717 55.66C361.877 54.7533 360.704 54.3 359.197 54.3H356.377V64.5H359.197ZM374.731 59.54C374.731 58.7933 374.531 58.22 374.131 57.82C373.731 57.4067 373.165 57.2 372.431 57.2C371.738 57.2 371.151 57.3533 370.671 57.66C370.191 57.9533 369.838 58.4333 369.611 59.1L368.311 58.3C368.578 57.5533 369.071 56.9533 369.791 56.5C370.511 56.0333 371.405 55.8 372.471 55.8C373.191 55.8 373.845 55.9267 374.431 56.18C375.018 56.42 375.478 56.7933 375.811 57.3C376.158 57.7933 376.331 58.4333 376.331 59.22V64.06C376.331 64.54 376.585 64.78 377.091 64.78C377.345 64.78 377.591 64.7467 377.831 64.68L377.751 65.94C377.485 66.0733 377.138 66.14 376.711 66.14C376.325 66.14 375.978 66.0667 375.671 65.92C375.365 65.7733 375.125 65.5533 374.951 65.26C374.778 64.9533 374.691 64.5733 374.691 64.12V63.92L375.091 63.98C374.931 64.5 374.658 64.9267 374.271 65.26C373.885 65.58 373.451 65.82 372.971 65.98C372.491 66.1267 372.018 66.2 371.551 66.2C370.965 66.2 370.418 66.1 369.911 65.9C369.405 65.7 368.998 65.4 368.691 65C368.398 64.5867 368.251 64.08 368.251 63.48C368.251 62.7333 368.498 62.12 368.991 61.64C369.498 61.1467 370.198 60.8133 371.091 60.64L375.051 59.86V61.18L371.831 61.84C371.178 61.9733 370.691 62.16 370.371 62.4C370.051 62.64 369.891 62.9733 369.891 63.4C369.891 63.8133 370.051 64.1533 370.371 64.42C370.705 64.6733 371.171 64.8 371.771 64.8C372.158 64.8 372.525 64.7533 372.871 64.66C373.231 64.5533 373.551 64.4 373.831 64.2C374.111 63.9867 374.331 63.7267 374.491 63.42C374.651 63.1 374.731 62.7267 374.731 62.3V59.54ZM380.219 66V56H381.619L381.759 58.24L381.499 58.02C381.713 57.4867 381.999 57.06 382.359 56.74C382.719 56.4067 383.133 56.1667 383.599 56.02C384.079 55.8733 384.573 55.8 385.079 55.8C385.799 55.8 386.453 55.94 387.039 56.22C387.626 56.4867 388.093 56.9 388.439 57.46C388.799 58.02 388.979 58.7333 388.979 59.6V66H387.379V60.16C387.379 59.0533 387.139 58.2867 386.659 57.86C386.193 57.42 385.613 57.2 384.919 57.2C384.439 57.2 383.959 57.3133 383.479 57.54C382.999 57.7667 382.599 58.1333 382.279 58.64C381.973 59.1467 381.819 59.8267 381.819 60.68V66H380.219ZM398.968 56H400.648L396.488 66H394.888L390.728 56H392.548L395.708 64.38L398.968 56ZM406.919 66.2C405.972 66.2 405.126 65.9933 404.379 65.58C403.646 65.1667 403.072 64.5733 402.659 63.8C402.246 63.0133 402.039 62.08 402.039 61C402.039 59.92 402.246 58.9933 402.659 58.22C403.072 57.4333 403.639 56.8333 404.359 56.42C405.079 56.0067 405.899 55.8 406.819 55.8C407.752 55.8 408.546 56 409.199 56.4C409.866 56.8 410.372 57.3467 410.719 58.04C411.066 58.72 411.239 59.4867 411.239 60.34C411.239 60.5667 411.232 60.7733 411.219 60.96C411.206 61.1467 411.186 61.3133 411.159 61.46H403.079V60.04H410.459L409.639 60.2C409.639 59.24 409.372 58.5 408.839 57.98C408.319 57.46 407.632 57.2 406.779 57.2C406.126 57.2 405.559 57.3533 405.079 57.66C404.612 57.9533 404.246 58.3867 403.979 58.96C403.726 59.52 403.599 60.2 403.599 61C403.599 61.7867 403.732 62.4667 403.999 63.04C404.266 63.6133 404.639 64.0533 405.119 64.36C405.612 64.6533 406.199 64.8 406.879 64.8C407.612 64.8 408.206 64.66 408.659 64.38C409.126 64.1 409.499 63.72 409.779 63.24L411.039 63.98C410.786 64.4333 410.459 64.8267 410.059 65.16C409.672 65.4933 409.212 65.7533 408.679 65.94C408.159 66.1133 407.572 66.2 406.919 66.2ZM414.282 66V56H415.582L415.802 57.64C416.082 57.0267 416.489 56.5667 417.022 56.26C417.569 55.9533 418.229 55.8 419.002 55.8C419.175 55.8 419.362 55.8133 419.562 55.84C419.775 55.8667 419.955 55.92 420.102 56L419.822 57.46C419.675 57.4067 419.515 57.3667 419.342 57.34C419.169 57.3133 418.922 57.3 418.602 57.3C418.189 57.3 417.769 57.42 417.342 57.66C416.929 57.9 416.582 58.2667 416.302 58.76C416.022 59.24 415.882 59.8533 415.882 60.6V66H414.282ZM425.616 66.2C424.643 66.2 423.743 65.9933 422.916 65.58C422.103 65.1667 421.476 64.58 421.036 63.82L422.396 62.84C422.69 63.4533 423.116 63.9333 423.676 64.28C424.25 64.6267 424.936 64.8 425.736 64.8C426.443 64.8 426.996 64.6667 427.396 64.4C427.796 64.12 427.996 63.76 427.996 63.32C427.996 63.04 427.903 62.7867 427.716 62.56C427.543 62.32 427.203 62.1467 426.696 62.04L424.296 61.54C423.323 61.34 422.623 61.0067 422.196 60.54C421.783 60.0733 421.576 59.4933 421.576 58.8C421.576 58.2533 421.73 57.7533 422.036 57.3C422.356 56.8467 422.803 56.4867 423.376 56.22C423.963 55.94 424.65 55.8 425.436 55.8C426.423 55.8 427.256 55.9933 427.936 56.38C428.616 56.7667 429.123 57.3133 429.456 58.02L428.116 58.9C427.89 58.3133 427.523 57.8867 427.016 57.62C426.51 57.34 425.983 57.2 425.436 57.2C424.956 57.2 424.543 57.2667 424.196 57.4C423.863 57.5333 423.603 57.72 423.416 57.96C423.243 58.1867 423.156 58.4467 423.156 58.74C423.156 59.0333 423.256 59.3067 423.456 59.56C423.656 59.8 424.03 59.9733 424.576 60.08L427.076 60.6C428.01 60.7867 428.663 61.0933 429.036 61.52C429.41 61.9467 429.596 62.4667 429.596 63.08C429.596 63.7067 429.43 64.26 429.096 64.74C428.763 65.2067 428.296 65.5667 427.696 65.82C427.096 66.0733 426.403 66.2 425.616 66.2ZM433.363 63.6C433.75 63.6 434.063 63.72 434.303 63.96C434.543 64.2 434.663 64.5133 434.663 64.9C434.663 65.2867 434.543 65.6 434.303 65.84C434.063 66.08 433.75 66.2 433.363 66.2C432.976 66.2 432.663 66.08 432.423 65.84C432.183 65.6 432.063 65.2867 432.063 64.9C432.063 64.5133 432.183 64.2 432.423 63.96C432.663 63.72 432.976 63.6 433.363 63.6Z" fill="white"/>
</svg>
