<svg width="586" height="69" viewBox="0 0 586 69" fill="none" xmlns="http://www.w3.org/2000/svg">
<path d="M8 0.799999C9.18667 0.799999 10.1933 0.98 11.02 1.34C11.8467 1.7 12.4733 2.22667 12.9 2.92C13.3267 3.61333 13.54 4.46 13.54 5.46C13.54 6.46 13.3267 7.30667 12.9 8C12.4733 8.69333 11.8467 9.22 11.02 9.58C10.1933 9.94 9.18667 10.12 8 10.12H5.66V14H1V0.799999H8ZM7.24 6.82C7.74667 6.82 8.14667 6.71333 8.44 6.5C8.73333 6.27333 8.88 5.92667 8.88 5.46C8.88 4.99333 8.73333 4.65333 8.44 4.44C8.14667 4.21333 7.74667 4.1 7.24 4.1H5.66V6.82H7.24ZM26.4995 14H21.7395L21.1395 11.48H17.5795L16.9595 14H12.3195L16.5995 0.799999H22.1995L26.4995 14ZM18.2795 8.58H20.4595L19.3795 4L18.2795 8.58ZM33.0886 0.6C34.3553 0.6 35.4886 0.76 36.4886 1.08C37.5019 1.38667 38.3953 1.85333 39.1686 2.48L37.2886 5.48C36.6619 5.04 36.0019 4.68667 35.3086 4.42C34.6286 4.15333 33.8886 4.02 33.0886 4.02C32.7419 4.02 32.4619 4.04667 32.2486 4.1C32.0486 4.15333 31.9019 4.22667 31.8086 4.32C31.7286 4.41333 31.6886 4.52 31.6886 4.64C31.6886 4.8 31.8086 4.92 32.0486 5C32.3019 5.08 32.6153 5.16667 32.9886 5.26L34.8086 5.68C36.1553 5.98667 37.1686 6.44 37.8486 7.04C38.5419 7.64 38.8886 8.47333 38.8886 9.54C38.8886 10.6067 38.6286 11.4867 38.1086 12.18C37.5886 12.86 36.8819 13.3667 35.9886 13.7C35.1086 14.0333 34.1086 14.2 32.9886 14.2C32.1486 14.2 31.3086 14.1267 30.4686 13.98C29.6286 13.82 28.8486 13.5933 28.1286 13.3C27.4086 12.9933 26.7886 12.6267 26.2686 12.2L28.1086 9.14C28.4953 9.44667 28.9619 9.72667 29.5086 9.98C30.0553 10.22 30.6219 10.4133 31.2086 10.56C31.7953 10.7067 32.3419 10.78 32.8486 10.78C33.1686 10.78 33.4219 10.7533 33.6086 10.7C33.7953 10.6467 33.9219 10.58 33.9886 10.5C34.0686 10.4067 34.1086 10.3 34.1086 10.18C34.1086 9.99333 34.0286 9.85333 33.8686 9.76C33.7219 9.66667 33.4486 9.57333 33.0486 9.48L31.0486 9.04C30.3419 8.88 29.6686 8.66667 29.0286 8.4C28.3886 8.13333 27.8686 7.74667 27.4686 7.24C27.0686 6.72 26.8686 6.02 26.8686 5.14C26.8686 4.23333 27.1086 3.44 27.5886 2.76C28.0819 2.08 28.7886 1.55333 29.7086 1.18C30.6419 0.793333 31.7686 0.6 33.0886 0.6ZM46.0573 0.6C47.324 0.6 48.4573 0.76 49.4573 1.08C50.4707 1.38667 51.364 1.85333 52.1373 2.48L50.2573 5.48C49.6307 5.04 48.9707 4.68667 48.2773 4.42C47.5973 4.15333 46.8573 4.02 46.0573 4.02C45.7107 4.02 45.4307 4.04667 45.2173 4.1C45.0173 4.15333 44.8707 4.22667 44.7773 4.32C44.6973 4.41333 44.6573 4.52 44.6573 4.64C44.6573 4.8 44.7773 4.92 45.0173 5C45.2707 5.08 45.584 5.16667 45.9573 5.26L47.7773 5.68C49.124 5.98667 50.1373 6.44 50.8173 7.04C51.5107 7.64 51.8573 8.47333 51.8573 9.54C51.8573 10.6067 51.5973 11.4867 51.0773 12.18C50.5573 12.86 49.8507 13.3667 48.9573 13.7C48.0773 14.0333 47.0773 14.2 45.9573 14.2C45.1173 14.2 44.2773 14.1267 43.4373 13.98C42.5973 13.82 41.8173 13.5933 41.0973 13.3C40.3773 12.9933 39.7573 12.6267 39.2373 12.2L41.0773 9.14C41.464 9.44667 41.9307 9.72667 42.4773 9.98C43.024 10.22 43.5907 10.4133 44.1773 10.56C44.764 10.7067 45.3107 10.78 45.8173 10.78C46.1373 10.78 46.3907 10.7533 46.5773 10.7C46.764 10.6467 46.8907 10.58 46.9573 10.5C47.0373 10.4067 47.0773 10.3 47.0773 10.18C47.0773 9.99333 46.9973 9.85333 46.8373 9.76C46.6907 9.66667 46.4173 9.57333 46.0173 9.48L44.0173 9.04C43.3107 8.88 42.6373 8.66667 41.9973 8.4C41.3573 8.13333 40.8373 7.74667 40.4373 7.24C40.0373 6.72 39.8373 6.02 39.8373 5.14C39.8373 4.23333 40.0773 3.44 40.5573 2.76C41.0507 2.08 41.7573 1.55333 42.6773 1.18C43.6107 0.793333 44.7373 0.6 46.0573 0.6ZM53.2461 14V0.799999H64.2061V4.22H57.9061V5.86H62.9861V9.02H57.9061V10.58H64.4461V14H53.2461ZM78.6856 0.799999V14H73.6456L70.4856 8L69.7656 6.38H69.7256L69.8056 9.1V14H65.7656V0.799999H70.8056L73.9656 6.82L74.6856 8.42H74.7256L74.6456 5.7V0.799999H78.6856ZM86.2475 14.2C85.1142 14.2 84.0942 13.9533 83.1875 13.46C82.2808 12.9533 81.5675 12.2 81.0475 11.2C80.5275 10.1867 80.2675 8.93333 80.2675 7.44C80.2675 6 80.5342 4.77333 81.0675 3.76C81.6142 2.73333 82.4008 1.95333 83.4275 1.42C84.4542 0.873333 85.6808 0.6 87.1075 0.6C88.7342 0.6 90.0342 0.886666 91.0075 1.46C91.9942 2.03333 92.7475 2.95333 93.2675 4.22L88.9275 5.78C88.8342 5.15333 88.6275 4.72 88.3075 4.48C88.0008 4.22667 87.6142 4.1 87.1475 4.1C86.6408 4.1 86.2275 4.22 85.9075 4.46C85.6008 4.7 85.3742 5.06667 85.2275 5.56C85.0942 6.04 85.0275 6.65333 85.0275 7.4C85.0275 8.22667 85.1142 8.89333 85.2875 9.4C85.4742 9.90667 85.7475 10.2733 86.1075 10.5C86.4808 10.7133 86.9475 10.82 87.5075 10.82C87.7742 10.82 88.0142 10.7933 88.2275 10.74C88.4542 10.6867 88.6475 10.6067 88.8075 10.5C88.9808 10.38 89.1075 10.2333 89.1875 10.06C89.2808 9.88667 89.3275 9.68 89.3275 9.44V9.42H87.1075V6.56H93.2275V14H90.1475L89.7675 10.46L90.4875 11.24C90.2608 12.1867 89.7875 12.92 89.0675 13.44C88.3608 13.9467 87.4208 14.2 86.2475 14.2ZM95.1211 14V0.799999H106.081V4.22H99.7811V5.86H104.861V9.02H99.7811V10.58H106.321V14H95.1211ZM114.801 0.799999C116.521 0.799999 117.841 1.18667 118.761 1.96C119.681 2.72 120.141 3.73333 120.141 5C120.141 6.45333 119.687 7.54667 118.781 8.28C117.887 9.01333 116.581 9.38 114.861 9.38L114.401 9.62H112.201V14H107.641V0.799999H114.801ZM114.001 6.56C114.494 6.56 114.861 6.47333 115.101 6.3C115.354 6.11333 115.481 5.79333 115.481 5.34C115.481 4.9 115.354 4.58667 115.101 4.4C114.861 4.21333 114.494 4.12 114.001 4.12H112.201V6.56H114.001ZM116.761 7.54L120.881 14H115.821L112.741 8.22L116.761 7.54ZM127.522 0.6C128.789 0.6 129.922 0.76 130.922 1.08C131.936 1.38667 132.829 1.85333 133.602 2.48L131.722 5.48C131.096 5.04 130.436 4.68667 129.742 4.42C129.062 4.15333 128.322 4.02 127.522 4.02C127.176 4.02 126.896 4.04667 126.682 4.1C126.482 4.15333 126.336 4.22667 126.242 4.32C126.162 4.41333 126.122 4.52 126.122 4.64C126.122 4.8 126.242 4.92 126.482 5C126.736 5.08 127.049 5.16667 127.422 5.26L129.242 5.68C130.589 5.98667 131.602 6.44 132.282 7.04C132.976 7.64 133.322 8.47333 133.322 9.54C133.322 10.6067 133.062 11.4867 132.542 12.18C132.022 12.86 131.316 13.3667 130.422 13.7C129.542 14.0333 128.542 14.2 127.422 14.2C126.582 14.2 125.742 14.1267 124.902 13.98C124.062 13.82 123.282 13.5933 122.562 13.3C121.842 12.9933 121.222 12.6267 120.702 12.2L122.542 9.14C122.929 9.44667 123.396 9.72667 123.942 9.98C124.489 10.22 125.056 10.4133 125.642 10.56C126.229 10.7067 126.776 10.78 127.282 10.78C127.602 10.78 127.856 10.7533 128.042 10.7C128.229 10.6467 128.356 10.58 128.422 10.5C128.502 10.4067 128.542 10.3 128.542 10.18C128.542 9.99333 128.462 9.85333 128.302 9.76C128.156 9.66667 127.882 9.57333 127.482 9.48L125.482 9.04C124.776 8.88 124.102 8.66667 123.462 8.4C122.822 8.13333 122.302 7.74667 121.902 7.24C121.502 6.72 121.302 6.02 121.302 5.14C121.302 4.23333 121.542 3.44 122.022 2.76C122.516 2.08 123.222 1.55333 124.142 1.18C125.076 0.793333 126.202 0.6 127.522 0.6ZM136.632 9.88C137.245 9.88 137.739 10.0133 138.112 10.28C138.499 10.5467 138.779 10.8933 138.952 11.32C139.139 11.7333 139.232 12.18 139.232 12.66C139.232 13.38 139.065 14.0533 138.732 14.68C138.412 15.32 138.005 15.8667 137.512 16.32C137.019 16.7867 136.532 17.12 136.052 17.32L134.312 16.14C134.685 15.9667 135.039 15.7667 135.372 15.54C135.719 15.3133 136.032 15.0667 136.312 14.8C136.592 14.5333 136.812 14.26 136.972 13.98L136.872 13.9C136.779 13.9533 136.672 13.9933 136.552 14.02C136.432 14.06 136.279 14.08 136.092 14.08C135.799 14.08 135.505 14.0133 135.212 13.88C134.919 13.7333 134.672 13.52 134.472 13.24C134.272 12.96 134.172 12.6067 134.172 12.18C134.172 11.6333 134.285 11.1933 134.512 10.86C134.752 10.5267 135.059 10.28 135.432 10.12C135.819 9.96 136.219 9.88 136.632 9.88ZM145.805 14V11.2C146.805 10.6667 147.672 10.1333 148.405 9.6C149.152 9.06667 149.765 8.54667 150.245 8.04C150.738 7.52 151.105 7.03333 151.345 6.58C151.585 6.11333 151.705 5.68667 151.705 5.3C151.705 4.98 151.625 4.7 151.465 4.46C151.305 4.22 151.025 4.1 150.625 4.1C150.172 4.1 149.838 4.28667 149.625 4.66C149.412 5.03333 149.318 5.62667 149.345 6.44L145.365 5.48C145.338 4.36 145.572 3.44 146.065 2.72C146.558 2 147.232 1.46667 148.085 1.12C148.952 0.773333 149.905 0.6 150.945 0.6C151.945 0.6 152.785 0.739999 153.465 1.02C154.158 1.28667 154.712 1.64 155.125 2.08C155.538 2.50667 155.832 2.97333 156.005 3.48C156.192 3.97333 156.285 4.44667 156.285 4.9C156.285 5.78 156.052 6.57333 155.585 7.28C155.132 7.98667 154.518 8.62 153.745 9.18C152.972 9.74 152.112 10.2467 151.165 10.7V10.74C151.445 10.7133 151.752 10.6933 152.085 10.68C152.432 10.6533 152.792 10.64 153.165 10.64C153.552 10.6267 153.932 10.62 154.305 10.62H156.365V14H145.805ZM163.475 14.2C161.475 14.2 159.995 13.6333 159.035 12.5C158.088 11.3667 157.615 9.66667 157.615 7.4C157.615 5.13333 158.088 3.43333 159.035 2.3C159.995 1.16667 161.475 0.6 163.475 0.6C165.475 0.6 166.948 1.16667 167.895 2.3C168.855 3.43333 169.335 5.13333 169.335 7.4C169.335 9.66667 168.855 11.3667 167.895 12.5C166.948 13.6333 165.475 14.2 163.475 14.2ZM163.475 10.7C163.821 10.7 164.088 10.6067 164.275 10.42C164.461 10.2333 164.588 9.9 164.655 9.42C164.735 8.94 164.775 8.26667 164.775 7.4C164.775 6.53333 164.735 5.86 164.655 5.38C164.588 4.9 164.461 4.56667 164.275 4.38C164.088 4.19333 163.821 4.1 163.475 4.1C163.141 4.1 162.875 4.19333 162.675 4.38C162.488 4.56667 162.355 4.9 162.275 5.38C162.208 5.86 162.175 6.53333 162.175 7.4C162.175 8.26667 162.208 8.94 162.275 9.42C162.355 9.9 162.488 10.2333 162.675 10.42C162.875 10.6067 163.141 10.7 163.475 10.7ZM173.659 14V7.8C173.659 7.36 173.659 6.92 173.659 6.48C173.659 6.04 173.659 5.6 173.659 5.16C173.232 5.53333 172.772 5.86 172.279 6.14C171.785 6.40667 171.265 6.58 170.719 6.66L170.459 2.92C170.872 2.88 171.285 2.79333 171.699 2.66C172.112 2.51333 172.499 2.34 172.859 2.14C173.232 1.94 173.559 1.72667 173.839 1.5C174.132 1.27333 174.352 1.04 174.499 0.799999H178.119V14H173.659ZM186.318 0.6C187.038 0.6 187.725 0.693333 188.378 0.88C189.032 1.06667 189.605 1.38 190.098 1.82C190.605 2.26 190.965 2.86 191.178 3.62L187.478 5.36C187.385 4.97333 187.218 4.67333 186.978 4.46C186.738 4.24667 186.425 4.14 186.038 4.14C185.785 4.14 185.545 4.19333 185.318 4.3C185.092 4.40667 184.892 4.56667 184.718 4.78C184.558 4.99333 184.432 5.27333 184.338 5.62C184.245 5.96667 184.198 6.38 184.198 6.86C184.198 6.91333 184.198 6.96 184.198 7C184.198 7.04 184.198 7.09333 184.198 7.16L184.218 7.36C184.378 7.06667 184.612 6.81333 184.918 6.6C185.238 6.37333 185.598 6.2 185.998 6.08C186.398 5.94667 186.798 5.88 187.198 5.88C187.972 5.88 188.665 6.03333 189.278 6.34C189.892 6.63333 190.378 7.06667 190.738 7.64C191.112 8.2 191.298 8.88667 191.298 9.7C191.298 10.62 191.078 11.42 190.638 12.1C190.212 12.7667 189.605 13.2867 188.818 13.66C188.045 14.02 187.132 14.2 186.078 14.2C184.918 14.2 183.878 13.98 182.958 13.54C182.038 13.0867 181.305 12.38 180.758 11.42C180.225 10.4467 179.958 9.17333 179.958 7.6C179.958 5.97333 180.238 4.64667 180.798 3.62C181.372 2.59333 182.138 1.83333 183.098 1.34C184.058 0.846666 185.132 0.6 186.318 0.6ZM185.998 8.7C185.785 8.7 185.585 8.74667 185.398 8.84C185.212 8.92 185.058 9.04667 184.938 9.22C184.818 9.38 184.758 9.58 184.758 9.82C184.758 10.06 184.818 10.2667 184.938 10.44C185.058 10.6 185.212 10.7267 185.398 10.82C185.585 10.9 185.785 10.94 185.998 10.94C186.385 10.94 186.678 10.8467 186.878 10.66C187.092 10.46 187.198 10.18 187.198 9.82C187.198 9.58 187.152 9.38 187.058 9.22C186.965 9.04667 186.832 8.92 186.658 8.84C186.485 8.74667 186.265 8.7 185.998 8.7ZM11.44 26.8V28.3H6.84V40H5.24V28.3H0.64V26.8H11.44ZM13.5397 40V25.4H15.1397V31.5C15.4864 30.9 15.9464 30.4667 16.5197 30.2C17.093 29.9333 17.7197 29.8 18.3997 29.8C19.1197 29.8 19.773 29.94 20.3597 30.22C20.9464 30.4867 21.413 30.9 21.7597 31.46C22.1197 32.02 22.2997 32.7333 22.2997 33.6V40H20.6997V34.16C20.6997 33.0533 20.4597 32.2867 19.9797 31.86C19.513 31.42 18.933 31.2 18.2397 31.2C17.7597 31.2 17.2797 31.3133 16.7997 31.54C16.3197 31.7667 15.9197 32.14 15.5997 32.66C15.293 33.1667 15.1397 33.8467 15.1397 34.7V40H13.5397ZM30.1025 40.2C29.1558 40.2 28.3092 39.9933 27.5625 39.58C26.8292 39.1667 26.2558 38.5733 25.8425 37.8C25.4292 37.0133 25.2225 36.08 25.2225 35C25.2225 33.92 25.4292 32.9933 25.8425 32.22C26.2558 31.4333 26.8225 30.8333 27.5425 30.42C28.2625 30.0067 29.0825 29.8 30.0025 29.8C30.9358 29.8 31.7292 30 32.3825 30.4C33.0492 30.8 33.5558 31.3467 33.9025 32.04C34.2492 32.72 34.4225 33.4867 34.4225 34.34C34.4225 34.5667 34.4158 34.7733 34.4025 34.96C34.3892 35.1467 34.3692 35.3133 34.3425 35.46H26.2625V34.04H33.6425L32.8225 34.2C32.8225 33.24 32.5558 32.5 32.0225 31.98C31.5025 31.46 30.8158 31.2 29.9625 31.2C29.3092 31.2 28.7425 31.3533 28.2625 31.66C27.7958 31.9533 27.4292 32.3867 27.1625 32.96C26.9092 33.52 26.7825 34.2 26.7825 35C26.7825 35.7867 26.9158 36.4667 27.1825 37.04C27.4492 37.6133 27.8225 38.0533 28.3025 38.36C28.7958 38.6533 29.3825 38.8 30.0625 38.8C30.7958 38.8 31.3892 38.66 31.8425 38.38C32.3092 38.1 32.6825 37.72 32.9625 37.24L34.2225 37.98C33.9692 38.4333 33.6425 38.8267 33.2425 39.16C32.8558 39.4933 32.3958 39.7533 31.8625 39.94C31.3425 40.1133 30.7558 40.2 30.1025 40.2ZM45.8019 25.4V37.46C45.8019 37.9667 45.8952 38.32 46.0819 38.52C46.2685 38.7067 46.5685 38.8 46.9819 38.8C47.2485 38.8 47.4685 38.78 47.6419 38.74C47.8152 38.7 48.0485 38.6267 48.3419 38.52L48.0819 39.92C47.8685 40.0133 47.6352 40.08 47.3819 40.12C47.1285 40.1733 46.8685 40.2 46.6019 40.2C45.7885 40.2 45.1819 39.98 44.7819 39.54C44.3952 39.1 44.2019 38.4267 44.2019 37.52V25.4H45.8019ZM51.1952 28.08C50.8352 28.08 50.5418 27.9733 50.3152 27.76C50.1018 27.5333 49.9952 27.24 49.9952 26.88C49.9952 26.52 50.1018 26.2333 50.3152 26.02C50.5418 25.7933 50.8352 25.68 51.1952 25.68C51.5552 25.68 51.8418 25.7933 52.0552 26.02C52.2818 26.2333 52.3952 26.52 52.3952 26.88C52.3952 27.24 52.2818 27.5333 52.0552 27.76C51.8418 27.9733 51.5552 28.08 51.1952 28.08ZM51.9952 30V40H50.3952V30H51.9952ZM55.7077 40V30H57.1077L57.2477 32.24L56.9877 32.02C57.201 31.4867 57.4877 31.06 57.8477 30.74C58.2077 30.4067 58.621 30.1667 59.0877 30.02C59.5677 29.8733 60.061 29.8 60.5677 29.8C61.2877 29.8 61.941 29.94 62.5277 30.22C63.1143 30.4867 63.581 30.9 63.9277 31.46C64.2877 32.02 64.4677 32.7333 64.4677 33.6V40H62.8677V34.16C62.8677 33.0533 62.6277 32.2867 62.1477 31.86C61.681 31.42 61.101 31.2 60.4077 31.2C59.9277 31.2 59.4477 31.3133 58.9677 31.54C58.4877 31.7667 58.0877 32.1333 57.7677 32.64C57.461 33.1467 57.3077 33.8267 57.3077 34.68V40H55.7077ZM72.2705 40.2C71.3238 40.2 70.4771 39.9933 69.7305 39.58C68.9971 39.1667 68.4238 38.5733 68.0105 37.8C67.5971 37.0133 67.3905 36.08 67.3905 35C67.3905 33.92 67.5971 32.9933 68.0105 32.22C68.4238 31.4333 68.9905 30.8333 69.7105 30.42C70.4305 30.0067 71.2505 29.8 72.1705 29.8C73.1038 29.8 73.8971 30 74.5505 30.4C75.2171 30.8 75.7238 31.3467 76.0705 32.04C76.4171 32.72 76.5905 33.4867 76.5905 34.34C76.5905 34.5667 76.5838 34.7733 76.5705 34.96C76.5571 35.1467 76.5371 35.3133 76.5105 35.46H68.4305V34.04H75.8105L74.9905 34.2C74.9905 33.24 74.7238 32.5 74.1905 31.98C73.6705 31.46 72.9838 31.2 72.1305 31.2C71.4771 31.2 70.9105 31.3533 70.4305 31.66C69.9638 31.9533 69.5971 32.3867 69.3305 32.96C69.0771 33.52 68.9505 34.2 68.9505 35C68.9505 35.7867 69.0838 36.4667 69.3505 37.04C69.6171 37.6133 69.9905 38.0533 70.4705 38.36C70.9638 38.6533 71.5505 38.8 72.2305 38.8C72.9638 38.8 73.5571 38.66 74.0105 38.38C74.4771 38.1 74.8505 37.72 75.1305 37.24L76.3905 37.98C76.1371 38.4333 75.8105 38.8267 75.4105 39.16C75.0238 39.4933 74.5638 39.7533 74.0305 39.94C73.5105 40.1133 72.9238 40.2 72.2705 40.2ZM83.2334 40.2C82.2601 40.2 81.3601 39.9933 80.5334 39.58C79.7201 39.1667 79.0934 38.58 78.6534 37.82L80.0134 36.84C80.3068 37.4533 80.7334 37.9333 81.2934 38.28C81.8668 38.6267 82.5534 38.8 83.3534 38.8C84.0601 38.8 84.6134 38.6667 85.0134 38.4C85.4134 38.12 85.6134 37.76 85.6134 37.32C85.6134 37.04 85.5201 36.7867 85.3334 36.56C85.1601 36.32 84.8201 36.1467 84.3134 36.04L81.9134 35.54C80.9401 35.34 80.2401 35.0067 79.8134 34.54C79.4001 34.0733 79.1934 33.4933 79.1934 32.8C79.1934 32.2533 79.3468 31.7533 79.6534 31.3C79.9734 30.8467 80.4201 30.4867 80.9934 30.22C81.5801 29.94 82.2668 29.8 83.0534 29.8C84.0401 29.8 84.8734 29.9933 85.5534 30.38C86.2334 30.7667 86.7401 31.3133 87.0734 32.02L85.7334 32.9C85.5068 32.3133 85.1401 31.8867 84.6334 31.62C84.1268 31.34 83.6001 31.2 83.0534 31.2C82.5734 31.2 82.1601 31.2667 81.8134 31.4C81.4801 31.5333 81.2201 31.72 81.0334 31.96C80.8601 32.1867 80.7734 32.4467 80.7734 32.74C80.7734 33.0333 80.8734 33.3067 81.0734 33.56C81.2734 33.8 81.6468 33.9733 82.1934 34.08L84.6934 34.6C85.6268 34.7867 86.2801 35.0933 86.6534 35.52C87.0268 35.9467 87.2134 36.4667 87.2134 37.08C87.2134 37.7067 87.0468 38.26 86.7134 38.74C86.3801 39.2067 85.9134 39.5667 85.3134 39.82C84.7134 40.0733 84.0201 40.2 83.2334 40.2ZM102.837 33.54C102.837 32.7933 102.637 32.22 102.237 31.82C101.837 31.4067 101.27 31.2 100.537 31.2C99.8434 31.2 99.2567 31.3533 98.7767 31.66C98.2967 31.9533 97.9434 32.4333 97.7167 33.1L96.4167 32.3C96.6834 31.5533 97.1767 30.9533 97.8967 30.5C98.6167 30.0333 99.5101 29.8 100.577 29.8C101.297 29.8 101.95 29.9267 102.537 30.18C103.123 30.42 103.583 30.7933 103.917 31.3C104.263 31.7933 104.437 32.4333 104.437 33.22V38.06C104.437 38.54 104.69 38.78 105.197 38.78C105.45 38.78 105.697 38.7467 105.937 38.68L105.857 39.94C105.59 40.0733 105.243 40.14 104.817 40.14C104.43 40.14 104.083 40.0667 103.777 39.92C103.47 39.7733 103.23 39.5533 103.057 39.26C102.883 38.9533 102.797 38.5733 102.797 38.12V37.92L103.197 37.98C103.037 38.5 102.763 38.9267 102.377 39.26C101.99 39.58 101.557 39.82 101.077 39.98C100.597 40.1267 100.123 40.2 99.6567 40.2C99.0701 40.2 98.5234 40.1 98.0167 39.9C97.5101 39.7 97.1034 39.4 96.7967 39C96.5034 38.5867 96.3567 38.08 96.3567 37.48C96.3567 36.7333 96.6034 36.12 97.0967 35.64C97.6034 35.1467 98.3034 34.8133 99.1967 34.64L103.157 33.86V35.18L99.9367 35.84C99.2834 35.9733 98.7967 36.16 98.4767 36.4C98.1567 36.64 97.9967 36.9733 97.9967 37.4C97.9967 37.8133 98.1567 38.1533 98.4767 38.42C98.8101 38.6733 99.2767 38.8 99.8767 38.8C100.263 38.8 100.63 38.7533 100.977 38.66C101.337 38.5533 101.657 38.4 101.937 38.2C102.217 37.9867 102.437 37.7267 102.597 37.42C102.757 37.1 102.837 36.7267 102.837 36.3V33.54ZM108.325 40V30H109.725L109.865 32.24L109.605 32.02C109.818 31.4867 110.105 31.06 110.465 30.74C110.825 30.4067 111.238 30.1667 111.705 30.02C112.185 29.8733 112.678 29.8 113.185 29.8C113.905 29.8 114.558 29.94 115.145 30.22C115.732 30.4867 116.198 30.9 116.545 31.46C116.905 32.02 117.085 32.7333 117.085 33.6V40H115.485V34.16C115.485 33.0533 115.245 32.2867 114.765 31.86C114.298 31.42 113.718 31.2 113.025 31.2C112.545 31.2 112.065 31.3133 111.585 31.54C111.105 31.7667 110.705 32.1333 110.385 32.64C110.078 33.1467 109.925 33.8267 109.925 34.68V40H108.325ZM124.608 40.2C123.781 40.2 123.021 39.9933 122.328 39.58C121.634 39.1667 121.081 38.5733 120.668 37.8C120.254 37.0133 120.048 36.08 120.048 35C120.048 33.8933 120.268 32.9533 120.708 32.18C121.148 31.4067 121.728 30.82 122.448 30.42C123.168 30.0067 123.941 29.8 124.768 29.8C125.594 29.8 126.308 30.0133 126.908 30.44C127.521 30.8667 127.928 31.4333 128.128 32.14L127.928 32.28V25.4H129.528V40H128.128L127.988 37.58L128.208 37.46C128.114 38.0467 127.888 38.5467 127.528 38.96C127.181 39.36 126.748 39.6667 126.228 39.88C125.721 40.0933 125.181 40.2 124.608 40.2ZM124.768 38.8C125.408 38.8 125.961 38.64 126.428 38.32C126.908 38 127.274 37.5467 127.528 36.96C127.794 36.36 127.928 35.66 127.928 34.86C127.928 34.1 127.794 33.4467 127.528 32.9C127.274 32.3533 126.914 31.9333 126.448 31.64C125.994 31.3467 125.461 31.2 124.848 31.2C123.834 31.2 123.048 31.5467 122.488 32.24C121.928 32.9333 121.648 33.8533 121.648 35C121.648 36.1467 121.921 37.0667 122.468 37.76C123.014 38.4533 123.781 38.8 124.768 38.8ZM144.203 29.8C144.896 29.8 145.503 29.9067 146.023 30.12C146.556 30.3333 147.016 30.64 147.403 31.04C147.79 31.44 148.103 31.9133 148.343 32.46L146.823 33.18C146.61 32.54 146.283 32.0533 145.843 31.72C145.416 31.3733 144.856 31.2 144.163 31.2C143.496 31.2 142.923 31.3533 142.443 31.66C141.963 31.9533 141.596 32.3867 141.343 32.96C141.09 33.52 140.963 34.2 140.963 35C140.963 35.7867 141.09 36.4667 141.343 37.04C141.596 37.6133 141.963 38.0533 142.443 38.36C142.923 38.6533 143.496 38.8 144.163 38.8C144.683 38.8 145.13 38.72 145.503 38.56C145.89 38.4 146.203 38.1667 146.443 37.86C146.696 37.5533 146.87 37.18 146.963 36.74L148.443 37.26C148.216 37.8733 147.903 38.4 147.503 38.84C147.116 39.28 146.643 39.62 146.083 39.86C145.536 40.0867 144.91 40.2 144.203 40.2C143.27 40.2 142.436 39.9933 141.703 39.58C140.97 39.1667 140.396 38.5733 139.983 37.8C139.57 37.0133 139.363 36.08 139.363 35C139.363 33.92 139.57 32.9933 139.983 32.22C140.396 31.4333 140.97 30.8333 141.703 30.42C142.436 30.0067 143.27 29.8 144.203 29.8ZM152.055 28.08C151.695 28.08 151.401 27.9733 151.175 27.76C150.961 27.5333 150.855 27.24 150.855 26.88C150.855 26.52 150.961 26.2333 151.175 26.02C151.401 25.7933 151.695 25.68 152.055 25.68C152.415 25.68 152.701 25.7933 152.915 26.02C153.141 26.2333 153.255 26.52 153.255 26.88C153.255 27.24 153.141 27.5333 152.915 27.76C152.701 27.9733 152.415 28.08 152.055 28.08ZM152.855 30V40H151.255V30H152.855ZM156.567 40V30H157.867L158.087 31.64C158.367 31.0267 158.774 30.5667 159.307 30.26C159.854 29.9533 160.514 29.8 161.287 29.8C161.46 29.8 161.647 29.8133 161.847 29.84C162.06 29.8667 162.24 29.92 162.387 30L162.107 31.46C161.96 31.4067 161.8 31.3667 161.627 31.34C161.454 31.3133 161.207 31.3 160.887 31.3C160.474 31.3 160.054 31.42 159.627 31.66C159.214 31.9 158.867 32.2667 158.587 32.76C158.307 33.24 158.167 33.8533 158.167 34.6V40H156.567ZM168.559 29.8C169.252 29.8 169.859 29.9067 170.379 30.12C170.912 30.3333 171.372 30.64 171.759 31.04C172.145 31.44 172.459 31.9133 172.699 32.46L171.179 33.18C170.965 32.54 170.639 32.0533 170.199 31.72C169.772 31.3733 169.212 31.2 168.519 31.2C167.852 31.2 167.279 31.3533 166.799 31.66C166.319 31.9533 165.952 32.3867 165.699 32.96C165.445 33.52 165.319 34.2 165.319 35C165.319 35.7867 165.445 36.4667 165.699 37.04C165.952 37.6133 166.319 38.0533 166.799 38.36C167.279 38.6533 167.852 38.8 168.519 38.8C169.039 38.8 169.485 38.72 169.859 38.56C170.245 38.4 170.559 38.1667 170.799 37.86C171.052 37.5533 171.225 37.18 171.319 36.74L172.799 37.26C172.572 37.8733 172.259 38.4 171.859 38.84C171.472 39.28 170.999 39.62 170.439 39.86C169.892 40.0867 169.265 40.2 168.559 40.2C167.625 40.2 166.792 39.9933 166.059 39.58C165.325 39.1667 164.752 38.5733 164.339 37.8C163.925 37.0133 163.719 36.08 163.719 35C163.719 33.92 163.925 32.9933 164.339 32.22C164.752 31.4333 165.325 30.8333 166.059 30.42C166.792 30.0067 167.625 29.8 168.559 29.8ZM177.13 25.4V37.46C177.13 37.9667 177.223 38.32 177.41 38.52C177.597 38.7067 177.897 38.8 178.31 38.8C178.577 38.8 178.797 38.78 178.97 38.74C179.143 38.7 179.377 38.6267 179.67 38.52L179.41 39.92C179.197 40.0133 178.963 40.08 178.71 40.12C178.457 40.1733 178.197 40.2 177.93 40.2C177.117 40.2 176.51 39.98 176.11 39.54C175.723 39.1 175.53 38.4267 175.53 37.52V25.4H177.13ZM185.903 40.2C184.957 40.2 184.11 39.9933 183.363 39.58C182.63 39.1667 182.057 38.5733 181.643 37.8C181.23 37.0133 181.023 36.08 181.023 35C181.023 33.92 181.23 32.9933 181.643 32.22C182.057 31.4333 182.623 30.8333 183.343 30.42C184.063 30.0067 184.883 29.8 185.803 29.8C186.737 29.8 187.53 30 188.183 30.4C188.85 30.8 189.357 31.3467 189.703 32.04C190.05 32.72 190.223 33.4867 190.223 34.34C190.223 34.5667 190.217 34.7733 190.203 34.96C190.19 35.1467 190.17 35.3133 190.143 35.46H182.063V34.04H189.443L188.623 34.2C188.623 33.24 188.357 32.5 187.823 31.98C187.303 31.46 186.617 31.2 185.763 31.2C185.11 31.2 184.543 31.3533 184.063 31.66C183.597 31.9533 183.23 32.3867 182.963 32.96C182.71 33.52 182.583 34.2 182.583 35C182.583 35.7867 182.717 36.4667 182.983 37.04C183.25 37.6133 183.623 38.0533 184.103 38.36C184.597 38.6533 185.183 38.8 185.863 38.8C186.597 38.8 187.19 38.66 187.643 38.38C188.11 38.1 188.483 37.72 188.763 37.24L190.023 37.98C189.77 38.4333 189.443 38.8267 189.043 39.16C188.657 39.4933 188.197 39.7533 187.663 39.94C187.143 40.1133 186.557 40.2 185.903 40.2ZM196.866 40.2C195.893 40.2 194.993 39.9933 194.166 39.58C193.353 39.1667 192.726 38.58 192.286 37.82L193.646 36.84C193.94 37.4533 194.366 37.9333 194.926 38.28C195.5 38.6267 196.186 38.8 196.986 38.8C197.693 38.8 198.246 38.6667 198.646 38.4C199.046 38.12 199.246 37.76 199.246 37.32C199.246 37.04 199.153 36.7867 198.966 36.56C198.793 36.32 198.453 36.1467 197.946 36.04L195.546 35.54C194.573 35.34 193.873 35.0067 193.446 34.54C193.033 34.0733 192.826 33.4933 192.826 32.8C192.826 32.2533 192.98 31.7533 193.286 31.3C193.606 30.8467 194.053 30.4867 194.626 30.22C195.213 29.94 195.9 29.8 196.686 29.8C197.673 29.8 198.506 29.9933 199.186 30.38C199.866 30.7667 200.373 31.3133 200.706 32.02L199.366 32.9C199.14 32.3133 198.773 31.8867 198.266 31.62C197.76 31.34 197.233 31.2 196.686 31.2C196.206 31.2 195.793 31.2667 195.446 31.4C195.113 31.5333 194.853 31.72 194.666 31.96C194.493 32.1867 194.406 32.4467 194.406 32.74C194.406 33.0333 194.506 33.3067 194.706 33.56C194.906 33.8 195.28 33.9733 195.826 34.08L198.326 34.6C199.26 34.7867 199.913 35.0933 200.286 35.52C200.66 35.9467 200.846 36.4667 200.846 37.08C200.846 37.7067 200.68 38.26 200.346 38.74C200.013 39.2067 199.546 39.5667 198.946 39.82C198.346 40.0733 197.653 40.2 196.866 40.2ZM216.47 33.54C216.47 32.7933 216.27 32.22 215.87 31.82C215.47 31.4067 214.903 31.2 214.17 31.2C213.476 31.2 212.89 31.3533 212.41 31.66C211.93 31.9533 211.576 32.4333 211.35 33.1L210.05 32.3C210.316 31.5533 210.81 30.9533 211.53 30.5C212.25 30.0333 213.143 29.8 214.21 29.8C214.93 29.8 215.583 29.9267 216.17 30.18C216.756 30.42 217.216 30.7933 217.55 31.3C217.896 31.7933 218.07 32.4333 218.07 33.22V38.06C218.07 38.54 218.323 38.78 218.83 38.78C219.083 38.78 219.33 38.7467 219.57 38.68L219.49 39.94C219.223 40.0733 218.876 40.14 218.45 40.14C218.063 40.14 217.716 40.0667 217.41 39.92C217.103 39.7733 216.863 39.5533 216.69 39.26C216.516 38.9533 216.43 38.5733 216.43 38.12V37.92L216.83 37.98C216.67 38.5 216.396 38.9267 216.01 39.26C215.623 39.58 215.19 39.82 214.71 39.98C214.23 40.1267 213.756 40.2 213.29 40.2C212.703 40.2 212.156 40.1 211.65 39.9C211.143 39.7 210.736 39.4 210.43 39C210.136 38.5867 209.99 38.08 209.99 37.48C209.99 36.7333 210.236 36.12 210.73 35.64C211.236 35.1467 211.936 34.8133 212.83 34.64L216.79 33.86V35.18L213.57 35.84C212.916 35.9733 212.43 36.16 212.11 36.4C211.79 36.64 211.63 36.9733 211.63 37.4C211.63 37.8133 211.79 38.1533 212.11 38.42C212.443 38.6733 212.91 38.8 213.51 38.8C213.896 38.8 214.263 38.7533 214.61 38.66C214.97 38.5533 215.29 38.4 215.57 38.2C215.85 37.9867 216.07 37.7267 216.23 37.42C216.39 37.1 216.47 36.7267 216.47 36.3V33.54ZM221.958 40V30H223.258L223.478 31.64C223.758 31.0267 224.164 30.5667 224.698 30.26C225.244 29.9533 225.904 29.8 226.678 29.8C226.851 29.8 227.038 29.8133 227.238 29.84C227.451 29.8667 227.631 29.92 227.778 30L227.498 31.46C227.351 31.4067 227.191 31.3667 227.018 31.34C226.844 31.3133 226.598 31.3 226.278 31.3C225.864 31.3 225.444 31.42 225.018 31.66C224.604 31.9 224.258 32.2667 223.978 32.76C223.698 33.24 223.558 33.8533 223.558 34.6V40H221.958ZM233.989 40.2C233.043 40.2 232.196 39.9933 231.449 39.58C230.716 39.1667 230.143 38.5733 229.729 37.8C229.316 37.0133 229.109 36.08 229.109 35C229.109 33.92 229.316 32.9933 229.729 32.22C230.143 31.4333 230.709 30.8333 231.429 30.42C232.149 30.0067 232.969 29.8 233.889 29.8C234.823 29.8 235.616 30 236.269 30.4C236.936 30.8 237.443 31.3467 237.789 32.04C238.136 32.72 238.309 33.4867 238.309 34.34C238.309 34.5667 238.303 34.7733 238.289 34.96C238.276 35.1467 238.256 35.3133 238.229 35.46H230.149V34.04H237.529L236.709 34.2C236.709 33.24 236.443 32.5 235.909 31.98C235.389 31.46 234.703 31.2 233.849 31.2C233.196 31.2 232.629 31.3533 232.149 31.66C231.683 31.9533 231.316 32.3867 231.049 32.96C230.796 33.52 230.669 34.2 230.669 35C230.669 35.7867 230.803 36.4667 231.069 37.04C231.336 37.6133 231.709 38.0533 232.189 38.36C232.683 38.6533 233.269 38.8 233.949 38.8C234.683 38.8 235.276 38.66 235.729 38.38C236.196 38.1 236.569 37.72 236.849 37.24L238.109 37.98C237.856 38.4333 237.529 38.8267 237.129 39.16C236.743 39.4933 236.283 39.7533 235.749 39.94C235.229 40.1133 234.643 40.2 233.989 40.2ZM254.009 33.54C254.009 32.7933 253.809 32.22 253.409 31.82C253.009 31.4067 252.442 31.2 251.709 31.2C251.015 31.2 250.429 31.3533 249.949 31.66C249.469 31.9533 249.115 32.4333 248.889 33.1L247.589 32.3C247.855 31.5533 248.349 30.9533 249.069 30.5C249.789 30.0333 250.682 29.8 251.749 29.8C252.469 29.8 253.122 29.9267 253.709 30.18C254.295 30.42 254.755 30.7933 255.089 31.3C255.435 31.7933 255.609 32.4333 255.609 33.22V38.06C255.609 38.54 255.862 38.78 256.369 38.78C256.622 38.78 256.869 38.7467 257.109 38.68L257.029 39.94C256.762 40.0733 256.415 40.14 255.989 40.14C255.602 40.14 255.255 40.0667 254.949 39.92C254.642 39.7733 254.402 39.5533 254.229 39.26C254.055 38.9533 253.969 38.5733 253.969 38.12V37.92L254.369 37.98C254.209 38.5 253.935 38.9267 253.549 39.26C253.162 39.58 252.729 39.82 252.249 39.98C251.769 40.1267 251.295 40.2 250.829 40.2C250.242 40.2 249.695 40.1 249.189 39.9C248.682 39.7 248.275 39.4 247.969 39C247.675 38.5867 247.529 38.08 247.529 37.48C247.529 36.7333 247.775 36.12 248.269 35.64C248.775 35.1467 249.475 34.8133 250.369 34.64L254.329 33.86V35.18L251.109 35.84C250.455 35.9733 249.969 36.16 249.649 36.4C249.329 36.64 249.169 36.9733 249.169 37.4C249.169 37.8133 249.329 38.1533 249.649 38.42C249.982 38.6733 250.449 38.8 251.049 38.8C251.435 38.8 251.802 38.7533 252.149 38.66C252.509 38.5533 252.829 38.4 253.109 38.2C253.389 37.9867 253.609 37.7267 253.769 37.42C253.929 37.1 254.009 36.7267 254.009 36.3V33.54ZM259.497 40V30H260.797L261.017 31.64C261.297 31.0267 261.703 30.5667 262.237 30.26C262.783 29.9533 263.443 29.8 264.217 29.8C264.39 29.8 264.577 29.8133 264.777 29.84C264.99 29.8667 265.17 29.92 265.317 30L265.037 31.46C264.89 31.4067 264.73 31.3667 264.557 31.34C264.383 31.3133 264.137 31.3 263.817 31.3C263.403 31.3 262.983 31.42 262.557 31.66C262.143 31.9 261.797 32.2667 261.517 32.76C261.237 33.24 261.097 33.8533 261.097 34.6V40H259.497ZM267.661 40V30H268.961L269.181 31.64C269.461 31.0267 269.867 30.5667 270.401 30.26C270.947 29.9533 271.607 29.8 272.381 29.8C272.554 29.8 272.741 29.8133 272.941 29.84C273.154 29.8667 273.334 29.92 273.481 30L273.201 31.46C273.054 31.4067 272.894 31.3667 272.721 31.34C272.547 31.3133 272.301 31.3 271.981 31.3C271.567 31.3 271.147 31.42 270.721 31.66C270.307 31.9 269.961 32.2667 269.681 32.76C269.401 33.24 269.261 33.8533 269.261 34.6V40H267.661ZM281.391 33.54C281.391 32.7933 281.191 32.22 280.791 31.82C280.391 31.4067 279.825 31.2 279.091 31.2C278.398 31.2 277.811 31.3533 277.331 31.66C276.851 31.9533 276.498 32.4333 276.271 33.1L274.971 32.3C275.238 31.5533 275.731 30.9533 276.451 30.5C277.171 30.0333 278.065 29.8 279.131 29.8C279.851 29.8 280.505 29.9267 281.091 30.18C281.678 30.42 282.138 30.7933 282.471 31.3C282.818 31.7933 282.991 32.4333 282.991 33.22V38.06C282.991 38.54 283.245 38.78 283.751 38.78C284.005 38.78 284.251 38.7467 284.491 38.68L284.411 39.94C284.145 40.0733 283.798 40.14 283.371 40.14C282.985 40.14 282.638 40.0667 282.331 39.92C282.025 39.7733 281.785 39.5533 281.611 39.26C281.438 38.9533 281.351 38.5733 281.351 38.12V37.92L281.751 37.98C281.591 38.5 281.318 38.9267 280.931 39.26C280.545 39.58 280.111 39.82 279.631 39.98C279.151 40.1267 278.678 40.2 278.211 40.2C277.625 40.2 277.078 40.1 276.571 39.9C276.065 39.7 275.658 39.4 275.351 39C275.058 38.5867 274.911 38.08 274.911 37.48C274.911 36.7333 275.158 36.12 275.651 35.64C276.158 35.1467 276.858 34.8133 277.751 34.64L281.711 33.86V35.18L278.491 35.84C277.838 35.9733 277.351 36.16 277.031 36.4C276.711 36.64 276.551 36.9733 276.551 37.4C276.551 37.8133 276.711 38.1533 277.031 38.42C277.365 38.6733 277.831 38.8 278.431 38.8C278.818 38.8 279.185 38.7533 279.531 38.66C279.891 38.5533 280.211 38.4 280.491 38.2C280.771 37.9867 280.991 37.7267 281.151 37.42C281.311 37.1 281.391 36.7267 281.391 36.3V33.54ZM286.88 40V30H288.28L288.42 32.24L288.16 32.02C288.373 31.4867 288.66 31.06 289.02 30.74C289.38 30.4067 289.793 30.1667 290.26 30.02C290.74 29.8733 291.233 29.8 291.74 29.8C292.46 29.8 293.113 29.94 293.7 30.22C294.286 30.4867 294.753 30.9 295.1 31.46C295.46 32.02 295.64 32.7333 295.64 33.6V40H294.04V34.16C294.04 33.0533 293.8 32.2867 293.32 31.86C292.853 31.42 292.273 31.2 291.58 31.2C291.1 31.2 290.62 31.3133 290.14 31.54C289.66 31.7667 289.26 32.1333 288.94 32.64C288.633 33.1467 288.48 33.8267 288.48 34.68V40H286.88ZM307.682 28.16L308.042 29.58C308.029 29.58 308.009 29.58 307.982 29.58C307.956 29.58 307.929 29.58 307.902 29.58C307.249 29.58 306.742 29.7133 306.382 29.98C306.036 30.2333 305.862 30.6467 305.862 31.22L304.882 30.72C304.882 30.2 305.002 29.7467 305.242 29.36C305.482 28.9733 305.809 28.68 306.222 28.48C306.636 28.2667 307.089 28.16 307.582 28.16C307.596 28.16 307.609 28.16 307.622 28.16C307.649 28.16 307.669 28.16 307.682 28.16ZM304.642 38.72C305.589 38.72 306.329 38.94 306.862 39.38C307.396 39.8067 307.662 40.38 307.662 41.1C307.662 41.7533 307.442 42.32 307.002 42.8C306.576 43.28 305.996 43.6467 305.262 43.9C304.542 44.1667 303.729 44.3 302.822 44.3C301.249 44.3 300.069 44.0333 299.282 43.5C298.509 42.9667 298.122 42.3267 298.122 41.58C298.122 41.0467 298.296 40.5667 298.642 40.14C299.002 39.7267 299.602 39.4933 300.442 39.44L300.302 39.74C299.849 39.62 299.462 39.42 299.142 39.14C298.836 38.8467 298.682 38.4267 298.682 37.88C298.682 37.3333 298.882 36.8667 299.282 36.48C299.696 36.08 300.302 35.8333 301.102 35.74L302.162 36.28H301.962C301.309 36.3467 300.842 36.5133 300.562 36.78C300.296 37.0333 300.162 37.3133 300.162 37.62C300.162 37.9933 300.296 38.2733 300.562 38.46C300.842 38.6333 301.229 38.72 301.722 38.72H304.642ZM302.802 42.96C303.576 42.96 304.209 42.88 304.702 42.72C305.209 42.56 305.582 42.3533 305.822 42.1C306.062 41.8467 306.182 41.5733 306.182 41.28C306.182 40.92 306.036 40.6333 305.742 40.42C305.462 40.2067 304.949 40.1 304.202 40.1H301.122C300.696 40.1 300.336 40.2067 300.042 40.42C299.749 40.6467 299.602 40.9533 299.602 41.34C299.602 41.8333 299.882 42.2267 300.442 42.52C301.016 42.8133 301.802 42.96 302.802 42.96ZM302.662 29.8C303.462 29.8 304.169 29.9467 304.782 30.24C305.409 30.52 305.896 30.9133 306.242 31.42C306.589 31.9267 306.762 32.5133 306.762 33.18C306.762 33.8333 306.589 34.42 306.242 34.94C305.896 35.4467 305.409 35.8467 304.782 36.14C304.169 36.42 303.462 36.56 302.662 36.56C301.342 36.56 300.329 36.2467 299.622 35.62C298.916 34.98 298.562 34.1667 298.562 33.18C298.562 32.5133 298.736 31.9267 299.082 31.42C299.442 30.9133 299.929 30.52 300.542 30.24C301.156 29.9467 301.862 29.8 302.662 29.8ZM302.662 31.1C301.969 31.1 301.389 31.2933 300.922 31.68C300.456 32.0533 300.222 32.5533 300.222 33.18C300.222 33.7933 300.456 34.2933 300.922 34.68C301.389 35.0667 301.969 35.26 302.662 35.26C303.356 35.26 303.936 35.0667 304.402 34.68C304.869 34.2933 305.102 33.7933 305.102 33.18C305.102 32.5533 304.869 32.0533 304.402 31.68C303.936 31.2933 303.356 31.1 302.662 31.1ZM314.087 40.2C313.14 40.2 312.294 39.9933 311.547 39.58C310.814 39.1667 310.24 38.5733 309.827 37.8C309.414 37.0133 309.207 36.08 309.207 35C309.207 33.92 309.414 32.9933 309.827 32.22C310.24 31.4333 310.807 30.8333 311.527 30.42C312.247 30.0067 313.067 29.8 313.987 29.8C314.92 29.8 315.714 30 316.367 30.4C317.034 30.8 317.54 31.3467 317.887 32.04C318.234 32.72 318.407 33.4867 318.407 34.34C318.407 34.5667 318.4 34.7733 318.387 34.96C318.374 35.1467 318.354 35.3133 318.327 35.46H310.247V34.04H317.627L316.807 34.2C316.807 33.24 316.54 32.5 316.007 31.98C315.487 31.46 314.8 31.2 313.947 31.2C313.294 31.2 312.727 31.3533 312.247 31.66C311.78 31.9533 311.414 32.3867 311.147 32.96C310.894 33.52 310.767 34.2 310.767 35C310.767 35.7867 310.9 36.4667 311.167 37.04C311.434 37.6133 311.807 38.0533 312.287 38.36C312.78 38.6533 313.367 38.8 314.047 38.8C314.78 38.8 315.374 38.66 315.827 38.38C316.294 38.1 316.667 37.72 316.947 37.24L318.207 37.98C317.954 38.4333 317.627 38.8267 317.227 39.16C316.84 39.4933 316.38 39.7533 315.847 39.94C315.327 40.1133 314.74 40.2 314.087 40.2ZM325.35 40.2C324.523 40.2 323.763 39.9933 323.07 39.58C322.377 39.1667 321.823 38.5733 321.41 37.8C320.997 37.0133 320.79 36.08 320.79 35C320.79 33.8933 321.01 32.9533 321.45 32.18C321.89 31.4067 322.47 30.82 323.19 30.42C323.91 30.0067 324.683 29.8 325.51 29.8C326.337 29.8 327.05 30.0133 327.65 30.44C328.263 30.8667 328.67 31.4333 328.87 32.14L328.67 32.28V25.4H330.27V40H328.87L328.73 37.58L328.95 37.46C328.857 38.0467 328.63 38.5467 328.27 38.96C327.923 39.36 327.49 39.6667 326.97 39.88C326.463 40.0933 325.923 40.2 325.35 40.2ZM325.51 38.8C326.15 38.8 326.703 38.64 327.17 38.32C327.65 38 328.017 37.5467 328.27 36.96C328.537 36.36 328.67 35.66 328.67 34.86C328.67 34.1 328.537 33.4467 328.27 32.9C328.017 32.3533 327.657 31.9333 327.19 31.64C326.737 31.3467 326.203 31.2 325.59 31.2C324.577 31.2 323.79 31.5467 323.23 32.24C322.67 32.9333 322.39 33.8533 322.39 35C322.39 36.1467 322.663 37.0667 323.21 37.76C323.757 38.4533 324.523 38.8 325.51 38.8ZM341.605 28.08C341.245 28.08 340.952 27.9733 340.725 27.76C340.512 27.5333 340.405 27.24 340.405 26.88C340.405 26.52 340.512 26.2333 340.725 26.02C340.952 25.7933 341.245 25.68 341.605 25.68C341.965 25.68 342.252 25.7933 342.465 26.02C342.692 26.2333 342.805 26.52 342.805 26.88C342.805 27.24 342.692 27.5333 342.465 27.76C342.252 27.9733 341.965 28.08 341.605 28.08ZM342.405 30V40H340.805V30H342.405ZM346.118 40V30H347.518L347.658 32.24L347.398 32.02C347.611 31.4867 347.898 31.06 348.258 30.74C348.618 30.4067 349.031 30.1667 349.498 30.02C349.978 29.8733 350.471 29.8 350.978 29.8C351.698 29.8 352.351 29.94 352.938 30.22C353.524 30.4867 353.991 30.9 354.338 31.46C354.698 32.02 354.878 32.7333 354.878 33.6V40H353.278V34.16C353.278 33.0533 353.038 32.2867 352.558 31.86C352.091 31.42 351.511 31.2 350.818 31.2C350.338 31.2 349.858 31.3133 349.378 31.54C348.898 31.7667 348.498 32.1333 348.178 32.64C347.871 33.1467 347.718 33.8267 347.718 34.68V40H346.118ZM378.377 26.8V40H376.857V31.7L377.037 28.22H377.017L372.677 40H371.317L366.977 28.22H366.957L367.137 31.7V40H365.617V26.8H368.077L370.977 34.82L371.977 38.12H372.017L373.037 34.84L375.917 26.8H378.377ZM386.371 29.8C387.318 29.8 388.151 30.0067 388.871 30.42C389.604 30.8333 390.178 31.4333 390.591 32.22C391.004 32.9933 391.211 33.92 391.211 35C391.211 36.08 391.004 37.0133 390.591 37.8C390.178 38.5733 389.604 39.1667 388.871 39.58C388.151 39.9933 387.318 40.2 386.371 40.2C385.438 40.2 384.604 39.9933 383.871 39.58C383.138 39.1667 382.564 38.5733 382.151 37.8C381.738 37.0133 381.531 36.08 381.531 35C381.531 33.92 381.738 32.9933 382.151 32.22C382.564 31.4333 383.138 30.8333 383.871 30.42C384.604 30.0067 385.438 29.8 386.371 29.8ZM386.371 31.18C385.691 31.18 385.111 31.3333 384.631 31.64C384.151 31.9467 383.778 32.3867 383.511 32.96C383.258 33.52 383.131 34.2 383.131 35C383.131 35.7867 383.258 36.4667 383.511 37.04C383.778 37.6133 384.151 38.0533 384.631 38.36C385.111 38.6667 385.691 38.82 386.371 38.82C387.051 38.82 387.631 38.6667 388.111 38.36C388.591 38.0533 388.958 37.6133 389.211 37.04C389.478 36.4667 389.611 35.7867 389.611 35C389.611 34.2 389.478 33.52 389.211 32.96C388.958 32.3867 388.591 31.9467 388.111 31.64C387.631 31.3333 387.051 31.18 386.371 31.18ZM394.223 40V30H395.523L395.743 31.64C396.023 31.0267 396.43 30.5667 396.963 30.26C397.51 29.9533 398.17 29.8 398.943 29.8C399.117 29.8 399.303 29.8133 399.503 29.84C399.717 29.8667 399.897 29.92 400.043 30L399.763 31.46C399.617 31.4067 399.457 31.3667 399.283 31.34C399.11 31.3133 398.863 31.3 398.543 31.3C398.13 31.3 397.71 31.42 397.283 31.66C396.87 31.9 396.523 32.2667 396.243 32.76C395.963 33.24 395.823 33.8533 395.823 34.6V40H394.223ZM405.558 40.2C404.584 40.2 403.684 39.9933 402.858 39.58C402.044 39.1667 401.418 38.58 400.978 37.82L402.338 36.84C402.631 37.4533 403.058 37.9333 403.618 38.28C404.191 38.6267 404.878 38.8 405.678 38.8C406.384 38.8 406.938 38.6667 407.338 38.4C407.738 38.12 407.938 37.76 407.938 37.32C407.938 37.04 407.844 36.7867 407.658 36.56C407.484 36.32 407.144 36.1467 406.638 36.04L404.238 35.54C403.264 35.34 402.564 35.0067 402.138 34.54C401.724 34.0733 401.518 33.4933 401.518 32.8C401.518 32.2533 401.671 31.7533 401.978 31.3C402.298 30.8467 402.744 30.4867 403.318 30.22C403.904 29.94 404.591 29.8 405.378 29.8C406.364 29.8 407.198 29.9933 407.878 30.38C408.558 30.7667 409.064 31.3133 409.398 32.02L408.058 32.9C407.831 32.3133 407.464 31.8867 406.958 31.62C406.451 31.34 405.924 31.2 405.378 31.2C404.898 31.2 404.484 31.2667 404.138 31.4C403.804 31.5333 403.544 31.72 403.358 31.96C403.184 32.1867 403.098 32.4467 403.098 32.74C403.098 33.0333 403.198 33.3067 403.398 33.56C403.598 33.8 403.971 33.9733 404.518 34.08L407.018 34.6C407.951 34.7867 408.604 35.0933 408.978 35.52C409.351 35.9467 409.538 36.4667 409.538 37.08C409.538 37.7067 409.371 38.26 409.038 38.74C408.704 39.2067 408.238 39.5667 407.638 39.82C407.038 40.0733 406.344 40.2 405.558 40.2ZM416.685 40.2C415.738 40.2 414.891 39.9933 414.145 39.58C413.411 39.1667 412.838 38.5733 412.425 37.8C412.011 37.0133 411.805 36.08 411.805 35C411.805 33.92 412.011 32.9933 412.425 32.22C412.838 31.4333 413.405 30.8333 414.125 30.42C414.845 30.0067 415.665 29.8 416.585 29.8C417.518 29.8 418.311 30 418.965 30.4C419.631 30.8 420.138 31.3467 420.485 32.04C420.831 32.72 421.005 33.4867 421.005 34.34C421.005 34.5667 420.998 34.7733 420.985 34.96C420.971 35.1467 420.951 35.3133 420.925 35.46H412.845V34.04H420.225L419.405 34.2C419.405 33.24 419.138 32.5 418.605 31.98C418.085 31.46 417.398 31.2 416.545 31.2C415.891 31.2 415.325 31.3533 414.845 31.66C414.378 31.9533 414.011 32.3867 413.745 32.96C413.491 33.52 413.365 34.2 413.365 35C413.365 35.7867 413.498 36.4667 413.765 37.04C414.031 37.6133 414.405 38.0533 414.885 38.36C415.378 38.6533 415.965 38.8 416.645 38.8C417.378 38.8 417.971 38.66 418.425 38.38C418.891 38.1 419.265 37.72 419.545 37.24L420.805 37.98C420.551 38.4333 420.225 38.8267 419.825 39.16C419.438 39.4933 418.978 39.7533 418.445 39.94C417.925 40.1133 417.338 40.2 416.685 40.2ZM435.004 29.8C435.697 29.8 436.304 29.9067 436.824 30.12C437.357 30.3333 437.817 30.64 438.204 31.04C438.591 31.44 438.904 31.9133 439.144 32.46L437.624 33.18C437.411 32.54 437.084 32.0533 436.644 31.72C436.217 31.3733 435.657 31.2 434.964 31.2C434.297 31.2 433.724 31.3533 433.244 31.66C432.764 31.9533 432.397 32.3867 432.144 32.96C431.891 33.52 431.764 34.2 431.764 35C431.764 35.7867 431.891 36.4667 432.144 37.04C432.397 37.6133 432.764 38.0533 433.244 38.36C433.724 38.6533 434.297 38.8 434.964 38.8C435.484 38.8 435.931 38.72 436.304 38.56C436.691 38.4 437.004 38.1667 437.244 37.86C437.497 37.5533 437.671 37.18 437.764 36.74L439.244 37.26C439.017 37.8733 438.704 38.4 438.304 38.84C437.917 39.28 437.444 39.62 436.884 39.86C436.337 40.0867 435.711 40.2 435.004 40.2C434.071 40.2 433.237 39.9933 432.504 39.58C431.771 39.1667 431.197 38.5733 430.784 37.8C430.371 37.0133 430.164 36.08 430.164 35C430.164 33.92 430.371 32.9933 430.784 32.22C431.197 31.4333 431.771 30.8333 432.504 30.42C433.237 30.0067 434.071 29.8 435.004 29.8ZM446.195 29.8C447.142 29.8 447.975 30.0067 448.695 30.42C449.429 30.8333 450.002 31.4333 450.415 32.22C450.829 32.9933 451.035 33.92 451.035 35C451.035 36.08 450.829 37.0133 450.415 37.8C450.002 38.5733 449.429 39.1667 448.695 39.58C447.975 39.9933 447.142 40.2 446.195 40.2C445.262 40.2 444.429 39.9933 443.695 39.58C442.962 39.1667 442.389 38.5733 441.975 37.8C441.562 37.0133 441.355 36.08 441.355 35C441.355 33.92 441.562 32.9933 441.975 32.22C442.389 31.4333 442.962 30.8333 443.695 30.42C444.429 30.0067 445.262 29.8 446.195 29.8ZM446.195 31.18C445.515 31.18 444.935 31.3333 444.455 31.64C443.975 31.9467 443.602 32.3867 443.335 32.96C443.082 33.52 442.955 34.2 442.955 35C442.955 35.7867 443.082 36.4667 443.335 37.04C443.602 37.6133 443.975 38.0533 444.455 38.36C444.935 38.6667 445.515 38.82 446.195 38.82C446.875 38.82 447.455 38.6667 447.935 38.36C448.415 38.0533 448.782 37.6133 449.035 37.04C449.302 36.4667 449.435 35.7867 449.435 35C449.435 34.2 449.302 33.52 449.035 32.96C448.782 32.3867 448.415 31.9467 447.935 31.64C447.455 31.3333 446.875 31.18 446.195 31.18ZM457.948 40.2C457.121 40.2 456.361 39.9933 455.668 39.58C454.974 39.1667 454.421 38.5733 454.008 37.8C453.594 37.0133 453.388 36.08 453.388 35C453.388 33.8933 453.608 32.9533 454.048 32.18C454.488 31.4067 455.068 30.82 455.788 30.42C456.508 30.0067 457.281 29.8 458.108 29.8C458.934 29.8 459.648 30.0133 460.248 30.44C460.861 30.8667 461.268 31.4333 461.468 32.14L461.268 32.28V25.4H462.868V40H461.468L461.328 37.58L461.548 37.46C461.454 38.0467 461.228 38.5467 460.868 38.96C460.521 39.36 460.088 39.6667 459.568 39.88C459.061 40.0933 458.521 40.2 457.948 40.2ZM458.108 38.8C458.748 38.8 459.301 38.64 459.768 38.32C460.248 38 460.614 37.5467 460.868 36.96C461.134 36.36 461.268 35.66 461.268 34.86C461.268 34.1 461.134 33.4467 460.868 32.9C460.614 32.3533 460.254 31.9333 459.788 31.64C459.334 31.3467 458.801 31.2 458.188 31.2C457.174 31.2 456.388 31.5467 455.828 32.24C455.268 32.9333 454.988 33.8533 454.988 35C454.988 36.1467 455.261 37.0667 455.808 37.76C456.354 38.4533 457.121 38.8 458.108 38.8ZM470.767 40.2C469.82 40.2 468.973 39.9933 468.227 39.58C467.493 39.1667 466.92 38.5733 466.507 37.8C466.093 37.0133 465.887 36.08 465.887 35C465.887 33.92 466.093 32.9933 466.507 32.22C466.92 31.4333 467.487 30.8333 468.207 30.42C468.927 30.0067 469.747 29.8 470.667 29.8C471.6 29.8 472.393 30 473.047 30.4C473.713 30.8 474.22 31.3467 474.567 32.04C474.913 32.72 475.087 33.4867 475.087 34.34C475.087 34.5667 475.08 34.7733 475.067 34.96C475.053 35.1467 475.033 35.3133 475.007 35.46H466.927V34.04H474.307L473.487 34.2C473.487 33.24 473.22 32.5 472.687 31.98C472.167 31.46 471.48 31.2 470.627 31.2C469.973 31.2 469.407 31.3533 468.927 31.66C468.46 31.9533 468.093 32.3867 467.827 32.96C467.573 33.52 467.447 34.2 467.447 35C467.447 35.7867 467.58 36.4667 467.847 37.04C468.113 37.6133 468.487 38.0533 468.967 38.36C469.46 38.6533 470.047 38.8 470.727 38.8C471.46 38.8 472.053 38.66 472.507 38.38C472.973 38.1 473.347 37.72 473.627 37.24L474.887 37.98C474.633 38.4333 474.307 38.8267 473.907 39.16C473.52 39.4933 473.06 39.7533 472.527 39.94C472.007 40.1133 471.42 40.2 470.767 40.2ZM486.915 27.16V37.24C486.915 37.7333 487.055 38.1 487.335 38.34C487.615 38.58 487.975 38.7 488.415 38.7C488.802 38.7 489.135 38.6333 489.415 38.5C489.695 38.3667 489.949 38.1867 490.175 37.96L490.735 39.3C490.429 39.58 490.062 39.8 489.635 39.96C489.222 40.12 488.742 40.2 488.195 40.2C487.689 40.2 487.215 40.1133 486.775 39.94C486.335 39.7533 485.982 39.4667 485.715 39.08C485.462 38.68 485.329 38.16 485.315 37.52V27.6L486.915 27.16ZM490.555 30V31.38H483.315V30H490.555ZM492.934 40V25.4H494.534V31.5C494.881 30.9 495.341 30.4667 495.914 30.2C496.488 29.9333 497.114 29.8 497.794 29.8C498.514 29.8 499.168 29.94 499.754 30.22C500.341 30.4867 500.808 30.9 501.154 31.46C501.514 32.02 501.694 32.7333 501.694 33.6V40H500.094V34.16C500.094 33.0533 499.854 32.2867 499.374 31.86C498.908 31.42 498.328 31.2 497.634 31.2C497.154 31.2 496.674 31.3133 496.194 31.54C495.714 31.7667 495.314 32.14 494.994 32.66C494.688 33.1667 494.534 33.8467 494.534 34.7V40H492.934ZM511.157 33.54C511.157 32.7933 510.957 32.22 510.557 31.82C510.157 31.4067 509.59 31.2 508.857 31.2C508.164 31.2 507.577 31.3533 507.097 31.66C506.617 31.9533 506.264 32.4333 506.037 33.1L504.737 32.3C505.004 31.5533 505.497 30.9533 506.217 30.5C506.937 30.0333 507.83 29.8 508.897 29.8C509.617 29.8 510.27 29.9267 510.857 30.18C511.444 30.42 511.904 30.7933 512.237 31.3C512.584 31.7933 512.757 32.4333 512.757 33.22V38.06C512.757 38.54 513.01 38.78 513.517 38.78C513.77 38.78 514.017 38.7467 514.257 38.68L514.177 39.94C513.91 40.0733 513.564 40.14 513.137 40.14C512.75 40.14 512.404 40.0667 512.097 39.92C511.79 39.7733 511.55 39.5533 511.377 39.26C511.204 38.9533 511.117 38.5733 511.117 38.12V37.92L511.517 37.98C511.357 38.5 511.084 38.9267 510.697 39.26C510.31 39.58 509.877 39.82 509.397 39.98C508.917 40.1267 508.444 40.2 507.977 40.2C507.39 40.2 506.844 40.1 506.337 39.9C505.83 39.7 505.424 39.4 505.117 39C504.824 38.5867 504.677 38.08 504.677 37.48C504.677 36.7333 504.924 36.12 505.417 35.64C505.924 35.1467 506.624 34.8133 507.517 34.64L511.477 33.86V35.18L508.257 35.84C507.604 35.9733 507.117 36.16 506.797 36.4C506.477 36.64 506.317 36.9733 506.317 37.4C506.317 37.8133 506.477 38.1533 506.797 38.42C507.13 38.6733 507.597 38.8 508.197 38.8C508.584 38.8 508.95 38.7533 509.297 38.66C509.657 38.5533 509.977 38.4 510.257 38.2C510.537 37.9867 510.757 37.7267 510.917 37.42C511.077 37.1 511.157 36.7267 511.157 36.3V33.54ZM518.615 27.16V37.24C518.615 37.7333 518.755 38.1 519.035 38.34C519.315 38.58 519.675 38.7 520.115 38.7C520.501 38.7 520.835 38.6333 521.115 38.5C521.395 38.3667 521.648 38.1867 521.875 37.96L522.435 39.3C522.128 39.58 521.761 39.8 521.335 39.96C520.921 40.12 520.441 40.2 519.895 40.2C519.388 40.2 518.915 40.1133 518.475 39.94C518.035 39.7533 517.681 39.4667 517.415 39.08C517.161 38.68 517.028 38.16 517.015 37.52V27.6L518.615 27.16ZM522.255 30V31.38H515.015V30H522.255ZM535.05 40.2C534.077 40.2 533.177 39.9933 532.35 39.58C531.537 39.1667 530.91 38.58 530.47 37.82L531.83 36.84C532.123 37.4533 532.55 37.9333 533.11 38.28C533.683 38.6267 534.37 38.8 535.17 38.8C535.877 38.8 536.43 38.6667 536.83 38.4C537.23 38.12 537.43 37.76 537.43 37.32C537.43 37.04 537.337 36.7867 537.15 36.56C536.977 36.32 536.637 36.1467 536.13 36.04L533.73 35.54C532.757 35.34 532.057 35.0067 531.63 34.54C531.217 34.0733 531.01 33.4933 531.01 32.8C531.01 32.2533 531.163 31.7533 531.47 31.3C531.79 30.8467 532.237 30.4867 532.81 30.22C533.397 29.94 534.083 29.8 534.87 29.8C535.857 29.8 536.69 29.9933 537.37 30.38C538.05 30.7667 538.557 31.3133 538.89 32.02L537.55 32.9C537.323 32.3133 536.957 31.8867 536.45 31.62C535.943 31.34 535.417 31.2 534.87 31.2C534.39 31.2 533.977 31.2667 533.63 31.4C533.297 31.5333 533.037 31.72 532.85 31.96C532.677 32.1867 532.59 32.4467 532.59 32.74C532.59 33.0333 532.69 33.3067 532.89 33.56C533.09 33.8 533.463 33.9733 534.01 34.08L536.51 34.6C537.443 34.7867 538.097 35.0933 538.47 35.52C538.843 35.9467 539.03 36.4667 539.03 37.08C539.03 37.7067 538.863 38.26 538.53 38.74C538.197 39.2067 537.73 39.5667 537.13 39.82C536.53 40.0733 535.837 40.2 535.05 40.2ZM541.997 44.2V30H543.397L543.537 32.44L543.317 32.16C543.49 31.6933 543.75 31.2867 544.097 30.94C544.443 30.58 544.863 30.3 545.357 30.1C545.85 29.9 546.383 29.8 546.957 29.8C547.77 29.8 548.517 30.0067 549.197 30.42C549.89 30.8333 550.443 31.4267 550.857 32.2C551.27 32.9733 551.477 33.9067 551.477 35C551.477 36.08 551.263 37.0133 550.837 37.8C550.423 38.5733 549.87 39.1667 549.177 39.58C548.483 39.9933 547.723 40.2 546.897 40.2C546.07 40.2 545.343 40 544.717 39.6C544.103 39.1867 543.663 38.6667 543.397 38.04L543.597 37.74V44.2H541.997ZM546.737 38.8C547.723 38.8 548.49 38.4533 549.037 37.76C549.597 37.0667 549.877 36.1467 549.877 35C549.877 33.8533 549.603 32.9333 549.057 32.24C548.523 31.5467 547.77 31.2 546.797 31.2C546.157 31.2 545.597 31.36 545.117 31.68C544.637 31.9867 544.263 32.4267 543.997 33C543.73 33.56 543.597 34.2267 543.597 35C543.597 35.76 543.723 36.4267 543.977 37C544.243 37.5733 544.61 38.02 545.077 38.34C545.557 38.6467 546.11 38.8 546.737 38.8ZM558.716 40.2C557.769 40.2 556.922 39.9933 556.176 39.58C555.442 39.1667 554.869 38.5733 554.456 37.8C554.042 37.0133 553.836 36.08 553.836 35C553.836 33.92 554.042 32.9933 554.456 32.22C554.869 31.4333 555.436 30.8333 556.156 30.42C556.876 30.0067 557.696 29.8 558.616 29.8C559.549 29.8 560.342 30 560.996 30.4C561.662 30.8 562.169 31.3467 562.516 32.04C562.862 32.72 563.036 33.4867 563.036 34.34C563.036 34.5667 563.029 34.7733 563.016 34.96C563.002 35.1467 562.982 35.3133 562.956 35.46H554.876V34.04H562.256L561.436 34.2C561.436 33.24 561.169 32.5 560.636 31.98C560.116 31.46 559.429 31.2 558.576 31.2C557.922 31.2 557.356 31.3533 556.876 31.66C556.409 31.9533 556.042 32.3867 555.776 32.96C555.522 33.52 555.396 34.2 555.396 35C555.396 35.7867 555.529 36.4667 555.796 37.04C556.062 37.6133 556.436 38.0533 556.916 38.36C557.409 38.6533 557.996 38.8 558.676 38.8C559.409 38.8 560.002 38.66 560.456 38.38C560.922 38.1 561.296 37.72 561.576 37.24L562.836 37.98C562.582 38.4333 562.256 38.8267 561.856 39.16C561.469 39.4933 561.009 39.7533 560.476 39.94C559.956 40.1133 559.369 40.2 558.716 40.2ZM567.599 25.4V37.46C567.599 37.9667 567.692 38.32 567.879 38.52C568.065 38.7067 568.365 38.8 568.779 38.8C569.045 38.8 569.265 38.78 569.439 38.74C569.612 38.7 569.845 38.6267 570.139 38.52L569.879 39.92C569.665 40.0133 569.432 40.08 569.179 40.12C568.925 40.1733 568.665 40.2 568.399 40.2C567.585 40.2 566.979 39.98 566.579 39.54C566.192 39.1 565.999 38.4267 565.999 37.52V25.4H567.599ZM573.712 25.4V37.46C573.712 37.9667 573.805 38.32 573.992 38.52C574.179 38.7067 574.479 38.8 574.892 38.8C575.159 38.8 575.379 38.78 575.552 38.74C575.725 38.7 575.959 38.6267 576.252 38.52L575.992 39.92C575.779 40.0133 575.545 40.08 575.292 40.12C575.039 40.1733 574.779 40.2 574.512 40.2C573.699 40.2 573.092 39.98 572.692 39.54C572.305 39.1 572.112 38.4267 572.112 37.52V25.4H573.712ZM581.905 40.2C580.932 40.2 580.032 39.9933 579.205 39.58C578.392 39.1667 577.765 38.58 577.325 37.82L578.685 36.84C578.979 37.4533 579.405 37.9333 579.965 38.28C580.539 38.6267 581.225 38.8 582.025 38.8C582.732 38.8 583.285 38.6667 583.685 38.4C584.085 38.12 584.285 37.76 584.285 37.32C584.285 37.04 584.192 36.7867 584.005 36.56C583.832 36.32 583.492 36.1467 582.985 36.04L580.585 35.54C579.612 35.34 578.912 35.0067 578.485 34.54C578.072 34.0733 577.865 33.4933 577.865 32.8C577.865 32.2533 578.019 31.7533 578.325 31.3C578.645 30.8467 579.092 30.4867 579.665 30.22C580.252 29.94 580.939 29.8 581.725 29.8C582.712 29.8 583.545 29.9933 584.225 30.38C584.905 30.7667 585.412 31.3133 585.745 32.02L584.405 32.9C584.179 32.3133 583.812 31.8867 583.305 31.62C582.799 31.34 582.272 31.2 581.725 31.2C581.245 31.2 580.832 31.2667 580.485 31.4C580.152 31.5333 579.892 31.72 579.705 31.96C579.532 32.1867 579.445 32.4467 579.445 32.74C579.445 33.0333 579.545 33.3067 579.745 33.56C579.945 33.8 580.319 33.9733 580.865 34.08L583.365 34.6C584.299 34.7867 584.952 35.0933 585.325 35.52C585.699 35.9467 585.885 36.4667 585.885 37.08C585.885 37.7067 585.719 38.26 585.385 38.74C585.052 39.2067 584.585 39.5667 583.985 39.82C583.385 40.0733 582.692 40.2 581.905 40.2ZM6 55.8C6.94667 55.8 7.78 56.0067 8.5 56.42C9.23333 56.8333 9.80667 57.4333 10.22 58.22C10.6333 58.9933 10.84 59.92 10.84 61C10.84 62.08 10.6333 63.0133 10.22 63.8C9.80667 64.5733 9.23333 65.1667 8.5 65.58C7.78 65.9933 6.94667 66.2 6 66.2C5.06667 66.2 4.23333 65.9933 3.5 65.58C2.76667 65.1667 2.19333 64.5733 1.78 63.8C1.36667 63.0133 1.16 62.08 1.16 61C1.16 59.92 1.36667 58.9933 1.78 58.22C2.19333 57.4333 2.76667 56.8333 3.5 56.42C4.23333 56.0067 5.06667 55.8 6 55.8ZM6 57.18C5.32 57.18 4.74 57.3333 4.26 57.64C3.78 57.9467 3.40667 58.3867 3.14 58.96C2.88667 59.52 2.76 60.2 2.76 61C2.76 61.7867 2.88667 62.4667 3.14 63.04C3.40667 63.6133 3.78 64.0533 4.26 64.36C4.74 64.6667 5.32 64.82 6 64.82C6.68 64.82 7.26 64.6667 7.74 64.36C8.22 64.0533 8.58667 63.6133 8.84 63.04C9.10667 62.4667 9.24 61.7867 9.24 61C9.24 60.2 9.10667 59.52 8.84 58.96C8.58667 58.3867 8.22 57.9467 7.74 57.64C7.26 57.3333 6.68 57.18 6 57.18ZM17.4722 66.2C16.8322 66.2 16.2255 66.08 15.6522 65.84C15.0922 65.6 14.6322 65.2133 14.2722 64.68C13.9255 64.1333 13.7522 63.4267 13.7522 62.56V56H15.3522V62.14C15.3522 63.1533 15.5722 63.8533 16.0122 64.24C16.4522 64.6133 17.0722 64.8 17.8722 64.8C18.2455 64.8 18.6122 64.74 18.9722 64.62C19.3322 64.4867 19.6522 64.2867 19.9322 64.02C20.2255 63.74 20.4522 63.3867 20.6122 62.96C20.7855 62.5333 20.8722 62.0267 20.8722 61.44V56H22.4722V66H21.0722L20.9722 64.48C20.6255 65.08 20.1522 65.52 19.5522 65.8C18.9655 66.0667 18.2722 66.2 17.4722 66.2ZM28.5559 53.16V63.24C28.5559 63.7333 28.6959 64.1 28.9759 64.34C29.2559 64.58 29.6159 64.7 30.0559 64.7C30.4426 64.7 30.7759 64.6333 31.0559 64.5C31.3359 64.3667 31.5893 64.1867 31.8159 63.96L32.3759 65.3C32.0693 65.58 31.7026 65.8 31.2759 65.96C30.8626 66.12 30.3826 66.2 29.8359 66.2C29.3293 66.2 28.8559 66.1133 28.4159 65.94C27.9759 65.7533 27.6226 65.4667 27.3559 65.08C27.1026 64.68 26.9693 64.16 26.9559 63.52V53.6L28.5559 53.16ZM32.1959 56V57.38H24.9559V56H32.1959ZM46.3113 52.2L45.7913 57.14H44.5513V52.2H46.3113ZM42.9313 52.2L42.4113 57.14H41.1713V52.2H42.9313ZM53.9977 52.6C55.1577 52.6 56.1577 52.84 56.9977 53.32C57.8377 53.7867 58.5377 54.48 59.0977 55.4L57.7577 56.44C57.2643 55.5867 56.7043 54.9867 56.0777 54.64C55.4643 54.28 54.7177 54.1 53.8377 54.1C53.131 54.1 52.5443 54.2 52.0777 54.4C51.6243 54.6 51.291 54.8667 51.0777 55.2C50.8643 55.52 50.7577 55.8867 50.7577 56.3C50.7577 56.7667 50.9043 57.18 51.1977 57.54C51.491 57.8867 52.0777 58.16 52.9577 58.36L55.8177 59C57.0843 59.28 57.9643 59.7067 58.4577 60.28C58.9643 60.84 59.2177 61.54 59.2177 62.38C59.2177 63.1267 59.0043 63.7933 58.5777 64.38C58.1643 64.9533 57.5777 65.4 56.8177 65.72C56.0577 66.04 55.1643 66.2 54.1377 66.2C53.1777 66.2 52.331 66.0733 51.5977 65.82C50.8777 65.5533 50.2577 65.2 49.7377 64.76C49.2177 64.32 48.791 63.8267 48.4577 63.28L49.8577 62.14C50.111 62.6467 50.4377 63.0933 50.8377 63.48C51.2377 63.8667 51.7177 64.1667 52.2777 64.38C52.851 64.5933 53.5043 64.7 54.2377 64.7C54.9177 64.7 55.5043 64.62 55.9977 64.46C56.5043 64.2867 56.891 64.04 57.1577 63.72C57.4243 63.3867 57.5577 62.9867 57.5577 62.52C57.5577 62.0933 57.4177 61.7133 57.1377 61.38C56.8577 61.0333 56.331 60.7733 55.5577 60.6L52.4577 59.9C51.6443 59.7133 50.9843 59.46 50.4777 59.14C49.9843 58.8067 49.6243 58.42 49.3977 57.98C49.1843 57.5267 49.0777 57.04 49.0777 56.52C49.0777 55.8133 49.271 55.1667 49.6577 54.58C50.0577 53.98 50.6243 53.5 51.3577 53.14C52.1043 52.78 52.9843 52.6 53.9977 52.6ZM67.8902 52.6C69.1435 52.6 70.2235 52.88 71.1302 53.44C72.0502 53.9867 72.7568 54.7667 73.2502 55.78C73.7568 56.7933 74.0102 58 74.0102 59.4C74.0102 60.8 73.7568 62.0067 73.2502 63.02C72.7568 64.0333 72.0502 64.82 71.1302 65.38C70.2235 65.9267 69.1435 66.2 67.8902 66.2C66.6368 66.2 65.5502 65.9267 64.6302 65.38C63.7235 64.82 63.0168 64.0333 62.5102 63.02C62.0168 62.0067 61.7702 60.8 61.7702 59.4C61.7702 58 62.0168 56.7933 62.5102 55.78C63.0168 54.7667 63.7235 53.9867 64.6302 53.44C65.5502 52.88 66.6368 52.6 67.8902 52.6ZM67.8902 54.1C66.9835 54.1 66.1968 54.3133 65.5302 54.74C64.8635 55.1533 64.3502 55.76 63.9902 56.56C63.6302 57.3467 63.4502 58.2933 63.4502 59.4C63.4502 60.5067 63.6302 61.46 63.9902 62.26C64.3502 63.0467 64.8635 63.6533 65.5302 64.08C66.1968 64.4933 66.9835 64.7 67.8902 64.7C68.8102 64.7 69.5968 64.4933 70.2502 64.08C70.9168 63.6533 71.4302 63.0467 71.7902 62.26C72.1502 61.46 72.3302 60.5067 72.3302 59.4C72.3302 58.2933 72.1502 57.3467 71.7902 56.56C71.4302 55.76 70.9168 55.1533 70.2502 54.74C69.5968 54.3133 68.8102 54.1 67.8902 54.1ZM81.7711 52.6C82.9311 52.6 83.9311 52.84 84.7711 53.32C85.6111 53.7867 86.3111 54.48 86.8711 55.4L85.5311 56.44C85.0378 55.5867 84.4778 54.9867 83.8511 54.64C83.2378 54.28 82.4911 54.1 81.6111 54.1C80.9044 54.1 80.3178 54.2 79.8511 54.4C79.3978 54.6 79.0644 54.8667 78.8511 55.2C78.6378 55.52 78.5311 55.8867 78.5311 56.3C78.5311 56.7667 78.6778 57.18 78.9711 57.54C79.2644 57.8867 79.8511 58.16 80.7311 58.36L83.5911 59C84.8578 59.28 85.7378 59.7067 86.2311 60.28C86.7378 60.84 86.9911 61.54 86.9911 62.38C86.9911 63.1267 86.7778 63.7933 86.3511 64.38C85.9378 64.9533 85.3511 65.4 84.5911 65.72C83.8311 66.04 82.9378 66.2 81.9111 66.2C80.9511 66.2 80.1044 66.0733 79.3711 65.82C78.6511 65.5533 78.0311 65.2 77.5111 64.76C76.9911 64.32 76.5644 63.8267 76.2311 63.28L77.6311 62.14C77.8844 62.6467 78.2111 63.0933 78.6111 63.48C79.0111 63.8667 79.4911 64.1667 80.0511 64.38C80.6244 64.5933 81.2778 64.7 82.0111 64.7C82.6911 64.7 83.2778 64.62 83.7711 64.46C84.2778 64.2867 84.6644 64.04 84.9311 63.72C85.1978 63.3867 85.3311 62.9867 85.3311 62.52C85.3311 62.0933 85.1911 61.7133 84.9111 61.38C84.6311 61.0333 84.1044 60.7733 83.3311 60.6L80.2311 59.9C79.4178 59.7133 78.7578 59.46 78.2511 59.14C77.7578 58.8067 77.3978 58.42 77.1711 57.98C76.9578 57.5267 76.8511 57.04 76.8511 56.52C76.8511 55.8133 77.0444 55.1667 77.4311 54.58C77.8311 53.98 78.3978 53.5 79.1311 53.14C79.8778 52.78 80.7578 52.6 81.7711 52.6ZM94.9636 52.2L94.4436 57.14H93.2036V52.2H94.9636ZM91.5836 52.2L91.0636 57.14H89.8236V52.2H91.5836ZM96.5272 63.6C96.8472 63.6 97.1139 63.6867 97.3272 63.86C97.5539 64.02 97.7272 64.2467 97.8472 64.54C97.9672 64.82 98.0272 65.1533 98.0272 65.54C98.0272 65.98 97.9472 66.4133 97.7872 66.84C97.6405 67.2667 97.4072 67.66 97.0872 68.02C96.7672 68.38 96.3539 68.68 95.8472 68.92L95.0072 68.14C95.3672 68.02 95.6805 67.8533 95.9472 67.64C96.2272 67.4267 96.4539 67.1867 96.6272 66.92C96.8005 66.6533 96.9139 66.38 96.9672 66.1L96.8872 66.06C96.8339 66.1 96.7672 66.1333 96.6872 66.16C96.6072 66.1867 96.4872 66.2 96.3272 66.2C96.1672 66.2 96.0005 66.1533 95.8272 66.06C95.6672 65.9667 95.5272 65.8333 95.4072 65.66C95.2872 65.4733 95.2272 65.2333 95.2272 64.94C95.2272 64.7 95.2872 64.48 95.4072 64.28C95.5272 64.0667 95.6805 63.9 95.8672 63.78C96.0672 63.66 96.2872 63.6 96.5272 63.6ZM113.696 59.54C113.696 58.7933 113.496 58.22 113.096 57.82C112.696 57.4067 112.129 57.2 111.396 57.2C110.703 57.2 110.116 57.3533 109.636 57.66C109.156 57.9533 108.803 58.4333 108.576 59.1L107.276 58.3C107.543 57.5533 108.036 56.9533 108.756 56.5C109.476 56.0333 110.369 55.8 111.436 55.8C112.156 55.8 112.809 55.9267 113.396 56.18C113.983 56.42 114.443 56.7933 114.776 57.3C115.123 57.7933 115.296 58.4333 115.296 59.22V64.06C115.296 64.54 115.549 64.78 116.056 64.78C116.309 64.78 116.556 64.7467 116.796 64.68L116.716 65.94C116.449 66.0733 116.103 66.14 115.676 66.14C115.289 66.14 114.943 66.0667 114.636 65.92C114.329 65.7733 114.089 65.5533 113.916 65.26C113.743 64.9533 113.656 64.5733 113.656 64.12V63.92L114.056 63.98C113.896 64.5 113.623 64.9267 113.236 65.26C112.849 65.58 112.416 65.82 111.936 65.98C111.456 66.1267 110.983 66.2 110.516 66.2C109.929 66.2 109.383 66.1 108.876 65.9C108.369 65.7 107.963 65.4 107.656 65C107.363 64.5867 107.216 64.08 107.216 63.48C107.216 62.7333 107.463 62.12 107.956 61.64C108.463 61.1467 109.163 60.8133 110.056 60.64L114.016 59.86V61.18L110.796 61.84C110.143 61.9733 109.656 62.16 109.336 62.4C109.016 62.64 108.856 62.9733 108.856 63.4C108.856 63.8133 109.016 64.1533 109.336 64.42C109.669 64.6733 110.136 64.8 110.736 64.8C111.123 64.8 111.489 64.7533 111.836 64.66C112.196 64.5533 112.516 64.4 112.796 64.2C113.076 63.9867 113.296 63.7267 113.456 63.42C113.616 63.1 113.696 62.7267 113.696 62.3V59.54ZM125.532 66V51.4H127.132V57.5C127.479 56.9 127.939 56.4667 128.512 56.2C129.085 55.9333 129.712 55.8 130.392 55.8C131.112 55.8 131.765 55.94 132.352 56.22C132.939 56.4867 133.405 56.9 133.752 57.46C134.112 58.02 134.292 58.7333 134.292 59.6V66H132.692V60.16C132.692 59.0533 132.452 58.2867 131.972 57.86C131.505 57.42 130.925 57.2 130.232 57.2C129.752 57.2 129.272 57.3133 128.792 57.54C128.312 57.7667 127.912 58.14 127.592 58.66C127.285 59.1667 127.132 59.8467 127.132 60.7V66H125.532ZM138.715 54.08C138.355 54.08 138.061 53.9733 137.835 53.76C137.621 53.5333 137.515 53.24 137.515 52.88C137.515 52.52 137.621 52.2333 137.835 52.02C138.061 51.7933 138.355 51.68 138.715 51.68C139.075 51.68 139.361 51.7933 139.575 52.02C139.801 52.2333 139.915 52.52 139.915 52.88C139.915 53.24 139.801 53.5333 139.575 53.76C139.361 53.9733 139.075 54.08 138.715 54.08ZM139.515 56V66H137.915V56H139.515ZM143.227 66V56H144.627L144.767 58.24L144.507 58.02C144.721 57.4867 145.007 57.06 145.367 56.74C145.727 56.4067 146.141 56.1667 146.607 56.02C147.087 55.8733 147.581 55.8 148.087 55.8C148.807 55.8 149.461 55.94 150.047 56.22C150.634 56.4867 151.101 56.9 151.447 57.46C151.807 58.02 151.987 58.7333 151.987 59.6V66H150.387V60.16C150.387 59.0533 150.147 58.2867 149.667 57.86C149.201 57.42 148.621 57.2 147.927 57.2C147.447 57.2 146.967 57.3133 146.487 57.54C146.007 57.7667 145.607 58.1333 145.287 58.64C144.981 59.1467 144.827 59.8267 144.827 60.68V66H143.227ZM157.833 53.16V63.24C157.833 63.7333 157.973 64.1 158.253 64.34C158.533 64.58 158.893 64.7 159.333 64.7C159.72 64.7 160.053 64.6333 160.333 64.5C160.613 64.3667 160.867 64.1867 161.093 63.96L161.653 65.3C161.347 65.58 160.98 65.8 160.553 65.96C160.14 66.12 159.66 66.2 159.113 66.2C158.607 66.2 158.133 66.1133 157.693 65.94C157.253 65.7533 156.9 65.4667 156.633 65.08C156.38 64.68 156.247 64.16 156.233 63.52V53.6L157.833 53.16ZM161.473 56V57.38H154.233V56H161.473ZM176.509 59.54C176.509 58.7933 176.309 58.22 175.909 57.82C175.509 57.4067 174.942 57.2 174.209 57.2C173.515 57.2 172.929 57.3533 172.449 57.66C171.969 57.9533 171.615 58.4333 171.389 59.1L170.089 58.3C170.355 57.5533 170.849 56.9533 171.569 56.5C172.289 56.0333 173.182 55.8 174.249 55.8C174.969 55.8 175.622 55.9267 176.209 56.18C176.795 56.42 177.255 56.7933 177.589 57.3C177.935 57.7933 178.109 58.4333 178.109 59.22V64.06C178.109 64.54 178.362 64.78 178.869 64.78C179.122 64.78 179.369 64.7467 179.609 64.68L179.529 65.94C179.262 66.0733 178.915 66.14 178.489 66.14C178.102 66.14 177.755 66.0667 177.449 65.92C177.142 65.7733 176.902 65.5533 176.729 65.26C176.555 64.9533 176.469 64.5733 176.469 64.12V63.92L176.869 63.98C176.709 64.5 176.435 64.9267 176.049 65.26C175.662 65.58 175.229 65.82 174.749 65.98C174.269 66.1267 173.795 66.2 173.329 66.2C172.742 66.2 172.195 66.1 171.689 65.9C171.182 65.7 170.775 65.4 170.469 65C170.175 64.5867 170.029 64.08 170.029 63.48C170.029 62.7333 170.275 62.12 170.769 61.64C171.275 61.1467 171.975 60.8133 172.869 60.64L176.829 59.86V61.18L173.609 61.84C172.955 61.9733 172.469 62.16 172.149 62.4C171.829 62.64 171.669 62.9733 171.669 63.4C171.669 63.8133 171.829 64.1533 172.149 64.42C172.482 64.6733 172.949 64.8 173.549 64.8C173.935 64.8 174.302 64.7533 174.649 64.66C175.009 64.5533 175.329 64.4 175.609 64.2C175.889 63.9867 176.109 63.7267 176.269 63.42C176.429 63.1 176.509 62.7267 176.509 62.3V59.54ZM183.966 53.16V63.24C183.966 63.7333 184.106 64.1 184.386 64.34C184.666 64.58 185.026 64.7 185.466 64.7C185.853 64.7 186.186 64.6333 186.466 64.5C186.746 64.3667 186.999 64.1867 187.226 63.96L187.786 65.3C187.479 65.58 187.113 65.8 186.686 65.96C186.273 66.12 185.793 66.2 185.246 66.2C184.739 66.2 184.266 66.1133 183.826 65.94C183.386 65.7533 183.033 65.4667 182.766 65.08C182.513 64.68 182.379 64.16 182.366 63.52V53.6L183.966 53.16ZM187.606 56V57.38H180.366V56H187.606ZM198.771 53.16V63.24C198.771 63.7333 198.911 64.1 199.191 64.34C199.471 64.58 199.831 64.7 200.271 64.7C200.657 64.7 200.991 64.6333 201.271 64.5C201.551 64.3667 201.804 64.1867 202.031 63.96L202.591 65.3C202.284 65.58 201.917 65.8 201.491 65.96C201.077 66.12 200.597 66.2 200.051 66.2C199.544 66.2 199.071 66.1133 198.631 65.94C198.191 65.7533 197.837 65.4667 197.571 65.08C197.317 64.68 197.184 64.16 197.171 63.52V53.6L198.771 53.16ZM202.411 56V57.38H195.171V56H202.411ZM204.79 66V51.4H206.39V57.5C206.736 56.9 207.196 56.4667 207.77 56.2C208.343 55.9333 208.97 55.8 209.65 55.8C210.37 55.8 211.023 55.94 211.61 56.22C212.196 56.4867 212.663 56.9 213.01 57.46C213.37 58.02 213.55 58.7333 213.55 59.6V66H211.95V60.16C211.95 59.0533 211.71 58.2867 211.23 57.86C210.763 57.42 210.183 57.2 209.49 57.2C209.01 57.2 208.53 57.3133 208.05 57.54C207.57 57.7667 207.17 58.14 206.85 58.66C206.543 59.1667 206.39 59.8467 206.39 60.7V66H204.79ZM221.353 66.2C220.406 66.2 219.559 65.9933 218.813 65.58C218.079 65.1667 217.506 64.5733 217.093 63.8C216.679 63.0133 216.473 62.08 216.473 61C216.473 59.92 216.679 58.9933 217.093 58.22C217.506 57.4333 218.073 56.8333 218.793 56.42C219.513 56.0067 220.333 55.8 221.253 55.8C222.186 55.8 222.979 56 223.633 56.4C224.299 56.8 224.806 57.3467 225.153 58.04C225.499 58.72 225.673 59.4867 225.673 60.34C225.673 60.5667 225.666 60.7733 225.653 60.96C225.639 61.1467 225.619 61.3133 225.592 61.46H217.513V60.04H224.893L224.073 60.2C224.073 59.24 223.806 58.5 223.273 57.98C222.753 57.46 222.066 57.2 221.213 57.2C220.559 57.2 219.993 57.3533 219.513 57.66C219.046 57.9533 218.679 58.3867 218.413 58.96C218.159 59.52 218.033 60.2 218.033 61C218.033 61.7867 218.166 62.4667 218.433 63.04C218.699 63.6133 219.073 64.0533 219.553 64.36C220.046 64.6533 220.633 64.8 221.313 64.8C222.046 64.8 222.639 64.66 223.093 64.38C223.559 64.1 223.933 63.72 224.213 63.24L225.473 63.98C225.219 64.4333 224.893 64.8267 224.493 65.16C224.106 65.4933 223.646 65.7533 223.113 65.94C222.593 66.1133 222.006 66.2 221.353 66.2ZM239.221 51.3C239.567 51.3 239.894 51.34 240.201 51.42C240.507 51.5 240.747 51.6133 240.921 51.76L240.501 53.06C240.341 52.9533 240.167 52.88 239.981 52.84C239.794 52.7867 239.587 52.76 239.361 52.76C238.787 52.76 238.341 52.9 238.021 53.18C237.701 53.4467 237.541 53.88 237.541 54.48V56V56.52V66H235.941V54.32C235.941 53.88 236.007 53.4733 236.141 53.1C236.274 52.7267 236.474 52.4067 236.741 52.14C237.021 51.8733 237.367 51.6667 237.781 51.52C238.194 51.3733 238.674 51.3 239.221 51.3ZM240.881 56V57.38H233.941V56H240.881ZM243.821 54.08C243.461 54.08 243.167 53.9733 242.941 53.76C242.727 53.5333 242.621 53.24 242.621 52.88C242.621 52.52 242.727 52.2333 242.941 52.02C243.167 51.7933 243.461 51.68 243.821 51.68C244.181 51.68 244.467 51.7933 244.681 52.02C244.907 52.2333 245.021 52.52 245.021 52.88C245.021 53.24 244.907 53.5333 244.681 53.76C244.467 53.9733 244.181 54.08 243.821 54.08ZM244.621 56V66H243.021V56H244.621ZM249.864 51.4V63.46C249.864 63.9667 249.958 64.32 250.144 64.52C250.331 64.7067 250.631 64.8 251.044 64.8C251.311 64.8 251.531 64.78 251.704 64.74C251.878 64.7 252.111 64.6267 252.404 64.52L252.144 65.92C251.931 66.0133 251.698 66.08 251.444 66.12C251.191 66.1733 250.931 66.2 250.664 66.2C249.851 66.2 249.244 65.98 248.844 65.54C248.458 65.1 248.264 64.4267 248.264 63.52V51.4H249.864ZM254.458 66V56H255.858L255.958 57.56C256.318 56.9467 256.784 56.5 257.358 56.22C257.944 55.94 258.544 55.8 259.158 55.8C259.864 55.8 260.531 55.96 261.158 56.28C261.784 56.6 262.264 57.0933 262.598 57.76C262.811 57.3067 263.111 56.94 263.498 56.66C263.884 56.3667 264.304 56.1533 264.758 56.02C265.224 55.8733 265.664 55.8 266.078 55.8C266.718 55.8 267.324 55.9333 267.898 56.2C268.484 56.4667 268.964 56.88 269.338 57.44C269.711 58 269.898 58.72 269.898 59.6V66H268.298V59.76C268.298 58.8533 268.071 58.2 267.618 57.8C267.164 57.4 266.604 57.2 265.938 57.2C265.418 57.2 264.931 57.3267 264.478 57.58C264.024 57.8333 263.658 58.2067 263.378 58.7C263.111 59.1933 262.978 59.8 262.978 60.52V66H261.378V59.76C261.378 58.8533 261.151 58.2 260.698 57.8C260.244 57.4 259.684 57.2 259.018 57.2C258.578 57.2 258.124 57.32 257.658 57.56C257.204 57.7867 256.824 58.1533 256.518 58.66C256.211 59.1667 256.058 59.8333 256.058 60.66V66H254.458ZM273.284 52C273.604 52 273.871 52.0867 274.084 52.26C274.311 52.42 274.484 52.6467 274.604 52.94C274.724 53.22 274.784 53.5533 274.784 53.94C274.784 54.38 274.704 54.8133 274.544 55.24C274.397 55.6667 274.164 56.06 273.844 56.42C273.524 56.78 273.111 57.08 272.604 57.32L271.764 56.54C272.124 56.42 272.437 56.2533 272.704 56.04C272.984 55.8267 273.211 55.5867 273.384 55.32C273.557 55.0533 273.671 54.78 273.724 54.5L273.644 54.46C273.591 54.5 273.524 54.5333 273.444 54.56C273.364 54.5867 273.244 54.6 273.084 54.6C272.924 54.6 272.757 54.5533 272.584 54.46C272.424 54.3667 272.284 54.2333 272.164 54.06C272.044 53.8733 271.984 53.6333 271.984 53.34C271.984 53.1 272.044 52.88 272.164 52.68C272.284 52.4667 272.437 52.3 272.624 52.18C272.824 52.06 273.044 52 273.284 52ZM280.284 66.2C279.311 66.2 278.411 65.9933 277.584 65.58C276.771 65.1667 276.144 64.58 275.704 63.82L277.064 62.84C277.358 63.4533 277.784 63.9333 278.344 64.28C278.918 64.6267 279.604 64.8 280.404 64.8C281.111 64.8 281.664 64.6667 282.064 64.4C282.464 64.12 282.664 63.76 282.664 63.32C282.664 63.04 282.571 62.7867 282.384 62.56C282.211 62.32 281.871 62.1467 281.364 62.04L278.964 61.54C277.991 61.34 277.291 61.0067 276.864 60.54C276.451 60.0733 276.244 59.4933 276.244 58.8C276.244 58.2533 276.398 57.7533 276.704 57.3C277.024 56.8467 277.471 56.4867 278.044 56.22C278.631 55.94 279.318 55.8 280.104 55.8C281.091 55.8 281.924 55.9933 282.604 56.38C283.284 56.7667 283.791 57.3133 284.124 58.02L282.784 58.9C282.558 58.3133 282.191 57.8867 281.684 57.62C281.178 57.34 280.651 57.2 280.104 57.2C279.624 57.2 279.211 57.2667 278.864 57.4C278.531 57.5333 278.271 57.72 278.084 57.96C277.911 58.1867 277.824 58.4467 277.824 58.74C277.824 59.0333 277.924 59.3067 278.124 59.56C278.324 59.8 278.698 59.9733 279.244 60.08L281.744 60.6C282.678 60.7867 283.331 61.0933 283.704 61.52C284.078 61.9467 284.264 62.4667 284.264 63.08C284.264 63.7067 284.098 64.26 283.764 64.74C283.431 65.2067 282.964 65.5667 282.364 65.82C281.764 66.0733 281.071 66.2 280.284 66.2ZM298.188 55.8C298.881 55.8 299.488 55.9067 300.008 56.12C300.541 56.3333 301.001 56.64 301.388 57.04C301.774 57.44 302.088 57.9133 302.328 58.46L300.808 59.18C300.594 58.54 300.268 58.0533 299.828 57.72C299.401 57.3733 298.841 57.2 298.148 57.2C297.481 57.2 296.908 57.3533 296.428 57.66C295.948 57.9533 295.581 58.3867 295.328 58.96C295.074 59.52 294.948 60.2 294.948 61C294.948 61.7867 295.074 62.4667 295.328 63.04C295.581 63.6133 295.948 64.0533 296.428 64.36C296.908 64.6533 297.481 64.8 298.148 64.8C298.668 64.8 299.114 64.72 299.488 64.56C299.874 64.4 300.188 64.1667 300.428 63.86C300.681 63.5533 300.854 63.18 300.948 62.74L302.428 63.26C302.201 63.8733 301.888 64.4 301.488 64.84C301.101 65.28 300.628 65.62 300.068 65.86C299.521 66.0867 298.894 66.2 298.188 66.2C297.254 66.2 296.421 65.9933 295.688 65.58C294.954 65.1667 294.381 64.5733 293.968 63.8C293.554 63.0133 293.348 62.08 293.348 61C293.348 59.92 293.554 58.9933 293.968 58.22C294.381 57.4333 294.954 56.8333 295.688 56.42C296.421 56.0067 297.254 55.8 298.188 55.8ZM305.239 66V51.4H306.839V57.5C307.186 56.9 307.646 56.4667 308.219 56.2C308.792 55.9333 309.419 55.8 310.099 55.8C310.819 55.8 311.472 55.94 312.059 56.22C312.646 56.4867 313.112 56.9 313.459 57.46C313.819 58.02 313.999 58.7333 313.999 59.6V66H312.399V60.16C312.399 59.0533 312.159 58.2867 311.679 57.86C311.212 57.42 310.632 57.2 309.939 57.2C309.459 57.2 308.979 57.3133 308.499 57.54C308.019 57.7667 307.619 58.14 307.299 58.66C306.992 59.1667 306.839 59.8467 306.839 60.7V66H305.239ZM323.462 59.54C323.462 58.7933 323.262 58.22 322.862 57.82C322.462 57.4067 321.895 57.2 321.162 57.2C320.468 57.2 319.882 57.3533 319.402 57.66C318.922 57.9533 318.568 58.4333 318.342 59.1L317.042 58.3C317.308 57.5533 317.802 56.9533 318.522 56.5C319.242 56.0333 320.135 55.8 321.202 55.8C321.922 55.8 322.575 55.9267 323.162 56.18C323.748 56.42 324.208 56.7933 324.542 57.3C324.888 57.7933 325.062 58.4333 325.062 59.22V64.06C325.062 64.54 325.315 64.78 325.822 64.78C326.075 64.78 326.322 64.7467 326.562 64.68L326.482 65.94C326.215 66.0733 325.868 66.14 325.442 66.14C325.055 66.14 324.708 66.0667 324.402 65.92C324.095 65.7733 323.855 65.5533 323.682 65.26C323.508 64.9533 323.422 64.5733 323.422 64.12V63.92L323.822 63.98C323.662 64.5 323.388 64.9267 323.002 65.26C322.615 65.58 322.182 65.82 321.702 65.98C321.222 66.1267 320.748 66.2 320.282 66.2C319.695 66.2 319.148 66.1 318.642 65.9C318.135 65.7 317.728 65.4 317.422 65C317.128 64.5867 316.982 64.08 316.982 63.48C316.982 62.7333 317.228 62.12 317.722 61.64C318.228 61.1467 318.928 60.8133 319.822 60.64L323.782 59.86V61.18L320.562 61.84C319.908 61.9733 319.422 62.16 319.102 62.4C318.782 62.64 318.622 62.9733 318.622 63.4C318.622 63.8133 318.782 64.1533 319.102 64.42C319.435 64.6733 319.902 64.8 320.502 64.8C320.888 64.8 321.255 64.7533 321.602 64.66C321.962 64.5533 322.282 64.4 322.562 64.2C322.842 63.9867 323.062 63.7267 323.222 63.42C323.382 63.1 323.462 62.7267 323.462 62.3V59.54ZM328.95 66V56H330.25L330.47 57.64C330.75 57.0267 331.157 56.5667 331.69 56.26C332.237 55.9533 332.897 55.8 333.67 55.8C333.843 55.8 334.03 55.8133 334.23 55.84C334.443 55.8667 334.623 55.92 334.77 56L334.49 57.46C334.343 57.4067 334.183 57.3667 334.01 57.34C333.837 57.3133 333.59 57.3 333.27 57.3C332.857 57.3 332.437 57.42 332.01 57.66C331.597 57.9 331.25 58.2667 330.97 58.76C330.69 59.24 330.55 59.8533 330.55 60.6V66H328.95ZM342.68 59.54C342.68 58.7933 342.48 58.22 342.08 57.82C341.68 57.4067 341.114 57.2 340.38 57.2C339.687 57.2 339.1 57.3533 338.62 57.66C338.14 57.9533 337.787 58.4333 337.56 59.1L336.26 58.3C336.527 57.5533 337.02 56.9533 337.74 56.5C338.46 56.0333 339.354 55.8 340.42 55.8C341.14 55.8 341.794 55.9267 342.38 56.18C342.967 56.42 343.427 56.7933 343.76 57.3C344.107 57.7933 344.28 58.4333 344.28 59.22V64.06C344.28 64.54 344.534 64.78 345.04 64.78C345.294 64.78 345.54 64.7467 345.78 64.68L345.7 65.94C345.434 66.0733 345.087 66.14 344.66 66.14C344.274 66.14 343.927 66.0667 343.62 65.92C343.314 65.7733 343.074 65.5533 342.9 65.26C342.727 64.9533 342.64 64.5733 342.64 64.12V63.92L343.04 63.98C342.88 64.5 342.607 64.9267 342.22 65.26C341.834 65.58 341.4 65.82 340.92 65.98C340.44 66.1267 339.967 66.2 339.5 66.2C338.914 66.2 338.367 66.1 337.86 65.9C337.354 65.7 336.947 65.4 336.64 65C336.347 64.5867 336.2 64.08 336.2 63.48C336.2 62.7333 336.447 62.12 336.94 61.64C337.447 61.1467 338.147 60.8133 339.04 60.64L343 59.86V61.18L339.78 61.84C339.127 61.9733 338.64 62.16 338.32 62.4C338 62.64 337.84 62.9733 337.84 63.4C337.84 63.8133 338 64.1533 338.32 64.42C338.654 64.6733 339.12 64.8 339.72 64.8C340.107 64.8 340.474 64.7533 340.82 64.66C341.18 64.5533 341.5 64.4 341.78 64.2C342.06 63.9867 342.28 63.7267 342.44 63.42C342.6 63.1 342.68 62.7267 342.68 62.3V59.54ZM352.309 55.8C353.002 55.8 353.609 55.9067 354.129 56.12C354.662 56.3333 355.122 56.64 355.509 57.04C355.895 57.44 356.209 57.9133 356.449 58.46L354.929 59.18C354.715 58.54 354.389 58.0533 353.949 57.72C353.522 57.3733 352.962 57.2 352.269 57.2C351.602 57.2 351.029 57.3533 350.549 57.66C350.069 57.9533 349.702 58.3867 349.449 58.96C349.195 59.52 349.069 60.2 349.069 61C349.069 61.7867 349.195 62.4667 349.449 63.04C349.702 63.6133 350.069 64.0533 350.549 64.36C351.029 64.6533 351.602 64.8 352.269 64.8C352.789 64.8 353.235 64.72 353.609 64.56C353.995 64.4 354.309 64.1667 354.549 63.86C354.802 63.5533 354.975 63.18 355.069 62.74L356.549 63.26C356.322 63.8733 356.009 64.4 355.609 64.84C355.222 65.28 354.749 65.62 354.189 65.86C353.642 66.0867 353.015 66.2 352.309 66.2C351.375 66.2 350.542 65.9933 349.809 65.58C349.075 65.1667 348.502 64.5733 348.089 63.8C347.675 63.0133 347.469 62.08 347.469 61C347.469 59.92 347.675 58.9933 348.089 58.22C348.502 57.4333 349.075 56.8333 349.809 56.42C350.542 56.0067 351.375 55.8 352.309 55.8ZM361.72 53.16V63.24C361.72 63.7333 361.86 64.1 362.14 64.34C362.42 64.58 362.78 64.7 363.22 64.7C363.607 64.7 363.94 64.6333 364.22 64.5C364.5 64.3667 364.753 64.1867 364.98 63.96L365.54 65.3C365.233 65.58 364.867 65.8 364.44 65.96C364.027 66.12 363.547 66.2 363 66.2C362.493 66.2 362.02 66.1133 361.58 65.94C361.14 65.7533 360.787 65.4667 360.52 65.08C360.267 64.68 360.133 64.16 360.12 63.52V53.6L361.72 53.16ZM365.36 56V57.38H358.12V56H365.36ZM371.919 66.2C370.972 66.2 370.126 65.9933 369.379 65.58C368.646 65.1667 368.072 64.5733 367.659 63.8C367.246 63.0133 367.039 62.08 367.039 61C367.039 59.92 367.246 58.9933 367.659 58.22C368.072 57.4333 368.639 56.8333 369.359 56.42C370.079 56.0067 370.899 55.8 371.819 55.8C372.752 55.8 373.546 56 374.199 56.4C374.866 56.8 375.372 57.3467 375.719 58.04C376.066 58.72 376.239 59.4867 376.239 60.34C376.239 60.5667 376.232 60.7733 376.219 60.96C376.206 61.1467 376.186 61.3133 376.159 61.46H368.079V60.04H375.459L374.639 60.2C374.639 59.24 374.372 58.5 373.839 57.98C373.319 57.46 372.632 57.2 371.779 57.2C371.126 57.2 370.559 57.3533 370.079 57.66C369.612 57.9533 369.246 58.3867 368.979 58.96C368.726 59.52 368.599 60.2 368.599 61C368.599 61.7867 368.732 62.4667 368.999 63.04C369.266 63.6133 369.639 64.0533 370.119 64.36C370.612 64.6533 371.199 64.8 371.879 64.8C372.612 64.8 373.206 64.66 373.659 64.38C374.126 64.1 374.499 63.72 374.779 63.24L376.039 63.98C375.786 64.4333 375.459 64.8267 375.059 65.16C374.672 65.4933 374.212 65.7533 373.679 65.94C373.159 66.1133 372.572 66.2 371.919 66.2ZM379.282 66V56H380.582L380.802 57.64C381.082 57.0267 381.489 56.5667 382.022 56.26C382.569 55.9533 383.229 55.8 384.002 55.8C384.175 55.8 384.362 55.8133 384.562 55.84C384.775 55.8667 384.955 55.92 385.102 56L384.822 57.46C384.675 57.4067 384.515 57.3667 384.342 57.34C384.169 57.3133 383.922 57.3 383.602 57.3C383.189 57.3 382.769 57.42 382.342 57.66C381.929 57.9 381.582 58.2667 381.302 58.76C381.022 59.24 380.882 59.8533 380.882 60.6V66H379.282ZM390.616 66.2C389.643 66.2 388.743 65.9933 387.916 65.58C387.103 65.1667 386.476 64.58 386.036 63.82L387.396 62.84C387.69 63.4533 388.116 63.9333 388.676 64.28C389.25 64.6267 389.936 64.8 390.736 64.8C391.443 64.8 391.996 64.6667 392.396 64.4C392.796 64.12 392.996 63.76 392.996 63.32C392.996 63.04 392.903 62.7867 392.716 62.56C392.543 62.32 392.203 62.1467 391.696 62.04L389.296 61.54C388.323 61.34 387.623 61.0067 387.196 60.54C386.783 60.0733 386.576 59.4933 386.576 58.8C386.576 58.2533 386.73 57.7533 387.036 57.3C387.356 56.8467 387.803 56.4867 388.376 56.22C388.963 55.94 389.65 55.8 390.436 55.8C391.423 55.8 392.256 55.9933 392.936 56.38C393.616 56.7667 394.123 57.3133 394.456 58.02L393.116 58.9C392.89 58.3133 392.523 57.8867 392.016 57.62C391.51 57.34 390.983 57.2 390.436 57.2C389.956 57.2 389.543 57.2667 389.196 57.4C388.863 57.5333 388.603 57.72 388.416 57.96C388.243 58.1867 388.156 58.4467 388.156 58.74C388.156 59.0333 388.256 59.3067 388.456 59.56C388.656 59.8 389.03 59.9733 389.576 60.08L392.076 60.6C393.01 60.7867 393.663 61.0933 394.036 61.52C394.41 61.9467 394.596 62.4667 394.596 63.08C394.596 63.7067 394.43 64.26 394.096 64.74C393.763 65.2067 393.296 65.5667 392.696 65.82C392.096 66.0733 391.403 66.2 390.616 66.2ZM398.908 52.2L398.388 57.14H397.148V52.2H398.908ZM412.772 66.2C411.945 66.2 411.185 65.9933 410.492 65.58C409.798 65.1667 409.245 64.5733 408.832 63.8C408.418 63.0133 408.212 62.08 408.212 61C408.212 59.8933 408.432 58.9533 408.872 58.18C409.312 57.4067 409.892 56.82 410.612 56.42C411.332 56.0067 412.105 55.8 412.932 55.8C413.758 55.8 414.472 56.0133 415.072 56.44C415.685 56.8667 416.092 57.4333 416.292 58.14L416.092 58.28V51.4H417.692V66H416.292L416.152 63.58L416.372 63.46C416.278 64.0467 416.052 64.5467 415.692 64.96C415.345 65.36 414.912 65.6667 414.392 65.88C413.885 66.0933 413.345 66.2 412.772 66.2ZM412.932 64.8C413.572 64.8 414.125 64.64 414.592 64.32C415.072 64 415.438 63.5467 415.692 62.96C415.958 62.36 416.092 61.66 416.092 60.86C416.092 60.1 415.958 59.4467 415.692 58.9C415.438 58.3533 415.078 57.9333 414.612 57.64C414.158 57.3467 413.625 57.2 413.012 57.2C411.998 57.2 411.212 57.5467 410.652 58.24C410.092 58.9333 409.812 59.8533 409.812 61C409.812 62.1467 410.085 63.0667 410.632 63.76C411.178 64.4533 411.945 64.8 412.932 64.8ZM422.211 54.08C421.851 54.08 421.557 53.9733 421.331 53.76C421.117 53.5333 421.011 53.24 421.011 52.88C421.011 52.52 421.117 52.2333 421.331 52.02C421.557 51.7933 421.851 51.68 422.211 51.68C422.571 51.68 422.857 51.7933 423.071 52.02C423.297 52.2333 423.411 52.52 423.411 52.88C423.411 53.24 423.297 53.5333 423.071 53.76C422.857 53.9733 422.571 54.08 422.211 54.08ZM423.011 56V66H421.411V56H423.011ZM430.323 66.2C429.35 66.2 428.45 65.9933 427.623 65.58C426.81 65.1667 426.183 64.58 425.743 63.82L427.103 62.84C427.397 63.4533 427.823 63.9333 428.383 64.28C428.957 64.6267 429.643 64.8 430.443 64.8C431.15 64.8 431.703 64.6667 432.103 64.4C432.503 64.12 432.703 63.76 432.703 63.32C432.703 63.04 432.61 62.7867 432.423 62.56C432.25 62.32 431.91 62.1467 431.403 62.04L429.003 61.54C428.03 61.34 427.33 61.0067 426.903 60.54C426.49 60.0733 426.283 59.4933 426.283 58.8C426.283 58.2533 426.437 57.7533 426.743 57.3C427.063 56.8467 427.51 56.4867 428.083 56.22C428.67 55.94 429.357 55.8 430.143 55.8C431.13 55.8 431.963 55.9933 432.643 56.38C433.323 56.7667 433.83 57.3133 434.163 58.02L432.823 58.9C432.597 58.3133 432.23 57.8867 431.723 57.62C431.217 57.34 430.69 57.2 430.143 57.2C429.663 57.2 429.25 57.2667 428.903 57.4C428.57 57.5333 428.31 57.72 428.123 57.96C427.95 58.1867 427.863 58.4467 427.863 58.74C427.863 59.0333 427.963 59.3067 428.163 59.56C428.363 59.8 428.737 59.9733 429.283 60.08L431.783 60.6C432.717 60.7867 433.37 61.0933 433.743 61.52C434.117 61.9467 434.303 62.4667 434.303 63.08C434.303 63.7067 434.137 64.26 433.803 64.74C433.47 65.2067 433.003 65.5667 432.403 65.82C431.803 66.0733 431.11 66.2 430.323 66.2ZM439.63 53.16V63.24C439.63 63.7333 439.77 64.1 440.05 64.34C440.33 64.58 440.69 64.7 441.13 64.7C441.517 64.7 441.85 64.6333 442.13 64.5C442.41 64.3667 442.663 64.1867 442.89 63.96L443.45 65.3C443.143 65.58 442.777 65.8 442.35 65.96C441.937 66.12 441.457 66.2 440.91 66.2C440.403 66.2 439.93 66.1133 439.49 65.94C439.05 65.7533 438.697 65.4667 438.43 65.08C438.177 64.68 438.043 64.16 438.03 63.52V53.6L439.63 53.16ZM443.27 56V57.38H436.03V56H443.27ZM445.649 66V56H446.949L447.169 57.64C447.449 57.0267 447.856 56.5667 448.389 56.26C448.936 55.9533 449.596 55.8 450.369 55.8C450.542 55.8 450.729 55.8133 450.929 55.84C451.142 55.8667 451.322 55.92 451.469 56L451.189 57.46C451.042 57.4067 450.882 57.3667 450.709 57.34C450.536 57.3133 450.289 57.3 449.969 57.3C449.556 57.3 449.136 57.42 448.709 57.66C448.296 57.9 447.949 58.2667 447.669 58.76C447.389 59.24 447.249 59.8533 447.249 60.6V66H445.649ZM457.681 66.2C456.734 66.2 455.887 65.9933 455.141 65.58C454.407 65.1667 453.834 64.5733 453.421 63.8C453.007 63.0133 452.801 62.08 452.801 61C452.801 59.92 453.007 58.9933 453.421 58.22C453.834 57.4333 454.401 56.8333 455.121 56.42C455.841 56.0067 456.661 55.8 457.581 55.8C458.514 55.8 459.307 56 459.961 56.4C460.627 56.8 461.134 57.3467 461.481 58.04C461.827 58.72 462.001 59.4867 462.001 60.34C462.001 60.5667 461.994 60.7733 461.981 60.96C461.967 61.1467 461.947 61.3133 461.921 61.46H453.841V60.04H461.221L460.401 60.2C460.401 59.24 460.134 58.5 459.601 57.98C459.081 57.46 458.394 57.2 457.541 57.2C456.887 57.2 456.321 57.3533 455.841 57.66C455.374 57.9533 455.007 58.3867 454.741 58.96C454.487 59.52 454.361 60.2 454.361 61C454.361 61.7867 454.494 62.4667 454.761 63.04C455.027 63.6133 455.401 64.0533 455.881 64.36C456.374 64.6533 456.961 64.8 457.641 64.8C458.374 64.8 458.967 64.66 459.421 64.38C459.887 64.1 460.261 63.72 460.541 63.24L461.801 63.98C461.547 64.4333 461.221 64.8267 460.821 65.16C460.434 65.4933 459.974 65.7533 459.441 65.94C458.921 66.1133 458.334 66.2 457.681 66.2ZM468.644 66.2C467.67 66.2 466.77 65.9933 465.944 65.58C465.13 65.1667 464.504 64.58 464.064 63.82L465.424 62.84C465.717 63.4533 466.144 63.9333 466.704 64.28C467.277 64.6267 467.964 64.8 468.764 64.8C469.47 64.8 470.024 64.6667 470.424 64.4C470.824 64.12 471.024 63.76 471.024 63.32C471.024 63.04 470.93 62.7867 470.744 62.56C470.57 62.32 470.23 62.1467 469.724 62.04L467.324 61.54C466.35 61.34 465.65 61.0067 465.224 60.54C464.81 60.0733 464.604 59.4933 464.604 58.8C464.604 58.2533 464.757 57.7533 465.064 57.3C465.384 56.8467 465.83 56.4867 466.404 56.22C466.99 55.94 467.677 55.8 468.464 55.8C469.45 55.8 470.284 55.9933 470.964 56.38C471.644 56.7667 472.15 57.3133 472.484 58.02L471.144 58.9C470.917 58.3133 470.55 57.8867 470.044 57.62C469.537 57.34 469.01 57.2 468.464 57.2C467.984 57.2 467.57 57.2667 467.224 57.4C466.89 57.5333 466.63 57.72 466.444 57.96C466.27 58.1867 466.184 58.4467 466.184 58.74C466.184 59.0333 466.284 59.3067 466.484 59.56C466.684 59.8 467.057 59.9733 467.604 60.08L470.104 60.6C471.037 60.7867 471.69 61.0933 472.064 61.52C472.437 61.9467 472.624 62.4667 472.624 63.08C472.624 63.7067 472.457 64.26 472.124 64.74C471.79 65.2067 471.324 65.5667 470.724 65.82C470.124 66.0733 469.43 66.2 468.644 66.2ZM479.19 66.2C478.217 66.2 477.317 65.9933 476.49 65.58C475.677 65.1667 475.05 64.58 474.61 63.82L475.97 62.84C476.264 63.4533 476.69 63.9333 477.25 64.28C477.824 64.6267 478.51 64.8 479.31 64.8C480.017 64.8 480.57 64.6667 480.97 64.4C481.37 64.12 481.57 63.76 481.57 63.32C481.57 63.04 481.477 62.7867 481.29 62.56C481.117 62.32 480.777 62.1467 480.27 62.04L477.87 61.54C476.897 61.34 476.197 61.0067 475.77 60.54C475.357 60.0733 475.15 59.4933 475.15 58.8C475.15 58.2533 475.304 57.7533 475.61 57.3C475.93 56.8467 476.377 56.4867 476.95 56.22C477.537 55.94 478.224 55.8 479.01 55.8C479.997 55.8 480.83 55.9933 481.51 56.38C482.19 56.7667 482.697 57.3133 483.03 58.02L481.69 58.9C481.464 58.3133 481.097 57.8867 480.59 57.62C480.084 57.34 479.557 57.2 479.01 57.2C478.53 57.2 478.117 57.2667 477.77 57.4C477.437 57.5333 477.177 57.72 476.99 57.96C476.817 58.1867 476.73 58.4467 476.73 58.74C476.73 59.0333 476.83 59.3067 477.03 59.56C477.23 59.8 477.604 59.9733 478.15 60.08L480.65 60.6C481.584 60.7867 482.237 61.0933 482.61 61.52C482.984 61.9467 483.17 62.4667 483.17 63.08C483.17 63.7067 483.004 64.26 482.67 64.74C482.337 65.2067 481.87 65.5667 481.27 65.82C480.67 66.0733 479.977 66.2 479.19 66.2ZM486.937 63.6C487.324 63.6 487.637 63.72 487.877 63.96C488.117 64.2 488.237 64.5133 488.237 64.9C488.237 65.2867 488.117 65.6 487.877 65.84C487.637 66.08 487.324 66.2 486.937 66.2C486.551 66.2 486.237 66.08 485.997 65.84C485.757 65.6 485.637 65.2867 485.637 64.9C485.637 64.5133 485.757 64.2 485.997 63.96C486.237 63.72 486.551 63.6 486.937 63.6Z" fill="white"/>
</svg>
